<?xml version="1.0" encoding="UTF-8" standalone="no" ?>
<!DOCTYPE svg PUBLIC "-//W3C//DTD SVG 1.1//EN"
    "http://www.w3.org/Graphics/SVG/1.1/DTD/svg11.dtd">
<svg
    version="1.1"
    xmlns="http://www.w3.org/2000/svg"
    xmlns:dc="http://purl.org/dc/elements/1.1/"
    xmlns:xl="http://www.w3.org/1999/xlink"
    viewBox="371 142 566 209"
    width="1698"
    height="627"
>
  <style>
    @import url('/LectureDoc2/ext/fonts/ld-fonts.css');
  </style>
  <defs>
    <marker
            orient="auto"
            overflow="visible"
            markerUnits="strokeWidth"
            id="StickArrow_Marker"
            stroke-linejoin="miter"
            stroke-miterlimit="10"
            viewBox="-1 -3 7 6"
            markerWidth="7"
            markerHeight="6"
            color="black"
        >
      <g>
        <path
                    d="M 4.8 0 L 0 0 M 0 -1.8 L 4.8 0 L 0 1.8"
                    fill="none"
                    stroke="currentColor"
                    stroke-width="1"
                />
      </g>
    </marker>
    <marker
            orient="auto"
            overflow="visible"
            markerUnits="strokeWidth"
            id="SharpArrow_Marker"
            stroke-linejoin="miter"
            stroke-miterlimit="10"
            viewBox="-3 -3 7 6"
            markerWidth="7"
            markerHeight="6"
            color="black"
        >
      <g>
        <path
                    d="M 3 0 L -1.8 -1.8 L 0 0 L 0 0 L -1.8 1.8 Z"
                    fill="currentColor"
                    stroke="currentColor"
                    stroke-width="1"
                />
      </g>
    </marker>
  </defs>
  <metadata> Produced by OmniGraffle 8.0\n2025-03-23 12:16:37 +0000</metadata>
  <g
        id="shared-data-space"
        stroke-dasharray="none"
        stroke-opacity="1"
        fill-opacity="1"
        fill="none"
        stroke="none"
    >
    <title>shared-data-space</title>
    <rect fill="white" x="371" y="142" width="566" height="209" />
    <g id="shared-data-space_Layer_1">
      <title>Layer 1</title>
      <g id="Graphic_25">
        <path
                    d="M 431 143 L 588.232 143 C 590.44114 143 592.232 144.79086 592.232 147 L 592.232 192 C 592.232 194.20914 590.44114 196 588.232 196 L 431 196 C 428.79086 196 427 194.20914 427 192 L 427 147 C 427 144.79086 428.79086 143 431 143 Z"
                    fill="#fbfbfb"
                />
        <path
                    d="M 431 143 L 588.232 143 C 590.44114 143 592.232 144.79086 592.232 147 L 592.232 192 C 592.232 194.20914 590.44114 196 588.232 196 L 431 196 C 428.79086 196 427 194.20914 427 192 L 427 147 C 427 144.79086 428.79086 143 431 143 Z"
                    stroke="#a5a5a5"
                    stroke-linecap="round"
                    stroke-linejoin="round"
                    stroke-width="1"
                />
        <text transform="translate(432 160)" fill="black">
          <tspan
                        font-family="Noto Sans Display"
                        font-size="14"
                        font-weight="700"
                        fill="black"
                        x="34.565997"
                        y="15"
                    >Komponente</tspan>
        </text>
      </g>
      <g id="Graphic_24">
        <path
                    d="M 670 143 L 827.232 143 C 829.4411 143 831.232 144.79086 831.232 147 L 831.232 192 C 831.232 194.20914 829.4411 196 827.232 196 L 670 196 C 667.7909 196 666 194.20914 666 192 L 666 147 C 666 144.79086 667.7909 143 670 143 Z"
                    fill="#fbfbfb"
                />
        <path
                    d="M 670 143 L 827.232 143 C 829.4411 143 831.232 144.79086 831.232 147 L 831.232 192 C 831.232 194.20914 829.4411 196 827.232 196 L 670 196 C 667.7909 196 666 194.20914 666 192 L 666 147 C 666 144.79086 667.7909 143 670 143 Z"
                    stroke="#a5a5a5"
                    stroke-linecap="round"
                    stroke-linejoin="round"
                    stroke-width="1"
                />
        <text transform="translate(671 160)" fill="black">
          <tspan
                        font-family="Noto Sans Display"
                        font-size="14"
                        font-weight="700"
                        fill="black"
                        x="34.565997"
                        y="15"
                    >Komponente</tspan>
        </text>
      </g>
      <g id="Graphic_23">
        <path
                    d="M 536 344.7 L 536 302.3 C 536 299.3744 579.68 297 633.5 297 C 687.32 297 731 299.3744 731 302.3 L 731 344.7 C 731 347.6256 687.32 350 633.5 350 C 579.68 350 536 347.6256 536 344.7"
                    fill="#fbfbfb"
                />
        <path
                    d="M 536 344.7 L 536 302.3 C 536 299.3744 579.68 297 633.5 297 C 687.32 297 731 299.3744 731 302.3 L 731 344.7 C 731 347.6256 687.32 350 633.5 350 C 579.68 350 536 347.6256 536 344.7 M 536 302.3 C 536 305.2256 579.68 307.6 633.5 307.6 C 687.32 307.6 731 305.2256 731 302.3"
                    stroke="#a5a5a5"
                    stroke-linecap="round"
                    stroke-linejoin="round"
                    stroke-width="1"
                />
        <text transform="translate(541 307.15)" fill="black">
          <tspan
                        font-family="Noto Sans Display"
                        font-size="14"
                        font-weight="700"
                        fill="black"
                        x="15.808"
                        y="15"
                    >geteilter (persistenter) </tspan>
          <tspan
                        font-family="Noto Sans Display"
                        font-size="14"
                        font-weight="700"
                        fill="black"
                        x="43.892"
                        y="34"
                    >Datenspeicher</tspan>
        </text>
      </g>
      <g id="Graphic_22">
        <path
                    d="M 372 246.5 L 400.8794 226 L 400.8794 237.0537 L 850.1206 237.0537 L 850.1206 226 L 879 246.5 L 850.1206 267 L 850.1206 255.9463 L 400.8794 255.9463 L 400.8794 267 Z"
                    fill="white"
                />
        <path
                    d="M 372 246.5 L 400.8794 226 L 400.8794 237.0537 L 850.1206 237.0537 L 850.1206 226 L 879 246.5 L 850.1206 267 L 850.1206 255.9463 L 400.8794 255.9463 L 400.8794 267 Z"
                    stroke="black"
                    stroke-linecap="round"
                    stroke-linejoin="round"
                    stroke-width="1"
                />
      </g>
      <g id="Line_33">
        <path
                    d="M 687 196 L 687 236 L 664.47436 258.52564 L 664.47436 284.1"
                    marker-end="url(#StickArrow_Marker)"
                    stroke="black"
                    stroke-linecap="round"
                    stroke-linejoin="round"
                    stroke-dasharray="8.0,8.0"
                    stroke-width="2"
                />
      </g>
      <g id="Line_35">
        <path
                    d="M 530 195 L 530 236 L 550.1068 256.10677 L 550.1068 288.7"
                    marker-end="url(#SharpArrow_Marker)"
                    stroke="black"
                    stroke-linecap="round"
                    stroke-linejoin="round"
                    stroke-width="2"
                />
      </g>
      <g id="Graphic_38">
        <text transform="translate(538.06 204.776)" fill="black">
          <tspan
                        font-family="Noto Sans Display"
                        font-size="14"
                        font-weight="400"
                        fill="black"
                        x="20250468e-20"
                        y="15"
                    >publish</tspan>
        </text>
      </g>
      <g id="Graphic_39">
        <text transform="translate(697.092 204.776)" fill="black">
          <tspan
                        font-family="Noto Sans Display"
                        font-size="14"
                        font-weight="400"
                        fill="black"
                        x="20250468e-20"
                        y="15"
                    >subscribe</tspan>
        </text>
      </g>
      <g id="Graphic_41">
        <text transform="translate(799.8783 208.552)" fill="black">
          <tspan
                        font-family="Noto Sans Display"
                        font-size="14"
                        font-weight="400"
                        fill="black"
                        x="7247536e-19"
                        y="15"
                    >Datenbereitstellung</tspan>
        </text>
      </g>
      <g id="Line_42">
        <path
                    d="M 707.6923 297 L 707.6923 255.96154 L 787.6283 238.01282 L 787.2788 205.29947"
                    marker-end="url(#SharpArrow_Marker)"
                    stroke="black"
                    stroke-linecap="round"
                    stroke-linejoin="round"
                    stroke-width="2"
                />
      </g>
    </g>
  </g>
</svg>
