<?xml version="1.0" encoding="UTF-8" standalone="no"?>
<!DOCTYPE svg PUBLIC "-//W3C//DTD SVG 1.1//EN" "http://www.w3.org/Graphics/SVG/1.1/DTD/svg11.dtd">
<svg xmlns:xl="http://www.w3.org/1999/xlink" xmlns:dc="http://purl.org/dc/elements/1.1/" xmlns="http://www.w3.org/2000/svg" version="1.1" viewBox="328 893 676 206" width="676" height="206">
  <defs>
    <marker orient="auto" overflow="visible" markerUnits="strokeWidth" id="FilledArrow_Marker" stroke-linejoin="miter" stroke-miterlimit="10" viewBox="-1 -3 7 6" markerWidth="7" markerHeight="6" color="black">
      <g>
        <path d="M 4.8 0 L 0 -1.8 L 0 1.8 Z" fill="currentColor" stroke="currentColor" stroke-width="1"/>
      </g>
    </marker>
  </defs>
  <g id="blum_blum_shub" fill-opacity="1" stroke-opacity="1" fill="none" stroke-dasharray="none" stroke="none">
    <title>blum_blum_shub</title>
    <rect fill="white" x="328" y="893" width="676" height="206"/>
    <g id="blum_blum_shub_Layer_1">
      <title>Layer 1</title>
      <g id="Graphic_9">
        <text transform="translate(336 1041.5)" fill="black">
          <tspan font-family="Helvetica" font-size="22" fill="black" x="15.286133" y="21">Initialize </tspan>
          <tspan font-family="Helvetica" font-size="22" fill="black" x="0" y="47">with seed s</tspan>
        </text>
      </g>
      <g id="Graphic_8">
        <path d="M 454.4468 959 L 561.4468 959 C 568.0742 959 573.4468 964.3726 573.4468 971 L 573.4468 1029 C 573.4468 1035.6274 568.0742 1041 561.4468 1041 L 454.4468 1041 C 447.81936 1041 442.4468 1035.6274 442.4468 1029 L 442.4468 971 C 442.4468 964.3726 447.81936 959 454.4468 959 Z" fill="#e0e0e0"/>
        <text transform="translate(447.4468 981.052)" fill="black">
          <tspan font-family="Helvetica Neue" font-size="16" fill="black" x="27.612" y="15">Generate </tspan>
          <tspan font-family="Helvetica Neue" font-size="16" fill="black" x="28.242" y="34.448">x</tspan>
          <tspan font-family="Helvetica Neue" font-size="11" fill="black" y="28.447998">2</tspan>
          <tspan font-family="Helvetica Neue" font-size="16" fill="black" y="34.448"> mod n</tspan>
        </text>
      </g>
      <g id="Graphic_7">
        <path d="M 736.4468 959 L 843.4468 959 C 850.0742 959 855.4468 964.3726 855.4468 971 L 855.4468 1029 C 855.4468 1035.6274 850.0742 1041 843.4468 1041 L 736.4468 1041 C 729.8194 1041 724.4468 1035.6274 724.4468 1029 L 724.4468 971 C 724.4468 964.3726 729.8194 959 736.4468 959 Z" fill="#666"/>
        <path d="M 736.4468 959 L 843.4468 959 C 850.0742 959 855.4468 964.3726 855.4468 971 L 855.4468 1029 C 855.4468 1035.6274 850.0742 1041 843.4468 1041 L 736.4468 1041 C 729.8194 1041 724.4468 1035.6274 724.4468 1029 L 724.4468 971 C 724.4468 964.3726 729.8194 959 736.4468 959 Z" stroke="gray" stroke-linecap="round" stroke-linejoin="round" stroke-width="1"/>
        <text transform="translate(729.4468 981.552)" fill="white">
          <tspan font-family="Helvetica Neue" font-size="16" fill="white" x="2.868" y="15"> least significant </tspan>
          <tspan font-family="Helvetica Neue" font-size="16" fill="white" x="51.46" y="33.448">bit</tspan>
        </text>
      </g>
      <g id="Graphic_6">
        <text transform="translate(955.5 987)" fill="black">
          <tspan font-family="Helvetica" font-size="22" fill="black" x="0" y="21">[0,1]</tspan>
        </text>
      </g>
      <g id="Line_4">
        <path d="M 451.0537 1067.5 L 507.1797 1067.5 L 507.1797 1053.8772" marker-end="url(#FilledArrow_Marker)" stroke="black" stroke-linecap="round" stroke-linejoin="round" stroke-width="2"/>
      </g>
      <g id="Line_3">
        <line x1="573.4468" y1="1e3" x2="711.5468" y2="1e3" marker-end="url(#FilledArrow_Marker)" stroke="black" stroke-linecap="round" stroke-linejoin="round" stroke-width="2"/>
      </g>
      <g id="Line_2">
        <line x1="855.4468" y1="1e3" x2="937.6" y2="1e3" marker-end="url(#FilledArrow_Marker)" stroke="black" stroke-linecap="round" stroke-linejoin="round" stroke-width="2"/>
      </g>
      <g id="Line_10">
        <path d="M 630 1e3 L 628.9883 894.875 L 329.66797 894.875 L 329.66797 1002 L 429.5476 1000.8795" marker-end="url(#FilledArrow_Marker)" stroke="black" stroke-linecap="round" stroke-linejoin="round" stroke-width="2"/>
      </g>
    </g>
  </g>
</svg>
