<?xml version="1.0" encoding="UTF-8" standalone="no"?>
<!DOCTYPE svg PUBLIC "-//W3C//DTD SVG 1.1//EN" "http://www.w3.org/Graphics/SVG/1.1/DTD/svg11.dtd">
<svg xmlns:xl="http://www.w3.org/1999/xlink" xmlns:dc="http://purl.org/dc/elements/1.1/" xmlns="http://www.w3.org/2000/svg" version="1.1" viewBox="0 0 356 359" width="356" height="359">
  <defs/>
  <g id="distribution_3d_bad_lcg" fill-opacity="1" stroke-opacity="1" fill="none" stroke-dasharray="none" stroke="none">
    <title>distribution_3d_bad_lcg</title>
    <rect fill="white" x="0" y="0" width="356" height="359"/>
    <g id="distribution_3d_bad_lcg_Layer_1">
      <title>Layer 1</title>
      <g id="Graphic_2">
        <path d="M 124.7904 356.252 L 349.5156 303.13328 L 349.77 304.23812 L 125.0448 357.35685 Z" fill="#336"/>
      </g>
      <g id="Graphic_3">
        <path d="M 4.133232 279.22268 L 199.7268 249.02288 L 199.9248 250.12784 L 4.331424 280.32752 Z" fill="#336"/>
      </g>
      <g id="Graphic_4">
        <path d="M 4.529592 279.33608 L 125.2152 357.35685 L 124.6212 358.29175 L 3.935064 280.27088 Z" fill="#336"/>
      </g>
      <g id="Graphic_5">
        <path d="M 125.4696 2.8064 L 125.4984 357.81014 L 124.3944 357.83847 L 124.3656 2.8352 Z" fill="#336"/>
      </g>
      <g id="Graphic_6">
        <path d="M 124.9608 2.2964 L 354.8376 7.4816 L 354.8088 8.5868 L 124.932 3.4016 Z" fill="#336"/>
      </g>
      <g id="Graphic_7">
        <path d="M 349.0908 303.67148 L 354.2712 8.048 L 355.3752 8.0768 L 350.1948 303.6998 Z" fill="#336"/>
      </g>
      <g id="Graphic_8">
        <path d="M 349.4868 304.23812 L 199.6416 250.09952 L 200.01 249.0512 L 349.8552 303.18992 Z" fill="#336"/>
      </g>
      <g id="Graphic_9">
        <path d="M 201.426 13.2608 L 200.406 249.61784 L 199.302 249.58952 L 200.322 13.232 Z" fill="#336"/>
      </g>
      <g id="Graphic_10">
        <path d="M 200.8596 13.8272 L 1.1040816 8.5868 L 1.1323824 7.4816 L 200.8872 12.722 Z" fill="#336"/>
      </g>
      <g id="Graphic_11">
        <path d="M 3.680268 278.7128 L .5661912 8.0768 L 1.670268 8.048 L 4.784388 278.68448 Z" fill="#336"/>
      </g>
      <g id="Graphic_12">
        <path d="M 1.1040816 6.4328 L 124.9032 2.2688 L 124.932 3.374 L 1.1323824 7.538 Z" fill="#336"/>
      </g>
      <g id="Graphic_13">
        <path d="M 201.9072 12.6944 L 353.79 8.5292 L 353.8188 9.6344 L 201.9348 13.7984 Z" fill="#336"/>
      </g>
      <g id="Graphic_14">
        <path d="M 67.46268 269.61884 L 57.80904 316.76 L 57.80904 3.6284 L 67.46268 9.6908 Z" fill="#4c4c4c"/>
      </g>
      <g id="Graphic_15">
        <path d="M 101.2932 263.58452 L 91.63944 337.3275 L 91.63944 1.22 L 101.2932 10.9088 Z" fill="#4c4c4c"/>
      </g>
      <g id="Graphic_16">
        <path d="M 31.22592 275.65316 L 27.60228 295.00256 L 27.60228 6.0644 L 31.22592 8.4728 Z" fill="#4c4c4c"/>
      </g>
      <g id="Graphic_17">
        <path d="M 129.0648 258.74012 L 121.818 355.45874 L 121.818 .002 L 129.0648 9.6908 Z" fill="#4c4c4c"/>
      </g>
      <g id="Graphic_18">
        <path d="M 158.0832 253.89572 L 148.4016 351.8325 L 148.4016 .002 L 158.0832 9.6908 Z" fill="#4c4c4c"/>
      </g>
      <g id="Graphic_19">
        <path d="M 190.6956 250.26944 L 182.232 344.5801 L 182.232 2.4392 L 190.6956 13.3172 Z" fill="#4c4c4c"/>
      </g>
      <g id="Graphic_20">
        <path d="M 229.368 257.522 L 222.0924 333.70136 L 222.0924 3.6284 L 229.368 12.0992 Z" fill="#4c4c4c"/>
      </g>
      <g id="Graphic_21">
        <path d="M 263.1696 297.4106 L 258.3576 325.23068 L 258.3576 3.6284 L 265.6044 10.9088 L 265.6044 275.65316 Z" fill="#4c4c4c"/>
      </g>
      <g id="Graphic_22">
        <path d="M 297 280.49756 L 292.188 316.76 L 292.188 4.8464 L 297 12.0992 Z" fill="#4c4c4c"/>
      </g>
      <g id="Graphic_23">
        <path d="M 332.0484 295.00256 L 327.2064 308.28932 L 327.2064 7.2548 L 332.0484 9.6908 Z" fill="#4c4c4c"/>
      </g>
    </g>
  </g>
</svg>
