<?xml version="1.0" encoding="UTF-8" standalone="no"?>
<!DOCTYPE svg PUBLIC "-//W3C//DTD SVG 1.1//EN" "http://www.w3.org/Graphics/SVG/1.1/DTD/svg11.dtd">
<svg xmlns:xl="http://www.w3.org/1999/xlink" xmlns:dc="http://purl.org/dc/elements/1.1/" xmlns="http://www.w3.org/2000/svg" version="1.1" viewBox="367 655 825 84" width="825" height="84">
  <defs>
    <marker orient="auto" overflow="visible" markerUnits="strokeWidth" id="FilledArrow_Marker" stroke-linejoin="miter" stroke-miterlimit="10" viewBox="-1 -3 7 6" markerWidth="7" markerHeight="6" color="black">
      <g>
        <path d="M 4.8 0 L 0 -1.8 L 0 1.8 Z" fill="currentColor" stroke="currentColor" stroke-width="1"/>
      </g>
    </marker>
  </defs>
  <g id="generation_of_seed_input" fill-opacity="1" stroke-opacity="1" fill="none" stroke-dasharray="none" stroke="none">
    <title>generation_of_seed_input</title>
    <rect fill="white" x="367" y="655" width="825" height="84"/>
    <g id="generation_of_seed_input_Layer_1">
      <title>Layer 1</title>
      <g id="Graphic_2">
        <text transform="translate(372.55322 684)" fill="black">
          <tspan font-family="Helvetica" font-size="22" fill="black" x="0" y="21">Entropy Source</tspan>
        </text>
      </g>
      <g id="Graphic_5">
        <path d="M 586 656 L 693 656 C 699.6274 656 705 661.3726 705 668 L 705 726 C 705 732.6274 699.6274 738 693 738 L 586 738 C 579.3726 738 574 732.6274 574 726 L 574 668 C 574 661.3726 579.3726 656 586 656 Z" fill="#e0e0e0"/>
        <text transform="translate(579 669.328)" fill="black">
          <tspan font-family="Helvetica Neue" font-size="16" fill="black" x="12.628" y="15">True Random </tspan>
          <tspan font-family="Helvetica Neue" font-size="16" fill="black" x="31.748" y="33.448">Number </tspan>
          <tspan font-family="Helvetica Neue" font-size="16" fill="black" x="24.652" y="51.895996">Generator</tspan>
        </text>
      </g>
      <g id="Graphic_6">
        <path d="M 868 656 L 975 656 C 981.6274 656 987 661.3726 987 668 L 987 726 C 987 732.6274 981.6274 738 975 738 L 868 738 C 861.3726 738 856 732.6274 856 726 L 856 668 C 856 661.3726 861.3726 656 868 656 Z" fill="#666"/>
        <path d="M 868 656 L 975 656 C 981.6274 656 987 661.3726 987 668 L 987 726 C 987 732.6274 981.6274 738 975 738 L 868 738 C 861.3726 738 856 732.6274 856 726 L 856 668 C 856 661.3726 861.3726 656 868 656 Z" stroke="gray" stroke-linecap="round" stroke-linejoin="round" stroke-width="1"/>
        <text transform="translate(861 669.328)" fill="white">
          <tspan font-family="Helvetica Neue" font-size="16" fill="white" x="5.668" y="15">Pseudorandom </tspan>
          <tspan font-family="Helvetica Neue" font-size="16" fill="white" x="31.748" y="33.448">Number </tspan>
          <tspan font-family="Helvetica Neue" font-size="16" fill="white" x="24.652" y="51.895996">Generator</tspan>
        </text>
      </g>
      <g id="Graphic_7">
        <text transform="translate(1036.81 671)" fill="black">
          <tspan font-family="Helvetica" font-size="22" fill="black" x="0" y="21">Pseudorandom</tspan>
          <tspan font-family="Helvetica" font-size="22" fill="black" x="26.312988" y="47">bit stream</tspan>
        </text>
      </g>
      <g id="Graphic_8">
        <text transform="translate(754.8101 707)" fill="black">
          <tspan font-family="Helvetica" font-size="22" fill="black" x="0" y="21">Seed</tspan>
        </text>
      </g>
      <g id="Line_9">
        <line x1="529.18994" y1="697" x2="561.1" y2="697" marker-end="url(#FilledArrow_Marker)" stroke="black" stroke-linecap="round" stroke-linejoin="round" stroke-width="2"/>
      </g>
      <g id="Line_10">
        <line x1="705" y1="697" x2="843.1" y2="697" marker-end="url(#FilledArrow_Marker)" stroke="black" stroke-linecap="round" stroke-linejoin="round" stroke-width="2"/>
      </g>
      <g id="Line_11">
        <line x1="987" y1="697" x2="1018.91" y2="697" marker-end="url(#FilledArrow_Marker)" stroke="black" stroke-linecap="round" stroke-linejoin="round" stroke-width="2"/>
      </g>
    </g>
  </g>
</svg>
