<?xml version="1.0" encoding="UTF-8" standalone="no"?>
<!DOCTYPE svg PUBLIC "-//W3C//DTD SVG 1.1//EN" "http://www.w3.org/Graphics/SVG/1.1/DTD/svg11.dtd">
<svg xmlns:xl="http://www.w3.org/1999/xlink" xmlns:dc="http://purl.org/dc/elements/1.1/" xmlns="http://www.w3.org/2000/svg" version="1.1" viewBox="383 952 661 321" width="661" height="321">
  <defs>
    <marker orient="auto" overflow="visible" markerUnits="strokeWidth" id="FilledArrow_Marker" stroke-linejoin="miter" stroke-miterlimit="10" viewBox="-1 -3 7 6" markerWidth="7" markerHeight="6" color="black">
      <g>
        <path d="M 4.8 0 L 0 -1.8 L 0 1.8 Z" fill="currentColor" stroke="currentColor" stroke-width="1"/>
      </g>
    </marker>
  </defs>
  <g id="typical_stream_cipher" fill-opacity="1" stroke-opacity="1" fill="none" stroke-dasharray="none" stroke="none">
    <title>typical_stream_cipher</title>
    <rect fill="white" x="383" y="952" width="661" height="321"/>
    <g id="typical_stream_cipher_Layer_1">
      <title>Layer 1</title>
      <g id="Graphic_12">
        <path d="M 459.5 988 L 648.5 988 C 655.1274 988 660.5 993.3726 660.5 1e3 L 660.5 1182.5 C 660.5 1189.1274 655.1274 1194.5 648.5 1194.5 L 459.5 1194.5 C 452.8726 1194.5 447.5 1189.1274 447.5 1182.5 L 447.5 1e3 C 447.5 993.3726 452.8726 988 459.5 988 Z" fill="#c0ffc0"/>
      </g>
      <g id="Graphic_8">
        <path d="M 539.5 1128 L 568.5 1128 C 575.1274 1128 580.5 1133.3726 580.5 1140 L 580.5 1163.5 C 580.5 1170.1274 575.1274 1175.5 568.5 1175.5 L 539.5 1175.5 C 532.8726 1175.5 527.5 1170.1274 527.5 1163.5 L 527.5 1140 C 527.5 1133.3726 532.8726 1128 539.5 1128 Z" fill="#e0e0e0"/>
        <text transform="translate(532.5 1142.526)" fill="black">
          <tspan font-family="Helvetica Neue" font-size="16" fill="black" x="16.908" y="15">g</tspan>
        </text>
      </g>
      <g id="Graphic_11">
        <path d="M 589 1036.5 L 618 1036.5 C 624.6274 1036.5 630 1041.8726 630 1048.5 L 630 1072 C 630 1078.6274 624.6274 1084 618 1084 L 589 1084 C 582.3726 1084 577 1078.6274 577 1072 L 577 1048.5 C 577 1041.8726 582.3726 1036.5 589 1036.5 Z" fill="#e0e0e0"/>
        <text transform="translate(582 1051.026)" fill="black">
          <tspan font-family="Helvetica Neue" font-size="16" fill="black" x="19.132" y="15">f</tspan>
        </text>
      </g>
      <g id="Graphic_14">
        <path d="M 490.5 1036.5 L 519.5 1036.5 C 526.1274 1036.5 531.5 1041.8726 531.5 1048.5 L 531.5 1072 C 531.5 1078.6274 526.1274 1084 519.5 1084 L 490.5 1084 C 483.8726 1084 478.5 1078.6274 478.5 1072 L 478.5 1048.5 C 478.5 1041.8726 483.8726 1036.5 490.5 1036.5 Z" fill="#e0e0e0"/>
        <text transform="translate(483.5 1046.5)" fill="black">
          <tspan font-family="STIX Two Math" font-size="22" fill="black" x="13.56374" y="17">𝜎</tspan>
          <tspan font-family="Helvetica" font-size="15" fill="black" y="24">i</tspan>
        </text>
      </g>
      <g id="Line_15">
        <line x1="531.5" y1="1060.25" x2="564.1" y2="1060.25" marker-end="url(#FilledArrow_Marker)" stroke="black" stroke-linecap="round" stroke-linejoin="round" stroke-width="2"/>
      </g>
      <g id="Graphic_17">
        <text transform="translate(394.6123 1069)" fill="black">
          <tspan font-family="Helvetica" font-size="22" fill="black" x="0" y="21">K</tspan>
        </text>
      </g>
      <g id="Graphic_18">
        <text transform="translate(388.5 1125)" fill="black">
          <tspan font-family="Helvetica" font-size="22" fill="black" x="0" y="21">IV</tspan>
        </text>
      </g>
      <g id="Graphic_19">
        <text transform="translate(419 1234.75)" fill="black">
          <tspan font-family="Helvetica" font-size="22" fill="black" x="0" y="21">p</tspan>
          <tspan font-family="Helvetica" font-size="15" fill="black" y="28">i</tspan>
        </text>
      </g>
      <g id="Graphic_21">
        <text transform="translate(561.1675 1193)" fill="black">
          <tspan font-family="Helvetica" font-size="22" fill="black" x="0" y="21">z</tspan>
          <tspan font-family="Helvetica" font-size="15" fill="black" y="28">i</tspan>
        </text>
      </g>
      <g id="Graphic_22">
        <text transform="translate(717.9587 1215)" fill="black">
          <tspan font-family="Helvetica" font-size="22" fill="black" x="0" y="21">c</tspan>
          <tspan font-family="Helvetica" font-size="15" fill="black" y="28">i</tspan>
        </text>
      </g>
      <g id="Graphic_23">
        <text transform="translate(483.08545 957)" fill="black">
          <tspan font-family="Helvetica" font-size="22" fill="black" x="0" y="21">Stream Cipher</tspan>
        </text>
      </g>
      <g id="Line_24">
        <path d="M 505 1084 L 505 1156 L 514.6 1156" marker-end="url(#FilledArrow_Marker)" stroke="black" stroke-linecap="round" stroke-linejoin="round" stroke-width="2"/>
      </g>
      <g id="Line_25">
        <path d="M 603.5 1036.5 L 603.5 1008.4258 L 498 1008.4258 L 498 1023.6" marker-end="url(#FilledArrow_Marker)" stroke="black" stroke-linecap="round" stroke-linejoin="round" stroke-width="2"/>
      </g>
      <g id="Line_27">
        <line x1="414.28613" y1="1082" x2="434.6" y2="1082" marker-end="url(#FilledArrow_Marker)" stroke="black" stroke-linecap="round" stroke-linejoin="round" stroke-width="2"/>
      </g>
      <g id="Line_28">
        <line x1="414.28613" y1="1138" x2="434.6" y2="1138" marker-end="url(#FilledArrow_Marker)" stroke="black" stroke-linecap="round" stroke-linejoin="round" stroke-width="2"/>
      </g>
      <g id="Group_29">
        <g id="Graphic_32">
          <circle cx="554" cy="1250.25" r="21.2500339554152" stroke="black" stroke-linecap="round" stroke-linejoin="round" stroke-width="2"/>
        </g>
        <g id="Line_31">
          <line x1="532.75" y1="1250.1707" x2="574.8371" y2="1250.1707" stroke="black" stroke-linecap="round" stroke-linejoin="round" stroke-width="2"/>
        </g>
        <g id="Line_30">
          <line x1="553.5" y1="1229" x2="553.5" y2="1271.5" stroke="black" stroke-linecap="round" stroke-linejoin="round" stroke-width="2"/>
        </g>
      </g>
      <g id="Line_33">
        <line x1="554.3543" y1="1175.5" x2="554.95993" y2="1216.1014" marker-end="url(#FilledArrow_Marker)" stroke="black" stroke-linecap="round" stroke-linejoin="round" stroke-width="2"/>
      </g>
      <g id="Graphic_34">
        <path d="M 796.5 988 L 985.5 988 C 992.1274 988 997.5 993.3726 997.5 1e3 L 997.5 1182.5 C 997.5 1189.1274 992.1274 1194.5 985.5 1194.5 L 796.5 1194.5 C 789.8726 1194.5 784.5 1189.1274 784.5 1182.5 L 784.5 1e3 C 784.5 993.3726 789.8726 988 796.5 988 Z" fill="#c0ffc0"/>
      </g>
      <g id="Graphic_35">
        <path d="M 876.5 1128 L 905.5 1128 C 912.1274 1128 917.5 1133.3726 917.5 1140 L 917.5 1163.5 C 917.5 1170.1274 912.1274 1175.5 905.5 1175.5 L 876.5 1175.5 C 869.8726 1175.5 864.5 1170.1274 864.5 1163.5 L 864.5 1140 C 864.5 1133.3726 869.8726 1128 876.5 1128 Z" fill="#e0e0e0"/>
        <text transform="translate(869.5 1142.526)" fill="black">
          <tspan font-family="Helvetica Neue" font-size="16" fill="black" x="16.908" y="15">g</tspan>
        </text>
      </g>
      <g id="Graphic_36">
        <path d="M 926 1036.5 L 955 1036.5 C 961.6274 1036.5 967 1041.8726 967 1048.5 L 967 1072 C 967 1078.6274 961.6274 1084 955 1084 L 926 1084 C 919.3726 1084 914 1078.6274 914 1072 L 914 1048.5 C 914 1041.8726 919.3726 1036.5 926 1036.5 Z" fill="#e0e0e0"/>
        <text transform="translate(919 1051.026)" fill="black">
          <tspan font-family="Helvetica Neue" font-size="16" fill="black" x="19.132" y="15">f</tspan>
        </text>
      </g>
      <g id="Graphic_37">
        <path d="M 827.5 1036.5 L 856.5 1036.5 C 863.1274 1036.5 868.5 1041.8726 868.5 1048.5 L 868.5 1072 C 868.5 1078.6274 863.1274 1084 856.5 1084 L 827.5 1084 C 820.8726 1084 815.5 1078.6274 815.5 1072 L 815.5 1048.5 C 815.5 1041.8726 820.8726 1036.5 827.5 1036.5 Z" fill="#e0e0e0"/>
        <text transform="translate(820.5 1046.5)" fill="black">
          <tspan font-family="STIX Two Math" font-size="22" fill="black" x="13.56374" y="17">𝜎</tspan>
          <tspan font-family="Helvetica" font-size="15" fill="black" y="24">i</tspan>
        </text>
      </g>
      <g id="Line_38">
        <line x1="868.5" y1="1060.25" x2="901.1" y2="1060.25" marker-end="url(#FilledArrow_Marker)" stroke="black" stroke-linecap="round" stroke-linejoin="round" stroke-width="2"/>
      </g>
      <g id="Graphic_39">
        <text transform="translate(731.6123 1069)" fill="black">
          <tspan font-family="Helvetica" font-size="22" fill="black" x="0" y="21">K</tspan>
        </text>
      </g>
      <g id="Graphic_40">
        <text transform="translate(725.5 1125)" fill="black">
          <tspan font-family="Helvetica" font-size="22" fill="black" x="0" y="21">IV</tspan>
        </text>
      </g>
      <g id="Graphic_41">
        <text transform="translate(1023 1234)" fill="black">
          <tspan font-family="Helvetica" font-size="22" fill="black" x="0" y="21">p</tspan>
          <tspan font-family="Helvetica" font-size="15" fill="black" y="28">i</tspan>
        </text>
      </g>
      <g id="Graphic_42">
        <text transform="translate(898.1675 1193)" fill="black">
          <tspan font-family="Helvetica" font-size="22" fill="black" x="0" y="21">z</tspan>
          <tspan font-family="Helvetica" font-size="15" fill="black" y="28">i</tspan>
        </text>
      </g>
      <g id="Graphic_43">
        <text transform="translate(820.08545 957)" fill="black">
          <tspan font-family="Helvetica" font-size="22" fill="black" x="0" y="21">Stream Cipher</tspan>
        </text>
      </g>
      <g id="Line_44">
        <path d="M 842 1084 L 842 1156 L 851.6 1156" marker-end="url(#FilledArrow_Marker)" stroke="black" stroke-linecap="round" stroke-linejoin="round" stroke-width="2"/>
      </g>
      <g id="Line_45">
        <path d="M 940.5 1036.5 L 940.5 1008.4258 L 835 1008.4258 L 835 1023.6" marker-end="url(#FilledArrow_Marker)" stroke="black" stroke-linecap="round" stroke-linejoin="round" stroke-width="2"/>
      </g>
      <g id="Line_46">
        <line x1="751.2861" y1="1082" x2="771.6" y2="1082" marker-end="url(#FilledArrow_Marker)" stroke="black" stroke-linecap="round" stroke-linejoin="round" stroke-width="2"/>
      </g>
      <g id="Line_47">
        <line x1="751.2861" y1="1138" x2="771.6" y2="1138" marker-end="url(#FilledArrow_Marker)" stroke="black" stroke-linecap="round" stroke-linejoin="round" stroke-width="2"/>
      </g>
      <g id="Group_48">
        <g id="Graphic_51">
          <circle cx="891" cy="1250.25" r="21.2500339554152" stroke="black" stroke-linecap="round" stroke-linejoin="round" stroke-width="2"/>
        </g>
        <g id="Line_50">
          <line x1="869.75" y1="1250.1707" x2="911.8371" y2="1250.1707" stroke="black" stroke-linecap="round" stroke-linejoin="round" stroke-width="2"/>
        </g>
        <g id="Line_49">
          <line x1="890.5" y1="1229" x2="890.5" y2="1271.5" stroke="black" stroke-linecap="round" stroke-linejoin="round" stroke-width="2"/>
        </g>
      </g>
      <g id="Line_52">
        <line x1="891.3543" y1="1175.5" x2="891.9599" y2="1216.1014" marker-end="url(#FilledArrow_Marker)" stroke="black" stroke-linecap="round" stroke-linejoin="round" stroke-width="2"/>
      </g>
      <g id="Line_53">
        <line x1="439.56787" y1="1250.2404" x2="519.85" y2="1250.1803" marker-end="url(#FilledArrow_Marker)" stroke="black" stroke-linecap="round" stroke-linejoin="round" stroke-width="2"/>
      </g>
      <g id="Line_54">
        <line x1="574.25" y1="1250.2449" x2="856.85" y2="1250.1739" marker-end="url(#FilledArrow_Marker)" stroke="black" stroke-linecap="round" stroke-linejoin="round" stroke-width="2"/>
      </g>
      <g id="Line_55">
        <line x1="913" y1="1250" x2="1005.1001" y2="1249.609" marker-end="url(#FilledArrow_Marker)" stroke="black" stroke-linecap="round" stroke-linejoin="round" stroke-width="2"/>
      </g>
    </g>
  </g>
</svg>
