<?xml version="1.0" encoding="UTF-8" standalone="no" ?>
<!DOCTYPE svg PUBLIC "-//W3C//DTD SVG 1.1//EN"
    "http://www.w3.org/Graphics/SVG/1.1/DTD/svg11.dtd">
<svg
    xmlns:xl="http://www.w3.org/1999/xlink"
    xmlns="http://www.w3.org/2000/svg"
    xmlns:dc="http://purl.org/dc/elements/1.1/"
    version="1.1"
    viewBox="496 276 400 153"
    width="1200"
    height="459"
>
  <style>
    @import url('/LectureDoc2/ext/fonts/ld-fonts.css');
  </style>
  <defs>
    <linearGradient x1="0" x2="1" id="Gradient" gradientUnits="userSpaceOnUse">
      <stop offset=".1060121" stop-color="#029ed7" />
      <stop offset=".8529494" stop-color="#99d0eb" stop-opacity=".5" />
      <stop offset="1" stop-color="white" stop-opacity="0" />
    </linearGradient>
    <linearGradient
            id="Obj_Gradient"
            xl:href="#Gradient"
            gradientTransform="translate(761.004 361.4838) rotate(-32.658855) scale(54.08646)"
        />
    <linearGradient
            id="Obj_Gradient_2"
            xl:href="#Gradient"
            gradientTransform="translate(791.004 361.4838) rotate(-32.658855) scale(54.08646)"
        />
    <linearGradient x1="0" x2="1" id="Gradient_2" gradientUnits="userSpaceOnUse">
      <stop offset=".16833588" stop-color="#029ed5" />
      <stop offset=".9336584" stop-color="#99d0eb" stop-opacity=".5" />
      <stop offset="1" stop-color="white" stop-opacity="0" />
    </linearGradient>
    <linearGradient
            id="Obj_Gradient_3"
            xl:href="#Gradient_2"
            gradientTransform="translate(818.1798 340.74196) rotate(-133.44236) scale(56.44998)"
        />
    <linearGradient x1="0" x2="1" id="Gradient_3" gradientUnits="userSpaceOnUse">
      <stop offset=".16833588" stop-color="#cde95f" />
      <stop offset=".9336584" stop-color="#e7f4b5" stop-opacity=".5" />
      <stop offset="1" stop-color="white" stop-opacity="0" />
    </linearGradient>
    <linearGradient
            id="Obj_Gradient_4"
            xl:href="#Gradient_3"
            gradientTransform="translate(601.2278 388.83252) rotate(-133.44236) scale(94.63296)"
        />
    <linearGradient
            id="Obj_Gradient_5"
            xl:href="#Gradient_3"
            gradientTransform="translate(599.8301 424.95824) rotate(-133.44236) scale(90.56777)"
        />
    <linearGradient x1="0" x2="1" id="Gradient_4" gradientUnits="userSpaceOnUse">
      <stop offset=".16833588" stop-color="#e9e9e9" />
      <stop offset=".9336584" stop-color="#f5f5f5" stop-opacity=".5" />
      <stop offset="1" stop-color="white" stop-opacity="0" />
    </linearGradient>
    <linearGradient
            id="Obj_Gradient_6"
            xl:href="#Gradient_4"
            gradientTransform="translate(596.1564 384.8274) rotate(-133.44236) scale(79.88265)"
        />
    <linearGradient x1="0" x2="1" id="Gradient_5" gradientUnits="userSpaceOnUse">
      <stop offset=".16833588" stop-color="#e7e9dd" />
      <stop offset=".9336584" stop-color="#f3f5ee" stop-opacity=".5" />
      <stop offset="1" stop-color="white" stop-opacity="0" />
    </linearGradient>
    <linearGradient
            id="Obj_Gradient_7"
            xl:href="#Gradient_5"
            gradientTransform="translate(593.5245 384.46455) rotate(-133.44236) scale(72.22748)"
        />
    <linearGradient x1="0" x2="1" id="Gradient_6" gradientUnits="userSpaceOnUse">
      <stop offset="0" stop-color="white" />
      <stop offset=".08420465" stop-color="#a4a4a4" />
      <stop offset="1" stop-color="#333" />
    </linearGradient>
    <linearGradient
            id="Obj_Gradient_8"
            xl:href="#Gradient_6"
            gradientTransform="translate(541.8768 331.05255) rotate(90) scale(2.4684051)"
        />
    <linearGradient
            id="Obj_Gradient_9"
            xl:href="#Gradient_6"
            gradientTransform="translate(545.5337 331.05255) rotate(90) scale(2.4684051)"
        />
    <linearGradient
            id="Obj_Gradient_10"
            xl:href="#Gradient_6"
            gradientTransform="translate(549.19054 331.05255) rotate(90) scale(2.4684051)"
        />
    <linearGradient
            id="Obj_Gradient_11"
            xl:href="#Gradient_2"
            gradientTransform="translate(895.4715 392.25423) rotate(-133.44236) scale(47.547434)"
        />
    <linearGradient
            id="Obj_Gradient_12"
            xl:href="#Gradient_2"
            gradientTransform="translate(868.6804 352.14052) rotate(46.55764) scale(30.376167)"
        />
    <linearGradient
            id="Obj_Gradient_13"
            xl:href="#Gradient_2"
            gradientTransform="translate(895.9583 392.7997) rotate(-133.44236) scale(47.547434)"
        />
    <linearGradient
            id="Obj_Gradient_14"
            xl:href="#Gradient_2"
            gradientTransform="translate(869.1672 352.14052) rotate(46.55764) scale(30.376167)"
        />
    <linearGradient
            id="Obj_Gradient_15"
            xl:href="#Gradient"
            gradientTransform="translate(761.004 405.47977) rotate(-32.658855) scale(54.08646)"
        />
    <linearGradient
            id="Obj_Gradient_16"
            xl:href="#Gradient"
            gradientTransform="translate(791.004 405.47977) rotate(-32.658855) scale(54.08646)"
        />
    <linearGradient
            id="Obj_Gradient_17"
            xl:href="#Gradient_2"
            gradientTransform="translate(818.1798 384.7379) rotate(-133.44236) scale(56.44998)"
        />
    <linearGradient
            id="Obj_Gradient_18"
            xl:href="#Gradient_2"
            gradientTransform="translate(895.4715 369.1077) rotate(-133.44236) scale(47.547434)"
        />
    <linearGradient
            id="Obj_Gradient_19"
            xl:href="#Gradient_2"
            gradientTransform="translate(868.6804 328.994) rotate(46.55764) scale(30.376167)"
        />
    <linearGradient
            id="Obj_Gradient_20"
            xl:href="#Gradient_2"
            gradientTransform="translate(895.9583 369.65318) rotate(-133.44236) scale(47.547434)"
        />
    <linearGradient
            id="Obj_Gradient_21"
            xl:href="#Gradient_2"
            gradientTransform="translate(869.1672 328.994) rotate(46.55764) scale(30.376167)"
        />
    <filter id="Shadow" filterUnits="userSpaceOnUse" x="426.3" y="260.7">
      <feGaussianBlur in="SourceAlpha" result="blur" stdDeviation="1.308" />
      <feOffset in="blur" result="offset" dx="0" dy="2" />
      <feFlood flood-color="black" flood-opacity=".5" result="flood" />
      <feComposite in="flood" in2="offset" operator="in" result="color" />
      <feMerge>
        <feMergeNode in="color" />
        <feMergeNode in="SourceGraphic" />
      </feMerge>
    </filter>
    <marker
            orient="auto"
            overflow="visible"
            markerUnits="strokeWidth"
            id="FilledArrow_Marker"
            stroke-linejoin="miter"
            stroke-miterlimit="10"
            viewBox="-1 -3 7 6"
            markerWidth="7"
            markerHeight="6"
            color="#666"
        >
      <g>
        <path
                    d="M 4.8 0 L 0 -1.8 L 0 1.8 Z"
                    fill="currentColor"
                    stroke="currentColor"
                    stroke-width="1"
                />
      </g>
    </marker>
    <marker
            orient="auto"
            overflow="visible"
            markerUnits="strokeWidth"
            id="FilledArrow_Marker_2"
            stroke-linejoin="miter"
            stroke-miterlimit="10"
            viewBox="-6 -3 7 6"
            markerWidth="7"
            markerHeight="6"
            color="#666"
        >
      <g>
        <path
                    d="M -4.8 0 L 0 1.8 L 0 -1.8 Z"
                    fill="currentColor"
                    stroke="currentColor"
                    stroke-width="1"
                />
      </g>
    </marker>
  </defs>
  <metadata> Produced by OmniGraffle 8.0\n2025-02-15 07:24:04 +0000</metadata>
  <g
        id="http"
        stroke-opacity="1"
        stroke-dasharray="none"
        fill="none"
        stroke="none"
        fill-opacity="1"
    >
    <title>http</title>
    <g id="http_Layer_1">
      <title>Layer 1</title>
      <g id="Group_21">
        <g id="Graphic_16">
          <path
                        d="M 768.77165 362.9175 L 768.77165 320.17832 L 798.7716 330.86312 L 798.7716 373.6023 Z"
                        fill="url(#Obj_Gradient)"
                    />
          <path
                        d="M 768.77165 362.9175 L 768.77165 320.17832 L 798.7716 330.86312 L 798.7716 373.6023 Z"
                        stroke="white"
                        stroke-opacity=".48790474"
                        stroke-linecap="round"
                        stroke-linejoin="round"
                        stroke-width="2"
                    />
        </g>
        <g id="Graphic_15">
          <path
                        d="M 828.7716 362.9175 L 828.7716 320.17832 L 798.7716 330.86312 L 798.7716 373.6023 Z"
                        fill="url(#Obj_Gradient_2)"
                    />
          <path
                        d="M 828.7716 362.9175 L 828.7716 320.17832 L 798.7716 330.86312 L 798.7716 373.6023 Z"
                        stroke="white"
                        stroke-opacity=".48790474"
                        stroke-linecap="round"
                        stroke-linejoin="round"
                        stroke-width="2"
                    />
        </g>
        <g id="Graphic_14">
          <path
                        d="M 798.7716 309.78654 L 828.7716 320.24874 L 798.7716 330.71094 L 768.77165 320.24874 Z"
                        fill="url(#Obj_Gradient_3)"
                    />
          <path
                        d="M 798.7716 309.78654 L 828.7716 320.24874 L 798.7716 330.71094 L 768.77165 320.24874 Z"
                        stroke="white"
                        stroke-opacity=".48790474"
                        stroke-linecap="round"
                        stroke-linejoin="round"
                        stroke-width="2"
                    />
        </g>
      </g>
      <g id="Group_157">
        <g id="Group_24">
          <g id="Graphic_19">
            <rect
                            x="533.6284"
                            y="322.51633"
                            width="70.12683"
                            height="63.922564"
                            fill="url(#Obj_Gradient_4)"
                        />
            <rect
                            x="533.6284"
                            y="322.51633"
                            width="70.12683"
                            height="63.922564"
                            stroke="white"
                            stroke-opacity=".4807276"
                            stroke-linecap="round"
                            stroke-linejoin="round"
                            stroke-width="2"
                        />
          </g>
          <g id="Graphic_20">
            <path
                            d="M 508.7918 397.71935 L 628.5918 397.71935 L 604.6318 386.4389 L 532.7518 386.4389 Z"
                            fill="url(#Obj_Gradient_5)"
                        />
            <path
                            d="M 508.7918 397.71935 L 628.5918 397.71935 L 604.6318 386.4389 L 532.7518 386.4389 Z"
                            stroke="white"
                            stroke-opacity=".4807276"
                            stroke-linecap="round"
                            stroke-linejoin="round"
                            stroke-width="2"
                        />
          </g>
        </g>
        <g id="Group_103">
          <g id="Graphic_34">
            <rect
                            x="538.6918"
                            y="329.2284"
                            width="60"
                            height="53.19785"
                            fill="url(#Obj_Gradient_6)"
                        />
            <rect
                            x="538.6918"
                            y="329.2284"
                            width="60"
                            height="53.19785"
                            stroke="white"
                            stroke-opacity=".4807276"
                            stroke-linecap="round"
                            stroke-linejoin="round"
                            stroke-width="2"
                        />
          </g>
          <g id="Graphic_35">
            <rect
                            x="539.84977"
                            y="335.81966"
                            width="57.68407"
                            height="44.84783"
                            fill="url(#Obj_Gradient_7)"
                        />
            <rect
                            x="539.84977"
                            y="335.81966"
                            width="57.68407"
                            height="44.84783"
                            stroke="white"
                            stroke-opacity=".4807276"
                            stroke-linecap="round"
                            stroke-linejoin="round"
                            stroke-width="1"
                        />
          </g>
          <g id="Graphic_37">
            <ellipse
                            cx="541.8768"
                            cy="332.28675"
                            rx="1.17963509252198"
                            ry="1.23420454587975"
                            fill="url(#Obj_Gradient_8)"
                        />
            <ellipse
                            cx="541.8768"
                            cy="332.28675"
                            rx="1.17963509252198"
                            ry="1.23420454587975"
                            stroke="#a5a5a5"
                            stroke-linecap="round"
                            stroke-linejoin="round"
                            stroke-width=".25"
                        />
          </g>
          <g id="Graphic_39">
            <ellipse
                            cx="545.5337"
                            cy="332.28675"
                            rx="1.17963509252198"
                            ry="1.23420454587975"
                            fill="url(#Obj_Gradient_9)"
                        />
            <ellipse
                            cx="545.5337"
                            cy="332.28675"
                            rx="1.17963509252198"
                            ry="1.23420454587975"
                            stroke="#a5a5a5"
                            stroke-linecap="round"
                            stroke-linejoin="round"
                            stroke-width=".25"
                        />
          </g>
          <g id="Graphic_40">
            <ellipse
                            cx="549.19054"
                            cy="332.28675"
                            rx="1.17963509252198"
                            ry="1.23420454587975"
                            fill="url(#Obj_Gradient_10)"
                        />
            <ellipse
                            cx="549.19054"
                            cy="332.28675"
                            rx="1.17963509252198"
                            ry="1.23420454587975"
                            stroke="#a5a5a5"
                            stroke-linecap="round"
                            stroke-linejoin="round"
                            stroke-width=".25"
                        />
          </g>
          <g id="Graphic_41">
            <text transform="translate(556.6258 329.78675)" fill="#666">
              <tspan
                                font-family="Noto Sans Display"
                                font-size="4"
                                font-weight="400"
                                fill="#666"
                                x="71409545e-20"
                                y="4"
                                xml:space="preserve"
                            >www.xyz.com</tspan>
            </text>
          </g>
        </g>
      </g>
      <g id="Group_112">
        <g id="Graphic_116">
          <path
                        d="M 894.3907 363.1773 C 894.3907 363.17115 894.3907 363.165 894.3907 363.1589 L 894.3907 363.06312 L 894.3887 363.06312 C 894.327 361.445 892.8371 359.83486 889.9192 358.60016 C 883.9573 356.07735 874.291 356.07735 868.329 358.60016 C 865.4111 359.83486 863.9213 361.445 863.8595 363.06312 L 863.8576 363.06312 L 863.8576 363.1616 C 863.8575 363.16592 863.8575 363.17024 863.8576 363.17457 L 863.8576 386.8113 C 863.8575 386.8156 863.8575 386.81994 863.8576 386.82426 L 863.8576 386.9998 L 863.8636 386.9998 C 863.969 388.59187 865.4575 390.1706 868.329 391.3857 C 874.291 393.9085 883.9573 393.9085 889.9192 391.3857 C 892.7908 390.1706 894.2793 388.59187 894.3847 386.9998 L 894.3907 386.9998 L 894.3907 386.827 C 894.3907 386.82085 894.3907 386.8147 894.3907 386.8086 Z"
                        fill="url(#Obj_Gradient_11)"
                    />
          <path
                        d="M 894.3907 363.1773 C 894.3907 363.17115 894.3907 363.165 894.3907 363.1589 L 894.3907 363.06312 L 894.3887 363.06312 C 894.327 361.445 892.8371 359.83486 889.9192 358.60016 C 883.9573 356.07735 874.291 356.07735 868.329 358.60016 C 865.4111 359.83486 863.9213 361.445 863.8595 363.06312 L 863.8576 363.06312 L 863.8576 363.1616 C 863.8575 363.16592 863.8575 363.17024 863.8576 363.17457 L 863.8576 386.8113 C 863.8575 386.8156 863.8575 386.81994 863.8576 386.82426 L 863.8576 386.9998 L 863.8636 386.9998 C 863.969 388.59187 865.4575 390.1706 868.329 391.3857 C 874.291 393.9085 883.9573 393.9085 889.9192 391.3857 C 892.7908 390.1706 894.2793 388.59187 894.3847 386.9998 L 894.3907 386.9998 L 894.3907 386.827 C 894.3907 386.82085 894.3907 386.8147 894.3907 386.8086 Z"
                        stroke="white"
                        stroke-opacity=".48790474"
                        stroke-linecap="round"
                        stroke-linejoin="round"
                        stroke-width="2"
                    />
        </g>
        <g id="Graphic_115">
          <ellipse
                        cx="879.1241"
                        cy="363.1681"
                        rx="15.2666047675672"
                        ry="6.46003711356584"
                        fill="url(#Obj_Gradient_12)"
                    />
          <ellipse
                        cx="879.1241"
                        cy="363.1681"
                        rx="15.2666047675672"
                        ry="6.46003711356584"
                        stroke="white"
                        stroke-opacity=".48790474"
                        stroke-linecap="round"
                        stroke-linejoin="round"
                        stroke-width="2"
                    />
        </g>
        <g id="Graphic_114">
          <path
                        d="M 894.8774 363.72275 C 894.8775 363.7166 894.8775 363.71048 894.8774 363.70434 L 894.8774 363.6086 L 894.8755 363.6086 C 894.8137 361.9905 893.3239 360.38032 890.406 359.1456 C 884.444 356.6228 874.7777 356.6228 868.8158 359.1456 C 865.8979 360.38032 864.408 361.9905 864.3463 363.6086 L 864.3443 363.6086 L 864.3443 363.70706 C 864.3443 363.7114 864.3443 363.7157 864.3443 363.72002 L 864.3443 387.35676 C 864.3443 387.3611 864.3443 387.3654 864.3443 387.3697 L 864.3443 387.54525 L 864.3503 387.54525 C 864.4557 389.13733 865.9442 390.71606 868.8158 391.93116 C 874.7777 394.45397 884.444 394.45397 890.406 391.93116 C 893.2776 390.71606 894.766 389.13733 894.8714 387.54525 L 894.8774 387.54525 L 894.8774 387.37244 C 894.8775 387.3663 894.8775 387.36017 894.8774 387.35404 Z"
                        fill="url(#Obj_Gradient_13)"
                    />
          <path
                        d="M 894.8774 363.72275 C 894.8775 363.7166 894.8775 363.71048 894.8774 363.70434 L 894.8774 363.6086 L 894.8755 363.6086 C 894.8137 361.9905 893.3239 360.38032 890.406 359.1456 C 884.444 356.6228 874.7777 356.6228 868.8158 359.1456 C 865.8979 360.38032 864.408 361.9905 864.3463 363.6086 L 864.3443 363.6086 L 864.3443 363.70706 C 864.3443 363.7114 864.3443 363.7157 864.3443 363.72002 L 864.3443 387.35676 C 864.3443 387.3611 864.3443 387.3654 864.3443 387.3697 L 864.3443 387.54525 L 864.3503 387.54525 C 864.4557 389.13733 865.9442 390.71606 868.8158 391.93116 C 874.7777 394.45397 884.444 394.45397 890.406 391.93116 C 893.2776 390.71606 894.766 389.13733 894.8714 387.54525 L 894.8774 387.54525 L 894.8774 387.37244 C 894.8775 387.3663 894.8775 387.36017 894.8774 387.35404 Z"
                        stroke="white"
                        stroke-opacity=".48790474"
                        stroke-linecap="round"
                        stroke-linejoin="round"
                        stroke-width="2"
                    />
        </g>
        <g id="Graphic_113">
          <ellipse
                        cx="879.6109"
                        cy="363.1681"
                        rx="15.2666047675672"
                        ry="6.46003711356584"
                        fill="url(#Obj_Gradient_14)"
                    />
          <ellipse
                        cx="879.6109"
                        cy="363.1681"
                        rx="15.2666047675672"
                        ry="6.46003711356584"
                        stroke="white"
                        stroke-opacity=".48790474"
                        stroke-linecap="round"
                        stroke-linejoin="round"
                        stroke-width="2"
                    />
        </g>
      </g>
      <g id="Group_132">
        <g id="Graphic_135">
          <path
                        d="M 768.77165 406.91347 L 768.77165 364.17427 L 798.7716 374.85907 L 798.7716 417.59827 Z"
                        fill="url(#Obj_Gradient_15)"
                    />
          <path
                        d="M 768.77165 406.91347 L 768.77165 364.17427 L 798.7716 374.85907 L 798.7716 417.59827 Z"
                        stroke="white"
                        stroke-opacity=".48790474"
                        stroke-linecap="round"
                        stroke-linejoin="round"
                        stroke-width="2"
                    />
        </g>
        <g id="Graphic_134">
          <path
                        d="M 828.7716 406.91347 L 828.7716 364.17427 L 798.7716 374.85907 L 798.7716 417.59827 Z"
                        fill="url(#Obj_Gradient_16)"
                    />
          <path
                        d="M 828.7716 406.91347 L 828.7716 364.17427 L 798.7716 374.85907 L 798.7716 417.59827 Z"
                        stroke="white"
                        stroke-opacity=".48790474"
                        stroke-linecap="round"
                        stroke-linejoin="round"
                        stroke-width="2"
                    />
        </g>
        <g id="Graphic_133">
          <path
                        d="M 798.7716 353.7825 L 828.7716 364.2447 L 798.7716 374.7069 L 768.77165 364.2447 Z"
                        fill="url(#Obj_Gradient_17)"
                    />
          <path
                        d="M 798.7716 353.7825 L 828.7716 364.2447 L 798.7716 374.7069 L 768.77165 364.2447 Z"
                        stroke="white"
                        stroke-opacity=".48790474"
                        stroke-linecap="round"
                        stroke-linejoin="round"
                        stroke-width="2"
                    />
        </g>
      </g>
      <g id="Group_136">
        <g id="Graphic_140">
          <path
                        d="M 894.3907 340.03077 C 894.3907 340.02464 894.3907 340.0185 894.3907 340.01237 L 894.3907 339.9166 L 894.3887 339.9166 C 894.327 338.2985 892.8371 336.68835 889.9192 335.45365 C 883.9573 332.93084 874.291 332.93084 868.329 335.45365 C 865.4111 336.68835 863.9213 338.2985 863.8595 339.9166 L 863.8576 339.9166 L 863.8576 340.0151 C 863.8575 340.0194 863.8575 340.02373 863.8576 340.02805 L 863.8576 363.6648 C 863.8575 363.6691 863.8575 363.67343 863.8576 363.67775 L 863.8576 363.8533 L 863.8636 363.8533 C 863.969 365.44536 865.4575 367.0241 868.329 368.2392 C 874.291 370.762 883.9573 370.762 889.9192 368.2392 C 892.7908 367.0241 894.2793 365.44536 894.3847 363.8533 L 894.3907 363.8533 L 894.3907 363.68047 C 894.3907 363.67433 894.3907 363.6682 894.3907 363.66206 Z"
                        fill="url(#Obj_Gradient_18)"
                    />
          <path
                        d="M 894.3907 340.03077 C 894.3907 340.02464 894.3907 340.0185 894.3907 340.01237 L 894.3907 339.9166 L 894.3887 339.9166 C 894.327 338.2985 892.8371 336.68835 889.9192 335.45365 C 883.9573 332.93084 874.291 332.93084 868.329 335.45365 C 865.4111 336.68835 863.9213 338.2985 863.8595 339.9166 L 863.8576 339.9166 L 863.8576 340.0151 C 863.8575 340.0194 863.8575 340.02373 863.8576 340.02805 L 863.8576 363.6648 C 863.8575 363.6691 863.8575 363.67343 863.8576 363.67775 L 863.8576 363.8533 L 863.8636 363.8533 C 863.969 365.44536 865.4575 367.0241 868.329 368.2392 C 874.291 370.762 883.9573 370.762 889.9192 368.2392 C 892.7908 367.0241 894.2793 365.44536 894.3847 363.8533 L 894.3907 363.8533 L 894.3907 363.68047 C 894.3907 363.67433 894.3907 363.6682 894.3907 363.66206 Z"
                        stroke="white"
                        stroke-opacity=".48790474"
                        stroke-linecap="round"
                        stroke-linejoin="round"
                        stroke-width="2"
                    />
        </g>
        <g id="Graphic_139">
          <ellipse
                        cx="879.1241"
                        cy="340.02157"
                        rx="15.2666047675672"
                        ry="6.46003711356586"
                        fill="url(#Obj_Gradient_19)"
                    />
          <ellipse
                        cx="879.1241"
                        cy="340.02157"
                        rx="15.2666047675672"
                        ry="6.46003711356586"
                        stroke="white"
                        stroke-opacity=".48790474"
                        stroke-linecap="round"
                        stroke-linejoin="round"
                        stroke-width="2"
                    />
        </g>
        <g id="Graphic_138">
          <path
                        d="M 894.8774 340.57623 C 894.8775 340.5701 894.8775 340.56396 894.8774 340.55783 L 894.8774 340.46207 L 894.8755 340.46207 C 894.8137 338.84397 893.3239 337.2338 890.406 335.9991 C 884.444 333.4763 874.7777 333.4763 868.8158 335.9991 C 865.8979 337.2338 864.408 338.84397 864.3463 340.46207 L 864.3443 340.46207 L 864.3443 340.56055 C 864.3443 340.56487 864.3443 340.5692 864.3443 340.5735 L 864.3443 364.21024 C 864.3443 364.21456 864.3443 364.2189 864.3443 364.2232 L 864.3443 364.39874 L 864.3503 364.39874 C 864.4557 365.9908 865.9442 367.56955 868.8158 368.78465 C 874.7777 371.30746 884.444 371.30746 890.406 368.78465 C 893.2776 367.56955 894.766 365.9908 894.8714 364.39874 L 894.8774 364.39874 L 894.8774 364.22593 C 894.8775 364.2198 894.8775 364.21366 894.8774 364.20752 Z"
                        fill="url(#Obj_Gradient_20)"
                    />
          <path
                        d="M 894.8774 340.57623 C 894.8775 340.5701 894.8775 340.56396 894.8774 340.55783 L 894.8774 340.46207 L 894.8755 340.46207 C 894.8137 338.84397 893.3239 337.2338 890.406 335.9991 C 884.444 333.4763 874.7777 333.4763 868.8158 335.9991 C 865.8979 337.2338 864.408 338.84397 864.3463 340.46207 L 864.3443 340.46207 L 864.3443 340.56055 C 864.3443 340.56487 864.3443 340.5692 864.3443 340.5735 L 864.3443 364.21024 C 864.3443 364.21456 864.3443 364.2189 864.3443 364.2232 L 864.3443 364.39874 L 864.3503 364.39874 C 864.4557 365.9908 865.9442 367.56955 868.8158 368.78465 C 874.7777 371.30746 884.444 371.30746 890.406 368.78465 C 893.2776 367.56955 894.766 365.9908 894.8714 364.39874 L 894.8774 364.39874 L 894.8774 364.22593 C 894.8775 364.2198 894.8775 364.21366 894.8774 364.20752 Z"
                        stroke="white"
                        stroke-opacity=".48790474"
                        stroke-linecap="round"
                        stroke-linejoin="round"
                        stroke-width="2"
                    />
        </g>
        <g id="Graphic_137">
          <ellipse
                        cx="879.6109"
                        cy="340.02157"
                        rx="15.2666047675672"
                        ry="6.46003711356586"
                        fill="url(#Obj_Gradient_21)"
                    />
          <ellipse
                        cx="879.6109"
                        cy="340.02157"
                        rx="15.2666047675672"
                        ry="6.46003711356586"
                        stroke="white"
                        stroke-opacity=".48790474"
                        stroke-linecap="round"
                        stroke-linejoin="round"
                        stroke-width="2"
                    />
        </g>
      </g>
      <g id="Graphic_146">
        <path
                    d="M 652.6122 389.67395 C 649.386 410.73527 676.5013 427.2255 690.9843 411.36375 C 693.7773 429.84217 725.5983 425.05203 727.0228 411.36375 C 744.8228 419.57625 766.7853 370.4134 745.0965 361.28865 C 763.17125 342.468 736.224 304.94 715.1375 323.76065 C 715.2004 319.54632 712.487 316.3051 708.5193 314.23792 C 706.8893 296.993 688.2266 280.38942 672.7294 294.22136 C 672.9492 279.50638 639.3201 276.6552 636.637 294.22136 C 607.7178 285.20992 600.4886 338.0229 618.6172 344.29646 C 592.98564 371.2163 630.5575 401.5585 648.5762 381.82446 C 649.0833 385.17925 650.5471 387.7671 652.6122 389.67395 Z"
                    fill="white"
                />
        <path
                    d="M 652.6122 389.67395 C 649.386 410.73527 676.5013 427.2255 690.9843 411.36375 C 693.7773 429.84217 725.5983 425.05203 727.0228 411.36375 C 744.8228 419.57625 766.7853 370.4134 745.0965 361.28865 C 763.17125 342.468 736.224 304.94 715.1375 323.76065 C 715.2004 319.54632 712.487 316.3051 708.5193 314.23792 C 706.8893 296.993 688.2266 280.38942 672.7294 294.22136 C 672.9492 279.50638 639.3201 276.6552 636.637 294.22136 C 607.7178 285.20992 600.4886 338.0229 618.6172 344.29646 C 592.98564 371.2163 630.5575 401.5585 648.5762 381.82446 C 649.0833 385.17925 650.5471 387.7671 652.6122 389.67395 Z"
                    stroke="black"
                    stroke-linecap="round"
                    stroke-linejoin="round"
                    stroke-width="1"
                />
      </g>
      <g id="Graphic_149">
        <text transform="translate(825.705 281)" fill="black">
          <tspan
                        font-family="Noto Sans Display"
                        font-size="14"
                        font-weight="300"
                        fill="black"
                        x="0"
                        y="15"
                        xml:space="preserve"
                    >Server</tspan>
        </text>
      </g>
      <g id="Graphic_150">
        <text transform="translate(533.8901 281)" fill="black">
          <tspan
                        font-family="Noto Sans Display"
                        font-size="14"
                        font-weight="300"
                        fill="black"
                        x="8597567e-19"
                        y="15"
                        xml:space="preserve"
                    >Client</tspan>
        </text>
      </g>
      <g id="Graphic_151">
        <text transform="translate(623.78854 315.4189)" fill="black">
          <tspan
                        font-family="Noto Sans Display"
                        font-size="14"
                        font-weight="300"
                        fill="black"
                        x="7602807e-19"
                        y="15"
                        xml:space="preserve"
                    >Request: GET</tspan>
        </text>
      </g>
      <g id="Graphic_152">
        <text transform="translate(682.25485 361.4915)" fill="black">
          <tspan
                        font-family="Noto Sans Display"
                        font-size="14"
                        font-weight="300"
                        fill="black"
                        x="20321522e-19"
                        y="15"
                        xml:space="preserve"
                    >Response: </tspan>
          <tspan
                        font-family="Noto Sans Display"
                        font-size="14"
                        font-weight="300"
                        fill="black"
                        x="30.254"
                        y="34"
                        xml:space="preserve"
                    >Datei</tspan>
        </text>
      </g>
      <g id="Line_153" filter="url(#Shadow)">
        <line
                    x1="603.4051"
                    y1="335.6924"
                    x2="755.87165"
                    y2="335.6924"
                    marker-end="url(#FilledArrow_Marker)"
                    stroke="#666"
                    stroke-linecap="round"
                    stroke-linejoin="round"
                    stroke-width="2"
                />
      </g>
      <g id="Line_154" filter="url(#Shadow)">
        <line
                    x1="768.77165"
                    y1="381.6924"
                    x2="616.3051"
                    y2="381.6924"
                    marker-end="url(#FilledArrow_Marker)"
                    stroke="#666"
                    stroke-linecap="round"
                    stroke-linejoin="round"
                    stroke-width="2"
                />
      </g>
      <g id="Graphic_155">
        <text transform="translate(706.417 281)" fill="black">
          <tspan
                        font-family="Noto Sans Display"
                        font-size="14"
                        font-weight="300"
                        fill="black"
                        x="42099657e-20"
                        y="15"
                        xml:space="preserve"
                    >WAN</tspan>
        </text>
      </g>
      <g id="Line_156" filter="url(#Shadow)">
        <line
                    x1="838.8613"
                    y1="365.6878"
                    x2="850.9578"
                    y2="365.76146"
                    marker-end="url(#FilledArrow_Marker)"
                    marker-start="url(#FilledArrow_Marker_2)"
                    stroke="#666"
                    stroke-linecap="round"
                    stroke-linejoin="round"
                    stroke-width="2"
                />
      </g>
    </g>
  </g>
</svg>
