<?xml version="1.0" encoding="UTF-8" standalone="no" ?>
<!DOCTYPE svg PUBLIC "-//W3C//DTD SVG 1.1//EN"
    "http://www.w3.org/Graphics/SVG/1.1/DTD/svg11.dtd">
<svg
    version="1.1"
    xmlns="http://www.w3.org/2000/svg"
    xmlns:dc="http://purl.org/dc/elements/1.1/"
    xmlns:xl="http://www.w3.org/1999/xlink"
    viewBox="10 12 555 272"
    width="1665"
    height="816"
>
  <style>
    @import url('/LectureDoc2/ext/fonts/ld-fonts.css');
  </style>
  <defs>
    <filter id="Shadow" filterUnits="userSpaceOnUse" x="-45.5" y="-15.2">
      <feGaussianBlur in="SourceAlpha" result="blur" stdDeviation="1.308" />
      <feOffset in="blur" result="offset" dx="0" dy="2" />
      <feFlood flood-color="black" flood-opacity=".5" result="flood" />
      <feComposite in="flood" in2="offset" operator="in" />
    </filter>
    <filter id="Shadow_2" filterUnits="userSpaceOnUse" x="-45.5" y="-15.2">
      <feGaussianBlur in="SourceAlpha" result="blur" stdDeviation="1.308" />
      <feOffset in="blur" result="offset" dx="0" dy="3" />
      <feFlood flood-color="black" flood-opacity=".5" result="flood" />
      <feComposite in="flood" in2="offset" operator="in" result="color" />
      <feMerge>
        <feMergeNode in="color" />
        <feMergeNode in="SourceGraphic" />
      </feMerge>
    </filter>
    <marker
            orient="auto"
            overflow="visible"
            markerUnits="strokeWidth"
            id="FilledArrow_Marker"
            stroke-linejoin="miter"
            stroke-miterlimit="10"
            viewBox="-1 -4 10 8"
            markerWidth="10"
            markerHeight="8"
            color="#2b6f00"
        >
      <g>
        <path
                    d="M 8 0 L 0 -3 L 0 3 Z"
                    fill="currentColor"
                    stroke="currentColor"
                    stroke-width="1"
                />
      </g>
    </marker>
    <marker
            orient="auto"
            overflow="visible"
            markerUnits="strokeWidth"
            id="FilledArrow_Marker_2"
            stroke-linejoin="miter"
            stroke-miterlimit="10"
            viewBox="-1 -4 10 8"
            markerWidth="10"
            markerHeight="8"
            color="#41147a"
        >
      <g>
        <path
                    d="M 8 0 L 0 -3 L 0 3 Z"
                    fill="currentColor"
                    stroke="currentColor"
                    stroke-width="1"
                />
      </g>
    </marker>
  </defs>
  <metadata> Produced by OmniGraffle 8.0\n2025-03-23 13:11:40 +0000</metadata>
  <g
        id="choreographierte-saga"
        stroke-dasharray="none"
        stroke-opacity="1"
        fill-opacity="1"
        fill="none"
        stroke="none"
    >
    <title>choreographierte-saga</title>
    <g id="choreographierte-saga_Layer_1">
      <title>Layer 1</title>
      <g id="Graphic_104_shadow" filter="url(#Shadow)">
        <path
                    d="M 164.61592 17.471029 L 231.81592 17.471029 C 239.76472 17.471029 246.21592 30.91103 246.21592 47.47103 C 246.21592 64.03103 239.76472 77.47103 231.81592 77.47103 L 164.61592 77.47103 C 156.66712 77.47103 150.21592 64.03103 150.21592 47.47103 C 150.21592 30.91103 156.66712 17.471029 164.61592 17.471029 Z"
                    fill="white"
                />
        <path
                    d="M 164.61592 17.471029 L 231.81592 17.471029 C 239.76472 17.471029 246.21592 30.91103 246.21592 47.47103 C 246.21592 64.03103 239.76472 77.47103 231.81592 77.47103 L 164.61592 77.47103 C 156.66712 77.47103 150.21592 64.03103 150.21592 47.47103 C 150.21592 30.91103 156.66712 17.471029 164.61592 17.471029 Z"
                    stroke="black"
                    stroke-linecap="round"
                    stroke-linejoin="round"
                    stroke-width="1"
                />
      </g>
      <g id="Graphic_105_shadow" filter="url(#Shadow)">
        <path
                    d="M 354.4 117.25 L 421.6 117.25 C 429.5488 117.25 436 130.69 436 147.25 C 436 163.81 429.5488 177.25 421.6 177.25 L 354.4 177.25 C 346.4512 177.25 340 163.81 340 147.25 C 340 130.69 346.4512 117.25 354.4 117.25 Z"
                    fill="white"
                />
        <path
                    d="M 354.4 117.25 L 421.6 117.25 C 429.5488 117.25 436 130.69 436 147.25 C 436 163.81 429.5488 177.25 421.6 177.25 L 354.4 177.25 C 346.4512 177.25 340 163.81 340 147.25 C 340 130.69 346.4512 117.25 354.4 117.25 Z"
                    stroke="black"
                    stroke-linecap="round"
                    stroke-linejoin="round"
                    stroke-width="1"
                />
      </g>
      <g id="Graphic_106_shadow" filter="url(#Shadow)">
        <path
                    d="M 479.4739 79.52637 L 546.6739 79.52637 C 554.6227 79.52637 561.0739 92.96637 561.0739 109.52637 C 561.0739 126.08637 554.6227 139.52637 546.6739 139.52637 L 479.4739 139.52637 C 471.5251 139.52637 465.0739 126.08637 465.0739 109.52637 C 465.0739 92.96637 471.5251 79.52637 479.4739 79.52637 Z"
                    fill="white"
                />
        <path
                    d="M 479.4739 79.52637 L 546.6739 79.52637 C 554.6227 79.52637 561.0739 92.96637 561.0739 109.52637 C 561.0739 126.08637 554.6227 139.52637 546.6739 139.52637 L 479.4739 139.52637 C 471.5251 139.52637 465.0739 126.08637 465.0739 109.52637 C 465.0739 92.96637 471.5251 79.52637 479.4739 79.52637 Z"
                    stroke="black"
                    stroke-linecap="round"
                    stroke-linejoin="round"
                    stroke-width="1"
                />
      </g>
      <g id="Graphic_107_shadow" filter="url(#Shadow)">
        <path
                    d="M 164.61592 217.02897 L 231.81592 217.02897 C 239.76472 217.02897 246.21592 230.46897 246.21592 247.02897 C 246.21592 263.58897 239.76472 277.02897 231.81592 277.02897 L 164.61592 277.02897 C 156.66712 277.02897 150.21592 263.58897 150.21592 247.02897 C 150.21592 230.46897 156.66712 217.02897 164.61592 217.02897 Z"
                    fill="white"
                />
        <path
                    d="M 164.61592 217.02897 L 231.81592 217.02897 C 239.76472 217.02897 246.21592 230.46897 246.21592 247.02897 C 246.21592 263.58897 239.76472 277.02897 231.81592 277.02897 L 164.61592 277.02897 C 156.66712 277.02897 150.21592 263.58897 150.21592 247.02897 C 150.21592 230.46897 156.66712 217.02897 164.61592 217.02897 Z"
                    stroke="black"
                    stroke-linecap="round"
                    stroke-linejoin="round"
                    stroke-width="1"
                />
      </g>
      <g id="Graphic_108_shadow" filter="url(#Shadow)">
        <path
                    d="M 28.364518 184.11523 L 95.56452 184.11523 C 103.51332 184.11523 109.96452 197.55523 109.96452 214.11523 C 109.96452 230.67523 103.51332 244.11523 95.56452 244.11523 L 28.364518 244.11523 C 20.415718 244.11523 13.964518 230.67523 13.964518 214.11523 C 13.964518 197.55523 20.415718 184.11523 28.364518 184.11523 Z"
                    fill="white"
                />
        <path
                    d="M 28.364518 184.11523 L 95.56452 184.11523 C 103.51332 184.11523 109.96452 197.55523 109.96452 214.11523 C 109.96452 230.67523 103.51332 244.11523 95.56452 244.11523 L 28.364518 244.11523 C 20.415718 244.11523 13.964518 230.67523 13.964518 214.11523 C 13.964518 197.55523 20.415718 184.11523 28.364518 184.11523 Z"
                    stroke="black"
                    stroke-linecap="round"
                    stroke-linejoin="round"
                    stroke-width="1"
                />
      </g>
      <g id="Graphic_90" filter="url(#Shadow_2)">
        <path
                    d="M 133.21592 147.25 L 165.71592 117.25 L 230.71592 117.25 L 263.2159 147.25 L 230.71592 177.25 L 165.71592 177.25 Z"
                    fill="white"
                />
        <path
                    d="M 133.21592 147.25 L 165.71592 117.25 L 230.71592 117.25 L 263.2159 147.25 L 230.71592 177.25 L 165.71592 177.25 Z"
                    stroke="black"
                    stroke-linecap="round"
                    stroke-linejoin="round"
                    stroke-width="1"
                />
        <text transform="translate(167.71592 128.25)" fill="black">
          <tspan
                        font-family="Noto Sans Display"
                        font-size="14"
                        font-weight="400"
                        fill="black"
                        x=".673"
                        y="15"
                    >Warenver</tspan>
          <tspan
                        font-family="Noto Sans Display"
                        font-size="14"
                        font-weight="400"
                        fill="black"
                        x="3.109"
                        y="34"
                    >-waltung</tspan>
        </text>
      </g>
      <g id="Graphic_91" filter="url(#Shadow_2)">
        <path
                    d="M 323 42.99707 L 355.5 12.99707 L 420.5 12.99707 L 453 42.99707 L 420.5 72.99707 L 355.5 72.99707 Z"
                    fill="white"
                />
        <path
                    d="M 323 42.99707 L 355.5 12.99707 L 420.5 12.99707 L 453 42.99707 L 420.5 72.99707 L 355.5 72.99707 Z"
                    stroke="black"
                    stroke-linecap="round"
                    stroke-linejoin="round"
                    stroke-width="1"
                />
        <text transform="translate(357.5 23.99707)" fill="black">
          <tspan
                        font-family="Noto Sans Display"
                        font-size="14"
                        font-weight="400"
                        fill="black"
                        x="4.25"
                        y="15"
                    >Kunden-</tspan>
          <tspan
                        font-family="Noto Sans Display"
                        font-size="14"
                        font-weight="400"
                        fill="black"
                        x="11.124"
                        y="34"
                    >bonus</tspan>
        </text>
      </g>
      <g id="Graphic_92" filter="url(#Shadow_2)">
        <path
                    d="M 323 247.02897 L 355.5 217.02897 L 420.5 217.02897 L 453 247.02897 L 420.5 277.02897 L 355.5 277.02897 Z"
                    fill="white"
                />
        <path
                    d="M 323 247.02897 L 355.5 217.02897 L 420.5 217.02897 L 453 247.02897 L 420.5 277.02897 L 355.5 277.02897 Z"
                    stroke="black"
                    stroke-linecap="round"
                    stroke-linejoin="round"
                    stroke-width="1"
                />
        <text transform="translate(357.5 228.02897)" fill="black">
          <tspan
                        font-family="Noto Sans Display"
                        font-size="14"
                        font-weight="400"
                        fill="black"
                        x="1.821"
                        y="15"
                    >Zahlungs</tspan>
          <tspan
                        font-family="Noto Sans Display"
                        font-size="14"
                        font-weight="400"
                        fill="black"
                        x="1.562"
                        y="34"
                    >-Gateway</tspan>
        </text>
      </g>
      <g id="Graphic_104">
        <path
                    d="M 164.61592 17.471029 L 231.81592 17.471029 C 239.76472 17.471029 246.21592 30.91103 246.21592 47.47103 C 246.21592 64.03103 239.76472 77.47103 231.81592 77.47103 L 164.61592 77.47103 C 156.66712 77.47103 150.21592 64.03103 150.21592 47.47103 C 150.21592 30.91103 156.66712 17.471029 164.61592 17.471029 Z"
                    fill="white"
                />
        <path
                    d="M 164.61592 17.471029 L 231.81592 17.471029 C 239.76472 17.471029 246.21592 30.91103 246.21592 47.47103 C 246.21592 64.03103 239.76472 77.47103 231.81592 77.47103 L 164.61592 77.47103 C 156.66712 77.47103 150.21592 64.03103 150.21592 47.47103 C 150.21592 30.91103 156.66712 17.471029 164.61592 17.471029 Z"
                    stroke="black"
                    stroke-linecap="round"
                    stroke-linejoin="round"
                    stroke-width="1"
                />
        <text transform="translate(164.81592 18.971029)" fill="black">
          <tspan
                        font-family="Noto Sans Display"
                        font-size="14"
                        font-weight="400"
                        fill="black"
                        x=".43000153"
                        y="15"
                    >Bestellung </tspan>
          <tspan
                        font-family="Noto Sans Display"
                        font-size="14"
                        font-weight="400"
                        fill="black"
                        x="7.8010015"
                        y="34"
                    >platziert</tspan>
          <tspan
                        font-family="Noto Sans Display"
                        font-size="14"
                        font-weight="400"
                        fill="black"
                        x="1.8440015"
                        y="53"
                    >«Ereignis»</tspan>
        </text>
      </g>
      <g id="Graphic_105">
        <path
                    d="M 354.4 117.25 L 421.6 117.25 C 429.5488 117.25 436 130.69 436 147.25 C 436 163.81 429.5488 177.25 421.6 177.25 L 354.4 177.25 C 346.4512 177.25 340 163.81 340 147.25 C 340 130.69 346.4512 117.25 354.4 117.25 Z"
                    fill="white"
                />
        <path
                    d="M 354.4 117.25 L 421.6 117.25 C 429.5488 117.25 436 130.69 436 147.25 C 436 163.81 429.5488 177.25 421.6 177.25 L 354.4 177.25 C 346.4512 177.25 340 163.81 340 147.25 C 340 130.69 346.4512 117.25 354.4 117.25 Z"
                    stroke="black"
                    stroke-linecap="round"
                    stroke-linejoin="round"
                    stroke-width="1"
                />
        <text transform="translate(354.6 118.75)" fill="black">
          <tspan
                        font-family="Noto Sans Display"
                        font-size="14"
                        font-weight="400"
                        fill="black"
                        x=".6050015"
                        y="15"
                    >Bezahlung </tspan>
          <tspan
                        font-family="Noto Sans Display"
                        font-size="14"
                        font-weight="400"
                        fill="black"
                        x="12.484002"
                        y="34"
                    >erfolgt</tspan>
          <tspan
                        font-family="Noto Sans Display"
                        font-size="14"
                        font-weight="400"
                        fill="black"
                        x="1.8440015"
                        y="53"
                    >«Ereignis»</tspan>
        </text>
      </g>
      <g id="Graphic_106">
        <path
                    d="M 479.4739 79.52637 L 546.6739 79.52637 C 554.6227 79.52637 561.0739 92.96637 561.0739 109.52637 C 561.0739 126.08637 554.6227 139.52637 546.6739 139.52637 L 479.4739 139.52637 C 471.5251 139.52637 465.0739 126.08637 465.0739 109.52637 C 465.0739 92.96637 471.5251 79.52637 479.4739 79.52637 Z"
                    fill="white"
                />
        <path
                    d="M 479.4739 79.52637 L 546.6739 79.52637 C 554.6227 79.52637 561.0739 92.96637 561.0739 109.52637 C 561.0739 126.08637 554.6227 139.52637 546.6739 139.52637 L 479.4739 139.52637 C 471.5251 139.52637 465.0739 126.08637 465.0739 109.52637 C 465.0739 92.96637 471.5251 79.52637 479.4739 79.52637 Z"
                    stroke="black"
                    stroke-linecap="round"
                    stroke-linejoin="round"
                    stroke-width="1"
                />
        <text transform="translate(479.6739 81.02637)" fill="black">
          <tspan
                        font-family="Noto Sans Display"
                        font-size="14"
                        font-weight="400"
                        fill="black"
                        x="13.786002"
                        y="15"
                    >Bonus </tspan>
          <tspan
                        font-family="Noto Sans Display"
                        font-size="14"
                        font-weight="400"
                        fill="black"
                        x="7.5980015"
                        y="34"
                    >gewährt</tspan>
          <tspan
                        font-family="Noto Sans Display"
                        font-size="14"
                        font-weight="400"
                        fill="black"
                        x="1.8440015"
                        y="53"
                    >«Ereignis»</tspan>
        </text>
      </g>
      <g id="Graphic_107">
        <path
                    d="M 164.61592 217.02897 L 231.81592 217.02897 C 239.76472 217.02897 246.21592 230.46897 246.21592 247.02897 C 246.21592 263.58897 239.76472 277.02897 231.81592 277.02897 L 164.61592 277.02897 C 156.66712 277.02897 150.21592 263.58897 150.21592 247.02897 C 150.21592 230.46897 156.66712 217.02897 164.61592 217.02897 Z"
                    fill="white"
                />
        <path
                    d="M 164.61592 217.02897 L 231.81592 217.02897 C 239.76472 217.02897 246.21592 230.46897 246.21592 247.02897 C 246.21592 263.58897 239.76472 277.02897 231.81592 277.02897 L 164.61592 277.02897 C 156.66712 277.02897 150.21592 263.58897 150.21592 247.02897 C 150.21592 230.46897 156.66712 217.02897 164.61592 217.02897 Z"
                    stroke="black"
                    stroke-linecap="round"
                    stroke-linejoin="round"
                    stroke-width="1"
                />
        <text transform="translate(164.81592 218.52897)" fill="black">
          <tspan
                        font-family="Noto Sans Display"
                        font-size="14"
                        font-weight="400"
                        fill="black"
                        x="8.704002"
                        y="15"
                    >Produkt </tspan>
          <tspan
                        font-family="Noto Sans Display"
                        font-size="14"
                        font-weight="400"
                        fill="black"
                        x="3.4750015"
                        y="34"
                    >reserviert</tspan>
          <tspan
                        font-family="Noto Sans Display"
                        font-size="14"
                        font-weight="400"
                        fill="black"
                        x="1.8440015"
                        y="53"
                    >«Ereignis»</tspan>
        </text>
      </g>
      <g id="Graphic_108">
        <path
                    d="M 28.364518 184.11523 L 95.56452 184.11523 C 103.51332 184.11523 109.96452 197.55523 109.96452 214.11523 C 109.96452 230.67523 103.51332 244.11523 95.56452 244.11523 L 28.364518 244.11523 C 20.415718 244.11523 13.964518 230.67523 13.964518 214.11523 C 13.964518 197.55523 20.415718 184.11523 28.364518 184.11523 Z"
                    fill="white"
                />
        <path
                    d="M 28.364518 184.11523 L 95.56452 184.11523 C 103.51332 184.11523 109.96452 197.55523 109.96452 214.11523 C 109.96452 230.67523 103.51332 244.11523 95.56452 244.11523 L 28.364518 244.11523 C 20.415718 244.11523 13.964518 230.67523 13.964518 214.11523 C 13.964518 197.55523 20.415718 184.11523 28.364518 184.11523 Z"
                    stroke="black"
                    stroke-linecap="round"
                    stroke-linejoin="round"
                    stroke-width="1"
                />
        <text transform="translate(28.564518 185.61523)" fill="black">
          <tspan
                        font-family="Noto Sans Display"
                        font-size="14"
                        font-weight="400"
                        fill="black"
                        x="8.704002"
                        y="15"
                    >Produkt </tspan>
          <tspan
                        font-family="Noto Sans Display"
                        font-size="14"
                        font-weight="400"
                        fill="black"
                        x="2.3970015"
                        y="34"
                    >versendet</tspan>
          <tspan
                        font-family="Noto Sans Display"
                        font-size="14"
                        font-weight="400"
                        fill="black"
                        x="1.8440015"
                        y="53"
                    >«Ereignis»</tspan>
        </text>
      </g>
      <g id="Line_109">
        <line
                    x1="198.21592"
                    y1="117.25"
                    x2="198.21592"
                    y2="87.37103"
                    marker-end="url(#FilledArrow_Marker)"
                    stroke="#2b6f00"
                    stroke-linecap="round"
                    stroke-linejoin="round"
                    stroke-dasharray="4.0,4.0"
                    stroke-width="1"
                />
      </g>
      <g id="Line_110">
        <line
                    x1="149.1048"
                    y1="161.91667"
                    x2="115.90368"
                    y2="206.1946"
                    marker-end="url(#FilledArrow_Marker_2)"
                    stroke="#41147a"
                    stroke-linecap="round"
                    stroke-linejoin="round"
                    stroke-dasharray="8.0,5.0"
                    stroke-width="1"
                />
      </g>
      <g id="Line_111">
        <line
                    x1="198.21592"
                    y1="177.25"
                    x2="198.21592"
                    y2="207.12897"
                    marker-end="url(#FilledArrow_Marker_2)"
                    stroke="#41147a"
                    stroke-linecap="round"
                    stroke-linejoin="round"
                    stroke-dasharray="8.0,5.0"
                    stroke-width="1"
                />
      </g>
      <g id="Line_112">
        <line
                    x1="323"
                    y1="247.02897"
                    x2="256.1159"
                    y2="247.02897"
                    marker-end="url(#FilledArrow_Marker)"
                    stroke="#2b6f00"
                    stroke-linecap="round"
                    stroke-linejoin="round"
                    stroke-dasharray="4.0,4.0"
                    stroke-width="1"
                />
      </g>
      <g id="Line_113">
        <line
                    x1="388"
                    y1="216.52897"
                    x2="388"
                    y2="187.15"
                    marker-end="url(#FilledArrow_Marker_2)"
                    stroke="#41147a"
                    stroke-linecap="round"
                    stroke-linejoin="round"
                    stroke-dasharray="8.0,5.0"
                    stroke-width="1"
                />
      </g>
      <g id="Line_114">
        <line
                    x1="388"
                    y1="72.99707"
                    x2="388"
                    y2="107.35"
                    marker-end="url(#FilledArrow_Marker)"
                    stroke="#2b6f00"
                    stroke-linecap="round"
                    stroke-linejoin="round"
                    stroke-dasharray="4.0,4.0"
                    stroke-width="1"
                />
      </g>
      <g id="Line_115">
        <line
                    x1="263.2159"
                    y1="147.25"
                    x2="330.1"
                    y2="147.25"
                    marker-end="url(#FilledArrow_Marker)"
                    stroke="#2b6f00"
                    stroke-linecap="round"
                    stroke-linejoin="round"
                    stroke-dasharray="4.0,4.0"
                    stroke-width="1"
                />
      </g>
      <g id="Line_116">
        <line
                    x1="437.1111"
                    y1="57.66374"
                    x2="460.37464"
                    y2="100.80024"
                    marker-end="url(#FilledArrow_Marker_2)"
                    stroke="#41147a"
                    stroke-linecap="round"
                    stroke-linejoin="round"
                    stroke-dasharray="8.0,5.0"
                    stroke-width="1"
                />
      </g>
      <g id="Graphic_117">
        <text transform="translate(63.95445 160.25)" fill="black">
          <tspan
                        font-family="Noto Sans Display"
                        font-size="14"
                        font-weight="400"
                        fill="black"
                        x="831335e-18"
                        y="15"
                    >6. auslösen</tspan>
        </text>
      </g>
      <g id="Graphic_118">
        <text transform="translate(449.24365 55.52637)" fill="black">
          <tspan
                        font-family="Noto Sans Display"
                        font-size="14"
                        font-weight="400"
                        fill="black"
                        x="831335e-18"
                        y="15"
                    >6. auslösen</tspan>
        </text>
      </g>
      <g id="Graphic_119">
        <text transform="translate(375.3312 192.125)" fill="black">
          <tspan
                        font-family="Noto Sans Display"
                        font-size="14"
                        font-weight="400"
                        fill="black"
                        x="831335e-18"
                        y="15"
                    >4. auslösen</tspan>
        </text>
      </g>
      <g id="Graphic_120">
        <text transform="translate(321.94215 79.875)" fill="black">
          <tspan
                        font-family="Noto Sans Display"
                        font-size="14"
                        font-weight="400"
                        fill="black"
                        x="0"
                        y="15"
                    >5. reagiert auf</tspan>
        </text>
      </g>
      <g id="Graphic_121">
        <text transform="translate(252.88117 160.25)" fill="black">
          <tspan
                        font-family="Noto Sans Display"
                        font-size="14"
                        font-weight="400"
                        fill="black"
                        x="0"
                        y="15"
                    >5. reagiert auf</tspan>
        </text>
      </g>
      <g id="Graphic_122">
        <text transform="translate(245.92732 253.02897)" fill="black">
          <tspan
                        font-family="Noto Sans Display"
                        font-size="14"
                        font-weight="400"
                        fill="black"
                        x="0"
                        y="15"
                    >3. reagiert auf</tspan>
        </text>
      </g>
      <g id="Graphic_123">
        <text transform="translate(185.95087 185.15137)" fill="black">
          <tspan
                        font-family="Noto Sans Display"
                        font-size="14"
                        font-weight="400"
                        fill="black"
                        x="831335e-18"
                        y="15"
                    >2. auslösen</tspan>
        </text>
      </g>
      <g id="Graphic_124">
        <text transform="translate(131.76084 90.34863)" fill="black">
          <tspan
                        font-family="Noto Sans Display"
                        font-size="14"
                        font-weight="400"
                        fill="black"
                        x="0"
                        y="15"
                    >1. reagiert auf</tspan>
        </text>
      </g>
    </g>
  </g>
</svg>
