<?xml version="1.0" encoding="UTF-8" standalone="no"?>
<!DOCTYPE svg PUBLIC "-//W3C//DTD SVG 1.1//EN" "http://www.w3.org/Graphics/SVG/1.1/DTD/svg11.dtd">
<svg xmlns:dc="http://purl.org/dc/elements/1.1/" version="1.1" xmlns="http://www.w3.org/2000/svg" xmlns:xl="http://www.w3.org/1999/xlink" viewBox="265 0 120 120" width="120" height="120">
  <defs/>
  <metadata> Produced by OmniGraffle 8.0\n2024-04-23 07:09:49 +0000</metadata>
  <g id="Symbols" stroke-dasharray="none" fill-opacity="1" stroke-opacity="1" stroke="none" fill="none">
    <title>Symbols</title>
    <g id="Symbols_Layer_1">
      <title>Layer 1</title>
      <g id="Group_11">
        <g id="Graphic_14">
          <path d="M 281 0 L 369 0 C 377.83656 541083e-21 385 7.163444 385 16 L 385 104 C 385 112.83656 377.83656 120 369 120 L 281 120 C 272.16344 120 265 112.83656 265 104 L 265 16 C 265 7.163444 272.16344 -1082166e-21 281 0 Z" fill="black"/>
          <path d="M 281 0 L 369 0 C 377.83656 541083e-21 385 7.163444 385 16 L 385 104 C 385 112.83656 377.83656 120 369 120 L 281 120 C 272.16344 120 265 112.83656 265 104 L 265 16 C 265 7.163444 272.16344 -1082166e-21 281 0 Z" stroke="black" stroke-linecap="round" stroke-linejoin="round" stroke-width="0"/>
        </g>
        <g id="Line_13">
          <line x1="285" y1="100" x2="365" y2="20" stroke="white" stroke-linecap="round" stroke-linejoin="round" stroke-width="4"/>
        </g>
        <g id="Line_12">
          <line x1="285" y1="20" x2="365" y2="100" stroke="white" stroke-linecap="round" stroke-linejoin="round" stroke-width="4"/>
        </g>
      </g>
    </g>
  </g>
</svg>
