<?xml version="1.0" encoding="UTF-8" standalone="no" ?>
<!DOCTYPE svg PUBLIC "-//W3C//DTD SVG 1.1//EN"
    "http://www.w3.org/Graphics/SVG/1.1/DTD/svg11.dtd">
<svg
    xmlns:xl="http://www.w3.org/1999/xlink"
    version="1.1"
    xmlns:dc="http://purl.org/dc/elements/1.1/"
    xmlns="http://www.w3.org/2000/svg"
    viewBox="21 -2 671 406"
    width="469.7"
    height="284.2"
>
<style>
  @import url('/LectureDoc2/ext/fonts/ld-fonts.css');
</style>
<defs>
    <linearGradient x1="0" x2="1" id="Gradient" gradientUnits="userSpaceOnUse">
      <stop offset="0" stop-color="#e2e2e2" />
      <stop offset=".5" stop-color="white" />
      <stop offset="1" stop-color="#b4b4b4" />
    </linearGradient>
    <linearGradient
            id="Obj_Gradient"
            xl:href="#Gradient"
            gradientTransform="translate(339 126) rotate(90) scale(64.000016)"
        />
    <radialGradient cx="0" cy="0" r="1" id="Gradient_2" gradientUnits="userSpaceOnUse">
      <stop offset="0" stop-color="white" />
      <stop offset="1" stop-color="#e3e3e3" />
    </radialGradient>
    <radialGradient
            id="Obj_Gradient_2"
            xl:href="#Gradient_2"
            gradientTransform="translate(476 158) scale(45.25484)"
        />
    <marker
            orient="auto"
            overflow="visible"
            markerUnits="strokeWidth"
            id="StickArrow_Marker"
            stroke-linejoin="miter"
            stroke-miterlimit="10"
            viewBox="-1 -4 10 8"
            markerWidth="10"
            markerHeight="8"
            color="black"
        >
      <g>
        <path
                    d="M 8 0 L 0 0 M 0 -3 L 8 0 L 0 3"
                    fill="none"
                    stroke="currentColor"
                    stroke-width="1"
                />
      </g>
    </marker>
    <marker
            orient="auto"
            overflow="visible"
            markerUnits="strokeWidth"
            id="FilledArrow_Marker"
            stroke-linejoin="miter"
            stroke-miterlimit="10"
            viewBox="-1 -4 10 8"
            markerWidth="10"
            markerHeight="8"
            color="black"
        >
      <g>
        <path
                    d="M 8 0 L 0 -3 L 0 3 Z"
                    fill="currentColor"
                    stroke="currentColor"
                    stroke-width="1"
                />
      </g>
    </marker>
    <filter id="Shadow" filterUnits="userSpaceOnUse" x="-46.1" y="-42.6">
      <feGaussianBlur in="SourceAlpha" result="blur" stdDeviation="1.308" />
      <feOffset in="blur" result="offset" dx="0" dy="2" />
      <feFlood flood-color="black" flood-opacity=".5" result="flood" />
      <feComposite in="flood" in2="offset" operator="in" result="color" />
      <feMerge>
        <feMergeNode in="color" />
        <feMergeNode in="SourceGraphic" />
      </feMerge>
    </filter>
  </defs>
  <metadata> Produced by OmniGraffle 8.0\n2025-04-28 12:14:47 +0000</metadata>
  <g
        id="ocp-multiple-subscribers"
        fill="none"
        stroke="none"
        stroke-dasharray="none"
        stroke-opacity="1"
        fill-opacity="1"
    >
    <title>ocp-multiple-subscribers</title>
    <g id="ocp-multiple-subscribers_Layer_1">
      <title>Layer 1</title>
      <g id="Line_39">
        <line
                    x1="328.06062"
                    y1="190.00002"
                    x2="425.6"
                    y2="398"
                    stroke="#b4b4b4"
                    stroke-linecap="round"
                    stroke-linejoin="round"
                    stroke-width="1"
                />
      </g>
      <g id="Line_38">
        <line
                    x1="300.61878"
                    y1="190.96095"
                    x2="214.61878"
                    y2="334"
                    stroke="#b4b4b4"
                    stroke-linecap="round"
                    stroke-linejoin="round"
                    stroke-width="1"
                />
      </g>
      <g id="Graphic_37">
        <path
                    d="M 587.25 35.000004 L 675.25 35.000004 C 684.08656 35.000004 691.25 42.16345 691.25 51.000004 L 691.25 103 C 691.25 111.83656 684.08656 119 675.25 119 L 587.25 119 C 578.41344 119 571.25 111.83656 571.25 103 L 571.25 51.000004 C 571.25 42.16345 578.41344 35.000004 587.25 35.000004 Z"
                    fill="white"
                />
        <path
                    d="M 587.25 35.000004 L 675.25 35.000004 C 684.08656 35.000004 691.25 42.16345 691.25 51.000004 L 691.25 103 C 691.25 111.83656 684.08656 119 675.25 119 L 587.25 119 C 578.41344 119 571.25 111.83656 571.25 103 L 571.25 51.000004 C 571.25 42.16345 578.41344 35.000004 587.25 35.000004 Z"
                    stroke="black"
                    stroke-linecap="round"
                    stroke-linejoin="round"
                    stroke-width="1"
                />
      </g>
      <g id="Graphic_36">
        <path
                    d="M 48.93026 34.98048 L 136.93026 34.98048 C 145.76681 34.98048 152.93026 42.143923 152.93026 50.98048 L 152.93026 102.98048 C 152.93026 111.81703 145.76681 118.98048 136.93026 118.98048 L 48.93026 118.98048 C 40.0937 118.98048 32.930258 111.81703 32.930258 102.98048 L 32.930258 50.98048 C 32.930258 42.143923 40.0937 34.98048 48.93026 34.98048 Z"
                    fill="white"
                />
        <path
                    d="M 48.93026 34.98048 L 136.93026 34.98048 C 145.76681 34.98048 152.93026 42.143923 152.93026 50.98048 L 152.93026 102.98048 C 152.93026 111.81703 145.76681 118.98048 136.93026 118.98048 L 48.93026 118.98048 C 40.0937 118.98048 32.930258 111.81703 32.930258 102.98048 L 32.930258 50.98048 C 32.930258 42.143923 40.0937 34.98048 48.93026 34.98048 Z"
                    stroke="black"
                    stroke-linecap="round"
                    stroke-linejoin="round"
                    stroke-width="1"
                />
      </g>
      <g id="Graphic_35">
        <path
                    d="M 48.93026 185.98047 L 136.93026 185.98047 C 145.76681 185.98047 152.93026 193.14392 152.93026 201.98047 L 152.93026 253.98047 C 152.93026 262.81703 145.76681 269.98047 136.93026 269.98047 L 48.93026 269.98047 C 40.0937 269.98047 32.930258 262.81703 32.930258 253.98047 L 32.930258 201.98047 C 32.930258 193.14392 40.0937 185.98047 48.93026 185.98047 Z"
                    fill="white"
                />
        <path
                    d="M 48.93026 185.98047 L 136.93026 185.98047 C 145.76681 185.98047 152.93026 193.14392 152.93026 201.98047 L 152.93026 253.98047 C 152.93026 262.81703 145.76681 269.98047 136.93026 269.98047 L 48.93026 269.98047 C 40.0937 269.98047 32.930258 262.81703 32.930258 253.98047 L 32.930258 201.98047 C 32.930258 193.14392 40.0937 185.98047 48.93026 185.98047 Z"
                    stroke="black"
                    stroke-linecap="round"
                    stroke-linejoin="round"
                    stroke-width="1"
                />
      </g>
      <g id="Graphic_34">
        <path
                    d="M 37.93026 195.98047 L 125.93026 195.98047 C 134.76681 195.98047 141.93026 203.14392 141.93026 211.98047 L 141.93026 263.98047 C 141.93026 272.81703 134.76681 279.98047 125.93026 279.98047 L 37.93026 279.98047 C 29.093702 279.98047 21.930258 272.81703 21.930258 263.98047 L 21.930258 211.98047 C 21.930258 203.14392 29.093702 195.98047 37.93026 195.98047 Z"
                    fill="white"
                />
        <path
                    d="M 37.93026 195.98047 L 125.93026 195.98047 C 134.76681 195.98047 141.93026 203.14392 141.93026 211.98047 L 141.93026 263.98047 C 141.93026 272.81703 134.76681 279.98047 125.93026 279.98047 L 37.93026 279.98047 C 29.093702 279.98047 21.930258 272.81703 21.930258 263.98047 L 21.930258 211.98047 C 21.930258 203.14392 29.093702 195.98047 37.93026 195.98047 Z"
                    stroke="black"
                    stroke-linecap="round"
                    stroke-linejoin="round"
                    stroke-width="1"
                />
        <text transform="translate(26.930258 226.98047)" fill="black">
          <tspan
                        font-family="Noto Sans Display"
                        font-size="16"
                        font-weight="400"
                        fill="black"
                        x="14.856"
                        y="17"
                        xml:space="preserve"
                    >CarCheckin</tspan>
        </text>
      </g>
      <g id="Graphic_33">
        <path
                    d="M 37.93026 42.720713 L 125.93026 42.720713 C 134.76681 42.720713 141.93026 49.88416 141.93026 58.72071 L 141.93026 110.72071 C 141.93026 119.55727 134.76681 126.72071 125.93026 126.72071 L 37.93026 126.72071 C 29.093702 126.72071 21.930258 119.55727 21.930258 110.72071 L 21.930258 58.72071 C 21.930258 49.88416 29.093702 42.720713 37.93026 42.720713 Z"
                    fill="white"
                />
        <path
                    d="M 37.93026 42.720713 L 125.93026 42.720713 C 134.76681 42.720713 141.93026 49.88416 141.93026 58.72071 L 141.93026 110.72071 C 141.93026 119.55727 134.76681 126.72071 125.93026 126.72071 L 37.93026 126.72071 C 29.093702 126.72071 21.930258 119.55727 21.930258 110.72071 L 21.930258 58.72071 C 21.930258 49.88416 29.093702 42.720713 37.93026 42.720713 Z"
                    stroke="black"
                    stroke-linecap="round"
                    stroke-linejoin="round"
                    stroke-width="1"
                />
        <text transform="translate(26.930258 73.72071)" fill="black">
          <tspan
                        font-family="Noto Sans Display"
                        font-size="16"
                        font-weight="400"
                        fill="black"
                        x="20.272"
                        y="17"
                        xml:space="preserve"
                    >CarRental</tspan>
        </text>
      </g>
      <g id="Graphic_32">
        <path
                    d="M 236 127.00393 C 227.77262 126.87413 219.50408 129.94821 213.22616 136.22616 C 200.9246 148.52767 200.9246 168.47233 213.22616 180.77384 C 219.50408 187.0518 227.77262 190.12587 236 189.99607 L 236 190 L 474 190 L 474 126 L 236 126 Z"
                    fill="url(#Obj_Gradient)"
                />
        <path
                    d="M 236 127.00393 C 227.77262 126.87413 219.50408 129.94821 213.22616 136.22616 C 200.9246 148.52767 200.9246 168.47233 213.22616 180.77384 C 219.50408 187.0518 227.77262 190.12587 236 189.99607 L 236 190 L 474 190 L 474 126 L 236 126 Z"
                    stroke="black"
                    stroke-linecap="round"
                    stroke-linejoin="round"
                    stroke-width="1"
                />
      </g>
      <g id="Graphic_31">
        <circle cx="476" cy="158" r="32.000055070367" fill="url(#Obj_Gradient_2)" />
        <circle
                    cx="476"
                    cy="158"
                    r="32.000055070367"
                    stroke="black"
                    stroke-linecap="round"
                    stroke-linejoin="round"
                    stroke-width="1"
                />
      </g>
      <g id="Graphic_30">
        <path
                    d="M 577.25 44.999996 L 665.25 44.999996 C 674.08656 44.999996 681.25 52.16344 681.25 60.999996 L 681.25 113 C 681.25 121.83655 674.08656 129 665.25 129 L 577.25 129 C 568.41344 129 561.25 121.83655 561.25 113 L 561.25 60.999996 C 561.25 52.16344 568.41344 44.999996 577.25 44.999996 Z"
                    fill="white"
                />
        <path
                    d="M 577.25 44.999996 L 665.25 44.999996 C 674.08656 44.999996 681.25 52.16344 681.25 60.999996 L 681.25 113 C 681.25 121.83655 674.08656 129 665.25 129 L 577.25 129 C 568.41344 129 561.25 121.83655 561.25 113 L 561.25 60.999996 C 561.25 52.16344 568.41344 44.999996 577.25 44.999996 Z"
                    stroke="black"
                    stroke-linecap="round"
                    stroke-linejoin="round"
                    stroke-width="1"
                />
        <text transform="translate(566.25 76)" fill="black">
          <tspan
                        font-family="Noto Sans Display"
                        font-size="16"
                        font-weight="400"
                        fill="black"
                        x="4.6"
                        y="17"
                        xml:space="preserve"
                    >CarAvailability</tspan>
        </text>
      </g>
      <g id="Line_29">
        <path
                    d="M 508 158 L 542.4581 158 L 542.4581 87 L 551.35 87"
                    marker-end="url(#StickArrow_Marker)"
                    stroke="black"
                    stroke-linecap="round"
                    stroke-linejoin="round"
                    stroke-width="1"
                />
      </g>
      <g id="Graphic_28">
        <text transform="translate(550.932 147.98048)" fill="black">
          <tspan
                        font-family="Noto Sans Display"
                        font-size="14"
                        font-weight="400"
                        fill="black"
                        x="0"
                        y="15"
                        xml:space="preserve"
                    >consume</tspan>
        </text>
      </g>
      <g id="Line_27">
        <path
                    d="M 141.93026 84.72071 L 168.5282 84.72071 L 168.5282 158 L 204.00393 158"
                    stroke="black"
                    stroke-linecap="round"
                    stroke-linejoin="round"
                    stroke-width="1"
                />
      </g>
      <g id="Line_26">
        <path
                    d="M 141.93026 237.98047 L 168.44653 237.98047 L 168.44653 158 L 194.10393 158"
                    marker-end="url(#FilledArrow_Marker)"
                    stroke="black"
                    stroke-linecap="round"
                    stroke-linejoin="round"
                    stroke-width="1"
                />
      </g>
      <g id="Line_25" filter="url(#Shadow)">
        <line
                    x1="181"
                    y1="0"
                    x2="181"
                    y2="398"
                    stroke="#797979"
                    stroke-linecap="round"
                    stroke-linejoin="round"
                    stroke-dasharray="4.0,4.0"
                    stroke-width="1"
                />
      </g>
      <g id="Line_24" filter="url(#Shadow)">
        <line
                    x1="525.471"
                    y1="0"
                    x2="525.471"
                    y2="398"
                    stroke="#797979"
                    stroke-linecap="round"
                    stroke-linejoin="round"
                    stroke-dasharray="4.0,4.0"
                    stroke-width="1"
                />
      </g>
      <g id="Graphic_23">
        <text transform="translate(340.995 7.019515)" fill="black">
          <tspan
                        font-family="Noto Sans Display"
                        font-size="14"
                        font-weight="700"
                        fill="black"
                        x="0"
                        y="15"
                        xml:space="preserve"
                    >Topic</tspan>
        </text>
      </g>
      <g id="Graphic_22">
        <text transform="translate(107.54881 7.019515)" fill="black">
          <tspan
                        font-family="Noto Sans Display"
                        font-size="14"
                        font-weight="700"
                        fill="black"
                        x="7425172e-19"
                        y="15"
                        xml:space="preserve"
                    >Publisher</tspan>
        </text>
      </g>
      <g id="Graphic_21">
        <text transform="translate(538.7048 7.019515)" fill="black">
          <tspan
                        font-family="Noto Sans Display"
                        font-size="14"
                        font-weight="700"
                        fill="black"
                        x="0"
                        y="15"
                        xml:space="preserve"
                    >Subscriber</tspan>
        </text>
      </g>
      <g id="Graphic_20">
        <text transform="translate(123.971 149.48048)" fill="black">
          <tspan
                        font-family="Noto Sans Display"
                        font-size="14"
                        font-weight="400"
                        fill="black"
                        x="45119464e-20"
                        y="15"
                        xml:space="preserve"
                    >send</tspan>
        </text>
      </g>
      <g id="Graphic_19">
        <path
                    d="M 425.6 295.2014 C 425.6 281.37082 422.9127 279.6597 403.28255 265.9722 L 403.0752 265.83058 C 383.34136 252 383.1361 252 362.88388 252 C 335.91757 252 214 252 214 252 L 214 398 L 425.6 398 L 425.6 295.2014 Z"
                    fill="#e2e2e2"
                />
        <path
                    d="M 425.6 295.2014 C 425.6 281.37082 422.9127 279.6597 403.28255 265.9722 L 403.0752 265.83058 C 383.34136 252 383.1361 252 362.88388 252 C 335.91757 252 214 252 214 252 L 214 398 L 425.6 398 L 425.6 295.2014 Z M 425.6 294.48892 C 425.6 281.37082 425.39263 281.37082 383.1361 281.37082 L 383.1361 281.37082 C 383.1361 252.14308 383.1361 252 364.12385 252"
                    stroke="#797979"
                    stroke-linecap="round"
                    stroke-linejoin="round"
                    stroke-width="1"
                />
        <text transform="translate(219 257)" fill="black">
          <tspan
                        font-family="Noto Sans Mono"
                        font-size="12"
                        font-weight="400"
                        fill="black"
                        x="0"
                        y="13"
                        xml:space="preserve"
                    >{</tspan>
          <tspan
                        font-family="Noto Sans Mono"
                        font-size="12"
                        font-weight="400"
                        fill="black"
                        x="0"
                        y="30"
                        xml:space="preserve"
                    >  &quot;Status&quot;: &quot;Closed&quot;,</tspan>
          <tspan
                        font-family="Noto Sans Mono"
                        font-size="12"
                        font-weight="400"
                        fill="black"
                        x="0"
                        y="47"
                        xml:space="preserve"
                    >  &quot;RentalAgreementID&quot;: 1234,</tspan>
          <tspan
                        font-family="Noto Sans Mono"
                        font-size="12"
                        font-weight="400"
                        fill="black"
                        x="0"
                        y="64"
                        xml:space="preserve"
                    >  &quot;CustomerID&quot;: 8965,</tspan>
          <tspan
                        font-family="Noto Sans Mono"
                        font-size="12"
                        font-weight="400"
                        fill="black"
                        x="0"
                        y="81"
                        xml:space="preserve"
                    >  &quot;VehicleID&quot;: 98263,</tspan>
          <tspan
                        font-family="Noto Sans Mono"
                        font-size="12"
                        font-weight="400"
                        fill="black"
                        x="0"
                        y="98"
                        xml:space="preserve"
                    >  &quot;RentalAgent&quot;: 24352,</tspan>
          <tspan
                        font-family="Noto Sans Mono"
                        font-size="12"
                        font-weight="400"
                        fill="black"
                        x="0"
                        y="115"
                        xml:space="preserve"
                    >  &quot;Broker&quot;: 6723</tspan>
          <tspan
                        font-family="Noto Sans Mono"
                        font-size="12"
                        font-weight="400"
                        fill="black"
                        x="0"
                        y="132"
                        xml:space="preserve"
                    >}</tspan>
        </text>
      </g>
      <g id="Line_18">
        <path
                    d="M 329.18605 126.03906 C 326.75 126.03906 296.81395 127.28906 296.81395 158.03906 C 296.81395 188.78906 326.25 190.00002 328.06062 190.00002"
                    stroke="#b4b4b4"
                    stroke-linecap="round"
                    stroke-linejoin="round"
                    stroke-width="1"
                />
      </g>
      <g id="Line_17">
        <path
                    d="M 268.3721 126 C 265.93605 126 236 127.25 236 158 C 236 188.75 265.43605 189.96095 267.24668 189.96095"
                    stroke="#b4b4b4"
                    stroke-linecap="round"
                    stroke-linejoin="round"
                    stroke-width="1"
                />
      </g>
      <g id="Line_16">
        <path
                    d="M 300.7442 126 C 298.30815 126 268.3721 127.25 268.3721 158 C 268.3721 188.75 297.80815 189.96095 299.61878 189.96095"
                    stroke="#b4b4b4"
                    stroke-linecap="round"
                    stroke-linejoin="round"
                    stroke-width="1"
                />
      </g>
      <g id="Line_15">
        <path
                    d="M 358.43605 126.03906 C 356 126.03906 326.06395 127.28906 326.06395 158.03906 C 326.06395 188.78906 355.5 190.00002 357.31062 190.00002"
                    stroke="#b4b4b4"
                    stroke-linecap="round"
                    stroke-linejoin="round"
                    stroke-width="1"
                />
      </g>
      <g id="Line_14">
        <path
                    d="M 388.55815 126 C 386.1221 126 356.18605 127.25 356.18605 158 C 356.18605 188.75 385.6221 189.96095 387.43273 189.96095"
                    stroke="#b4b4b4"
                    stroke-linecap="round"
                    stroke-linejoin="round"
                    stroke-width="1"
                />
      </g>
      <g id="Line_13">
        <path
                    d="M 418.55815 126 C 416.1221 126 386.18605 127.25 386.18605 158 C 386.18605 188.75 415.6221 189.96095 417.43273 189.96095"
                    stroke="#b4b4b4"
                    stroke-linecap="round"
                    stroke-linejoin="round"
                    stroke-width="1"
                />
      </g>
      <g id="Line_12">
        <path
                    d="M 448.55815 126 C 446.1221 126 416.18605 127.25 416.18605 158 C 416.18605 188.75 445.6221 189.96095 447.43273 189.96095"
                    stroke="#b4b4b4"
                    stroke-linecap="round"
                    stroke-linejoin="round"
                    stroke-width="1"
                />
      </g>
      <g id="Graphic_11">
        <text transform="translate(251.576 147.98048)" fill="black">
          <tspan
                        font-family="Noto Sans Display"
                        font-size="16"
                        font-weight="400"
                        fill="black"
                        x="881073e-18"
                        y="17"
                        xml:space="preserve"
                    >RentalAgreementSaved</tspan>
        </text>
      </g>
      <g id="Line_10">
        <line
                    x1="299.61878"
                    y1="189.96095"
                    x2="214"
                    y2="252.78918"
                    stroke="#b4b4b4"
                    stroke-linecap="round"
                    stroke-linejoin="round"
                    stroke-width="1"
                />
      </g>
      <g id="Line_8">
        <line
                    x1="333.23756"
                    y1="190.96095"
                    x2="425.6"
                    y2="282"
                    stroke="#b4b4b4"
                    stroke-linecap="round"
                    stroke-linejoin="round"
                    stroke-width="1"
                />
      </g>
      <g id="Graphic_7">
        <path
                    d="M 587.25 186 L 675.25 186 C 684.08656 186 691.25 193.16344 691.25 202 L 691.25 254 C 691.25 262.83656 684.08656 270 675.25 270 L 587.25 270 C 578.41344 270 571.25 262.83656 571.25 254 L 571.25 202 C 571.25 193.16344 578.41344 186 587.25 186 Z"
                    fill="white"
                />
        <path
                    d="M 587.25 186 L 675.25 186 C 684.08656 186 691.25 193.16344 691.25 202 L 691.25 254 C 691.25 262.83656 684.08656 270 675.25 270 L 587.25 270 C 578.41344 270 571.25 262.83656 571.25 254 L 571.25 202 C 571.25 193.16344 578.41344 186 587.25 186 Z"
                    stroke="black"
                    stroke-linecap="round"
                    stroke-linejoin="round"
                    stroke-width="1"
                />
      </g>
      <g id="Graphic_6">
        <path
                    d="M 577.25 196 L 665.25 196 C 674.08656 196 681.25 203.16344 681.25 212 L 681.25 264 C 681.25 272.83655 674.08656 280 665.25 280 L 577.25 280 C 568.41344 280 561.25 272.83655 561.25 264 L 561.25 212 C 561.25 203.16344 568.41344 196 577.25 196 Z"
                    fill="white"
                />
        <path
                    d="M 577.25 196 L 665.25 196 C 674.08656 196 681.25 203.16344 681.25 212 L 681.25 264 C 681.25 272.83655 674.08656 280 665.25 280 L 577.25 280 C 568.41344 280 561.25 272.83655 561.25 264 L 561.25 212 C 561.25 203.16344 568.41344 196 577.25 196 Z"
                    stroke="black"
                    stroke-linecap="round"
                    stroke-linejoin="round"
                    stroke-width="1"
                />
        <text transform="translate(566.25 227)" fill="black">
          <tspan
                        font-family="Noto Sans Display"
                        font-size="16"
                        font-weight="400"
                        fill="black"
                        x="29.48"
                        y="17"
                        xml:space="preserve"
                    >Invoice</tspan>
        </text>
      </g>
      <g id="Line_5">
        <path
                    d="M 508 158 L 542.1854 158 L 542.1854 238 L 551.35 238"
                    marker-end="url(#StickArrow_Marker)"
                    stroke="black"
                    stroke-linecap="round"
                    stroke-linejoin="round"
                    stroke-width="1"
                />
      </g>
      <g id="Graphic_4">
        <path
                    d="M 587.25 306.48045 L 675.25 306.48045 C 684.08656 306.48045 691.25 313.6439 691.25 322.48045 L 691.25 374.48045 C 691.25 383.317 684.08656 390.48045 675.25 390.48045 L 587.25 390.48045 C 578.41344 390.48045 571.25 383.317 571.25 374.48045 L 571.25 322.48045 C 571.25 313.6439 578.41344 306.48045 587.25 306.48045 Z"
                    fill="white"
                />
        <path
                    d="M 587.25 306.48045 L 675.25 306.48045 C 684.08656 306.48045 691.25 313.6439 691.25 322.48045 L 691.25 374.48045 C 691.25 383.317 684.08656 390.48045 675.25 390.48045 L 587.25 390.48045 C 578.41344 390.48045 571.25 383.317 571.25 374.48045 L 571.25 322.48045 C 571.25 313.6439 578.41344 306.48045 587.25 306.48045 Z"
                    stroke="black"
                    stroke-linecap="round"
                    stroke-linejoin="round"
                    stroke-width="1"
                />
      </g>
      <g id="Graphic_3">
        <path
                    d="M 577.25 316.48044 L 665.25 316.48044 C 674.08656 316.48044 681.25 323.6439 681.25 332.48044 L 681.25 384.48044 C 681.25 393.317 674.08656 400.48044 665.25 400.48044 L 577.25 400.48044 C 568.41344 400.48044 561.25 393.317 561.25 384.48044 L 561.25 332.48044 C 561.25 323.6439 568.41344 316.48044 577.25 316.48044 Z"
                    fill="white"
                />
        <path
                    d="M 577.25 316.48044 L 665.25 316.48044 C 674.08656 316.48044 681.25 323.6439 681.25 332.48044 L 681.25 384.48044 C 681.25 393.317 674.08656 400.48044 665.25 400.48044 L 577.25 400.48044 C 568.41344 400.48044 561.25 393.317 561.25 384.48044 L 561.25 332.48044 C 561.25 323.6439 568.41344 316.48044 577.25 316.48044 Z"
                    stroke="black"
                    stroke-linecap="round"
                    stroke-linejoin="round"
                    stroke-width="1"
                />
        <text transform="translate(566.25 347.48044)" fill="black">
          <tspan
                        font-family="Noto Sans Display"
                        font-size="16"
                        font-weight="400"
                        fill="black"
                        x="48.672"
                        y="17"
                        xml:space="preserve"
                    >…</tspan>
        </text>
      </g>
      <g id="Line_2">
        <path
                    d="M 508 158 L 542.25 158 L 542.25 325 L 542.25 358.48044 L 551.35 358.48044"
                    marker-end="url(#StickArrow_Marker)"
                    stroke="black"
                    stroke-linecap="round"
                    stroke-linejoin="round"
                    stroke-width="1"
                />
      </g>
    </g>
  </g>
</svg>
