<?xml version="1.0" encoding="UTF-8" standalone="no" ?>
<!DOCTYPE svg PUBLIC "-//W3C//DTD SVG 1.1//EN"
    "http://www.w3.org/Graphics/SVG/1.1/DTD/svg11.dtd">
<svg
    xmlns:xl="http://www.w3.org/1999/xlink"
    version="1.1"
    xmlns:dc="http://purl.org/dc/elements/1.1/"
    xmlns="http://www.w3.org/2000/svg"
    viewBox="-4 0 560 173"
    width="560"
    height="173"
>
  <style>
    @import url('/LectureDoc2/ext/fonts/ld-fonts.css');
  </style>
  <defs>
    <filter id="Shadow" filterUnits="userSpaceOnUse" x="-60" y="-17.3">
      <feGaussianBlur in="SourceAlpha" result="blur" stdDeviation="1.308" />
      <feOffset in="blur" result="offset" dx="0" dy="2" />
      <feFlood flood-color="black" flood-opacity=".5" result="flood" />
      <feComposite in="flood" in2="offset" operator="in" />
    </filter>
    <filter id="Shadow_2" filterUnits="userSpaceOnUse" x="-60" y="-17.3">
      <feGaussianBlur in="SourceAlpha" result="blur" stdDeviation="1.308" />
      <feOffset in="blur" result="offset" dx="0" dy="2" />
      <feFlood flood-color="black" flood-opacity=".5" result="flood" />
      <feComposite in="flood" in2="offset" operator="in" result="color" />
      <feMerge>
        <feMergeNode in="color" />
        <feMergeNode in="SourceGraphic" />
      </feMerge>
    </filter>
    <marker
            orient="auto"
            overflow="visible"
            markerUnits="strokeWidth"
            id="FilledArrow_Marker"
            stroke-linejoin="miter"
            stroke-miterlimit="10"
            viewBox="-1 -4 10 8"
            markerWidth="10"
            markerHeight="8"
            color="black"
        >
      <g>
        <path
                    d="M 8 0 L 0 -3 L 0 3 Z"
                    fill="currentColor"
                    stroke="currentColor"
                    stroke-width="1"
                />
      </g>
    </marker>
    <marker
            orient="auto"
            overflow="visible"
            markerUnits="strokeWidth"
            id="FilledArrow_Marker_2"
            stroke-linejoin="miter"
            stroke-miterlimit="10"
            viewBox="-1 -6 15 12"
            markerWidth="15"
            markerHeight="12"
            color="black"
        >
      <g>
        <path
                    d="M 12.000001 0 L 0 -4.5000004 L 0 4.5000004 Z"
                    fill="currentColor"
                    stroke="currentColor"
                    stroke-width="1"
                />
      </g>
    </marker>
    <marker
            orient="auto"
            overflow="visible"
            markerUnits="strokeWidth"
            id="FilledArrow_Marker_3"
            stroke-linejoin="miter"
            stroke-miterlimit="10"
            viewBox="-14 -6 15 12"
            markerWidth="15"
            markerHeight="12"
            color="black"
        >
      <g>
        <path
                    d="M -12.000001 0 L 0 4.5000004 L 0 -4.5000004 Z"
                    fill="currentColor"
                    stroke="currentColor"
                    stroke-width="1"
                />
      </g>
    </marker>
  </defs>
  <metadata> Produced by OmniGraffle 8.0\n2025-04-04 07:03:23 +0000</metadata>
  <g
        id="web-servers-application-frontend"
        fill-opacity="1"
        stroke-opacity="1"
        stroke-dasharray="none"
        stroke="none"
        fill="none"
    >
    <title>web-servers-application-frontend</title>
    <g id="web-servers-application-frontend_Layer_1">
      <title>Layer 1</title>
      <g id="Graphic_26_shadow" filter="url(#Shadow)">
        <path
                    d="M 103.50693 83.43744 C 88.25 80 94.33408 51.0624 118.67229 56 C 120.93034 46.37504 149.2324 47.93728 149.04738 56 C 166.79363 45.68768 189.47229 66.25024 174.26067 76.56256 C 192.51386 81.56224 174.03034 108.49984 159.05 104 C 157.85112 111.50016 131.07078 114.1248 128.72022 104 C 113.55581 114.8128 81.93558 98.18752 103.50693 83.43744 Z"
                    fill="white"
                />
        <path
                    d="M 103.50693 83.43744 C 88.25 80 94.33408 51.0624 118.67229 56 C 120.93034 46.37504 149.2324 47.93728 149.04738 56 C 166.79363 45.68768 189.47229 66.25024 174.26067 76.56256 C 192.51386 81.56224 174.03034 108.49984 159.05 104 C 157.85112 111.50016 131.07078 114.1248 128.72022 104 C 113.55581 114.8128 81.93558 98.18752 103.50693 83.43744 Z"
                    stroke="black"
                    stroke-linecap="round"
                    stroke-linejoin="round"
                    stroke-width="1"
                />
      </g>
      <g id="Graphic_29_shadow" filter="url(#Shadow)">
        <path
                    d="M 476.8 105.6 L 476.8 54.4 C 476.8 50.8672 493.6448 48 514.4 48 C 535.1552 48 552 50.8672 552 54.4 L 552 105.6 C 552 109.1328 535.1552 112 514.4 112 C 493.6448 112 476.8 109.1328 476.8 105.6"
                    fill="white"
                />
        <path
                    d="M 476.8 105.6 L 476.8 54.4 C 476.8 50.8672 493.6448 48 514.4 48 C 535.1552 48 552 50.8672 552 54.4 L 552 105.6 C 552 109.1328 535.1552 112 514.4 112 C 493.6448 112 476.8 109.1328 476.8 105.6 M 476.8 54.4 C 476.8 57.9328 493.6448 60.8 514.4 60.8 C 535.1552 60.8 552 57.9328 552 54.4"
                    stroke="black"
                    stroke-linecap="round"
                    stroke-linejoin="round"
                    stroke-width="1"
                />
      </g>
      <g id="Graphic_31_shadow" filter="url(#Shadow)">
        <rect x="198.4" y="48" width="123.2" height="64" fill="white" />
        <rect
                    x="198.4"
                    y="48"
                    width="123.2"
                    height="64"
                    stroke="black"
                    stroke-linecap="round"
                    stroke-linejoin="round"
                    stroke-width="1"
                />
      </g>
      <g id="Graphic_57_shadow" filter="url(#Shadow)">
        <rect x="-7105427e-21" y="72" width="81.6" height="40" fill="#e5e5e5" />
        <rect
                    x="-7105427e-21"
                    y="72"
                    width="81.6"
                    height="40"
                    stroke="black"
                    stroke-linecap="round"
                    stroke-linejoin="round"
                    stroke-width="1"
                />
      </g>
      <g id="Graphic_58_shadow" filter="url(#Shadow)">
        <rect x="-7105427e-21" y="48" width="81.6" height="24" fill="white" />
        <rect
                    x="-7105427e-21"
                    y="48"
                    width="81.6"
                    height="24"
                    stroke="black"
                    stroke-linecap="round"
                    stroke-linejoin="round"
                    stroke-width="1"
                />
      </g>
      <g id="Graphic_26">
        <path
                    d="M 103.50693 83.43744 C 88.25 80 94.33408 51.0624 118.67229 56 C 120.93034 46.37504 149.2324 47.93728 149.04738 56 C 166.79363 45.68768 189.47229 66.25024 174.26067 76.56256 C 192.51386 81.56224 174.03034 108.49984 159.05 104 C 157.85112 111.50016 131.07078 114.1248 128.72022 104 C 113.55581 114.8128 81.93558 98.18752 103.50693 83.43744 Z"
                    fill="white"
                />
        <path
                    d="M 103.50693 83.43744 C 88.25 80 94.33408 51.0624 118.67229 56 C 120.93034 46.37504 149.2324 47.93728 149.04738 56 C 166.79363 45.68768 189.47229 66.25024 174.26067 76.56256 C 192.51386 81.56224 174.03034 108.49984 159.05 104 C 157.85112 111.50016 131.07078 114.1248 128.72022 104 C 113.55581 114.8128 81.93558 98.18752 103.50693 83.43744 Z"
                    stroke="black"
                    stroke-linecap="round"
                    stroke-linejoin="round"
                    stroke-width="1"
                />
        <text transform="translate(110.36 70.5)" fill="black">
          <tspan
                        font-family="Noto Sans Display"
                        font-size="14"
                        font-weight="300"
                        fill="black"
                        x="3.4200165"
                        y="15"
                    >Network</tspan>
        </text>
      </g>
      <g id="Graphic_29">
        <path
                    d="M 476.8 105.6 L 476.8 54.4 C 476.8 50.8672 493.6448 48 514.4 48 C 535.1552 48 552 50.8672 552 54.4 L 552 105.6 C 552 109.1328 535.1552 112 514.4 112 C 493.6448 112 476.8 109.1328 476.8 105.6"
                    fill="white"
                />
        <path
                    d="M 476.8 105.6 L 476.8 54.4 C 476.8 50.8672 493.6448 48 514.4 48 C 535.1552 48 552 50.8672 552 54.4 L 552 105.6 C 552 109.1328 535.1552 112 514.4 112 C 493.6448 112 476.8 109.1328 476.8 105.6 M 476.8 54.4 C 476.8 57.9328 493.6448 60.8 514.4 60.8 C 535.1552 60.8 552 57.9328 552 54.4"
                    stroke="black"
                    stroke-linecap="round"
                    stroke-linejoin="round"
                    stroke-width="1"
                />
        <text transform="translate(476.8 73.7)" fill="black">
          <tspan
                        font-family="Noto Sans Display"
                        font-size="14"
                        font-weight="300"
                        fill="black"
                        x="3.8037797"
                        y="15"
                    >Persistence</tspan>
        </text>
      </g>
      <g id="Graphic_31">
        <rect x="198.4" y="48" width="123.2" height="64" fill="white" />
        <rect
                    x="198.4"
                    y="48"
                    width="123.2"
                    height="64"
                    stroke="black"
                    stroke-linecap="round"
                    stroke-linejoin="round"
                    stroke-width="1"
                />
        <text transform="translate(203.4 61)" fill="black">
          <tspan
                        font-family="Noto Sans Display"
                        font-size="14"
                        font-weight="300"
                        fill="black"
                        x="2.0475766"
                        y="15"
                    >Presentation Logic</tspan>
          <tspan
                        font-family="Noto Sans Display"
                        font-size="14"
                        font-weight="300"
                        fill="black"
                        x="19.442248"
                        y="34"
                    >(Web Server)</tspan>
        </text>
      </g>
      <g id="Graphic_32" filter="url(#Shadow_2)">
        <rect x="352" y="48" width="104" height="64" fill="white" />
        <rect
                    x="352"
                    y="48"
                    width="104"
                    height="64"
                    stroke="black"
                    stroke-linecap="round"
                    stroke-linejoin="round"
                    stroke-width="1"
                />
        <text transform="translate(357 61)" fill="black">
          <tspan
                        font-family="Noto Sans Display"
                        font-size="14"
                        font-weight="300"
                        fill="black"
                        x="3.6935156"
                        y="15"
                    >Business Logic </tspan>
          <tspan
                        font-family="Noto Sans Display"
                        font-size="14"
                        font-weight="300"
                        fill="black"
                        x="22.677953"
                        y="34"
                    >(Service)</tspan>
        </text>
      </g>
      <g id="Line_41">
        <path
                    d="M 80 79 L 80 80 L 97.24954 80"
                    stroke="black"
                    stroke-linecap="round"
                    stroke-linejoin="round"
                    stroke-width="1"
                />
      </g>
      <g id="Line_42">
        <line
                    x1="180.54037"
                    y1="80"
                    x2="197.9"
                    y2="80"
                    stroke="black"
                    stroke-linecap="round"
                    stroke-linejoin="round"
                    stroke-width="1"
                />
      </g>
      <g id="Line_47">
        <line
                    x1="456.5"
                    y1="80"
                    x2="476.3"
                    y2="80"
                    stroke="black"
                    stroke-linecap="round"
                    stroke-linejoin="round"
                    stroke-width="1"
                />
      </g>
      <g id="Line_48">
        <line
                    x1="351.5"
                    y1="80"
                    x2="322.1"
                    y2="80"
                    stroke="black"
                    stroke-linecap="round"
                    stroke-linejoin="round"
                    stroke-width="1"
                />
      </g>
      <g id="Graphic_51">
        <text transform="translate(318.6 13)" fill="black">
          <tspan
                        font-family="Noto Sans Display"
                        font-size="14"
                        font-weight="300"
                        fill="black"
                        x="0"
                        y="15"
                    >Service Interface</tspan>
        </text>
      </g>
      <g id="Line_54">
        <path
                    d="M 319.33628 29.03016 C 324.8903 35.352807 333.4087 39.505876 336 48 C 337.82504 53.982385 336.7108 62.12061 335.7625 70.13659"
                    marker-end="url(#FilledArrow_Marker)"
                    stroke="black"
                    stroke-linecap="round"
                    stroke-linejoin="round"
                    stroke-width="1"
                />
      </g>
      <g id="Group_56">
        <g id="Graphic_58">
          <rect x="-7105427e-21" y="48" width="81.6" height="24" fill="white" />
          <rect
                        x="-7105427e-21"
                        y="48"
                        width="81.6"
                        height="24"
                        stroke="black"
                        stroke-linecap="round"
                        stroke-linejoin="round"
                        stroke-width="1"
                    />
          <text transform="translate(5 50.5)" fill="black">
            <tspan
                            font-family="Noto Sans Display"
                            font-size="14"
                            font-weight="300"
                            fill="black"
                            x="3.3901086"
                            y="15"
                        >Application</tspan>
          </text>
        </g>
        <g id="Graphic_57">
          <rect x="-7105427e-21" y="72" width="81.6" height="40" fill="#e5e5e5" />
          <rect
                        x="-7105427e-21"
                        y="72"
                        width="81.6"
                        height="40"
                        stroke="black"
                        stroke-linecap="round"
                        stroke-linejoin="round"
                        stroke-width="1"
                    />
          <text transform="translate(5 73)" fill="black">
            <tspan
                            font-family="Noto Sans Display"
                            font-size="14"
                            font-weight="300"
                            fill="black"
                            x="7.029671"
                            y="15"
                        >Container</tspan>
            <tspan
                            font-family="Noto Sans Display"
                            font-size="14"
                            font-weight="300"
                            fill="black"
                            x="8.25128"
                            y="34"
                        >(Browser)</tspan>
          </text>
        </g>
      </g>
      <g id="Line_59">
        <line
                    x1="201.6"
                    y1="32"
                    x2="95.5"
                    y2="32"
                    marker-end="url(#FilledArrow_Marker_2)"
                    stroke="black"
                    stroke-linecap="round"
                    stroke-linejoin="round"
                    stroke-width="1"
                />
      </g>
      <g id="Line_60">
        <line
                    x1="187.7"
                    y1="143"
                    x2="97.1"
                    y2="143"
                    marker-end="url(#FilledArrow_Marker_2)"
                    marker-start="url(#FilledArrow_Marker_3)"
                    stroke="black"
                    stroke-linecap="round"
                    stroke-linejoin="round"
                    stroke-width="1"
                />
      </g>
      <g id="Line_61">
        <line
                    x1="346.10278"
                    y1="136.27784"
                    x2="336.3825"
                    y2="136.47216"
                    marker-end="url(#FilledArrow_Marker_2)"
                    marker-start="url(#FilledArrow_Marker_3)"
                    stroke="black"
                    stroke-linecap="round"
                    stroke-linejoin="round"
                    stroke-width="1"
                />
      </g>
      <g id="Graphic_62">
        <text transform="translate(230.6 117)" fill="black">
          <tspan
                        font-family="Noto Sans Display"
                        font-size="14"
                        font-weight="300"
                        fill="black"
                        x="8100187e-19"
                        y="15"
                    >(mediation)</tspan>
        </text>
      </g>
      <g id="Graphic_63">
        <text transform="translate(301 149)" fill="black">
          <tspan
                        font-family="Noto Sans Display"
                        font-size="14"
                        font-weight="300"
                        fill="black"
                        x="0"
                        y="15"
                    >Data Exchange</tspan>
        </text>
      </g>
      <g id="Graphic_64">
        <text transform="translate(98.21813 149)" fill="black">
          <tspan
                        font-family="Noto Sans Display"
                        font-size="14"
                        font-weight="300"
                        fill="black"
                        x="0"
                        y="15"
                    >Data Exchange</tspan>
        </text>
      </g>
      <g id="Graphic_65">
        <text transform="translate(46.600003 5)" fill="black">
          <tspan
                        font-family="Noto Sans Display"
                        font-size="14"
                        font-weight="300"
                        fill="black"
                        x="0"
                        y="15"
                    >Application Download, Presentation Flow</tspan>
        </text>
      </g>
    </g>
  </g>
</svg>
