<?xml version="1.0" encoding="UTF-8" standalone="no"?>
<!DOCTYPE svg PUBLIC "-//W3C//DTD SVG 1.1//EN" "http://www.w3.org/Graphics/SVG/1.1/DTD/svg11.dtd">
<svg xmlns:xl="http://www.w3.org/1999/xlink" version="1.1" xmlns:dc="http://purl.org/dc/elements/1.1/" xmlns="http://www.w3.org/2000/svg" viewBox="62 45 481 168" width="481" height="168">
  <style>
    @import url('/LectureDoc2/ext/fonts/ld-fonts.css'); 
  </style>
  <defs>
    <marker orient="auto" overflow="visible" markerUnits="strokeWidth" id="StickArrow_Marker" stroke-linejoin="miter" stroke-miterlimit="10" viewBox="-1 -3 7 6" markerWidth="7" markerHeight="6" color="black">
      <g>
        <path d="M 4.8 0 L 0 0 M 0 -1.8 L 4.8 0 L 0 1.8" fill="none" stroke="currentColor" stroke-width="1"/>
      </g>
    </marker>
    <filter id="Shadow" filterUnits="userSpaceOnUse" x="13.9" y="28.2">
      <feGaussianBlur in="SourceAlpha" result="blur" stdDeviation="1.308"/>
      <feOffset in="blur" result="offset" dx="0" dy="2"/>
      <feFlood flood-color="black" flood-opacity=".5" result="flood"/>
      <feComposite in="flood" in2="offset" operator="in" result="color"/>
      <feMerge>
        <feMergeNode in="color"/>
        <feMergeNode in="SourceGraphic"/>
      </feMerge>
    </filter>
    <radialGradient cx="0" cy="0" r="1" id="Gradient" gradientUnits="userSpaceOnUse">
      <stop offset="0" stop-color="white"/>
      <stop offset="1" stop-color="#e3e3e3"/>
    </radialGradient>
    <radialGradient id="Obj_Gradient" xl:href="#Gradient" gradientTransform="translate(284.9322 117.23988) scale(90.85328)"/>
    <radialGradient id="Obj_Gradient_2" xl:href="#Gradient" gradientTransform="translate(337.96347 117.23986) scale(45.25484)"/>
  </defs>
  <metadata> Produced by OmniGraffle 8.0\n2025-04-28 09:46:45 +0000</metadata>
  <g id="pub-sub-coupling" fill="none" stroke="none" stroke-dasharray="none" stroke-opacity="1" fill-opacity="1">
    <title>pub-sub-coupling</title>
    <g id="pub-sub-coupling_Layer_1">
      <title>Layer 1</title>
      <g id="Line_122">
        <line x1="270.46158" y1="149.2399" x2="256.53592" y2="207.80142" stroke="#b4b4b4" stroke-linecap="round" stroke-linejoin="round" stroke-width="1"/>
      </g>
      <g id="Line_121">
        <line x1="300.6171" y1="149.2399" x2="318.46692" y2="207.0922" stroke="#b4b4b4" stroke-linecap="round" stroke-linejoin="round" stroke-width="1"/>
      </g>
      <g id="Graphic_119">
        <rect x="461.65343" y="63.09231" width="80" height="40" fill="#feae00"/>
        <rect x="461.65343" y="63.09231" width="80" height="40" stroke="white" stroke-linecap="round" stroke-linejoin="round" stroke-width="1"/>
        <text transform="translate(466.65343 73.59231)" fill="black">
          <tspan font-family="Noto Sans Display" font-size="14" font-weight="400" fill="black" x="9.485" y="15" xml:space="preserve">Zahlung</tspan>
        </text>
      </g>
      <g id="Graphic_120">
        <rect x="462.38474" y="159.2352" width="80" height="40" fill="#60d936"/>
        <rect x="462.38474" y="159.2352" width="80" height="40" stroke="white" stroke-linecap="round" stroke-linejoin="round" stroke-width="1"/>
        <text transform="translate(467.38474 160.2352)" fill="black">
          <tspan font-family="Noto Sans Display" font-size="14" font-weight="400" fill="black" x="1.995" y="15" xml:space="preserve">Inventarisi</tspan>
          <tspan font-family="Noto Sans Display" font-size="14" font-weight="400" fill="black" x="16.317" y="34" xml:space="preserve">erung</tspan>
        </text>
      </g>
      <g id="Line_62">
        <line x1="270.46158" y1="149.2399" x2="256.53592" y2="162.41135" stroke="#b4b4b4" stroke-linecap="round" stroke-linejoin="round" stroke-width="1"/>
      </g>
      <g id="Graphic_64">
        <rect x="72.27283" y="88.1378" width="80" height="40" fill="#ec220e"/>
        <rect x="72.27283" y="88.1378" width="80" height="40" stroke="white" stroke-linecap="round" stroke-linejoin="round" stroke-width="1"/>
      </g>
      <g id="Graphic_67">
        <rect x="63.27283" y="98.0902" width="80" height="40" fill="#ec220e"/>
        <rect x="63.27283" y="98.0902" width="80" height="40" stroke="white" stroke-linecap="round" stroke-linejoin="round" stroke-width="1"/>
        <text transform="translate(68.27283 108.5902)" fill="white">
          <tspan font-family="Noto Sans Display" font-size="14" font-weight="400" fill="white" x="11.893" y="15" xml:space="preserve">Einkauf</tspan>
        </text>
      </g>
      <g id="Line_71">
        <path d="M 369.9635 117.23986 L 438.79377 117.23986 L 438.79377 187.7352 L 441.75343 187.7352" marker-end="url(#StickArrow_Marker)" stroke="black" stroke-linecap="round" stroke-linejoin="round" stroke-width="2"/>
      </g>
      <g id="Graphic_72">
        <text transform="translate(371.4913 97.78748)" fill="black">
          <tspan font-family="Noto Sans Display" font-size="14" font-weight="400" fill="black" x="0" y="15" xml:space="preserve">empfängt</tspan>
        </text>
      </g>
      <g id="Line_111">
        <line x1="143.27283" y1="117.90297" x2="187.00354" y2="117.69827" marker-end="url(#StickArrow_Marker)" stroke="black" stroke-linecap="round" stroke-linejoin="round" stroke-width="2"/>
      </g>
      <g id="Line_75" filter="url(#Shadow)">
        <line x1="164.2178" y1="47.239857" x2="164.2178" y2="207.0922" stroke="#797979" stroke-linecap="round" stroke-linejoin="round" stroke-dasharray="4.0,4.0" stroke-width="1"/>
      </g>
      <g id="Line_76" filter="url(#Shadow)">
        <line x1="389.7481" y1="47.239857" x2="389.7481" y2="207.0922" stroke="#797979" stroke-linecap="round" stroke-linejoin="round" stroke-dasharray="4.0,4.0" stroke-width="1"/>
      </g>
      <g id="Graphic_77">
        <text transform="translate(238.97963 47.239857)" fill="black">
          <tspan font-family="Noto Sans Display" font-size="14" font-style="italic" font-weight="400" fill="black" x="13.503" y="15" xml:space="preserve">Thema</tspan>
          <tspan font-family="Noto Sans Display" font-size="14" font-style="italic" font-weight="400" fill="black" x="781597e-19" y="34" xml:space="preserve">(eng. Topic)</tspan>
        </text>
      </g>
      <g id="Graphic_78">
        <text transform="translate(99.50476 47.239857)" fill="black">
          <tspan font-family="Noto Sans Display" font-size="14" font-style="italic" font-weight="400" fill="black" x="38014036e-20" y="15" xml:space="preserve">Publisher</tspan>
        </text>
      </g>
      <g id="Graphic_79">
        <text transform="translate(394.86308 47.239857)" fill="black">
          <tspan font-family="Noto Sans Display" font-size="14" font-style="italic" font-weight="400" fill="black" x="0" y="15" xml:space="preserve">Subscriber</tspan>
        </text>
      </g>
      <g id="Graphic_80">
        <text transform="translate(153.43687 97.46037)" fill="black">
          <tspan font-family="Noto Sans Display" font-size="14" font-weight="400" fill="black" x="0" y="15" xml:space="preserve">sendet</tspan>
        </text>
      </g>
      <g id="Graphic_81">
        <path d="M 318.46692 176.0507 C 318.46692 171.78785 317.6804 171.26045 311.93506 167.0417 L 311.87437 166.99805 C 306.09868 162.7352 306.0386 162.7352 300.1112 162.7352 C 292.2187 162.7352 256.53592 162.7352 256.53592 162.7352 L 256.53592 207.7352 L 318.46692 207.7352 L 318.46692 176.0507 Z" fill="#e2e2e2"/>
        <path d="M 318.46692 176.0507 C 318.46692 171.78785 317.6804 171.26045 311.93506 167.0417 L 311.87437 166.99805 C 306.09868 162.7352 306.0386 162.7352 300.1112 162.7352 C 292.2187 162.7352 256.53592 162.7352 256.53592 162.7352 L 256.53592 207.7352 L 318.46692 207.7352 L 318.46692 176.0507 Z M 318.46692 175.8311 C 318.46692 171.78785 318.40623 171.78785 306.0386 171.78785 L 306.0386 171.78785 C 306.0386 162.7793 306.0386 162.7352 300.4741 162.7352" stroke="#797979" stroke-linecap="round" stroke-linejoin="round" stroke-width="1"/>
        <text transform="translate(261.53592 162.7352)" fill="black">
          <tspan font-family="Noto Sans Display" font-size="11" font-weight="400" fill="black" x="0" y="12" xml:space="preserve">{</tspan>
          <tspan font-family="Noto Sans Display" font-size="11" font-weight="400" fill="black" x="0" y="27" xml:space="preserve">  “Id”: 1234</tspan>
          <tspan font-family="Noto Sans Display" font-size="11" font-weight="400" fill="black" x="0" y="42" xml:space="preserve">}</tspan>
        </text>
      </g>
      <g id="Line_92">
        <line x1="300.6171" y1="149.2399" x2="318.46692" y2="173.04965" stroke="#b4b4b4" stroke-linecap="round" stroke-linejoin="round" stroke-width="1"/>
      </g>
      <g id="Line_95">
        <path d="M 369.9635 117.23986 L 438.97497 117.23986 L 438.97497 92.05326 L 441.75343 92.05326" marker-end="url(#StickArrow_Marker)" stroke="black" stroke-linecap="round" stroke-linejoin="round" stroke-width="2"/>
      </g>
      <g id="Group_112">
        <g id="Graphic_116">
          <path d="M 235.40095 85.43068 C 226.08807 84.41189 216.41352 87.47249 209.27356 94.61248 C 196.77673 107.10925 196.77673 127.3705 209.27356 139.86728 C 216.41352 147.00727 226.08807 150.06787 235.40096 149.04908 L 235.40096 149.23989 L 335.40096 149.23989 L 335.40096 149.13777 C 344.422 149.85814 353.6902 146.76797 360.59085 139.86728 C 373.0877 127.37051 373.0877 107.10926 360.59085 94.61249 C 353.6902 87.7118 344.422 84.62163 335.40095 85.342 L 335.40096 85.23987 L 235.40096 85.23987 Z" fill="url(#Obj_Gradient)"/>
          <path d="M 235.40095 85.43068 C 226.08807 84.41189 216.41352 87.47249 209.27356 94.61248 C 196.77673 107.10925 196.77673 127.3705 209.27356 139.86728 C 216.41352 147.00727 226.08807 150.06787 235.40096 149.04908 L 235.40096 149.23989 L 335.40096 149.23989 L 335.40096 149.13777 C 344.422 149.85814 353.6902 146.76797 360.59085 139.86728 C 373.0877 127.37051 373.0877 107.10926 360.59085 94.61249 C 353.6902 87.7118 344.422 84.62163 335.40095 85.342 L 335.40096 85.23987 L 235.40096 85.23987 Z" stroke="#b4b4b4" stroke-linecap="round" stroke-linejoin="round" stroke-width="1"/>
        </g>
        <g id="Graphic_115">
          <circle cx="337.96347" cy="117.23986" r="32.000055070367" fill="url(#Obj_Gradient_2)"/>
          <circle cx="337.96347" cy="117.23986" r="32.000055070367" stroke="#b4b4b4" stroke-linecap="round" stroke-linejoin="round" stroke-width="1"/>
        </g>
        <g id="Line_114">
          <path d="M 304.9613 85.23986 C 302.52524 85.23986 272.5892 86.48986 272.5892 117.23986 C 272.5892 147.98986 302.02524 149.20081 303.83586 149.20081" stroke="#b4b4b4" stroke-linecap="round" stroke-linejoin="round" stroke-width="1"/>
        </g>
        <g id="Line_113">
          <path d="M 271.587 85.27895 C 269.15096 85.27895 239.2149 86.52895 239.2149 117.27895 C 239.2149 148.02895 268.65096 149.2399 270.46158 149.2399" stroke="#b4b4b4" stroke-linecap="round" stroke-linejoin="round" stroke-width="1"/>
        </g>
      </g>
      <g id="Graphic_117">
        <rect x="454.65343" y="167.7352" width="80" height="40" fill="#60d936"/>
        <rect x="454.65343" y="167.7352" width="80" height="40" stroke="white" stroke-linecap="round" stroke-linejoin="round" stroke-width="1"/>
        <text transform="translate(459.65343 178.2352)" fill="black">
          <tspan font-family="Noto Sans Display" font-size="14" font-weight="400" fill="black" x="8.603" y="15" xml:space="preserve">Inventar</tspan>
        </text>
      </g>
      <g id="Graphic_118">
        <rect x="454.65343" y="72.05326" width="80" height="40" fill="#feae00"/>
        <rect x="454.65343" y="72.05326" width="80" height="40" stroke="white" stroke-linecap="round" stroke-linejoin="round" stroke-width="1"/>
        <text transform="translate(459.65343 82.55326)" fill="black">
          <tspan font-family="Noto Sans Display" font-size="14" font-weight="400" fill="black" x="9.485" y="15" xml:space="preserve">Zahlung</tspan>
        </text>
      </g>
      <g id="Graphic_123">
        <text transform="translate(243.41092 108.73988)" fill="black">
          <tspan font-family="Noto Sans Display" font-size="14" font-weight="400" fill="black" x="24868996e-20" y="15" xml:space="preserve">KaufErfolgt</tspan>
        </text>
      </g>
    </g>
  </g>
</svg>
