<?xml version="1.0" encoding="UTF-8" standalone="no" ?>
<!DOCTYPE svg PUBLIC "-//W3C//DTD SVG 1.1//EN"
    "http://www.w3.org/Graphics/SVG/1.1/DTD/svg11.dtd">
<svg
    xmlns="http://www.w3.org/2000/svg"
    version="1.1"
    xmlns:xl="http://www.w3.org/1999/xlink"
    xmlns:dc="http://purl.org/dc/elements/1.1/"
    viewBox="-1 5 883 350"
    width="1135"
    height="450"
>
<style>
  @import url('/LectureDoc2/ext/fonts/ld-fonts.css');
</style>
<defs>
    <filter id="Shadow" filterUnits="userSpaceOnUse" x="-89.3" y="-40.5">
      <feGaussianBlur in="SourceAlpha" result="blur" stdDeviation="1.308" />
      <feOffset in="blur" result="offset" dx="1" dy="2" />
      <feFlood flood-color="black" flood-opacity=".5" result="flood" />
      <feComposite in="flood" in2="offset" operator="in" result="color" />
      <feMerge>
        <feMergeNode in="color" />
        <feMergeNode in="SourceGraphic" />
      </feMerge>
    </filter>
    <marker
            orient="auto"
            overflow="visible"
            markerUnits="strokeWidth"
            id="FilledArrow_Marker"
            stroke-linejoin="miter"
            stroke-miterlimit="10"
            viewBox="-1 -3 6 6"
            markerWidth="6"
            markerHeight="6"
            color="black"
        >
      <g>
        <path
                    d="M 3.7333333 0 L 0 -1.4 L 0 1.4 Z"
                    fill="currentColor"
                    stroke="currentColor"
                    stroke-width="1"
                />
      </g>
    </marker>
    <marker
            orient="auto"
            overflow="visible"
            markerUnits="strokeWidth"
            id="StickArrow_Marker"
            stroke-linejoin="miter"
            stroke-miterlimit="10"
            viewBox="-1 -3 7 6"
            markerWidth="7"
            markerHeight="6"
            color="#797979"
        >
      <g>
        <path
                    d="M 4.8 0 L 0 0 M 0 -1.8 L 4.8 0 L 0 1.8"
                    fill="none"
                    stroke="currentColor"
                    stroke-width="1"
                />
      </g>
    </marker>
    <marker
            orient="auto"
            overflow="visible"
            markerUnits="strokeWidth"
            id="StickArrow_Marker_2"
            stroke-linejoin="miter"
            stroke-miterlimit="10"
            viewBox="-6 -3 7 6"
            markerWidth="7"
            markerHeight="6"
            color="#797979"
        >
      <g>
        <path
                    d="M -4.8 0 L 0 0 M 0 1.8 L -4.8 0 L 0 -1.8"
                    fill="none"
                    stroke="currentColor"
                    stroke-width="1"
                />
      </g>
    </marker>
  </defs>
  <g
        id="blockchiffre"
        stroke-dasharray="none"
        stroke="none"
        stroke-opacity="1"
        fill="none"
        fill-opacity="1"
        font-family="Noto Sans Display"
        font-size="28"
        font-weight="400"
    >
    <title>blockchiffre</title>
    <g id="blockchiffre_Layer_1">
      <g id="Graphic_71">
        <path
                    d="M 276.5 130.22571 L 411.03125 130.22571 C 419.3155 130.22571 426.03125 136.94144 426.03125 145.2257 L 426.03125 202.2257 C 426.03125 210.50998 419.3155 217.2257 411.03125 217.2257 L 276.5 217.2257 C 268.21573 217.2257 261.5 210.50998 261.5 202.2257 L 261.5 145.2257 C 261.5 136.94144 268.21573 130.22571 276.5 130.22571 Z"
                    fill="#b4c9ef"
                />
        <clipPath id="clip_path">
          <path
                        d="M 15 0 L 149.53125 0 C 157.81552 0 164.53125 6.715729 164.53125 15 L 164.53125 72 C 164.53125 80.28427 157.81552 87 149.53125 87 L 15 87 C 6.715729 87 0 80.28427 0 72 L 0 15 C 0 6.715729 6.715729 0 15 0 Z"
                        fill="#b4c9ef"
                    />
        </clipPath>
        <text
                    clip-path="url(#clip_path)"
                    transform="translate(266.5 135.7257)"
                    fill="#344463"
                >
          <tspan x="13.635625" y="30">Verschl端s-</tspan>
          <tspan x="6.761625" y="68">selungsalg.</tspan>
        </text>
      </g>
      <g id="Graphic_17" filter="url(#Shadow)">
        <path
                    d="M 708.5 260.2257 L 873.0312 260.2257 L 873.0312 302.89237 C 823.6719 297.55904 757.8594 318.89237 708.5 308.2257 Z"
                    fill="white"
                />
        <path
                    d="M 708.5 260.2257 L 873.0312 260.2257 L 873.0312 302.89237 C 823.6719 297.55904 757.8594 318.89237 708.5 308.2257 Z"
                    stroke="#b4b4b4"
                    stroke-linecap="round"
                    stroke-linejoin="round"
                    stroke-width="1"
                />
        <text transform="translate(713.5 265.2257)" fill="black">
          <tspan x="28.881625" y="30">Klartext</tspan>
        </text>
      </g>
      <g id="Graphic_33" filter="url(#Shadow)">
        <path
                    d="M 261.5 260.2257 L 426.03125 260.2257 L 426.03125 302.89237 C 376.67188 297.55904 310.85938 318.89237 261.5 308.2257 Z"
                    fill="white"
                />
        <path
                    d="M 261.5 260.2257 L 426.03125 260.2257 L 426.03125 302.89237 C 376.67188 297.55904 310.85938 318.89237 261.5 308.2257 Z"
                    stroke="#b4b4b4"
                    stroke-linecap="round"
                    stroke-linejoin="round"
                    stroke-width="1"
                />
        <text transform="translate(266.5 265.2257)" fill="black">
          <tspan x="4.969625" y="30">Geheimtext</tspan>
        </text>
      </g>
      <g id="Line_65">
        <line
                    x1="343.76562"
                    y1="90.55904"
                    x2="343.76562"
                    y2="114.32571"
                    marker-end="url(#FilledArrow_Marker)"
                    stroke="black"
                    stroke-linecap="round"
                    stroke-linejoin="round"
                    stroke-width="3"
                />
      </g>
      <g id="Line_66">
        <line
                    x1="343.76562"
                    y1="217.2257"
                    x2="343.76562"
                    y2="244.3257"
                    marker-end="url(#FilledArrow_Marker)"
                    stroke="black"
                    stroke-linecap="round"
                    stroke-linejoin="round"
                    stroke-width="3"
                />
      </g>
      <g id="Line_67">
        <path
                    d="M 426.03125 286.89237 L 438.0393 286.89237 L 473.6559 286.55914 L 473.6607 69.693654 L 685.59195 69.892375 L 692.6 69.892375"
                    marker-end="url(#FilledArrow_Marker)"
                    stroke="black"
                    stroke-linecap="round"
                    stroke-linejoin="round"
                    stroke-width="3"
                />
      </g>
      <g id="Line_68">
        <line
                    x1="790.7656"
                    y1="217.2257"
                    x2="790.7656"
                    y2="244.3257"
                    marker-end="url(#FilledArrow_Marker)"
                    stroke="black"
                    stroke-linecap="round"
                    stroke-linejoin="round"
                    stroke-width="3"
                />
      </g>
      <g id="Graphic_74">
        <text transform="translate(60 156.5)" fill="black">
          <tspan x="7.357625" y="30">Schl端ssel(</tspan>
          <tspan font-style="italic" y="30">K</tspan>
          <tspan y="30">)</tspan>
        </text>
      </g>
      <g id="Graphic_75">
        <text transform="translate(497.5 156.5)" fill="black">
          <tspan x="7.357625" y="30">Schl端ssel(</tspan>
          <tspan font-style="italic" y="30">K</tspan>
          <tspan y="30">)</tspan>
        </text>
      </g>
      <g id="Line_76">
        <line
                    x1="224.53125"
                    y1="174.76275"
                    x2="245.6006"
                    y2="174.5795"
                    marker-end="url(#FilledArrow_Marker)"
                    stroke="black"
                    stroke-linecap="round"
                    stroke-linejoin="round"
                    stroke-width="3"
                />
      </g>
      <g id="Line_77">
        <line
                    x1="662.03125"
                    y1="174.79556"
                    x2="692.60055"
                    y2="174.5415"
                    marker-end="url(#FilledArrow_Marker)"
                    stroke="black"
                    stroke-linecap="round"
                    stroke-linejoin="round"
                    stroke-width="3"
                />
      </g>
      <g id="Graphic_78" filter="url(#Shadow)">
        <path
                    d="M 261.5 43.22571 L 426.03125 43.22571 L 426.03125 85.89237 C 376.67188 80.55904 310.85938 101.89237 261.5 91.22571 Z"
                    fill="white"
                />
        <path
                    d="M 261.5 43.22571 L 426.03125 43.22571 L 426.03125 85.89237 C 376.67188 80.55904 310.85938 101.89237 261.5 91.22571 Z"
                    stroke="#b4b4b4"
                    stroke-linecap="round"
                    stroke-linejoin="round"
                    stroke-width="1"
                />
        <text transform="translate(266.5 48.22571)" fill="black">
          <tspan x="28.881625" y="30">Klartext</tspan>
        </text>
      </g>
      <g id="Graphic_79" filter="url(#Shadow)">
        <path
                    d="M 708.5 43.22571 L 873.0312 43.22571 L 873.0312 85.89237 C 823.6719 80.55904 757.8594 101.89237 708.5 91.22571 Z"
                    fill="white"
                />
        <path
                    d="M 708.5 43.22571 L 873.0312 43.22571 L 873.0312 85.89237 C 823.6719 80.55904 757.8594 101.89237 708.5 91.22571 Z"
                    stroke="#b4b4b4"
                    stroke-linecap="round"
                    stroke-linejoin="round"
                    stroke-width="1"
                />
        <text transform="translate(713.5 48.22571)" fill="black">
          <tspan x="4.969625" y="30">Geheimtext</tspan>
        </text>
      </g>
      <g id="Graphic_83">
        <path
                    d="M 723.5 130.22571 L 858.0312 130.22571 C 866.3155 130.22571 873.0312 136.94144 873.0312 145.2257 L 873.0312 202.2257 C 873.0312 210.50998 866.3155 217.2257 858.0312 217.2257 L 723.5 217.2257 C 715.2157 217.2257 708.5 210.50998 708.5 202.2257 L 708.5 145.2257 C 708.5 136.94144 715.2157 130.22571 723.5 130.22571 Z"
                    fill="#b4c9ef"
                />
        <clipPath id="clip_path_2">
          <path
                        d="M 15 0 L 149.53125 0 C 157.81552 0 164.53125 6.715729 164.53125 15 L 164.53125 72 C 164.53125 80.28427 157.81552 87 149.53125 87 L 15 87 C 6.715729 87 0 80.28427 0 72 L 0 15 C 0 6.715729 6.715729 0 15 0 Z"
                        fill="#b4c9ef"
                    />
        </clipPath>
        <text
                    clip-path="url(#clip_path_2)"
                    transform="translate(713.5 135.7257)"
                    fill="#344463"
                >
          <tspan x="13.915625" y="30">Entschl端s-</tspan>
          <tspan x="6.761625" y="68">selungsalg. </tspan>
        </text>
      </g>
      <g id="Line_84">
        <line
                    x1="790.7656"
                    y1="90.55904"
                    x2="790.7656"
                    y2="114.32571"
                    marker-end="url(#FilledArrow_Marker)"
                    stroke="black"
                    stroke-linecap="round"
                    stroke-linejoin="round"
                    stroke-width="3"
                />
      </g>
      <g id="Graphic_85">
        <text transform="translate(298.5 319.2257)" fill="#797979">
          <tspan x="17.148125" y="25">b bits</tspan>
        </text>
      </g>
      <g id="Line_86">
        <line
                    x1="274.4"
                    y1="318.2257"
                    x2="413.13125"
                    y2="318.2257"
                    marker-end="url(#StickArrow_Marker)"
                    marker-start="url(#StickArrow_Marker_2)"
                    stroke="#797979"
                    stroke-linecap="round"
                    stroke-linejoin="round"
                    stroke-width="2"
                />
      </g>
      <g id="Graphic_87">
        <text transform="translate(745.5 319.2257)" fill="#797979">
          <tspan x="17.148125" y="25">b bits</tspan>
        </text>
      </g>
      <g id="Line_88">
        <line
                    x1="721.4"
                    y1="318.2257"
                    x2="860.1312"
                    y2="318.2257"
                    marker-end="url(#StickArrow_Marker)"
                    marker-start="url(#StickArrow_Marker_2)"
                    stroke="#797979"
                    stroke-linecap="round"
                    stroke-linejoin="round"
                    stroke-width="2"
                />
      </g>
      <g id="Graphic_89">
        <text transform="translate(745.5 5)" fill="#797979">
          <tspan x="17.148125" y="25">b bits</tspan>
        </text>
      </g>
      <g id="Line_90">
        <line
                    x1="721.4"
                    y1="35.22571"
                    x2="860.1312"
                    y2="35.22571"
                    marker-end="url(#StickArrow_Marker)"
                    marker-start="url(#StickArrow_Marker_2)"
                    stroke="#797979"
                    stroke-linecap="round"
                    stroke-linejoin="round"
                    stroke-width="2"
                />
      </g>
      <g id="Graphic_91">
        <text transform="translate(298.5 5)" fill="#797979">
          <tspan x="17.148125" y="25">b bits</tspan>
        </text>
      </g>
      <g id="Line_92">
        <line
                    x1="274.4"
                    y1="37"
                    x2="413.13125"
                    y2="37"
                    marker-end="url(#StickArrow_Marker)"
                    marker-start="url(#StickArrow_Marker_2)"
                    stroke="#797979"
                    stroke-linecap="round"
                    stroke-linejoin="round"
                    stroke-width="2"
                />
      </g>
      <g id="Graphic_93">
        <text transform="translate(8 285.2257) rotate(-90)" fill="black">
          <tspan x="36.28" y="30">Blockchiffre</tspan>
        </text>
      </g>
      <g id="Line_94">
        <line
                    x1="49"
                    y1="17"
                    x2="49"
                    y2="340"
                    stroke="#797979"
                    stroke-linecap="round"
                    stroke-linejoin="round"
                    stroke-width="2"
                />
      </g>
    </g>
  </g>
</svg>
