<?xml version="1.0" encoding="UTF-8" standalone="no" ?>
<!DOCTYPE svg PUBLIC "-//W3C//DTD SVG 1.1//EN"
    "http://www.w3.org/Graphics/SVG/1.1/DTD/svg11.dtd">
<svg
    xmlns:xl="http://www.w3.org/1999/xlink"
    version="1.1"
    xmlns:dc="http://purl.org/dc/elements/1.1/"
    xmlns="http://www.w3.org/2000/svg"
    viewBox="5 19 744 428"
    width="517.3"
    height="286.3"
>
<style>
  @import url('/LectureDoc2/ext/fonts/ld-fonts.css');
</style>
  <metadata> Produced by OmniGraffle 8.0\n2025-04-28 11:37:48 +0000</metadata>
  <g
        id="hexagonal-architecture"
        fill="none"
        stroke="none"
        stroke-dasharray="none"
        stroke-opacity="1"
        fill-opacity="1"
    >
    <title>hexagonal-architecture</title>
    <g id="hexagonal-architecture_Layer_2">
      <title>Layer 2</title>
      <g id="Graphic_44">
        <path
                    d="M 152.4119 75.8462 L 159.0881 64.28269 L 328.47075 162.0758 L 330.88265 157.89827 L 342.57034 177.92522 L 319.38265 177.81685 L 321.79455 173.63932 Z"
                    fill="#c18d88"
                    fill-opacity=".530264"
                />
      </g>
      <g id="Graphic_43">
        <path
                    d="M 162.39887 421.5323 L 156.1303 409.74284 L 328.8227 317.92066 L 326.55806 313.6615 L 349.7354 314.36243 L 337.3559 333.9693 L 335.09127 329.71012 Z"
                    fill="#c18d88"
                    fill-opacity=".530264"
                />
      </g>
      <g id="Graphic_42">
        <path
                    d="M 425.7905 284.14684 L 432.05904 272.35738 L 604.75144 364.17956 L 607.0161 359.9204 L 619.3956 379.52725 L 596.2182 380.2282 L 598.4829 375.969 Z"
                    fill="#c18d88"
                    fill-opacity=".530264"
                />
      </g>
      <g id="Graphic_41">
        <path
                    d="M 437.26454 195.74083 L 430.99597 183.95137 L 603.6884 92.1292 L 601.4237 87.87003 L 624.6011 88.57097 L 612.2216 108.17782 L 609.9569 103.91866 Z"
                    fill="#c18d88"
                    fill-opacity=".530264"
                />
      </g>
      <g id="Graphic_40">
        <path
                    d="M 625 320.40076 L 625 307.04837 L 720.1591 307.04837 L 720.1591 302.22457 L 740.2944 313.72457 L 720.1591 325.22457 L 720.1591 320.40076 Z"
                    fill="#c18d88"
                    fill-opacity=".530264"
                />
        <text transform="translate(630 305.22457)" fill="black">
          <tspan
                        font-family="Noto Sans Display"
                        font-size="12"
                        font-weight="400"
                        fill="black"
                        x="19.32321"
                        y="13"
                        xml:space="preserve"
                    >Control Flow</tspan>
        </text>
      </g>
    </g>
  </g>
</svg>
