<?xml version="1.0" encoding="UTF-8" standalone="no" ?>
<!DOCTYPE svg PUBLIC "-//W3C//DTD SVG 1.1//EN"
    "http://www.w3.org/Graphics/SVG/1.1/DTD/svg11.dtd">
<svg
    version="1.1"
    xmlns="http://www.w3.org/2000/svg"
    xmlns:xl="http://www.w3.org/1999/xlink"
    xmlns:dc="http://purl.org/dc/elements/1.1/"
    viewBox="-488 980 1244 555"
    width="1244"
    height="555"
>
<style>
  @import url('/LectureDoc2/ext/fonts/ld-fonts.css');
</style>
<defs>
    <marker
            orient="auto"
            overflow="visible"
            markerUnits="strokeWidth"
            id="FilledArrow_Marker"
            stroke-linejoin="miter"
            stroke-miterlimit="10"
            viewBox="-1 -3 6 6"
            markerWidth="6"
            markerHeight="6"
            color="black"
        >
      <g>
        <path
                    d="M 3.7333333 0 L 0 -1.4 L 0 1.4 Z"
                    fill="currentColor"
                    stroke="currentColor"
                    stroke-width="1"
                />
      </g>
    </marker>
  </defs>
  <metadata> Produced by OmniGraffle 8.0\n2025-05-21 07:03:28 +0000</metadata>
  <g
        id="sepass_conceptual_overview"
        stroke-opacity="1"
        fill="none"
        stroke-dasharray="none"
        stroke="none"
        fill-opacity="1"
    >
    <title>sepass_conceptual_overview</title>
    <rect fill="white" x="-488" y="980" width="1244" height="555" />
    <g id="sepass_conceptual_overview_Layer_1">
      <title>Layer 1</title>
      <g id="Graphic_3">
        <path
                    d="M -475.19265 1137 L -148.19265 1137 C -141.56523 1137 -136.19265 1142.3726 -136.19265 1149 L -136.19265 1174 C -136.19265 1180.6274 -141.56523 1186 -148.19265 1186 L -475.19265 1186 C -481.82007 1186 -487.19265 1180.6274 -487.19265 1174 L -487.19265 1149 C -487.19265 1142.3726 -481.82007 1137 -475.19265 1137 Z"
                    fill="#ffffc0"
                />
        <path
                    d="M -475.19265 1137 L -148.19265 1137 C -141.56523 1137 -136.19265 1142.3726 -136.19265 1149 L -136.19265 1174 C -136.19265 1180.6274 -141.56523 1186 -148.19265 1186 L -475.19265 1186 C -481.82007 1186 -487.19265 1180.6274 -487.19265 1174 L -487.19265 1149 C -487.19265 1142.3726 -481.82007 1137 -475.19265 1137 Z"
                    stroke="gray"
                    stroke-linecap="round"
                    stroke-linejoin="round"
                    stroke-width="1"
                />
        <text transform="translate(-482.19265 1143.5)" fill="black">
          <tspan
                        font-family="Noto Sans Display"
                        font-size="26"
                        font-weight="400"
                        fill="black"
                        x="13.694"
                        y="28"
                        xml:space="preserve"
                    >Password@Mannheim2023</tspan>
        </text>
      </g>
      <g id="Graphic_4">
        <path
                    d="M -138 1207 L 88 1207 C 94.62742 1207 100 1212.3726 100 1219 L 100 1305 C 100 1311.6274 94.62742 1317 88 1317 L -138 1317 C -144.62742 1317 -150 1311.6274 -150 1305 L -150 1219 C -150 1212.3726 -144.62742 1207 -138 1207 Z"
                    fill="#eaeaea"
                />
        <path
                    d="M -138 1207 L 88 1207 C 94.62742 1207 100 1212.3726 100 1219 L 100 1305 C 100 1311.6274 94.62742 1317 88 1317 L -138 1317 C -144.62742 1317 -150 1311.6274 -150 1305 L -150 1219 C -150 1212.3726 -144.62742 1207 -138 1207 Z"
                    stroke="gray"
                    stroke-linecap="round"
                    stroke-linejoin="round"
                    stroke-width="1"
                />
        <text transform="translate(-145 1226)" fill="black">
          <tspan
                        font-family="Noto Sans Display"
                        font-size="26"
                        font-weight="700"
                        fill="black"
                        x="60.746"
                        y="28"
                        xml:space="preserve"
                    >Password</tspan>
          <tspan
                        font-family="Noto Sans Display"
                        font-size="26"
                        font-weight="400"
                        fill="black"
                        x="57.613"
                        y="64"
                        xml:space="preserve"
                    >Mannheim</tspan>
        </text>
      </g>
      <g id="Graphic_5">
        <path
                    d="M -138 1424 L 88 1424 C 94.62742 1424 100 1429.3726 100 1436 L 100 1522 C 100 1528.6274 94.62742 1534 88 1534 L -138 1534 C -144.62742 1534 -150 1528.6274 -150 1522 L -150 1436 C -150 1429.3726 -144.62742 1424 -138 1424 Z"
                    fill="#eaeaea"
                />
        <path
                    d="M -138 1424 L 88 1424 C 94.62742 1424 100 1429.3726 100 1436 L 100 1522 C 100 1528.6274 94.62742 1534 88 1534 L -138 1534 C -144.62742 1534 -150 1528.6274 -150 1522 L -150 1436 C -150 1429.3726 -144.62742 1424 -138 1424 Z"
                    stroke="gray"
                    stroke-linecap="round"
                    stroke-linejoin="round"
                    stroke-width="1"
                />
        <text transform="translate(-145 1443)" fill="black">
          <tspan
                        font-family="Noto Sans Display"
                        font-size="26"
                        font-weight="700"
                        fill="black"
                        x="60.746"
                        y="28"
                        xml:space="preserve"
                    >Password</tspan>
          <tspan
                        font-family="Noto Sans Display"
                        font-size="26"
                        font-weight="400"
                        fill="black"
                        x="18.704"
                        y="64"
                        xml:space="preserve"
                    >@Mannheim2023</tspan>
        </text>
      </g>
      <g id="Graphic_6">
        <path
                    d="M 243.86144 1207 L 469.86144 1207 C 476.48885 1207 481.86144 1212.3726 481.86144 1219 L 481.86144 1305 C 481.86144 1311.6274 476.48885 1317 469.86144 1317 L 243.86144 1317 C 237.23402 1317 231.86144 1311.6274 231.86144 1305 L 231.86144 1219 C 231.86144 1212.3726 237.23402 1207 243.86144 1207 Z"
                    fill="#eaeaea"
                />
        <path
                    d="M 243.86144 1207 L 469.86144 1207 C 476.48885 1207 481.86144 1212.3726 481.86144 1219 L 481.86144 1305 C 481.86144 1311.6274 476.48885 1317 469.86144 1317 L 243.86144 1317 C 237.23402 1317 231.86144 1311.6274 231.86144 1305 L 231.86144 1219 C 231.86144 1212.3726 237.23402 1207 243.86144 1207 Z"
                    stroke="gray"
                    stroke-linecap="round"
                    stroke-linejoin="round"
                    stroke-width="1"
                />
        <text transform="translate(236.86144 1226)" fill="black">
          <tspan
                        font-family="Noto Sans Display"
                        font-size="26"
                        font-weight="700"
                        fill="black"
                        x="97.406"
                        y="28"
                        xml:space="preserve"
                    >Key</tspan>
          <tspan
                        font-family="Noto Sans Display"
                        font-size="26"
                        font-weight="400"
                        fill="black"
                        x="38.945"
                        y="64"
                        xml:space="preserve"
                    >Ludwigshafen</tspan>
        </text>
      </g>
      <g id="Graphic_7">
        <path
                    d="M 243.86144 1419 L 469.86144 1419 C 476.48885 1419 481.86144 1424.3726 481.86144 1431 L 481.86144 1517 C 481.86144 1523.6274 476.48885 1529 469.86144 1529 L 243.86144 1529 C 237.23402 1529 231.86144 1523.6274 231.86144 1517 L 231.86144 1431 C 231.86144 1424.3726 237.23402 1419 243.86144 1419 Z"
                    fill="#eaeaea"
                />
        <path
                    d="M 243.86144 1419 L 469.86144 1419 C 476.48885 1419 481.86144 1424.3726 481.86144 1431 L 481.86144 1517 C 481.86144 1523.6274 476.48885 1529 469.86144 1529 L 243.86144 1529 C 237.23402 1529 231.86144 1523.6274 231.86144 1517 L 231.86144 1431 C 231.86144 1424.3726 237.23402 1419 243.86144 1419 Z"
                    stroke="gray"
                    stroke-linecap="round"
                    stroke-linejoin="round"
                    stroke-width="1"
                />
        <text transform="translate(236.86144 1438)" fill="black">
          <tspan
                        font-family="Noto Sans Display"
                        font-size="26"
                        font-weight="700"
                        fill="black"
                        x="116.49"
                        y="28"
                        xml:space="preserve"
                    >:</tspan>
          <tspan
                        font-family="Noto Sans Display"
                        font-size="26"
                        font-weight="400"
                        fill="black"
                        x="43.001"
                        y="64"
                        xml:space="preserve"
                    >^@ $2$0$2$3</tspan>
        </text>
      </g>
      <g id="Graphic_8">
        <path
                    d="M 541.86144 1056.521 L 743 1056.521 C 749.6274 1056.521 755 1061.8935 755 1068.521 L 755 1219.521 C 755 1226.1484 749.6274 1231.521 743 1231.521 L 541.86144 1231.521 C 535.234 1231.521 529.86144 1226.1484 529.86144 1219.521 L 529.86144 1068.521 C 529.86144 1061.8935 535.234 1056.521 541.86144 1056.521 Z"
                    fill="#c0ffff"
                />
        <path
                    d="M 541.86144 1056.521 L 743 1056.521 C 749.6274 1056.521 755 1061.8935 755 1068.521 L 755 1219.521 C 755 1226.1484 749.6274 1231.521 743 1231.521 L 541.86144 1231.521 C 535.234 1231.521 529.86144 1226.1484 529.86144 1219.521 L 529.86144 1068.521 C 529.86144 1061.8935 535.234 1056.521 541.86144 1056.521 Z"
                    stroke="gray"
                    stroke-linecap="round"
                    stroke-linejoin="round"
                    stroke-width="1"
                />
        <text transform="translate(534.86144 1054.021)" fill="black">
          <tspan
                        font-family="Noto Sans Display"
                        font-size="26"
                        font-weight="400"
                        fill="black"
                        x="87.00328"
                        y="28"
                        xml:space="preserve"
                    >Key</tspan>
          <tspan
                        font-family="Noto Sans Display"
                        font-size="26"
                        font-weight="400"
                        fill="black"
                        x="26.514283"
                        y="64"
                        xml:space="preserve"
                    >Ludwigshafen</tspan>
          <tspan
                        font-family="Noto Sans Display"
                        font-size="26"
                        font-weight="400"
                        fill="black"
                        x="48.09428"
                        y="100"
                        xml:space="preserve"
                    >@Key2023</tspan>
          <tspan
                        font-family="Noto Sans Display"
                        font-size="26"
                        font-weight="400"
                        fill="black"
                        x="6.2732825"
                        y="136"
                        xml:space="preserve"
                    >@Mannheim2023</tspan>
          <tspan
                        font-family="Noto Sans Display"
                        font-size="26"
                        font-weight="400"
                        fill="black"
                        x="97.28628"
                        y="172"
                        xml:space="preserve"
                    >…</tspan>
        </text>
      </g>
      <g id="Line_9">
        <path
                    d="M -295.28003 1186 C -279.53033 1205.008 -251.1218 1230.7892 -204.51658 1247.1266 C -191.8363 1251.5717 -178.73986 1254.9913 -165.66628 1257.5974"
                    marker-end="url(#FilledArrow_Marker)"
                    stroke="black"
                    stroke-linecap="round"
                    stroke-linejoin="round"
                    stroke-width="3"
                />
      </g>
      <g id="Line_10">
        <path
                    d="M -322.26684 1186 C -338.87807 1229.9981 -363.3679 1324.0292 -303.06122 1390.8163 C -269.56694 1427.9098 -216.4107 1449.4064 -165.50502 1461.8617"
                    marker-end="url(#FilledArrow_Marker)"
                    stroke="black"
                    stroke-linecap="round"
                    stroke-linejoin="round"
                    stroke-width="3"
                />
      </g>
      <g id="Line_11">
        <line
                    x1="100"
                    y1="1262"
                    x2="215.96144"
                    y2="1262"
                    marker-end="url(#FilledArrow_Marker)"
                    stroke="black"
                    stroke-linecap="round"
                    stroke-linejoin="round"
                    stroke-width="3"
                />
      </g>
      <g id="Line_12">
        <line
                    x1="100"
                    y1="1477.3633"
                    x2="215.9628"
                    y2="1475.8449"
                    marker-end="url(#FilledArrow_Marker)"
                    stroke="black"
                    stroke-linecap="round"
                    stroke-linejoin="round"
                    stroke-width="3"
                />
      </g>
      <g id="Line_13">
        <path
                    d="M 481.86144 1276.3598 C 509.0764 1275.5545 536.9075 1271.4874 560.989 1261.5385 C 573.8702 1256.2168 584.7141 1249.6106 593.84295 1242.264"
                    marker-end="url(#FilledArrow_Marker)"
                    stroke="black"
                    stroke-linecap="round"
                    stroke-linejoin="round"
                    stroke-width="3"
                />
      </g>
      <g id="Line_14">
        <path
                    d="M 481.86144 1477.62 C 521.20976 1470.7717 562.3188 1454.2875 592.85714 1419 C 633.0801 1372.5219 645.5611 1304.2894 647.943 1247.4225"
                    marker-end="url(#FilledArrow_Marker)"
                    stroke="black"
                    stroke-linecap="round"
                    stroke-linejoin="round"
                    stroke-width="3"
                />
      </g>
      <g id="Graphic_15">
        <text transform="translate(-470.1364 1096)" fill="black">
          <tspan
                        font-family="Noto Sans Display"
                        font-size="26"
                        font-style="italic"
                        font-weight="400"
                        fill="black"
                        x="45474735e-20"
                        y="28"
                        xml:space="preserve"
                    >Real Password</tspan>
        </text>
      </g>
      <g id="Graphic_16">
        <text transform="translate(539.6246 985.3604)" fill="black">
          <tspan
                        font-family="Noto Sans Display"
                        font-size="26"
                        font-style="italic"
                        font-weight="400"
                        fill="black"
                        x="4.576"
                        y="28"
                        xml:space="preserve"
                    >Generated</tspan>
          <tspan
                        font-family="Noto Sans Display"
                        font-size="26"
                        font-style="italic"
                        font-weight="400"
                        fill="black"
                        x="0"
                        y="64"
                        xml:space="preserve"
                    >Candidates</tspan>
        </text>
      </g>
      <g id="Graphic_17">
        <text transform="translate(-242.0864 1184.3245)" fill="black">
          <tspan
                        font-family="Noto Sans Display"
                        font-size="26"
                        font-weight="400"
                        fill="black"
                        x="0"
                        y="28"
                        xml:space="preserve"
                    >extract</tspan>
        </text>
      </g>
      <g id="Graphic_18">
        <text transform="translate(-296.4004 1466.4411)" fill="black">
          <tspan
                        font-family="Noto Sans Display"
                        font-size="26"
                        font-weight="400"
                        fill="black"
                        x="73896445e-20"
                        y="28"
                        xml:space="preserve"
                    >decompose</tspan>
        </text>
      </g>
      <g id="Graphic_19">
        <text transform="translate(124.22046 1442.3037)" fill="black">
          <tspan
                        font-family="Noto Sans Display"
                        font-size="26"
                        font-weight="400"
                        fill="black"
                        x="0"
                        y="28"
                        xml:space="preserve"
                    >extract</tspan>
        </text>
      </g>
      <g id="Graphic_20">
        <text transform="translate(104.73346 1226)" fill="black">
          <tspan
                        font-family="Noto Sans Display"
                        font-size="26"
                        font-weight="400"
                        fill="black"
                        x="6.942"
                        y="28"
                        xml:space="preserve"
                    >semantic</tspan>
          <tspan
                        font-family="Noto Sans Display"
                        font-size="26"
                        font-weight="400"
                        fill="black"
                        x="66080474e-20"
                        y="64"
                        xml:space="preserve"
                    >expansion</tspan>
        </text>
      </g>
      <g id="Graphic_21">
        <text transform="translate(501.93657 1337.7112)" fill="black">
          <tspan
                        font-family="Noto Sans Display"
                        font-size="26"
                        font-weight="400"
                        fill="black"
                        x="42632564e-20"
                        y="28"
                        xml:space="preserve"
                    >combine</tspan>
        </text>
      </g>
    </g>
  </g>
</svg>
