<?xml version="1.0" encoding="UTF-8" standalone="no" ?>
<!DOCTYPE svg PUBLIC "-//W3C//DTD SVG 1.1//EN"
    "http://www.w3.org/Graphics/SVG/1.1/DTD/svg11.dtd">
<svg
    xmlns:dc="http://purl.org/dc/elements/1.1/"
    xmlns:xl="http://www.w3.org/1999/xlink"
    version="1.1"
    xmlns="http://www.w3.org/2000/svg"
    viewBox="56 611 492 250"
    width="1476"
    height="750"
>
  <style>
    @import url('/LectureDoc2/ext/fonts/ld-fonts.css');
  </style>
  <defs>
    <marker
            orient="auto"
            overflow="visible"
            markerUnits="strokeWidth"
            id="FilledArrow_Marker"
            stroke-linejoin="miter"
            stroke-miterlimit="10"
            viewBox="-1 -3 7 6"
            markerWidth="7"
            markerHeight="6"
            color="black"
        >
      <g>
        <path
                    d="M 4.8 0 L 0 -1.8 L 0 1.8 Z"
                    fill="currentColor"
                    stroke="currentColor"
                    stroke-width="1"
                />
      </g>
    </marker>
    <marker
            orient="auto"
            overflow="visible"
            markerUnits="strokeWidth"
            id="FilledArrow_Marker_2"
            stroke-linejoin="miter"
            stroke-miterlimit="10"
            viewBox="-1 -4 10 8"
            markerWidth="10"
            markerHeight="8"
            color="#424242"
        >
      <g>
        <path
                    d="M 8 0 L 0 -3 L 0 3 Z"
                    fill="currentColor"
                    stroke="currentColor"
                    stroke-width="1"
                />
      </g>
    </marker>
  </defs>
  <metadata> Produced by OmniGraffle 8.0\n2025-04-09 19:04:40 +0000</metadata>
  <g
        id="java-thread-states"
        stroke="none"
        stroke-opacity="1"
        fill="none"
        stroke-dasharray="none"
        fill-opacity="1"
    >
    <title>java-thread-states</title>
    <g id="java-thread-states_Layer_1">
      <title>Layer 1</title>
      <g id="Graphic_2">
        <path
                    d="M 244 611.90115 L 360 611.90115 C 362.20914 611.90115 364 613.692 364 615.90115 L 364 635.90115 C 364 638.1103 362.20914 639.90115 360 639.90115 L 244 639.90115 C 241.79086 639.90115 240 638.1103 240 635.90115 L 240 615.90115 C 240 613.692 241.79086 611.90115 244 611.90115 Z"
                    fill="#f26077"
                />
        <text transform="translate(245 616.40115)" fill="white">
          <tspan
                        font-family="Noto Sans Display"
                        font-size="14"
                        font-weight="400"
                        fill="white"
                        x="4.472"
                        y="15"
                    >Nicht Existierend</tspan>
        </text>
      </g>
      <g id="Graphic_4">
        <path
                    d="M 244 664.2829 L 360 664.2829 C 362.20914 664.2829 364 666.0738 364 668.2829 L 364 688.2829 C 364 690.4921 362.20914 692.2829 360 692.2829 L 244 692.2829 C 241.79086 692.2829 240 690.4921 240 688.2829 L 240 668.2829 C 240 666.0738 241.79086 664.2829 244 664.2829 Z"
                    fill="#ff914d"
                />
        <path
                    d="M 244 664.2829 L 360 664.2829 C 362.20914 664.2829 364 666.0738 364 668.2829 L 364 688.2829 C 364 690.4921 362.20914 692.2829 360 692.2829 L 244 692.2829 C 241.79086 692.2829 240 690.4921 240 688.2829 L 240 668.2829 C 240 666.0738 241.79086 664.2829 244 664.2829 Z"
                    stroke="#b34400"
                    stroke-linecap="round"
                    stroke-linejoin="round"
                    stroke-width="1"
                />
        <text transform="translate(245 668.7829)" fill="white">
          <tspan
                        font-family="Noto Sans Display"
                        font-size="14"
                        font-weight="400"
                        fill="white"
                        x="44.162"
                        y="15"
                    >Neu</tspan>
        </text>
      </g>
      <g id="Graphic_5">
        <path
                    d="M 244 719.5082 L 360 719.5082 C 362.20914 719.5082 364 721.299 364 723.5082 L 364 743.5082 C 364 745.7173 362.20914 747.5082 360 747.5082 L 244 747.5082 C 241.79086 747.5082 240 745.7173 240 743.5082 L 240 723.5082 C 240 721.299 241.79086 719.5082 244 719.5082 Z"
                    fill="#49a54d"
                />
        <path
                    d="M 244 719.5082 L 360 719.5082 C 362.20914 719.5082 364 721.299 364 723.5082 L 364 743.5082 C 364 745.7173 362.20914 747.5082 360 747.5082 L 244 747.5082 C 241.79086 747.5082 240 745.7173 240 743.5082 L 240 723.5082 C 240 721.299 241.79086 719.5082 244 719.5082 Z"
                    stroke="#235e00"
                    stroke-linecap="round"
                    stroke-linejoin="round"
                    stroke-width="1"
                />
        <text transform="translate(245 724.0082)" fill="white">
          <tspan
                        font-family="Noto Sans Display"
                        font-size="14"
                        font-weight="400"
                        fill="white"
                        x="21.832"
                        y="15"
                    >Ausführbar</tspan>
        </text>
      </g>
      <g id="Graphic_33">
        <path
                    d="M 244.125 769.3532 L 360.125 769.3532 C 362.33414 769.3532 364.125 771.1441 364.125 773.3532 L 364.125 793.3532 C 364.125 795.5624 362.33414 797.3532 360.125 797.3532 L 244.125 797.3532 C 241.91586 797.3532 240.125 795.5624 240.125 793.3532 L 240.125 773.3532 C 240.125 771.1441 241.91586 769.3532 244.125 769.3532 Z"
                    fill="#68bc36"
                />
        <path
                    d="M 244.125 769.3532 L 360.125 769.3532 C 362.33414 769.3532 364.125 771.1441 364.125 773.3532 L 364.125 793.3532 C 364.125 795.5624 362.33414 797.3532 360.125 797.3532 L 244.125 797.3532 C 241.91586 797.3532 240.125 795.5624 240.125 793.3532 L 240.125 773.3532 C 240.125 771.1441 241.91586 769.3532 244.125 769.3532 Z"
                    stroke="#235e00"
                    stroke-linecap="round"
                    stroke-linejoin="round"
                    stroke-width="1"
                />
        <text transform="translate(245.125 773.8532)" fill="white">
          <tspan
                        font-family="Noto Sans Display"
                        font-size="14"
                        font-weight="400"
                        fill="white"
                        x="21.118"
                        y="15"
                    >Ausführend</tspan>
        </text>
      </g>
      <g id="Graphic_6">
        <path
                    d="M 427.25 824 L 543.25 824 C 545.45914 824 547.25 825.7909 547.25 828 L 547.25 848 C 547.25 850.2091 545.45914 852 543.25 852 L 427.25 852 C 425.04086 852 423.25 850.2091 423.25 848 L 423.25 828 C 423.25 825.7909 425.04086 824 427.25 824 Z"
                    fill="black"
                />
        <path
                    d="M 427.25 824 L 543.25 824 C 545.45914 824 547.25 825.7909 547.25 828 L 547.25 848 C 547.25 850.2091 545.45914 852 543.25 852 L 427.25 852 C 425.04086 852 423.25 850.2091 423.25 848 L 423.25 828 C 423.25 825.7909 425.04086 824 427.25 824 Z"
                    stroke="black"
                    stroke-linecap="round"
                    stroke-linejoin="round"
                    stroke-width="1"
                />
        <text transform="translate(428.25 828.5)" fill="white">
          <tspan
                        font-family="Noto Sans Display"
                        font-size="14"
                        font-weight="400"
                        fill="white"
                        x="45.751"
                        y="15"
                    >Tod</tspan>
        </text>
      </g>
      <g id="Graphic_7">
        <path
                    d="M 61 824 L 177 824 C 179.20914 824 181 825.7909 181 828 L 181 848 C 181 850.2091 179.20914 852 177 852 L 61 852 C 58.79086 852 57 850.2091 57 848 L 57 828 C 57 825.7909 58.79086 824 61 824 Z"
                    fill="#a5a5a5"
                />
        <path
                    d="M 61 824 L 177 824 C 179.20914 824 181 825.7909 181 828 L 181 848 C 181 850.2091 179.20914 852 177 852 L 61 852 C 58.79086 852 57 850.2091 57 848 L 57 828 C 57 825.7909 58.79086 824 61 824 Z"
                    stroke="#666"
                    stroke-linecap="round"
                    stroke-linejoin="round"
                    stroke-width="1"
                />
        <text transform="translate(62 828.5)" fill="white">
          <tspan
                        font-family="Noto Sans Display"
                        font-size="14"
                        font-weight="400"
                        fill="white"
                        x="29.672"
                        y="15"
                    >Blockiert</tspan>
        </text>
      </g>
      <g id="Line_18">
        <line
                    x1="302"
                    y1="639.90115"
                    x2="302"
                    y2="651.3829"
                    marker-end="url(#FilledArrow_Marker)"
                    stroke="black"
                    stroke-linecap="round"
                    stroke-linejoin="round"
                    stroke-width="2"
                />
      </g>
      <g id="Line_19">
        <line
                    x1="302"
                    y1="692.2829"
                    x2="302"
                    y2="706.6082"
                    marker-end="url(#FilledArrow_Marker)"
                    stroke="black"
                    stroke-linecap="round"
                    stroke-linejoin="round"
                    stroke-width="2"
                />
      </g>
      <g id="Line_34">
        <line
                    x1="302.00286"
                    y1="748.0082"
                    x2="302.06835"
                    y2="759.4534"
                    marker-end="url(#FilledArrow_Marker_2)"
                    stroke="#424242"
                    stroke-linecap="round"
                    stroke-linejoin="round"
                    stroke-dasharray="4.0,4.0"
                    stroke-width="1"
                />
      </g>
      <g id="Line_20">
        <line
                    x1="240.125"
                    y1="783.3532"
                    x2="171.82785"
                    y2="818.1446"
                    marker-end="url(#FilledArrow_Marker)"
                    stroke="black"
                    stroke-linecap="round"
                    stroke-linejoin="round"
                    stroke-width="2"
                />
      </g>
      <g id="Line_21">
        <line
                    x1="77.66667"
                    y1="824"
                    x2="228.59577"
                    y2="744.2042"
                    marker-end="url(#FilledArrow_Marker)"
                    stroke="black"
                    stroke-linecap="round"
                    stroke-linejoin="round"
                    stroke-width="2"
                />
      </g>
      <g id="Line_23">
        <line
                    x1="364"
                    y1="783.6364"
                    x2="432.402"
                    y2="818.1843"
                    marker-end="url(#FilledArrow_Marker)"
                    stroke="black"
                    stroke-linecap="round"
                    stroke-linejoin="round"
                    stroke-width="2"
                />
      </g>
      <g id="Line_24">
        <path
                    d="M 526.58333 824 L 526.58333 616.9697 L 376.89996 616.5997"
                    marker-end="url(#FilledArrow_Marker)"
                    stroke="black"
                    stroke-linecap="round"
                    stroke-linejoin="round"
                    stroke-width="2"
                />
      </g>
      <g id="Graphic_27">
        <text transform="translate(203.2397 640.2829)" fill="black">
          <tspan
                        font-family="Noto Sans Display"
                        font-size="14"
                        font-weight="400"
                        fill="black"
                        x="0"
                        y="15"
                    >new Thread(…)</tspan>
        </text>
      </g>
      <g id="Graphic_28">
        <text transform="translate(258.3017 695.5082)" fill="black">
          <tspan
                        font-family="Noto Sans Display"
                        font-size="14"
                        font-weight="400"
                        fill="black"
                        x="9947598e-20"
                        y="15"
                    >start()</tspan>
        </text>
      </g>
      <g id="Graphic_29">
        <text transform="translate(345.25784 750.3592) rotate(28)" fill="black">
          <tspan
                        font-family="Noto Sans Display"
                        font-size="14"
                        font-weight="400"
                        fill="black"
                        x="33.24025"
                        y="15"
                    >run Methode</tspan>
          <tspan
                        font-family="Noto Sans Display"
                        font-size="14"
                        font-weight="400"
                        fill="black"
                        x="55.83625"
                        y="34"
                    >endet</tspan>
        </text>
      </g>
      <g id="Graphic_30">
        <text transform="translate(183.00973 792.1196) rotate(-28)" fill="black">
          <tspan
                        font-family="Noto Sans Display"
                        font-size="14"
                        font-weight="400"
                        fill="black"
                        x="7105427e-20"
                        y="15"
                    >wait()</tspan>
          <tspan
                        font-family="Noto Sans Display"
                        font-size="14"
                        font-weight="400"
                        fill="black"
                        x="1.533"
                        y="34"
                    >join()</tspan>
        </text>
      </g>
      <g id="Graphic_31">
        <text transform="translate(100.45495 789.6518) rotate(-28)" fill="black">
          <tspan
                        font-family="Noto Sans Display"
                        font-size="14"
                        font-weight="400"
                        fill="black"
                        x="2344791e-19"
                        y="15"
                    >notify(), notifyAll()</tspan>
        </text>
      </g>
      <g id="Graphic_32">
        <text transform="translate(377.01847 624.09375)" fill="black">
          <tspan
                        font-family="Noto Sans Display"
                        font-size="14"
                        font-weight="400"
                        fill="black"
                        x="11.687248"
                        y="15"
                    >„Garbage Collected“</tspan>
        </text>
      </g>
    </g>
  </g>
</svg>
