<?xml version="1.0" encoding="UTF-8" standalone="no"?>
<!DOCTYPE svg PUBLIC "-//W3C//DTD SVG 1.1//EN" "http://www.w3.org/Graphics/SVG/1.1/DTD/svg11.dtd">
<svg xmlns="http://www.w3.org/2000/svg" xmlns:xl="http://www.w3.org/1999/xlink" version="1.1" xmlns:dc="http://purl.org/dc/elements/1.1/" viewBox="56 611 492 242" width="492" height="242">
  <style>
    @import url('/LectureDoc2/ext/fonts/ld-fonts.css'); 
  </style>
  <defs>
    <marker orient="auto" overflow="visible" markerUnits="strokeWidth" id="FilledArrow_Marker" stroke-linejoin="miter" stroke-miterlimit="10" viewBox="-1 -3 7 6" markerWidth="7" markerHeight="6" color="black">
      <g>
        <path d="M 4.8 0 L 0 -1.8 L 0 1.8 Z" fill="currentColor" stroke="currentColor" stroke-width="1"/>
      </g>
    </marker>
  </defs>
  <metadata> Produced by OmniGraffle 8.0\n2025-02-13 08:03:33 +0000</metadata>
  <g id="java-thread-states" stroke-opacity="1" stroke="none" stroke-dasharray="none" fill="none" fill-opacity="1">
    <title>java-thread-states</title>
    <g id="java-thread-states_Layer_1">
      <title>Layer 1</title>
      <g id="Graphic_2">
        <path d="M 244 611.90115 L 360 611.90115 C 362.20914 611.90115 364 613.692 364 615.90115 L 364 635.90115 C 364 638.1103 362.20914 639.90115 360 639.90115 L 244 639.90115 C 241.79086 639.90115 240 638.1103 240 635.90115 L 240 615.90115 C 240 613.692 241.79086 611.90115 244 611.90115 Z" fill="#f26077"/>
        <text transform="translate(245 616.40115)" fill="white">
          <tspan font-family="Noto Sans Display" font-size="14" font-weight="400" fill="white" x="20.537" y="15" xml:space="preserve">not existing</tspan>
        </text>
      </g>
      <g id="Graphic_4">
        <path d="M 244 679.2244 L 360 679.2244 C 362.20914 679.2244 364 681.0152 364 683.2244 L 364 703.2244 C 364 705.4335 362.20914 707.2244 360 707.2244 L 244 707.2244 C 241.79086 707.2244 240 705.4335 240 703.2244 L 240 683.2244 C 240 681.0152 241.79086 679.2244 244 679.2244 Z" fill="#ff914d"/>
        <path d="M 244 679.2244 L 360 679.2244 C 362.20914 679.2244 364 681.0152 364 683.2244 L 364 703.2244 C 364 705.4335 362.20914 707.2244 360 707.2244 L 244 707.2244 C 241.79086 707.2244 240 705.4335 240 703.2244 L 240 683.2244 C 240 681.0152 241.79086 679.2244 244 679.2244 Z" stroke="#b34400" stroke-linecap="round" stroke-linejoin="round" stroke-width="1"/>
        <text transform="translate(245 683.7244)" fill="white">
          <tspan font-family="Noto Sans Display" font-size="14" font-weight="400" fill="white" x="44.12" y="15" xml:space="preserve">new</tspan>
        </text>
      </g>
      <g id="Graphic_5">
        <path d="M 244 746.5476 L 360 746.5476 C 362.20914 746.5476 364 748.3385 364 750.5476 L 364 770.5476 C 364 772.7567 362.20914 774.5476 360 774.5476 L 244 774.5476 C 241.79086 774.5476 240 772.7567 240 770.5476 L 240 750.5476 C 240 748.3385 241.79086 746.5476 244 746.5476 Z" fill="#68bc36"/>
        <path d="M 244 746.5476 L 360 746.5476 C 362.20914 746.5476 364 748.3385 364 750.5476 L 364 770.5476 C 364 772.7567 362.20914 774.5476 360 774.5476 L 244 774.5476 C 241.79086 774.5476 240 772.7567 240 770.5476 L 240 750.5476 C 240 748.3385 241.79086 746.5476 244 746.5476 Z" stroke="#235e00" stroke-linecap="round" stroke-linejoin="round" stroke-width="1"/>
        <text transform="translate(245 751.0476)" fill="white">
          <tspan font-family="Noto Sans Display" font-size="14" font-weight="400" fill="white" x="23.428" y="15" xml:space="preserve">executable</tspan>
        </text>
      </g>
      <g id="Graphic_6">
        <path d="M 427.25 824 L 543.25 824 C 545.45914 824 547.25 825.7909 547.25 828 L 547.25 848 C 547.25 850.2091 545.45914 852 543.25 852 L 427.25 852 C 425.04086 852 423.25 850.2091 423.25 848 L 423.25 828 C 423.25 825.7909 425.04086 824 427.25 824 Z" fill="black"/>
        <path d="M 427.25 824 L 543.25 824 C 545.45914 824 547.25 825.7909 547.25 828 L 547.25 848 C 547.25 850.2091 545.45914 852 543.25 852 L 427.25 852 C 425.04086 852 423.25 850.2091 423.25 848 L 423.25 828 C 423.25 825.7909 425.04086 824 427.25 824 Z" stroke="black" stroke-linecap="round" stroke-linejoin="round" stroke-width="1"/>
        <text transform="translate(428.25 828.5)" fill="white">
          <tspan font-family="Noto Sans Display" font-size="14" font-weight="400" fill="white" x="41.453" y="15" xml:space="preserve">dead</tspan>
        </text>
      </g>
      <g id="Graphic_7">
        <path d="M 61 824 L 177 824 C 179.20914 824 181 825.7909 181 828 L 181 848 C 181 850.2091 179.20914 852 177 852 L 61 852 C 58.79086 852 57 850.2091 57 848 L 57 828 C 57 825.7909 58.79086 824 61 824 Z" fill="#a5a5a5"/>
        <path d="M 61 824 L 177 824 C 179.20914 824 181 825.7909 181 828 L 181 848 C 181 850.2091 179.20914 852 177 852 L 61 852 C 58.79086 852 57 850.2091 57 848 L 57 828 C 57 825.7909 58.79086 824 61 824 Z" stroke="#666" stroke-linecap="round" stroke-linejoin="round" stroke-width="1"/>
        <text transform="translate(62 828.5)" fill="white">
          <tspan font-family="Noto Sans Display" font-size="14" font-weight="400" fill="white" x="32.731" y="15" xml:space="preserve">blocked</tspan>
        </text>
      </g>
      <g id="Line_18">
        <line x1="302" y1="639.90115" x2="302" y2="666.3244" marker-end="url(#FilledArrow_Marker)" stroke="black" stroke-linecap="round" stroke-linejoin="round" stroke-width="2"/>
      </g>
      <g id="Line_19">
        <line x1="302" y1="707.7244" x2="302" y2="733.6476" marker-end="url(#FilledArrow_Marker)" stroke="black" stroke-linecap="round" stroke-linejoin="round" stroke-width="2"/>
      </g>
      <g id="Line_20">
        <line x1="281.33333" y1="774.5476" x2="192.35366" y2="822.5426" marker-end="url(#FilledArrow_Marker)" stroke="black" stroke-linecap="round" stroke-linejoin="round" stroke-width="2"/>
      </g>
      <g id="Line_21">
        <line x1="119" y1="824" x2="228.57555" y2="766.5386" marker-end="url(#FilledArrow_Marker)" stroke="black" stroke-linecap="round" stroke-linejoin="round" stroke-width="2"/>
      </g>
      <g id="Line_23">
        <line x1="364" y1="760.5476" x2="473.82047" y2="818.0187" marker-end="url(#FilledArrow_Marker)" stroke="black" stroke-linecap="round" stroke-linejoin="round" stroke-width="2"/>
      </g>
      <g id="Line_24">
        <path d="M 526.58333 824 L 526.36364 624.8485 L 376.89973 625.8175" marker-end="url(#FilledArrow_Marker)" stroke="black" stroke-linecap="round" stroke-linejoin="round" stroke-width="2"/>
      </g>
      <g id="Graphic_27">
        <text transform="translate(203.2397 650.06276)" fill="black">
          <tspan font-family="Noto Sans Display" font-size="14" font-weight="400" fill="black" x="0" y="15" xml:space="preserve">new Thread(…)</tspan>
        </text>
      </g>
      <g id="Graphic_28">
        <text transform="translate(258.3017 717.386)" fill="black">
          <tspan font-family="Noto Sans Display" font-size="14" font-weight="400" fill="black" x="9947598e-20" y="15" xml:space="preserve">start()</tspan>
        </text>
      </g>
      <g id="Graphic_29">
        <text transform="translate(372.4212 739.2459) rotate(29)" fill="black">
          <tspan font-family="Noto Sans Display" font-size="14" font-weight="400" fill="black" x="20.045248" y="15" xml:space="preserve">run method ends</tspan>
        </text>
      </g>
      <g id="Graphic_30">
        <text transform="translate(212.92464 810.7196) rotate(-28)" fill="black">
          <tspan font-family="Noto Sans Display" font-size="14" font-weight="400" fill="black" x="0" y="15" xml:space="preserve">wait(), join()</tspan>
        </text>
      </g>
      <g id="Graphic_31">
        <text transform="translate(117.63061 793.1054) rotate(-28)" fill="black">
          <tspan font-family="Noto Sans Display" font-size="14" font-weight="400" fill="black" x="2344791e-19" y="15" xml:space="preserve">notify(), notifyAll()</tspan>
        </text>
      </g>
      <g id="Graphic_32">
        <text transform="translate(377.01847 624.09375)" fill="black">
          <tspan font-family="Noto Sans Display" font-size="14" font-weight="400" fill="black" x="11.687248" y="15" xml:space="preserve">„Garbage Collected“</tspan>
        </text>
      </g>
    </g>
  </g>
</svg>
