<?xml version="1.0" encoding="UTF-8" standalone="no" ?>
<!DOCTYPE svg PUBLIC "-//W3C//DTD SVG 1.1//EN"
    "http://www.w3.org/Graphics/SVG/1.1/DTD/svg11.dtd">
<svg
    xmlns="http://www.w3.org/2000/svg"
    xmlns:xl="http://www.w3.org/1999/xlink"
    xmlns:dc="http://purl.org/dc/elements/1.1/"
    version="1.1"
    viewBox="174 295 564 316"
    width="1692"
    height="948"
>
  <defs>
  <style>
    @import url('/LectureDoc2/ext/fonts/ld-fonts.css');
  </style>
    <marker
            orient="auto"
            overflow="visible"
            markerUnits="strokeWidth"
            id="FilledArrow_Marker"
            stroke-linejoin="miter"
            stroke-miterlimit="10"
            viewBox="-1 -4 10 8"
            markerWidth="10"
            markerHeight="8"
            color="black"
        >
      <g>
        <path
                    d="M 8 0 L 0 -3 L 0 3 Z"
                    fill="currentColor"
                    stroke="currentColor"
                    stroke-width="1"
                />
      </g>
    </marker>
    <marker
            orient="auto"
            overflow="visible"
            markerUnits="strokeWidth"
            id="FilledArrow_Marker_2"
            stroke-linejoin="miter"
            stroke-miterlimit="10"
            viewBox="-9 -4 10 8"
            markerWidth="10"
            markerHeight="8"
            color="black"
        >
      <g>
        <path
                    d="M -8 0 L 0 3 L 0 -3 Z"
                    fill="currentColor"
                    stroke="currentColor"
                    stroke-width="1"
                />
      </g>
    </marker>
  </defs>
  <metadata> Produced by OmniGraffle 8.0\n2025-03-05 11:49:21 +0000</metadata>
  <g
        id="Canvas_1"
        fill-opacity="1"
        stroke-opacity="1"
        stroke="none"
        stroke-dasharray="none"
        fill="none"
    >
    <title>Canvas 1</title>
    <rect fill="white" x="174" y="295" width="564" height="316" />
    <g id="Canvas_1_Layer_1">
      <title>Layer 1</title>
      <g id="Graphic_104">
        <path
                    d="M 181.5 555.6201 L 730 555.6201 C 733.3137 555.6201 736 558.3064 736 561.6201 L 736 603.6201 C 736 606.9338 733.3137 609.6201 730 609.6201 L 181.5 609.6201 C 178.1863 609.6201 175.5 606.9338 175.5 603.6201 L 175.5 561.6201 C 175.5 558.3064 178.1863 555.6201 181.5 555.6201 Z"
                    fill="#dadada"
                />
        <path
                    d="M 181.5 555.6201 L 730 555.6201 C 733.3137 555.6201 736 558.3064 736 561.6201 L 736 603.6201 C 736 606.9338 733.3137 609.6201 730 609.6201 L 181.5 609.6201 C 178.1863 609.6201 175.5 606.9338 175.5 603.6201 L 175.5 561.6201 C 175.5 558.3064 178.1863 555.6201 181.5 555.6201 Z"
                    stroke="#a5a5a5"
                    stroke-linecap="round"
                    stroke-linejoin="round"
                    stroke-width="1"
                />
      </g>
      <g id="Graphic_101">
        <path
                    d="M 459.361 330.1022 C 436.096 330.1022 417.236 334.1316 417.236 339.1022 L 417.236 393.1022 C 417.236 398.0728 436.096 402.1022 459.361 402.1022 C 482.626 402.1022 501.486 398.0728 501.486 393.1022 L 501.486 339.1022 C 501.486 334.1316 482.626 330.1022 459.361 330.1022 Z M 417.236 339.1022 C 417.236 344.0728 436.096 348.1022 459.361 348.1022 C 482.626 348.1022 501.486 344.0728 501.486 339.1022"
                    stroke="black"
                    stroke-linecap="square"
                    stroke-linejoin="round"
                    stroke-width="1"
                />
      </g>
      <g id="Graphic_6">
        <path
                    d="M 534.958 301 L 730 301 C 733.3137 301 736 303.6863 736 307 L 736 533 C 736 536.3137 733.3137 539 730 539 L 534.958 539 C 531.6443 539 528.958 536.3137 528.958 533 L 528.958 307 C 528.958 303.6863 531.6443 301 534.958 301 Z"
                    fill="white"
                />
        <path
                    d="M 534.958 301 L 730 301 C 733.3137 301 736 303.6863 736 307 L 736 533 C 736 536.3137 733.3137 539 730 539 L 534.958 539 C 531.6443 539 528.958 536.3137 528.958 533 L 528.958 307 C 528.958 303.6863 531.6443 301 534.958 301 Z"
                    stroke="#a5a5a5"
                    stroke-linecap="square"
                    stroke-linejoin="miter"
                    stroke-width="2"
                />
      </g>
      <g id="Graphic_7">
        <text transform="translate(539.1522 488.1022)" fill="black">
          <tspan
                        font-family="Noto Sans Display"
                        font-size="14"
                        font-weight="700"
                        fill="black"
                        x="0"
                        y="15"
                    >Server </tspan>
          <tspan
                        font-family="Noto Sans Display"
                        font-size="14"
                        font-weight="700"
                        fill="black"
                        x="0"
                        y="34"
                    >Prozess</tspan>
        </text>
      </g>
      <g id="Graphic_8">
        <path
                    d="M 181.5 301 L 384 301 C 387.3137 301 390 303.6863 390 307 L 390 533 C 390 536.3137 387.3137 539 384 539 L 181.5 539 C 178.1863 539 175.5 536.3137 175.5 533 L 175.5 307 C 175.5 303.6863 178.1863 301 181.5 301 Z"
                    fill="white"
                />
        <path
                    d="M 181.5 301 L 384 301 C 387.3137 301 390 303.6863 390 307 L 390 533 C 390 536.3137 387.3137 539 384 539 L 181.5 539 C 178.1863 539 175.5 536.3137 175.5 533 L 175.5 307 C 175.5 303.6863 178.1863 301 181.5 301 Z"
                    stroke="#a5a5a5"
                    stroke-linecap="square"
                    stroke-linejoin="miter"
                    stroke-width="2"
                />
      </g>
      <g id="Graphic_9">
        <text transform="translate(324.779 488.1022)" fill="black">
          <tspan
                        font-family="Noto Sans Display"
                        font-size="14"
                        font-weight="700"
                        fill="black"
                        x="16.925999"
                        y="15"
                    >Client </tspan>
          <tspan
                        font-family="Noto Sans Display"
                        font-size="14"
                        font-weight="700"
                        fill="black"
                        x="6.131999"
                        y="34"
                    >Prozess</tspan>
        </text>
      </g>
      <g id="Group_111">
        <g id="Graphic_103">
          <rect
                        x="180.02246"
                        y="574.79335"
                        width="128"
                        height="29.946845"
                        fill="white"
                    />
        </g>
        <g id="Graphic_15">
          <rect
                        x="195.52596"
                        y="579.16616"
                        width="96.993"
                        height="21.073706"
                        fill="white"
                    />
          <text transform="translate(198.34746 580.203)" fill="#7e8080">
            <tspan
                            font-family="Noto Sans Display"
                            font-size="14"
                            font-weight="400"
                            fill="#7e8080"
                            x="0"
                            y="15"
                        >RPC Protokolle</tspan>
          </text>
        </g>
      </g>
      <g id="Group_110">
        <g id="Graphic_105">
          <rect x="320.59964" y="574.6201" width="128" height="29.946845" fill="white" />
        </g>
        <g id="Graphic_18">
          <rect
                        x="329.48164"
                        y="579.2299"
                        width="110.236"
                        height="21.073706"
                        fill="white"
                    />
          <text transform="translate(335.94964 580.2668)" fill="#7e8080">
            <tspan
                            font-family="Noto Sans Display"
                            font-size="14"
                            font-weight="400"
                            fill="#7e8080"
                            x="0"
                            y="15"
                        >Security Service</tspan>
          </text>
        </g>
      </g>
      <g id="Group_108">
        <g id="Graphic_106">
          <rect x="461.1768" y="574.79335" width="128" height="29.946845" fill="white" />
        </g>
        <g id="Graphic_21">
          <rect
                        x="518.55425"
                        y="586.8553"
                        width="12.400145"
                        height="10.536853"
                        fill="white"
                    />
          <text transform="translate(518.55425 582.6237)" fill="#7e8080">
            <tspan
                            font-family="Noto Sans Display"
                            font-size="14"
                            font-weight="400"
                            fill="#7e8080"
                            x="0"
                            y="15"
                        >...</tspan>
          </text>
        </g>
      </g>
      <g id="Group_109">
        <g id="Graphic_107">
          <rect x="601.754" y="574.79335" width="128" height="29.946845" fill="white" />
        </g>
        <g id="Graphic_26">
          <text transform="translate(619.106 580.2668)" fill="#7e8080">
            <tspan
                            font-family="Noto Sans Display"
                            font-size="14"
                            font-weight="400"
                            fill="#7e8080"
                            x="0"
                            y="15"
                        >Threads Dienst</tspan>
          </text>
        </g>
      </g>
      <g id="Graphic_30">
        <text transform="translate(437.5992 351.3011)" fill="black">
          <tspan
                        font-family="Noto Sans Display"
                        font-size="14"
                        font-weight="400"
                        fill="black"
                        x="0"
                        y="15"
                    >IDL</tspan>
          <tspan
                        font-family="Noto Sans Display"
                        font-size="14"
                        font-weight="400"
                        fill="black"
                        x="0"
                        y="34"
                    >Sources</tspan>
        </text>
      </g>
      <g id="Graphic_32">
        <path
                    d="M 462.007 474.1022 C 438.742 474.1022 419.882 478.1316 419.882 483.1022 L 419.882 537.1022 C 419.882 542.0728 438.742 546.1022 462.007 546.1022 C 485.272 546.1022 504.132 542.0728 504.132 537.1022 L 504.132 483.1022 C 504.132 478.1316 485.272 474.1022 462.007 474.1022 Z M 419.882 483.1022 C 419.882 488.0728 438.742 492.1022 462.007 492.1022 C 485.272 492.1022 504.132 488.0728 504.132 483.1022"
                    stroke="black"
                    stroke-linecap="square"
                    stroke-linejoin="round"
                    stroke-width="1"
                />
      </g>
      <g id="Graphic_33">
        <text transform="translate(434.6442 499.6022)" fill="black">
          <tspan
                        font-family="Noto Sans Display"
                        font-size="14"
                        font-weight="400"
                        fill="black"
                        x="0"
                        y="15"
                    >Interface</tspan>
          <tspan
                        font-family="Noto Sans Display"
                        font-size="14"
                        font-weight="400"
                        fill="black"
                        x="0"
                        y="34"
                    >Headers</tspan>
        </text>
      </g>
      <g id="Graphic_35">
        <rect
                    x="413.882"
                    y="414.1022"
                    width="90.958"
                    height="24"
                    stroke="black"
                    stroke-linecap="square"
                    stroke-linejoin="miter"
                    stroke-width="1"
                />
      </g>
      <g id="Graphic_36">
        <text transform="translate(423.3488 417.5457)" fill="black">
          <tspan
                        font-family="Noto Sans Display"
                        font-size="14"
                        font-weight="400"
                        fill="black"
                        x="0"
                        y="15"
                    >IDL compiler</tspan>
        </text>
      </g>
      <g id="Graphic_37">
        <text transform="translate(448.826 295.65868)" fill="black">
          <tspan
                        font-family="Noto Sans Display"
                        font-size="14"
                        font-weight="400"
                        fill="black"
                        x="0"
                        y="15"
                    >IDL</tspan>
        </text>
      </g>
      <g id="Line_38">
        <path
                    d="M 459.08207 312.7044 L 459.15927 323.8246 L 459.16627 324.8245"
                    stroke="black"
                    stroke-linecap="square"
                    stroke-linejoin="round"
                    stroke-width="1"
                />
      </g>
      <g id="Graphic_39">
        <path
                    d="M 462.59917 323.8007 L 459.20707 330.7044 L 455.71937 323.8485 Z"
                    fill="black"
                />
      </g>
      <g id="Line_40">
        <path
                    d="M 462.3524 402.1022 L 462.3524 406.4212 L 462.3576 407.4212"
                    stroke="black"
                    stroke-linecap="square"
                    stroke-linejoin="round"
                    stroke-width="1"
                />
      </g>
      <g id="Graphic_41">
        <path
                    d="M 465.4111 407.2044 L 462.007 414.1022 L 458.5312 407.2402 Z"
                    fill="black"
                />
      </g>
      <g id="Line_42">
        <path
                    d="M 461.882 438.1022 L 461.9831 467.2223 L 461.9866 468.2223"
                    stroke="black"
                    stroke-linecap="square"
                    stroke-linejoin="round"
                    stroke-width="1"
                />
      </g>
      <g id="Graphic_43">
        <path
                    d="M 465.4231 467.2103 L 462.007 474.1022 L 458.5432 467.2342 Z"
                    fill="black"
                />
      </g>
      <g id="Graphic_44">
        <path
                    d="M 182.314 339.9192 L 182.314 314.5859 C 182.314 311.08805 185.79739 308.25255 190.09443 308.25255 L 288.6464 308.25255 C 292.94343 308.25255 296.4268 311.08805 296.4268 314.5859 L 296.4268 339.9192 C 296.4268 343.41705 292.94343 346.25255 288.6464 346.25255 L 190.09443 346.25255 C 185.79739 346.25255 182.314 343.41705 182.314 339.9192 Z"
                    stroke="black"
                    stroke-linecap="square"
                    stroke-linejoin="round"
                    stroke-width="1"
                />
      </g>
      <g id="Graphic_45">
        <text transform="translate(203.9154 317.75255)" fill="black">
          <tspan
                        font-family="Noto Sans Display"
                        font-size="14"
                        font-weight="400"
                        fill="black"
                        x="0"
                        y="15"
                    >Client Code</tspan>
        </text>
      </g>
      <g id="Graphic_48">
        <path
                    d="M 260.882 436 L 260.882 416 C 260.882 413.2386 263.1206 411 265.882 411 L 369.882 411 C 372.6434 411 374.882 413.2386 374.882 416 L 374.882 436 C 374.882 438.7614 372.6434 441 369.882 441 L 265.882 441 C 263.1206 441 260.882 438.7614 260.882 436 Z"
                    stroke="black"
                    stroke-linecap="square"
                    stroke-linejoin="round"
                    stroke-width="1"
                />
      </g>
      <g id="Graphic_49">
        <text transform="translate(284.184 416.6022)" fill="black">
          <tspan
                        font-family="Noto Sans Display"
                        font-size="14"
                        font-weight="400"
                        fill="black"
                        x="0"
                        y="15"
                    >Client Stub</tspan>
        </text>
      </g>
      <g id="Line_56">
        <line
                    x1="257.882"
                    y1="366.4212"
                    x2="377.882"
                    y2="366.5462"
                    stroke="black"
                    stroke-linecap="square"
                    stroke-linejoin="round"
                    stroke-width="1"
                />
      </g>
      <g id="Graphic_61">
        <text transform="translate(202.71596 450.21875)" fill="black">
          <tspan
                        font-family="Noto Sans Display"
                        font-size="14"
                        font-weight="400"
                        fill="black"
                        x="0"
                        y="15"
                    >RPC API</tspan>
        </text>
      </g>
      <g id="Line_62">
        <line
                    x1="188.17396"
                    y1="446.90625"
                    x2="266.17396"
                    y2="447.03125"
                    stroke="black"
                    stroke-linecap="square"
                    stroke-linejoin="round"
                    stroke-width="1"
                />
      </g>
      <g id="Line_63">
        <line
                    x1="225.007"
                    y1="347.87245"
                    x2="225.007"
                    y2="446.90625"
                    stroke="black"
                    stroke-linecap="square"
                    stroke-linejoin="round"
                    stroke-width="1"
                />
      </g>
      <g id="Graphic_71">
        <path
                    d="M 597.54186 339.9192 L 597.54186 314.5859 C 597.54186 311.08805 601.5604 308.25255 606.5176 308.25255 L 720.21026 308.25255 C 725.16745 308.25255 729.186 311.08805 729.186 314.5859 L 729.186 339.9192 C 729.186 343.41705 725.16745 346.25255 720.21026 346.25255 L 606.5176 346.25255 C 601.5604 346.25255 597.54186 343.41705 597.54186 339.9192 Z"
                    stroke="black"
                    stroke-linecap="square"
                    stroke-linejoin="round"
                    stroke-width="1"
                />
      </g>
      <g id="Graphic_72">
        <text transform="translate(625.8159 317.75255)" fill="black">
          <tspan
                        font-family="Noto Sans Display"
                        font-size="14"
                        font-weight="400"
                        fill="black"
                        x="0"
                        y="15"
                    >Server Code</tspan>
        </text>
      </g>
      <g id="Graphic_75">
        <path
                    d="M 543.866 436.1022 L 543.866 416.1022 C 543.866 413.3408 546.1046 411.1022 548.866 411.1022 L 652.866 411.1022 C 655.6274 411.1022 657.866 413.3408 657.866 416.1022 L 657.866 436.1022 C 657.866 438.8636 655.6274 441.1022 652.866 441.1022 L 548.866 441.1022 C 546.1046 441.1022 543.866 438.8636 543.866 436.1022 Z"
                    stroke="black"
                    stroke-linecap="square"
                    stroke-linejoin="round"
                    stroke-width="1"
                />
      </g>
      <g id="Graphic_76">
        <text transform="translate(565.075 416.5)" fill="black">
          <tspan
                        font-family="Noto Sans Display"
                        font-size="14"
                        font-weight="400"
                        fill="black"
                        x="0"
                        y="15"
                    >Server Stub</tspan>
        </text>
      </g>
      <g id="Graphic_77">
        <path
                    d="M 619.518 518 L 619.518 478 C 619.518 472.4771 623.0944 468 627.5061 468 L 721.7659 468 C 726.17754 468 729.754 472.4771 729.754 478 L 729.754 518 C 729.754 523.5228 726.17754 528 721.7659 528 L 627.5061 528 C 623.0944 528 619.518 523.5228 619.518 518 Z"
                    fill="#efefef"
                />
      </g>
      <g id="Graphic_123">
        <path
                    d="M 182.882 518 L 182.882 478 C 182.882 472.4771 186.45844 468 190.87012 468 L 285.1299 468 C 289.54156 468 293.118 472.4771 293.118 478 L 293.118 518 C 293.118 523.5228 289.54156 528 285.1299 528 L 190.87012 528 C 186.45844 528 182.882 523.5228 182.882 518 Z"
                    fill="#efefef"
                />
      </g>
      <g id="Graphic_79">
        <text transform="translate(630.29234 479)" fill="black">
          <tspan
                        font-family="Noto Sans Display"
                        font-size="14"
                        font-weight="400"
                        fill="black"
                        x="0"
                        y="15"
                    >RPC Runtime</tspan>
          <tspan
                        font-family="Noto Sans Display"
                        font-size="14"
                        font-weight="400"
                        fill="black"
                        x="0"
                        y="34"
                    >Service Library</tspan>
        </text>
      </g>
      <g id="Graphic_80" />
      <g id="Graphic_81">
        <text transform="translate(549.248 368.8011)" fill="#ff4c00">
          <tspan
                        font-family="Noto Sans Display"
                        font-size="14"
                        font-weight="400"
                        fill="#ff4c00"
                        x="3907985e-19"
                        y="15"
                    >Sprachspezifische</tspan>
          <tspan
                        font-family="Noto Sans Display"
                        font-size="14"
                        font-weight="400"
                        fill="#ff4c00"
                        x="17.136"
                        y="34"
                    >Schnittstelle</tspan>
        </text>
      </g>
      <g id="Line_83">
        <line
                    x1="543.866"
                    y1="364.0511"
                    x2="663.866"
                    y2="364.1761"
                    stroke="black"
                    stroke-linecap="square"
                    stroke-linejoin="round"
                    stroke-width="1"
                />
      </g>
      <g id="Graphic_85">
        <text transform="translate(661.41734 448.5625)" fill="black">
          <tspan
                        font-family="Noto Sans Display"
                        font-size="14"
                        font-weight="400"
                        fill="black"
                        x="0"
                        y="15"
                    >RPC API</tspan>
        </text>
      </g>
      <g id="Line_86">
        <line
                    x1="656.2673"
                    y1="446.90625"
                    x2="729.186"
                    y2="446.90625"
                    stroke="black"
                    stroke-linecap="square"
                    stroke-linejoin="round"
                    stroke-width="1"
                />
      </g>
      <g id="Line_87">
        <line
                    x1="685.3753"
                    y1="346.25255"
                    x2="685.3753"
                    y2="446.90625"
                    stroke="black"
                    stroke-linecap="square"
                    stroke-linejoin="round"
                    stroke-width="1"
                />
      </g>
      <g id="Graphic_98">
        <text transform="translate(387.794 555.6201)" fill="black">
          <tspan
                        font-family="Noto Sans Display"
                        font-size="14"
                        font-weight="400"
                        fill="black"
                        x="0"
                        y="15"
                    >Runtime Environment</tspan>
        </text>
      </g>
      <g id="Graphic_102">
        <text transform="translate(193.05225 479.9932)" fill="black">
          <tspan
                        font-family="Noto Sans Display"
                        font-size="14"
                        font-weight="400"
                        fill="black"
                        x="0"
                        y="15"
                    >RPC Runtime</tspan>
          <tspan
                        font-family="Noto Sans Display"
                        font-size="14"
                        font-weight="400"
                        fill="black"
                        x="0"
                        y="34"
                    >Service Library</tspan>
        </text>
      </g>
      <g id="Graphic_113">
        <text transform="translate(263.264 369.4212)" fill="#ff4c00">
          <tspan
                        font-family="Noto Sans Display"
                        font-size="14"
                        font-weight="400"
                        fill="#ff4c00"
                        x="3907985e-19"
                        y="15"
                    >Sprachspezifische</tspan>
          <tspan
                        font-family="Noto Sans Display"
                        font-size="14"
                        font-weight="400"
                        fill="#ff4c00"
                        x="17.136"
                        y="34"
                    >Schnittstelle</tspan>
        </text>
      </g>
      <g id="Line_114">
        <line
                    x1="237.67332"
                    y1="535.39964"
                    x2="237.58486"
                    y2="545.72046"
                    marker-end="url(#FilledArrow_Marker)"
                    marker-start="url(#FilledArrow_Marker_2)"
                    stroke="black"
                    stroke-linecap="round"
                    stroke-linejoin="round"
                    stroke-width="1"
                />
      </g>
      <g id="Line_116">
        <line
                    x1="686.17896"
                    y1="535.39964"
                    x2="686.0905"
                    y2="545.72046"
                    marker-end="url(#FilledArrow_Marker)"
                    marker-start="url(#FilledArrow_Marker_2)"
                    stroke="black"
                    stroke-linecap="round"
                    stroke-linejoin="round"
                    stroke-width="1"
                />
      </g>
      <g id="Line_118">
        <path
                    d="M 419.882 510.1022 L 403.28906 510.1022 L 403.28906 318.8081 L 306.3268 318.8081"
                    marker-end="url(#FilledArrow_Marker)"
                    stroke="black"
                    stroke-linecap="round"
                    stroke-linejoin="round"
                    stroke-dasharray="4.0,4.0"
                    stroke-width="1"
                />
      </g>
      <g id="Line_120">
        <path
                    d="M 504.132 510.1022 L 516.8672 510.1022 L 516.8672 318.8081 L 587.64186 318.8081"
                    marker-end="url(#FilledArrow_Marker)"
                    stroke="black"
                    stroke-linecap="round"
                    stroke-linejoin="round"
                    stroke-dasharray="4.0,4.0"
                    stroke-width="1"
                />
      </g>
      <g id="Line_121">
        <line
                    x1="504.84"
                    y1="426.1022"
                    x2="533.966"
                    y2="426.1022"
                    marker-end="url(#FilledArrow_Marker)"
                    stroke="black"
                    stroke-linecap="round"
                    stroke-linejoin="round"
                    stroke-dasharray="4.0,4.0"
                    stroke-width="1"
                />
      </g>
      <g id="Line_122">
        <path
                    d="M 413.882 426.1022 L 403.5547 426.1022 L 389.782 426 L 384.782 426"
                    marker-end="url(#FilledArrow_Marker)"
                    stroke="black"
                    stroke-linecap="round"
                    stroke-linejoin="round"
                    stroke-dasharray="4.0,4.0"
                    stroke-width="1"
                />
      </g>
      <g id="Line_124">
        <path
                    d="M 579.9074 364.08864 L 579.9074 335.697 L 597.54186 335.697"
                    stroke="black"
                    stroke-linecap="round"
                    stroke-linejoin="round"
                    stroke-width="1"
                />
      </g>
      <g id="Line_125">
        <path
                    d="M 309.88038 366.47536 L 309.88038 331.47477 L 296.4268 331.47477"
                    stroke="black"
                    stroke-linecap="round"
                    stroke-linejoin="round"
                    stroke-width="1"
                />
      </g>
    </g>
  </g>
</svg>
