<?xml version="1.0" encoding="UTF-8" standalone="no" ?>
<!DOCTYPE svg PUBLIC "-//W3C//DTD SVG 1.1//EN"
    "http://www.w3.org/Graphics/SVG/1.1/DTD/svg11.dtd">
<svg
    xmlns="http://www.w3.org/2000/svg"
    xmlns:xl="http://www.w3.org/1999/xlink"
    xmlns:dc="http://purl.org/dc/elements/1.1/"
    version="1.1"
    viewBox="240 627 476 246"
    width="1428"
    height="738"
>
  <style>
    @import url('/LectureDoc2/ext/fonts/ld-fonts.css');
  </style>
  <defs>
    <marker
            orient="auto"
            overflow="visible"
            markerUnits="strokeWidth"
            id="FilledArrow_Marker"
            stroke-linejoin="miter"
            stroke-miterlimit="10"
            viewBox="-1 -3 7 6"
            markerWidth="7"
            markerHeight="6"
            color="black"
        >
      <g>
        <path
                    d="M 4.8 0 L 0 -1.8 L 0 1.8 Z"
                    fill="currentColor"
                    stroke="currentColor"
                    stroke-width="1"
                />
      </g>
    </marker>
    <marker
            orient="auto"
            overflow="visible"
            markerUnits="strokeWidth"
            id="StickArrow_Marker"
            stroke-linejoin="miter"
            stroke-miterlimit="10"
            viewBox="-1 -4 10 8"
            markerWidth="10"
            markerHeight="8"
            color="#666"
        >
      <g>
        <path
                    d="M 8 0 L 0 0 M 0 -3 L 8 0 L 0 3"
                    fill="none"
                    stroke="currentColor"
                    stroke-width="1"
                />
      </g>
    </marker>
    <marker
            orient="auto"
            overflow="visible"
            markerUnits="strokeWidth"
            id="SharpArrow_Marker"
            stroke-linejoin="miter"
            stroke-miterlimit="10"
            viewBox="-4 -4 10 8"
            markerWidth="10"
            markerHeight="8"
            color="black"
        >
      <g>
        <path
                    d="M 5 0 L -3 -3 L 0 0 L 0 0 L -3 3 Z"
                    fill="currentColor"
                    stroke="currentColor"
                    stroke-width="1"
                />
      </g>
    </marker>
  </defs>
  <metadata> Produced by OmniGraffle 8.0\n2025-03-05 14:33:33 +0000</metadata>
  <g
        id="localqm"
        fill-opacity="1"
        stroke-opacity="1"
        stroke="none"
        stroke-dasharray="none"
        fill="none"
    >
    <title>localqm</title>
    <rect fill="white" x="240" y="627" width="476" height="246" />
    <g id="localqm_Layer_1">
      <title>Layer 1</title>
      <g id="Graphic_78">
        <rect x="241.5" y="627.5" width="204" height="201.48162" fill="white" />
        <rect
                    x="241.5"
                    y="627.5"
                    width="204"
                    height="201.48162"
                    stroke="black"
                    stroke-linecap="round"
                    stroke-linejoin="round"
                    stroke-width="1"
                />
        <text transform="translate(246.5 632.5)" fill="black">
          <tspan
                        font-family="Noto Sans Display"
                        font-size="14"
                        font-weight="400"
                        fill="black"
                        x="79.178"
                        y="15"
                        xml:space="preserve"
                    >Client</tspan>
        </text>
      </g>
      <g id="Graphic_77">
        <rect x="511" y="627.5" width="204" height="201.48162" fill="white" />
        <rect
                    x="511"
                    y="627.5"
                    width="204"
                    height="201.48162"
                    stroke="black"
                    stroke-linecap="round"
                    stroke-linejoin="round"
                    stroke-width="1"
                />
        <text transform="translate(516 632.5)" fill="black">
          <tspan
                        font-family="Noto Sans Display"
                        font-size="14"
                        font-weight="400"
                        fill="black"
                        x="77.085"
                        y="15"
                        xml:space="preserve"
                    >Server</tspan>
        </text>
      </g>
      <g id="Graphic_8">
        <rect x="323.25" y="660.5184" width="109.5" height="156.98162" fill="white" />
        <rect
                    x="323.25"
                    y="660.5184"
                    width="109.5"
                    height="156.98162"
                    stroke="black"
                    stroke-linecap="round"
                    stroke-linejoin="round"
                    stroke-width="1"
                />
        <text transform="translate(328.25 665.5184)" fill="#a5a5a5">
          <tspan
                        font-family="Noto Sans Display"
                        font-size="14"
                        font-weight="400"
                        fill="#a5a5a5"
                        x="28.554"
                        y="15"
                        xml:space="preserve"
                    >Source</tspan>
          <tspan
                        font-family="Noto Sans Display"
                        font-size="14"
                        font-weight="400"
                        fill="black"
                        y="15"
                        xml:space="preserve"
                    > </tspan>
          <tspan
                        font-family="Noto Sans Display"
                        font-size="14"
                        font-weight="700"
                        fill="black"
                        x="27.826"
                        y="34"
                        xml:space="preserve"
                    >Queue </tspan>
          <tspan
                        font-family="Noto Sans Display"
                        font-size="14"
                        font-weight="700"
                        fill="black"
                        x="1.968"
                        y="53"
                        xml:space="preserve"
                    >Manager (QM)</tspan>
        </text>
      </g>
      <g id="Graphic_23">
        <text transform="translate(451.594 848)" fill="#a5a5a5">
          <tspan
                        font-family="Noto Sans Display"
                        font-size="14"
                        font-weight="400"
                        fill="#a5a5a5"
                        x="856204e-18"
                        y="15"
                        xml:space="preserve"
                    >Network</tspan>
        </text>
      </g>
      <g id="Graphic_62">
        <rect x="524" y="660.5184" width="109.5" height="156.98162" fill="white" />
        <rect
                    x="524"
                    y="660.5184"
                    width="109.5"
                    height="156.98162"
                    stroke="black"
                    stroke-linecap="round"
                    stroke-linejoin="round"
                    stroke-width="1"
                />
        <text transform="translate(529 665.5184)" fill="#a5a5a5">
          <tspan
                        font-family="Noto Sans Display"
                        font-size="14"
                        font-weight="400"
                        fill="#a5a5a5"
                        x="13.896"
                        y="15"
                        xml:space="preserve"
                    >Destination</tspan>
          <tspan
                        font-family="Noto Sans Display"
                        font-size="14"
                        font-weight="400"
                        fill="black"
                        y="15"
                        xml:space="preserve"
                    > </tspan>
          <tspan
                        font-family="Noto Sans Display"
                        font-size="14"
                        font-weight="700"
                        fill="black"
                        x="27.826"
                        y="34"
                        xml:space="preserve"
                    >Queue </tspan>
          <tspan
                        font-family="Noto Sans Display"
                        font-size="14"
                        font-weight="700"
                        fill="black"
                        x="1.968"
                        y="53"
                        xml:space="preserve"
                    >Manager (QM)</tspan>
        </text>
      </g>
      <g id="Group_69">
        <g id="Graphic_63">
          <path
                        d="M 356.75 790.4816 L 399.25 790.4816 C 403.6683 790.4816 407.25 794.0633 407.25 798.4816 L 407.25 800.9816 C 407.25 805.3999 403.6683 808.9816 399.25 808.9816 L 356.75 808.9816 C 352.33172 808.9816 348.75 805.3999 348.75 800.9816 L 348.75 798.4816 C 348.75 794.0633 352.33172 790.4816 356.75 790.4816 Z"
                        fill="white"
                    />
          <path
                        d="M 356.75 790.4816 L 399.25 790.4816 C 403.6683 790.4816 407.25 794.0633 407.25 798.4816 L 407.25 800.9816 C 407.25 805.3999 403.6683 808.9816 399.25 808.9816 L 356.75 808.9816 C 352.33172 808.9816 348.75 805.3999 348.75 800.9816 L 348.75 798.4816 C 348.75 794.0633 352.33172 790.4816 356.75 790.4816 Z"
                        stroke="black"
                        stroke-linecap="round"
                        stroke-linejoin="round"
                        stroke-width="1"
                    />
        </g>
        <g id="Graphic_64">
          <path
                        d="M 356.75 771.9816 L 399.25 771.9816 C 403.6683 771.9816 407.25 775.5633 407.25 779.9816 L 407.25 782.4816 C 407.25 786.8999 403.6683 790.4816 399.25 790.4816 L 356.75 790.4816 C 352.33172 790.4816 348.75 786.8999 348.75 782.4816 L 348.75 779.9816 C 348.75 775.5633 352.33172 771.9816 356.75 771.9816 Z"
                        fill="white"
                    />
          <path
                        d="M 356.75 771.9816 L 399.25 771.9816 C 403.6683 771.9816 407.25 775.5633 407.25 779.9816 L 407.25 782.4816 C 407.25 786.8999 403.6683 790.4816 399.25 790.4816 L 356.75 790.4816 C 352.33172 790.4816 348.75 786.8999 348.75 782.4816 L 348.75 779.9816 C 348.75 775.5633 352.33172 771.9816 356.75 771.9816 Z"
                        stroke="black"
                        stroke-linecap="round"
                        stroke-linejoin="round"
                        stroke-width="1"
                    />
        </g>
        <g id="Graphic_65">
          <path
                        d="M 356.75 753.4816 L 399.25 753.4816 C 403.6683 753.4816 407.25 757.0633 407.25 761.4816 L 407.25 763.9816 C 407.25 768.3999 403.6683 771.9816 399.25 771.9816 L 356.75 771.9816 C 352.33172 771.9816 348.75 768.3999 348.75 763.9816 L 348.75 761.4816 C 348.75 757.0633 352.33172 753.4816 356.75 753.4816 Z"
                        fill="white"
                    />
          <path
                        d="M 356.75 753.4816 L 399.25 753.4816 C 403.6683 753.4816 407.25 757.0633 407.25 761.4816 L 407.25 763.9816 C 407.25 768.3999 403.6683 771.9816 399.25 771.9816 L 356.75 771.9816 C 352.33172 771.9816 348.75 768.3999 348.75 763.9816 L 348.75 761.4816 C 348.75 757.0633 352.33172 753.4816 356.75 753.4816 Z"
                        stroke="black"
                        stroke-linecap="round"
                        stroke-linejoin="round"
                        stroke-width="1"
                    />
        </g>
        <g id="Graphic_66">
          <path
                        d="M 356.75 734.9816 L 399.25 734.9816 C 403.6683 734.9816 407.25 738.5633 407.25 742.9816 L 407.25 745.4816 C 407.25 749.8999 403.6683 753.4816 399.25 753.4816 L 356.75 753.4816 C 352.33172 753.4816 348.75 749.8999 348.75 745.4816 L 348.75 742.9816 C 348.75 738.5633 352.33172 734.9816 356.75 734.9816 Z"
                        fill="white"
                    />
          <path
                        d="M 356.75 734.9816 L 399.25 734.9816 C 403.6683 734.9816 407.25 738.5633 407.25 742.9816 L 407.25 745.4816 C 407.25 749.8999 403.6683 753.4816 399.25 753.4816 L 356.75 753.4816 C 352.33172 753.4816 348.75 749.8999 348.75 745.4816 L 348.75 742.9816 C 348.75 738.5633 352.33172 734.9816 356.75 734.9816 Z"
                        stroke="black"
                        stroke-linecap="round"
                        stroke-linejoin="round"
                        stroke-width="1"
                    />
        </g>
        <g id="Graphic_67">
          <rect x="356.25" y="731.4816" width="45" height="8.5" fill="white" />
          <rect
                        x="356.25"
                        y="731.4816"
                        width="45"
                        height="8.5"
                        stroke="white"
                        stroke-linecap="round"
                        stroke-linejoin="round"
                        stroke-width="1"
                    />
        </g>
      </g>
      <g id="Group_70">
        <g id="Graphic_75">
          <path
                        d="M 557.5 768.4816 L 600 768.4816 C 604.4183 768.4816 608 772.0633 608 776.4816 L 608 778.9816 C 608 783.3999 604.4183 786.9816 600 786.9816 L 557.5 786.9816 C 553.0817 786.9816 549.5 783.3999 549.5 778.9816 L 549.5 776.4816 C 549.5 772.0633 553.0817 768.4816 557.5 768.4816 Z"
                        fill="white"
                    />
          <path
                        d="M 557.5 768.4816 L 600 768.4816 C 604.4183 768.4816 608 772.0633 608 776.4816 L 608 778.9816 C 608 783.3999 604.4183 786.9816 600 786.9816 L 557.5 786.9816 C 553.0817 786.9816 549.5 783.3999 549.5 778.9816 L 549.5 776.4816 C 549.5 772.0633 553.0817 768.4816 557.5 768.4816 Z"
                        stroke="black"
                        stroke-linecap="round"
                        stroke-linejoin="round"
                        stroke-width="1"
                    />
        </g>
        <g id="Graphic_74">
          <path
                        d="M 557.5 749.9816 L 600 749.9816 C 604.4183 749.9816 608 753.5633 608 757.9816 L 608 760.4816 C 608 764.8999 604.4183 768.4816 600 768.4816 L 557.5 768.4816 C 553.0817 768.4816 549.5 764.8999 549.5 760.4816 L 549.5 757.9816 C 549.5 753.5633 553.0817 749.9816 557.5 749.9816 Z"
                        fill="white"
                    />
          <path
                        d="M 557.5 749.9816 L 600 749.9816 C 604.4183 749.9816 608 753.5633 608 757.9816 L 608 760.4816 C 608 764.8999 604.4183 768.4816 600 768.4816 L 557.5 768.4816 C 553.0817 768.4816 549.5 764.8999 549.5 760.4816 L 549.5 757.9816 C 549.5 753.5633 553.0817 749.9816 557.5 749.9816 Z"
                        stroke="black"
                        stroke-linecap="round"
                        stroke-linejoin="round"
                        stroke-width="1"
                    />
        </g>
        <g id="Graphic_73">
          <path
                        d="M 557.5 731.4816 L 600 731.4816 C 604.4183 731.4816 608 735.0633 608 739.4816 L 608 741.9816 C 608 746.3999 604.4183 749.9816 600 749.9816 L 557.5 749.9816 C 553.0817 749.9816 549.5 746.3999 549.5 741.9816 L 549.5 739.4816 C 549.5 735.0633 553.0817 731.4816 557.5 731.4816 Z"
                        fill="white"
                    />
          <path
                        d="M 557.5 731.4816 L 600 731.4816 C 604.4183 731.4816 608 735.0633 608 739.4816 L 608 741.9816 C 608 746.3999 604.4183 749.9816 600 749.9816 L 557.5 749.9816 C 553.0817 749.9816 549.5 746.3999 549.5 741.9816 L 549.5 739.4816 C 549.5 735.0633 553.0817 731.4816 557.5 731.4816 Z"
                        stroke="black"
                        stroke-linecap="round"
                        stroke-linejoin="round"
                        stroke-width="1"
                    />
        </g>
        <g id="Graphic_72">
          <path
                        d="M 600 805.4816 L 557.5 805.4816 C 553.0817 805.4816 549.5 801.8999 549.5 797.4816 L 549.5 794.9816 C 549.5 790.5633 553.0817 786.9816 557.5 786.9816 L 600 786.9816 C 604.4183 786.9816 608 790.5633 608 794.9816 L 608 797.4816 C 608 801.8999 604.4183 805.4816 600 805.4816 Z"
                        fill="white"
                    />
          <path
                        d="M 600 805.4816 L 557.5 805.4816 C 553.0817 805.4816 549.5 801.8999 549.5 797.4816 L 549.5 794.9816 C 549.5 790.5633 553.0817 786.9816 557.5 786.9816 L 600 786.9816 C 604.4183 786.9816 608 790.5633 608 794.9816 L 608 797.4816 C 608 801.8999 604.4183 805.4816 600 805.4816 Z"
                        stroke="black"
                        stroke-linecap="round"
                        stroke-linejoin="round"
                        stroke-width="1"
                    />
        </g>
        <g id="Graphic_71">
          <rect x="555.5" y="800.4816" width="45" height="8.5" fill="white" />
          <rect
                        x="555.5"
                        y="800.4816"
                        width="45"
                        height="8.5"
                        stroke="white"
                        stroke-linecap="round"
                        stroke-linejoin="round"
                        stroke-width="1"
                    />
        </g>
      </g>
      <g id="Line_79">
        <line
                    x1="241.5"
                    y1="865.5"
                    x2="715"
                    y2="865.5"
                    stroke="black"
                    stroke-linecap="round"
                    stroke-linejoin="round"
                    stroke-dasharray="8.0,8.0"
                    stroke-width="2"
                />
      </g>
      <g id="Line_83">
        <line
                    x1="343"
                    y1="828.9816"
                    x2="343"
                    y2="865.5"
                    stroke="black"
                    stroke-linecap="round"
                    stroke-linejoin="round"
                    stroke-dasharray="8.0,8.0"
                    stroke-width="2"
                />
      </g>
      <g id="Line_84">
        <line
                    x1="612.5"
                    y1="828.9816"
                    x2="612.5"
                    y2="865.5"
                    stroke="black"
                    stroke-linecap="round"
                    stroke-linejoin="round"
                    stroke-dasharray="8.0,8.0"
                    stroke-width="2"
                />
      </g>
      <g id="Graphic_85">
        <text transform="translate(267.456 729.7852)" fill="black">
          <tspan
                        font-family="Noto Sans Display"
                        font-size="14"
                        font-weight="400"
                        fill="black"
                        x="0"
                        y="15"
                        xml:space="preserve"
                    >A</tspan>
        </text>
      </g>
      <g id="Graphic_86">
        <text transform="translate(686.689 729.7852)" fill="black">
          <tspan
                        font-family="Noto Sans Display"
                        font-size="14"
                        font-weight="400"
                        fill="black"
                        x="0"
                        y="15"
                        xml:space="preserve"
                    >B</tspan>
        </text>
      </g>
      <g id="Line_87">
        <line
                    x1="280.912"
                    y1="739.2612"
                    x2="310.35004"
                    y2="739.1848"
                    marker-end="url(#FilledArrow_Marker)"
                    stroke="black"
                    stroke-linecap="round"
                    stroke-linejoin="round"
                    stroke-width="2"
                />
      </g>
      <g id="Line_88">
        <line
                    x1="681.689"
                    y1="739.2623"
                    x2="646.39996"
                    y2="739.1756"
                    marker-end="url(#FilledArrow_Marker)"
                    stroke="black"
                    stroke-linecap="round"
                    stroke-linejoin="round"
                    stroke-width="2"
                />
      </g>
      <g id="Graphic_89">
        <text transform="translate(287.4401 743.5)" fill="#666">
          <tspan
                        font-family="Noto Sans Display"
                        font-size="14"
                        font-weight="400"
                        fill="#666"
                        x="8881784e-19"
                        y="15"
                        xml:space="preserve"
                    >put</tspan>
        </text>
      </g>
      <g id="Graphic_90">
        <text transform="translate(654.1869 743.5)" fill="#666">
          <tspan
                        font-family="Noto Sans Display"
                        font-size="14"
                        font-weight="400"
                        fill="#666"
                        x="0"
                        y="15"
                        xml:space="preserve"
                    >get</tspan>
        </text>
      </g>
      <g id="Line_91">
        <line
                    x1="320.43647"
                    y1="739.1586"
                    x2="339.54633"
                    y2="739.5261"
                    marker-end="url(#StickArrow_Marker)"
                    stroke="#666"
                    stroke-linecap="round"
                    stroke-linejoin="round"
                    stroke-dasharray="1.0,4.0"
                    stroke-width="1"
                />
      </g>
      <g id="Line_93">
        <line
                    x1="636.5759"
                    y1="739.1514"
                    x2="617.8849"
                    y2="740.185"
                    marker-end="url(#StickArrow_Marker)"
                    stroke="#666"
                    stroke-linecap="round"
                    stroke-linejoin="round"
                    stroke-dasharray="1.0,4.0"
                    stroke-width="1"
                />
      </g>
      <g id="Graphic_95">
        <ellipse
                    cx="378"
                    cy="817.7316"
                    rx="6.50001038636235"
                    ry="5.75000918793587"
                    fill="white"
                />
        <ellipse
                    cx="378"
                    cy="817.7316"
                    rx="6.50001038636235"
                    ry="5.75000918793587"
                    stroke="black"
                    stroke-linecap="round"
                    stroke-linejoin="round"
                    stroke-width="1"
                />
      </g>
      <g id="Graphic_97">
        <ellipse
                    cx="578.75"
                    cy="817.7316"
                    rx="6.50001038636229"
                    ry="5.75000918793587"
                    fill="white"
                />
        <ellipse
                    cx="578.75"
                    cy="817.7316"
                    rx="6.50001038636229"
                    ry="5.75000918793587"
                    stroke="black"
                    stroke-linecap="round"
                    stroke-linejoin="round"
                    stroke-width="1"
                />
      </g>
      <g id="Line_98">
        <path
                    d="M 382.05914 822.2232 C 388.62877 828.4813 403.8707 839.6557 432.75 845 C 474.11253 852.6544 482.63747 852.4753 524 844.75 C 546.79635 840.4923 561.0953 832.7209 569.33884 826.6021"
                    marker-end="url(#SharpArrow_Marker)"
                    stroke="black"
                    stroke-linecap="round"
                    stroke-linejoin="round"
                    stroke-width="1"
                />
      </g>
      <g id="Line_99">
        <line
                    x1="378"
                    y1="809.4816"
                    x2="378"
                    y2="811.9816"
                    stroke="black"
                    stroke-linecap="round"
                    stroke-linejoin="round"
                    stroke-width="1"
                />
      </g>
      <g id="Line_100">
        <path
                    d="M 578.75 811.9816 L 578.75 795.248 L 578.8428 795.248"
                    stroke="black"
                    stroke-linecap="round"
                    stroke-linejoin="round"
                    stroke-width="1"
                />
      </g>
    </g>
  </g>
</svg>
