<?xml version="1.0" encoding="UTF-8" standalone="no" ?>
<!DOCTYPE svg PUBLIC "-//W3C//DTD SVG 1.1//EN"
    "http://www.w3.org/Graphics/SVG/1.1/DTD/svg11.dtd">
<svg
    version="1.1"
    xmlns="http://www.w3.org/2000/svg"
    xmlns:dc="http://purl.org/dc/elements/1.1/"
    xmlns:xl="http://www.w3.org/1999/xlink"
    viewBox="38 166 330 324"
    width="990"
    height="972"
>
  <style>
    @import url('/LectureDoc2/ext/fonts/ld-fonts.css');
  </style>
  <defs>
    <linearGradient x1="0" x2="1" id="Gradient" gradientUnits="userSpaceOnUse">
      <stop offset=".16833588" stop-color="#029ed5" />
      <stop offset=".9336584" stop-color="#99d0eb" stop-opacity=".5" />
      <stop offset="1" stop-color="white" stop-opacity="0" />
    </linearGradient>
    <linearGradient
            id="Obj_Gradient"
            xl:href="#Gradient"
            gradientTransform="translate(264.80884 278.40378) rotate(46.55764) scale(78.83715)"
        />
    <linearGradient
            id="Obj_Gradient_2"
            xl:href="#Gradient"
            gradientTransform="translate(266.11555 278.40378) rotate(46.55764) scale(78.83715)"
        />
    <linearGradient
            id="Obj_Gradient_3"
            xl:href="#Gradient"
            gradientTransform="translate(333.16213 319.3576) rotate(-133.44236) scale(119.97285)"
        />
    <linearGradient
            id="Obj_Gradient_4"
            xl:href="#Gradient"
            gradientTransform="translate(264.80884 218.85521) rotate(46.55764) scale(78.83715)"
        />
    <linearGradient
            id="Obj_Gradient_5"
            xl:href="#Gradient"
            gradientTransform="translate(334.46884 320.6643) rotate(-133.44236) scale(119.97285)"
        />
    <linearGradient
            id="Obj_Gradient_6"
            xl:href="#Gradient"
            gradientTransform="translate(266.11555 218.85521) rotate(46.55764) scale(78.83715)"
        />
    <filter id="Shadow" filterUnits="userSpaceOnUse" x="5" y="133.6">
      <feGaussianBlur in="SourceAlpha" result="blur" stdDeviation="1.308" />
      <feOffset in="blur" result="offset" dx="2" dy="2" />
      <feFlood flood-color="black" flood-opacity=".5" result="flood" />
      <feComposite in="flood" in2="offset" operator="in" result="color" />
      <feMerge>
        <feMergeNode in="color" />
        <feMergeNode in="SourceGraphic" />
      </feMerge>
    </filter>
    <linearGradient x1="0" x2="1" id="Gradient_2" gradientUnits="userSpaceOnUse">
      <stop offset="0" stop-color="white" />
      <stop offset="1" stop-color="#9b1329" />
    </linearGradient>
    <linearGradient
            id="Obj_Gradient_7"
            xl:href="#Gradient_2"
            gradientTransform="translate(339.96566 326.0189) rotate(121.7881) scale(179.95509)"
        />
    <marker
            orient="auto"
            overflow="visible"
            markerUnits="strokeWidth"
            id="FilledArrow_Marker"
            stroke-linejoin="miter"
            stroke-miterlimit="10"
            viewBox="-1 -3 7 6"
            markerWidth="7"
            markerHeight="6"
            color="black"
        >
      <g>
        <path
                    d="M 4.8 0 L 0 -1.8 L 0 1.8 Z"
                    fill="currentColor"
                    stroke="currentColor"
                    stroke-width="1"
                />
      </g>
    </marker>
  </defs>
  <metadata> Produced by OmniGraffle 8.0\n2025-03-23 13:24:45 +0000</metadata>
  <g
        id="crash"
        stroke-dasharray="none"
        stroke-opacity="1"
        fill-opacity="1"
        fill="none"
        stroke="none"
    >
    <title>crash</title>
    <g id="crash_base">
      <title>base</title>
      <g id="Group_2">
        <g id="Group_8">
          <g id="Graphic_11">
            <ellipse
                            cx="291.91402"
                            cy="307.02428"
                            rx="40.984894586896"
                            ry="15.4757436442152"
                            fill="url(#Obj_Gradient)"
                        />
            <ellipse
                            cx="291.91402"
                            cy="307.02428"
                            rx="40.984894586896"
                            ry="15.4757436442152"
                            stroke="white"
                            stroke-opacity=".48790474"
                            stroke-linecap="round"
                            stroke-linejoin="round"
                            stroke-width="2"
                        />
          </g>
          <g id="Graphic_9">
            <ellipse
                            cx="293.22073"
                            cy="307.02428"
                            rx="40.984894586896"
                            ry="15.4757436442152"
                            fill="url(#Obj_Gradient_2)"
                        />
            <ellipse
                            cx="293.22073"
                            cy="307.02428"
                            rx="40.984894586896"
                            ry="15.4757436442152"
                            stroke="white"
                            stroke-opacity=".48790474"
                            stroke-linecap="round"
                            stroke-linejoin="round"
                            stroke-width="2"
                        />
          </g>
        </g>
        <g id="Group_3">
          <g id="Graphic_7">
            <path
                            d="M 332.8988 247.49777 C 332.89886 247.48308 332.89886 247.46838 332.8988 247.45368 L 332.8988 247.22428 L 332.89347 247.22428 C 332.7277 243.34793 328.72808 239.49062 320.8946 236.53275 C 304.88906 230.48908 278.93894 230.48908 262.93338 236.53275 C 255.09992 239.49062 251.1003 243.34793 250.93453 247.22428 L 250.92917 247.22428 L 250.92917 247.4602 C 250.92914 247.47055 250.92914 247.4809 250.92917 247.49125 L 250.92917 304.1157 C 250.92914 304.12605 250.92914 304.1364 250.92917 304.14675 L 250.92917 304.56727 L 250.94532 304.56727 C 251.22826 308.38126 255.22428 312.1633 262.93338 315.0742 C 278.93894 321.11787 304.88906 321.11787 320.8946 315.0742 C 328.6037 312.1633 332.59974 308.38126 332.88268 304.56727 L 332.8988 304.56727 L 332.8988 304.15327 C 332.89886 304.13857 332.89886 304.12388 332.8988 304.10918 Z"
                            fill="url(#Obj_Gradient_3)"
                        />
            <path
                            d="M 332.8988 247.49777 C 332.89886 247.48308 332.89886 247.46838 332.8988 247.45368 L 332.8988 247.22428 L 332.89347 247.22428 C 332.7277 243.34793 328.72808 239.49062 320.8946 236.53275 C 304.88906 230.48908 278.93894 230.48908 262.93338 236.53275 C 255.09992 239.49062 251.1003 243.34793 250.93453 247.22428 L 250.92917 247.22428 L 250.92917 247.4602 C 250.92914 247.47055 250.92914 247.4809 250.92917 247.49125 L 250.92917 304.1157 C 250.92914 304.12605 250.92914 304.1364 250.92917 304.14675 L 250.92917 304.56727 L 250.94532 304.56727 C 251.22826 308.38126 255.22428 312.1633 262.93338 315.0742 C 278.93894 321.11787 304.88906 321.11787 320.8946 315.0742 C 328.6037 312.1633 332.59974 308.38126 332.88268 304.56727 L 332.8988 304.56727 L 332.8988 304.15327 C 332.89886 304.13857 332.89886 304.12388 332.8988 304.10918 Z"
                            stroke="white"
                            stroke-opacity=".48790474"
                            stroke-linecap="round"
                            stroke-linejoin="round"
                            stroke-width="2"
                        />
          </g>
          <g id="Graphic_6">
            <ellipse
                            cx="291.91402"
                            cy="247.47572"
                            rx="40.984894586896"
                            ry="15.4757436442151"
                            fill="url(#Obj_Gradient_4)"
                        />
            <ellipse
                            cx="291.91402"
                            cy="247.47572"
                            rx="40.984894586896"
                            ry="15.4757436442151"
                            stroke="white"
                            stroke-opacity=".48790474"
                            stroke-linecap="round"
                            stroke-linejoin="round"
                            stroke-width="2"
                        />
          </g>
          <g id="Graphic_5">
            <path
                            d="M 334.2055 248.80448 C 334.20557 248.78978 334.20557 248.77508 334.2055 248.7604 L 334.2055 248.531 L 334.20018 248.531 C 334.0344 244.65464 330.0348 240.79733 322.20132 237.83946 C 306.19576 231.7958 280.24565 231.7958 264.2401 237.83946 C 256.40663 240.79733 252.407 244.65464 252.24123 248.531 L 252.23588 248.531 L 252.23588 248.7669 C 252.23585 248.77726 252.23585 248.7876 252.23588 248.79796 L 252.23588 305.4224 C 252.23585 305.43276 252.23585 305.4431 252.23588 305.45346 L 252.23588 305.87397 L 252.25203 305.87397 C 252.53497 309.68797 256.531 313.47 264.2401 316.3809 C 280.24565 322.42458 306.19576 322.42458 322.20132 316.3809 C 329.91042 313.47 333.90644 309.68797 334.1894 305.87397 L 334.2055 305.87397 L 334.2055 305.45998 C 334.20557 305.44528 334.20557 305.4306 334.2055 305.4159 Z"
                            fill="url(#Obj_Gradient_5)"
                        />
            <path
                            d="M 334.2055 248.80448 C 334.20557 248.78978 334.20557 248.77508 334.2055 248.7604 L 334.2055 248.531 L 334.20018 248.531 C 334.0344 244.65464 330.0348 240.79733 322.20132 237.83946 C 306.19576 231.7958 280.24565 231.7958 264.2401 237.83946 C 256.40663 240.79733 252.407 244.65464 252.24123 248.531 L 252.23588 248.531 L 252.23588 248.7669 C 252.23585 248.77726 252.23585 248.7876 252.23588 248.79796 L 252.23588 305.4224 C 252.23585 305.43276 252.23585 305.4431 252.23588 305.45346 L 252.23588 305.87397 L 252.25203 305.87397 C 252.53497 309.68797 256.531 313.47 264.2401 316.3809 C 280.24565 322.42458 306.19576 322.42458 322.20132 316.3809 C 329.91042 313.47 333.90644 309.68797 334.1894 305.87397 L 334.2055 305.87397 L 334.2055 305.45998 C 334.20557 305.44528 334.20557 305.4306 334.2055 305.4159 Z"
                            stroke="white"
                            stroke-opacity=".48790474"
                            stroke-linecap="round"
                            stroke-linejoin="round"
                            stroke-width="2"
                        />
            <text transform="translate(257.23586 248.61018)" fill="black">
              <tspan
                                font-family="Noto Sans Display"
                                font-size="16"
                                font-weight="400"
                                fill="black"
                                x="20.414536"
                                y="34"
                            >OpA </tspan>
              <tspan
                                font-family="Noto Sans Display"
                                font-size="16"
                                font-weight="400"
                                fill="black"
                                x="16.859848"
                                y="53"
                            >Table</tspan>
            </text>
          </g>
          <g id="Graphic_4">
            <ellipse
                            cx="293.22073"
                            cy="247.47572"
                            rx="40.984894586896"
                            ry="15.4757436442151"
                            fill="url(#Obj_Gradient_6)"
                        />
            <ellipse
                            cx="293.22073"
                            cy="247.47572"
                            rx="40.984894586896"
                            ry="15.4757436442151"
                            stroke="white"
                            stroke-opacity=".48790474"
                            stroke-linecap="round"
                            stroke-linejoin="round"
                            stroke-width="2"
                        />
          </g>
        </g>
      </g>
      <g id="Graphic_13">
        <rect x="112" y="232" width="57.5" height="233" fill="white" />
        <rect
                    x="112"
                    y="232"
                    width="57.5"
                    height="233"
                    stroke="#666"
                    stroke-linecap="round"
                    stroke-linejoin="round"
                    stroke-width="2"
                />
      </g>
      <g id="Graphic_14" filter="url(#Shadow)">
        <path
                    d="M 292.56735 340 L 359.1013 383.1865 L 333.68767 453.0635 L 251.44703 453.0635 L 226.0334 383.1865 Z"
                    fill="url(#Obj_Gradient_7)"
                />
        <text transform="translate(241.60097 380.25)" fill="white">
          <tspan
                        font-family="Noto Sans Display"
                        font-size="16"
                        font-style="italic"
                        font-weight="400"
                        fill="white"
                        x="30.50935"
                        y="15"
                    >Event </tspan>
          <tspan
                        font-family="Noto Sans Display"
                        font-size="16"
                        font-style="italic"
                        font-weight="400"
                        fill="white"
                        x="11.392162"
                        y="34"
                    >Processing </tspan>
          <tspan
                        font-family="Noto Sans Display"
                        font-size="16"
                        font-style="italic"
                        font-weight="400"
                        fill="white"
                        x="10.060131"
                        y="53"
                    >Middleware</tspan>
        </text>
      </g>
      <g id="Line_15">
        <line
                    x1="39.683844"
                    y1="231.448"
                    x2="99.1"
                    y2="231.448"
                    marker-end="url(#FilledArrow_Marker)"
                    stroke="black"
                    stroke-linecap="round"
                    stroke-linejoin="round"
                    stroke-width="2"
                />
      </g>
      <g id="Line_17">
        <line
                    x1="141.25"
                    y1="276.5"
                    x2="238.02915"
                    y2="276.5"
                    marker-end="url(#FilledArrow_Marker)"
                    stroke="black"
                    stroke-linecap="round"
                    stroke-linejoin="round"
                    stroke-width="2"
                />
      </g>
      <g id="Line_18">
        <line
                    x1="141.25"
                    y1="405.948"
                    x2="220.91818"
                    y2="405.948"
                    marker-end="url(#FilledArrow_Marker)"
                    stroke="black"
                    stroke-linecap="round"
                    stroke-linejoin="round"
                    stroke-width="2"
                />
      </g>
      <g id="Line_19">
        <line
                    x1="140.25"
                    y1="167.5"
                    x2="140.25"
                    y2="476.1"
                    marker-end="url(#FilledArrow_Marker)"
                    stroke="black"
                    stroke-linecap="round"
                    stroke-linejoin="round"
                    stroke-width="2"
                />
      </g>
      <g id="Graphic_20">
        <text transform="translate(174.5 253.5)" fill="black">
          <tspan
                        font-family="Noto Sans Display"
                        font-size="16"
                        font-weight="400"
                        fill="black"
                        x="0"
                        y="15"
                    >update</tspan>
        </text>
      </g>
      <g id="Graphic_21">
        <text transform="translate(173.61719 382.948)" fill="black">
          <tspan
                        font-family="Noto Sans Display"
                        font-size="16"
                        font-weight="400"
                        fill="black"
                        x="0"
                        y="15"
                    >publish</tspan>
        </text>
      </g>
      <g id="Graphic_22">
        <text transform="translate(44.683844 208)" fill="black">
          <tspan
                        font-family="Noto Sans Display"
                        font-size="16"
                        font-weight="400"
                        fill="black"
                        x="0"
                        y="15"
                    >doOpA</tspan>
        </text>
      </g>
      <g id="Graphic_27">
        <path
                    d="M 66.25025 167.5 L 214.82003 167.5 C 217.02916 167.5 218.82003 169.29086 218.82003 171.5 L 218.82003 199 C 218.82003 201.20914 217.02916 203 214.82003 203 L 66.25025 203 C 64.04111 203 62.25025 201.20914 62.25025 199 L 62.25025 171.5 C 62.25025 169.29086 64.04111 167.5 66.25025 167.5 Z"
                    fill="white"
                />
        <path
                    d="M 66.25025 167.5 L 214.82003 167.5 C 217.02916 167.5 218.82003 169.29086 218.82003 171.5 L 218.82003 199 C 218.82003 201.20914 217.02916 203 214.82003 203 L 66.25025 203 C 64.04111 203 62.25025 201.20914 62.25025 199 L 62.25025 171.5 C 62.25025 169.29086 64.04111 167.5 66.25025 167.5 Z"
                    stroke="#666"
                    stroke-linecap="round"
                    stroke-linejoin="round"
                    stroke-width="2"
                />
        <text transform="translate(67.25025 175.75)" fill="black">
          <tspan
                        font-family="Noto Sans Display"
                        font-size="16"
                        font-weight="400"
                        fill="black"
                        x="36.82786"
                        y="15"
                    >Process X</tspan>
        </text>
      </g>
    </g>
    <g id="crash_crash">
      <title>crash</title>
      <g id="Graphic_28">
        <text transform="translate(128.52928 313.27344)" fill="#b1001c">
          <tspan
                        font-family="Noto Sans Display"
                        font-size="36"
                        font-weight="700"
                        fill="#b1001c"
                        x="0"
                        y="35"
                    >X</tspan>
        </text>
      </g>
    </g>
  </g>
</svg>
