<?xml version="1.0" encoding="UTF-8" standalone="no" ?>
<!DOCTYPE svg PUBLIC "-//W3C//DTD SVG 1.1//EN"
    "http://www.w3.org/Graphics/SVG/1.1/DTD/svg11.dtd">
<svg
    xmlns="http://www.w3.org/2000/svg"
    version="1.1"
    xmlns:xl="http://www.w3.org/1999/xlink"
    xmlns:dc="http://purl.org/dc/elements/1.1/"
    viewBox="99 504 952 183"
    width="560"
    height="107"
>
<style>
  @import url('/LectureDoc2/ext/fonts/ld-fonts.css');
</style>
<defs>
    <filter id="Shadow" filterUnits="userSpaceOnUse" x="3.8" y="485.7">
      <feGaussianBlur in="SourceAlpha" result="blur" stdDeviation="1.308" />
      <feOffset in="blur" result="offset" dx="0" dy="2" />
      <feFlood flood-color="black" flood-opacity=".5" result="flood" />
      <feComposite in="flood" in2="offset" operator="in" result="color" />
      <feMerge>
        <feMergeNode in="color" />
        <feMergeNode in="SourceGraphic" />
      </feMerge>
    </filter>
    <marker
            orient="auto"
            overflow="visible"
            markerUnits="strokeWidth"
            id="FilledArrow_Marker"
            stroke-linejoin="miter"
            stroke-miterlimit="10"
            viewBox="-1 -3 7 6"
            markerWidth="7"
            markerHeight="6"
            color="black"
        >
      <g>
        <path
                    d="M 4.8 0 L 0 -1.8 L 0 1.8 Z"
                    fill="currentColor"
                    stroke="currentColor"
                    stroke-width="1"
                />
      </g>
    </marker>
  </defs>
  <metadata> Produced by OmniGraffle 8.0\n2025-05-09 19:04:38 +0000</metadata>
  <g
        id="secret_appended"
        stroke-dasharray="none"
        stroke="none"
        stroke-opacity="1"
        fill="none"
        fill-opacity="1"
    >
    <title>secret_appended</title>
    <rect fill="white" x="99" y="504" width="952" height="183" />
    <g id="secret_appended_Layer_1">
      <title>Layer 1</title>
      <g id="Graphic_61">
        <path
                    d="M 795.5 610 L 854.5 610 C 858.9183 610 862.5 613.5817 862.5 618 L 862.5 672 C 862.5 676.4183 858.9183 680 854.5 680 L 795.5 680 C 791.0817 680 787.5 676.4183 787.5 672 L 787.5 618 C 787.5 613.5817 791.0817 610 795.5 610 Z"
                    fill="#bd7ca5"
                    fill-opacity=".2690371"
                />
        <path
                    d="M 795.5 610 L 854.5 610 C 858.9183 610 862.5 613.5817 862.5 618 L 862.5 672 C 862.5 676.4183 858.9183 680 854.5 680 L 795.5 680 C 791.0817 680 787.5 676.4183 787.5 672 L 787.5 618 C 787.5 613.5817 791.0817 610 795.5 610 Z"
                    stroke="#a5a5a5"
                    stroke-linecap="round"
                    stroke-linejoin="round"
                    stroke-width="1"
                />
        <text transform="translate(787.5 630)" fill="black">
          <tspan
                        font-family="Noto Sans Display"
                        font-size="24"
                        font-weight="400"
                        fill="black"
                        x="31.08"
                        y="18"
                        xml:space="preserve"
                    >∥⃦⃦</tspan>
        </text>
      </g>
      <g id="Graphic_59">
        <path
                    d="M 443 605 L 452 605 C 456.4183 605 460 608.5817 460 613 L 460 667 C 460 671.4183 456.4183 675 452 675 L 443 675 C 438.5817 675 435 671.4183 435 667 L 435 613 C 435 608.5817 438.5817 605 443 605 Z"
                    fill="#98dde7"
                />
        <path
                    d="M 443 605 L 452 605 C 456.4183 605 460 608.5817 460 613 L 460 667 C 460 671.4183 456.4183 675 452 675 L 443 675 C 438.5817 675 435 671.4183 435 667 L 435 613 C 435 608.5817 438.5817 605 443 605 Z"
                    stroke="#a5a5a5"
                    stroke-linecap="round"
                    stroke-linejoin="round"
                    stroke-width="1"
                />
      </g>
      <g id="Graphic_52">
        <path
                    d="M 728 505 L 737 505 C 741.4183 505 745 508.5817 745 513 L 745 567 C 745 571.4183 741.4183 575 737 575 L 728 575 C 723.5817 575 720 571.4183 720 567 L 720 513 C 720 508.5817 723.5817 505 728 505 Z"
                    fill="#98dde7"
                />
        <path
                    d="M 728 505 L 737 505 C 741.4183 505 745 508.5817 745 513 L 745 567 C 745 571.4183 741.4183 575 737 575 L 728 575 C 723.5817 575 720 571.4183 720 567 L 720 513 C 720 508.5817 723.5817 505 728 505 Z"
                    stroke="#a5a5a5"
                    stroke-linecap="round"
                    stroke-linejoin="round"
                    stroke-width="1"
                />
      </g>
      <g id="Graphic_2">
        <path
                    d="M 108 505 L 292 505 C 296.41828 505 300 508.5817 300 513 L 300 567 C 300 571.4183 296.41828 575 292 575 L 108 575 C 103.58172 575 100 571.4183 100 567 L 100 513 C 100 508.5817 103.58172 505 108 505 Z"
                    fill="#6bd9a5"
                    fill-opacity=".2690371"
                />
        <path
                    d="M 108 505 L 292 505 C 296.41828 505 300 508.5817 300 513 L 300 567 C 300 571.4183 296.41828 575 292 575 L 108 575 C 103.58172 575 100 571.4183 100 567 L 100 513 C 100 508.5817 103.58172 505 108 505 Z"
                    stroke="#a5a5a5"
                    stroke-linecap="round"
                    stroke-linejoin="round"
                    stroke-width="1"
                />
        <text transform="translate(100 523.5)" fill="black">
          <tspan
                        font-family="Noto Sans Display"
                        font-size="24"
                        font-weight="400"
                        fill="black"
                        x="89.728"
                        y="26"
                        xml:space="preserve"
                    >M</tspan>
        </text>
      </g>
      <g id="Graphic_30">
        <path
                    d="M 343 610 L 402 610 C 406.4183 610 410 613.5817 410 618 L 410 672 C 410 676.4183 406.4183 680 402 680 L 343 680 C 338.58172 680 335 676.4183 335 672 L 335 618 C 335 613.5817 338.58172 610 343 610 Z"
                    fill="#6b7ca5"
                    fill-opacity=".2690371"
                />
        <path
                    d="M 343 610 L 402 610 C 406.4183 610 410 613.5817 410 618 L 410 672 C 410 676.4183 406.4183 680 402 680 L 343 680 C 338.58172 680 335 676.4183 335 672 L 335 618 C 335 613.5817 338.58172 610 343 610 Z"
                    stroke="#a5a5a5"
                    stroke-linecap="round"
                    stroke-linejoin="round"
                    stroke-width="1"
                />
        <text transform="translate(335 628.5)" fill="black">
          <tspan
                        font-family="Noto Sans Display"
                        font-size="24"
                        font-weight="400"
                        fill="black"
                        x="29.112"
                        y="26"
                        xml:space="preserve"
                    >H</tspan>
        </text>
      </g>
      <g id="Graphic_31">
        <path
                    d="M 418 505 L 477 505 C 481.4183 505 485 508.5817 485 513 L 485 567 C 485 571.4183 481.4183 575 477 575 L 418 575 C 413.5817 575 410 571.4183 410 567 L 410 513 C 410 508.5817 413.5817 505 418 505 Z"
                    fill="#bd7ca5"
                    fill-opacity=".2690371"
                />
        <path
                    d="M 418 505 L 477 505 C 481.4183 505 485 508.5817 485 513 L 485 567 C 485 571.4183 481.4183 575 477 575 L 418 575 C 413.5817 575 410 571.4183 410 567 L 410 513 C 410 508.5817 413.5817 505 418 505 Z"
                    stroke="#a5a5a5"
                    stroke-linecap="round"
                    stroke-linejoin="round"
                    stroke-width="1"
                />
        <text transform="translate(410 525)" fill="black">
          <tspan
                        font-family="Noto Sans Display"
                        font-size="24"
                        font-weight="400"
                        fill="black"
                        x="31.08"
                        y="18"
                        xml:space="preserve"
                    >∥⃦⃦</tspan>
        </text>
      </g>
      <g id="Line_33" filter="url(#Shadow)">
        <line
                    x1="300"
                    y1="540"
                    x2="397.1"
                    y2="540"
                    marker-end="url(#FilledArrow_Marker)"
                    stroke="black"
                    stroke-linecap="round"
                    stroke-linejoin="round"
                    stroke-width="2"
                />
      </g>
      <g id="Line_34" filter="url(#Shadow)">
        <path
                    d="M 410 645 L 439.5 645 C 443.9183 645 447.5 641.4183 447.5 637 L 447.5 587.9"
                    marker-end="url(#FilledArrow_Marker)"
                    stroke="black"
                    stroke-linecap="round"
                    stroke-linejoin="round"
                    stroke-width="2"
                />
      </g>
      <g id="Line_35" filter="url(#Shadow)">
        <path
                    d="M 200 575 L 200 619.5 C 200 623.9183 203.58172 627.5 208 627.5 L 217.1 627.5"
                    marker-end="url(#FilledArrow_Marker)"
                    stroke="black"
                    stroke-linecap="round"
                    stroke-linejoin="round"
                    stroke-width="2"
                />
      </g>
      <g id="Line_37" filter="url(#Shadow)">
        <line
                    x1="485"
                    y1="540"
                    x2="507.1"
                    y2="540"
                    marker-end="url(#FilledArrow_Marker)"
                    stroke="black"
                    stroke-linecap="round"
                    stroke-linejoin="round"
                    stroke-width="2"
                />
      </g>
      <g id="Graphic_41">
        <path
                    d="M 903 610 L 962 610 C 966.4183 610 970 613.5817 970 618 L 970 672 C 970 676.4183 966.4183 680 962 680 L 903 680 C 898.5817 680 895 676.4183 895 672 L 895 618 C 895 613.5817 898.5817 610 903 610 Z"
                    fill="#6b7ca5"
                    fill-opacity=".2690371"
                />
        <path
                    d="M 903 610 L 962 610 C 966.4183 610 970 613.5817 970 618 L 970 672 C 970 676.4183 966.4183 680 962 680 L 903 680 C 898.5817 680 895 676.4183 895 672 L 895 618 C 895 613.5817 898.5817 610 903 610 Z"
                    stroke="#a5a5a5"
                    stroke-linecap="round"
                    stroke-linejoin="round"
                    stroke-width="1"
                />
        <text transform="translate(895 628.5)" fill="black">
          <tspan
                        font-family="Noto Sans Display"
                        font-size="24"
                        font-weight="400"
                        fill="black"
                        x="29.112"
                        y="26"
                        xml:space="preserve"
                    >H</tspan>
        </text>
      </g>
      <g id="Line_43" filter="url(#Shadow)">
        <path
                    d="M 745 540 L 976.424 540 C 980.8423 540 984.424 543.5817 984.424 548 L 984.424 558.4038"
                    marker-end="url(#FilledArrow_Marker)"
                    stroke="black"
                    stroke-linecap="round"
                    stroke-linejoin="round"
                    stroke-width="2"
                />
      </g>
      <g id="Line_44" filter="url(#Shadow)">
        <path
                    d="M 970 645 L 976.424 645 C 980.8423 645 984.424 641.4183 984.424 637 L 984.424 627.2038"
                    marker-end="url(#FilledArrow_Marker)"
                    stroke="black"
                    stroke-linecap="round"
                    stroke-linejoin="round"
                    stroke-width="2"
                />
      </g>
      <g id="Graphic_46">
        <text transform="translate(923.788 576.3038)" fill="black">
          <tspan
                        font-family="Noto Sans Display"
                        font-size="24"
                        font-weight="700"
                        fill="black"
                        x="4192202e-19"
                        y="26"
                        xml:space="preserve"
                    >Vergleiche</tspan>
        </text>
      </g>
      <g id="Line_47" filter="url(#Shadow)">
        <path
                    d="M 620 575 L 620 619.5 C 620 623.9183 623.5817 627.5 628 627.5 L 774.6 627.5"
                    marker-end="url(#FilledArrow_Marker)"
                    stroke="black"
                    stroke-linecap="round"
                    stroke-linejoin="round"
                    stroke-width="2"
                />
      </g>
      <g id="Graphic_48">
        <text transform="translate(171.7999 649)" fill="black">
          <tspan
                        font-family="Noto Sans Display"
                        font-size="24"
                        font-weight="400"
                        fill="black"
                        x="0"
                        y="26"
                        xml:space="preserve"
                    >S</tspan>
        </text>
      </g>
      <g id="Graphic_53">
        <path
                    d="M 528 505 L 712 505 C 716.4183 505 720 508.5817 720 513 L 720 567 C 720 571.4183 716.4183 575 712 575 L 528 575 C 523.5817 575 520 571.4183 520 567 L 520 513 C 520 508.5817 523.5817 505 528 505 Z"
                    fill="#6bd9a5"
                    fill-opacity=".2690371"
                />
        <path
                    d="M 528 505 L 712 505 C 716.4183 505 720 508.5817 720 513 L 720 567 C 720 571.4183 716.4183 575 712 575 L 528 575 C 523.5817 575 520 571.4183 520 567 L 520 513 C 520 508.5817 523.5817 505 528 505 Z"
                    stroke="#a5a5a5"
                    stroke-linecap="round"
                    stroke-linejoin="round"
                    stroke-width="1"
                />
        <text transform="translate(520 523.5)" fill="black">
          <tspan
                        font-family="Noto Sans Display"
                        font-size="24"
                        font-weight="400"
                        fill="black"
                        x="89.728"
                        y="26"
                        xml:space="preserve"
                    >M</tspan>
        </text>
      </g>
      <g id="Graphic_54">
        <text transform="translate(639.8504 595)" fill="black">
          <tspan
                        font-family="Noto Sans Display"
                        font-size="24"
                        font-weight="400"
                        fill="black"
                        x="36.948"
                        y="26"
                        xml:space="preserve"
                    >H(M </tspan>
          <tspan
                        font-family="Noto Sans Display"
                        font-size="24"
                        font-weight="400"
                        fill="black"
                        y="26"
                        xml:space="preserve"
                    >∥⃦⃦</tspan>
          <tspan
                        font-family="Noto Sans Display"
                        font-size="12"
                        font-weight="400"
                        fill="black"
                        y="26"
                        xml:space="preserve"
                    > </tspan>
          <tspan
                        font-family="Noto Sans Display"
                        font-size="24"
                        font-weight="400"
                        fill="black"
                        y="26"
                        xml:space="preserve"
                    >S))</tspan>
        </text>
      </g>
      <g id="Line_55">
        <line
                    x1="727.88125"
                    y1="574.99914"
                    x2="725.2418"
                    y2="595"
                    stroke="black"
                    stroke-linecap="round"
                    stroke-linejoin="round"
                    stroke-dasharray="8.0,8.0"
                    stroke-width="2"
                />
      </g>
      <g id="Graphic_56">
        <path
                    d="M 238 610 L 297 610 C 301.41828 610 305 613.5817 305 618 L 305 672 C 305 676.4183 301.41828 680 297 680 L 238 680 C 233.58172 680 230 676.4183 230 672 L 230 618 C 230 613.5817 233.58172 610 238 610 Z"
                    fill="#bd7ca5"
                    fill-opacity=".2690371"
                />
        <path
                    d="M 238 610 L 297 610 C 301.41828 610 305 613.5817 305 618 L 305 672 C 305 676.4183 301.41828 680 297 680 L 238 680 C 233.58172 680 230 676.4183 230 672 L 230 618 C 230 613.5817 233.58172 610 238 610 Z"
                    stroke="#a5a5a5"
                    stroke-linecap="round"
                    stroke-linejoin="round"
                    stroke-width="1"
                />
        <text transform="translate(230 630)" fill="black">
          <tspan
                        font-family="Noto Sans Display"
                        font-size="24"
                        font-weight="400"
                        fill="black"
                        x="31.08"
                        y="18"
                        xml:space="preserve"
                    >∥⃦⃦</tspan>
        </text>
      </g>
      <g id="Line_57" filter="url(#Shadow)">
        <line
                    x1="189.2079"
                    y1="664.8536"
                    x2="216.62225"
                    y2="663.27185"
                    marker-end="url(#FilledArrow_Marker)"
                    stroke="black"
                    stroke-linecap="round"
                    stroke-linejoin="round"
                    stroke-width="2"
                />
      </g>
      <g id="Line_58" filter="url(#Shadow)">
        <line
                    x1="305"
                    y1="645"
                    x2="322.1"
                    y2="645"
                    marker-end="url(#FilledArrow_Marker)"
                    stroke="black"
                    stroke-linecap="round"
                    stroke-linejoin="round"
                    stroke-width="2"
                />
      </g>
      <g id="Graphic_62">
        <text transform="translate(709.2999 649)" fill="black">
          <tspan
                        font-family="Noto Sans Display"
                        font-size="24"
                        font-weight="400"
                        fill="black"
                        x="0"
                        y="26"
                        xml:space="preserve"
                    >S</tspan>
        </text>
      </g>
      <g id="Line_60" filter="url(#Shadow)">
        <line
                    x1="726.7079"
                    y1="665.03314"
                    x2="774.6112"
                    y2="663.0371"
                    marker-end="url(#FilledArrow_Marker)"
                    stroke="black"
                    stroke-linecap="round"
                    stroke-linejoin="round"
                    stroke-width="2"
                />
      </g>
      <g id="Line_63" filter="url(#Shadow)">
        <line
                    x1="862.5"
                    y1="645"
                    x2="882.1"
                    y2="645"
                    marker-end="url(#FilledArrow_Marker)"
                    stroke="black"
                    stroke-linecap="round"
                    stroke-linejoin="round"
                    stroke-width="2"
                />
      </g>
    </g>
  </g>
</svg>
