<?xml version="1.0" encoding="UTF-8" standalone="no" ?>
<!DOCTYPE svg PUBLIC "-//W3C//DTD SVG 1.1//EN"
    "http://www.w3.org/Graphics/SVG/1.1/DTD/svg11.dtd">
<svg
    xmlns="http://www.w3.org/2000/svg"
    version="1.1"
    xmlns:xl="http://www.w3.org/1999/xlink"
    xmlns:dc="http://purl.org/dc/elements/1.1/"
    viewBox="99 509 938 490"
    width="551"
    height="288"
>
<style>
  @import url('/LectureDoc2/ext/fonts/ld-fonts.css');
</style>
  <defs>
    <filter id="Shadow" filterUnits="userSpaceOnUse" x="5.2" y="460">
      <feGaussianBlur in="SourceAlpha" result="blur" stdDeviation="1.308" />
      <feOffset in="blur" result="offset" dx="0" dy="2" />
      <feFlood flood-color="black" flood-opacity=".5" result="flood" />
      <feComposite in="flood" in2="offset" operator="in" result="color" />
      <feMerge>
        <feMergeNode in="color" />
        <feMergeNode in="SourceGraphic" />
      </feMerge>
    </filter>
    <marker
            orient="auto"
            overflow="visible"
            markerUnits="strokeWidth"
            id="FilledArrow_Marker"
            stroke-linejoin="miter"
            stroke-miterlimit="10"
            viewBox="-1 -3 7 6"
            markerWidth="7"
            markerHeight="6"
            color="black"
        >
      <g>
        <path
                    d="M 4.8 0 L 0 -1.8 L 0 1.8 Z"
                    fill="currentColor"
                    stroke="currentColor"
                    stroke-width="1"
                />
      </g>
    </marker>
    <marker
            orient="auto"
            overflow="visible"
            markerUnits="strokeWidth"
            id="SharpArrow_Marker"
            stroke-linejoin="miter"
            stroke-miterlimit="10"
            viewBox="-3 -3 7 6"
            markerWidth="7"
            markerHeight="6"
            color="#666"
        >
      <g>
        <path
                    d="M 3 0 L -1.8 -1.8 L 0 0 L 0 0 L -1.8 1.8 Z"
                    fill="currentColor"
                    stroke="currentColor"
                    stroke-width="1"
                />
      </g>
    </marker>
  </defs>
  <metadata> Produced by OmniGraffle 8.0\n2025-05-09 19:04:38 +0000</metadata>
  <g
        id="secret_encrypted"
        stroke-dasharray="none"
        stroke="none"
        stroke-opacity="1"
        fill="none"
        fill-opacity="1"
    >
    <title>secret_encrypted</title>
    <rect fill="white" x="99" y="509" width="938" height="490" />
    <g id="secret_encrypted_Layer_1">
      <title>Layer 1</title>
      <g id="Graphic_61">
        <path
                    d="M 783 925 L 842 925 C 846.4183 925 850 928.5817 850 933 L 850 987 C 850 991.4183 846.4183 995 842 995 L 783 995 C 778.5817 995 775 991.4183 775 987 L 775 933 C 775 928.5817 778.5817 925 783 925 Z"
                    fill="#bd7ca5"
                    fill-opacity=".2690371"
                />
        <path
                    d="M 783 925 L 842 925 C 846.4183 925 850 928.5817 850 933 L 850 987 C 850 991.4183 846.4183 995 842 995 L 783 995 C 778.5817 995 775 991.4183 775 987 L 775 933 C 775 928.5817 778.5817 925 783 925 Z"
                    stroke="#a5a5a5"
                    stroke-linecap="round"
                    stroke-linejoin="round"
                    stroke-width="1"
                />
        <text transform="translate(775 945)" fill="black">
          <tspan
                        font-family="Noto Sans Display"
                        font-size="24"
                        font-weight="400"
                        fill="black"
                        x="31.08"
                        y="18"
                        xml:space="preserve"
                    >∥⃦⃦</tspan>
        </text>
      </g>
      <g id="Graphic_59">
        <path
                    d="M 443 605 L 452 605 C 456.4183 605 460 608.5817 460 613 L 460 667 C 460 671.4183 456.4183 675 452 675 L 443 675 C 438.5817 675 435 671.4183 435 667 L 435 613 C 435 608.5817 438.5817 605 443 605 Z"
                    fill="#98dde7"
                />
        <path
                    d="M 443 605 L 452 605 C 456.4183 605 460 608.5817 460 613 L 460 667 C 460 671.4183 456.4183 675 452 675 L 443 675 C 438.5817 675 435 671.4183 435 667 L 435 613 C 435 608.5817 438.5817 605 443 605 Z"
                    stroke="#a5a5a5"
                    stroke-linecap="round"
                    stroke-linejoin="round"
                    stroke-width="1"
                />
      </g>
      <g id="Graphic_52">
        <path
                    d="M 833 810 L 842 810 C 846.4183 810 850 813.5817 850 818 L 850 872 C 850 876.4183 846.4183 880 842 880 L 833 880 C 828.5817 880 825 876.4183 825 872 L 825 818 C 825 813.5817 828.5817 810 833 810 Z"
                    fill="#98dde7"
                />
        <path
                    d="M 833 810 L 842 810 C 846.4183 810 850 813.5817 850 818 L 850 872 C 850 876.4183 846.4183 880 842 880 L 833 880 C 828.5817 880 825 876.4183 825 872 L 825 818 C 825 813.5817 828.5817 810 833 810 Z"
                    stroke="#a5a5a5"
                    stroke-linecap="round"
                    stroke-linejoin="round"
                    stroke-width="1"
                />
      </g>
      <g id="Graphic_2">
        <path
                    d="M 108 510 L 292 510 C 296.41828 510 300 513.5817 300 518 L 300 572 C 300 576.4183 296.41828 580 292 580 L 108 580 C 103.58172 580 100 576.4183 100 572 L 100 518 C 100 513.5817 103.58172 510 108 510 Z"
                    fill="#6bd9a5"
                    fill-opacity=".2690371"
                />
        <path
                    d="M 108 510 L 292 510 C 296.41828 510 300 513.5817 300 518 L 300 572 C 300 576.4183 296.41828 580 292 580 L 108 580 C 103.58172 580 100 576.4183 100 572 L 100 518 C 100 513.5817 103.58172 510 108 510 Z"
                    stroke="#a5a5a5"
                    stroke-linecap="round"
                    stroke-linejoin="round"
                    stroke-width="1"
                />
        <text transform="translate(100 528.5)" fill="black">
          <tspan
                        font-family="Noto Sans Display"
                        font-size="24"
                        font-weight="400"
                        fill="black"
                        x="89.728"
                        y="26"
                        xml:space="preserve"
                    >M</tspan>
        </text>
      </g>
      <g id="Graphic_30">
        <path
                    d="M 343 610 L 402 610 C 406.4183 610 410 613.5817 410 618 L 410 672 C 410 676.4183 406.4183 680 402 680 L 343 680 C 338.58172 680 335 676.4183 335 672 L 335 618 C 335 613.5817 338.58172 610 343 610 Z"
                    fill="#6b7ca5"
                    fill-opacity=".2690371"
                />
        <path
                    d="M 343 610 L 402 610 C 406.4183 610 410 613.5817 410 618 L 410 672 C 410 676.4183 406.4183 680 402 680 L 343 680 C 338.58172 680 335 676.4183 335 672 L 335 618 C 335 613.5817 338.58172 610 343 610 Z"
                    stroke="#a5a5a5"
                    stroke-linecap="round"
                    stroke-linejoin="round"
                    stroke-width="1"
                />
        <text transform="translate(335 628.5)" fill="black">
          <tspan
                        font-family="Noto Sans Display"
                        font-size="24"
                        font-weight="400"
                        fill="black"
                        x="29.112"
                        y="26"
                        xml:space="preserve"
                    >H</tspan>
        </text>
      </g>
      <g id="Graphic_31">
        <path
                    d="M 418 510 L 477 510 C 481.4183 510 485 513.5817 485 518 L 485 572 C 485 576.4183 481.4183 580 477 580 L 418 580 C 413.5817 580 410 576.4183 410 572 L 410 518 C 410 513.5817 413.5817 510 418 510 Z"
                    fill="#bd7ca5"
                    fill-opacity=".2690371"
                />
        <path
                    d="M 418 510 L 477 510 C 481.4183 510 485 513.5817 485 518 L 485 572 C 485 576.4183 481.4183 580 477 580 L 418 580 C 413.5817 580 410 576.4183 410 572 L 410 518 C 410 513.5817 413.5817 510 418 510 Z"
                    stroke="#a5a5a5"
                    stroke-linecap="round"
                    stroke-linejoin="round"
                    stroke-width="1"
                />
        <text transform="translate(410 530)" fill="black">
          <tspan
                        font-family="Noto Sans Display"
                        font-size="24"
                        font-weight="400"
                        fill="black"
                        x="31.08"
                        y="18"
                        xml:space="preserve"
                    >∥⃦⃦</tspan>
        </text>
      </g>
      <g id="Line_33" filter="url(#Shadow)">
        <line
                    x1="300"
                    y1="545"
                    x2="397.1"
                    y2="545"
                    marker-end="url(#FilledArrow_Marker)"
                    stroke="black"
                    stroke-linecap="round"
                    stroke-linejoin="round"
                    stroke-width="2"
                />
      </g>
      <g id="Line_34" filter="url(#Shadow)">
        <path
                    d="M 410 645 L 439.5 645 C 443.9183 645 447.5 641.4183 447.5 637 L 447.5 592.9"
                    marker-end="url(#FilledArrow_Marker)"
                    stroke="black"
                    stroke-linecap="round"
                    stroke-linejoin="round"
                    stroke-width="2"
                />
      </g>
      <g id="Line_35" filter="url(#Shadow)">
        <path
                    d="M 200 580 L 200 619.5 C 200 623.9183 203.58172 627.5 208 627.5 L 217.1 627.5"
                    marker-end="url(#FilledArrow_Marker)"
                    stroke="black"
                    stroke-linecap="round"
                    stroke-linejoin="round"
                    stroke-width="2"
                />
      </g>
      <g id="Line_37" filter="url(#Shadow)">
        <line
                    x1="485"
                    y1="545"
                    x2="502.1"
                    y2="545"
                    marker-end="url(#FilledArrow_Marker)"
                    stroke="black"
                    stroke-linecap="round"
                    stroke-linejoin="round"
                    stroke-width="2"
                />
      </g>
      <g id="Graphic_41">
        <path
                    d="M 883 925 L 942 925 C 946.4183 925 950 928.5817 950 933 L 950 987 C 950 991.4183 946.4183 995 942 995 L 883 995 C 878.5817 995 875 991.4183 875 987 L 875 933 C 875 928.5817 878.5817 925 883 925 Z"
                    fill="#6b7ca5"
                    fill-opacity=".2690371"
                />
        <path
                    d="M 883 925 L 942 925 C 946.4183 925 950 928.5817 950 933 L 950 987 C 950 991.4183 946.4183 995 942 995 L 883 995 C 878.5817 995 875 991.4183 875 987 L 875 933 C 875 928.5817 878.5817 925 883 925 Z"
                    stroke="#a5a5a5"
                    stroke-linecap="round"
                    stroke-linejoin="round"
                    stroke-width="1"
                />
        <text transform="translate(875 943.5)" fill="black">
          <tspan
                        font-family="Noto Sans Display"
                        font-size="24"
                        font-weight="400"
                        fill="black"
                        x="29.112"
                        y="26"
                        xml:space="preserve"
                    >H</tspan>
        </text>
      </g>
      <g id="Line_43" filter="url(#Shadow)">
        <path
                    d="M 850 845 L 962.636 845 C 967.0543 845 970.636 848.5817 970.636 853 L 970.636 862.1"
                    marker-end="url(#FilledArrow_Marker)"
                    stroke="black"
                    stroke-linecap="round"
                    stroke-linejoin="round"
                    stroke-width="2"
                />
      </g>
      <g id="Line_44" filter="url(#Shadow)">
        <path
                    d="M 950 960 L 962.636 960 C 967.0543 960 970.636 956.4183 970.636 952 L 970.636 930.9"
                    marker-end="url(#FilledArrow_Marker)"
                    stroke="black"
                    stroke-linecap="round"
                    stroke-linejoin="round"
                    stroke-width="2"
                />
      </g>
      <g id="Graphic_46">
        <text transform="translate(910 880)" fill="black">
          <tspan
                        font-family="Noto Sans Display"
                        font-size="24"
                        font-weight="700"
                        fill="black"
                        x="4192202e-19"
                        y="26"
                        xml:space="preserve"
                    >Vergleiche</tspan>
        </text>
      </g>
      <g id="Line_47" filter="url(#Shadow)">
        <path
                    d="M 725 880 L 725 934.5 C 725 938.9183 728.5817 942.5 733 942.5 L 762.1 942.5"
                    marker-end="url(#FilledArrow_Marker)"
                    stroke="black"
                    stroke-linecap="round"
                    stroke-linejoin="round"
                    stroke-width="2"
                />
      </g>
      <g id="Graphic_48">
        <text transform="translate(171.7999 649)" fill="black">
          <tspan
                        font-family="Noto Sans Display"
                        font-size="24"
                        font-weight="400"
                        fill="black"
                        x="0"
                        y="26"
                        xml:space="preserve"
                    >S</tspan>
        </text>
      </g>
      <g id="Graphic_53">
        <path
                    d="M 633 810 L 817 810 C 821.4183 810 825 813.5817 825 818 L 825 872 C 825 876.4183 821.4183 880 817 880 L 633 880 C 628.5817 880 625 876.4183 625 872 L 625 818 C 625 813.5817 628.5817 810 633 810 Z"
                    fill="#6bd9a5"
                    fill-opacity=".2690371"
                />
        <path
                    d="M 633 810 L 817 810 C 821.4183 810 825 813.5817 825 818 L 825 872 C 825 876.4183 821.4183 880 817 880 L 633 880 C 628.5817 880 625 876.4183 625 872 L 625 818 C 625 813.5817 628.5817 810 633 810 Z"
                    stroke="#a5a5a5"
                    stroke-linecap="round"
                    stroke-linejoin="round"
                    stroke-width="1"
                />
        <text transform="translate(625 828.5)" fill="black">
          <tspan
                        font-family="Noto Sans Display"
                        font-size="24"
                        font-weight="400"
                        fill="black"
                        x="89.728"
                        y="26"
                        xml:space="preserve"
                    >M</tspan>
        </text>
      </g>
      <g id="Graphic_54">
        <text transform="translate(724.232 890)" fill="black">
          <tspan
                        font-family="Noto Sans Display"
                        font-size="24"
                        font-weight="400"
                        fill="black"
                        x="36.948"
                        y="26"
                        xml:space="preserve"
                    >H(M </tspan>
          <tspan
                        font-family="Noto Sans Display"
                        font-size="24"
                        font-weight="400"
                        fill="black"
                        y="26"
                        xml:space="preserve"
                    >∥⃦⃦</tspan>
          <tspan
                        font-family="Noto Sans Display"
                        font-size="12"
                        font-weight="400"
                        fill="black"
                        y="26"
                        xml:space="preserve"
                    > </tspan>
          <tspan
                        font-family="Noto Sans Display"
                        font-size="24"
                        font-weight="400"
                        fill="black"
                        y="26"
                        xml:space="preserve"
                    >S))</tspan>
        </text>
      </g>
      <g id="Line_55">
        <line
                    x1="825"
                    y1="871.3296"
                    x2="816.1363"
                    y2="890"
                    stroke="black"
                    stroke-linecap="round"
                    stroke-linejoin="round"
                    stroke-dasharray="8.0,8.0"
                    stroke-width="2"
                />
      </g>
      <g id="Graphic_56">
        <path
                    d="M 238 610 L 297 610 C 301.41828 610 305 613.5817 305 618 L 305 672 C 305 676.4183 301.41828 680 297 680 L 238 680 C 233.58172 680 230 676.4183 230 672 L 230 618 C 230 613.5817 233.58172 610 238 610 Z"
                    fill="#bd7ca5"
                    fill-opacity=".2690371"
                />
        <path
                    d="M 238 610 L 297 610 C 301.41828 610 305 613.5817 305 618 L 305 672 C 305 676.4183 301.41828 680 297 680 L 238 680 C 233.58172 680 230 676.4183 230 672 L 230 618 C 230 613.5817 233.58172 610 238 610 Z"
                    stroke="#a5a5a5"
                    stroke-linecap="round"
                    stroke-linejoin="round"
                    stroke-width="1"
                />
        <text transform="translate(230 630)" fill="black">
          <tspan
                        font-family="Noto Sans Display"
                        font-size="24"
                        font-weight="400"
                        fill="black"
                        x="31.08"
                        y="18"
                    >∥⃦⃦</tspan>
        </text>
      </g>
      <g id="Line_57" filter="url(#Shadow)">
        <line
                    x1="189.2079"
                    y1="664.8536"
                    x2="216.62225"
                    y2="663.27185"
                    marker-end="url(#FilledArrow_Marker)"
                    stroke="black"
                    stroke-linecap="round"
                    stroke-linejoin="round"
                    stroke-width="2"
                />
      </g>
      <g id="Line_58" filter="url(#Shadow)">
        <line
                    x1="305"
                    y1="645"
                    x2="322.1"
                    y2="645"
                    marker-end="url(#FilledArrow_Marker)"
                    stroke="black"
                    stroke-linecap="round"
                    stroke-linejoin="round"
                    stroke-width="2"
                />
      </g>
      <g id="Graphic_62">
        <text transform="translate(695 960.7573)" fill="black">
          <tspan
                        font-family="Noto Sans Display"
                        font-size="24"
                        font-weight="400"
                        fill="black"
                        x="0"
                        y="26"
                        xml:space="preserve"
                    >S</tspan>
        </text>
      </g>
      <g id="Line_60" filter="url(#Shadow)">
        <line
                    x1="712.408"
                    y1="977.2942"
                    x2="761.6001"
                    y2="977.4559"
                    marker-end="url(#FilledArrow_Marker)"
                    stroke="black"
                    stroke-linecap="round"
                    stroke-linejoin="round"
                    stroke-width="2"
                />
      </g>
      <g id="Line_63" filter="url(#Shadow)">
        <line
                    x1="850"
                    y1="960"
                    x2="862.1"
                    y2="960"
                    marker-end="url(#FilledArrow_Marker)"
                    stroke="black"
                    stroke-linecap="round"
                    stroke-linejoin="round"
                    stroke-width="2"
                />
      </g>
      <g id="Graphic_72">
        <path
                    d="M 448 710 L 657 710 C 661.4183 710 665 713.5817 665 718 L 665 772 C 665 776.4183 661.4183 780 657 780 L 448 780 C 443.5817 780 440 776.4183 440 772 L 440 718 C 440 713.5817 443.5817 710 448 710 Z"
                    fill="#fde6e5"
                />
        <path
                    d="M 448 710 L 657 710 C 661.4183 710 665 713.5817 665 718 L 665 772 C 665 776.4183 661.4183 780 657 780 L 448 780 C 443.5817 780 440 776.4183 440 772 L 440 718 C 440 713.5817 443.5817 710 448 710 Z"
                    stroke="#a5a5a5"
                    stroke-linecap="round"
                    stroke-linejoin="round"
                    stroke-width="1"
                />
        <text transform="translate(440 726)" fill="black">
          <tspan
                        font-family="Noto Sans Display"
                        font-size="24"
                        font-weight="400"
                        fill="black"
                        x="16.836"
                        y="26"
                    >E(K,[M</tspan>
          <tspan
                        font-family="Noto Sans Display"
                        font-size="12"
                        font-weight="400"
                        fill="black"
                        y="26"
                        xml:space="preserve"
                    > </tspan>
          <tspan
                        font-family="Noto Sans Display"
                        font-size="24"
                        font-weight="400"
                        fill="black"
                        y="26"
                        xml:space="preserve"
                    >∥⃦⃦</tspan>
          <tspan
                        font-family="Noto Sans Display"
                        font-size="24"
                        font-weight="400"
                        fill="black"
                        y="26"
                    >H(M</tspan>
          <tspan
                        font-family="Noto Sans Display"
                        font-size="24"
                        font-weight="400"
                        fill="black"
                        y="26"
                    >∥⃦⃦</tspan>
          <tspan
                        font-family="Noto Sans Display"
                        font-size="24"
                        font-weight="400"
                        fill="black"
                        y="26"
                    >S)])</tspan>
        </text>
      </g>
      <g id="Graphic_71">
        <path
                    d="M 523 510 L 582 510 C 586.4183 510 590 513.5817 590 518 L 590 572 C 590 576.4183 586.4183 580 582 580 L 523 580 C 518.5817 580 515 576.4183 515 572 L 515 518 C 515 513.5817 518.5817 510 523 510 Z"
                    fill="#f26077"
                    fill-opacity=".63017696"
                />
        <path
                    d="M 523 510 L 582 510 C 586.4183 510 590 513.5817 590 518 L 590 572 C 590 576.4183 586.4183 580 582 580 L 523 580 C 518.5817 580 515 576.4183 515 572 L 515 518 C 515 513.5817 518.5817 510 523 510 Z"
                    stroke="#a5a5a5"
                    stroke-linecap="round"
                    stroke-linejoin="round"
                    stroke-width="1"
                />
        <text transform="translate(515 528.5)" fill="black">
          <tspan
                        font-family="Noto Sans Display"
                        font-size="24"
                        font-weight="400"
                        fill="black"
                        x="31.224"
                        y="26"
                        xml:space="preserve"
                    >E</tspan>
        </text>
      </g>
      <g id="Line_70" filter="url(#Shadow)">
        <line
                    x1="552.5"
                    y1="580"
                    x2="552.5"
                    y2="697.1"
                    marker-end="url(#FilledArrow_Marker)"
                    stroke="black"
                    stroke-linecap="round"
                    stroke-linejoin="round"
                    stroke-width="2"
                />
      </g>
      <g id="Graphic_69">
        <path
                    d="M 523 810 L 582 810 C 586.4183 810 590 813.5817 590 818 L 590 872 C 590 876.4183 586.4183 880 582 880 L 523 880 C 518.5817 880 515 876.4183 515 872 L 515 818 C 515 813.5817 518.5817 810 523 810 Z"
                    fill="#faa82e"
                    fill-opacity=".69467715"
                />
        <path
                    d="M 523 810 L 582 810 C 586.4183 810 590 813.5817 590 818 L 590 872 C 590 876.4183 586.4183 880 582 880 L 523 880 C 518.5817 880 515 876.4183 515 872 L 515 818 C 515 813.5817 518.5817 810 523 810 Z"
                    stroke="#a5a5a5"
                    stroke-linecap="round"
                    stroke-linejoin="round"
                    stroke-width="1"
                />
        <text transform="translate(515 828.5)" fill="black">
          <tspan
                        font-family="Noto Sans Display"
                        font-size="24"
                        font-weight="400"
                        fill="black"
                        x="29.256"
                        y="26"
                        xml:space="preserve"
                    >D</tspan>
        </text>
      </g>
      <g id="Line_68" filter="url(#Shadow)">
        <line
                    x1="552.5"
                    y1="780"
                    x2="552.5"
                    y2="797.1"
                    marker-end="url(#FilledArrow_Marker)"
                    stroke="black"
                    stroke-linecap="round"
                    stroke-linejoin="round"
                    stroke-width="2"
                />
      </g>
      <g id="Line_67" filter="url(#Shadow)">
        <line
                    x1="590"
                    y1="845"
                    x2="612.1"
                    y2="845"
                    marker-end="url(#FilledArrow_Marker)"
                    stroke="black"
                    stroke-linecap="round"
                    stroke-linejoin="round"
                    stroke-width="2"
                />
      </g>
      <g id="Graphic_66">
        <text transform="translate(615.9839 600)" fill="#666">
          <tspan
                        font-family="Noto Sans Display"
                        font-size="24"
                        font-weight="400"
                        fill="#666"
                        x="4360956e-19"
                        y="26"
                        xml:space="preserve"
                    >K</tspan>
        </text>
      </g>
      <g id="Graphic_65">
        <text transform="translate(470.9839 905)" fill="#666">
          <tspan
                        font-family="Noto Sans Display"
                        font-size="24"
                        font-weight="400"
                        fill="#666"
                        x="4360956e-19"
                        y="26"
                        xml:space="preserve"
                    >K</tspan>
        </text>
      </g>
      <g id="Line_64">
        <line
                    x1="490.0239"
                    y1="909.1567"
                    x2="512.8106"
                    y2="885.757"
                    marker-end="url(#SharpArrow_Marker)"
                    stroke="#666"
                    stroke-linecap="round"
                    stroke-linejoin="round"
                    stroke-width="2"
                />
      </g>
      <g id="Line_73">
        <line
                    x1="610.9839"
                    y1="604.3102"
                    x2="592.5024"
                    y2="585.5676"
                    marker-end="url(#SharpArrow_Marker)"
                    stroke="#666"
                    stroke-linecap="round"
                    stroke-linejoin="round"
                    stroke-width="2"
                />
      </g>
    </g>
  </g>
</svg>
