<?xml version="1.0" encoding="UTF-8" standalone="no"?>
<!DOCTYPE svg PUBLIC "-//W3C//DTD SVG 1.1//EN" "http://www.w3.org/Graphics/SVG/1.1/DTD/svg11.dtd">
<svg xmlns:dc="http://purl.org/dc/elements/1.1/" xmlns="http://www.w3.org/2000/svg" xmlns:xl="http://www.w3.org/1999/xlink" version="1.1" viewBox="163 -30.5 100 100" width="100" height="100">
  <defs>
    <filter id="Shadow" filterUnits="userSpaceOnUse" x="153" y="-40.5">
      <feGaussianBlur in="SourceAlpha" result="blur" stdDeviation=".872"/>
      <feOffset in="blur" result="offset" dx="1" dy="1"/>
      <feFlood flood-color="black" flood-opacity=".5" result="flood"/>
      <feComposite in="flood" in2="offset" operator="in" result="color"/>
      <feMerge>
        <feMergeNode in="color"/>
        <feMergeNode in="SourceGraphic"/>
      </feMerge>
    </filter>
  </defs>
  <metadata> Produced by OmniGraffle 8.0\n2024-01-21 10:30:37 +0000</metadata>
  <g id="Canvas_1" fill="none" stroke="none" stroke-dasharray="none" fill-opacity="1" stroke-opacity="1">
    <title>Canvas 1</title>
    <g id="Canvas_1_Layer_1">
      <title>Layer 1</title>
      <g id="Group_35">
        <g id="Graphic_7">
          <path d="M 163 -4.2991266 L 163 24.521834 L 163 43.299127 L 163 69.5 L 189.20087 69.5 L 218.02183 69.5 L 236.79913 69.5 C 251.26947 69.5 263 57.76947 263 43.299127 L 263 24.521834 L 263 -4.2991266 L 263 -30.5 L 236.79913 -30.5 L 218.02183 -30.5 L 189.20087 -30.5 L 163 -30.5 L 163 -4.2991266 L 163 24.521834 L 163 43.299127 M 236.79913 -30.5 L 218.02183 -30.5 L 189.20087 -30.5 M 163 -4.2991266 L 163 24.521834 M 189.20087 -30.5 L 163 -30.5 L 163 -4.2991266 M 218.02183 -30.5 L 189.20087 -30.5" fill="#a5a5a5"/>
        </g>
        <g id="Line_12" filter="url(#Shadow)">
          <line x1="169.89125" y1="54.15187" x2="255.89125" y2="54.15187" stroke="black" stroke-linecap="round" stroke-linejoin="round" stroke-width="3"/>
        </g>
        <g id="Line_13" filter="url(#Shadow)">
          <line x1="169.89125" y1="36.54875" x2="255.89125" y2="36.54875" stroke="black" stroke-linecap="round" stroke-linejoin="round" stroke-width="3"/>
        </g>
        <g id="Line_14" filter="url(#Shadow)">
          <line x1="169.94563" y1="19" x2="255.94563" y2="19" stroke="black" stroke-linecap="round" stroke-linejoin="round" stroke-width="3"/>
        </g>
        <g id="Line_15" filter="url(#Shadow)">
          <line x1="170" y1="1.451251" x2="256" y2="1.451251" stroke="black" stroke-linecap="round" stroke-linejoin="round" stroke-width="3"/>
        </g>
        <g id="Line_16" filter="url(#Shadow)">
          <line x1="170.05437" y1="-16.097498" x2="256.05437" y2="-16.097498" stroke="black" stroke-linecap="round" stroke-linejoin="round" stroke-width="3"/>
        </g>
      </g>
    </g>
  </g>
</svg>
