<?xml version="1.0" encoding="UTF-8" standalone="no" ?>
<!DOCTYPE svg PUBLIC "-//W3C//DTD SVG 1.1//EN"
    "http://www.w3.org/Graphics/SVG/1.1/DTD/svg11.dtd">
<svg
    xmlns:xl="http://www.w3.org/1999/xlink"
    xmlns="http://www.w3.org/2000/svg"
    version="1.1"
    xmlns:dc="http://purl.org/dc/elements/1.1/"
    viewBox="200 30 919 419"
width="2157"
height="1167"
>
<style>
  @import url('/LectureDoc2/ext/fonts/ld-fonts.css');
</style>
  <metadata> Produced by OmniGraffle 8.0\n2024-01-30 09:08:18 +0000</metadata>
  <g
        id="Canvas_1"
        stroke-opacity="1"
        stroke-dasharray="none"
        fill="none"
        stroke="none"
        fill-opacity="1"
    >
    <title>architecture</title>
    <g id="drawing-area_Master_layer">
      <title>Master layer</title>
      <g id="Graphic_2">
        <rect x="905" y="405" width="10" height="10" fill="white" />
      </g>
    </g>
    <g id="Canvas_1_controllers">
      <title>controllers</title>
      <g id="Line_143">
        <path
                    d="M 566.73805 357.29476 C 566.73805 357.29476 368.56466 389.13098 316.32198 303.15574 C 264.0793 217.1805 291.67607 103.87296 382.33368 53.822406 C 472.9913 3.771855 583.7735 40.97504 636.322 126.48907 C 688.8705 212.0031 567.81755 355.6668 567.81755 355.6668"
                    stroke="black"
                    stroke-linecap="round"
                    stroke-linejoin="round"
                    stroke-width="0"
                />
      </g>
      <g id="Graphic_168">
        <path
                    d="M 581.44066 95.86304 C 518.9568 33.37888 417.6506 33.37888 355.16674 95.86304 C 292.6826 158.34688 292.6826 259.65312 355.16674 322.13696 C 417.6506 384.6211 518.9568 384.6211 581.44066 322.13696 C 643.9248 259.65312 643.9248 158.34688 581.44066 95.86304 M 549.44884 128.74347 C 593.77354 173.06794 593.77354 244.93206 549.44884 289.25653 C 505.12436 333.58123 433.26025 333.58123 388.93578 289.25653 C 344.61107 244.93206 344.61107 173.06794 388.93578 128.74347 C 433.26025 84.41877 505.12436 84.41877 549.44884 128.74347"
                    fill="#d5d5d5"
                    fill-opacity=".34218177"
                />
        <path
                    d="M 581.44066 95.86304 C 518.9568 33.37888 417.6506 33.37888 355.16674 95.86304 C 292.6826 158.34688 292.6826 259.65312 355.16674 322.13696 C 417.6506 384.6211 518.9568 384.6211 581.44066 322.13696 C 643.9248 259.65312 643.9248 158.34688 581.44066 95.86304 M 549.44884 128.74347 C 593.77354 173.06794 593.77354 244.93206 549.44884 289.25653 C 505.12436 333.58123 433.26025 333.58123 388.93578 289.25653 C 344.61107 244.93206 344.61107 173.06794 388.93578 128.74347 C 433.26025 84.41877 505.12436 84.41877 549.44884 128.74347"
                    stroke="black"
                    stroke-linecap="round"
                    stroke-linejoin="round"
                    stroke-width="1"
                />
      </g>
      <g id="Graphic_128">
        <text fill="black">
          <path
                        d="M 477.359 350.5 C 477.359 350.5 340.1792 294.26052 337.34613 217.16667 C 334.5131 140.07281 390.29638 79.69892 467.359 78.37683 C 544.4216 77.05474 606.1482 135.59502 609.359 212.5 C 612.56976 289.405 478.6923 349.83333 478.6923 349.83333"
                        id="TextPath1"
                    />
          <textPath xl:href="#TextPath1" pathLength="835.099972597563">
            <tspan
                            font-family="Helvetica"
                            font-size="16"
                            font-weight="400"
                            fill="black"
                            x="383.57735"
                            y="0"
                        >Controllers</tspan>
          </textPath>
        </text>
      </g>
      <g id="Line_127">
        <path
                    d="M 477.359 350.5 C 477.359 350.5 340.1792 294.26052 337.34613 217.16667 C 334.5131 140.07281 390.29638 79.69892 467.359 78.37683 C 544.4216 77.05474 606.1482 135.59502 609.359 212.5 C 612.56976 289.405 478.6923 349.83333 478.6923 349.83333"
                    stroke="black"
                    stroke-linecap="round"
                    stroke-linejoin="round"
                    stroke-width="0"
                />
      </g>
      <g id="Graphic_126">
        <text fill="black">
          <path
                        d="M 326.6923 221.8205 C 326.6923 221.8205 387.24303 85.98165 464.302 83 C 541.36095 80.01835 599.9195 138.0144 598.6923 211.29596 C 597.4651 284.57752 536.84046 338.30727 459.97037 341.66667 C 383.1003 345.02606 327.35897 223.15383 327.35897 223.15383"
                        id="TextPath2"
                    />
          <textPath xl:href="#TextPath2" pathLength="814.25978370784">
            <tspan
                            font-family="Helvetica"
                            font-size="16"
                            font-weight="400"
                            fill="black"
                            x="373.0359"
                            y="0"
                        >Presenters</tspan>
          </textPath>
        </text>
      </g>
      <g id="Line_125">
        <path
                    d="M 326.6923 221.8205 C 326.6923 221.8205 387.24303 85.98165 464.302 83 C 541.36095 80.01835 599.9195 138.0144 598.6923 211.29596 C 597.4651 284.57752 536.84046 338.30727 459.97037 341.66667 C 383.1003 345.02606 327.35897 223.15383 327.35897 223.15383"
                    stroke="black"
                    stroke-linecap="round"
                    stroke-linejoin="round"
                    stroke-width="0"
                />
      </g>
      <g id="Graphic_124">
        <text fill="black">
          <path
                        d="M 566.0005 107.32905 C 566.0005 107.32905 656.955 216.61013 605.3037 274.5 C 553.6524 332.38987 446.46974 360.0646 383.6837 311.66667 C 320.89762 263.26873 332.43306 161.69009 383.6837 103.66667 C 434.9343 45.643246 564.5863 106.85764 564.5863 106.85764"
                        id="TextPath3"
                    />
          <textPath xl:href="#TextPath3" pathLength="857.946326079232">
            <tspan
                            font-family="Helvetica"
                            font-size="16"
                            font-weight="400"
                            fill="black"
                            x="398.2387"
                            y="0"
                        >Gateways</tspan>
          </textPath>
        </text>
      </g>
      <g id="Line_123">
        <path
                    d="M 566.0005 107.32905 C 566.0005 107.32905 656.955 216.61013 605.3037 274.5 C 553.6524 332.38987 446.46974 360.0646 383.6837 311.66667 C 320.89762 263.26873 332.43306 161.69009 383.6837 103.66667 C 434.9343 45.643246 564.5863 106.85764 564.5863 106.85764"
                    stroke="black"
                    stroke-linecap="round"
                    stroke-linejoin="round"
                    stroke-width="0"
                />
      </g>
    </g>
  </g>
</svg>
