<?xml version="1.0" encoding="UTF-8" standalone="no" ?>
<!DOCTYPE svg PUBLIC "-//W3C//DTD SVG 1.1//EN"
    "http://www.w3.org/Graphics/SVG/1.1/DTD/svg11.dtd">
<svg
    xmlns:xl="http://www.w3.org/1999/xlink"
    xmlns="http://www.w3.org/2000/svg"
    version="1.1"
    xmlns:dc="http://purl.org/dc/elements/1.1/"
    viewBox="200 30 919 419"
width="2157"
height="1167"
>
<style>
  @import url('/LectureDoc2/ext/fonts/ld-fonts.css');
</style>
  <metadata> Produced by OmniGraffle 8.0\n2024-01-30 09:07:56 +0000</metadata>
  <g
        id="Canvas_1"
        stroke-opacity="1"
        stroke-dasharray="none"
        fill="none"
        stroke="none"
        fill-opacity="1"
    >
    <title>architecture</title>
    <g id="drawing-area_Master_layer">
      <title>Master layer</title>
      <g id="Graphic_2">
        <rect x="905" y="405" width="10" height="10" fill="white" />
      </g>
    </g>
    <g id="Canvas_1_use-cases">
      <title>use-cases</title>
      <g id="Line_121">
        <path
                    d="M 566.73805 357.29476 C 566.73805 357.29476 368.56466 389.13098 316.32198 303.15574 C 264.0793 217.1805 291.67607 103.87296 382.33368 53.822406 C 472.9913 3.771855 583.7735 40.97504 636.322 126.48907 C 688.8705 212.0031 567.81755 355.6668 567.81755 355.6668"
                    stroke="black"
                    stroke-linecap="round"
                    stroke-linejoin="round"
                    stroke-width="0"
                />
      </g>
      <g id="Graphic_169">
        <path
                    d="M 549.44884 128.74347 C 505.12436 84.41877 433.26025 84.41877 388.93578 128.74347 C 344.61107 173.06794 344.61107 244.93206 388.93578 289.25653 C 433.26025 333.58123 505.12436 333.58123 549.44884 289.25653 C 593.77354 244.93206 593.77354 173.06794 549.44884 128.74347 M 515.50775 162.68456 C 541.0872 188.26388 541.0872 229.73612 515.50775 255.31544 C 489.9284 280.8949 448.4562 280.8949 422.87686 255.31544 C 397.2974 229.73612 397.2974 188.26388 422.87686 162.68456 C 448.4562 137.1051 489.9284 137.1051 515.50775 162.68456"
                    fill="#d5d5d5"
                    fill-opacity=".34218177"
                />
        <path
                    d="M 549.44884 128.74347 C 505.12436 84.41877 433.26025 84.41877 388.93578 128.74347 C 344.61107 173.06794 344.61107 244.93206 388.93578 289.25653 C 433.26025 333.58123 505.12436 333.58123 549.44884 289.25653 C 593.77354 244.93206 593.77354 173.06794 549.44884 128.74347 M 515.50775 162.68456 C 541.0872 188.26388 541.0872 229.73612 515.50775 255.31544 C 489.9284 280.8949 448.4562 280.8949 422.87686 255.31544 C 397.2974 229.73612 397.2974 188.26388 422.87686 162.68456 C 448.4562 137.1051 489.9284 137.1051 515.50775 162.68456"
                    stroke="black"
                    stroke-linecap="round"
                    stroke-linejoin="round"
                    stroke-width="1"
                />
      </g>
      <g id="Graphic_108">
        <text fill="black">
          <path
                        d="M 472.72304 308.5 C 472.72304 308.5 385.13957 267.2116 383.72304 216.5 C 382.3065 165.7884 419.2892 129.51132 467.72304 129.5 C 516.1569 129.48868 553.26656 166.03175 554.6831 216.46005 C 556.0996 266.88834 472.72304 307.5 472.72304 307.5"
                        id="TextPath1"
                    />
          <textPath xl:href="#TextPath1" pathLength="537.890804806995">
            <tspan
                            font-family="Noto Sans Display"
                            font-size="16"
                            font-weight="400"
                            fill="black"
                            x="232.45214"
                            y="0"
                        >Use Cases</tspan>
          </textPath>
        </text>
      </g>
      <g id="Line_107">
        <path
                    d="M 472.72304 308.5 C 472.72304 308.5 385.13957 267.2116 383.72304 216.5 C 382.3065 165.7884 419.2892 129.51132 467.72304 129.5 C 516.1569 129.48868 553.26656 166.03175 554.6831 216.46005 C 556.0996 266.88834 472.72304 307.5 472.72304 307.5"
                    stroke="black"
                    stroke-linecap="round"
                    stroke-linejoin="round"
                    stroke-width="0"
                />
      </g>
      <g id="Line_103">
        <path
                    d="M 326.6923 221.8205 C 326.6923 221.8205 387.24303 85.98165 464.302 83 C 541.36095 80.01835 599.9195 138.0144 598.6923 211.29596 C 597.4651 284.57752 536.84046 338.30727 459.97037 341.66667 C 383.1003 345.02606 327.35897 223.15383 327.35897 223.15383"
                    stroke="black"
                    stroke-linecap="round"
                    stroke-linejoin="round"
                    stroke-width="0"
                />
      </g>
      <g id="Line_101">
        <path
                    d="M 566.0005 107.32905 C 566.0005 107.32905 656.955 216.61013 605.3037 274.5 C 553.6524 332.38987 446.46974 360.0646 383.6837 311.66667 C 320.89762 263.26873 332.43306 161.69009 383.6837 103.66667 C 434.9343 45.643246 564.5863 106.85764 564.5863 106.85764"
                    stroke="black"
                    stroke-linecap="round"
                    stroke-linejoin="round"
                    stroke-width="0"
                />
      </g>
    </g>
  </g>
</svg>
