<?xml version="1.0" encoding="UTF-8" standalone="no" ?>
<!DOCTYPE svg PUBLIC "-//W3C//DTD SVG 1.1//EN"
    "http://www.w3.org/Graphics/SVG/1.1/DTD/svg11.dtd">
<svg
    xmlns:xl="http://www.w3.org/1999/xlink"
    xmlns:dc="http://purl.org/dc/elements/1.1/"
    xmlns="http://www.w3.org/2000/svg"
    version="1.1"
    viewBox="5 3.5 1101.5 463"
    width="1541"
    height="648"
>
<style>
  @import url('/LectureDoc2/ext/fonts/ld-fonts.css');
</style>
<defs>
<marker
            orient="auto"
            overflow="visible"
            markerUnits="strokeWidth"
            id="FilledArrow_Marker"
            stroke-linejoin="miter"
            stroke-miterlimit="10"
            viewBox="-1 -3 6 6"
            markerWidth="6"
            markerHeight="6"
            color="#a5a5a5"
        >
      <g>
        <path
                    d="M 3.7333333 0 L 0 -1.4 L 0 1.4 Z"
                    fill="currentColor"
                    stroke="currentColor"
                    stroke-width="1"
                />
      </g>
    </marker>
  </defs>
  <metadata> Produced by OmniGraffle 8.0\n2025-05-29 14:26:18 +0000</metadata>
  <g
        id="hmac_message_hashing"
        stroke="none"
        stroke-opacity="1"
        stroke-dasharray="none"
        fill-opacity="1"
        fill="none"
    >
    <title>hmac_message_hashing</title>
    <g id="hmac_message_hashing_Layer_1">
      <title>Layer 1</title>
      <g id="Group_25">
        <g id="Graphic_23">
          <path
                        d="M 133 25 L 317 25 C 321.41828 25 325 28.581722 325 33 L 325 87 C 325 91.41828 321.41828 95 317 95 L 133 95 C 128.58172 95 125 91.41828 125 87 L 125 33 C 125 28.581722 128.58172 25 133 25 Z"
                        fill="#ded4e8"
                        fill-opacity=".7503294"
                    />
          <path
                        d="M 133 25 L 317 25 C 321.41828 25 325 28.581722 325 33 L 325 87 C 325 91.41828 321.41828 95 317 95 L 133 95 C 128.58172 95 125 91.41828 125 87 L 125 33 C 125 28.581722 128.58172 25 133 25 Z"
                        stroke="#a5a5a5"
                        stroke-linecap="round"
                        stroke-linejoin="round"
                        stroke-width=".5"
                    />
        </g>
        <g id="Graphic_18">
          <path
                        d="M 333 25 L 542 25 C 546.4183 25 550 28.581722 550 33 L 550 87 C 550 91.41828 546.4183 95 542 95 L 333 95 C 328.58172 95 325 91.41828 325 87 L 325 33 C 325 28.581722 328.58172 25 333 25 Z"
                        fill="#fee7e6"
                    />
          <path
                        d="M 333 25 L 542 25 C 546.4183 25 550 28.581722 550 33 L 550 87 C 550 91.41828 546.4183 95 542 95 L 333 95 C 328.58172 95 325 91.41828 325 87 L 325 33 C 325 28.581722 328.58172 25 333 25 Z"
                        stroke="#a5a5a5"
                        stroke-linecap="round"
                        stroke-linejoin="round"
                        stroke-dasharray="2.0,2.0"
                        stroke-width=".5"
                    />
          <text transform="translate(330 25)" fill="#666">
            <tspan
                            font-family="Noto Sans Display"
                            font-size="16"
                            font-weight="400"
                            fill="#666"
                            x="63.15975"
                            y="17"
                            xml:space="preserve"
                        > ((B - len(key)) </tspan>
            <tspan
                            font-family="Noto Sans Display"
                            font-size="16"
                            font-weight="400"
                            fill="#666"
                            y="17"
                            xml:space="preserve"
                        >⨉</tspan>
            <tspan
                            font-family="Noto Sans Display"
                            font-size="16"
                            font-weight="400"
                            fill="#666"
                            y="17"
                            xml:space="preserve"
                        > 0x36)</tspan>
          </text>
        </g>
        <g id="Graphic_17">
          <path
                        d="M 133 25 L 542 25 C 546.4183 25 550 28.581722 550 33 L 550 87 C 550 91.41828 546.4183 95 542 95 L 133 95 C 128.58172 95 125 91.41828 125 87 L 125 33 C 125 28.581722 128.58172 25 133 25 Z"
                        stroke="#a5a5a5"
                        stroke-linecap="round"
                        stroke-linejoin="round"
                        stroke-width=".5"
                    />
          <text transform="translate(125 43.5)" fill="black">
            <tspan
                            font-family="Noto Sans Display"
                            font-size="24"
                            font-weight="400"
                            fill="black"
                            x="165.364"
                            y="26"
                            xml:space="preserve"
                        >i key pad</tspan>
          </text>
        </g>
      </g>
      <g id="Graphic_12">
        <path
                    d="M 133 265 L 317 265 C 321.41828 265 325 268.58172 325 273 L 325 327 C 325 331.41828 321.41828 335 317 335 L 133 335 C 128.58172 335 125 331.41828 125 327 L 125 273 C 125 268.58172 128.58172 265 133 265 Z"
                    fill="#73d4e8"
                    fill-opacity=".50628294"
                />
        <path
                    d="M 133 265 L 317 265 C 321.41828 265 325 268.58172 325 273 L 325 327 C 325 331.41828 321.41828 335 317 335 L 133 335 C 128.58172 335 125 331.41828 125 327 L 125 273 C 125 268.58172 128.58172 265 133 265 Z"
                    stroke="#a5a5a5"
                    stroke-linecap="round"
                    stroke-linejoin="round"
                    stroke-width=".5"
                />
      </g>
      <g id="Graphic_8">
        <path
                    d="M 333 265 L 542 265 C 546.4183 265 550 268.58172 550 273 L 550 327 C 550 331.41828 546.4183 335 542 335 L 333 335 C 328.58172 335 325 331.41828 325 327 L 325 273 C 325 268.58172 328.58172 265 333 265 Z"
                    fill="#c5e6e5"
                />
        <path
                    d="M 333 265 L 542 265 C 546.4183 265 550 268.58172 550 273 L 550 327 C 550 331.41828 546.4183 335 542 335 L 333 335 C 328.58172 335 325 331.41828 325 327 L 325 273 C 325 268.58172 328.58172 265 333 265 Z"
                    stroke="#a5a5a5"
                    stroke-linecap="round"
                    stroke-linejoin="round"
                    stroke-dasharray="2.0,2.0"
                    stroke-width=".5"
                />
        <text transform="translate(330 265)" fill="#666">
          <tspan
                        font-family="Noto Sans Display"
                        font-size="16"
                        font-weight="400"
                        fill="#666"
                        x="62.24775"
                        y="17"
                        xml:space="preserve"
                    > ((B - len(key)) </tspan>
          <tspan
                        font-family="Noto Sans Display"
                        font-size="16"
                        font-weight="400"
                        fill="#666"
                        y="17"
                        xml:space="preserve"
                    >⨉</tspan>
          <tspan
                        font-family="Noto Sans Display"
                        font-size="16"
                        font-weight="400"
                        fill="#666"
                        y="17"
                        xml:space="preserve"
                    > 0x5C)</tspan>
        </text>
      </g>
      <g id="Graphic_7">
        <path
                    d="M 133 265 L 542 265 C 546.4183 265 550 268.58172 550 273 L 550 327 C 550 331.41828 546.4183 335 542 335 L 133 335 C 128.58172 335 125 331.41828 125 327 L 125 273 C 125 268.58172 128.58172 265 133 265 Z"
                    stroke="#a5a5a5"
                    stroke-linecap="round"
                    stroke-linejoin="round"
                    stroke-width=".5"
                />
        <text transform="translate(125 283.5)" fill="black">
          <tspan
                        font-family="Noto Sans Display"
                        font-size="24"
                        font-weight="400"
                        fill="black"
                        x="161.476"
                        y="26"
                        xml:space="preserve"
                    >o key pad</tspan>
        </text>
      </g>
      <g id="Graphic_26">
        <path
                    d="M 550 87 L 550 33 C 550 28.581722 553.5817 25 558 25 L 790 25 C 760 46 880 74 820 95 L 558 95 C 553.5817 95 550 91.41828 550 87 Z"
                    fill="#fef1bd"
                />
        <path
                    d="M 550 87 L 550 33 C 550 28.581722 553.5817 25 558 25 L 790 25 C 760 46 880 74 820 95 L 558 95 C 553.5817 95 550 91.41828 550 87 Z"
                    stroke="#a5a5a5"
                    stroke-linecap="round"
                    stroke-linejoin="round"
                    stroke-width=".5"
                />
      </g>
      <g id="Graphic_28">
        <path
                    d="M 1105 33 L 1105 87 C 1105 91.41828 1101.4183 95 1097 95 L 865 95 C 895 74 775 46 835 25 L 1097 25 C 1101.4183 25 1105 28.581722 1105 33 Z"
                    fill="#fef1bd"
                />
        <path
                    d="M 1105 33 L 1105 87 C 1105 91.41828 1101.4183 95 1097 95 L 865 95 C 895 74 775 46 835 25 L 1097 25 C 1101.4183 25 1105 28.581722 1105 33 Z"
                    stroke="#a5a5a5"
                    stroke-linecap="round"
                    stroke-linejoin="round"
                    stroke-width=".5"
                />
      </g>
      <g id="Graphic_32">
        <path
                    d="M 133 25 L 317 25 C 321.41828 25 325 28.581722 325 33 L 325 87 C 325 91.41828 321.41828 95 317 95 L 133 95 C 128.58172 95 125 91.41828 125 87 L 125 33 C 125 28.581722 128.58172 25 133 25 Z"
                    fill="#ded4e8"
                    fill-opacity=".7503294"
                />
        <path
                    d="M 133 25 L 317 25 C 321.41828 25 325 28.581722 325 33 L 325 87 C 325 91.41828 321.41828 95 317 95 L 133 95 C 128.58172 95 125 91.41828 125 87 L 125 33 C 125 28.581722 128.58172 25 133 25 Z"
                    stroke="#a5a5a5"
                    stroke-linecap="round"
                    stroke-linejoin="round"
                    stroke-width=".5"
                />
      </g>
      <g id="Graphic_31">
        <path
                    d="M 333 25 L 542 25 C 546.4183 25 550 28.581722 550 33 L 550 87 C 550 91.41828 546.4183 95 542 95 L 333 95 C 328.58172 95 325 91.41828 325 87 L 325 33 C 325 28.581722 328.58172 25 333 25 Z"
                    fill="#fee7e6"
                />
        <path
                    d="M 333 25 L 542 25 C 546.4183 25 550 28.581722 550 33 L 550 87 C 550 91.41828 546.4183 95 542 95 L 333 95 C 328.58172 95 325 91.41828 325 87 L 325 33 C 325 28.581722 328.58172 25 333 25 Z"
                    stroke="#a5a5a5"
                    stroke-linecap="round"
                    stroke-linejoin="round"
                    stroke-dasharray="2.0,2.0"
                    stroke-width=".5"
                />
        <text transform="translate(330 25)" fill="#666">
          <tspan
                        font-family="Noto Sans Display"
                        font-size="16"
                        font-weight="400"
                        fill="#666"
                        x="63.15975"
                        y="17"
                        xml:space="preserve"
                    > ((B - len(key)) </tspan>
          <tspan
                        font-family="Noto Sans Display"
                        font-size="16"
                        font-weight="400"
                        fill="#666"
                        y="17"
                        xml:space="preserve"
                    >⨉</tspan>
          <tspan
                        font-family="Noto Sans Display"
                        font-size="16"
                        font-weight="400"
                        fill="#666"
                        y="17"
                        xml:space="preserve"
                    > 0x36)</tspan>
        </text>
      </g>
      <g id="Graphic_30">
        <path
                    d="M 133 25 L 542 25 C 546.4183 25 550 28.581722 550 33 L 550 87 C 550 91.41828 546.4183 95 542 95 L 133 95 C 128.58172 95 125 91.41828 125 87 L 125 33 C 125 28.581722 128.58172 25 133 25 Z"
                    stroke="#a5a5a5"
                    stroke-linecap="round"
                    stroke-linejoin="round"
                    stroke-width=".5"
                />
        <text transform="translate(125 43.5)" fill="black">
          <tspan
                        font-family="Noto Sans Display"
                        font-size="24"
                        font-weight="400"
                        fill="black"
                        x="165.364"
                        y="26"
                        xml:space="preserve"
                    >i key pad</tspan>
        </text>
      </g>
      <g id="Graphic_35">
        <text transform="translate(555 45)" fill="black">
          <tspan
                        font-family="Noto Sans Display"
                        font-size="24"
                        font-weight="400"
                        fill="black"
                        x="220.804"
                        y="26"
                        xml:space="preserve"
                    >Nachricht</tspan>
        </text>
      </g>
      <g id="Graphic_36">
        <path
                    d="M 133 152.5 L 447 152.5 C 451.4183 152.5 455 156.08172 455 160.5 L 455 214.5 C 455 218.91828 451.4183 222.5 447 222.5 L 133 222.5 C 128.58172 222.5 125 218.91828 125 214.5 L 125 160.5 C 125 156.08172 128.58172 152.5 133 152.5 Z"
                    fill="#a6dcb2"
                    fill-opacity=".7503294"
                />
        <path
                    d="M 133 152.5 L 447 152.5 C 451.4183 152.5 455 156.08172 455 160.5 L 455 214.5 C 455 218.91828 451.4183 222.5 447 222.5 L 133 222.5 C 128.58172 222.5 125 218.91828 125 214.5 L 125 160.5 C 125 156.08172 128.58172 152.5 133 152.5 Z"
                    stroke="#a5a5a5"
                    stroke-linecap="round"
                    stroke-linejoin="round"
                    stroke-width=".5"
                />
        <text transform="translate(125 171)" fill="black">
          <tspan
                        font-family="Noto Sans Display"
                        font-size="24"
                        font-weight="400"
                        fill="black"
                        x="101.256"
                        y="26"
                        xml:space="preserve"
                    >1. Hashwert</tspan>
        </text>
      </g>
      <g id="Graphic_38">
        <path
                    d="M 558 265 L 872 265 C 876.4183 265 880 268.58172 880 273 L 880 327 C 880 331.41828 876.4183 335 872 335 L 558 335 C 553.5817 335 550 331.41828 550 327 L 550 273 C 550 268.58172 553.5817 265 558 265 Z"
                    fill="#a6dcb2"
                    fill-opacity=".7503294"
                />
        <path
                    d="M 558 265 L 872 265 C 876.4183 265 880 268.58172 880 273 L 880 327 C 880 331.41828 876.4183 335 872 335 L 558 335 C 553.5817 335 550 331.41828 550 327 L 550 273 C 550 268.58172 553.5817 265 558 265 Z"
                    stroke="#a5a5a5"
                    stroke-linecap="round"
                    stroke-linejoin="round"
                    stroke-width=".5"
                />
        <text transform="translate(550 283.5)" fill="black">
          <tspan
                        font-family="Noto Sans Display"
                        font-size="24"
                        font-weight="400"
                        fill="black"
                        x="101.256"
                        y="26"
                        xml:space="preserve"
                    >1. Hashwert</tspan>
        </text>
      </g>
      <g id="Graphic_39">
        <path
                    d="M 133 395 L 447 395 C 451.4183 395 455 398.5817 455 403 L 455 457 C 455 461.4183 451.4183 465 447 465 L 133 465 C 128.58172 465 125 461.4183 125 457 L 125 403 C 125 398.5817 128.58172 395 133 395 Z"
                    fill="#a6dcb2"
                    fill-opacity=".7503294"
                />
        <path
                    d="M 133 395 L 447 395 C 451.4183 395 455 398.5817 455 403 L 455 457 C 455 461.4183 451.4183 465 447 465 L 133 465 C 128.58172 465 125 461.4183 125 457 L 125 403 C 125 398.5817 128.58172 395 133 395 Z"
                    stroke="#a5a5a5"
                    stroke-linecap="round"
                    stroke-linejoin="round"
                    stroke-width=".5"
                />
        <text transform="translate(125 413.5)" fill="black">
          <tspan
                        font-family="Noto Sans Display"
                        font-size="24"
                        font-weight="400"
                        fill="black"
                        x="55.248"
                        y="26"
                        xml:space="preserve"
                    >2. (Finaler) Hashwert</tspan>
        </text>
      </g>
      <g id="Line_40">
        <path
                    d="M 125 100 L 125 125 L 1105 125 L 1105 100"
                    stroke="#a5a5a5"
                    stroke-linecap="round"
                    stroke-linejoin="round"
                    stroke-width="3"
                />
      </g>
      <g id="Line_41">
        <line
                    x1="275"
                    y1="125"
                    x2="275"
                    y2="136.6"
                    marker-end="url(#FilledArrow_Marker)"
                    stroke="#a5a5a5"
                    stroke-linecap="round"
                    stroke-linejoin="round"
                    stroke-width="3"
                />
      </g>
      <g id="Line_44">
        <path
                    d="M 125 338.75 L 125 363.75 L 880 363.75 L 880 340"
                    stroke="#a5a5a5"
                    stroke-linecap="round"
                    stroke-linejoin="round"
                    stroke-width="3"
                />
      </g>
      <g id="Line_43">
        <line
                    x1="275"
                    y1="363.75"
                    x2="275"
                    y2="375.35"
                    marker-end="url(#FilledArrow_Marker)"
                    stroke="#a5a5a5"
                    stroke-linecap="round"
                    stroke-linejoin="round"
                    stroke-width="3"
                />
      </g>
      <g id="Graphic_45">
        <text transform="translate(54.5 167) rotate(-90)" fill="#666">
          <tspan
                        font-family="Noto Sans Display"
                        font-size="28"
                        font-weight="400"
                        fill="#666"
                        x="1.218"
                        y="30"
                        xml:space="preserve"
                    >Schritt 1</tspan>
        </text>
      </g>
      <g id="Graphic_47">
        <text transform="translate(54.5 407.5) rotate(-90)" fill="#666">
          <tspan
                        font-family="Noto Sans Display"
                        font-size="28"
                        font-weight="400"
                        fill="#666"
                        x="1.218"
                        y="30"
                        xml:space="preserve"
                    >Schritt 2</tspan>
        </text>
      </g>
      <g id="Graphic_48">
        <text transform="translate(10 381.5) rotate(-90)" fill="black">
          <tspan
                        font-family="Noto Sans Display"
                        font-size="26"
                        font-weight="400"
                        fill="black"
                        x="13.601"
                        y="28"
                        xml:space="preserve"
                    >Hashing der Nachricht</tspan>
        </text>
      </g>
      <g id="Line_52">
        <path
                    d="M 100 222.5 L 100 7.5 L 1105 5"
                    stroke="#a5a5a5"
                    stroke-linecap="round"
                    stroke-linejoin="round"
                    stroke-dasharray="3.0,12.0"
                    stroke-width="3"
                />
      </g>
      <g id="Line_53">
        <path
                    d="M 100 465 L 100 240 L 880 240"
                    stroke="#a5a5a5"
                    stroke-linecap="round"
                    stroke-linejoin="round"
                    stroke-dasharray="3.0,12.0"
                    stroke-width="3"
                />
      </g>
    </g>
  </g>
</svg>
