<?xml version="1.0" encoding="UTF-8" standalone="no" ?>
<!DOCTYPE svg PUBLIC "-//W3C//DTD SVG 1.1//EN"
    "http://www.w3.org/Graphics/SVG/1.1/DTD/svg11.dtd">
<svg
    xmlns:xl="http://www.w3.org/1999/xlink"
    version="1.1"
    xmlns:dc="http://purl.org/dc/elements/1.1/"
    xmlns="http://www.w3.org/2000/svg"
    viewBox="-269 142 511 209"
    width="511"
    height="209"
>
  <style>
    @import url('/LectureDoc2/ext/fonts/ld-fonts.css');
  </style>
  <defs>
    <marker
            orient="auto"
            overflow="visible"
            markerUnits="strokeWidth"
            id="StickArrow_Marker"
            stroke-linejoin="miter"
            stroke-miterlimit="10"
            viewBox="-1 -3 7 6"
            markerWidth="7"
            markerHeight="6"
            color="black"
        >
      <g>
        <path
                    d="M 4.8 0 L 0 0 M 0 -1.8 L 4.8 0 L 0 1.8"
                    fill="none"
                    stroke="currentColor"
                    stroke-width="1"
                />
      </g>
    </marker>
    <marker
            orient="auto"
            overflow="visible"
            markerUnits="strokeWidth"
            id="SharpArrow_Marker"
            stroke-linejoin="miter"
            stroke-miterlimit="10"
            viewBox="-3 -3 7 6"
            markerWidth="7"
            markerHeight="6"
            color="black"
        >
      <g>
        <path
                    d="M 3 0 L -1.8 -1.8 L 0 0 L 0 0 L -1.8 1.8 Z"
                    fill="currentColor"
                    stroke="currentColor"
                    stroke-width="1"
                />
      </g>
    </marker>
  </defs>
  <metadata> Produced by OmniGraffle 8.0\n2025-04-04 07:46:06 +0000</metadata>
  <g
        id="event-based"
        fill-opacity="1"
        stroke-opacity="1"
        stroke-dasharray="none"
        stroke="none"
        fill="none"
    >
    <title>event-based</title>
    <rect fill="white" x="-269" y="142" width="511" height="209" />
    <g id="event-based_Layer_1">
      <title>Layer 1</title>
      <g id="Graphic_2">
        <path
                    d="M -209 143 L -51.768 143 C -49.55886 143 -47.768 144.79086 -47.768 147 L -47.768 192 C -47.768 194.20914 -49.55886 196 -51.768 196 L -209 196 C -211.20914 196 -213 194.20914 -213 192 L -213 147 C -213 144.79086 -211.20914 143 -209 143 Z"
                    fill="#fbfbfb"
                />
        <path
                    d="M -209 143 L -51.768 143 C -49.55886 143 -47.768 144.79086 -47.768 147 L -47.768 192 C -47.768 194.20914 -49.55886 196 -51.768 196 L -209 196 C -211.20914 196 -213 194.20914 -213 192 L -213 147 C -213 144.79086 -211.20914 143 -209 143 Z"
                    stroke="#a5a5a5"
                    stroke-linecap="round"
                    stroke-linejoin="round"
                    stroke-width="1"
                />
        <text transform="translate(-208 160)" fill="black">
          <tspan
                        font-family="Noto Sans Display"
                        font-size="14"
                        font-weight="700"
                        fill="black"
                        x="38.758997"
                        y="15"
                    >Component</tspan>
        </text>
      </g>
      <g id="Graphic_18">
        <path
                    d="M 37.511 143 L 179.721 143 C 181.93014 143 183.721 144.79086 183.721 147 L 183.721 192 C 183.721 194.20914 181.93014 196 179.721 196 L 37.511 196 C 35.30186 196 33.511 194.20914 33.511 192 L 33.511 147 C 33.511 144.79086 35.30186 143 37.511 143 Z"
                    fill="#fbfbfb"
                />
        <path
                    d="M 37.511 143 L 179.721 143 C 181.93014 143 183.721 144.79086 183.721 147 L 183.721 192 C 183.721 194.20914 181.93014 196 179.721 196 L 37.511 196 C 35.30186 196 33.511 194.20914 33.511 192 L 33.511 147 C 33.511 144.79086 35.30186 143 37.511 143 Z"
                    stroke="#a5a5a5"
                    stroke-linecap="round"
                    stroke-linejoin="round"
                    stroke-width="1"
                />
        <text transform="translate(38.511 160)" fill="black">
          <tspan
                        font-family="Noto Sans Display"
                        font-size="14"
                        font-weight="700"
                        fill="black"
                        x="31.248003"
                        y="15"
                    >Component</tspan>
        </text>
      </g>
      <g id="Graphic_19">
        <path
                    d="M -98 297 L 59.232 297 C 61.44114 297 63.232 298.79086 63.232 301 L 63.232 346 C 63.232 348.20914 61.44114 350 59.232 350 L -98 350 C -100.20914 350 -102 348.20914 -102 346 L -102 301 C -102 298.79086 -100.20914 297 -98 297 Z"
                    fill="#fbfbfb"
                />
        <path
                    d="M -98 297 L 59.232 297 C 61.44114 297 63.232 298.79086 63.232 301 L 63.232 346 C 63.232 348.20914 61.44114 350 59.232 350 L -98 350 C -100.20914 350 -102 348.20914 -102 346 L -102 301 C -102 298.79086 -100.20914 297 -98 297 Z"
                    stroke="#a5a5a5"
                    stroke-linecap="round"
                    stroke-linejoin="round"
                    stroke-width="1"
                />
        <text transform="translate(-97 314)" fill="black">
          <tspan
                        font-family="Noto Sans Display"
                        font-size="14"
                        font-weight="700"
                        fill="black"
                        x="38.758997"
                        y="15"
                    >Component</tspan>
        </text>
      </g>
      <g id="Graphic_20">
        <path
                    d="M -266 249.82552 L -237.1206 229.32552 L -237.1206 240.3792 L 212.1206 240.3792 L 212.1206 229.32552 L 241 249.82552 L 212.1206 270.32552 L 212.1206 259.27183 L -237.1206 259.27183 L -237.1206 270.32552 Z"
                    fill="white"
                />
        <path
                    d="M -266 249.82552 L -237.1206 229.32552 L -237.1206 240.3792 L 212.1206 240.3792 L 212.1206 229.32552 L 241 249.82552 L 212.1206 270.32552 L 212.1206 259.27183 L -237.1206 259.27183 L -237.1206 270.32552 Z"
                    stroke="black"
                    stroke-linecap="round"
                    stroke-linejoin="round"
                    stroke-width="1"
                />
        <text transform="translate(-261 240.32552)" fill="black">
          <tspan
                        font-family="Noto Sans Display"
                        font-size="14"
                        font-weight="400"
                        fill="black"
                        x="217.994"
                        y="15"
                    >Event Bus</tspan>
        </text>
      </g>
      <g id="Line_26">
        <line
                    x1="-189"
                    y1="196"
                    x2="-189"
                    y2="226.83572"
                    marker-end="url(#StickArrow_Marker)"
                    stroke="black"
                    stroke-linecap="round"
                    stroke-linejoin="round"
                    stroke-dasharray="8.0,8.0"
                    stroke-width="2"
                />
      </g>
      <g id="Line_27">
        <line
                    x1="60.116"
                    y1="196"
                    x2="60.116"
                    y2="226.83572"
                    marker-end="url(#StickArrow_Marker)"
                    stroke="black"
                    stroke-linecap="round"
                    stroke-linejoin="round"
                    stroke-dasharray="8.0,8.0"
                    stroke-width="2"
                />
      </g>
      <g id="Line_28">
        <line
                    x1="169"
                    y1="239.73572"
                    x2="169"
                    y2="205.3"
                    marker-end="url(#SharpArrow_Marker)"
                    stroke="black"
                    stroke-linecap="round"
                    stroke-linejoin="round"
                    stroke-width="2"
                />
      </g>
      <g id="Line_29">
        <line
                    x1="-72.70202"
                    y1="239.73572"
                    x2="-72.70202"
                    y2="205.3"
                    marker-end="url(#SharpArrow_Marker)"
                    stroke="black"
                    stroke-linecap="round"
                    stroke-linejoin="round"
                    stroke-width="2"
                />
      </g>
      <g id="Line_30">
        <line
                    x1="-13"
                    y1="298"
                    x2="-13"
                    y2="268.11132"
                    marker-end="url(#SharpArrow_Marker)"
                    stroke="black"
                    stroke-linecap="round"
                    stroke-linejoin="round"
                    stroke-width="2"
                />
      </g>
      <g id="Graphic_36">
        <text transform="translate(-4.9400005 268)" fill="black">
          <tspan
                        font-family="Noto Sans Display"
                        font-size="14"
                        font-weight="400"
                        fill="black"
                        x="20250468e-20"
                        y="15"
                    >publish</tspan>
        </text>
      </g>
      <g id="Graphic_37">
        <text transform="translate(-252.752 203.16276)" fill="black">
          <tspan
                        font-family="Noto Sans Display"
                        font-size="14"
                        font-weight="400"
                        fill="black"
                        x="20250468e-20"
                        y="15"
                    >subscribe</tspan>
        </text>
      </g>
      <g id="Graphic_40">
        <text transform="translate(132.82171 207)" fill="black">
          <tspan
                        font-family="Noto Sans Display"
                        font-size="14"
                        font-weight="400"
                        fill="black"
                        x="0"
                        y="15"
                    >Event delivery</tspan>
        </text>
      </g>
    </g>
  </g>
</svg>
