<?xml version="1.0" encoding="UTF-8" standalone="no"?>
<!DOCTYPE svg PUBLIC "-//W3C//DTD SVG 1.1//EN" "http://www.w3.org/Graphics/SVG/1.1/DTD/svg11.dtd">
<svg xmlns:xl="http://www.w3.org/1999/xlink" xmlns:dc="http://purl.org/dc/elements/1.1/" xmlns="http://www.w3.org/2000/svg" version="1.1" viewBox="-2.5 -17.5 1053.4375 642.5" width="1053.4375" height="642.5">
  <defs>
    <filter id="Shadow" filterUnits="userSpaceOnUse" x="-107.84375" y="-81.75">
      <feGaussianBlur in="SourceAlpha" result="blur" stdDeviation="1.308"/>
      <feOffset in="blur" result="offset" dx="0" dy="2"/>
      <feFlood flood-color="black" flood-opacity=".5" result="flood"/>
      <feComposite in="flood" in2="offset" operator="in" result="color"/>
      <feMerge>
        <feMergeNode in="color"/>
        <feMergeNode in="SourceGraphic"/>
      </feMerge>
    </filter>
    <marker orient="auto" overflow="visible" markerUnits="strokeWidth" id="FilledArrow_Marker" stroke-linejoin="miter" stroke-miterlimit="10" viewBox="-1 -3 6 6" markerWidth="6" markerHeight="6" color="black">
      <g>
        <path d="M 3.7333333 0 L 0 -1.4 L 0 1.4 Z" fill="currentColor" stroke="currentColor" stroke-width="1"/>
      </g>
    </marker>
    <marker orient="auto" overflow="visible" markerUnits="strokeWidth" id="FilledArrow_Marker_2" stroke-linejoin="miter" stroke-miterlimit="10" viewBox="-1 -3 6 6" markerWidth="6" markerHeight="6" color="black">
      <g>
        <path d="M 3.7333333 0 L 0 -1.4 L 0 1.4 Z" fill="currentColor" stroke="currentColor" stroke-width="1"/>
      </g>
    </marker>
  </defs>
  <g id="authentication" fill-opacity="1" stroke-opacity="1" fill="none" stroke-dasharray="none" stroke="none">
    <title>authentication</title>
    <rect fill="white" x="-2.5" y="-17.5" width="1053.4375" height="642.5"/>
    <g id="authentication_Layer_1">
      <title>Layer 1</title>
      <g id="Graphic_5" filter="url(#Shadow)">
        <path d="M 23 187 L 134.46875 187 C 138.88703 187 142.46875 190.58172 142.46875 195 L 142.46875 286.2 C 104.22812 273.8 53.240625 323.4 15 298.6 L 15 195 C 15 190.58172 18.581722 187 23 187 Z" fill="white"/>
        <clipPath id="clip_path">
          <path d="M 8 0 L 119.46875 0 C 123.88703 0 127.46875 3.581722 127.46875 8 L 127.46875 99.2 C 89.22812 86.8 38.240625 136.4 0 111.6 L 7105427e-21 8 C 7105427e-21 3.581722 3.581722 0 8 0 Z" fill="white"/>
        </clipPath>
        <text clip-path="url(#clip_path)" transform="translate(20 192)" fill="black">
          <tspan font-family="Helvetica" font-size="28" fill="black" x="1.9277344" y="28">Message </tspan>
          <tspan font-family="Helvetica" font-size="28" fill="black" x="14.375977" y="62">Source</tspan>
        </text>
      </g>
      <g id="Graphic_7" filter="url(#Shadow)">
        <path d="M 932.9375 191.5 L 1039.9375 191.5 C 1044.3558 191.5 1047.9375 195.08172 1047.9375 199.5 L 1047.9375 290.7 C 1011.0375 278.3 961.8375 327.9 924.9375 303.1 L 924.9375 199.5 C 924.9375 195.08172 928.5192 191.5 932.9375 191.5 Z" fill="white"/>
        <clipPath id="clip_path_2">
          <path d="M 8 0 L 115 0 C 119.41828 0 123 3.581722 123 8 L 123 99.2 C 86.1 86.8 36.9 136.4 0 111.6 L 0 8 C 0 3.581722 3.581722 0 8 0 Z" fill="white"/>
        </clipPath>
        <text clip-path="url(#clip_path_2)" transform="translate(929.9375 196.5)" fill="black">
          <tspan font-family="Helvetica" font-size="28" fill="black" x="19.941406" y="28">Desti-</tspan>
          <tspan font-family="Helvetica" font-size="28" fill="black" x="18.355469" y="62">nation</tspan>
        </text>
      </g>
      <g id="Graphic_16">
        <text transform="translate(381 259)" fill="black">
          <tspan font-family="Helvetica" font-style="italic" font-size="28" fill="black" x="1.6142578" y="28">Y</tspan>
          <tspan font-family="Helvetica" font-size="28" fill="black" y="28"> = E(</tspan>
          <tspan font-family="Helvetica" font-style="italic" font-size="28" fill="black" y="28">PR</tspan>
          <tspan font-family="Helvetica" font-style="italic" font-size="28" fill="black" y="41">a</tspan>
          <tspan font-family="Helvetica" font-size="28" fill="black" y="28">,</tspan>
          <tspan font-family="Helvetica" font-style="italic" font-size="28" fill="black" y="28">X</tspan>
          <tspan font-family="Helvetica" font-size="28" fill="black" y="28">)</tspan>
        </text>
      </g>
      <g id="Graphic_19">
        <path d="M 239.46875 185 L 350.46875 185 C 357.09617 185 362.46875 190.37258 362.46875 197 L 362.46875 305 C 362.46875 311.6274 357.09617 317 350.46875 317 L 251.46875 317 C 244.84133 317 239.46875 311.6274 239.46875 305 Z" fill="#ffc0c0"/>
        <path d="M 239.46875 185 L 350.46875 185 C 357.09617 185 362.46875 190.37258 362.46875 197 L 362.46875 305 C 362.46875 311.6274 357.09617 317 350.46875 317 L 251.46875 317 C 244.84133 317 239.46875 311.6274 239.46875 305 Z" stroke="#344463" stroke-linecap="round" stroke-linejoin="round" stroke-width="4"/>
        <text transform="translate(244.46875 190)" fill="#344463">
          <tspan font-family="Helvetica" font-size="22" fill="#344463" x="0" y="21">Encryption </tspan>
          <tspan font-family="Helvetica" font-size="22" fill="#344463" x="0" y="47">algorithm</tspan>
        </text>
      </g>
      <g id="Graphic_22">
        <text transform="translate(313.46875 258)" fill="black">
          <tspan font-family="Apple Color Emoji" font-size="28" fill="black" x="0" y="28">🔒</tspan>
        </text>
      </g>
      <g id="Graphic_23">
        <path d="M 680 185 L 791 185 C 797.6274 185 803 190.37258 803 197 L 803 305 C 803 311.6274 797.6274 317 791 317 L 692 317 C 685.3726 317 680 311.6274 680 305 Z" fill="#c0ffc0"/>
        <path d="M 680 185 L 791 185 C 797.6274 185 803 190.37258 803 197 L 803 305 C 803 311.6274 797.6274 317 791 317 L 692 317 C 685.3726 317 680 311.6274 680 305 Z" stroke="#344463" stroke-linecap="round" stroke-linejoin="round" stroke-width="4"/>
        <text transform="translate(685 190)" fill="#344463">
          <tspan font-family="Helvetica" font-size="22" fill="#344463" x="0" y="21">Decryption </tspan>
          <tspan font-family="Helvetica" font-size="22" fill="#344463" x="0" y="47">algorithm </tspan>
        </text>
      </g>
      <g id="Graphic_21">
        <text transform="translate(756 258)" fill="black">
          <tspan font-family="Apple Color Emoji" font-size="28" fill="black" x="0" y="28">🔓</tspan>
        </text>
      </g>
      <g id="Graphic_24">
        <text transform="translate(136.96875 258)" fill="black">
          <tspan font-family="Helvetica" font-style="italic" font-size="28" fill="black" x="30.427734" y="28">X</tspan>
        </text>
      </g>
      <g id="Graphic_25">
        <text transform="translate(808 258)" fill="black">
          <tspan font-family="Helvetica" font-style="italic" font-size="24" fill="black" x="40.38867" y="23">X </tspan>
          <tspan font-family="Helvetica" font-size="24" fill="black" y="23">= </tspan>
          <tspan font-family="Helvetica" font-size="24" fill="black" x="7.394531" y="57">D(</tspan>
          <tspan font-family="Helvetica" font-style="italic" font-size="24" fill="black" y="57">PU</tspan>
          <tspan font-family="Helvetica" font-style="italic" font-size="24" fill="black" y="68">a</tspan>
          <tspan font-family="Helvetica" font-size="24" fill="black" y="57">,</tspan>
          <tspan font-family="Helvetica" font-style="italic" font-size="24" fill="black" y="57">Y</tspan>
          <tspan font-family="Helvetica" font-size="24" fill="black" y="57">)</tspan>
          <tspan font-family="Helvetica" font-style="italic" font-size="28" fill="black" y="57"> </tspan>
        </text>
      </g>
      <g id="Line_26">
        <line x1="142.46875" y1="249" x2="223.56875" y2="249" marker-end="url(#FilledArrow_Marker)" stroke="black" stroke-linecap="round" stroke-linejoin="round" stroke-width="3"/>
      </g>
      <g id="Line_27">
        <line x1="366.46875" y1="253" x2="664.1" y2="253" marker-end="url(#FilledArrow_Marker)" stroke="black" stroke-linecap="round" stroke-linejoin="round" stroke-width="3"/>
      </g>
      <g id="Line_28">
        <line x1="803" y1="252.5" x2="909.0377" y2="253.07806" marker-end="url(#FilledArrow_Marker)" stroke="black" stroke-linecap="round" stroke-linejoin="round" stroke-width="3"/>
      </g>
      <g id="Graphic_32">
        <path d="M 445.7656 -17.5 L 594.7656 -17.5 C 600.2885 -17.5 604.7656 -13.022847 604.7656 -7.5 L 604.7656 77.5 C 604.7656 83.02285 600.2885 87.5 594.7656 87.5 L 445.7656 87.5 C 440.2428 87.5 435.7656 83.02285 435.7656 77.5 L 435.7656 -7.5 C 435.7656 -13.022847 440.2428 -17.5 445.7656 -17.5 Z" fill="#f7788a"/>
        <text transform="translate(440.7656 18)" fill="black">
          <tspan font-family="Helvetica" font-size="28" fill="black" x="1.6933594" y="28">Cryptanalyst</tspan>
        </text>
      </g>
      <g id="Graphic_33">
        <path d="M 226.46875 520 L 375.46875 520 C 380.9916 520 385.46875 524.47715 385.46875 530 L 385.46875 615 C 385.46875 620.52285 380.9916 625 375.46875 625 L 226.46875 625 C 220.9459 625 216.46875 620.52285 216.46875 615 L 216.46875 530 C 216.46875 524.47715 220.9459 520 226.46875 520 Z" fill="#c0c0ff"/>
        <text transform="translate(221.46875 538.5)" fill="black">
          <tspan font-family="Helvetica" font-size="28" fill="black" x="22.700195" y="28">Key  Pair </tspan>
          <tspan font-family="Helvetica" font-size="28" fill="black" x="35.1416" y="62">Source</tspan>
        </text>
      </g>
      <g id="Group_40">
        <g id="Graphic_42">
          <text transform="translate(718.2344 16)" fill="black">
            <tspan font-family="Helvetica" font-style="italic" font-size="28" fill="black" x="0" y="28">PR</tspan>
            <tspan font-family="Helvetica" font-style="italic" font-size="28" fill="black" y="41">a</tspan>
          </text>
        </g>
        <g id="Graphic_41">
          <text transform="translate(718.2344 -1)" fill="black">
            <tspan font-family="Helvetica" font-size="28" fill="black" x="20.66504" y="28">^</tspan>
          </text>
        </g>
      </g>
      <g id="Line_43">
        <line x1="476.2656" y1="253" x2="476.2656" y2="103.4" marker-end="url(#FilledArrow_Marker)" stroke="black" stroke-linecap="round" stroke-linejoin="round" stroke-width="3"/>
      </g>
      <g id="Line_44">
        <line x1="302.90745" y1="520" x2="301.12364" y2="336.89925" marker-end="url(#FilledArrow_Marker)" stroke="black" stroke-linecap="round" stroke-linejoin="round" stroke-width="3"/>
      </g>
      <g id="Line_54">
        <path d="M 342 520 L 342 420.5 L 745 420.5 L 743.7074 334.3982" marker-end="url(#FilledArrow_Marker)" stroke="black" stroke-linecap="round" stroke-linejoin="round" stroke-width="3"/>
      </g>
      <g id="Line_57">
        <line x1="604.5" y1="39.5" x2="697.3344" y2="39.5" marker-end="url(#FilledArrow_Marker)" stroke="black" stroke-linecap="round" stroke-linejoin="round" stroke-width="3"/>
      </g>
      <g id="Line_58">
        <path d="M 575 420.5 L 575 408.5 L 574.59375 336.4922 L 574.71774 260.5 C 567.21775 260.48775 567.2422 245.48777 574.7422 245.5 L 574.97406 103.39998" marker-end="url(#FilledArrow_Marker_2)" stroke="black" stroke-linecap="round" stroke-linejoin="round" stroke-width="3"/>
      </g>
      <g id="Graphic_62">
        <text transform="translate(133.07111 123.5)" fill="black">
          <tspan font-family="Helvetica" font-size="24" fill="black" x="0" y="23">Source A</tspan>
        </text>
      </g>
      <g id="Line_61">
        <path d="M -1 167.5 L -1 117.32422 L 382.13295 117.32422 L 382.13295 166.5" stroke="black" stroke-linecap="round" stroke-linejoin="round" stroke-width="3"/>
      </g>
      <g id="Graphic_63">
        <text transform="translate(463.5 424.5)" fill="black">
          <tspan font-family="Helvetica" font-style="italic" font-size="28" fill="black" x="0" y="28">PU</tspan>
          <tspan font-family="Helvetica" font-style="italic" font-size="28" fill="black" y="41">a</tspan>
        </text>
      </g>
      <g id="Graphic_64">
        <text transform="translate(238 402.5)" fill="black">
          <tspan font-family="Helvetica" font-style="italic" font-size="28" fill="black" x="0" y="28">PR</tspan>
          <tspan font-family="Helvetica" font-style="italic" font-size="28" fill="black" y="41">a</tspan>
        </text>
      </g>
      <g id="Graphic_66">
        <text transform="translate(768.4012 124.67578)" fill="black">
          <tspan font-family="Helvetica" font-size="24" fill="black" x="0" y="23">Destination B</tspan>
        </text>
      </g>
      <g id="Line_65">
        <path d="M 657 168.67578 L 657 118.5 L 1040.133 118.5 L 1040.133 167.67578" stroke="black" stroke-linecap="round" stroke-linejoin="round" stroke-width="3"/>
      </g>
    </g>
  </g>
</svg>
