<?xml version="1.0" encoding="UTF-8" standalone="no"?>
<!DOCTYPE svg PUBLIC "-//W3C//DTD SVG 1.1//EN" "http://www.w3.org/Graphics/SVG/1.1/DTD/svg11.dtd">
<svg xmlns:xl="http://www.w3.org/1999/xlink" xmlns:dc="http://purl.org/dc/elements/1.1/" xmlns="http://www.w3.org/2000/svg" version="1.1" viewBox="-2.5 115.82422 1200.5 509.1758" width="1200.5" height="509.1758">
  <defs>
    <filter id="Shadow" filterUnits="userSpaceOnUse" x="-122.55" y="64.90664">
      <feGaussianBlur in="SourceAlpha" result="blur" stdDeviation="1.308"/>
      <feOffset in="blur" result="offset" dx="0" dy="2"/>
      <feFlood flood-color="black" flood-opacity=".5" result="flood"/>
      <feComposite in="flood" in2="offset" operator="in" result="color"/>
      <feMerge>
        <feMergeNode in="color"/>
        <feMergeNode in="SourceGraphic"/>
      </feMerge>
    </filter>
    <marker orient="auto" overflow="visible" markerUnits="strokeWidth" id="FilledArrow_Marker" stroke-linejoin="miter" stroke-miterlimit="10" viewBox="-1 -3 6 6" markerWidth="6" markerHeight="6" color="black">
      <g>
        <path d="M 3.7333333 0 L 0 -1.4 L 0 1.4 Z" fill="currentColor" stroke="currentColor" stroke-width="1"/>
      </g>
    </marker>
    <marker orient="auto" overflow="visible" markerUnits="strokeWidth" id="FilledArrow_Marker_2" stroke-linejoin="miter" stroke-miterlimit="10" viewBox="-1 -3 6 6" markerWidth="6" markerHeight="6" color="black">
      <g>
        <path d="M 3.7333333 0 L 0 -1.4 L 0 1.4 Z" fill="currentColor" stroke="currentColor" stroke-width="1"/>
      </g>
    </marker>
  </defs>
  <g id="authentication_and_secrecy" fill-opacity="1" stroke-opacity="1" fill="none" stroke-dasharray="none" stroke="none">
    <title>authentication_and_secrecy</title>
    <rect fill="white" x="-2.5" y="115.82422" width="1200.5" height="509.1758"/>
    <g id="authentication_and_secrecy_Layer_1">
      <title>Layer 1</title>
      <g id="Graphic_5" filter="url(#Shadow)">
        <path d="M 29.46875 193 L 140.9375 193 C 145.35578 193 148.9375 196.58172 148.9375 201 L 148.9375 292.2 C 110.69688 279.8 59.709375 329.4 21.46875 304.6 L 21.46875 201 C 21.46875 196.58172 25.050472 193 29.46875 193 Z" fill="white"/>
        <clipPath id="clip_path">
          <path d="M 8 0 L 119.46875 0 C 123.88703 0 127.46875 3.581722 127.46875 8 L 127.46875 99.2 C 89.22812 86.8 38.240625 136.4 0 111.6 L 7105427e-21 8 C 7105427e-21 3.581722 3.581722 0 8 0 Z" fill="white"/>
        </clipPath>
        <text clip-path="url(#clip_path)" transform="translate(26.46875 198)" fill="black">
          <tspan font-family="Helvetica" font-size="28" fill="black" x="1.9277344" y="28">Message </tspan>
          <tspan font-family="Helvetica" font-size="28" fill="black" x="14.375977" y="62">Source</tspan>
        </text>
      </g>
      <g id="Graphic_7" filter="url(#Shadow)">
        <path d="M 1071.5988 193 L 1178.5988 193 C 1183.0171 193 1186.5988 196.58172 1186.5988 201 L 1186.5988 292.2 C 1149.6988 279.8 1100.4988 329.4 1063.5988 304.6 L 1063.5988 201 C 1063.5988 196.58172 1067.1805 193 1071.5988 193 Z" fill="white"/>
        <clipPath id="clip_path_2">
          <path d="M 8 0 L 115 0 C 119.41828 0 123 3.581722 123 8 L 123 99.2 C 86.1 86.8 36.9 136.4 0 111.6 L 0 8 C 0 3.581722 3.581722 0 8 0 Z" fill="white"/>
        </clipPath>
        <text clip-path="url(#clip_path_2)" transform="translate(1068.5988 198)" fill="black">
          <tspan font-family="Helvetica" font-size="28" fill="black" x="19.941406" y="28">Desti-</tspan>
          <tspan font-family="Helvetica" font-size="28" fill="black" x="18.355469" y="62">nation</tspan>
        </text>
      </g>
      <g id="Graphic_19">
        <path d="M 216.46875 185 L 327.46875 185 C 334.09617 185 339.46875 190.37258 339.46875 197 L 339.46875 305 C 339.46875 311.6274 334.09617 317 327.46875 317 L 228.46875 317 C 221.84133 317 216.46875 311.6274 216.46875 305 Z" fill="#ffc0c0"/>
        <path d="M 216.46875 185 L 327.46875 185 C 334.09617 185 339.46875 190.37258 339.46875 197 L 339.46875 305 C 339.46875 311.6274 334.09617 317 327.46875 317 L 228.46875 317 C 221.84133 317 216.46875 311.6274 216.46875 305 Z" stroke="#344463" stroke-linecap="round" stroke-linejoin="round" stroke-width="4"/>
        <text transform="translate(221.46875 190)" fill="#344463">
          <tspan font-family="Helvetica" font-size="22" fill="#344463" x="0" y="21">Encryption </tspan>
          <tspan font-family="Helvetica" font-size="22" fill="#344463" x="0" y="47">algorithm</tspan>
        </text>
      </g>
      <g id="Graphic_22">
        <text transform="translate(299 270.5)" fill="black">
          <tspan font-family="Apple Color Emoji" font-size="28" fill="black" x="0" y="28">🔒</tspan>
        </text>
      </g>
      <g id="Graphic_23">
        <path d="M 681 185 L 792 185 C 798.6274 185 804 190.37258 804 197 L 804 305 C 804 311.6274 798.6274 317 792 317 L 693 317 C 686.3726 317 681 311.6274 681 305 Z" fill="#c0ffc0"/>
        <path d="M 681 185 L 792 185 C 798.6274 185 804 190.37258 804 197 L 804 305 C 804 311.6274 798.6274 317 792 317 L 693 317 C 686.3726 317 681 311.6274 681 305 Z" stroke="#344463" stroke-linecap="round" stroke-linejoin="round" stroke-width="4"/>
        <text transform="translate(686 190)" fill="#344463">
          <tspan font-family="Helvetica" font-size="22" fill="#344463" x="0" y="21">Decryption </tspan>
          <tspan font-family="Helvetica" font-size="22" fill="#344463" x="0" y="47">algorithm </tspan>
        </text>
      </g>
      <g id="Graphic_21">
        <text transform="translate(768.4012 270.5)" fill="black">
          <tspan font-family="Apple Color Emoji" font-size="28" fill="black" x="0" y="28">🔓</tspan>
        </text>
      </g>
      <g id="Graphic_24">
        <text transform="translate(136.96875 258)" fill="black">
          <tspan font-family="Helvetica" font-style="italic" font-size="28" fill="black" x="30.427734" y="28">X</tspan>
        </text>
      </g>
      <g id="Graphic_33">
        <path d="M 226.46875 520 L 375.46875 520 C 380.9916 520 385.46875 524.47715 385.46875 530 L 385.46875 615 C 385.46875 620.52285 380.9916 625 375.46875 625 L 226.46875 625 C 220.9459 625 216.46875 620.52285 216.46875 615 L 216.46875 530 C 216.46875 524.47715 220.9459 520 226.46875 520 Z" fill="#c0c0ff"/>
        <text transform="translate(221.46875 538.5)" fill="black">
          <tspan font-family="Helvetica" font-size="28" fill="black" x="26.589844" y="28">Key Pair </tspan>
          <tspan font-family="Helvetica" font-size="28" fill="black" x="22.679688" y="62">Source A</tspan>
        </text>
      </g>
      <g id="Line_44">
        <line x1="302.90745" y1="520" x2="301.12364" y2="336.89925" marker-end="url(#FilledArrow_Marker)" stroke="black" stroke-linecap="round" stroke-linejoin="round" stroke-width="3"/>
      </g>
      <g id="Line_54">
        <path d="M 658 488.22464 L 466.5 491 L 466.5 332.9" marker-end="url(#FilledArrow_Marker)" stroke="black" stroke-linecap="round" stroke-linejoin="round" stroke-width="3"/>
      </g>
      <g id="Graphic_62">
        <text transform="translate(133.07111 123.5)" fill="black">
          <tspan font-family="Helvetica" font-size="24" fill="black" x="0" y="23">Source A</tspan>
        </text>
      </g>
      <g id="Line_61">
        <path d="M -1 167.5 L -1 117.32422 L 550.5 117.32422 L 550.5 168.67578" stroke="black" stroke-linecap="round" stroke-linejoin="round" stroke-width="3"/>
      </g>
      <g id="Graphic_63">
        <text transform="translate(390.46875 573)" fill="black">
          <tspan font-family="Helvetica" font-style="italic" font-size="28" fill="black" x="0" y="28">PU</tspan>
          <tspan font-family="Helvetica" font-style="italic" font-size="28" fill="black" y="41">a</tspan>
        </text>
      </g>
      <g id="Graphic_64">
        <text transform="translate(238 402.5)" fill="black">
          <tspan font-family="Helvetica" font-style="italic" font-size="28" fill="black" x="0" y="28">PR</tspan>
          <tspan font-family="Helvetica" font-style="italic" font-size="28" fill="black" y="41">a</tspan>
        </text>
      </g>
      <g id="Graphic_66">
        <text transform="translate(768.4012 124.67578)" fill="black">
          <tspan font-family="Helvetica" font-size="24" fill="black" x="0" y="23">Destination B</tspan>
        </text>
      </g>
      <g id="Line_65">
        <path d="M 657 168.67578 L 657 118.5 L 1196.5 118.5 L 1196.5 168.67578" stroke="black" stroke-linecap="round" stroke-linejoin="round" stroke-width="3"/>
      </g>
      <g id="Graphic_67">
        <path d="M 407 185 L 518 185 C 524.6274 185 530 190.37258 530 197 L 530 305 C 530 311.6274 524.6274 317 518 317 L 419 317 C 412.3726 317 407 311.6274 407 305 Z" fill="#ffc0c0"/>
        <path d="M 407 185 L 518 185 C 524.6274 185 530 190.37258 530 197 L 530 305 C 530 311.6274 524.6274 317 518 317 L 419 317 C 412.3726 317 407 311.6274 407 305 Z" stroke="#344463" stroke-linecap="round" stroke-linejoin="round" stroke-width="4"/>
        <text transform="translate(412 190)" fill="#344463">
          <tspan font-family="Helvetica" font-size="22" fill="#344463" x="0" y="21">Encryption </tspan>
          <tspan font-family="Helvetica" font-size="22" fill="#344463" x="0" y="47">algorithm</tspan>
        </text>
      </g>
      <g id="Graphic_68">
        <text transform="translate(492.5 270.5)" fill="black">
          <tspan font-family="Apple Color Emoji" font-size="28" fill="black" x="0" y="28">🔒</tspan>
        </text>
      </g>
      <g id="Graphic_70">
        <path d="M 871 185 L 982 185 C 988.6274 185 994 190.37258 994 197 L 994 305 C 994 311.6274 988.6274 317 982 317 L 883 317 C 876.3726 317 871 311.6274 871 305 Z" fill="#c0ffc0"/>
        <path d="M 871 185 L 982 185 C 988.6274 185 994 190.37258 994 197 L 994 305 C 994 311.6274 988.6274 317 982 317 L 883 317 C 876.3726 317 871 311.6274 871 305 Z" stroke="#344463" stroke-linecap="round" stroke-linejoin="round" stroke-width="4"/>
        <text transform="translate(876 190)" fill="#344463">
          <tspan font-family="Helvetica" font-size="22" fill="#344463" x="0" y="21">Decryption </tspan>
          <tspan font-family="Helvetica" font-size="22" fill="#344463" x="0" y="47">algorithm </tspan>
        </text>
      </g>
      <g id="Graphic_69">
        <text transform="translate(958.4012 270.5)" fill="black">
          <tspan font-family="Apple Color Emoji" font-size="28" fill="black" x="0" y="28">🔓</tspan>
        </text>
      </g>
      <g id="Line_71">
        <path d="M 385.46875 572.5 L 938.5 572.5 L 936.6252 334.3995" marker-end="url(#FilledArrow_Marker)" stroke="black" stroke-linecap="round" stroke-linejoin="round" stroke-width="3"/>
      </g>
      <g id="Graphic_72">
        <path d="M 668 434.5 L 817 434.5 C 822.5228 434.5 827 438.97715 827 444.5 L 827 529.5 C 827 535.02285 822.5228 539.5 817 539.5 L 668 539.5 C 662.47715 539.5 658 535.02285 658 529.5 L 658 444.5 C 658 438.97715 662.47715 434.5 668 434.5 Z" fill="#c0c0ff"/>
        <text transform="translate(663 453)" fill="black">
          <tspan font-family="Helvetica" font-size="28" fill="black" x="26.589844" y="28">Key Pair </tspan>
          <tspan font-family="Helvetica" font-size="28" fill="black" x="21.914062" y="62">Source B</tspan>
        </text>
      </g>
      <g id="Line_73">
        <line x1="742.5" y1="434.5" x2="742.5" y2="332.9" marker-end="url(#FilledArrow_Marker)" stroke="black" stroke-linecap="round" stroke-linejoin="round" stroke-width="3"/>
      </g>
      <g id="Graphic_74">
        <text transform="translate(479.2656 439.5)" fill="black">
          <tspan font-family="Helvetica" font-style="italic" font-size="28" fill="black" x="0" y="28">PU</tspan>
          <tspan font-family="Helvetica" font-style="italic" font-size="28" fill="black" y="41">b</tspan>
        </text>
      </g>
      <g id="Graphic_75">
        <text transform="translate(755.1668 368.5)" fill="black">
          <tspan font-family="Helvetica" font-style="italic" font-size="28" fill="black" x="0" y="28">PR</tspan>
          <tspan font-family="Helvetica" font-style="italic" font-size="28" fill="black" y="41">b</tspan>
        </text>
      </g>
      <g id="Graphic_76">
        <text transform="translate(322.46875 258)" fill="black">
          <tspan font-family="Helvetica" font-style="italic" font-size="28" fill="black" x="30.427734" y="28">Y</tspan>
        </text>
      </g>
      <g id="Graphic_77">
        <text transform="translate(566.5025 258)" fill="black">
          <tspan font-family="Helvetica" font-style="italic" font-size="28" fill="black" x="31.213867" y="28">Z</tspan>
        </text>
      </g>
      <g id="Graphic_78">
        <text transform="translate(796.6723 258)" fill="black">
          <tspan font-family="Helvetica" font-style="italic" font-size="28" fill="black" x="30.427734" y="28">Y</tspan>
        </text>
      </g>
      <g id="Graphic_79">
        <text transform="translate(983.5 258)" fill="black">
          <tspan font-family="Helvetica" font-style="italic" font-size="28" fill="black" x="30.427734" y="28">X</tspan>
        </text>
      </g>
      <g id="Line_80">
        <line x1="148" y1="252" x2="200.56875" y2="252" marker-end="url(#FilledArrow_Marker_2)" stroke="black" stroke-linecap="round" stroke-linejoin="round" stroke-width="3"/>
      </g>
      <g id="Line_81">
        <line x1="339.5" y1="249.5" x2="392.06875" y2="249.5" marker-end="url(#FilledArrow_Marker_2)" stroke="black" stroke-linecap="round" stroke-linejoin="round" stroke-width="3"/>
      </g>
      <g id="Line_82">
        <line x1="532.5" y1="249.5" x2="665.1" y2="249.5" marker-end="url(#FilledArrow_Marker_2)" stroke="black" stroke-linecap="round" stroke-linejoin="round" stroke-width="3"/>
      </g>
      <g id="Line_83">
        <line x1="808.5" y1="250" x2="857.0688" y2="250" marker-end="url(#FilledArrow_Marker_2)" stroke="black" stroke-linecap="round" stroke-linejoin="round" stroke-width="3"/>
      </g>
      <g id="Line_84">
        <line x1="998" y1="250" x2="1047.6988" y2="250" marker-end="url(#FilledArrow_Marker_2)" stroke="black" stroke-linecap="round" stroke-linejoin="round" stroke-width="3"/>
      </g>
    </g>
  </g>
</svg>
