<?xml version="1.0" encoding="UTF-8" standalone="no" ?>
<!DOCTYPE svg PUBLIC "-//W3C//DTD SVG 1.1//EN"
    "http://www.w3.org/Graphics/SVG/1.1/DTD/svg11.dtd">
<svg
    xmlns="http://www.w3.org/2000/svg"
    xmlns:xl="http://www.w3.org/1999/xlink"
    xmlns:dc="http://purl.org/dc/elements/1.1/"
    version="1.1"
    viewBox="294 835 319 292"
    width="957"
    height="876"
>
  <style>
    @import url('/LectureDoc2/ext/fonts/ld-fonts.css');
  </style>
  <defs>
    <filter id="Shadow" filterUnits="userSpaceOnUse" x="262.1" y="805.8">
      <feGaussianBlur in="SourceAlpha" result="blur" stdDeviation="1.308" />
      <feOffset in="blur" result="offset" dx="0" dy="2" />
      <feFlood flood-color="black" flood-opacity=".5" result="flood" />
      <feComposite in="flood" in2="offset" operator="in" result="color" />
      <feMerge>
        <feMergeNode in="color" />
        <feMergeNode in="SourceGraphic" />
      </feMerge>
    </filter>
    <marker
            orient="auto"
            overflow="visible"
            markerUnits="strokeWidth"
            id="FilledArrow_Marker"
            stroke-linejoin="miter"
            stroke-miterlimit="10"
            viewBox="-1 -3 6 6"
            markerWidth="6"
            markerHeight="6"
            color="#003776"
        >
      <g>
        <path
                    d="M 3.2 0 L 0 -1.2 L 0 1.2 Z"
                    fill="currentColor"
                    stroke="currentColor"
                    stroke-width="1"
                />
      </g>
    </marker>
    <marker
            orient="auto"
            overflow="visible"
            markerUnits="strokeWidth"
            id="FilledArrow_Marker_2"
            stroke-linejoin="miter"
            stroke-miterlimit="10"
            viewBox="-5 -3 6 6"
            markerWidth="6"
            markerHeight="6"
            color="#003776"
        >
      <g>
        <path
                    d="M -3.2 0 L 0 1.2 L 0 -1.2 Z"
                    fill="currentColor"
                    stroke="currentColor"
                    stroke-width="1"
                />
      </g>
    </marker>
  </defs>
  <metadata> Produced by OmniGraffle 8.0\n2025-03-05 13:28:26 +0000</metadata>
  <g
        id="rmi_protocol_stack"
        fill-opacity="1"
        stroke-opacity="1"
        stroke="none"
        stroke-dasharray="none"
        fill="none"
    >
    <title>rmi_protocol_stack</title>
    <g id="rmi_protocol_stack_Layer_1">
      <title>Layer 1</title>
      <g id="Graphic_3">
        <path
                    d="M 301.6378 1020.4724 L 605.2475 1020.4724 C 607.4566 1020.4724 609.2475 1022.2633 609.2475 1024.4724 L 609.2475 1045.4724 C 609.2475 1047.6816 607.4566 1049.4724 605.2475 1049.4724 L 301.6378 1049.4724 C 299.42865 1049.4724 297.6378 1047.6816 297.6378 1045.4724 L 297.6378 1024.4724 C 297.6378 1022.2633 299.42865 1020.4724 301.6378 1020.4724 Z"
                    fill="black"
                />
        <path
                    d="M 301.6378 1020.4724 L 605.2475 1020.4724 C 607.4566 1020.4724 609.2475 1022.2633 609.2475 1024.4724 L 609.2475 1045.4724 C 609.2475 1047.6816 607.4566 1049.4724 605.2475 1049.4724 L 301.6378 1049.4724 C 299.42865 1049.4724 297.6378 1047.6816 297.6378 1045.4724 L 297.6378 1024.4724 C 297.6378 1022.2633 299.42865 1020.4724 301.6378 1020.4724 Z"
                    stroke="#666"
                    stroke-linecap="round"
                    stroke-linejoin="round"
                    stroke-width="1"
                />
        <text transform="translate(302.6378 1025.4724)" fill="white">
          <tspan
                        font-family="Noto Sans Display"
                        font-size="14"
                        font-weight="400"
                        fill="white"
                        x="38.10884"
                        y="15"
                        xml:space="preserve"
                    >Remote Reference Layer (JRMP, IIOP)</tspan>
        </text>
      </g>
      <g id="Graphic_4">
        <path
                    d="M 301.6378 1055.9055 L 605.4488 1055.9055 C 607.65795 1055.9055 609.4488 1057.6964 609.4488 1059.9055 L 609.4488 1080.9055 C 609.4488 1083.1146 607.65795 1084.9055 605.4488 1084.9055 L 301.6378 1084.9055 C 299.42865 1084.9055 297.6378 1083.1146 297.6378 1080.9055 L 297.6378 1059.9055 C 297.6378 1057.6964 299.42865 1055.9055 301.6378 1055.9055 Z"
                    fill="black"
                />
        <path
                    d="M 301.6378 1055.9055 L 605.4488 1055.9055 C 607.65795 1055.9055 609.4488 1057.6964 609.4488 1059.9055 L 609.4488 1080.9055 C 609.4488 1083.1146 607.65795 1084.9055 605.4488 1084.9055 L 301.6378 1084.9055 C 299.42865 1084.9055 297.6378 1083.1146 297.6378 1080.9055 L 297.6378 1059.9055 C 297.6378 1057.6964 299.42865 1055.9055 301.6378 1055.9055 Z"
                    stroke="#666"
                    stroke-linecap="round"
                    stroke-linejoin="round"
                    stroke-width="1"
                />
        <text transform="translate(302.6378 1060.9055)" fill="white">
          <tspan
                        font-family="Noto Sans Display"
                        font-size="14"
                        font-weight="400"
                        fill="white"
                        x="72.19452"
                        y="15"
                        xml:space="preserve"
                    >RMI Transport Layer (TCP)</tspan>
        </text>
      </g>
      <g id="Graphic_5">
        <path
                    d="M 301.6378 1091.3386 L 605.4488 1091.3386 C 607.65795 1091.3386 609.4488 1093.1294 609.4488 1095.3386 L 609.4488 1116.3386 C 609.4488 1118.5477 607.65795 1120.3386 605.4488 1120.3386 L 301.6378 1120.3386 C 299.42865 1120.3386 297.6378 1118.5477 297.6378 1116.3386 L 297.6378 1095.3386 C 297.6378 1093.1294 299.42865 1091.3386 301.6378 1091.3386 Z"
                    fill="#a5a5a5"
                />
        <path
                    d="M 301.6378 1091.3386 L 605.4488 1091.3386 C 607.65795 1091.3386 609.4488 1093.1294 609.4488 1095.3386 L 609.4488 1116.3386 C 609.4488 1118.5477 607.65795 1120.3386 605.4488 1120.3386 L 301.6378 1120.3386 C 299.42865 1120.3386 297.6378 1118.5477 297.6378 1116.3386 L 297.6378 1095.3386 C 297.6378 1093.1294 299.42865 1091.3386 301.6378 1091.3386 Z"
                    stroke="#a5a5a5"
                    stroke-linecap="round"
                    stroke-linejoin="round"
                    stroke-width="1"
                />
        <text transform="translate(302.6378 1096.3386)" fill="white">
          <tspan
                        font-family="Noto Sans Display"
                        font-size="14"
                        font-weight="400"
                        fill="white"
                        x="87.52452"
                        y="15"
                        xml:space="preserve"
                    >Internet Protocol (IP)</tspan>
        </text>
      </g>
      <g id="Graphic_6" filter="url(#Shadow)">
        <path
                    d="M 544.5827 963.7795 L 603.4488 963.7795 C 606.7625 963.7795 609.4488 966.4658 609.4488 969.7795 L 609.4488 1005.7795 C 609.4488 1009.0932 606.7625 1011.7795 603.4488 1011.7795 L 544.5827 1011.7795 C 541.26897 1011.7795 538.5827 1009.0932 538.5827 1005.7795 L 538.5827 969.7795 C 538.5827 966.4658 541.26897 963.7795 544.5827 963.7795 Z"
                    fill="#6b7ca5"
                />
        <text transform="translate(543.5827 968.7795)" fill="white">
          <tspan
                        font-family="Noto Sans Display"
                        font-size="14"
                        font-weight="400"
                        fill="white"
                        x="19.67107"
                        y="15"
                        xml:space="preserve"
                    >RMI</tspan>
          <tspan
                        font-family="Noto Sans Display"
                        font-size="14"
                        font-weight="400"
                        fill="white"
                        x="5.657071"
                        y="34"
                        xml:space="preserve"
                    >skeleton</tspan>
        </text>
      </g>
      <g id="Graphic_7" filter="url(#Shadow)">
        <path
                    d="M 303.6378 977.9528 L 362.50393 977.9528 C 365.81764 977.9528 368.50393 980.639 368.50393 983.9528 L 368.50393 1000.9528 C 368.50393 1004.2665 365.81764 1006.9528 362.50393 1006.9528 L 303.6378 1006.9528 C 300.3241 1006.9528 297.6378 1004.2665 297.6378 1000.9528 L 297.6378 983.9528 C 297.6378 980.639 300.3241 977.9528 303.6378 977.9528 Z"
                    fill="#6b7ca5"
                />
        <text transform="translate(302.6378 982.9528)" fill="white">
          <tspan
                        font-family="Noto Sans Display"
                        font-size="14"
                        font-weight="400"
                        fill="white"
                        x="4.250071"
                        y="15"
                        xml:space="preserve"
                    >RMI stub</tspan>
        </text>
      </g>
      <g id="Graphic_8" filter="url(#Shadow)">
        <path
                    d="M 303.6378 921.2598 L 362.50393 921.2598 C 365.81764 921.2598 368.50393 923.9461 368.50393 927.2598 L 368.50393 963.2598 C 368.50393 966.5735 365.81764 969.2598 362.50393 969.2598 L 303.6378 969.2598 C 300.3241 969.2598 297.6378 966.5735 297.6378 963.2598 L 297.6378 927.2598 C 297.6378 923.9461 300.3241 921.2598 303.6378 921.2598 Z"
                    fill="#6b7ca5"
                />
        <text transform="translate(302.6378 926.2598)" fill="white">
          <tspan
                        font-family="Noto Sans Display"
                        font-size="14"
                        font-weight="400"
                        fill="white"
                        x="19.67107"
                        y="15"
                        xml:space="preserve"
                    >RMI</tspan>
          <tspan
                        font-family="Noto Sans Display"
                        font-size="14"
                        font-weight="400"
                        fill="white"
                        x="4.446071"
                        y="34"
                        xml:space="preserve"
                    >interface</tspan>
        </text>
      </g>
      <g id="Graphic_9">
        <ellipse
                    cx="340.15748"
                    cy="870.5062"
                    rx="42.5197527338499"
                    ry="34.2857690709221"
                    fill="#ff914d"
                />
        <ellipse
                    cx="340.15748"
                    cy="870.5062"
                    rx="42.5197527338499"
                    ry="34.2857690709221"
                    stroke="#003776"
                    stroke-linecap="round"
                    stroke-linejoin="round"
                    stroke-width="1"
                />
        <text transform="translate(311.14173 851.5062)" fill="white">
          <tspan
                        font-family="Noto Sans Display"
                        font-size="14"
                        font-weight="400"
                        fill="white"
                        x="18.253747"
                        y="15"
                        xml:space="preserve"
                    >RMI </tspan>
          <tspan
                        font-family="Noto Sans Display"
                        font-size="14"
                        font-weight="400"
                        fill="white"
                        x="12.793747"
                        y="34"
                        xml:space="preserve"
                    >Client</tspan>
        </text>
      </g>
      <g id="Graphic_10">
        <ellipse
                    cx="566.4939"
                    cy="870.5062"
                    rx="42.0844948400178"
                    ry="34.2857690709221"
                    fill="#ff914d"
                />
        <ellipse
                    cx="566.4939"
                    cy="870.5062"
                    rx="42.0844948400178"
                    ry="34.2857690709221"
                    stroke="#003776"
                    stroke-linecap="round"
                    stroke-linejoin="round"
                    stroke-width="1"
                />
        <text transform="translate(537.8263 851.5062)" fill="white">
          <tspan
                        font-family="Noto Sans Display"
                        font-size="14"
                        font-weight="400"
                        fill="white"
                        x="17.905542"
                        y="15"
                        xml:space="preserve"
                    >RMI </tspan>
          <tspan
                        font-family="Noto Sans Display"
                        font-size="14"
                        font-weight="400"
                        fill="white"
                        x="10.352542"
                        y="34"
                        xml:space="preserve"
                    >Server</tspan>
        </text>
      </g>
      <g id="Line_15" filter="url(#Shadow)">
        <path
                    d="M 318.26233 920.2029 C 304.97525 957.6284 293.7374 1009.1 311.81102 1048.8189 C 343.9338 1119.4125 373.23637 1119.685 453.5433 1119.685 C 533.85023 1119.685 563.2761 1119.4125 595.2756 1048.8189 C 613.2927 1009.0715 601.8966 957.5547 588.4974 920.1225"
                    marker-end="url(#FilledArrow_Marker)"
                    marker-start="url(#FilledArrow_Marker_2)"
                    stroke="#003776"
                    stroke-linecap="round"
                    stroke-linejoin="round"
                    stroke-dasharray="16.0,16.0"
                    stroke-width="4"
                />
      </g>
    </g>
  </g>
</svg>
