<?xml version="1.0" encoding="UTF-8" standalone="no"?>
<!DOCTYPE svg PUBLIC "-//W3C//DTD SVG 1.1//EN" "http://www.w3.org/Graphics/SVG/1.1/DTD/svg11.dtd">
<svg xmlns:dc="http://purl.org/dc/elements/1.1/" xmlns:xl="http://www.w3.org/1999/xlink" xmlns="http://www.w3.org/2000/svg" version="1.1" viewBox="-38 108 212 308" width="212" height="318">
  <style>
    @import url('/LectureDoc2/ext/fonts/ld-fonts.css'); 
  </style>
  <defs>
    <marker orient="auto" overflow="visible" markerUnits="strokeWidth" id="FilledArrow_Marker" stroke-linejoin="miter" stroke-miterlimit="10" viewBox="-1 -4 10 8" markerWidth="10" markerHeight="8" color="black">
      <g>
        <path d="M 8 0 L 0 -3 L 0 3 Z" fill="currentColor" stroke="currentColor" stroke-width="1"/>
      </g>
    </marker>
  </defs>
  <metadata> Produced by OmniGraffle 8.0\n2025-01-13 21:42:56 +0000</metadata>
  <g id="double_hashing" fill-opacity="1" fill="none" stroke="none" stroke-dasharray="none" stroke-opacity="1">
    <title>double_hashing</title>
    <g id="double_hashing_Layer_1">
      <title>Layer 1</title>
      <g id="Graphic_199">
        <rect x="-36.55078" y="125.41406" width="30" height="22" fill="white"/>
        <rect x="-36.55078" y="125.41406" width="30" height="22" stroke="black" stroke-linecap="round" stroke-linejoin="round" stroke-width="1"/>
      </g>
      <g id="Graphic_198">
        <rect x="-36.55078" y="160.27344" width="30" height="22" fill="white"/>
        <rect x="-36.55078" y="160.27344" width="30" height="22" stroke="black" stroke-linecap="round" stroke-linejoin="round" stroke-width="1"/>
      </g>
      <g id="Graphic_197">
        <rect x="-36.55078" y="195.13281" width="30" height="22" fill="white"/>
        <rect x="-36.55078" y="195.13281" width="30" height="22" stroke="black" stroke-linecap="round" stroke-linejoin="round" stroke-width="1"/>
      </g>
      <g id="Graphic_196">
        <rect x="-36.55078" y="235.1211" width="30" height="22" fill="white"/>
        <rect x="-36.55078" y="235.1211" width="30" height="22" stroke="black" stroke-linecap="round" stroke-linejoin="round" stroke-width="1"/>
        <text transform="translate(-31.55078 238.12106)" fill="black">
          <tspan font-family="Victor Mono" font-size="11" font-weight="400" fill="black" x="7" y="11" xml:space="preserve">3</tspan>
        </text>
      </g>
      <g id="Graphic_195">
        <rect x="-36.55078" y="277.9629" width="30" height="22" fill="white"/>
        <rect x="-36.55078" y="277.9629" width="30" height="22" stroke="black" stroke-linecap="round" stroke-linejoin="round" stroke-width="1"/>
        <text transform="translate(-31.55078 280.96286)" fill="black">
          <tspan font-family="Victor Mono" font-size="11" font-weight="400" fill="black" x="7" y="11" xml:space="preserve">3</tspan>
        </text>
      </g>
      <g id="Graphic_194">
        <rect x="-36.55078" y="314.58594" width="30" height="22" fill="white"/>
        <rect x="-36.55078" y="314.58594" width="30" height="22" stroke="black" stroke-linecap="round" stroke-linejoin="round" stroke-width="1"/>
        <text transform="translate(-31.55078 317.5859)" fill="black">
          <tspan font-family="Victor Mono" font-size="11" font-weight="400" fill="black" x="7" y="11" xml:space="preserve">3</tspan>
        </text>
      </g>
      <g id="Graphic_193">
        <rect x="-36.55078" y="351.7539" width="30" height="22" fill="white"/>
        <rect x="-36.55078" y="351.7539" width="30" height="22" stroke="black" stroke-linecap="round" stroke-linejoin="round" stroke-width="1"/>
        <text transform="translate(-31.55078 354.75388)" fill="black">
          <tspan font-family="Victor Mono" font-size="11" font-weight="400" fill="black" x="7" y="11" xml:space="preserve">3</tspan>
        </text>
      </g>
      <g id="Graphic_192">
        <rect x="-36.55078" y="390.3086" width="30" height="22" fill="white"/>
        <rect x="-36.55078" y="390.3086" width="30" height="22" stroke="black" stroke-linecap="round" stroke-linejoin="round" stroke-width="1"/>
        <text transform="translate(-31.55078 393.30856)" fill="black">
          <tspan font-family="Victor Mono" font-size="11" font-weight="400" fill="black" x="7" y="11" xml:space="preserve">3</tspan>
        </text>
      </g>
      <g id="Graphic_191">
        <rect x="-6.550781" y="125.41406" width="30" height="22" fill="white"/>
        <rect x="-6.550781" y="125.41406" width="30" height="22" stroke="black" stroke-linecap="round" stroke-linejoin="round" stroke-width="1"/>
      </g>
      <g id="Graphic_190">
        <rect x="-6.550781" y="160.27344" width="30" height="22" fill="white"/>
        <rect x="-6.550781" y="160.27344" width="30" height="22" stroke="black" stroke-linecap="round" stroke-linejoin="round" stroke-width="1"/>
      </g>
      <g id="Graphic_189">
        <rect x="-6.550781" y="195.13281" width="30" height="22" fill="white"/>
        <rect x="-6.550781" y="195.13281" width="30" height="22" stroke="black" stroke-linecap="round" stroke-linejoin="round" stroke-width="1"/>
      </g>
      <g id="Graphic_188">
        <rect x="-6.550781" y="235.1211" width="30" height="22" fill="white"/>
        <rect x="-6.550781" y="235.1211" width="30" height="22" stroke="black" stroke-linecap="round" stroke-linejoin="round" stroke-width="1"/>
      </g>
      <g id="Graphic_187">
        <rect x="-6.550781" y="277.9629" width="30" height="22" fill="white"/>
        <rect x="-6.550781" y="277.9629" width="30" height="22" stroke="black" stroke-linecap="round" stroke-linejoin="round" stroke-width="1"/>
      </g>
      <g id="Graphic_186">
        <rect x="-6.550781" y="314.58594" width="30" height="22" fill="white"/>
        <rect x="-6.550781" y="314.58594" width="30" height="22" stroke="black" stroke-linecap="round" stroke-linejoin="round" stroke-width="1"/>
        <text transform="translate(-1.5507812 317.5859)" fill="black">
          <tspan font-family="Victor Mono" font-size="11" font-weight="400" fill="black" x="7" y="11" xml:space="preserve">9</tspan>
        </text>
      </g>
      <g id="Graphic_185">
        <rect x="-6.550781" y="351.7539" width="30" height="22" fill="white"/>
        <rect x="-6.550781" y="351.7539" width="30" height="22" stroke="black" stroke-linecap="round" stroke-linejoin="round" stroke-width="1"/>
        <text transform="translate(-1.5507812 354.75388)" fill="black">
          <tspan font-family="Victor Mono" font-size="11" font-weight="400" fill="black" x="7" y="11" xml:space="preserve">9</tspan>
        </text>
      </g>
      <g id="Graphic_184">
        <rect x="-6.550781" y="390.3086" width="30" height="22" fill="white"/>
        <rect x="-6.550781" y="390.3086" width="30" height="22" stroke="black" stroke-linecap="round" stroke-linejoin="round" stroke-width="1"/>
        <text transform="translate(-1.5507812 393.30856)" fill="black">
          <tspan font-family="Victor Mono" font-size="11" font-weight="400" fill="black" x="7" y="11" xml:space="preserve">9</tspan>
        </text>
      </g>
      <g id="Graphic_183">
        <rect x="23.44922" y="125.41406" width="30" height="22" fill="white"/>
        <rect x="23.44922" y="125.41406" width="30" height="22" stroke="black" stroke-linecap="round" stroke-linejoin="round" stroke-width="1"/>
      </g>
      <g id="Graphic_182">
        <rect x="23.44922" y="160.27344" width="30" height="22" fill="white"/>
        <rect x="23.44922" y="160.27344" width="30" height="22" stroke="black" stroke-linecap="round" stroke-linejoin="round" stroke-width="1"/>
      </g>
      <g id="Graphic_181">
        <rect x="23.44922" y="195.13281" width="30" height="22" fill="white"/>
        <rect x="23.44922" y="195.13281" width="30" height="22" stroke="black" stroke-linecap="round" stroke-linejoin="round" stroke-width="1"/>
      </g>
      <g id="Graphic_180">
        <rect x="23.44922" y="235.1211" width="30" height="22" fill="white"/>
        <rect x="23.44922" y="235.1211" width="30" height="22" stroke="black" stroke-linecap="round" stroke-linejoin="round" stroke-width="1"/>
      </g>
      <g id="Graphic_179">
        <rect x="23.44922" y="277.9629" width="30" height="22" fill="white"/>
        <rect x="23.44922" y="277.9629" width="30" height="22" stroke="black" stroke-linecap="round" stroke-linejoin="round" stroke-width="1"/>
        <text transform="translate(28.44922 280.96286)" fill="black">
          <tspan font-family="Victor Mono" font-size="11" font-weight="400" fill="black" x="4" y="11" xml:space="preserve">21</tspan>
        </text>
      </g>
      <g id="Graphic_178">
        <rect x="23.44922" y="314.58594" width="30" height="22" fill="white"/>
        <rect x="23.44922" y="314.58594" width="30" height="22" stroke="black" stroke-linecap="round" stroke-linejoin="round" stroke-width="1"/>
        <text transform="translate(28.44922 317.5859)" fill="black">
          <tspan font-family="Victor Mono" font-size="11" font-weight="400" fill="black" x="4" y="11" xml:space="preserve">21</tspan>
        </text>
      </g>
      <g id="Graphic_177">
        <rect x="23.44922" y="351.7539" width="30" height="22" fill="white"/>
        <rect x="23.44922" y="351.7539" width="30" height="22" stroke="black" stroke-linecap="round" stroke-linejoin="round" stroke-width="1"/>
        <text transform="translate(28.44922 354.75388)" fill="black">
          <tspan font-family="Victor Mono" font-size="11" font-weight="400" fill="black" x="4" y="11" xml:space="preserve">21</tspan>
        </text>
      </g>
      <g id="Graphic_176">
        <rect x="23.44922" y="390.3086" width="30" height="22" fill="white"/>
        <rect x="23.44922" y="390.3086" width="30" height="22" stroke="black" stroke-linecap="round" stroke-linejoin="round" stroke-width="1"/>
        <text transform="translate(28.44922 393.30856)" fill="black">
          <tspan font-family="Victor Mono" font-size="11" font-weight="400" fill="black" x="4" y="11" xml:space="preserve">21</tspan>
        </text>
      </g>
      <g id="Graphic_175">
        <rect x="53.44922" y="125.41406" width="30" height="22" fill="white"/>
        <rect x="53.44922" y="125.41406" width="30" height="22" stroke="black" stroke-linecap="round" stroke-linejoin="round" stroke-width="1"/>
      </g>
      <g id="Graphic_174">
        <rect x="53.44922" y="160.27344" width="30" height="22" fill="white"/>
        <rect x="53.44922" y="160.27344" width="30" height="22" stroke="black" stroke-linecap="round" stroke-linejoin="round" stroke-width="1"/>
        <text transform="translate(58.44922 163.2734)" fill="black">
          <tspan font-family="Victor Mono" font-size="11" font-weight="400" fill="black" x="4" y="11" xml:space="preserve">17</tspan>
        </text>
      </g>
      <g id="Graphic_173">
        <rect x="53.44922" y="195.13281" width="30" height="22" fill="white"/>
        <rect x="53.44922" y="195.13281" width="30" height="22" stroke="black" stroke-linecap="round" stroke-linejoin="round" stroke-width="1"/>
        <text transform="translate(58.44922 198.13278)" fill="black">
          <tspan font-family="Victor Mono" font-size="11" font-weight="400" fill="black" x="4" y="11" xml:space="preserve">17</tspan>
        </text>
      </g>
      <g id="Graphic_172">
        <rect x="53.44922" y="235.1211" width="30" height="22" fill="white"/>
        <rect x="53.44922" y="235.1211" width="30" height="22" stroke="black" stroke-linecap="round" stroke-linejoin="round" stroke-width="1"/>
        <text transform="translate(58.44922 238.12106)" fill="black">
          <tspan font-family="Victor Mono" font-size="11" font-weight="400" fill="black" x="4" y="11" xml:space="preserve">17</tspan>
        </text>
      </g>
      <g id="Graphic_171">
        <rect x="53.44922" y="277.9629" width="30" height="22" fill="white"/>
        <rect x="53.44922" y="277.9629" width="30" height="22" stroke="black" stroke-linecap="round" stroke-linejoin="round" stroke-width="1"/>
        <text transform="translate(58.44922 280.96286)" fill="black">
          <tspan font-family="Victor Mono" font-size="11" font-weight="400" fill="black" x="4" y="11" xml:space="preserve">17</tspan>
        </text>
      </g>
      <g id="Graphic_170">
        <rect x="53.44922" y="314.58594" width="30" height="22" fill="white"/>
        <rect x="53.44922" y="314.58594" width="30" height="22" stroke="black" stroke-linecap="round" stroke-linejoin="round" stroke-width="1"/>
        <text transform="translate(58.44922 317.5859)" fill="black">
          <tspan font-family="Victor Mono" font-size="11" font-weight="400" fill="black" x="4" y="11" xml:space="preserve">17</tspan>
        </text>
      </g>
      <g id="Graphic_169">
        <rect x="53.44922" y="351.7539" width="30" height="22" fill="white"/>
        <rect x="53.44922" y="351.7539" width="30" height="22" stroke="black" stroke-linecap="round" stroke-linejoin="round" stroke-width="1"/>
        <text transform="translate(58.44922 354.75388)" fill="black">
          <tspan font-family="Victor Mono" font-size="11" font-weight="400" fill="black" x="4" y="11" xml:space="preserve">17</tspan>
        </text>
      </g>
      <g id="Graphic_168">
        <rect x="53.44922" y="390.3086" width="30" height="22" fill="white"/>
        <rect x="53.44922" y="390.3086" width="30" height="22" stroke="black" stroke-linecap="round" stroke-linejoin="round" stroke-width="1"/>
        <text transform="translate(58.44922 393.30856)" fill="black">
          <tspan font-family="Victor Mono" font-size="11" font-weight="400" fill="black" x="4" y="11" xml:space="preserve">17</tspan>
        </text>
      </g>
      <g id="Graphic_167">
        <rect x="83.44922" y="125.41406" width="30" height="22" fill="white"/>
        <rect x="83.44922" y="125.41406" width="30" height="22" stroke="black" stroke-linecap="round" stroke-linejoin="round" stroke-width="1"/>
      </g>
      <g id="Graphic_166">
        <rect x="83.44922" y="160.27344" width="30" height="22" fill="white"/>
        <rect x="83.44922" y="160.27344" width="30" height="22" stroke="black" stroke-linecap="round" stroke-linejoin="round" stroke-width="1"/>
      </g>
      <g id="Graphic_165">
        <rect x="83.44922" y="195.13281" width="30" height="22" fill="white"/>
        <rect x="83.44922" y="195.13281" width="30" height="22" stroke="black" stroke-linecap="round" stroke-linejoin="round" stroke-width="1"/>
      </g>
      <g id="Graphic_164">
        <rect x="83.44922" y="235.1211" width="30" height="22" fill="white"/>
        <rect x="83.44922" y="235.1211" width="30" height="22" stroke="black" stroke-linecap="round" stroke-linejoin="round" stroke-width="1"/>
      </g>
      <g id="Graphic_163">
        <rect x="83.44922" y="277.9629" width="30" height="22" fill="white"/>
        <rect x="83.44922" y="277.9629" width="30" height="22" stroke="black" stroke-linecap="round" stroke-linejoin="round" stroke-width="1"/>
      </g>
      <g id="Graphic_162">
        <rect x="83.44922" y="314.58594" width="30" height="22" fill="white"/>
        <rect x="83.44922" y="314.58594" width="30" height="22" stroke="black" stroke-linecap="round" stroke-linejoin="round" stroke-width="1"/>
      </g>
      <g id="Graphic_161">
        <rect x="83.44922" y="351.7539" width="30" height="22" fill="white"/>
        <rect x="83.44922" y="351.7539" width="30" height="22" stroke="black" stroke-linecap="round" stroke-linejoin="round" stroke-width="1"/>
        <text transform="translate(88.44922 354.75388)" fill="black">
          <tspan font-family="Victor Mono" font-size="11" font-weight="400" fill="black" x="4" y="11" xml:space="preserve">10</tspan>
        </text>
      </g>
      <g id="Graphic_160">
        <rect x="83.44922" y="390.3086" width="30" height="22" fill="white"/>
        <rect x="83.44922" y="390.3086" width="30" height="22" stroke="black" stroke-linecap="round" stroke-linejoin="round" stroke-width="1"/>
        <text transform="translate(88.44922 393.30856)" fill="black">
          <tspan font-family="Victor Mono" font-size="11" font-weight="400" fill="black" x="4" y="11" xml:space="preserve">10</tspan>
        </text>
      </g>
      <g id="Graphic_159">
        <rect x="113.44922" y="125.41406" width="30" height="22" fill="white"/>
        <rect x="113.44922" y="125.41406" width="30" height="22" stroke="black" stroke-linecap="round" stroke-linejoin="round" stroke-width="1"/>
      </g>
      <g id="Graphic_158">
        <rect x="113.44922" y="160.27344" width="30" height="22" fill="white"/>
        <rect x="113.44922" y="160.27344" width="30" height="22" stroke="black" stroke-linecap="round" stroke-linejoin="round" stroke-width="1"/>
      </g>
      <g id="Graphic_157">
        <rect x="113.44922" y="195.13281" width="30" height="22" fill="white"/>
        <rect x="113.44922" y="195.13281" width="30" height="22" stroke="black" stroke-linecap="round" stroke-linejoin="round" stroke-width="1"/>
        <text transform="translate(118.44922 198.13278)" fill="black">
          <tspan font-family="Victor Mono" font-size="11" font-weight="400" fill="black" x="7" y="11" xml:space="preserve">5</tspan>
        </text>
      </g>
      <g id="Graphic_156">
        <rect x="113.44922" y="235.1211" width="30" height="22" fill="white"/>
        <rect x="113.44922" y="235.1211" width="30" height="22" stroke="black" stroke-linecap="round" stroke-linejoin="round" stroke-width="1"/>
        <text transform="translate(118.44922 238.12106)" fill="black">
          <tspan font-family="Victor Mono" font-size="11" font-weight="400" fill="black" x="7" y="11" xml:space="preserve">5</tspan>
        </text>
      </g>
      <g id="Graphic_155">
        <rect x="113.44922" y="277.9629" width="30" height="22" fill="white"/>
        <rect x="113.44922" y="277.9629" width="30" height="22" stroke="black" stroke-linecap="round" stroke-linejoin="round" stroke-width="1"/>
        <text transform="translate(118.44922 280.96286)" fill="black">
          <tspan font-family="Victor Mono" font-size="11" font-weight="400" fill="black" x="7" y="11" xml:space="preserve">5</tspan>
        </text>
      </g>
      <g id="Graphic_154">
        <rect x="113.44922" y="314.58594" width="30" height="22" fill="white"/>
        <rect x="113.44922" y="314.58594" width="30" height="22" stroke="black" stroke-linecap="round" stroke-linejoin="round" stroke-width="1"/>
        <text transform="translate(118.44922 317.5859)" fill="black">
          <tspan font-family="Victor Mono" font-size="11" font-weight="400" fill="black" x="7" y="11" xml:space="preserve">5</tspan>
        </text>
      </g>
      <g id="Graphic_153">
        <rect x="113.44922" y="351.7539" width="30" height="22" fill="white"/>
        <rect x="113.44922" y="351.7539" width="30" height="22" stroke="black" stroke-linecap="round" stroke-linejoin="round" stroke-width="1"/>
        <text transform="translate(118.44922 354.75388)" fill="black">
          <tspan font-family="Victor Mono" font-size="11" font-weight="400" fill="black" x="7" y="11" xml:space="preserve">5</tspan>
        </text>
      </g>
      <g id="Graphic_152">
        <rect x="113.44922" y="390.3086" width="30" height="22" fill="white"/>
        <rect x="113.44922" y="390.3086" width="30" height="22" stroke="black" stroke-linecap="round" stroke-linejoin="round" stroke-width="1"/>
        <text transform="translate(118.44922 393.30856)" fill="black">
          <tspan font-family="Victor Mono" font-size="11" font-weight="400" fill="black" x="7" y="11" xml:space="preserve">5</tspan>
        </text>
      </g>
      <g id="Graphic_151">
        <rect x="143.44922" y="125.41406" width="30" height="22" fill="white"/>
        <rect x="143.44922" y="125.41406" width="30" height="22" stroke="black" stroke-linecap="round" stroke-linejoin="round" stroke-width="1"/>
      </g>
      <g id="Graphic_150">
        <rect x="143.44922" y="160.27344" width="30" height="22" fill="white"/>
        <rect x="143.44922" y="160.27344" width="30" height="22" stroke="black" stroke-linecap="round" stroke-linejoin="round" stroke-width="1"/>
      </g>
      <g id="Graphic_149">
        <rect x="143.44922" y="195.13281" width="30" height="22" fill="white"/>
        <rect x="143.44922" y="195.13281" width="30" height="22" stroke="black" stroke-linecap="round" stroke-linejoin="round" stroke-width="1"/>
      </g>
      <g id="Graphic_148">
        <rect x="143.44922" y="235.1211" width="30" height="22" fill="white"/>
        <rect x="143.44922" y="235.1211" width="30" height="22" stroke="black" stroke-linecap="round" stroke-linejoin="round" stroke-width="1"/>
      </g>
      <g id="Graphic_147">
        <rect x="143.44922" y="277.9629" width="30" height="22" fill="white"/>
        <rect x="143.44922" y="277.9629" width="30" height="22" stroke="black" stroke-linecap="round" stroke-linejoin="round" stroke-width="1"/>
      </g>
      <g id="Graphic_146">
        <rect x="143.44922" y="314.58594" width="30" height="22" fill="white"/>
        <rect x="143.44922" y="314.58594" width="30" height="22" stroke="black" stroke-linecap="round" stroke-linejoin="round" stroke-width="1"/>
      </g>
      <g id="Graphic_145">
        <rect x="143.44922" y="351.7539" width="30" height="22" fill="white"/>
        <rect x="143.44922" y="351.7539" width="30" height="22" stroke="black" stroke-linecap="round" stroke-linejoin="round" stroke-width="1"/>
      </g>
      <g id="Graphic_144">
        <rect x="143.44922" y="390.3086" width="30" height="22" fill="white"/>
        <rect x="143.44922" y="390.3086" width="30" height="22" stroke="black" stroke-linecap="round" stroke-linejoin="round" stroke-width="1"/>
        <text transform="translate(148.44922 393.30856)" fill="black">
          <tspan font-family="Victor Mono" font-size="11" font-weight="400" fill="black" x="4" y="11" xml:space="preserve">12</tspan>
        </text>
      </g>
      <g id="Graphic_143">
        <text transform="translate(-24.82351 108.45007)" fill="black">
          <tspan font-family="Victor Mono" font-size="12" font-weight="400" fill="black" x="6612488e-19" y="12" xml:space="preserve">0</tspan>
        </text>
      </g>
      <g id="Graphic_142">
        <text transform="translate(5.1764915 108.45007)" fill="black">
          <tspan font-family="Victor Mono" font-size="12" font-weight="400" fill="black" x="6612488e-19" y="12" xml:space="preserve">1</tspan>
        </text>
      </g>
      <g id="Graphic_141">
        <text transform="translate(35.17649 108.45007)" fill="black">
          <tspan font-family="Victor Mono" font-size="12" font-weight="400" fill="black" x="6612488e-19" y="12" xml:space="preserve">2</tspan>
        </text>
      </g>
      <g id="Graphic_140">
        <text transform="translate(65.17649 108.45007)" fill="black">
          <tspan font-family="Victor Mono" font-size="12" font-weight="400" fill="black" x="6612488e-19" y="12" xml:space="preserve">3</tspan>
        </text>
      </g>
      <g id="Graphic_139">
        <text transform="translate(95.17649 108.45007)" fill="black">
          <tspan font-family="Victor Mono" font-size="12" font-weight="400" fill="black" x="6612488e-19" y="12" xml:space="preserve">4</tspan>
        </text>
      </g>
      <g id="Graphic_138">
        <text transform="translate(125.17649 108.45007)" fill="black">
          <tspan font-family="Victor Mono" font-size="12" font-weight="400" fill="black" x="6612488e-19" y="12" xml:space="preserve">5</tspan>
        </text>
      </g>
      <g id="Graphic_137">
        <text transform="translate(155.1765 108.45007)" fill="black">
          <tspan font-family="Victor Mono" font-size="12" font-weight="400" fill="black" x="6612488e-19" y="12" xml:space="preserve">6</tspan>
        </text>
      </g>
      <g id="Line_136">
        <path d="M 68.44922 235.1211 C 68.44922 235.1211 48.94667 229.1953 23.44922 229.1953 C 8.842965 229.1953 -3.7960094 231.1399 -11.92845 232.80117" marker-end="url(#FilledArrow_Marker)" stroke="black" stroke-linecap="round" stroke-linejoin="round" stroke-width="1"/>
      </g>
      <g id="Line_135">
        <path d="M 132.94922 314.58594 C 132.94922 314.58594 117.22239 307.20703 98.94922 307.20703 C 90.19808 307.20703 82.83368 308.8994 77.53487 310.66315" marker-end="url(#FilledArrow_Marker)" stroke="black" stroke-linecap="round" stroke-linejoin="round" stroke-width="1"/>
      </g>
      <g id="Line_134">
        <path d="M 70.69922 314.58594 C 70.69922 314.58594 54.97239 307.20703 36.69922 307.20703 C 27.948082 307.20703 20.583682 308.8994 15.284869 310.66315" marker-end="url(#FilledArrow_Marker)" stroke="black" stroke-linecap="round" stroke-linejoin="round" stroke-width="1"/>
      </g>
      <g id="Line_133">
        <path d="M 40.69922 314.58594 C 40.69922 314.58594 24.97239 307.20703 6.699219 307.20703 C -2.0519177 307.20703 -9.416318 308.8994 -14.715131 310.66315" marker-end="url(#FilledArrow_Marker)" stroke="black" stroke-linecap="round" stroke-linejoin="round" stroke-width="1"/>
      </g>
      <g id="Line_132">
        <path d="M -21.55078 336.58594 C -21.55078 336.58594 10.953468 342.66797 53.44922 342.66797 C 81.94295 342.66797 105.9447 339.9336 118.66805 338.1317" marker-end="url(#FilledArrow_Marker)" stroke="black" stroke-linecap="round" stroke-linejoin="round" stroke-width="1"/>
      </g>
      <g id="Line_200">
        <path d="M 98.44922 412.3086 C 98.44922 412.3086 83.79893 417.0524 61.042346 419.08896 C 47.04277 419.9311 43.916873 420 40.69922 420 C 24.197554 420 9.049016 418.18787 -2.1721123 416.3228" marker-end="url(#FilledArrow_Marker)" stroke="black" stroke-linecap="round" stroke-linejoin="round" stroke-width="1"/>
      </g>
      <g id="Line_201">
        <path d="M 128.44922 412.3086 C 128.44922 412.3086 104.69582 420 70.69922 420 C 48.75415 420 29.202156 416.79514 18.09782 414.52295" marker-end="url(#FilledArrow_Marker)" stroke="black" stroke-linecap="round" stroke-linejoin="round" stroke-width="1"/>
      </g>
      <g id="Line_131">
        <path d="M -21.55078 277.9629 C -21.55078 277.9629 -6.5490814 271.81055 10.449219 271.81055 C 18.051974 271.81055 24.45513 273.0413 29.21086 274.40186" marker-end="url(#FilledArrow_Marker)" stroke="black" stroke-linecap="round" stroke-linejoin="round" stroke-width="1"/>
      </g>
      <g id="Line_202">
        <path d="M -21.55078 390.3086 C -21.55078 390.3086 -2.0482315 385 23.44922 385 C 38.020613 385 50.634106 386.73376 58.76858 388.21964" marker-end="url(#FilledArrow_Marker)" stroke="black" stroke-linecap="round" stroke-linejoin="round" stroke-width="1"/>
      </g>
      <g id="Line_203">
        <path d="M 8.449219 390.3086 C 8.449219 390.3086 25.701768 385 51.19922 385 C 66.25367 385 80.00262 386.8506 88.7396 388.36653" marker-end="url(#FilledArrow_Marker)" stroke="black" stroke-linecap="round" stroke-linejoin="round" stroke-width="1"/>
      </g>
      <g id="Line_204">
        <path d="M 68.44922 390.3086 C 68.44922 390.3086 82.74864 385 108.2461 385 C 123.86328 385 139.18343 386.99155 148.71153 388.535" marker-end="url(#FilledArrow_Marker)" stroke="black" stroke-linecap="round" stroke-linejoin="round" stroke-width="1"/>
      </g>
      <g id="Line_130">
        <path d="M 68.44922 351.7539 C 68.44922 351.7539 74.95007 345.64844 83.44922 345.64844 C 85.77984 345.64844 87.96021 346.10754 89.89746 346.77397" marker-end="url(#FilledArrow_Marker)" stroke="black" stroke-linecap="round" stroke-linejoin="round" stroke-width="1"/>
      </g>
    </g>
  </g>
</svg>
