<?xml version="1.0" encoding="UTF-8" standalone="no"?>
<!DOCTYPE svg PUBLIC "-//W3C//DTD SVG 1.1//EN" "http://www.w3.org/Graphics/SVG/1.1/DTD/svg11.dtd">
<svg xmlns="http://www.w3.org/2000/svg" xmlns:xl="http://www.w3.org/1999/xlink" xmlns:dc="http://purl.org/dc/elements/1.1/" version="1.1" viewBox="67 73 291 322" width="291" height="322">
  <style>
    @import url('/LectureDoc2/ext/fonts/ld-fonts.css'); 
  </style>
  <defs>
    <filter id="Shadow" filterUnits="userSpaceOnUse" x="37.9" y="40.8">
      <feGaussianBlur in="SourceAlpha" result="blur" stdDeviation="1.308"/>
      <feOffset in="blur" result="offset" dx="0" dy="2"/>
      <feFlood flood-color="black" flood-opacity=".5" result="flood"/>
      <feComposite in="flood" in2="offset" operator="in"/>
    </filter>
    <filter id="Shadow_2" filterUnits="userSpaceOnUse" x="37.9" y="40.8">
      <feGaussianBlur in="SourceAlpha" result="blur" stdDeviation="-4"/>
      <feOffset in="blur" result="offset" dx="0" dy="2"/>
      <feFlood flood-color="black" flood-opacity=".5" result="flood"/>
      <feComposite in="flood" in2="offset" operator="in"/>
    </filter>
    <marker orient="auto" overflow="visible" markerUnits="strokeWidth" id="FilledArrow_Marker" stroke-linejoin="miter" stroke-miterlimit="10" viewBox="-1 -4 10 8" markerWidth="10" markerHeight="8" color="black">
      <g>
        <path d="M 8 0 L 0 -3 L 0 3 Z" fill="currentColor" stroke="currentColor" stroke-width="1"/>
      </g>
    </marker>
  </defs>
  <metadata> Produced by OmniGraffle 8.0\n2025-03-05 13:17:09 +0000</metadata>
  <g id="Canvas_1" fill-opacity="1" stroke-opacity="1" stroke="none" stroke-dasharray="none" fill="none">
    <title>Canvas 1</title>
    <g id="Canvas_1_Layer_1">
      <title>Layer 1</title>
      <g id="Graphic_3_shadow" filter="url(#Shadow)">
        <rect x="70.76755" y="75.11811" width="127.559" height="88.5413" fill="white"/>
        <rect x="70.76755" y="75.11811" width="127.559" height="88.5413" stroke="black" stroke-linecap="round" stroke-linejoin="round" stroke-width="1"/>
      </g>
      <g id="Graphic_4_shadow" filter="url(#Shadow)">
        <rect x="226.67345" y="75.11811" width="127.559" height="88.5413" fill="white"/>
        <rect x="226.67345" y="75.11811" width="127.559" height="88.5413" stroke="black" stroke-linecap="round" stroke-linejoin="round" stroke-width="1"/>
      </g>
      <g id="Graphic_5_shadow" filter="url(#Shadow)">
        <rect x="70.86614" y="216.8504" width="127.559" height="123.30703" fill="white"/>
        <rect x="70.86614" y="216.8504" width="127.559" height="123.30703" stroke="black" stroke-linecap="round" stroke-linejoin="round" stroke-width="1"/>
      </g>
      <g id="Graphic_6_shadow" filter="url(#Shadow)">
        <rect x="226.77204" y="216.8504" width="127.559" height="123.30703" fill="white"/>
        <rect x="226.77204" y="216.8504" width="127.559" height="123.30703" stroke="black" stroke-linecap="round" stroke-linejoin="round" stroke-width="1"/>
      </g>
      <g id="Graphic_10_shadow" filter="url(#Shadow_2)">
        <rect x="84.94085" y="174.8329" width="255.118" height="28.3464" fill="white"/>
        <rect x="84.94085" y="174.8329" width="255.118" height="28.3464" stroke="GrayText" stroke-opacity=".24705882" stroke-linecap="round" stroke-linejoin="round" stroke-width="1"/>
      </g>
      <g id="Graphic_11_shadow" filter="url(#Shadow_2)">
        <rect x="85.03954" y="351.33042" width="255.118" height="28.3465" fill="white"/>
        <rect x="85.03954" y="351.33042" width="255.118" height="28.3465" stroke="GrayText" stroke-opacity=".24705882" stroke-linecap="round" stroke-linejoin="round" stroke-width="1"/>
      </g>
      <g id="Graphic_15_shadow" filter="url(#Shadow)">
        <path d="M 297.53946 145.23423 L 297.53946 111.21847 C 297.53946 108.87139 307.06387 106.9665 318.7993 106.9665 C 330.53475 106.9665 340.05916 108.87139 340.05916 111.21847 L 340.05916 145.23423 C 340.05916 147.58132 330.53475 149.4862 318.7993 149.4862 C 307.06387 149.4862 297.53946 147.58132 297.53946 145.23423" fill="white"/>
        <path d="M 297.53946 145.23423 L 297.53946 111.21847 C 297.53946 108.87139 307.06387 106.9665 318.7993 106.9665 C 330.53475 106.9665 340.05916 108.87139 340.05916 111.21847 L 340.05916 145.23423 C 340.05916 147.58132 330.53475 149.4862 318.7993 149.4862 C 307.06387 149.4862 297.53946 147.58132 297.53946 145.23423 M 297.53946 111.21847 C 297.53946 113.56556 307.06387 115.47044 318.7993 115.47044 C 330.53475 115.47044 340.05916 113.56556 340.05916 111.21847" stroke="black" stroke-linecap="round" stroke-linejoin="round" stroke-width="1"/>
      </g>
      <g id="Graphic_20_shadow" filter="url(#Shadow)">
        <path d="M 251.11804 310.3933 L 251.11804 299.05474 C 251.11804 298.2724 257.46766 297.63742 265.2913 297.63742 C 273.11493 297.63742 279.46454 298.2724 279.46454 299.05474 L 279.46454 310.3933 C 279.46454 311.17566 273.11493 311.81062 265.2913 311.81062 C 257.46766 311.81062 251.11804 311.17566 251.11804 310.3933" fill="white"/>
        <path d="M 251.11804 310.3933 L 251.11804 299.05474 C 251.11804 298.2724 257.46766 297.63742 265.2913 297.63742 C 273.11493 297.63742 279.46454 298.2724 279.46454 299.05474 L 279.46454 310.3933 C 279.46454 311.17566 273.11493 311.81062 265.2913 311.81062 C 257.46766 311.81062 251.11804 311.17566 251.11804 310.3933 M 251.11804 299.05474 C 251.11804 299.8371 257.46766 300.47206 265.2913 300.47206 C 273.11493 300.47206 279.46454 299.8371 279.46454 299.05474" stroke="black" stroke-linecap="round" stroke-linejoin="round" stroke-width="1"/>
      </g>
      <g id="Graphic_21_shadow" filter="url(#Shadow)">
        <path d="M 307.81104 310.3933 L 307.81104 299.05474 C 307.81104 298.2724 314.16066 297.63742 321.9843 297.63742 C 329.80793 297.63742 336.15754 298.2724 336.15754 299.05474 L 336.15754 310.3933 C 336.15754 311.17566 329.80793 311.81062 321.9843 311.81062 C 314.16066 311.81062 307.81104 311.17566 307.81104 310.3933" fill="white"/>
        <path d="M 307.81104 310.3933 L 307.81104 299.05474 C 307.81104 298.2724 314.16066 297.63742 321.9843 297.63742 C 329.80793 297.63742 336.15754 298.2724 336.15754 299.05474 L 336.15754 310.3933 C 336.15754 311.17566 329.80793 311.81062 321.9843 311.81062 C 314.16066 311.81062 307.81104 311.17566 307.81104 310.3933 M 307.81104 299.05474 C 307.81104 299.8371 314.16066 300.47206 321.9843 300.47206 C 329.80793 300.47206 336.15754 299.8371 336.15754 299.05474" stroke="black" stroke-linecap="round" stroke-linejoin="round" stroke-width="1"/>
      </g>
      <g id="Graphic_3">
        <rect x="70.76755" y="75.11811" width="127.559" height="88.5413" fill="white"/>
        <rect x="70.76755" y="75.11811" width="127.559" height="88.5413" stroke="black" stroke-linecap="round" stroke-linejoin="round" stroke-width="1"/>
        <text transform="translate(75.76755 80.11811)" fill="black">
          <tspan font-family="Noto Sans Display" font-size="12" font-weight="400" fill="black" x="43.5035" y="13" xml:space="preserve">Client</tspan>
        </text>
      </g>
      <g id="Graphic_4">
        <rect x="226.67345" y="75.11811" width="127.559" height="88.5413" fill="white"/>
        <rect x="226.67345" y="75.11811" width="127.559" height="88.5413" stroke="black" stroke-linecap="round" stroke-linejoin="round" stroke-width="1"/>
        <text transform="translate(231.67345 80.11811)" fill="black">
          <tspan font-family="Noto Sans Display" font-size="12" font-weight="400" fill="black" x="41.7095" y="13" xml:space="preserve">Server</tspan>
        </text>
      </g>
      <g id="Graphic_5">
        <rect x="70.86614" y="216.8504" width="127.559" height="123.30703" fill="white"/>
        <rect x="70.86614" y="216.8504" width="127.559" height="123.30703" stroke="black" stroke-linecap="round" stroke-linejoin="round" stroke-width="1"/>
        <text transform="translate(75.86614 221.8504)" fill="black">
          <tspan font-family="Noto Sans Display" font-size="12" font-weight="400" fill="black" x="43.5035" y="13" xml:space="preserve">Client</tspan>
        </text>
      </g>
      <g id="Graphic_6">
        <rect x="226.77204" y="216.8504" width="127.559" height="123.30703" fill="white"/>
        <rect x="226.77204" y="216.8504" width="127.559" height="123.30703" stroke="black" stroke-linecap="round" stroke-linejoin="round" stroke-width="1"/>
        <text transform="translate(231.77204 221.8504)" fill="black">
          <tspan font-family="Noto Sans Display" font-size="12" font-weight="400" fill="black" x="41.7095" y="13" xml:space="preserve">Server</tspan>
        </text>
      </g>
      <g id="Graphic_7">
        <rect x="79.17298" y="106.9665" width="96.57505" height="42.5197" fill="#fff195" fill-opacity=".59"/>
        <rect x="79.17298" y="106.9665" width="96.57505" height="42.5197" stroke="#584d4d" stroke-linecap="round" stroke-linejoin="round" stroke-width="1"/>
        <text transform="translate(84.17298 111.22635)" fill="black">
          <tspan font-family="Noto Sans Display" font-size="12" font-weight="400" fill="black" x="15.933525" y="13" xml:space="preserve">Aufruf der </tspan>
          <tspan font-family="Noto Sans Display" font-size="12" font-weight="400" fill="black" x="10.089525" y="30" xml:space="preserve">Funktion </tspan>
          <tspan font-family="Noto Sans Display" font-size="12" font-style="italic" font-weight="400" fill="black" y="30" xml:space="preserve">foo</tspan>
        </text>
      </g>
      <g id="Graphic_8">
        <rect x="74.86614" y="255.11742" width="56.693" height="70.8662" fill="#fff195" fill-opacity=".59"/>
        <rect x="74.86614" y="255.11742" width="56.693" height="70.8662" stroke="#584d4d" stroke-linecap="round" stroke-linejoin="round" stroke-width="1"/>
        <text transform="translate(79.86614 256.55052)" fill="black">
          <tspan font-family="Noto Sans Display" font-size="12" font-weight="400" fill="black" x="2.6225004" y="13" xml:space="preserve">rufe </tspan>
          <tspan font-family="Noto Sans Display" font-size="12" font-style="italic" font-weight="400" fill="black" y="13" xml:space="preserve">foo</tspan>
          <tspan font-family="Noto Sans Display" font-size="12" font-weight="400" fill="black" x="14.7065" y="30" xml:space="preserve">auf </tspan>
          <tspan font-family="Noto Sans Display" font-size="12" font-weight="400" fill="black" x="1.1765004" y="47" xml:space="preserve">Objekt </tspan>
          <tspan font-family="Noto Sans Display" font-size="12" font-style="italic" font-weight="400" fill="black" y="47" xml:space="preserve">X</tspan>
          <tspan font-family="Noto Sans Display" font-size="12" font-weight="400" fill="black" x="14.7065" y="64" xml:space="preserve">auf</tspan>
        </text>
      </g>
      <g id="Graphic_9">
        <rect x="137.73204" y="255.11742" width="56.6929" height="70.8662" fill="#fff195" fill-opacity=".59"/>
        <rect x="137.73204" y="255.11742" width="56.6929" height="70.8662" stroke="#584d4d" stroke-linecap="round" stroke-linejoin="round" stroke-width="1"/>
        <text transform="translate(142.73204 256.55052)" fill="black">
          <tspan font-family="Noto Sans Display" font-size="12" font-weight="400" fill="black" x="2.6224508" y="13" xml:space="preserve">rufe </tspan>
          <tspan font-family="Noto Sans Display" font-size="12" font-style="italic" font-weight="400" fill="black" y="13" xml:space="preserve">foo</tspan>
          <tspan font-family="Noto Sans Display" font-size="12" font-weight="400" fill="black" x="14.70645" y="30" xml:space="preserve">auf </tspan>
          <tspan font-family="Noto Sans Display" font-size="12" font-weight="400" fill="black" x="1.2844508" y="47" xml:space="preserve">Objekt </tspan>
          <tspan font-family="Noto Sans Display" font-size="12" font-style="italic" font-weight="400" fill="black" y="47" xml:space="preserve">Y</tspan>
          <tspan font-family="Noto Sans Display" font-size="12" font-weight="400" fill="black" x="14.70645" y="64" xml:space="preserve">auf</tspan>
        </text>
      </g>
      <g id="Graphic_10">
        <rect x="84.94085" y="174.8329" width="255.118" height="28.3464" fill="white"/>
        <rect x="84.94085" y="174.8329" width="255.118" height="28.3464" stroke="GrayText" stroke-opacity=".24705882" stroke-linecap="round" stroke-linejoin="round" stroke-width="1"/>
        <text transform="translate(89.94085 181.1793)" fill="black">
          <tspan font-family="Noto Sans Display" font-size="12" font-weight="400" fill="black" x="73.641" y="13" xml:space="preserve">RPC Mechanismus</tspan>
        </text>
      </g>
      <g id="Graphic_11">
        <rect x="85.03954" y="351.33042" width="255.118" height="28.3465" fill="white"/>
        <rect x="85.03954" y="351.33042" width="255.118" height="28.3465" stroke="GrayText" stroke-opacity=".24705882" stroke-linecap="round" stroke-linejoin="round" stroke-width="1"/>
        <text transform="translate(90.03954 357.67692)" fill="black">
          <tspan font-family="Noto Sans Display" font-size="12" font-style="italic" font-weight="400" fill="black" x="50.931" y="13" xml:space="preserve">Object Request Broker (ORB)</tspan>
        </text>
      </g>
      <g id="Graphic_12">
        <path d="M 244.67346 106.9665 L 275.36636 106.9665 C 279.78464 106.9665 283.36636 110.54823 283.36636 114.9665 L 283.36636 141.4862 C 283.36636 145.90448 279.78464 149.4862 275.36636 149.4862 L 244.67346 149.4862 C 240.25518 149.4862 236.67346 145.90448 236.67346 141.4862 L 236.67346 114.9665 C 236.67346 110.54823 240.25518 106.9665 244.67346 106.9665 Z" fill="#fff195" fill-opacity=".59"/>
        <path d="M 244.67346 106.9665 L 275.36636 106.9665 C 279.78464 106.9665 283.36636 110.54823 283.36636 114.9665 L 283.36636 141.4862 C 283.36636 145.90448 279.78464 149.4862 275.36636 149.4862 L 244.67346 149.4862 C 240.25518 149.4862 236.67346 145.90448 236.67346 141.4862 L 236.67346 114.9665 C 236.67346 110.54823 240.25518 106.9665 244.67346 106.9665 Z" stroke="#584d4d" stroke-linecap="round" stroke-linejoin="round" stroke-width="1"/>
        <text transform="translate(241.67346 119.72635)" fill="black">
          <tspan font-family="Noto Sans Display" font-size="12" font-weight="400" fill="black" x="13.77445" y="13" xml:space="preserve">...</tspan>
        </text>
      </g>
      <g id="Graphic_13">
        <text transform="translate(252.75145 88.79328)" fill="black">
          <tspan font-family="Noto Sans Display" font-size="12" font-style="italic" font-weight="400" fill="black" x="2842171e-20" y="13" xml:space="preserve">foo</tspan>
        </text>
      </g>
      <g id="Graphic_15">
        <path d="M 297.53946 145.23423 L 297.53946 111.21847 C 297.53946 108.87139 307.06387 106.9665 318.7993 106.9665 C 330.53475 106.9665 340.05916 108.87139 340.05916 111.21847 L 340.05916 145.23423 C 340.05916 147.58132 330.53475 149.4862 318.7993 149.4862 C 307.06387 149.4862 297.53946 147.58132 297.53946 145.23423" fill="white"/>
        <path d="M 297.53946 145.23423 L 297.53946 111.21847 C 297.53946 108.87139 307.06387 106.9665 318.7993 106.9665 C 330.53475 106.9665 340.05916 108.87139 340.05916 111.21847 L 340.05916 145.23423 C 340.05916 147.58132 330.53475 149.4862 318.7993 149.4862 C 307.06387 149.4862 297.53946 147.58132 297.53946 145.23423 M 297.53946 111.21847 C 297.53946 113.56556 307.06387 115.47044 318.7993 115.47044 C 330.53475 115.47044 340.05916 113.56556 340.05916 111.21847" stroke="black" stroke-linecap="round" stroke-linejoin="round" stroke-width="1"/>
        <text transform="translate(302.53946 123.35234)" fill="black">
          <tspan font-family="Noto Sans Display" font-size="10" font-weight="400" fill="black" x="2.8648495" y="11" xml:space="preserve">Daten</tspan>
        </text>
      </g>
      <g id="Graphic_16">
        <path d="M 244.77204 255.11742 L 275.46494 255.11742 C 279.88322 255.11742 283.46494 258.69915 283.46494 263.11742 L 283.46494 317.98352 C 283.46494 322.4018 279.88322 325.98352 275.46494 325.98352 L 244.77204 325.98352 C 240.35376 325.98352 236.77204 322.4018 236.77204 317.98352 L 236.77204 263.11742 C 236.77204 258.69915 240.35376 255.11742 244.77204 255.11742 Z" fill="#fff195" fill-opacity=".59"/>
        <path d="M 244.77204 255.11742 L 275.46494 255.11742 C 279.88322 255.11742 283.46494 258.69915 283.46494 263.11742 L 283.46494 317.98352 C 283.46494 322.4018 279.88322 325.98352 275.46494 325.98352 L 244.77204 325.98352 C 240.35376 325.98352 236.77204 322.4018 236.77204 317.98352 L 236.77204 263.11742 C 236.77204 258.69915 240.35376 255.11742 244.77204 255.11742 Z" stroke="#584d4d" stroke-linecap="round" stroke-linejoin="round" stroke-width="1"/>
        <text transform="translate(241.77204 260.11742)" fill="black">
          <tspan font-family="Noto Sans Display" font-size="12" font-style="italic" font-weight="400" fill="black" x="10.078451" y="13" xml:space="preserve">foo</tspan>
          <tspan font-family="Noto Sans Display" font-size="12" font-weight="400" fill="black" x="13.77445" y="30" xml:space="preserve">...</tspan>
        </text>
      </g>
      <g id="Graphic_17">
        <text transform="translate(237.8127 237.77165)" fill="black">
          <tspan font-family="Noto Sans Display" font-size="12" font-weight="400" fill="black" x="0" y="13" xml:space="preserve">Objekt x</tspan>
        </text>
      </g>
      <g id="Graphic_18">
        <path d="M 301.46504 255.11742 L 332.15794 255.11742 C 336.5762 255.11742 340.15794 258.69915 340.15794 263.11742 L 340.15794 317.98352 C 340.15794 322.4018 336.5762 325.98352 332.15794 325.98352 L 301.46504 325.98352 C 297.04676 325.98352 293.46504 322.4018 293.46504 317.98352 L 293.46504 263.11742 C 293.46504 258.69915 297.04676 255.11742 301.46504 255.11742 Z" fill="#fff195" fill-opacity=".59"/>
        <path d="M 301.46504 255.11742 L 332.15794 255.11742 C 336.5762 255.11742 340.15794 258.69915 340.15794 263.11742 L 340.15794 317.98352 C 340.15794 322.4018 336.5762 325.98352 332.15794 325.98352 L 301.46504 325.98352 C 297.04676 325.98352 293.46504 322.4018 293.46504 317.98352 L 293.46504 263.11742 C 293.46504 258.69915 297.04676 255.11742 301.46504 255.11742 Z" stroke="#584d4d" stroke-linecap="round" stroke-linejoin="round" stroke-width="1"/>
        <text transform="translate(298.46504 260.11742)" fill="black">
          <tspan font-family="Noto Sans Display" font-size="12" font-style="italic" font-weight="400" fill="black" x="10.078451" y="13" xml:space="preserve">foo</tspan>
          <tspan font-family="Noto Sans Display" font-size="12" font-weight="400" fill="black" x="13.77445" y="30" xml:space="preserve">...</tspan>
        </text>
      </g>
      <g id="Graphic_19">
        <text transform="translate(294.6077 238.94488)" fill="black">
          <tspan font-family="Noto Sans Display" font-size="12" font-weight="400" fill="black" x="4654055e-19" y="13" xml:space="preserve">Objekt y</tspan>
        </text>
      </g>
      <g id="Graphic_20">
        <path d="M 251.11804 310.3933 L 251.11804 299.05474 C 251.11804 298.2724 257.46766 297.63742 265.2913 297.63742 C 273.11493 297.63742 279.46454 298.2724 279.46454 299.05474 L 279.46454 310.3933 C 279.46454 311.17566 273.11493 311.81062 265.2913 311.81062 C 257.46766 311.81062 251.11804 311.17566 251.11804 310.3933" fill="white"/>
        <path d="M 251.11804 310.3933 L 251.11804 299.05474 C 251.11804 298.2724 257.46766 297.63742 265.2913 297.63742 C 273.11493 297.63742 279.46454 298.2724 279.46454 299.05474 L 279.46454 310.3933 C 279.46454 311.17566 273.11493 311.81062 265.2913 311.81062 C 257.46766 311.81062 251.11804 311.17566 251.11804 310.3933 M 251.11804 299.05474 C 251.11804 299.8371 257.46766 300.47206 265.2913 300.47206 C 273.11493 300.47206 279.46454 299.8371 279.46454 299.05474" stroke="black" stroke-linecap="round" stroke-linejoin="round" stroke-width="1"/>
      </g>
      <g id="Graphic_21">
        <path d="M 307.81104 310.3933 L 307.81104 299.05474 C 307.81104 298.2724 314.16066 297.63742 321.9843 297.63742 C 329.80793 297.63742 336.15754 298.2724 336.15754 299.05474 L 336.15754 310.3933 C 336.15754 311.17566 329.80793 311.81062 321.9843 311.81062 C 314.16066 311.81062 307.81104 311.17566 307.81104 310.3933" fill="white"/>
        <path d="M 307.81104 310.3933 L 307.81104 299.05474 C 307.81104 298.2724 314.16066 297.63742 321.9843 297.63742 C 329.80793 297.63742 336.15754 298.2724 336.15754 299.05474 L 336.15754 310.3933 C 336.15754 311.17566 329.80793 311.81062 321.9843 311.81062 C 314.16066 311.81062 307.81104 311.17566 307.81104 310.3933 M 307.81104 299.05474 C 307.81104 299.8371 314.16066 300.47206 321.9843 300.47206 C 329.80793 300.47206 336.15754 299.8371 336.15754 299.05474" stroke="black" stroke-linecap="round" stroke-linejoin="round" stroke-width="1"/>
      </g>
      <g id="Line_22">
        <path d="M 127.81406 149.83976 C 137.1441 159.16979 136.97013 173.16763 155.80696 177.83265 C 174.64379 182.49766 223.47924 182.55658 240.84633 177.83265 C 253.10166 174.49913 254.42616 166.45953 256.38973 158.69572" marker-end="url(#FilledArrow_Marker)" stroke="black" stroke-linecap="round" stroke-linejoin="round" stroke-width="1"/>
      </g>
      <g id="Line_23">
        <path d="M 124.87069 326.41162 C 130.49058 335.71696 124.75018 349.67776 141.73204 354.33042 C 158.7139 358.9831 210.12175 359.07067 226.77204 354.33042 C 238.32318 351.04188 238.61908 343.1891 239.37198 335.52223" marker-end="url(#FilledArrow_Marker)" stroke="black" stroke-linecap="round" stroke-linejoin="round" stroke-width="1"/>
      </g>
      <g id="Line_24">
        <path d="M 184.27486 326.42955 C 188.99112 335.7289 181.895 349.68074 198.42504 354.33042 C 200.74202 354.98216 203.75312 355.54432 207.2641 356.01616 C 207.80526 350.54285 218.74745 351.62474 218.20628 357.09806 C 240.44232 358.6754 271.32012 357.788 283.46504 354.33042 C 289.97158 352.47805 292.907 349.1775 294.3645 345.27775" marker-end="url(#FilledArrow_Marker)" stroke="black" stroke-linecap="round" stroke-linejoin="round" stroke-width="1"/>
      </g>
    </g>
  </g>
</svg>
