<?xml version="1.0" encoding="UTF-8" standalone="no" ?>
<!DOCTYPE svg PUBLIC "-//W3C//DTD SVG 1.1//EN"
    "http://www.w3.org/Graphics/SVG/1.1/DTD/svg11.dtd">
<svg
    xmlns:xl="http://www.w3.org/1999/xlink"
    xmlns:dc="http://purl.org/dc/elements/1.1/"
    xmlns="http://www.w3.org/2000/svg"
    version="1.1"
    viewBox="189 755 442 240"
    width="442"
    height="240"
>
<style>
  @import url('/LectureDoc2/ext/fonts/ld-fonts.css');
</style>
<defs>
    <marker
            orient="auto"
            overflow="visible"
            markerUnits="strokeWidth"
            id="FilledArrow_Marker"
            stroke-linejoin="miter"
            stroke-miterlimit="10"
            viewBox="-1 -4 10 8"
            markerWidth="10"
            markerHeight="8"
            color="#a5a5a5"
        >
      <g>
        <path
                    d="M 8 0 L 0 -3 L 0 3 Z"
                    fill="currentColor"
                    stroke="currentColor"
                    stroke-width="1"
                />
      </g>
    </marker>
    <marker
            orient="auto"
            overflow="visible"
            markerUnits="strokeWidth"
            id="FilledArrow_Marker_2"
            stroke-linejoin="miter"
            stroke-miterlimit="10"
            viewBox="-1 -3 7 6"
            markerWidth="7"
            markerHeight="6"
            color="black"
        >
      <g>
        <path
                    d="M 4.8 0 L 0 -1.8 L 0 1.8 Z"
                    fill="currentColor"
                    stroke="currentColor"
                    stroke-width="1"
                />
      </g>
    </marker>
  </defs>
  <metadata> Produced by OmniGraffle 8.0\n2025-05-29 14:45:25 +0000</metadata>
  <g
        id="key_split"
        stroke="none"
        stroke-opacity="1"
        stroke-dasharray="none"
        fill-opacity="1"
        fill="none"
    >
    <title>key_split</title>
    <rect fill="white" x="189" y="755" width="442" height="240" />
    <g id="key_split_Layer_1">
      <title>Layer 1</title>
      <g id="Graphic_7">
        <path
                    d="M 198 815 L 582 815 C 586.4183 815 590 818.5817 590 823 L 590 927 C 590 931.4183 586.4183 935 582 935 L 198 935 C 193.58172 935 190 931.4183 190 927 L 190 823 C 190 818.5817 193.58172 815 198 815 Z"
                    stroke="#a5a5a5"
                    stroke-linecap="round"
                    stroke-linejoin="round"
                    stroke-width="2"
                />
      </g>
      <g id="Graphic_12">
        <path
                    d="M 203 820 L 577 820 C 581.4183 820 585 823.5817 585 828 L 585 847 C 585 851.4183 581.4183 855 577 855 L 203 855 C 198.58172 855 195 851.4183 195 847 L 195 828 C 195 823.5817 198.58172 820 203 820 Z"
                    fill="#73d4e8"
                    fill-opacity=".50628294"
                />
        <path
                    d="M 203 820 L 577 820 C 581.4183 820 585 823.5817 585 828 L 585 847 C 585 851.4183 581.4183 855 577 855 L 203 855 C 198.58172 855 195 851.4183 195 847 L 195 828 C 195 823.5817 198.58172 820 203 820 Z"
                    stroke="#a5a5a5"
                    stroke-linecap="round"
                    stroke-linejoin="round"
                    stroke-width=".5"
                />
        <text transform="translate(195 820)" fill="black">
          <tspan
                        font-family="Noto Sans Display"
                        font-size="12"
                        font-weight="400"
                        fill="black"
                        x="192.654"
                        y="13"
                        xml:space="preserve"
                    >r</tspan>
        </text>
      </g>
      <g id="Graphic_73">
        <path
                    d="M 203 960 L 577 960 C 581.4183 960 585 963.5817 585 968 L 585 977 C 585 981.4183 581.4183 985 577 985 L 203 985 C 198.58172 985 195 981.4183 195 977 L 195 968 C 195 963.5817 198.58172 960 203 960 Z"
                    fill="#73d4e8"
                    fill-opacity=".50628294"
                />
        <path
                    d="M 203 960 L 577 960 C 581.4183 960 585 963.5817 585 968 L 585 977 C 585 981.4183 581.4183 985 577 985 L 203 985 C 198.58172 985 195 981.4183 195 977 L 195 968 C 195 963.5817 198.58172 960 203 960 Z"
                    stroke="#a5a5a5"
                    stroke-linecap="round"
                    stroke-linejoin="round"
                    stroke-width=".5"
                />
        <text transform="translate(195 964)" fill="black">
          <tspan
                        font-family="Noto Sans Display"
                        font-size="12"
                        font-style="italic"
                        font-weight="400"
                        fill="black"
                        x="169.386"
                        y="13"
                        xml:space="preserve"
                    >clamped</tspan>
          <tspan
                        font-family="Noto Sans Display"
                        font-size="12"
                        font-weight="400"
                        fill="black"
                        y="13"
                        xml:space="preserve"
                    > r</tspan>
        </text>
      </g>
      <g id="Graphic_8">
        <path
                    d="M 593 960 L 622 960 C 626.4183 960 630 963.5817 630 968 L 630 977 C 630 981.4183 626.4183 985 622 985 L 593 985 C 588.5817 985 585 981.4183 585 977 L 585 968 C 585 963.5817 588.5817 960 593 960 Z"
                    fill="#d372ba"
                    fill-opacity=".50628294"
                />
        <path
                    d="M 593 960 L 622 960 C 626.4183 960 630 963.5817 630 968 L 630 977 C 630 981.4183 626.4183 985 622 985 L 593 985 C 588.5817 985 585 981.4183 585 977 L 585 968 C 585 963.5817 588.5817 960 593 960 Z"
                    stroke="#a5a5a5"
                    stroke-linecap="round"
                    stroke-linejoin="round"
                    stroke-width=".5"
                />
        <text transform="translate(590 964)" fill="black">
          <tspan
                        font-family="Noto Sans Display"
                        font-size="12"
                        font-weight="400"
                        fill="black"
                        x="0"
                        y="13"
                        xml:space="preserve"
                    >s</tspan>
        </text>
      </g>
      <g id="Graphic_54">
        <path
                    d="M 203 765 L 622 765 C 626.4183 765 630 768.5817 630 773 L 630 782 C 630 786.4183 626.4183 790 622 790 L 203 790 C 198.58172 790 195 786.4183 195 782 L 195 773 C 195 768.5817 198.58172 765 203 765 Z"
                    fill="#a6dcb2"
                    fill-opacity=".7503294"
                />
        <path
                    d="M 203 765 L 622 765 C 626.4183 765 630 768.5817 630 773 L 630 782 C 630 786.4183 626.4183 790 622 790 L 203 790 C 198.58172 790 195 786.4183 195 782 L 195 773 C 195 768.5817 198.58172 765 203 765 Z"
                    stroke="#a5a5a5"
                    stroke-linecap="round"
                    stroke-linejoin="round"
                    stroke-width=".5"
                />
        <text transform="translate(195 769)" fill="black">
          <tspan
                        font-family="Noto Sans Display"
                        font-size="12"
                        font-weight="400"
                        fill="black"
                        x="147.954"
                        y="13"
                        xml:space="preserve"
                    >32-Byte (256-Bit) Schlüssel </tspan>
        </text>
      </g>
      <g id="Graphic_47">
        <text transform="translate(570 942.5) rotate(-90)" fill="#666">
          <tspan
                        font-family="Noto Sans Display"
                        font-size="12"
                        font-style="italic"
                        font-weight="400"
                        fill="#666"
                        x="37.508"
                        y="13"
                        xml:space="preserve"
                    >clamping</tspan>
        </text>
      </g>
      <g id="Graphic_69">
        <text transform="translate(544.33594 795)" fill="#666">
          <tspan
                        font-family="Noto Sans Display"
                        font-size="12"
                        font-weight="400"
                        fill="#666"
                        x="26.63003"
                        y="13"
                        xml:space="preserve"
                    >split</tspan>
        </text>
      </g>
      <g id="Graphic_55">
        <text transform="translate(199.53394 840)" fill="black">
          <tspan
                        font-family="Victor Mono"
                        font-size="11"
                        font-weight="400"
                        fill="black"
                        x="0"
                        y="11"
                        xml:space="preserve"
                    >r00|r01|r02|r03|r04|r05|r06|r07|r08|r09|r10|r11|r12|r13|r14|r15</tspan>
        </text>
      </g>
      <g id="Graphic_56">
        <text transform="translate(200 878.75)" fill="black">
          <tspan
                        font-family="Victor Mono"
                        font-size="16"
                        font-weight="400"
                        fill="black"
                        x="0"
                        y="16"
                        xml:space="preserve"
                    >&amp; 0x0F</tspan>
        </text>
      </g>
      <g id="Graphic_58">
        <text transform="translate(200 910)" fill="black">
          <tspan
                        font-family="Victor Mono"
                        font-size="16"
                        font-weight="400"
                        fill="black"
                        x="0"
                        y="16"
                        xml:space="preserve"
                    >&amp; 0xFC</tspan>
        </text>
      </g>
      <g id="Line_59">
        <path
                    d="M 257.36364 890.086 L 280 890 L 280 864.9"
                    marker-end="url(#FilledArrow_Marker)"
                    stroke="#a5a5a5"
                    stroke-linecap="round"
                    stroke-linejoin="round"
                    stroke-width="1"
                />
      </g>
      <g id="Line_60">
        <path
                    d="M 257.36364 890.1617 L 375 890 L 375 864.9"
                    marker-end="url(#FilledArrow_Marker)"
                    stroke="#a5a5a5"
                    stroke-linecap="round"
                    stroke-linejoin="round"
                    stroke-width="1"
                />
      </g>
      <g id="Line_61">
        <path
                    d="M 257.36364 890.179 L 475 890 L 475 864.9"
                    marker-end="url(#FilledArrow_Marker)"
                    stroke="#a5a5a5"
                    stroke-linecap="round"
                    stroke-linejoin="round"
                    stroke-width="1"
                />
      </g>
      <g id="Line_62">
        <path
                    d="M 257.36364 890.186 L 570 890 L 570 864.9"
                    marker-end="url(#FilledArrow_Marker)"
                    stroke="#a5a5a5"
                    stroke-linecap="round"
                    stroke-linejoin="round"
                    stroke-width="1"
                />
      </g>
      <g id="Line_66">
        <path
                    d="M 257.36364 920.8791 L 305 920 L 305 895.6577 C 299.5 895.6577 299.5 884.5962 305 884.5962 L 305 864.9"
                    marker-end="url(#FilledArrow_Marker)"
                    stroke="#a5a5a5"
                    stroke-linecap="round"
                    stroke-linejoin="round"
                    stroke-width="1"
                />
      </g>
      <g id="Line_67">
        <path
                    d="M 305 920 L 400 920.668 L 400 895.6012 C 394.5 895.6012 394.5 884.5617 400 884.5617 L 400 864.9"
                    marker-end="url(#FilledArrow_Marker)"
                    stroke="#a5a5a5"
                    stroke-linecap="round"
                    stroke-linejoin="round"
                    stroke-width="1"
                />
      </g>
      <g id="Line_68">
        <path
                    d="M 400 920.668 L 500 920 L 500 895.5417 C 494.5 895.5417 494.5 884.5417 500 884.5417 L 500 864.9"
                    marker-end="url(#FilledArrow_Marker)"
                    stroke="#a5a5a5"
                    stroke-linecap="round"
                    stroke-linejoin="round"
                    stroke-width="1"
                />
      </g>
      <g id="Line_71">
        <line
                    x1="390"
                    y1="790"
                    x2="390"
                    y2="797.1"
                    marker-end="url(#FilledArrow_Marker_2)"
                    stroke="black"
                    stroke-linecap="round"
                    stroke-linejoin="round"
                    stroke-width="2"
                />
      </g>
      <g id="Line_74">
        <line
                    x1="390"
                    y1="940"
                    x2="390"
                    y2="947.1"
                    marker-end="url(#FilledArrow_Marker_2)"
                    stroke="black"
                    stroke-linecap="round"
                    stroke-linejoin="round"
                    stroke-width="2"
                />
      </g>
      <g id="Line_72">
        <line
                    x1="600"
                    y1="790"
                    x2="600"
                    y2="947.1"
                    marker-end="url(#FilledArrow_Marker_2)"
                    stroke="black"
                    stroke-linecap="round"
                    stroke-linejoin="round"
                    stroke-width="2"
                />
      </g>
      <g id="Graphic_76">
        <path
                    d="M 598.4425 782.2384 L 612.32795 784.9637 L 605.292 795.8704 L 624.3489 784.0326 L 611.1805 781.3051 L 624.127 771.5279 L 607.9686 767.9728 L 615.1791 758.97125 L 596.55326 769.1982 L 611.923 772.6043 L 598.4425 782.2383 Z"
                    fill="white"
                />
      </g>
      <g id="Graphic_78">
        <path
                    d="M 598.4425 977.3967 L 612.32795 980.122 L 605.292 991.0287 L 624.3489 979.191 L 611.1805 976.4634 L 624.127 966.6863 L 607.9686 963.1311 L 615.1791 954.1296 L 596.55326 964.3565 L 611.923 967.7626 L 598.4425 977.3966 Z"
                    fill="white"
                />
      </g>
    </g>
  </g>
</svg>
