<?xml version="1.0" encoding="UTF-8" standalone="no"?>
<!DOCTYPE svg PUBLIC "-//W3C//DTD SVG 1.1//EN" "http://www.w3.org/Graphics/SVG/1.1/DTD/svg11.dtd">
<svg version="1.1" xmlns:dc="http://purl.org/dc/elements/1.1/" xmlns="http://www.w3.org/2000/svg" xmlns:xl="http://www.w3.org/1999/xlink" viewBox="351 238 458 440" width="458" height="440">
  <defs>
    <filter id="Shadow" filterUnits="userSpaceOnUse" x="305.2" y="194">
      <feGaussianBlur in="SourceAlpha" result="blur" stdDeviation="1.308"/>
      <feOffset in="blur" result="offset" dx="0" dy="2"/>
      <feFlood flood-color="black" flood-opacity=".5" result="flood"/>
      <feComposite in="flood" in2="offset" operator="in"/>
    </filter>
    <filter id="Shadow_2" filterUnits="userSpaceOnUse" x="305.2" y="194">
      <feGaussianBlur in="SourceAlpha" result="blur" stdDeviation="1.308"/>
      <feOffset in="blur" result="offset" dx="0" dy="2"/>
      <feFlood flood-color="black" flood-opacity=".5" result="flood"/>
      <feComposite in="flood" in2="offset" operator="in" result="color"/>
      <feMerge>
        <feMergeNode in="color"/>
        <feMergeNode in="SourceGraphic"/>
      </feMerge>
    </filter>
    <marker orient="auto" overflow="visible" markerUnits="strokeWidth" id="FilledArrow_Marker" stroke-linejoin="miter" stroke-miterlimit="10" viewBox="-1 -3 7 6" markerWidth="7" markerHeight="6" color="#a5a5a5">
      <g>
        <path d="M 4.8 0 L 0 -1.8 L 0 1.8 Z" fill="currentColor" stroke="currentColor" stroke-width="1"/>
      </g>
    </marker>
  </defs>
  <g id="3-layered-example" fill="none" stroke-opacity="1" stroke-dasharray="none" fill-opacity="1" stroke="none">
    <title>3-layered-example</title>
    <g id="3-layered-example_Layer_1">
      <title>Layer 1</title>
      <g id="Graphic_29_shadow" filter="url(#Shadow)">
        <path d="M 478.4 665.6 L 478.4 614.4 C 478.4 610.8672 505.9968 608 540 608 C 574.0032 608 601.6 610.8672 601.6 614.4 L 601.6 665.6 C 601.6 669.1328 574.0032 672 540 672 C 505.9968 672 478.4 669.1328 478.4 665.6" fill="white"/>
        <path d="M 478.4 665.6 L 478.4 614.4 C 478.4 610.8672 505.9968 608 540 608 C 574.0032 608 601.6 610.8672 601.6 614.4 L 601.6 665.6 C 601.6 669.1328 574.0032 672 540 672 C 505.9968 672 478.4 669.1328 478.4 665.6 M 478.4 614.4 C 478.4 617.9328 505.9968 620.8 540 620.8 C 574.0032 620.8 601.6 617.9328 601.6 614.4" stroke="#a5a5a5" stroke-linecap="round" stroke-linejoin="round" stroke-width="1"/>
      </g>
      <g id="Graphic_31_shadow" filter="url(#Shadow)">
        <rect x="448" y="240" width="184" height="64" fill="white"/>
        <rect x="448" y="240" width="184" height="64" stroke="#a5a5a5" stroke-linecap="round" stroke-linejoin="round" stroke-width="1"/>
      </g>
      <g id="Graphic_29">
        <path d="M 478.4 665.6 L 478.4 614.4 C 478.4 610.8672 505.9968 608 540 608 C 574.0032 608 601.6 610.8672 601.6 614.4 L 601.6 665.6 C 601.6 669.1328 574.0032 672 540 672 C 505.9968 672 478.4 669.1328 478.4 665.6" fill="white"/>
        <path d="M 478.4 665.6 L 478.4 614.4 C 478.4 610.8672 505.9968 608 540 608 C 574.0032 608 601.6 610.8672 601.6 614.4 L 601.6 665.6 C 601.6 669.1328 574.0032 672 540 672 C 505.9968 672 478.4 669.1328 478.4 665.6 M 478.4 614.4 C 478.4 617.9328 505.9968 620.8 540 620.8 C 574.0032 620.8 601.6 617.9328 601.6 614.4" stroke="#a5a5a5" stroke-linecap="round" stroke-linejoin="round" stroke-width="1"/>
        <text transform="translate(483.4 631.2)" fill="#666">
          <tspan font-family="Helvetica" font-size="20" fill="#666" x="7.6899985" y="19">Datenbank</tspan>
        </text>
      </g>
      <g id="Graphic_31">
        <rect x="448" y="240" width="184" height="64" fill="white"/>
        <rect x="448" y="240" width="184" height="64" stroke="#a5a5a5" stroke-linecap="round" stroke-linejoin="round" stroke-width="1"/>
        <text transform="translate(453 248)" fill="#666">
          <tspan font-family="Helvetica" font-size="20" fill="#666" x="4.75" y="19">Nutzerschnittstelle </tspan>
          <tspan font-family="Helvetica" font-size="20" fill="#666" x="38.84" y="43">(Webseite)</tspan>
        </text>
      </g>
      <g id="Graphic_32" filter="url(#Shadow_2)">
        <rect x="360" y="424" width="123.2" height="64" fill="white"/>
        <rect x="360" y="424" width="123.2" height="64" stroke="#a5a5a5" stroke-linecap="round" stroke-linejoin="round" stroke-width="1"/>
        <text transform="translate(365 432)" fill="#666">
          <tspan font-family="Helvetica" font-size="20" fill="#666" x="17.149998" y="19">Abfrage-</tspan>
          <tspan font-family="Helvetica" font-size="20" fill="#666" x="24.369998" y="43">service</tspan>
        </text>
      </g>
      <g id="Line_54">
        <line x1="519.13813" y1="304.42047" x2="449.4424" y2="412.7314" marker-end="url(#FilledArrow_Marker)" stroke="#a5a5a5" stroke-linecap="round" stroke-linejoin="round" stroke-width="2"/>
      </g>
      <g id="Graphic_66" filter="url(#Shadow_2)">
        <rect x="587.2" y="424" width="123.2" height="64" fill="white"/>
        <rect x="587.2" y="424" width="123.2" height="64" stroke="#a5a5a5" stroke-linecap="round" stroke-linejoin="round" stroke-width="1"/>
        <text transform="translate(592.2 432)" fill="#666">
          <tspan font-family="Helvetica" font-size="20" fill="#666" x="29.93" y="19">HTML </tspan>
          <tspan font-family="Helvetica" font-size="20" fill="#666" x="11.579998" y="43">Generator</tspan>
        </text>
      </g>
      <g id="Line_67">
        <line x1="442.46187" y1="488.42047" x2="512.38815" y2="597.0897" marker-end="url(#FilledArrow_Marker)" stroke="#a5a5a5" stroke-linecap="round" stroke-linejoin="round" stroke-width="2"/>
      </g>
      <g id="Line_68">
        <line x1="558.99764" y1="607.87164" x2="623.0579" y2="499.5344" marker-end="url(#FilledArrow_Marker)" stroke="#a5a5a5" stroke-linecap="round" stroke-linejoin="round" stroke-width="2"/>
      </g>
      <g id="Line_69">
        <line x1="629.6238" y1="423.5696" x2="565.7421" y2="315.5344" marker-end="url(#FilledArrow_Marker)" stroke="#a5a5a5" stroke-linecap="round" stroke-linejoin="round" stroke-width="2"/>
      </g>
      <g id="Line_70">
        <line x1="352" y1="363.5" x2="808" y2="363.5" stroke="black" stroke-linecap="round" stroke-linejoin="round" stroke-dasharray="8.0,8.0" stroke-width="2"/>
      </g>
      <g id="Line_71">
        <line x1="352" y1="547.5" x2="808" y2="547.5" stroke="black" stroke-linecap="round" stroke-linejoin="round" stroke-dasharray="8.0,8.0" stroke-width="2"/>
      </g>
      <g id="Graphic_72">
        <text transform="translate(601.97656 341)" fill="black">
          <tspan font-family="Helvetica" font-size="16" fill="black" x="0" y="15">Benutzerschnittstellenebene</tspan>
        </text>
      </g>
      <g id="Graphic_74">
        <text transform="translate(653.5703 525)" fill="black">
          <tspan font-family="Helvetica" font-size="16" fill="black" x="0" y="15">Geschäftslogikebene</tspan>
        </text>
      </g>
      <g id="Graphic_75">
        <text transform="translate(683.8125 648)" fill="black">
          <tspan font-family="Helvetica" font-size="16" fill="black" x="0" y="15">Persistenzebene</tspan>
        </text>
      </g>
    </g>
  </g>
</svg>
