<?xml version="1.0" encoding="UTF-8" standalone="no"?>
<!DOCTYPE svg PUBLIC "-//W3C//DTD SVG 1.1//EN" "http://www.w3.org/Graphics/SVG/1.1/DTD/svg11.dtd">
<svg version="1.1" xmlns:dc="http://purl.org/dc/elements/1.1/" xmlns="http://www.w3.org/2000/svg" xmlns:xl="http://www.w3.org/1999/xlink" viewBox="77 168 998 454" width="998" height="454">
  <defs>
    <filter id="Shadow" filterUnits="userSpaceOnUse" x="-22.8" y="122.6">
      <feGaussianBlur in="SourceAlpha" result="blur" stdDeviation="1.308"/>
      <feOffset in="blur" result="offset" dx="0" dy="2"/>
      <feFlood flood-color="black" flood-opacity=".5" result="flood"/>
      <feComposite in="flood" in2="offset" operator="in"/>
    </filter>
    <filter id="Shadow_2" filterUnits="userSpaceOnUse" x="-22.8" y="122.6">
      <feGaussianBlur in="SourceAlpha" result="blur" stdDeviation="1.308"/>
      <feOffset in="blur" result="offset" dx="0" dy="2"/>
      <feFlood flood-color="black" flood-opacity=".5" result="flood"/>
      <feComposite in="flood" in2="offset" operator="in" result="color"/>
      <feMerge>
        <feMergeNode in="color"/>
        <feMergeNode in="SourceGraphic"/>
      </feMerge>
    </filter>
    <marker orient="auto" overflow="visible" markerUnits="strokeWidth" id="FilledArrow_Marker" stroke-linejoin="miter" stroke-miterlimit="10" viewBox="-1 -4 10 8" markerWidth="10" markerHeight="8" color="black">
      <g>
        <path d="M 8 0 L 0 -3 L 0 3 Z" fill="currentColor" stroke="currentColor" stroke-width="1"/>
      </g>
    </marker>
  </defs>
  <g id="common_architectures" fill="none" stroke-opacity="1" stroke-dasharray="none" fill-opacity="1" stroke="none">
    <title>common_architectures</title>
    <g id="common_architectures_Layer_1">
      <title>Layer 1</title>
      <g id="Graphic_37_shadow" filter="url(#Shadow)">
        <rect x="586.2" y="528" width="304" height="88" fill="white"/>
        <rect x="586.2" y="528" width="304" height="88" stroke="black" stroke-linecap="round" stroke-linejoin="round" stroke-width="1"/>
      </g>
      <g id="Graphic_14_shadow" filter="url(#Shadow)">
        <rect x="96" y="200" width="123.2" height="64" fill="white"/>
        <rect x="96" y="200" width="123.2" height="64" stroke="black" stroke-linecap="round" stroke-linejoin="round" stroke-width="1"/>
      </g>
      <g id="Graphic_20_shadow" filter="url(#Shadow)">
        <path d="M 270.9475 235.43744 C 248.45 232 257.42144 203.0624 293.31 208 C 296.63965 198.37504 338.3732 199.93728 338.10037 208 C 364.26858 197.68768 397.71 218.25024 375.2793 228.56256 C 402.195 233.56224 374.93965 260.49984 352.85 256 C 351.08216 263.50016 311.5925 266.1248 308.12643 256 C 285.76534 266.8128 239.1389 250.18752 270.9475 235.43744 Z" fill="white"/>
        <path d="M 270.9475 235.43744 C 248.45 232 257.42144 203.0624 293.31 208 C 296.63965 198.37504 338.3732 199.93728 338.10037 208 C 364.26858 197.68768 397.71 218.25024 375.2793 228.56256 C 402.195 233.56224 374.93965 260.49984 352.85 256 C 351.08216 263.50016 311.5925 266.1248 308.12643 256 C 285.76534 266.8128 239.1389 250.18752 270.9475 235.43744 Z" stroke="black" stroke-linecap="round" stroke-linejoin="round" stroke-width="1"/>
      </g>
      <g id="Graphic_21_shadow" filter="url(#Shadow)">
        <path d="M 425.6 257.6 L 425.6 206.4 C 425.6 202.8672 453.1968 200 487.2 200 C 521.2032 200 548.8 202.8672 548.8 206.4 L 548.8 257.6 C 548.8 261.1328 521.2032 264 487.2 264 C 453.1968 264 425.6 261.1328 425.6 257.6" fill="white"/>
        <path d="M 425.6 257.6 L 425.6 206.4 C 425.6 202.8672 453.1968 200 487.2 200 C 521.2032 200 548.8 202.8672 548.8 206.4 L 548.8 257.6 C 548.8 261.1328 521.2032 264 487.2 264 C 453.1968 264 425.6 261.1328 425.6 257.6 M 425.6 206.4 C 425.6 209.9328 453.1968 212.8 487.2 212.8 C 521.2032 212.8 548.8 209.9328 548.8 206.4" stroke="black" stroke-linecap="round" stroke-linejoin="round" stroke-width="1"/>
      </g>
      <g id="Graphic_25_shadow" filter="url(#Shadow)">
        <rect x="96" y="536" width="123.2" height="64" fill="white"/>
        <rect x="96" y="536" width="123.2" height="64" stroke="black" stroke-linecap="round" stroke-linejoin="round" stroke-width="1"/>
      </g>
      <g id="Graphic_26_shadow" filter="url(#Shadow)">
        <path d="M 270.9475 571.43744 C 248.45 568 257.42144 539.0624 293.31 544 C 296.63965 534.37504 338.3732 535.9373 338.10037 544 C 364.26858 533.6877 397.71 554.25024 375.2793 564.56256 C 402.195 569.56224 374.93965 596.49984 352.85 592 C 351.08216 599.50016 311.5925 602.1248 308.12643 592 C 285.76534 602.8128 239.1389 586.1875 270.9475 571.43744 Z" fill="white"/>
        <path d="M 270.9475 571.43744 C 248.45 568 257.42144 539.0624 293.31 544 C 296.63965 534.37504 338.3732 535.9373 338.10037 544 C 364.26858 533.6877 397.71 554.25024 375.2793 564.56256 C 402.195 569.56224 374.93965 596.49984 352.85 592 C 351.08216 599.50016 311.5925 602.1248 308.12643 592 C 285.76534 602.8128 239.1389 586.1875 270.9475 571.43744 Z" stroke="black" stroke-linecap="round" stroke-linejoin="round" stroke-width="1"/>
      </g>
      <g id="Graphic_29_shadow" filter="url(#Shadow)">
        <path d="M 929.6 593.6 L 929.6 542.4 C 929.6 538.8672 957.1968 536 991.2 536 C 1025.2032 536 1052.8 538.8672 1052.8 542.4 L 1052.8 593.6 C 1052.8 597.1328 1025.2032 600 991.2 600 C 957.1968 600 929.6 597.1328 929.6 593.6" fill="white"/>
        <path d="M 929.6 593.6 L 929.6 542.4 C 929.6 538.8672 957.1968 536 991.2 536 C 1025.2032 536 1052.8 538.8672 1052.8 542.4 L 1052.8 593.6 C 1052.8 597.1328 1025.2032 600 991.2 600 C 957.1968 600 929.6 597.1328 929.6 593.6 M 929.6 542.4 C 929.6 545.9328 957.1968 548.8 991.2 548.8 C 1025.2032 548.8 1052.8 545.9328 1052.8 542.4" stroke="black" stroke-linecap="round" stroke-linejoin="round" stroke-width="1"/>
      </g>
      <g id="Graphic_31_shadow" filter="url(#Shadow)">
        <rect x="425.6" y="536" width="123.2" height="64" fill="white"/>
        <rect x="425.6" y="536" width="123.2" height="64" stroke="black" stroke-linecap="round" stroke-linejoin="round" stroke-width="1"/>
      </g>
      <g id="Graphic_55">
        <path d="M 88 304 L 1064 304 C 1068.4183 304 1072 307.58172 1072 312 L 1072 472 C 1072 476.4183 1068.4183 480 1064 480 L 88 480 C 83.58172 480 80 476.4183 80 472 L 80 312 C 80 307.58172 83.58172 304 88 304 Z" fill="#dadada"/>
      </g>
      <g id="Graphic_37">
        <rect x="586.2" y="528" width="304" height="88" fill="white"/>
        <rect x="586.2" y="528" width="304" height="88" stroke="black" stroke-linecap="round" stroke-linejoin="round" stroke-width="1"/>
      </g>
      <g id="Graphic_36" filter="url(#Shadow_2)">
        <rect x="416" y="360" width="304" height="88" fill="white"/>
        <rect x="416" y="360" width="304" height="88" stroke="black" stroke-linecap="round" stroke-linejoin="round" stroke-width="1"/>
      </g>
      <g id="Graphic_14">
        <rect x="96" y="200" width="123.2" height="64" fill="white"/>
        <rect x="96" y="200" width="123.2" height="64" stroke="black" stroke-linecap="round" stroke-linejoin="round" stroke-width="1"/>
        <text transform="translate(101 220.20993)" fill="black">
          <tspan font-family="Helvetica Neue" font-size="20" fill="black" x="10.479998" y="19">Rich Client</tspan>
        </text>
      </g>
      <g id="Graphic_20">
        <path d="M 270.9475 235.43744 C 248.45 232 257.42144 203.0624 293.31 208 C 296.63965 198.37504 338.3732 199.93728 338.10037 208 C 364.26858 197.68768 397.71 218.25024 375.2793 228.56256 C 402.195 233.56224 374.93965 260.49984 352.85 256 C 351.08216 263.50016 311.5925 266.1248 308.12643 256 C 285.76534 266.8128 239.1389 250.18752 270.9475 235.43744 Z" fill="white"/>
        <path d="M 270.9475 235.43744 C 248.45 232 257.42144 203.0624 293.31 208 C 296.63965 198.37504 338.3732 199.93728 338.10037 208 C 364.26858 197.68768 397.71 218.25024 375.2793 228.56256 C 402.195 233.56224 374.93965 260.49984 352.85 256 C 351.08216 263.50016 311.5925 266.1248 308.12643 256 C 285.76534 266.8128 239.1389 250.18752 270.9475 235.43744 Z" stroke="black" stroke-linecap="round" stroke-linejoin="round" stroke-width="1"/>
        <text transform="translate(278.68 220.20993)" fill="black">
          <tspan font-family="Helvetica Neue" font-size="20" fill="black" x="3.1500012" y="19">Netzwerk</tspan>
        </text>
      </g>
      <g id="Graphic_21">
        <path d="M 425.6 257.6 L 425.6 206.4 C 425.6 202.8672 453.1968 200 487.2 200 C 521.2032 200 548.8 202.8672 548.8 206.4 L 548.8 257.6 C 548.8 261.1328 521.2032 264 487.2 264 C 453.1968 264 425.6 261.1328 425.6 257.6" fill="white"/>
        <path d="M 425.6 257.6 L 425.6 206.4 C 425.6 202.8672 453.1968 200 487.2 200 C 521.2032 200 548.8 202.8672 548.8 206.4 L 548.8 257.6 C 548.8 261.1328 521.2032 264 487.2 264 C 453.1968 264 425.6 261.1328 425.6 257.6 M 425.6 206.4 C 425.6 209.9328 453.1968 212.8 487.2 212.8 C 521.2032 212.8 548.8 209.9328 548.8 206.4" stroke="black" stroke-linecap="round" stroke-linejoin="round" stroke-width="1"/>
        <text transform="translate(430.6 223.40993)" fill="black">
          <tspan font-family="Helvetica Neue" font-size="20" fill="black" x="12.339998" y="19">Persistenz</tspan>
        </text>
      </g>
      <g id="Graphic_22" filter="url(#Shadow_2)">
        <rect x="587.2" y="368" width="123.2" height="64" fill="white"/>
        <rect x="587.2" y="368" width="123.2" height="64" stroke="black" stroke-linecap="round" stroke-linejoin="round" stroke-width="1"/>
        <text transform="translate(592.2 376.41986)" fill="black">
          <tspan font-family="Helvetica Neue" font-size="20" fill="black" x="23.449998" y="19">Domain </tspan>
          <tspan font-family="Helvetica Neue" font-size="20" fill="black" x="30.05" y="42.58014">Model</tspan>
        </text>
      </g>
      <g id="Graphic_23" filter="url(#Shadow_2)">
        <rect x="96" y="368" width="123.2" height="64" fill="white"/>
        <rect x="96" y="368" width="123.2" height="64" stroke="black" stroke-linecap="round" stroke-linejoin="round" stroke-width="1"/>
        <text transform="translate(101 388.20993)" fill="black">
          <tspan font-family="Helvetica Neue" font-size="20" fill="black" x="10.479998" y="19">Rich Client</tspan>
        </text>
      </g>
      <g id="Graphic_24" filter="url(#Shadow_2)">
        <path d="M 270.9475 403.43744 C 248.45 400 257.42144 371.0624 293.31 376 C 296.63965 366.37504 338.3732 367.9373 338.10037 376 C 364.26858 365.6877 397.71 386.25024 375.2793 396.56256 C 402.195 401.56224 374.93965 428.49984 352.85 424 C 351.08216 431.50016 311.5925 434.1248 308.12643 424 C 285.76534 434.8128 239.1389 418.1875 270.9475 403.43744 Z" fill="white"/>
        <path d="M 270.9475 403.43744 C 248.45 400 257.42144 371.0624 293.31 376 C 296.63965 366.37504 338.3732 367.9373 338.10037 376 C 364.26858 365.6877 397.71 386.25024 375.2793 396.56256 C 402.195 401.56224 374.93965 428.49984 352.85 424 C 351.08216 431.50016 311.5925 434.1248 308.12643 424 C 285.76534 434.8128 239.1389 418.1875 270.9475 403.43744 Z" stroke="black" stroke-linecap="round" stroke-linejoin="round" stroke-width="1"/>
        <text transform="translate(278.68 388.20993)" fill="black">
          <tspan font-family="Helvetica Neue" font-size="20" fill="black" x="3.1500012" y="19">Netzwerk</tspan>
        </text>
      </g>
      <g id="Graphic_25">
        <rect x="96" y="536" width="123.2" height="64" fill="white"/>
        <rect x="96" y="536" width="123.2" height="64" stroke="black" stroke-linecap="round" stroke-linejoin="round" stroke-width="1"/>
        <text transform="translate(101 556.2099)" fill="black">
          <tspan font-family="Helvetica Neue" font-size="20" fill="black" x="11.409998" y="19">Thin Client</tspan>
        </text>
      </g>
      <g id="Graphic_26">
        <path d="M 270.9475 571.43744 C 248.45 568 257.42144 539.0624 293.31 544 C 296.63965 534.37504 338.3732 535.9373 338.10037 544 C 364.26858 533.6877 397.71 554.25024 375.2793 564.56256 C 402.195 569.56224 374.93965 596.49984 352.85 592 C 351.08216 599.50016 311.5925 602.1248 308.12643 592 C 285.76534 602.8128 239.1389 586.1875 270.9475 571.43744 Z" fill="white"/>
        <path d="M 270.9475 571.43744 C 248.45 568 257.42144 539.0624 293.31 544 C 296.63965 534.37504 338.3732 535.9373 338.10037 544 C 364.26858 533.6877 397.71 554.25024 375.2793 564.56256 C 402.195 569.56224 374.93965 596.49984 352.85 592 C 351.08216 599.50016 311.5925 602.1248 308.12643 592 C 285.76534 602.8128 239.1389 586.1875 270.9475 571.43744 Z" stroke="black" stroke-linecap="round" stroke-linejoin="round" stroke-width="1"/>
        <text transform="translate(278.68 556.2099)" fill="black">
          <tspan font-family="Helvetica Neue" font-size="20" fill="black" x="3.1500012" y="19">Netzwerk</tspan>
        </text>
      </g>
      <g id="Graphic_27" filter="url(#Shadow_2)">
        <path d="M 755.2 425.6 L 755.2 374.4 C 755.2 370.8672 782.7968 368 816.8 368 C 850.8032 368 878.4 370.8672 878.4 374.4 L 878.4 425.6 C 878.4 429.1328 850.8032 432 816.8 432 C 782.7968 432 755.2 429.1328 755.2 425.6" fill="white"/>
        <path d="M 755.2 425.6 L 755.2 374.4 C 755.2 370.8672 782.7968 368 816.8 368 C 850.8032 368 878.4 370.8672 878.4 374.4 L 878.4 425.6 C 878.4 429.1328 850.8032 432 816.8 432 C 782.7968 432 755.2 429.1328 755.2 425.6 M 755.2 374.4 C 755.2 377.9328 782.7968 380.8 816.8 380.8 C 850.8032 380.8 878.4 377.9328 878.4 374.4" stroke="black" stroke-linecap="round" stroke-linejoin="round" stroke-width="1"/>
        <text transform="translate(760.2 391.40993)" fill="black">
          <tspan font-family="Helvetica Neue" font-size="20" fill="black" x="12.339998" y="19">Persistenz</tspan>
        </text>
      </g>
      <g id="Graphic_28" filter="url(#Shadow_2)">
        <rect x="760" y="536" width="123.2" height="64" fill="white"/>
        <rect x="760" y="536" width="123.2" height="64" stroke="black" stroke-linecap="round" stroke-linejoin="round" stroke-width="1"/>
        <text transform="translate(765 544.41986)" fill="black">
          <tspan font-family="Helvetica Neue" font-size="20" fill="black" x="11.039998" y="19">Dom채nen-</tspan>
          <tspan font-family="Helvetica Neue" font-size="20" fill="black" x="28.08" y="42.58014">modell</tspan>
        </text>
      </g>
      <g id="Graphic_29">
        <path d="M 929.6 593.6 L 929.6 542.4 C 929.6 538.8672 957.1968 536 991.2 536 C 1025.2032 536 1052.8 538.8672 1052.8 542.4 L 1052.8 593.6 C 1052.8 597.1328 1025.2032 600 991.2 600 C 957.1968 600 929.6 597.1328 929.6 593.6" fill="white"/>
        <path d="M 929.6 593.6 L 929.6 542.4 C 929.6 538.8672 957.1968 536 991.2 536 C 1025.2032 536 1052.8 538.8672 1052.8 542.4 L 1052.8 593.6 C 1052.8 597.1328 1025.2032 600 991.2 600 C 957.1968 600 929.6 597.1328 929.6 593.6 M 929.6 542.4 C 929.6 545.9328 957.1968 548.8 991.2 548.8 C 1025.2032 548.8 1052.8 545.9328 1052.8 542.4" stroke="black" stroke-linecap="round" stroke-linejoin="round" stroke-width="1"/>
        <text transform="translate(934.6 559.4099)" fill="black">
          <tspan font-family="Helvetica Neue" font-size="20" fill="black" x="12.339998" y="19">Persistenz</tspan>
        </text>
      </g>
      <g id="Graphic_30" filter="url(#Shadow_2)">
        <rect x="425.6" y="368" width="123.2" height="64" fill="white"/>
        <rect x="425.6" y="368" width="123.2" height="64" stroke="black" stroke-linecap="round" stroke-linejoin="round" stroke-width="1"/>
        <text transform="translate(430.6 367.7168)" fill="black">
          <tspan font-family="Helvetica Neue" font-size="20" fill="black" x="9.379998" y="19">Gesch채fts-</tspan>
          <tspan font-family="Helvetica Neue" font-size="20" fill="black" x="36.78" y="42.58014">logik</tspan>
          <tspan font-family="Helvetica Neue" font-size="14" fill="black" x="31.176" y="61.16028">(Service)</tspan>
        </text>
      </g>
      <g id="Graphic_31">
        <rect x="425.6" y="536" width="123.2" height="64" fill="white"/>
        <rect x="425.6" y="536" width="123.2" height="64" stroke="black" stroke-linecap="round" stroke-linejoin="round" stroke-width="1"/>
        <text transform="translate(430.6 535.7168)" fill="black">
          <tspan font-family="Helvetica Neue" font-size="20" fill="black" x="14.739998" y="19">Pr채senta-</tspan>
          <tspan font-family="Helvetica Neue" font-size="20" fill="black" x="16.229998" y="42.58014">tionslogik</tspan>
          <tspan font-family="Helvetica Neue" font-size="14" fill="black" x="18.078998" y="61.16028">(Web Server)</tspan>
        </text>
      </g>
      <g id="Graphic_32" filter="url(#Shadow_2)">
        <rect x="592.8" y="536" width="123.2" height="64" fill="white"/>
        <rect x="592.8" y="536" width="123.2" height="64" stroke="black" stroke-linecap="round" stroke-linejoin="round" stroke-width="1"/>
        <text transform="translate(597.8 535.7168)" fill="black">
          <tspan font-family="Helvetica Neue" font-size="20" fill="black" x="9.379998" y="19">Gesch채fts-</tspan>
          <tspan font-family="Helvetica Neue" font-size="20" fill="black" x="36.78" y="42.58014">logik</tspan>
          <tspan font-family="Helvetica Neue" font-size="14" fill="black" x="31.176" y="61.16028">(Service)</tspan>
        </text>
      </g>
      <g id="Graphic_33">
        <text transform="translate(101 173)" fill="black">
          <tspan font-family="Helvetica Neue" font-size="18" fill="black" x="0" y="17">2-Schichten (2-Tier)</tspan>
        </text>
      </g>
      <g id="Graphic_34">
        <text transform="translate(101 341.47787)" fill="black">
          <tspan font-family="Helvetica Neue" font-size="18" fill="black" x="0" y="17">3-Schichten (3-Tier)</tspan>
        </text>
      </g>
      <g id="Graphic_35">
        <text transform="translate(101.443 509)" fill="black">
          <tspan font-family="Helvetica Neue" font-size="18" fill="black" x="6998846e-19" y="17">N-Tier</tspan>
        </text>
      </g>
      <g id="Line_38">
        <line x1="219.7" y1="232" x2="261.9578" y2="232" stroke="black" stroke-linecap="round" stroke-linejoin="round" stroke-width="1"/>
      </g>
      <g id="Line_39">
        <line x1="384.3019" y1="232" x2="425.1" y2="232" stroke="black" stroke-linecap="round" stroke-linejoin="round" stroke-width="1"/>
      </g>
      <g id="Line_40">
        <line x1="219.7" y1="400" x2="261.9578" y2="400" stroke="black" stroke-linecap="round" stroke-linejoin="round" stroke-width="1"/>
      </g>
      <g id="Line_41">
        <line x1="219.7" y1="568" x2="261.9578" y2="568" stroke="black" stroke-linecap="round" stroke-linejoin="round" stroke-width="1"/>
      </g>
      <g id="Line_42">
        <line x1="384.3019" y1="568" x2="425.1" y2="568" stroke="black" stroke-linecap="round" stroke-linejoin="round" stroke-width="1"/>
      </g>
      <g id="Line_43">
        <line x1="384.3019" y1="400" x2="425.1" y2="400" stroke="black" stroke-linecap="round" stroke-linejoin="round" stroke-width="1"/>
      </g>
      <g id="Line_44">
        <line x1="549.3" y1="400" x2="586.7" y2="400" stroke="black" stroke-linecap="round" stroke-linejoin="round" stroke-width="1"/>
      </g>
      <g id="Line_45">
        <line x1="710.9" y1="400" x2="754.7" y2="400" stroke="black" stroke-linecap="round" stroke-linejoin="round" stroke-width="1"/>
      </g>
      <g id="Line_46">
        <line x1="716.5" y1="568" x2="759.5" y2="568" stroke="black" stroke-linecap="round" stroke-linejoin="round" stroke-width="1"/>
      </g>
      <g id="Line_47">
        <line x1="883.7" y1="568" x2="929.1" y2="568" stroke="black" stroke-linecap="round" stroke-linejoin="round" stroke-width="1"/>
      </g>
      <g id="Line_48">
        <line x1="592.3" y1="568" x2="549.3" y2="568" stroke="black" stroke-linecap="round" stroke-linejoin="round" stroke-width="1"/>
      </g>
      <g id="Graphic_50">
        <text transform="translate(430.903 325)" fill="black">
          <tspan font-family="Helvetica Neue" font-size="18" fill="black" x="11368684e-20" y="17">Service Interface</tspan>
        </text>
      </g>
      <g id="Graphic_51">
        <text transform="translate(598.103 493)" fill="black">
          <tspan font-family="Helvetica Neue" font-size="18" fill="black" x="11368684e-20" y="17">Service Interface</tspan>
        </text>
      </g>
      <g id="Line_52">
        <path d="M 425.59997 336 C 417.7341 341.3328 405.9335 341.3344 402 352 C 398.83707 360.57623 400.75933 376.0517 401.63327 390.10365" marker-end="url(#FilledArrow_Marker)" stroke="black" stroke-linecap="round" stroke-linejoin="round" stroke-width="1"/>
      </g>
      <g id="Line_54">
        <path d="M 592.8 504 C 586.9339 509.3328 579.3329 509.3344 575.2 520 C 571.8711 528.5908 570.79054 544.10436 569.2421 558.1753" marker-end="url(#FilledArrow_Marker)" stroke="black" stroke-linecap="round" stroke-linejoin="round" stroke-width="1"/>
      </g>
    </g>
  </g>
</svg>
