<?xml version="1.0" encoding="UTF-8" standalone="no"?>
<!DOCTYPE svg PUBLIC "-//W3C//DTD SVG 1.1//EN" "http://www.w3.org/Graphics/SVG/1.1/DTD/svg11.dtd">
<svg version="1.1" xmlns:dc="http://purl.org/dc/elements/1.1/" xmlns="http://www.w3.org/2000/svg" xmlns:xl="http://www.w3.org/1999/xlink" viewBox="151 207 209 322" width="209" height="322">
  <defs>
    <filter id="Shadow" filterUnits="userSpaceOnUse" x="130.1" y="174.8">
      <feGaussianBlur in="SourceAlpha" result="blur" stdDeviation=".872"/>
      <feOffset in="blur" result="offset" dx="2" dy="2"/>
      <feFlood flood-color="black" flood-opacity=".5" result="flood"/>
      <feComposite in="flood" in2="offset" operator="in"/>
    </filter>
    <marker orient="auto" overflow="visible" markerUnits="strokeWidth" id="FilledArrow_Marker" stroke-linejoin="miter" stroke-miterlimit="10" viewBox="-1 -3 7 6" markerWidth="7" markerHeight="6" color="black">
      <g>
        <path d="M 4.8 0 L 0 -1.8 L 0 1.8 Z" fill="currentColor" stroke="currentColor" stroke-width="1"/>
      </g>
    </marker>
    <marker orient="auto" overflow="visible" markerUnits="strokeWidth" id="FilledBox_Marker" stroke-linejoin="miter" stroke-miterlimit="10" viewBox="-5 -3 6 6" markerWidth="6" markerHeight="6" color="black">
      <g>
        <rect x="-3.6" y="-1.8" width="3.6" height="3.6" fill="currentColor" stroke="currentColor" stroke-width="1"/>
      </g>
    </marker>
  </defs>
  <g id="n-layered_architectures-and-callbacks" fill="none" stroke-opacity="1" stroke-dasharray="none" fill-opacity="1" stroke="none">
    <title>n-layered_architectures-and-callbacks</title>
    <g id="n-layered_architectures-and-callbacks_Layer_1">
      <title>Layer 1</title>
      <g id="Graphic_2_shadow" filter="url(#Shadow)">
        <path d="M 157 208 L 307 208 C 309.76142 208 312 210.23858 312 213 L 312 243 C 312 245.76142 309.76142 248 307 248 L 157 248 C 154.23858 248 152 245.76142 152 243 L 152 213 C 152 210.23858 154.23858 208 157 208 Z" fill="white"/>
        <path d="M 157 208 L 307 208 C 309.76142 208 312 210.23858 312 213 L 312 243 C 312 245.76142 309.76142 248 307 248 L 157 248 C 154.23858 248 152 245.76142 152 243 L 152 213 C 152 210.23858 154.23858 208 157 208 Z" stroke="#a5a5a5" stroke-linecap="round" stroke-linejoin="round" stroke-width="1"/>
      </g>
      <g id="Graphic_3_shadow" filter="url(#Shadow)">
        <path d="M 157 288 L 307 288 C 309.76142 288 312 290.23858 312 293 L 312 323 C 312 325.76142 309.76142 328 307 328 L 157 328 C 154.23858 328 152 325.76142 152 323 L 152 293 C 152 290.23858 154.23858 288 157 288 Z" fill="white"/>
        <path d="M 157 288 L 307 288 C 309.76142 288 312 290.23858 312 293 L 312 323 C 312 325.76142 309.76142 328 307 328 L 157 328 C 154.23858 328 152 325.76142 152 323 L 152 293 C 152 290.23858 154.23858 288 157 288 Z" stroke="#a5a5a5" stroke-linecap="round" stroke-linejoin="round" stroke-width="1"/>
      </g>
      <g id="Graphic_4_shadow" filter="url(#Shadow)">
        <path d="M 157 448 L 307 448 C 309.76142 448 312 450.2386 312 453 L 312 483 C 312 485.7614 309.76142 488 307 488 L 157 488 C 154.23858 488 152 485.7614 152 483 L 152 453 C 152 450.2386 154.23858 448 157 448 Z" fill="white"/>
        <path d="M 157 448 L 307 448 C 309.76142 448 312 450.2386 312 453 L 312 483 C 312 485.7614 309.76142 488 307 488 L 157 488 C 154.23858 488 152 485.7614 152 483 L 152 453 C 152 450.2386 154.23858 448 157 448 Z" stroke="#a5a5a5" stroke-linecap="round" stroke-linejoin="round" stroke-width="1"/>
      </g>
      <g id="Graphic_2">
        <path d="M 157 208 L 307 208 C 309.76142 208 312 210.23858 312 213 L 312 243 C 312 245.76142 309.76142 248 307 248 L 157 248 C 154.23858 248 152 245.76142 152 243 L 152 213 C 152 210.23858 154.23858 208 157 208 Z" fill="white"/>
        <path d="M 157 208 L 307 208 C 309.76142 208 312 210.23858 312 213 L 312 243 C 312 245.76142 309.76142 248 307 248 L 157 248 C 154.23858 248 152 245.76142 152 243 L 152 213 C 152 210.23858 154.23858 208 157 208 Z" stroke="#a5a5a5" stroke-linecap="round" stroke-linejoin="round" stroke-width="1"/>
        <text transform="translate(157 218.5)" fill="black">
          <tspan font-family="Helvetica" font-size="16" fill="black" x="40.765625" y="15">Schicht N</tspan>
        </text>
      </g>
      <g id="Graphic_3">
        <path d="M 157 288 L 307 288 C 309.76142 288 312 290.23858 312 293 L 312 323 C 312 325.76142 309.76142 328 307 328 L 157 328 C 154.23858 328 152 325.76142 152 323 L 152 293 C 152 290.23858 154.23858 288 157 288 Z" fill="white"/>
        <path d="M 157 288 L 307 288 C 309.76142 288 312 290.23858 312 293 L 312 323 C 312 325.76142 309.76142 328 307 328 L 157 328 C 154.23858 328 152 325.76142 152 323 L 152 293 C 152 290.23858 154.23858 288 157 288 Z" stroke="#a5a5a5" stroke-linecap="round" stroke-linejoin="round" stroke-width="1"/>
        <text transform="translate(157 298.5)" fill="black">
          <tspan font-family="Helvetica" font-size="16" fill="black" x="33.652344" y="15">Schicht N-1</tspan>
        </text>
      </g>
      <g id="Graphic_4">
        <path d="M 157 448 L 307 448 C 309.76142 448 312 450.2386 312 453 L 312 483 C 312 485.7614 309.76142 488 307 488 L 157 488 C 154.23858 488 152 485.7614 152 483 L 152 453 C 152 450.2386 154.23858 448 157 448 Z" fill="white"/>
        <path d="M 157 448 L 307 448 C 309.76142 448 312 450.2386 312 453 L 312 483 C 312 485.7614 309.76142 488 307 488 L 157 488 C 154.23858 488 152 485.7614 152 483 L 152 453 C 152 450.2386 154.23858 448 157 448 Z" stroke="#a5a5a5" stroke-linecap="round" stroke-linejoin="round" stroke-width="1"/>
        <text transform="translate(157 458.5)" fill="black">
          <tspan font-family="Helvetica" font-size="16" fill="black" x="33.652344" y="15">Schicht N-2</tspan>
        </text>
      </g>
      <g id="Line_6">
        <line x1="232" y1="256.2" x2="232" y2="275.1" marker-end="url(#FilledArrow_Marker)" marker-start="url(#FilledBox_Marker)" stroke="black" stroke-linecap="round" stroke-linejoin="round" stroke-width="2"/>
      </g>
      <g id="Line_7">
        <line x1="178.66667" y1="336.2" x2="178.66667" y2="435.1" marker-end="url(#FilledArrow_Marker)" marker-start="url(#FilledBox_Marker)" stroke="black" stroke-linecap="round" stroke-linejoin="round" stroke-width="2"/>
      </g>
      <g id="Line_8">
        <line x1="232" y1="496.2" x2="232" y2="515.1" marker-end="url(#FilledArrow_Marker)" marker-start="url(#FilledBox_Marker)" stroke="black" stroke-linecap="round" stroke-linejoin="round" stroke-width="2"/>
      </g>
      <g id="Line_20">
        <line x1="258.66667" y1="328" x2="258.66667" y2="435.1" marker-end="url(#FilledArrow_Marker)" stroke="black" stroke-linecap="round" stroke-linejoin="round" stroke-width="2"/>
      </g>
      <g id="Line_21">
        <line x1="285.33333" y1="448" x2="285.33333" y2="340.9" marker-end="url(#FilledArrow_Marker)" stroke="black" stroke-linecap="round" stroke-linejoin="round" stroke-width="2"/>
      </g>
      <g id="Graphic_22">
        <text transform="translate(205 378.5)" fill="black">
          <tspan font-family="Helvetica" font-size="16" fill="black" x="0" y="15">Handle</tspan>
        </text>
      </g>
      <g id="Graphic_24">
        <text transform="translate(293 378.5)" fill="black">
          <tspan font-family="Helvetica" font-size="16" fill="black" x="0" y="15">Callback</tspan>
        </text>
      </g>
    </g>
  </g>
</svg>
