<?xml version="1.0" encoding="UTF-8" standalone="no"?>
<!DOCTYPE svg PUBLIC "-//W3C//DTD SVG 1.1//EN" "http://www.w3.org/Graphics/SVG/1.1/DTD/svg11.dtd">
<svg xmlns:dc="http://purl.org/dc/elements/1.1/" version="1.1" xmlns:xl="http://www.w3.org/1999/xlink" xmlns="http://www.w3.org/2000/svg" viewBox="114 184 796 191" width="796" height="191">
  <defs>
    <filter id="Shadow" filterUnits="userSpaceOnUse" x="34.4" y="164.9">
      <feGaussianBlur in="SourceAlpha" result="blur" stdDeviation="1.308"/>
      <feOffset in="blur" result="offset" dx="0" dy="2"/>
      <feFlood flood-color="black" flood-opacity=".5" result="flood"/>
      <feComposite in="flood" in2="offset" operator="in"/>
    </filter>
    <filter id="Shadow_2" filterUnits="userSpaceOnUse" x="34.4" y="164.9">
      <feGaussianBlur in="SourceAlpha" result="blur" stdDeviation="1.308"/>
      <feOffset in="blur" result="offset" dx="0" dy="2"/>
      <feFlood flood-color="black" flood-opacity=".5" result="flood"/>
      <feComposite in="flood" in2="offset" operator="in" result="color"/>
      <feMerge>
        <feMergeNode in="color"/>
        <feMergeNode in="SourceGraphic"/>
      </feMerge>
    </filter>
    <marker orient="auto" overflow="visible" markerUnits="strokeWidth" id="FilledArrow_Marker" stroke-linejoin="miter" stroke-miterlimit="10" viewBox="-1 -4 10 8" markerWidth="10" markerHeight="8" color="black">
      <g>
        <path d="M 8 0 L 0 -3 L 0 3 Z" fill="currentColor" stroke="currentColor" stroke-width="1"/>
      </g>
    </marker>
    <marker orient="auto" overflow="visible" markerUnits="strokeWidth" id="FilledArrow_Marker_2" stroke-linejoin="miter" stroke-miterlimit="10" viewBox="-1 -6 15 12" markerWidth="15" markerHeight="12" color="black">
      <g>
        <path d="M 12.000001 0 L 0 -4.5000004 L 0 4.5000004 Z" fill="currentColor" stroke="currentColor" stroke-width="1"/>
      </g>
    </marker>
    <marker orient="auto" overflow="visible" markerUnits="strokeWidth" id="FilledArrow_Marker_3" stroke-linejoin="miter" stroke-miterlimit="10" viewBox="-14 -6 15 12" markerWidth="15" markerHeight="12" color="black">
      <g>
        <path d="M -12.000001 0 L 0 4.5000004 L 0 -4.5000004 Z" fill="currentColor" stroke="currentColor" stroke-width="1"/>
      </g>
    </marker>
  </defs>
  <g id="web-servers-application-frontend" fill-opacity="1" stroke-opacity="1" stroke-dasharray="none" stroke="none" fill="none">
    <title>web-servers-application-frontend</title>
    <g id="web-servers-application-frontend_Layer_1">
      <title>Layer 1</title>
      <g id="Graphic_26_shadow" filter="url(#Shadow)">
        <path d="M 292.1647 282.43744 C 269.15 279 278.32768 250.0624 315.04125 255 C 318.44746 245.37504 361.1404 246.93728 360.8613 255 C 387.63107 244.68768 421.84125 265.25024 398.8949 275.56256 C 426.4294 280.56224 398.54746 307.49984 375.95 303 C 374.1415 310.50016 333.74406 313.1248 330.1983 303 C 307.32317 313.8128 259.62486 297.18752 292.1647 282.43744 Z" fill="white"/>
        <path d="M 292.1647 282.43744 C 269.15 279 278.32768 250.0624 315.04125 255 C 318.44746 245.37504 361.1404 246.93728 360.8613 255 C 387.63107 244.68768 421.84125 265.25024 398.8949 275.56256 C 426.4294 280.56224 398.54746 307.49984 375.95 303 C 374.1415 310.50016 333.74406 313.1248 330.1983 303 C 307.32317 313.8128 259.62486 297.18752 292.1647 282.43744 Z" stroke="black" stroke-linecap="round" stroke-linejoin="round" stroke-width="1"/>
      </g>
      <g id="Graphic_29_shadow" filter="url(#Shadow)">
        <path d="M 782.4 304.6 L 782.4 253.4 C 782.4 249.8672 809.9968 247 844 247 C 878.0032 247 905.6 249.8672 905.6 253.4 L 905.6 304.6 C 905.6 308.1328 878.0032 311 844 311 C 809.9968 311 782.4 308.1328 782.4 304.6" fill="white"/>
        <path d="M 782.4 304.6 L 782.4 253.4 C 782.4 249.8672 809.9968 247 844 247 C 878.0032 247 905.6 249.8672 905.6 253.4 L 905.6 304.6 C 905.6 308.1328 878.0032 311 844 311 C 809.9968 311 782.4 308.1328 782.4 304.6 M 782.4 253.4 C 782.4 256.9328 809.9968 259.8 844 259.8 C 878.0032 259.8 905.6 256.9328 905.6 253.4" stroke="black" stroke-linecap="round" stroke-linejoin="round" stroke-width="1"/>
      </g>
      <g id="Graphic_31_shadow" filter="url(#Shadow)">
        <rect x="448" y="247" width="123.2" height="64" fill="white"/>
        <rect x="448" y="247" width="123.2" height="64" stroke="black" stroke-linecap="round" stroke-linejoin="round" stroke-width="1"/>
      </g>
      <g id="Graphic_57_shadow" filter="url(#Shadow)">
        <rect x="118.4" y="271" width="123.2" height="40" fill="#e5e5e5"/>
        <rect x="118.4" y="271" width="123.2" height="40" stroke="black" stroke-linecap="round" stroke-linejoin="round" stroke-width="1"/>
      </g>
      <g id="Graphic_58_shadow" filter="url(#Shadow)">
        <rect x="118.4" y="247" width="123.2" height="24" fill="white"/>
        <rect x="118.4" y="247" width="123.2" height="24" stroke="black" stroke-linecap="round" stroke-linejoin="round" stroke-width="1"/>
      </g>
      <g id="Graphic_26">
        <path d="M 292.1647 282.43744 C 269.15 279 278.32768 250.0624 315.04125 255 C 318.44746 245.37504 361.1404 246.93728 360.8613 255 C 387.63107 244.68768 421.84125 265.25024 398.8949 275.56256 C 426.4294 280.56224 398.54746 307.49984 375.95 303 C 374.1415 310.50016 333.74406 313.1248 330.1983 303 C 307.32317 313.8128 259.62486 297.18752 292.1647 282.43744 Z" fill="white"/>
        <path d="M 292.1647 282.43744 C 269.15 279 278.32768 250.0624 315.04125 255 C 318.44746 245.37504 361.1404 246.93728 360.8613 255 C 387.63107 244.68768 421.84125 265.25024 398.8949 275.56256 C 426.4294 280.56224 398.54746 307.49984 375.95 303 C 374.1415 310.50016 333.74406 313.1248 330.1983 303 C 307.32317 313.8128 259.62486 297.18752 292.1647 282.43744 Z" stroke="black" stroke-linecap="round" stroke-linejoin="round" stroke-width="1"/>
        <text transform="translate(299.96 267.20993)" fill="black">
          <tspan font-family="Helvetica Neue" font-size="20" fill="black" x="4.27" y="19">Netzwerk</tspan>
        </text>
      </g>
      <g id="Graphic_29">
        <path d="M 782.4 304.6 L 782.4 253.4 C 782.4 249.8672 809.9968 247 844 247 C 878.0032 247 905.6 249.8672 905.6 253.4 L 905.6 304.6 C 905.6 308.1328 878.0032 311 844 311 C 809.9968 311 782.4 308.1328 782.4 304.6" fill="white"/>
        <path d="M 782.4 304.6 L 782.4 253.4 C 782.4 249.8672 809.9968 247 844 247 C 878.0032 247 905.6 249.8672 905.6 253.4 L 905.6 304.6 C 905.6 308.1328 878.0032 311 844 311 C 809.9968 311 782.4 308.1328 782.4 304.6 M 782.4 253.4 C 782.4 256.9328 809.9968 259.8 844 259.8 C 878.0032 259.8 905.6 256.9328 905.6 253.4" stroke="black" stroke-linecap="round" stroke-linejoin="round" stroke-width="1"/>
        <text transform="translate(787.4 270.40993)" fill="black">
          <tspan font-family="Helvetica Neue" font-size="20" fill="black" x="6.5899985" y="19">Persistence</tspan>
        </text>
      </g>
      <g id="Graphic_31">
        <rect x="448" y="247" width="123.2" height="64" fill="white"/>
        <rect x="448" y="247" width="123.2" height="64" stroke="black" stroke-linecap="round" stroke-linejoin="round" stroke-width="1"/>
        <text transform="translate(453 246.7168)" fill="black">
          <tspan font-family="Helvetica Neue" font-size="20" fill="black" x="2.8799985" y="19">Presentation </tspan>
          <tspan font-family="Helvetica Neue" font-size="20" fill="black" x="33.07" y="42.58014">Logic </tspan>
          <tspan font-family="Helvetica Neue" font-size="14" fill="black" x="18.078998" y="61.16028">(Web Server)</tspan>
        </text>
      </g>
      <g id="Graphic_32" filter="url(#Shadow_2)">
        <rect x="615.2" y="247" width="123.2" height="64" fill="white"/>
        <rect x="615.2" y="247" width="123.2" height="64" stroke="black" stroke-linecap="round" stroke-linejoin="round" stroke-width="1"/>
        <text transform="translate(620.2 246.7168)" fill="black">
          <tspan font-family="Helvetica Neue" font-size="20" fill="black" x="17.719998" y="19">Business </tspan>
          <tspan font-family="Helvetica Neue" font-size="20" fill="black" x="33.07" y="42.58014">Logic </tspan>
          <tspan font-family="Helvetica Neue" font-size="14" fill="black" x="31.176" y="61.16028">(Service)</tspan>
        </text>
      </g>
      <g id="Line_41">
        <path d="M 238.4 279 L 275.9798 279 L 282.9798 279" stroke="black" stroke-linecap="round" stroke-linejoin="round" stroke-width="1"/>
      </g>
      <g id="Line_42">
        <line x1="408.11343" y1="279" x2="447.5" y2="279" stroke="black" stroke-linecap="round" stroke-linejoin="round" stroke-width="1"/>
      </g>
      <g id="Line_47">
        <line x1="738.9" y1="279" x2="781.9" y2="279" stroke="black" stroke-linecap="round" stroke-linejoin="round" stroke-width="1"/>
      </g>
      <g id="Line_48">
        <line x1="614.7" y1="279" x2="571.7" y2="279" stroke="black" stroke-linecap="round" stroke-linejoin="round" stroke-width="1"/>
      </g>
      <g id="Graphic_51">
        <text transform="translate(620.503 204)" fill="black">
          <tspan font-family="Helvetica Neue" font-size="18" fill="black" x="11368684e-20" y="17">Service Interface</tspan>
        </text>
      </g>
      <g id="Line_54">
        <path d="M 615.2 215 C 609.3339 220.3328 601.7329 220.3344 597.6 231 C 594.2711 239.5908 593.19054 255.10436 591.6421 269.1753" marker-end="url(#FilledArrow_Marker)" stroke="black" stroke-linecap="round" stroke-linejoin="round" stroke-width="1"/>
      </g>
      <g id="Group_56">
        <g id="Graphic_58">
          <rect x="118.4" y="247" width="123.2" height="24" fill="white"/>
          <rect x="118.4" y="247" width="123.2" height="24" stroke="black" stroke-linecap="round" stroke-linejoin="round" stroke-width="1"/>
          <text transform="translate(123.4 247.20993)" fill="black">
            <tspan font-family="Helvetica Neue" font-size="20" fill="black" x="8.999998" y="19">Application</tspan>
          </text>
        </g>
        <g id="Graphic_57">
          <rect x="118.4" y="271" width="123.2" height="40" fill="#e5e5e5"/>
          <rect x="118.4" y="271" width="123.2" height="40" stroke="black" stroke-linecap="round" stroke-linejoin="round" stroke-width="1"/>
          <text transform="translate(123.4 270.50688)" fill="black">
            <tspan font-family="Helvetica Neue" font-size="20" fill="black" x="14.919998" y="19">Container</tspan>
            <tspan font-family="Helvetica Neue" font-size="14" fill="black" x="28.194" y="37.58014">(Browser)</tspan>
          </text>
        </g>
      </g>
      <g id="Line_59">
        <line x1="438.4" y1="215" x2="260.3" y2="215" marker-end="url(#FilledArrow_Marker_2)" stroke="black" stroke-linecap="round" stroke-linejoin="round" stroke-width="1"/>
      </g>
      <g id="Line_60">
        <line x1="432.5001" y1="342.3009" x2="255.4999" y2="342.9491" marker-end="url(#FilledArrow_Marker_2)" marker-start="url(#FilledArrow_Marker_3)" stroke="black" stroke-linecap="round" stroke-linejoin="round" stroke-width="1"/>
      </g>
      <g id="Line_61">
        <line x1="601.302" y1="342.4869" x2="585.098" y2="342.7631" marker-end="url(#FilledArrow_Marker_2)" marker-start="url(#FilledArrow_Marker_3)" stroke="black" stroke-linecap="round" stroke-linejoin="round" stroke-width="1"/>
      </g>
      <g id="Graphic_62">
        <text transform="translate(467.426 323.5)" fill="black">
          <tspan font-family="Helvetica Neue" font-size="18" fill="black" x="8952838e-19" y="17">(mediation)</tspan>
        </text>
      </g>
      <g id="Graphic_63">
        <text transform="translate(535.962 348.25)" fill="black">
          <tspan font-family="Helvetica Neue" font-size="18" fill="black" x="0" y="17">Datenaustausch</tspan>
        </text>
      </g>
      <g id="Graphic_64">
        <text transform="translate(291.862 348.25)" fill="black">
          <tspan font-family="Helvetica Neue" font-size="18" fill="black" x="0" y="17">Datenaustausch</tspan>
        </text>
      </g>
      <g id="Graphic_65">
        <text transform="translate(186.256 189)" fill="black">
          <tspan font-family="Helvetica Neue" font-size="18" fill="black" x="0" y="17">Application Download, Presentation Flow</tspan>
        </text>
      </g>
    </g>
  </g>
</svg>
