<?xml version="1.0" encoding="UTF-8" standalone="no" ?>
<!DOCTYPE svg PUBLIC "-//W3C//DTD SVG 1.1//EN"
    "http://www.w3.org/Graphics/SVG/1.1/DTD/svg11.dtd">
<svg
    xmlns="http://www.w3.org/2000/svg"
    version="1.1"
    xmlns:xl="http://www.w3.org/1999/xlink"
    xmlns:dc="http://purl.org/dc/elements/1.1/"
    viewBox="97 40 877 518"
    width="1754"
    height="1036"
>
<style>
  @import url('/LectureDoc2/ext/fonts/ld-fonts.css');
</style>
  <defs>
    <filter id="Shadow" filterUnits="userSpaceOnUse" x="9.3" y="-11.8">
      <feGaussianBlur in="SourceAlpha" result="blur" stdDeviation="1.308" />
      <feOffset in="blur" result="offset" dx="0" dy="2" />
      <feFlood flood-color="black" flood-opacity=".5" result="flood" />
      <feComposite in="flood" in2="offset" operator="in" result="color" />
      <feMerge>
        <feMergeNode in="color" />
        <feMergeNode in="SourceGraphic" />
      </feMerge>
    </filter>
    <marker
            orient="auto"
            overflow="visible"
            markerUnits="strokeWidth"
            id="FilledArrow_Marker"
            stroke-linejoin="miter"
            stroke-miterlimit="10"
            viewBox="-1 -3 6 6"
            markerWidth="6"
            markerHeight="6"
            color="black"
        >
      <g>
        <path
                    d="M 3.7333333 0 L 0 -1.4 L 0 1.4 Z"
                    fill="currentColor"
                    stroke="currentColor"
                    stroke-width="1"
                />
      </g>
    </marker>
    <radialGradient cx="0" cy="0" r="1" id="Gradient" gradientUnits="userSpaceOnUse">
      <stop offset="0" stop-color="white" />
      <stop offset=".5504511" stop-color="#c2cadb" />
      <stop offset="1" stop-color="#7e90b4" />
    </radialGradient>
    <radialGradient
            id="Obj_Gradient"
            xl:href="#Gradient"
            gradientTransform="translate(620.1842 398.16667) scale(40.356826)"
        />
  </defs>
  <g
        id="model"
        stroke-dasharray="none"
        stroke="none"
        stroke-opacity="1"
        fill="none"
        fill-opacity="1"
        font-family="Noto Sans Display"
        font-weight="300"
        font-size="28"
    >
    <g>
      <g id="paper" filter="url(#Shadow)">
        <path
                    d="M 112.75668 181.75 L 224.22543 181.75 C 228.6437 181.75 232.22543 185.33172 232.22543 189.75 L 232.22543 292.55 C 193.9848 278.7 142.9973 334.1 104.75668 306.4 L 104.75668 189.75 C 104.75668 185.33172 108.3384 181.75 112.75668 181.75 Z"
                    fill="white"
                />
        <clipPath id="clip_path">
          <path
                        d="M 8 0 L 119.46875 0 C 123.88703 0 127.46875 3.581722 127.46875 8 L 127.46875 110.8 C 89.22812 96.95 38.240625 152.35 0 124.65 L 0 8 C 0 3.581722 3.581722 0 8 0 Z"
                        fill="white"
                    />
        </clipPath>
        <text
                    clip-path="url(#clip_path)"
                    transform="translate(109.75668 186.75)"
                    fill="black"
                >
          <tspan
                        x="10"
                        y="30"
                    >Nach-</tspan>
          <tspan
                        fill="black"
                        x="10"
                        y="68"
                    >richten-</tspan>
          <tspan
                        fill="black"
                        x="10"
                        y="106"
                    >quelle</tspan>
        </text>
      </g>
      <g id="Graphic_7" filter="url(#Shadow)">
        <path
                    d="M 851.481 181.75 L 958.481 181.75 C 962.8992 181.75 966.481 185.33172 966.481 189.75 L 966.481 292.55 C 929.581 278.7 880.381 334.1 843.481 306.4 L 843.481 189.75 C 843.481 185.33172 847.0627 181.75 851.481 181.75 Z"
                    fill="white"
                />
        <clipPath id="clip_path_2">
          <path
                        d="M 8 0 L 115 0 C 119.41828 0 123 3.581722 123 8 L 123 110.8 C 86.1 96.95 36.9 152.35 0 124.65 L 0 8 C 0 3.581722 3.581722 0 8 0 Z"
                        fill="white"
                    />
        </clipPath>
        <text
                    clip-path="url(#clip_path_2)"
                    transform="translate(848.481 186.75)"
                    fill="black"
                >
          <tspan
                        fill="black"
                        x="34.632"
                        y="30"
                    >Ziel</tspan>
        </text>
      </g>
      <g id="Graphic_11">
        <text transform="translate(357.8864 380.06703)" fill="black">
          <tspan
                        font-size="32"
                        font-style="italic"
                        fill="black"
                        x="17408297e-20"
                        y="34"
                    >K</tspan>
        </text>
      </g>
      <g id="Graphic_16">
        <text transform="translate(435.2031 258)" fill="black">
          <tspan
                        font-style="italic"
                        x="31.36125"
                        y="30"
                    >Y</tspan><tspan
                        y="30"
                    > = E(</tspan><tspan
                        font-style="italic"
                        y="30"
                    >K</tspan><tspan
                        y="30"
                    >,</tspan><tspan
                        font-style="italic"
                        y="30"
                    >X</tspan><tspan
                        y="30"
                    >)</tspan>
        </text>
      </g>
      <g id="Graphic_19">
        <path
                    d="M 288.04574 185 L 399.04574 185 C 405.67316 185 411.04574 190.37258 411.04574 197 L 411.04574 305 C 411.04574 311.6274 405.67316 317 399.04574 317 L 300.04574 317 C 293.41832 317 288.04574 311.6274 288.04574 305 Z"
                    fill="#91a6d2"
                />
        <text transform="translate(293.04574 190)" fill="#344463">
          <tspan
                        font-size="22"
                        fill="#344463"
                        x="0"
                        y="24"
                    >Verschlüs-</tspan>
          <tspan
                        font-size="22"
                        fill="#344463"
                        x="0"
                        y="54"
                    >selungs-</tspan>
          <tspan
                        font-size="22"
                        fill="#344463"
                        x="0"
                        y="84"
                    >algorith-</tspan>
          <tspan
                        font-size="22"
                        fill="#344463"
                        x="0"
                        y="114"
                    >mus</tspan>
        </text>
      </g>
      <g id="Graphic_22">
        <text transform="translate(363.46875 258)" fill="black">
          <tspan
                        font-size="48"
                        fill="black"
                        x="00"
                        y="48"
                    >🔒</tspan>
        </text>
      </g>
      <g id="Graphic_23">
        <path
                    d="M 652.7466 185 L 763.7466 185 C 770.374 185 775.7466 190.37258 775.7466 197 L 775.7466 305 C 775.7466 311.6274 770.374 317 763.7466 317 L 664.7466 317 C 658.11916 317 652.7466 311.6274 652.7466 305 Z"
                    fill="#91a6d2"
                />
        <text transform="translate(657.7466 190)" fill="#344463">
          <tspan
                        font-size="22"
                        fill="#344463"
                        x="0"
                        y="24"
                    >Entschlüs-</tspan>
          <tspan
                        font-size="22"
                        fill="#344463"
                        x="0"
                        y="54"
                    >selungs-</tspan>
          <tspan
                        font-size="22"
                        fill="#344463"
                        x="0"
                        y="84"
                    >algorith-</tspan>
          <tspan
                        font-size="22"
                        fill="#344463"
                        x="0"
                        y="114"
                    >mus</tspan>
        </text>
      </g>
      <g id="Graphic_21">
        <text transform="translate(728.7466 258)" fill="black">
          <tspan
                        font-size="48"
                        fill="black"
                        x="0"
                        y="48"
                    >🔓</tspan>
        </text>
      </g>
      <g id="Graphic_24">
        <text transform="translate(219.79965 258)" fill="black">
          <tspan
                        font-style="italic"
                        fill="black"
                        x="32.681625"
                        y="30"
                    >X</tspan>
        </text>
      </g>
      <g id="Graphic_25">
        <text transform="translate(724.6919 258)" fill="black">
          <tspan
                        font-style="italic"
                        fill="black"
                        x="78.94725"
                        y="30"
                    >X </tspan>
        </text>
      </g>
      <g id="Line_26">
        <line
                    x1="232.22543"
                    y1="251"
                    x2="272.14574"
                    y2="251"
                    marker-end="url(#FilledArrow_Marker)"
                    stroke="black"
                    stroke-linecap="round"
                    stroke-linejoin="round"
                    stroke-width="3"
                />
      </g>
      <g id="Line_27">
        <line
                    x1="414"
                    y1="253"
                    x2="635"
                    y2="253"
                    marker-end="url(#FilledArrow_Marker)"
                    stroke="black"
                    stroke-linecap="round"
                    stroke-linejoin="round"
                    stroke-width="3"
                />
      </g>
      <g id="Line_28">
        <line
                    x1="775.7466"
                    y1="252.5"
                    x2="827.582"
                    y2="251.89836"
                    marker-end="url(#FilledArrow_Marker)"
                    stroke="black"
                    stroke-linecap="round"
                    stroke-linejoin="round"
                    stroke-width="3"
                />
      </g>
      <g id="Graphic_32">
        <path
                    d="M 443.7344 60.375 L 592.7344 60.375 C 598.2572 60.375 602.7344 64.85215 602.7344 70.375 L 602.7344 155.375 C 602.7344 160.89785 598.2572 165.375 592.7344 165.375 L 443.7344 165.375 C 438.21153 165.375 433.7344 160.89785 433.7344 155.375 L 433.7344 70.375 C 433.7344 64.85215 438.21153 60.375 443.7344 60.375 Z"
                    fill="#f7788a"
                />
        <text transform="translate(438.7344 74.875)" fill="white">
          <tspan
                        x="10.858"
                        y="30"
                    >Kryptoana-</tspan>
          <tspan
                        x="40.986"
                        y="68"
                    >lytiker</tspan>
        </text>
      </g>
      <g id="Graphic_33">
        <path
                    d="M 275.04574 448.5265 L 424.04574 448.5265 C 429.5686 448.5265 434.04574 453.00364 434.04574 458.5265 L 434.04574 543.5265 C 434.04574 549.04934 429.5686 553.5265 424.04574 553.5265 L 275.04574 553.5265 C 269.5229 553.5265 265.04574 549.04934 265.04574 543.5265 L 265.04574 458.5265 C 265.04574 453.00364 269.5229 448.5265 275.04574 448.5265 Z"
                    fill="#f7788a"
                />
        <text transform="translate(270.04574 463.0265)" fill="white">
          <tspan
                        x="18.362"
                        y="30"
                    >Schlüssel-</tspan>
          <tspan
                        x="39.292"
                        y="68"
                    >Quelle</tspan>
        </text>
      </g>
      <g id="Group_40">
        <g id="Graphic_42">
          <text transform="translate(716.46875 123.90757)" fill="black">
            <tspan
                            fill="black"
                            x="2.81"
                            y="30"
                        >K</tspan>
          </text>
        </g>
        <g id="Graphic_41">
          <text transform="translate(716.46875 106.90757)" fill="black">
            <tspan
                            fill="black"
                            x="3.468"
                            y="30"
                        >^</tspan>
          </text>
        </g>
      </g>
      <g id="Group_37">
        <g id="Graphic_39">
          <text transform="translate(716.46875 66.53257)" fill="black">
            <tspan
                            fill="black"
                            x="3.216"
                            y="30"
                        >X</tspan>
          </text>
        </g>
        <g id="Graphic_38">
          <text transform="translate(716.46875 49.53257)" fill="black">
            <tspan
                            fill="black"
                            x="3.468"
                            y="30"
                        >^</tspan>
          </text>
        </g>
      </g>
      <g id="Line_43">
        <line
                    x1="520.7957"
                    y1="253"
                    x2="519.4846"
                    y2="181.27234"
                    marker-end="url(#FilledArrow_Marker)"
                    stroke="black"
                    stroke-linecap="round"
                    stroke-linejoin="round"
                    stroke-width="3"
                />
      </g>
      <g id="Line_44">
        <line
                    x1="349.54574"
                    y1="448.5265"
                    x2="349.54574"
                    y2="334.9"
                    marker-end="url(#FilledArrow_Marker)"
                    stroke="black"
                    stroke-linecap="round"
                    stroke-linejoin="round"
                    stroke-width="3"
                />
      </g>
      <g id="Graphic_52">
        <path
                    d="M 421.9873 404 C 421.97494 404 421.96256 404 421.9502 404 L 420.46875 404 L 420.46875 404.05726 C 416.24585 404.38027 412.1178 406.06973 408.8873 409.12565 C 401.66256 415.9598 401.66256 427.0402 408.8873 433.87436 C 412.1178 436.93027 416.24585 438.61973 420.46875 438.94274 L 420.46875 439 L 421.9502 439 C 421.96256 439 421.97494 439 421.9873 439 L 638.96875 439 L 638.96875 404 Z"
                    fill="#7e90b4"
                />
        <path
                    d="M 421.9873 404 C 421.97494 404 421.96256 404 421.9502 404 L 420.46875 404 L 420.46875 404.05726 C 416.24585 404.38027 412.1178 406.06973 408.8873 409.12565 C 401.66256 415.9598 401.66256 427.0402 408.8873 433.87436 C 412.1178 436.93027 416.24585 438.61973 420.46875 438.94274 L 420.46875 439 L 421.9502 439 C 421.96256 439 421.97494 439 421.9873 439 L 638.96875 439 L 638.96875 404 Z"
                    stroke="#344463"
                    stroke-linecap="round"
                    stroke-linejoin="round"
                    stroke-width="3"
                />
      </g>
      <g id="Graphic_46">
        <ellipse
                    cx="638.96875"
                    cy="421.5"
                    rx="18.5000295611851"
                    ry="17.5000279632832"
                    fill="url(#Obj_Gradient)"
                />
        <ellipse
                    cx="638.96875"
                    cy="421.5"
                    rx="18.5000295611851"
                    ry="17.5000279632832"
                    stroke="#344463"
                    stroke-linecap="round"
                    stroke-linejoin="round"
                    stroke-width="3"
                />
      </g>
      <g id="Line_53">
        <line
                    x1="349.54574"
                    y1="421.89927"
                    x2="386.0709"
                    y2="421.8143"
                    marker-end="url(#FilledArrow_Marker)"
                    stroke="black"
                    stroke-linecap="round"
                    stroke-linejoin="round"
                    stroke-width="3"
                />
      </g>
      <g id="Line_54">
        <path
                    d="M 638.96875 422 L 715.0376 422 L 714.6162 330.89983"
                    marker-end="url(#FilledArrow_Marker)"
                    stroke="black"
                    stroke-linecap="round"
                    stroke-linejoin="round"
                    stroke-width="3"
                />
      </g>
      <g id="Graphic_55">
        <text transform="translate(444.59675 371)" fill="black">
          <tspan
                        x="0"
                        y="30"
                    >sicherer Kanal</tspan>
        </text>
      </g>
      <g id="Line_56">
        <line
                    x1="602.7344"
                    y1="86.375"
                    x2="695.5691"
                    y2="85.74801"
                    marker-end="url(#FilledArrow_Marker)"
                    stroke="black"
                    stroke-linecap="round"
                    stroke-linejoin="round"
                    stroke-width="3"
                />
      </g>
      <g id="Line_57">
        <line
                    x1="602.7344"
                    y1="143.375"
                    x2="695.5689"
                    y2="143.02711"
                    marker-end="url(#FilledArrow_Marker)"
                    stroke="black"
                    stroke-linecap="round"
                    stroke-linejoin="round"
                    stroke-width="3"
                />
      </g>
    </g>
  </g>
</svg>
