<?xml version="1.0" encoding="utf-8" standalone="no"?>
<!-- Generator: DataGraph - https://www.visualdatatools.com/DataGraph/index.html  --><!DOCTYPE svg PUBLIC "-//W3C//DTD SVG 1.1//EN" "http://www.w3.org/Graphics/SVG/1.1/DTD/svg11.dtd">
<svg width="603" height="229" viewBox="0 0 1005 382" version="1.1" xmlns="http://www.w3.org/2000/svg" xmlns:xlink="http://www.w3.org/1999/xlink">
<g>
  <!-- Commands -->
  <g id="Commands">
    <!-- (70^x)/2000 -->
    <g id="70_x_2000">
      <path d="M 107.5 320.5 L 208.248 320.4 L 222.984 320.186 L 231.893 319.873 L 238.413 319.459 L 243.546 318.949 
               L 247.937 318.317 L 251.73 317.568 L 254.926 316.741 L 257.868 315.774 L 260.42 314.737 
               L 262.775 313.579 L 265.182 312.154 L 267.432 310.558 L 269.594 308.737 L 271.352 307.014 
               L 273.295 304.815 L 275.114 302.431 L 276.788 299.918 L 278.609 296.788 L 280.283 293.49 
               L 282.05 289.514 L 283.451 285.947 L 285.211 280.879 L 286.696 276.029 L 288.483 269.396 
               L 289.987 263.057 L 291.691 254.915 L 293.379 245.717 L 294.935 236.097 L 296.615 224.32 
               L 298.1 212.541 L 299.824 197.058 L 301.388 181.09 L 303.071 161.598 L 304.761 139.281 
               L 306.364 115.215 L 307.98 87.7272 L 309.504 58.4284 L 310.509 36.5 "
        stroke="rgb(228,28,28)" stroke-dasharray="9.6,6" stroke-linecap="butt" fill="none" stroke-width="3"/>
    </g>
    <!-- (70^x)/643000000000 -->
    <g id="70_x_643000000000">
      <path d="M 107.5 320.5 L 459.828 320.403 L 474.799 320.188 L 483.723 319.876 L 490.483 319.444 
               L 495.743 318.911 L 500.135 318.264 L 503.578 317.577 L 506.879 316.722 L 509.645 315.815 
               L 512.407 314.693 L 514.614 313.605 L 516.921 312.25 L 519.08 310.742 L 521.044 309.132 
               L 522.919 307.347 L 524.869 305.193 L 526.543 303.064 L 528.283 300.538 L 530.056 297.587 
               L 531.515 294.835 L 533.293 291.028 L 534.994 286.861 L 536.555 282.52 L 538.225 277.252 
               L 539.98 270.928 L 541.682 263.913 L 543.447 255.587 L 545.197 246.12 L 546.755 236.545 
               L 548.443 224.763 L 549.995 212.481 L 551.605 198.074 L 553.231 181.581 L 554.672 165.102 
               L 556.016 147.981 L 557.428 127.957 L 559.02 102.575 L 560.477 76.4355 L 562.223 40.9458 
               L 562.415 36.5 "
        stroke="rgb(228,26,28)" stroke-dasharray="0.03,4.5" stroke-linecap="round" fill="none" stroke-width="3"/>
    </g>
    <!-- (10^x)/2000 -->
    <g id="10_x_2000">
      <path d="M 107.5 320.5 L 293.379 320.4 L 320.587 320.186 L 337.193 319.868 L 349.511 319.439 L 359.086 318.911 
               L 366.96 318.285 L 373.567 317.574 L 379.444 316.752 L 384.769 315.809 L 389.578 314.755 
               L 394.042 313.566 L 398.057 312.287 L 401.801 310.883 L 405.406 309.305 L 408.637 307.672 
               L 411.761 305.867 L 414.799 303.867 L 417.623 301.766 L 420.316 299.513 L 422.792 297.205 
               L 425.248 294.665 L 427.764 291.774 L 430.151 288.734 L 432.509 285.414 L 434.872 281.74 
               L 437.228 277.694 L 439.397 273.597 L 441.848 268.492 L 444.217 263.029 L 446.541 257.116 
               L 448.833 250.689 L 451.142 243.552 L 453.419 235.802 L 455.733 227.123 L 457.852 218.402 
               L 459.828 209.536 L 462.116 198.299 L 464.445 185.698 L 466.792 171.679 L 468.964 157.414 
               L 471.162 141.584 L 473.19 125.616 L 475.344 107.097 L 477.582 85.9898 L 479.624 64.9123 
               L 481.644 42.1947 L 482.109 36.5 "
        stroke="rgb(55,126,184)" stroke-dasharray="0.03,4.8,9.6,4.8" stroke-linecap="round" fill="none" stroke-width="3"/>
    </g>
    <!-- (10^x)/643000000000 -->
    <g id="10_x_643000000000">
      <path d="M 107.5 320.5 L 757.981 320.401 L 785.149 320.189 L 801.839 319.871 L 813.98 319.451 L 823.65 318.924 
               L 831.704 318.287 L 838.56 317.545 L 844.316 316.734 L 849.657 315.783 L 854.24 314.778 
               L 858.589 313.627 L 862.78 312.299 L 866.56 310.883 L 870.069 309.35 L 873.142 307.808 
               L 876.02 306.171 L 879.005 304.25 L 881.908 302.135 L 884.623 299.908 L 887.138 297.606 
               L 889.78 294.909 L 892.379 291.947 L 894.643 289.088 L 897.156 285.578 L 899.35 282.196 
               L 901.725 278.162 L 903.971 273.959 L 906.315 269.125 L 908.656 263.798 L 910.871 258.249 
               L 913.109 252.091 L 915.35 245.315 L 917.528 238.086 L 919.812 229.759 L 922.098 220.582 
               L 924.205 211.303 L 926.504 200.191 L 928.574 189.222 L 930.597 177.537 L 932.623 164.797 
               L 934.927 148.917 L 937.2 131.664 L 939.429 113.068 L 941.647 92.7368 L 943.946 69.5644 
               L 946.247 44.0092 L 946.863 36.5 "
        stroke="rgb(55,126,184)" stroke-dasharray="0.03,4.5" stroke-linecap="round" fill="none" stroke-width="3"/>
    </g>
    <!-- Legend -->
    <g id="Legend">
      <defs>
        <clipPath id="clipPath">
          <rect x="425.6" y="52.5" width="539" height="113.4"/>
        </clipPath>
      </defs>
      <g clip-path="url(#clipPath)">
        <rect x="425.6" y="52.5" width="539" height="113.4" fill="white" stroke="none"/>
      </g>
      <rect x="425.6" y="52.5" width="539" height="113.4" stroke="black" fill="none" stroke-width="0.5"/>
      <defs>
        <clipPath id="clipPath2">
          <rect x="425.6" y="52.5" width="539" height="113.4"/>
        </clipPath>
      </defs>
      <g clip-path="url(#clipPath2)">
        <defs>
          <clipPath id="clipPath3">
            <rect x="432.6" y="78.42" width="22" height="18.36"/>
          </clipPath>
        </defs>
        <g clip-path="url(#clipPath3)">
          <path d="M 432.6 87.5 L 454.6 87.5 "
            stroke="rgb(228,28,28)" stroke-dasharray="9.6,6" stroke-dashoffset="9.4" stroke-linecap="butt" fill="none" stroke-width="3"/>
        </g>
        <g font-family="Helvetica" font-size="18" fill="black">
          <text x="461.6" y="94.0556">(70</text>
          <text x="487.616" y="86.0544" font-size="14">x</text>
          <text x="494.616" y="94.0556">)/2000</text>
        </g>
        <defs>
          <clipPath id="clipPath4">
            <rect x="432.6" y="100.02" width="22" height="18.36"/>
          </clipPath>
        </defs>
        <g clip-path="url(#clipPath4)">
          <path d="M 432.6 109.5 L 454.6 109.5 "
            stroke="rgb(228,26,28)" stroke-dasharray="0.03,4.5" stroke-dashoffset="2.605" stroke-linecap="round" fill="none" stroke-width="3"/>
        </g>
        <g font-family="Helvetica" font-size="18" fill="black">
          <text x="461.6" y="115.656">(70</text>
          <text x="487.616" y="107.654" font-size="14">x</text>
          <text x="494.616" y="115.656">)/643000000000</text>
        </g>
        <defs>
          <clipPath id="clipPath5">
            <rect x="432.6" y="121.62" width="22" height="18.36"/>
          </clipPath>
        </defs>
        <g clip-path="url(#clipPath5)">
          <path d="M 432.6 130.5 L 454.6 130.5 "
            stroke="rgb(55,126,184)" stroke-dasharray="0.03,4.8,9.6,4.8" stroke-dashoffset="17.86" stroke-linecap="round" fill="none" stroke-width="3"/>
        </g>
        <g font-family="Helvetica" font-size="18" fill="black">
          <text x="461.6" y="137.256">(10</text>
          <text x="487.616" y="129.254" font-size="14">x</text>
          <text x="494.616" y="137.256">)/2000</text>
        </g>
        <defs>
          <clipPath id="clipPath6">
            <rect x="432.6" y="143.22" width="22" height="18.36"/>
          </clipPath>
        </defs>
        <g clip-path="url(#clipPath6)">
          <path d="M 432.6 152.5 L 454.6 152.5 "
            stroke="rgb(55,126,184)" stroke-dasharray="0.03,4.5" stroke-dashoffset="2.605" stroke-linecap="round" fill="none" stroke-width="3"/>
        </g>
        <g font-family="Helvetica" font-size="18" fill="black">
          <text x="461.6" y="158.856">(10</text>
          <text x="487.616" y="150.854" font-size="14">x</text>
          <text x="494.616" y="158.856">)/643000000000</text>
        </g>
        <g font-family="Helvetica" font-size="18" fill="black">
          <text x="432.6" y="72.4556"># möglicher Zeichen</text>
          <text x="594.679" y="64.4544" font-size="14">^</text>
          <text x="601.248" y="72.4556">
            (Passwortlänge x) / angenommene Hashrate
          </text>
        </g>
      </g>
    </g>
  </g>
  <!-- Foreground -->
  <g id="Foreground">
    <!-- Y Axis -->
    <g id="Y_Axis">
      <g transform="translate(20.7781,178.5) rotate(-90) translate(-20.7781,-178.5)" font-family="Helvetica" font-size="18" fill="black">
        <text x="-19.757" y="178.5">Sekunden</text>
      </g>
      <!-- Y Labels -->
      <g id="Y_Labels">
        <g font-family="Helvetica" font-size="18" fill="black">
          <text x="85.8893" y="326.956">0</text>
        </g>
        <g font-family="Helvetica" font-size="18" fill="black">
          <text x="55.857" y="248.067">1000</text>
        </g>
        <g font-family="Helvetica" font-size="18" fill="black">
          <text x="55.857" y="169.178">2000</text>
        </g>
        <g font-family="Helvetica" font-size="18" fill="black">
          <text x="55.857" y="90.2889">3000</text>
        </g>
      </g>
      <path d="M 99.5 320.5 L 107.5 320.5 M 103.5 312.611 L 107.5 312.611 M 103.5 304.722 L 107.5 304.722 
               M 103.5 296.833 L 107.5 296.833 M 103.5 288.944 L 107.5 288.944 M 103.5 281.056 L 107.5 281.056 
               M 103.5 273.167 L 107.5 273.167 M 103.5 265.278 L 107.5 265.278 M 103.5 257.389 L 107.5 257.389 
               M 103.5 249.5 L 107.5 249.5 M 99.5 241.611 L 107.5 241.611 M 103.5 233.722 L 107.5 233.722 
               M 103.5 225.833 L 107.5 225.833 M 103.5 217.944 L 107.5 217.944 M 103.5 210.056 L 107.5 210.056 
               M 103.5 202.167 L 107.5 202.167 M 103.5 194.278 L 107.5 194.278 M 103.5 186.389 L 107.5 186.389 
               M 103.5 178.5 L 107.5 178.5 M 103.5 170.611 L 107.5 170.611 M 99.5 162.722 L 107.5 162.722 
               M 103.5 154.833 L 107.5 154.833 M 103.5 146.944 L 107.5 146.944 M 103.5 139.056 L 107.5 139.056 
               M 103.5 131.167 L 107.5 131.167 M 103.5 123.278 L 107.5 123.278 M 103.5 115.389 L 107.5 115.389 
               M 103.5 107.5 L 107.5 107.5 M 103.5 99.6111 L 107.5 99.6111 M 103.5 91.7222 L 107.5 91.7222 
               M 99.5 83.8333 L 107.5 83.8333 M 103.5 75.9444 L 107.5 75.9444 M 103.5 68.0556 L 107.5 68.0556 
               M 103.5 60.1667 L 107.5 60.1667 M 103.5 52.2778 L 107.5 52.2778 M 103.5 44.3889 L 107.5 44.3889 
               M 103.5 36.5 L 107.5 36.5 "
        stroke="black" fill="none" stroke-width="0.5"/>
    </g>
    <!-- X Axis -->
    <g id="X_Axis">
      <g font-family="Helvetica" font-size="18" fill="black">
        <text x="505.476" y="372"># Zeichen</text>
      </g>
      <g>
        <g font-family="Helvetica" font-size="18" fill="black">
          <text x="102.495" y="345.284">0</text>
        </g>
        <g font-family="Helvetica" font-size="18" fill="black">
          <text x="157.126" y="345.284">1</text>
        </g>
        <g font-family="Helvetica" font-size="18" fill="black">
          <text x="211.757" y="345.284">2</text>
        </g>
        <g font-family="Helvetica" font-size="18" fill="black">
          <text x="266.388" y="345.284">3</text>
        </g>
        <g font-family="Helvetica" font-size="18" fill="black">
          <text x="321.02" y="345.284">4</text>
        </g>
        <g font-family="Helvetica" font-size="18" fill="black">
          <text x="375.651" y="345.284">5</text>
        </g>
        <g font-family="Helvetica" font-size="18" fill="black">
          <text x="430.282" y="345.284">6</text>
        </g>
        <g font-family="Helvetica" font-size="18" fill="black">
          <text x="484.913" y="345.284">7</text>
        </g>
        <g font-family="Helvetica" font-size="18" fill="black">
          <text x="539.545" y="345.284">8</text>
        </g>
        <g font-family="Helvetica" font-size="18" fill="black">
          <text x="594.176" y="345.284">9</text>
        </g>
        <g font-family="Helvetica" font-size="18" fill="black">
          <text x="643.802" y="345.284">10</text>
        </g>
        <g font-family="Helvetica" font-size="18" fill="black">
          <text x="699.097" y="345.284">11</text>
        </g>
        <g font-family="Helvetica" font-size="18" fill="black">
          <text x="753.064" y="345.284">12</text>
        </g>
        <g font-family="Helvetica" font-size="18" fill="black">
          <text x="807.696" y="345.284">13</text>
        </g>
        <g font-family="Helvetica" font-size="18" fill="black">
          <text x="862.327" y="345.284">14</text>
        </g>
        <g font-family="Helvetica" font-size="18" fill="black">
          <text x="916.958" y="345.284">15</text>
        </g>
        <g font-family="Helvetica" font-size="18" fill="black">
          <text x="971.589" y="345.284">16</text>
        </g>
      </g>
      <path d="M 107.5 328.5 L 107.5 320.5 M 162.131 328.5 L 162.131 320.5 M 216.763 328.5 L 216.763 320.5 
               M 271.394 328.5 L 271.394 320.5 M 326.025 328.5 L 326.025 320.5 M 380.656 328.5 L 380.656 320.5 
               M 435.288 328.5 L 435.288 320.5 M 489.919 328.5 L 489.919 320.5 M 544.55 328.5 L 544.55 320.5 
               M 599.181 328.5 L 599.181 320.5 M 653.812 328.5 L 653.812 320.5 M 708.444 328.5 L 708.444 320.5 
               M 763.075 328.5 L 763.075 320.5 M 817.706 328.5 L 817.706 320.5 M 872.338 328.5 L 872.338 320.5 
               M 926.969 328.5 L 926.969 320.5 M 981.6 328.5 L 981.6 320.5 M 134.816 324.5 L 134.816 320.5 
               M 189.447 324.5 L 189.447 320.5 M 244.078 324.5 L 244.078 320.5 M 298.709 324.5 L 298.709 320.5 
               M 353.341 324.5 L 353.341 320.5 M 407.972 324.5 L 407.972 320.5 M 462.603 324.5 L 462.603 320.5 
               M 517.234 324.5 L 517.234 320.5 M 571.866 324.5 L 571.866 320.5 M 626.497 324.5 L 626.497 320.5 
               M 681.128 324.5 L 681.128 320.5 M 735.759 324.5 L 735.759 320.5 M 790.391 324.5 L 790.391 320.5 
               M 845.022 324.5 L 845.022 320.5 M 899.653 324.5 L 899.653 320.5 M 954.284 324.5 L 954.284 320.5 "
        stroke="black" fill="none" stroke-width="0.5"/>
    </g>
    <g font-family="Helvetica-Bold" font-size="24" fill="black">
      <text x="309.648" y="27.5258">
        Zeit für vollständigen Brute-Force Angriff
      </text>
    </g>
    <path d="M 981.6 320.5 L 981.6 36.5 L 107.5 36.5 L 107.5 320.5 L 981.6 320.5 z "
      stroke="black" stroke-linecap="square" fill="none" stroke-width="0.5"/>
  </g>
  <!-- Zoom -->
  <g id="Zoom">
    <!-- Connection -->
    <g id="Connection">
      <path d="M 409.775 307.799 L 293.5 138.5 "
        stroke="black" fill="none" stroke-width="0.5"/>
      <path d="M 204.416 320.894 L 149.5 223.5 "
        stroke="black" fill="none" stroke-width="0.5"/>
    </g>
    <!-- Source -->
    <g id="Source">
      <defs>
        <clipPath id="clipPath7">
          <rect x="149.5" y="138.5" width="144" height="85"/>
        </clipPath>
      </defs>
      <g clip-path="url(#clipPath7)">
        <rect x="149.5" y="138.5" width="144" height="85" fill="rgb(238,238,238)" stroke="none"/>
      </g>
      <rect x="204.416" y="307.799" width="205.359" height="13.0956" stroke="black" fill="none" stroke-width="0.5"/>
    </g>
    <!-- Destination -->
    <g id="Destination">
      <!-- Content -->
      <g id="Content" transform="translate(149,224)">>
        <!-- Commands -->
        <g id="Commands_2">
          <path d="M 0.5 -3.54051 L 5.76849 -3.92171 L 9.82786 -4.41156 L 13.1452 -5.0125 L 15.9326 -5.71968 
                   L 18.3868 -6.55163 L 20.5472 -7.49685 L 22.5359 -8.59166 L 24.3748 -9.84307 L 26.0764 -11.2518 
                   L 27.6864 -12.8531 L 29.2504 -14.708 L 30.7515 -16.8178 L 32.1911 -19.1993 L 33.6071 -21.9437 
                   L 35.0003 -25.0989 L 36.3953 -28.7864 L 37.7488 -32.9527 L 39.1088 -37.8191 L 40.452 -43.4028 
                   L 41.7857 -49.8337 L 43.1093 -57.2293 L 44.4331 -65.7953 L 45.7487 -75.6499 L 46.8857 -85.5 "
            stroke="rgb(228,28,28)" stroke-dasharray="9.6,6" stroke-linecap="butt" fill="none" stroke-width="3"/>
          <path d="M 0.5 -3.06024 L 144.5 -3.07312 "
            stroke="rgb(228,26,28)" stroke-dasharray="0.03,4.5" stroke-linecap="round" fill="none" stroke-width="3"/>
          <path d="M 0.5 -3.07546 L 38.581 -3.21033 L 54.7173 -3.45613 L 65.3209 -3.80906 L 73.2916 -4.26929 
                   L 79.6793 -4.83521 L 85.0162 -5.50652 L 89.6058 -6.28364 L 93.6616 -7.17351 L 97.2879 -8.17529 
                   L 100.598 -9.30112 L 103.629 -10.5484 L 106.44 -11.9269 L 109.071 -13.4457 L 111.546 -15.1115 
                   L 113.909 -16.951 L 116.175 -18.9778 L 118.339 -21.1888 L 120.446 -23.6368 L 122.498 -26.3384 
                   L 124.509 -29.329 L 126.462 -32.6008 L 128.403 -36.2562 L 130.322 -40.3142 L 132.191 -44.7437 
                   L 134.045 -49.6568 L 135.895 -55.1398 L 137.732 -61.2186 L 139.551 -67.937 L 141.354 -75.3652 
                   L 143.173 -83.7188 L 143.526 -85.5 "
            stroke="rgb(55,126,184)" stroke-dasharray="0.03,4.8,9.6,4.8" stroke-linecap="round" fill="none" stroke-width="3"/>
          <path d="M 0.5 -3.06024 L 144.5 -3.06024 "
            stroke="rgb(55,126,184)" stroke-dasharray="0.03,4.5" stroke-linecap="round" fill="none" stroke-width="3"/>
        </g>
        <g>
          <!-- Y Labels -->
          <g id="Y_Labels_2">
            <g font-family="Helvetica" font-size="16" fill="black">
              <text x="-19.5984" y="2.67804">0</text>
            </g>
            <g font-family="Helvetica" font-size="16" fill="black">
              <text x="-37.3953" y="-48.5268">100</text>
            </g>
          </g>
          <path d="M -7.5 -3.06024 L 0.5 -3.06024 M -3.5 -28.6627 L 0.5 -28.6627 M -7.5 -54.2651 L 0.5 -54.2651 
                   M -3.5 -79.8675 L 0.5 -79.8675 "
            stroke="black" fill="none" stroke-width="0.5"/>
          <g>
            <g font-family="Helvetica" font-size="16" fill="black">
              <text x="4.7084" y="-95.7953">2</text>
            </g>
            <g font-family="Helvetica" font-size="16" fill="black">
              <text x="81.3245" y="-95.7953">4</text>
            </g>
          </g>
          <path d="M 9.15762 -85.5 L 9.15762 -93.5 M 47.4657 -85.5 L 47.4657 -89.5 M 85.7737 -85.5 L 85.7737 -93.5 
                   M 124.082 -85.5 L 124.082 -89.5 "
            stroke="black" fill="none" stroke-width="0.5"/>
        </g>
      </g>
      <rect x="149.5" y="138.5" width="144" height="85" stroke="black" fill="none" stroke-width="0.5"/>
    </g>
  </g>
</g>
</svg>
