<?xml version="1.0" encoding="utf-8" standalone="no"?>
<!-- Generator: DataGraph - https://www.visualdatatools.com/DataGraph/index.html  --><!DOCTYPE svg PUBLIC "-//W3C//DTD SVG 1.1//EN" "http://www.w3.org/Graphics/SVG/1.1/DTD/svg11.dtd">
<svg width="834.5" height="501" version="1.1" xmlns="http://www.w3.org/2000/svg" xmlns:xlink="http://www.w3.org/1999/xlink">
<g>
  <!-- Background -->
  <g id="Background">
    <defs>
      <clipPath id="clipPath">
        <rect x="107.5" y="27.5" width="703.6" height="412"/>
      </clipPath>
    </defs>
    <!-- Grid -->
    <g id="Grid" clip-path="url(#clipPath)">
      <g>
        <path d="M 201.313 439.5 L 201.313 27.5 M 295.127 439.5 L 295.127 27.5 M 388.94 439.5 L 388.94 27.5 
                 M 482.753 439.5 L 482.753 27.5 M 576.567 439.5 L 576.567 27.5 M 670.38 439.5 L 670.38 27.5 
                 M 764.193 439.5 L 764.193 27.5 "
          stroke="black" stroke-dasharray="0.00997506,3.99002" stroke-linecap="round" fill="none" stroke-width="0.5"/>
        <path d="M 154.407 439.5 L 154.407 27.5 M 248.22 439.5 L 248.22 27.5 M 342.033 439.5 L 342.033 27.5 
                 M 435.847 439.5 L 435.847 27.5 M 529.66 439.5 L 529.66 27.5 M 623.473 439.5 L 623.473 27.5 
                 M 717.287 439.5 L 717.287 27.5 "
          stroke="black" stroke-dasharray="0.00976072,1.95214" stroke-dashoffset="0.00488036" stroke-linecap="round" fill="none" stroke-width="0.5"/>
      </g>
    </g>
  </g>
  <!-- Commands -->
  <g id="Commands">
    <!-- {\it "einige Werte des aufsteigend sortierten Arrays a[0]...a[150]"} -->
    <g id="it_einige_Werte_des_aufsteigend_sortierten_Arrays_a_0_a_150">
      <g>
        <path d="M 149.907 416.533 L 158.907 416.533 L 158.907 407.533 L 149.907 407.533 L 149.907 416.533 z "
          fill="rgb(166,206,227)" stroke="none"/>
        <path d="M 149.907 416.533 L 158.907 416.533 L 158.907 407.533 L 149.907 407.533 L 149.907 416.533 z "
          stroke="black" fill="none" stroke-width="2"/>
        <path d="M 243.72 376.02 L 252.72 376.02 L 252.72 367.02 L 243.72 367.02 L 243.72 376.02 z "
          fill="rgb(166,206,227)" stroke="none"/>
        <path d="M 243.72 376.02 L 252.72 376.02 L 252.72 367.02 L 243.72 367.02 L 243.72 376.02 z "
          stroke="black" fill="none" stroke-width="2"/>
        <path d="M 337.533 324.245 L 346.533 324.245 L 346.533 315.245 L 337.533 315.245 L 337.533 324.245 z "
          fill="rgb(166,206,227)" stroke="none"/>
        <path d="M 337.533 324.245 L 346.533 324.245 L 346.533 315.245 L 337.533 315.245 L 337.533 324.245 z "
          stroke="black" fill="none" stroke-width="2"/>
        <path d="M 431.347 236.215 L 440.347 236.215 L 440.347 227.215 L 431.347 227.215 L 431.347 236.215 z "
          fill="rgb(166,206,227)" stroke="none"/>
        <path d="M 431.347 236.215 L 440.347 236.215 L 440.347 227.215 L 431.347 227.215 L 431.347 236.215 z "
          stroke="black" fill="none" stroke-width="2"/>
        <path d="M 525.16 210.671 L 534.16 210.671 L 534.16 201.671 L 525.16 201.671 L 525.16 210.671 z "
          fill="rgb(166,206,227)" stroke="none"/>
        <path d="M 525.16 210.671 L 534.16 210.671 L 534.16 201.671 L 525.16 201.671 L 525.16 210.671 z "
          stroke="black" fill="none" stroke-width="2"/>
        <path d="M 618.973 141.867 L 627.973 141.867 L 627.973 132.867 L 618.973 132.867 L 618.973 141.867 z "
          fill="rgb(166,206,227)" stroke="none"/>
        <path d="M 618.973 141.867 L 627.973 141.867 L 627.973 132.867 L 618.973 132.867 L 618.973 141.867 z "
          stroke="black" fill="none" stroke-width="2"/>
        <path d="M 712.787 99.0187 L 721.787 99.0187 L 721.787 90.0187 L 712.787 90.0187 L 712.787 99.0187 z "
          fill="rgb(166,206,227)" stroke="none"/>
        <path d="M 712.787 99.0187 L 721.787 99.0187 L 721.787 90.0187 L 712.787 90.0187 L 712.787 99.0187 z "
          stroke="black" fill="none" stroke-width="2"/>
      </g>
      <g>
        <g font-family="Helvetica" font-size="18" fill="black">
          <text x="159.407" y="413.489">20.0</text>
        </g>
        <g font-family="Helvetica" font-size="18" fill="black">
          <text x="253.22" y="372.976">49.5</text>
        </g>
        <g font-family="Helvetica" font-size="18" fill="black">
          <text x="347.033" y="321.201">87.2</text>
        </g>
        <g font-family="Helvetica" font-size="18" fill="black">
          <text x="440.847" y="233.17">151.3</text>
        </g>
        <g font-family="Helvetica" font-size="18" fill="black">
          <text x="534.66" y="207.626">169.9</text>
        </g>
        <g font-family="Helvetica" font-size="18" fill="black">
          <text x="628.473" y="138.822">220.0</text>
        </g>
        <g font-family="Helvetica" font-size="18" fill="black">
          <text x="722.287" y="95.9742">251.2</text>
        </g>
      </g>
    </g>
  </g>
  <!-- Foreground -->
  <g id="Foreground">
    <!-- Y Axis -->
    <g id="Y_Axis">
      <g transform="translate(20.7781,233.5) rotate(-90) translate(-20.7781,-233.5)" font-family="Helvetica" font-size="18" fill="black">
        <text x="7.7835" y="233.5">f(x)</text>
      </g>
      <!-- Y Labels -->
      <g id="Y_Labels">
        <g font-family="Helvetica" font-size="18" fill="black">
          <text x="85.8893" y="445.956">0</text>
        </g>
        <g font-family="Helvetica" font-size="18" fill="black">
          <text x="75.8785" y="377.289">50</text>
        </g>
        <g font-family="Helvetica" font-size="18" fill="black">
          <text x="65.8678" y="308.622">100</text>
        </g>
        <g font-family="Helvetica" font-size="18" fill="black">
          <text x="65.8678" y="239.956">150</text>
        </g>
        <g font-family="Helvetica" font-size="18" fill="black">
          <text x="65.8678" y="171.289">200</text>
        </g>
        <g font-family="Helvetica" font-size="18" fill="black">
          <text x="65.8678" y="102.622">250</text>
        </g>
        <g font-family="Helvetica" font-size="18" fill="black">
          <text x="65.8678" y="33.9556">300</text>
        </g>
      </g>
      <path d="M 99.5 439.5 L 107.5 439.5 M 103.5 425.767 L 107.5 425.767 M 103.5 412.033 L 107.5 412.033 
               M 103.5 398.3 L 107.5 398.3 M 103.5 384.567 L 107.5 384.567 M 99.5 370.833 L 107.5 370.833 
               M 103.5 357.1 L 107.5 357.1 M 103.5 343.367 L 107.5 343.367 M 103.5 329.633 L 107.5 329.633 
               M 103.5 315.9 L 107.5 315.9 M 99.5 302.167 L 107.5 302.167 M 103.5 288.433 L 107.5 288.433 
               M 103.5 274.7 L 107.5 274.7 M 103.5 260.967 L 107.5 260.967 M 103.5 247.233 L 107.5 247.233 
               M 99.5 233.5 L 107.5 233.5 M 103.5 219.767 L 107.5 219.767 M 103.5 206.033 L 107.5 206.033 
               M 103.5 192.3 L 107.5 192.3 M 103.5 178.567 L 107.5 178.567 M 99.5 164.833 L 107.5 164.833 
               M 103.5 151.1 L 107.5 151.1 M 103.5 137.367 L 107.5 137.367 M 103.5 123.633 L 107.5 123.633 
               M 103.5 109.9 L 107.5 109.9 M 99.5 96.1667 L 107.5 96.1667 M 103.5 82.4333 L 107.5 82.4333 
               M 103.5 68.7 L 107.5 68.7 M 103.5 54.9667 L 107.5 54.9667 M 103.5 41.2333 L 107.5 41.2333 
               M 99.5 27.5 L 107.5 27.5 "
        stroke="black" fill="none" stroke-width="0.5"/>
    </g>
    <!-- X Axis -->
    <g id="X_Axis">
      <g font-family="Helvetica" font-size="18" fill="black">
        <text x="454.5" y="491">x</text>
      </g>
      <g>
        <g font-family="Helvetica" font-size="18" fill="black">
          <text x="102.495" y="464.284">0</text>
        </g>
        <g font-family="Helvetica" font-size="18" fill="black">
          <text x="191.303" y="464.284">20</text>
        </g>
        <g font-family="Helvetica" font-size="18" fill="black">
          <text x="285.116" y="464.284">40</text>
        </g>
        <g font-family="Helvetica" font-size="18" fill="black">
          <text x="378.929" y="464.284">60</text>
        </g>
        <g font-family="Helvetica" font-size="18" fill="black">
          <text x="472.743" y="464.284">80</text>
        </g>
        <g font-family="Helvetica" font-size="18" fill="black">
          <text x="561.551" y="464.284">100</text>
        </g>
        <g font-family="Helvetica" font-size="18" fill="black">
          <text x="655.364" y="464.284">120</text>
        </g>
        <g font-family="Helvetica" font-size="18" fill="black">
          <text x="749.177" y="464.284">140</text>
        </g>
      </g>
      <path d="M 107.5 447.5 L 107.5 439.5 M 201.313 447.5 L 201.313 439.5 M 295.127 447.5 L 295.127 439.5 
               M 388.94 447.5 L 388.94 439.5 M 482.753 447.5 L 482.753 439.5 M 576.567 447.5 L 576.567 439.5 
               M 670.38 447.5 L 670.38 439.5 M 764.193 447.5 L 764.193 439.5 M 154.407 443.5 L 154.407 439.5 
               M 248.22 443.5 L 248.22 439.5 M 342.033 443.5 L 342.033 439.5 M 435.847 443.5 L 435.847 439.5 
               M 529.66 443.5 L 529.66 439.5 M 623.473 443.5 L 623.473 439.5 M 717.287 443.5 L 717.287 439.5 
               M 811.1 443.5 L 811.1 439.5 "
        stroke="black" fill="none" stroke-width="0.5"/>
    </g>
    <g font-family="Helvetica" font-size="18" fill="black">
      <g font-weight="bold">
        <text x="326.304" y="20.7781" font-family="Helvetica-Bold">Approximation von Funktionen</text>
      </g>
    </g>
    <path d="M 811.1 439.5 L 811.1 27.5 L 107.5 27.5 L 107.5 439.5 L 811.1 439.5 z "
      stroke="black" stroke-linecap="square" fill="none" stroke-width="0.5"/>
  </g>
</g>
</svg>
