<?xml version="1.0" encoding="UTF-8" standalone="no" ?>
<!DOCTYPE svg PUBLIC "-//W3C//DTD SVG 1.1//EN"
    "http://www.w3.org/Graphics/SVG/1.1/DTD/svg11.dtd">
<svg
    xmlns="http://www.w3.org/2000/svg"
    version="1.1"
    xmlns:xl="http://www.w3.org/1999/xlink"
    xmlns:dc="http://purl.org/dc/elements/1.1/"
    viewBox="63 502 634 432"
    width="1268"
    height="864"
>
<style>
  @import url('/LectureDoc2/ext/fonts/ld-fonts.css');
</style>
  <defs>
    <marker
            orient="auto"
            overflow="visible"
            markerUnits="strokeWidth"
            id="FilledArrow_Marker"
            stroke-linejoin="miter"
            stroke-miterlimit="10"
            viewBox="-1 -3 7 6"
            markerWidth="7"
            markerHeight="6"
            color="black"
        >
      <g>
        <path
                    d="M 4.8 0 L 0 -1.8 L 0 1.8 Z"
                    fill="currentColor"
                    stroke="currentColor"
                    stroke-width="1"
                />
      </g>
    </marker>
  </defs>
  <g
        id="double_encryption"
        stroke-dasharray="none"
        stroke="none"
        stroke-opacity="1"
        fill="none"
        fill-opacity="1"
        font-family="Noto Sans Display"
        font-weight="400"
        font-size="28"
    >
    <title>double_encryption</title>
    <rect fill="white" x="63" y="502" width="634" height="432" />
    <g id="double_encryption_Layer_1">
      <title>Layer 1</title>
      <g id="Graphic_23">
        <text transform="translate(68.978415 585.5)" fill="black">
          <tspan font-style="italic" x="12.412" y="30">P</tspan>
        </text>
      </g>
      <g id="Graphic_18">
        <text transform="translate(335.23438 562)" fill="black">
          <tspan font-style="italic" x="32.681625" y="30">X</tspan>
        </text>
      </g>
      <g id="Graphic_13">
        <path
                    d="M 168 780.8357 L 317 780.8357 C 322.52285 780.8357 327 785.31285 327 790.8357 L 327 875.8357 C 327 881.3585 322.52285 885.8357 317 885.8357 L 168 885.8357 C 162.47715 885.8357 158 881.3585 158 875.8357 L 158 790.8357 C 158 785.31285 162.47715 780.8357 168 780.8357 Z"
                    fill="#c0c0ff"
                />
        <text transform="translate(163 814.3357)" fill="black">
          <tspan x="69.882" y="30">D</tspan>
        </text>
      </g>
      <g id="Graphic_12">
        <path
                    d="M 168 550 L 317 550 C 322.52285 550 327 554.47715 327 560 L 327 645 C 327 650.52285 322.52285 655 317 655 L 168 655 C 162.47715 655 158 650.52285 158 645 L 158 560 C 158 554.47715 162.47715 550 168 550 Z"
                    fill="#f7788a"
                />
        <text transform="translate(163 583.5)" fill="black">
          <tspan x="72.178" y="30">E</tspan>
        </text>
      </g>
      <g id="Line_8">
        <line
                    x1="327"
                    y1="833.3357"
                    x2="410.1"
                    y2="833.3357"
                    marker-end="url(#FilledArrow_Marker)"
                    stroke="black"
                    stroke-linecap="round"
                    stroke-linejoin="round"
                    stroke-width="2"
                />
      </g>
      <g id="Graphic_27">
        <path
                    d="M 433 550 L 582 550 C 587.52285 550 592 554.47715 592 560 L 592 645 C 592 650.52285 587.52285 655 582 655 L 433 655 C 427.47715 655 423 650.52285 423 645 L 423 560 C 423 554.47715 427.47715 550 433 550 Z"
                    fill="#f7788a"
                />
        <text transform="translate(428 583.5)" fill="black">
          <tspan x="72.178" y="30">E</tspan>
        </text>
      </g>
      <g id="Graphic_29">
        <path
                    d="M 433 780.8357 L 582 780.8357 C 587.52285 780.8357 592 785.31285 592 790.8357 L 592 875.8357 C 592 881.3585 587.52285 885.8357 582 885.8357 L 433 885.8357 C 427.47715 885.8357 423 881.3585 423 875.8357 L 423 790.8357 C 423 785.31285 427.47715 780.8357 433 780.8357 Z"
                    fill="#c0c0ff"
                />
        <text transform="translate(428 814.3357)" fill="black">
          <tspan x="69.882" y="30">D</tspan>
        </text>
      </g>
      <g id="Line_30">
        <line
                    x1="327"
                    y1="602.5"
                    x2="410.1"
                    y2="602.5"
                    marker-end="url(#FilledArrow_Marker)"
                    stroke="black"
                    stroke-linecap="round"
                    stroke-linejoin="round"
                    stroke-width="2"
                />
      </g>
      <g id="Graphic_31">
        <text transform="translate(335.23438 793.8357)" fill="black">
          <tspan font-style="italic" x="32.681625" y="30">X</tspan>
        </text>
      </g>
      <g id="Graphic_32">
        <text transform="translate(652 816.3357)" fill="black">
          <tspan font-style="italic" x="12.412" y="30">P</tspan>
        </text>
      </g>
      <g id="Graphic_33">
        <text transform="translate(652 585.5)" fill="black">
          <tspan font-style="italic" x="12.174" y="30">C</tspan>
        </text>
      </g>
      <g id="Graphic_34">
        <text transform="translate(68.978415 816.3357)" fill="black">
          <tspan font-style="italic" x="12.174" y="30">C</tspan>
        </text>
      </g>
      <g id="Graphic_35">
        <text transform="translate(239 507)" fill="black">
          <tspan x="34.962" y="30">Verschlüsselung</tspan>
        </text>
      </g>
      <g id="Graphic_36">
        <text transform="translate(239 890.8357)" fill="black">
          <tspan x="35.242" y="30">Entschlüsselung</tspan>
        </text>
      </g>
      <g id="Graphic_37">
        <text transform="translate(222.5 695.6701)" fill="black">
          <tspan font-style="italic" x="7.4995" y="30">K</tspan><tspan
                        font-size="19"
                        font-style="italic"
                        y="40"
                    >1</tspan>
        </text>
      </g>
      <g id="Graphic_38">
        <text transform="translate(487.5 695.6701)" fill="black">
          <tspan font-style="italic" x="7.4995" y="30">K</tspan><tspan
                        font-size="19"
                        font-style="italic"
                        y="40"
                    >2</tspan>
        </text>
      </g>
      <g id="Line_39">
        <line
                    x1="242.5"
                    y1="690.6701"
                    x2="242.5"
                    y2="667.9"
                    marker-end="url(#FilledArrow_Marker)"
                    stroke="black"
                    stroke-linecap="round"
                    stroke-linejoin="round"
                    stroke-width="2"
                />
      </g>
      <g id="Line_40">
        <line
                    x1="267.5"
                    y1="729.4876"
                    x2="411.1608"
                    y2="791.6497"
                    marker-end="url(#FilledArrow_Marker)"
                    stroke="black"
                    stroke-linecap="round"
                    stroke-linejoin="round"
                    stroke-width="2"
                />
      </g>
      <g id="Line_41">
        <line
                    x1="507.5"
                    y1="690.6701"
                    x2="507.5"
                    y2="667.9"
                    marker-end="url(#FilledArrow_Marker)"
                    stroke="black"
                    stroke-linecap="round"
                    stroke-linejoin="round"
                    stroke-width="2"
                />
      </g>
      <g id="Line_63">
        <line
                    x1="113.97841"
                    y1="604.1743"
                    x2="145.1011"
                    y2="603.76886"
                    marker-end="url(#FilledArrow_Marker)"
                    stroke="black"
                    stroke-linecap="round"
                    stroke-linejoin="round"
                    stroke-width="2"
                />
      </g>
      <g id="Line_64">
        <line
                    x1="592"
                    y1="603.52736"
                    x2="634.10095"
                    y2="604.0392"
                    marker-end="url(#FilledArrow_Marker)"
                    stroke="black"
                    stroke-linecap="round"
                    stroke-linejoin="round"
                    stroke-width="2"
                />
      </g>
      <g id="Line_65">
        <line
                    x1="592"
                    y1="834.3631"
                    x2="634.10095"
                    y2="834.8749"
                    marker-end="url(#FilledArrow_Marker)"
                    stroke="black"
                    stroke-linecap="round"
                    stroke-linejoin="round"
                    stroke-width="2"
                />
      </g>
      <g id="Line_66">
        <line
                    x1="113.97841"
                    y1="835.01"
                    x2="145.1011"
                    y2="834.6046"
                    marker-end="url(#FilledArrow_Marker)"
                    stroke="black"
                    stroke-linecap="round"
                    stroke-linejoin="round"
                    stroke-width="2"
                />
      </g>
      <g id="Line_42">
        <path
                    d="M 482.5 729.4876 L 380.9655 773.4216 C 378.3842 767.4561 366.45324 772.6187 369.0345 778.5842 L 338.8392 791.6497"
                    marker-end="url(#FilledArrow_Marker)"
                    stroke="black"
                    stroke-linecap="round"
                    stroke-linejoin="round"
                    stroke-width="2"
                />
      </g>
    </g>
  </g>
</svg>
