<?xml version="1.0" encoding="UTF-8" standalone="no" ?>
<!DOCTYPE svg PUBLIC "-//W3C//DTD SVG 1.1//EN"
    "http://www.w3.org/Graphics/SVG/1.1/DTD/svg11.dtd">
<svg
    xmlns:xl="http://www.w3.org/1999/xlink"
    xmlns:dc="http://purl.org/dc/elements/1.1/"
    xmlns="http://www.w3.org/2000/svg"
    version="1.1"
    viewBox="0 0 265 268"
    width="530"
    height="536"
>
<style>
  @import url('/LectureDoc2/ext/fonts/ld-fonts.css');
</style><defs />
  <metadata> Produced by OmniGraffle 8.0\n2025-06-02 10:37:07 +0000</metadata>
  <g
        id="distribution_3d_bad_lcg"
        stroke="none"
        stroke-opacity="1"
        stroke-dasharray="none"
        fill-opacity="1"
        fill="none"
    >
    <title>distribution_3d_bad_lcg</title>
    <rect fill="white" x="0" y="0" width="265" height="268" />
    <g id="distribution_3d_bad_lcg_Layer_1">
      <title>Layer 1</title>
      <g id="Graphic_2">
        <path
                    d="M 93.13824 265.47997 L 260.60376 225.89584 L 260.79334 226.71916 L 93.32782 266.3033 Z"
                    fill="#336"
                />
      </g>
      <g id="Graphic_3">
        <path
                    d="M 3.2243548 208.07762 L 148.98094 185.5727 L 149.1285 186.3961 L 3.3720477 208.90095 Z"
                    fill="#336"
                />
      </g>
      <g id="Graphic_4">
        <path
                    d="M 3.5197228 208.16213 L 93.4548 266.3033 L 93.01215 267 L 3.0766797 208.85874 Z"
                    fill="#336"
                />
      </g>
      <g id="Graphic_5">
        <path
                    d="M 93.64438 2.0918426 L 93.66584 266.6411 L 92.84314 266.6622 L 92.82168 2.1133044 Z"
                    fill="#336"
                />
      </g>
      <g id="Graphic_6">
        <path
                    d="M 93.26522 1.71179 L 264.56972 5.575808 L 264.54826 6.3994045 L 93.24376 2.5353865 Z"
                    fill="#336"
                />
      </g>
      <g id="Graphic_7">
        <path
                    d="M 260.2872 226.2969 L 264.14764 5.99789 L 264.97034 6.019352 L 261.1099 226.318 Z"
                    fill="#336"
                />
      </g>
      <g id="Graphic_8">
        <path
                    d="M 260.5823 226.71916 L 148.91745 186.375 L 149.19198 185.5938 L 260.85683 225.93804 Z"
                    fill="#336"
                />
      </g>
      <g id="Graphic_9">
        <path
                    d="M 150.24719 9.882476 L 149.48708 186.01606 L 148.66438 185.99495 L 149.42449 9.861014 Z"
                    fill="#336"
                />
      </g>
      <g id="Graphic_10">
        <path
                    d="M 149.8251 10.304558 L .9670278 6.3994045 L .9881176 5.575808 L 149.84568 9.480961 Z"
                    fill="#336"
                />
      </g>
      <g id="Graphic_11">
        <path
                    d="M 2.8868054 207.69766 L .5661912 6.019352 L 1.3889507 5.99789 L 3.709597 207.67656 Z"
                    fill="#336"
                />
      </g>
      <g id="Graphic_12">
        <path
                    d="M .9670278 4.794241 L 93.2223 1.6912224 L 93.24376 2.514819 L .9881176 5.617837 Z"
                    fill="#336"
                />
      </g>
      <g id="Graphic_13">
        <path
                    d="M 150.60578 9.460393 L 263.78905 6.356481 L 263.8105 7.180077 L 150.62635 10.283096 Z"
                    fill="#336"
                />
      </g>
      <g id="Graphic_14">
        <path
                    d="M 50.417544 200.92083 L 43.22364 236.05049 L 43.22364 2.704398 L 50.417544 7.222107 Z"
                    fill="#4c4c4c"
                />
      </g>
      <g id="Graphic_15">
        <path
                    d="M 75.62809 196.42405 L 68.4341 251.37743 L 68.4341 .9096552 L 75.62809 8.129762 Z"
                    fill="#4c4c4c"
                />
      </g>
      <g id="Graphic_16">
        <path
                    d="M 23.413862 205.41761 L 20.71352 219.8368 L 20.71352 4.5197086 L 23.413862 6.3144515 Z"
                    fill="#4c4c4c"
                />
      </g>
      <g id="Graphic_17">
        <path
                    d="M 96.32353 192.814 L 90.9232 264.88884 L 90.9232 .002 L 96.32353 7.222107 Z"
                    fill="#4c4c4c"
                />
      </g>
      <g id="Graphic_18">
        <path
                    d="M 117.94808 189.20394 L 110.73334 262.18657 L 110.73334 .002 L 117.94808 7.222107 Z"
                    fill="#4c4c4c"
                />
      </g>
      <g id="Graphic_19">
        <path
                    d="M 142.25088 186.50163 L 135.9438 256.78205 L 135.9438 1.8182047 L 142.25088 9.924505 Z"
                    fill="#4c4c4c"
                />
      </g>
      <g id="Graphic_20">
        <path
                    d="M 171.0696 191.90625 L 165.64782 248.6752 L 165.64782 2.704398 L 171.0696 9.01685 Z"
                    fill="#4c4c4c"
                />
      </g>
      <g id="Graphic_21">
        <path
                    d="M 196.2586 221.6313 L 192.6727 242.36285 L 192.6727 2.704398 L 198.07302 8.129762 L 198.07302 205.41761 Z"
                    fill="#4c4c4c"
                />
      </g>
      <g id="Graphic_22">
        <path
                    d="M 221.46906 209.02767 L 217.88315 236.05049 L 217.88315 3.6120534 L 221.46906 9.01685 Z"
                    fill="#4c4c4c"
                />
      </g>
      <g id="Graphic_23">
        <path
                    d="M 247.58718 219.8368 L 243.9789 229.73812 L 243.9789 5.406796 L 247.58718 7.222107 Z"
                    fill="#4c4c4c"
                />
      </g>
    </g>
  </g>
</svg>
