<?xml version="1.0" encoding="utf-8" standalone="no" ?>
<!-- Generator: DataGraph - https://www.visualdatatools.com/DataGraph/index.html  -->
<!DOCTYPE svg PUBLIC "-//W3C//DTD SVG 1.1//EN"
    "http://www.w3.org/Graphics/SVG/1.1/DTD/svg11.dtd">
<svg
    viewBox="0 0 433 382"
    width="338"
    height="299"
    version="1.1"
    xmlns="http://www.w3.org/2000/svg"
    xmlns:xlink="http://www.w3.org/1999/xlink"
>
<style>
  @import url('/LectureDoc2/ext/fonts/ld-fonts.css');
</style>
<g>
  <!-- Background -->
  <g id="Background">
    <defs>
      <clipPath id="clipPath">
        <rect x="72.5" y="36.5" width="337.1" height="305" />
      </clipPath>
    </defs>
    <!-- Grid -->
    <g id="Grid" clip-path="url(#clipPath)">
      <path
                    d="M 184.867 341.5 L 184.867 36.5 M 297.233 341.5 L 297.233 36.5 "
                    stroke="black"
                    stroke-dasharray="0.00992301,3.9692"
                    stroke-dashoffset="0.0049615"
                    stroke-linecap="round"
                    fill="none"
                    stroke-width="0.5"
                />
      <path
                    d="M 72.5 257.938 L 409.6 257.938 M 72.5 174.377 L 409.6 174.377 M 72.5 90.8151 L 409.6 90.8151 "
                    stroke="black"
                    stroke-dasharray="0.0100077,4.00309"
                    stroke-dashoffset="0.00500386"
                    stroke-linecap="round"
                    fill="none"
                    stroke-width="0.5"
                />
    </g>
  </g>
  <!-- Commands -->
  <g id="Commands">
    <!-- (99^x)/20/3600/24 -->
    <g id="99_x_20_3600_24">
      <path
                    d="M 72.5 341.495 L 151.544 341.38 L 177.551 341.152 L 194 340.818 L 206.168 340.379 L 215.842 339.835
               L 223.896 339.185 L 230.749 338.436 L 236.775 337.58 L 242.152 336.616 L 247.035 335.537
               L 251.476 334.349 L 255.578 333.043 L 259.405 331.61 L 263.006 330.041 L 266.353 328.361
               L 269.543 326.53 L 272.552 324.57 L 275.465 322.428 L 278.223 320.151 L 280.938 317.644
               L 283.558 314.946 L 286.135 311.995 L 288.604 308.86 L 291.051 305.426 L 293.46 301.69
               L 295.829 297.64 L 298.156 293.263 L 300.426 288.569 L 302.703 283.403 L 304.948 277.817
               L 307.221 271.615 L 309.473 264.873 L 311.7 257.567 L 313.922 249.583 L 316.14 240.858
               L 318.374 231.23 L 320.604 220.699 L 322.8 209.349 L 325.018 196.804 L 327.262 182.894
               L 329.437 168.145 L 331.583 152.239 L 333.797 134.311 L 335.978 114.979 L 338.128 94.1636
               L 340.284 71.3616 L 342.492 45.8411 L 343.23 36.5 "
                    stroke="rgb(228,28,28)"
                    stroke-dasharray="9.6,6"
                    stroke-linecap="butt"
                    fill="none"
                    stroke-width="3"
                />
    </g>
    <!-- No name -->
    <g id="No_name">
      <g>
        <defs>
          <clipPath id="clipPath2">
            <rect x="81.5" y="54.5" width="232" height="70.3063" />
          </clipPath>
        </defs>
        <g clip-path="url(#clipPath2)">
          <rect
                            x="81.5"
                            y="54.5"
                            width="232"
                            height="70.3063"
                            fill="rgb(232,232,232)"
                            stroke="none"
                        />
        </g>
        <g font-family="Noto Sans Display" font-size="18" fill="black">
          <text x="87.5" y="74.8845">Das Testen aller 6 stelligen </text>
        </g>
        <g font-family="Noto Sans Display" font-size="18" fill="black">
          <text x="87.5" y="96.4845">Passwortkandidaten würde</text>
        </g>
        <g font-family="Noto Sans Display" font-size="18" fill="black">
          <text x="87.5" y="118.084">ca. 1500 Jahre dauern.</text>
        </g>
      </g>
    </g>
  </g>
  <!-- Foreground -->
  <g id="Foreground">
    <!-- Y Axis -->
    <g id="Y_Axis">
      <g
                    transform="translate(20.5281,189) rotate(-90) translate(-20.5281,-189)"
                    font-family="Noto Sans Display"
                    font-size="18"
                    fill="black"
                >
        <text x="1.01201" y="189">Tage</text>
      </g>
      <!-- Y Labels -->
      <g id="Y_Labels">
        <g font-family="Noto Sans Display" font-size="18" fill="black">
          <text x="57.2893" y="347.956">0</text>
        </g>
        <g font-family="Noto Sans Display" font-size="18" fill="black">
          <text x="37.2678" y="264.394">100</text>
        </g>
        <g font-family="Noto Sans Display" font-size="18" fill="black">
          <text x="37.2678" y="180.832">200</text>
        </g>
        <g font-family="Noto Sans Display" font-size="18" fill="black">
          <text x="37.2678" y="97.2706">300</text>
        </g>
      </g>
      <path
                    d="M 72.5 341.5 L 80.5 341.5 M 72.5 333.144 L 76.5 333.144 M 72.5 324.788 L 76.5 324.788
               M 72.5 316.432 L 76.5 316.432 M 72.5 308.075 L 76.5 308.075 M 72.5 299.719 L 76.5 299.719
               M 72.5 291.363 L 76.5 291.363 M 72.5 283.007 L 76.5 283.007 M 72.5 274.651 L 76.5 274.651
               M 72.5 266.295 L 76.5 266.295 M 72.5 257.938 L 80.5 257.938 M 72.5 249.582 L 76.5 249.582
               M 72.5 241.226 L 76.5 241.226 M 72.5 232.87 L 76.5 232.87 M 72.5 224.514 L 76.5 224.514
               M 72.5 216.158 L 76.5 216.158 M 72.5 207.801 L 76.5 207.801 M 72.5 199.445 L 76.5 199.445
               M 72.5 191.089 L 76.5 191.089 M 72.5 182.733 L 76.5 182.733 M 72.5 174.377 L 80.5 174.377
               M 72.5 166.021 L 76.5 166.021 M 72.5 157.664 L 76.5 157.664 M 72.5 149.308 L 76.5 149.308
               M 72.5 140.952 L 76.5 140.952 M 72.5 132.596 L 76.5 132.596 M 72.5 124.24 L 76.5 124.24
               M 72.5 115.884 L 76.5 115.884 M 72.5 107.527 L 76.5 107.527 M 72.5 99.1712 L 76.5 99.1712
               M 72.5 90.8151 L 80.5 90.8151 M 72.5 82.4589 L 76.5 82.4589 M 72.5 74.1027 L 76.5 74.1027
               M 72.5 65.7466 L 76.5 65.7466 M 72.5 57.3904 L 76.5 57.3904 M 72.5 49.0342 L 76.5 49.0342
               M 72.5 40.6781 L 76.5 40.6781 "
                    stroke="black"
                    fill="none"
                    stroke-width="0.5"
                />
    </g>
    <!-- X Axis -->
    <g id="X_Axis">
      <g font-family="Noto Sans Display" font-size="18" fill="black">
        <text x="198.975" y="372"># Zeichen </text>
      </g>
      <g>
        <g font-family="Noto Sans Display" font-size="18" fill="black">
          <text x="67.4946" y="362.158">2</text>
        </g>
        <g font-family="Noto Sans Display" font-size="18" fill="black">
          <text x="179.861" y="362.158">3</text>
        </g>
        <g font-family="Noto Sans Display" font-size="18" fill="black">
          <text x="292.228" y="362.158">4</text>
        </g>
        <g font-family="Noto Sans Display" font-size="18" fill="black">
          <text x="404.595" y="362.158">5</text>
        </g>
      </g>
      <path
                    d="M 72.5 341.5 L 72.5 333.5 M 184.867 341.5 L 184.867 333.5 M 297.233 341.5 L 297.233 333.5
               M 409.6 341.5 L 409.6 333.5 "
                    stroke="black"
                    fill="none"
                    stroke-width="0.5"
                />
    </g>
    <g font-family="Noto Sans Display" font-weight="bold" font-size="24" fill="black">
      <text x="91.0148" y="27.5258">LUKS2 Bruteforce (20 H/s)</text>
    </g>
    <path
                d="M 409.6 341.5 L 409.6 36.5 L 72.5 36.5 L 72.5 341.5 L 409.6 341.5 z "
                stroke="black"
                stroke-linecap="square"
                fill="none"
                stroke-width="0.5"
            />
  </g>
</g>
</svg>
