<?xml version="1.0" encoding="UTF-8" standalone="no"?>
<!DOCTYPE svg PUBLIC "-//W3C//DTD SVG 1.1//EN" "http://www.w3.org/Graphics/SVG/1.1/DTD/svg11.dtd">
<svg version="1.1" xmlns="http://www.w3.org/2000/svg" xmlns:dc="http://purl.org/dc/elements/1.1/" xmlns:xl="http://www.w3.org/1999/xlink" viewBox="13 10 339 342" width="339" height="342">
  <style>
    @import url('/LectureDoc2/ext/fonts/ld-fonts.css'); 
  </style>
  <defs>
    <filter id="Shadow" filterUnits="userSpaceOnUse" x="-20.9" y="-24.2">
      <feGaussianBlur in="SourceAlpha" result="blur" stdDeviation="1.308"/>
      <feOffset in="blur" result="offset" dx="0" dy="2"/>
      <feFlood flood-color="black" flood-opacity=".5" result="flood"/>
      <feComposite in="flood" in2="offset" operator="in"/>
    </filter>
    <marker orient="auto" overflow="visible" markerUnits="strokeWidth" id="StickArrow_Marker" stroke-linejoin="miter" stroke-miterlimit="10" viewBox="-1 -4 10 8" markerWidth="10" markerHeight="8" color="black">
      <g>
        <path d="M 8 0 L 0 0 M 0 -3 L 8 0 L 0 3" fill="none" stroke="currentColor" stroke-width="1"/>
      </g>
    </marker>
    <marker orient="auto" overflow="visible" markerUnits="strokeWidth" id="FilledArrow_Marker" stroke-linejoin="miter" stroke-miterlimit="10" viewBox="-1 -4 10 8" markerWidth="10" markerHeight="8" color="black">
      <g>
        <path d="M 8 0 L 0 -3 L 0 3 Z" fill="currentColor" stroke="currentColor" stroke-width="1"/>
      </g>
    </marker>
  </defs>
  <metadata> Produced by OmniGraffle 8.0\n2025-03-23 13:11:40 +0000</metadata>
  <g id="transaktion" stroke-dasharray="none" stroke-opacity="1" fill-opacity="1" fill="none" stroke="none">
    <title>transaktion</title>
    <g id="transaktion_Layer_1">
      <title>Layer 1</title>
      <g id="Graphic_1_shadow" filter="url(#Shadow)">
        <path d="M 38.980472 12.235524 L 129.98047 12.235524 C 140.74447 12.235524 149.48047 22.539524 149.48047 35.235524 C 149.48047 47.931524 140.74447 58.235524 129.98047 58.235524 L 38.980472 58.235524 C 28.216472 58.235524 19.480472 47.931524 19.480472 35.235524 C 19.480472 22.539524 28.216472 12.235524 38.980472 12.235524 Z" fill="white"/>
        <path d="M 38.980472 12.235524 L 129.98047 12.235524 C 140.74447 12.235524 149.48047 22.539524 149.48047 35.235524 C 149.48047 47.931524 140.74447 58.235524 129.98047 58.235524 L 38.980472 58.235524 C 28.216472 58.235524 19.480472 47.931524 19.480472 35.235524 C 19.480472 22.539524 28.216472 12.235524 38.980472 12.235524 Z" stroke="black" stroke-linecap="round" stroke-linejoin="round" stroke-width="1"/>
      </g>
      <g id="Graphic_19_shadow" filter="url(#Shadow)">
        <rect x="17" y="78.5" width="134.96094" height="36" fill="white"/>
        <rect x="17" y="78.5" width="134.96094" height="36" stroke="black" stroke-linecap="round" stroke-linejoin="round" stroke-width="1"/>
      </g>
      <g id="Graphic_21_shadow" filter="url(#Shadow)">
        <path d="M 38.980472 299.7621 L 129.98047 299.7621 C 140.74447 299.7621 149.48047 310.0661 149.48047 322.7621 C 149.48047 335.4581 140.74447 345.7621 129.98047 345.7621 L 38.980472 345.7621 C 28.216472 345.7621 19.480472 335.4581 19.480472 322.7621 C 19.480472 310.0661 28.216472 299.7621 38.980472 299.7621 Z" fill="white"/>
        <path d="M 38.980472 299.7621 L 129.98047 299.7621 C 140.74447 299.7621 149.48047 310.0661 149.48047 322.7621 C 149.48047 335.4581 140.74447 345.7621 129.98047 345.7621 L 38.980472 345.7621 C 28.216472 345.7621 19.480472 335.4581 19.480472 322.7621 C 19.480472 310.0661 28.216472 299.7621 38.980472 299.7621 Z" stroke="black" stroke-linecap="round" stroke-linejoin="round" stroke-width="1"/>
      </g>
      <g id="Graphic_25_shadow" filter="url(#Shadow)">
        <rect x="17" y="134.76448" width="134.96094" height="36" fill="white"/>
        <rect x="17" y="134.76448" width="134.96094" height="36" stroke="black" stroke-linecap="round" stroke-linejoin="round" stroke-width="1"/>
      </g>
      <g id="Graphic_26_shadow" filter="url(#Shadow)">
        <rect x="17" y="247.29343" width="134.96094" height="36" fill="white"/>
        <rect x="17" y="247.29343" width="134.96094" height="36" stroke="black" stroke-linecap="round" stroke-linejoin="round" stroke-width="1"/>
      </g>
      <g id="Graphic_27_shadow" filter="url(#Shadow)">
        <rect x="17" y="191.02895" width="134.96094" height="36" fill="white"/>
        <rect x="17" y="191.02895" width="134.96094" height="36" stroke="black" stroke-linecap="round" stroke-linejoin="round" stroke-width="1"/>
      </g>
      <g id="Graphic_1">
        <path d="M 38.980472 12.235524 L 129.98047 12.235524 C 140.74447 12.235524 149.48047 22.539524 149.48047 35.235524 C 149.48047 47.931524 140.74447 58.235524 129.98047 58.235524 L 38.980472 58.235524 C 28.216472 58.235524 19.480472 47.931524 19.480472 35.235524 C 19.480472 22.539524 28.216472 12.235524 38.980472 12.235524 Z" fill="white"/>
        <path d="M 38.980472 12.235524 L 129.98047 12.235524 C 140.74447 12.235524 149.48047 22.539524 149.48047 35.235524 C 149.48047 47.931524 140.74447 58.235524 129.98047 58.235524 L 38.980472 58.235524 C 28.216472 58.235524 19.480472 47.931524 19.480472 35.235524 C 19.480472 22.539524 28.216472 12.235524 38.980472 12.235524 Z" stroke="black" stroke-linecap="round" stroke-linejoin="round" stroke-width="1"/>
        <text transform="translate(37.480472 16.235524)" fill="black">
          <tspan font-family="Noto Sans Display" font-size="14" font-weight="400" fill="black" x="18.335" y="15" >Auftrags-</tspan>
          <tspan font-family="Noto Sans Display" font-size="14" font-weight="400" fill="black" x="10.628" y="34" >ausf端hrung</tspan>
        </text>
      </g>
      <g id="Graphic_19">
        <rect x="17" y="78.5" width="134.96094" height="36" fill="white"/>
        <rect x="17" y="78.5" width="134.96094" height="36" stroke="black" stroke-linecap="round" stroke-linejoin="round" stroke-width="1"/>
        <text transform="translate(22 77.5)" fill="black">
          <tspan font-family="Noto Sans Display" font-size="14" font-weight="400" fill="black" x="1.3074726" y="15" >Pr端fe Verf端gbarkeit </tspan>
          <tspan font-family="Noto Sans Display" font-size="14" font-weight="400" fill="black" x="17.449473" y="34" >und reserviere</tspan>
        </text>
      </g>
      <g id="Graphic_21">
        <path d="M 38.980472 299.7621 L 129.98047 299.7621 C 140.74447 299.7621 149.48047 310.0661 149.48047 322.7621 C 149.48047 335.4581 140.74447 345.7621 129.98047 345.7621 L 38.980472 345.7621 C 28.216472 345.7621 19.480472 335.4581 19.480472 322.7621 C 19.480472 310.0661 28.216472 299.7621 38.980472 299.7621 Z" fill="white"/>
        <path d="M 38.980472 299.7621 L 129.98047 299.7621 C 140.74447 299.7621 149.48047 310.0661 149.48047 322.7621 C 149.48047 335.4581 140.74447 345.7621 129.98047 345.7621 L 38.980472 345.7621 C 28.216472 345.7621 19.480472 335.4581 19.480472 322.7621 C 19.480472 310.0661 28.216472 299.7621 38.980472 299.7621 Z" stroke="black" stroke-linecap="round" stroke-linejoin="round" stroke-width="1"/>
        <text transform="translate(37.480472 303.7621)" fill="black">
          <tspan font-family="Noto Sans Display" font-size="14" font-weight="400" fill="black" x="10.117" y="15" >Ausf端hrung</tspan>
          <tspan font-family="Noto Sans Display" font-size="14" font-weight="400" fill="black" x="21.219" y="34" >beendet</tspan>
        </text>
      </g>
      <g id="Graphic_25">
        <rect x="17" y="134.76448" width="134.96094" height="36" fill="white"/>
        <rect x="17" y="134.76448" width="134.96094" height="36" stroke="black" stroke-linecap="round" stroke-linejoin="round" stroke-width="1"/>
        <text transform="translate(22 133.76448)" fill="black">
          <tspan font-family="Noto Sans Display" font-size="14" font-weight="400" fill="black" x="2.0354726" y="15" >Buche vom Kunden </tspan>
          <tspan font-family="Noto Sans Display" font-size="14" font-weight="400" fill="black" x="54.71047" y="34" >ab</tspan>
        </text>
      </g>
      <g id="Graphic_26">
        <rect x="17" y="247.29343" width="134.96094" height="36" fill="white"/>
        <rect x="17" y="247.29343" width="134.96094" height="36" stroke="black" stroke-linecap="round" stroke-linejoin="round" stroke-width="1"/>
        <text transform="translate(22 246.29343)" fill="black">
          <tspan font-family="Noto Sans Display" font-size="14" font-weight="400" fill="black" x="24.932473" y="15" >Versand der </tspan>
          <tspan font-family="Noto Sans Display" font-size="14" font-weight="400" fill="black" x="29.510473" y="34" >Bestellung</tspan>
        </text>
      </g>
      <g id="Graphic_27">
        <rect x="17" y="191.02895" width="134.96094" height="36" fill="white"/>
        <rect x="17" y="191.02895" width="134.96094" height="36" stroke="black" stroke-linecap="round" stroke-linejoin="round" stroke-width="1"/>
        <text transform="translate(22 190.02895)" fill="black">
          <tspan font-family="Noto Sans Display" font-size="14" font-weight="400" fill="black" x="16.854473" y="15" >Kundenbonus-</tspan>
          <tspan font-family="Noto Sans Display" font-size="14" font-weight="400" fill="black" x="31.610473" y="34" >Gutschrift</tspan>
        </text>
      </g>
      <g id="Graphic_28">
        <path d="M 221 96.5 L 253.5 71.5 L 318.5 71.5 L 351 96.5 L 318.5 121.5 L 253.5 121.5 Z" fill="white"/>
        <path d="M 221 96.5 L 253.5 71.5 L 318.5 71.5 L 351 96.5 L 318.5 121.5 L 253.5 121.5 Z" stroke="black" stroke-linecap="round" stroke-linejoin="round" stroke-width="1"/>
        <text transform="translate(255.5 77.5)" fill="black">
          <tspan font-family="Noto Sans Display" font-size="14" font-weight="400" fill="black" x=".673" y="15" >Warenver</tspan>
          <tspan font-family="Noto Sans Display" font-size="14" font-weight="400" fill="black" x="3.109" y="34" >-waltung</tspan>
        </text>
      </g>
      <g id="Graphic_29">
        <path d="M 221 152.76448 L 253.5 127.76448 L 318.5 127.76448 L 351 152.76448 L 318.5 177.76448 L 253.5 177.76448 Z" fill="white"/>
        <path d="M 221 152.76448 L 253.5 127.76448 L 318.5 127.76448 L 351 152.76448 L 318.5 177.76448 L 253.5 177.76448 Z" stroke="black" stroke-linecap="round" stroke-linejoin="round" stroke-width="1"/>
        <text transform="translate(255.5 133.76448)" fill="black">
          <tspan font-family="Noto Sans Display" font-size="14" font-weight="400" fill="black" x="1.821" y="15" >Zahlungs</tspan>
          <tspan font-family="Noto Sans Display" font-size="14" font-weight="400" fill="black" x="1.562" y="34" >-Gateway</tspan>
        </text>
      </g>
      <g id="Graphic_30">
        <path d="M 221 209.02895 L 253.5 184.02895 L 318.5 184.02895 L 351 209.02895 L 318.5 234.02895 L 253.5 234.02895 Z" fill="white"/>
        <path d="M 221 209.02895 L 253.5 184.02895 L 318.5 184.02895 L 351 209.02895 L 318.5 234.02895 L 253.5 234.02895 Z" stroke="black" stroke-linecap="round" stroke-linejoin="round" stroke-width="1"/>
        <text transform="translate(255.5 190.02895)" fill="black">
          <tspan font-family="Noto Sans Display" font-size="14" font-weight="400" fill="black" x="4.25" y="15" >Kunden-</tspan>
          <tspan font-family="Noto Sans Display" font-size="14" font-weight="400" fill="black" x="11.124" y="34" >bonus</tspan>
        </text>
      </g>
      <g id="Graphic_31">
        <path d="M 221 265.29343 L 253.5 240.29343 L 318.5 240.29343 L 351 265.29343 L 318.5 290.29343 L 253.5 290.29343 Z" fill="white"/>
        <path d="M 221 265.29343 L 253.5 240.29343 L 318.5 240.29343 L 351 265.29343 L 318.5 290.29343 L 253.5 290.29343 Z" stroke="black" stroke-linecap="round" stroke-linejoin="round" stroke-width="1"/>
        <text transform="translate(255.5 246.29343)" fill="black">
          <tspan font-family="Noto Sans Display" font-size="14" font-weight="400" fill="black" x=".673" y="15" >Warenver</tspan>
          <tspan font-family="Noto Sans Display" font-size="14" font-weight="400" fill="black" x="3.109" y="34" >-waltung</tspan>
        </text>
      </g>
      <g id="Line_32">
        <line x1="151.96094" y1="96.5" x2="211.1" y2="96.5" marker-end="url(#StickArrow_Marker)" stroke="black" stroke-linecap="round" stroke-linejoin="round" stroke-dasharray="8.0,5.0" stroke-width="1"/>
      </g>
      <g id="Graphic_33">
        <text transform="translate(156.96095 75.2958)" fill="black">
          <tspan font-family="Noto Sans Display" font-size="14" font-weight="400" fill="black" x="0" y="15" >bearbeitet</tspan>
          <tspan font-family="Noto Sans Display" font-size="14" font-weight="400" fill="black" x="20.832" y="34" >von</tspan>
        </text>
      </g>
      <g id="Line_34">
        <line x1="151.96094" y1="152.77214" x2="211.10483" y2="152.76876" marker-end="url(#StickArrow_Marker)" stroke="black" stroke-linecap="round" stroke-linejoin="round" stroke-dasharray="8.0,5.0" stroke-width="1"/>
      </g>
      <g id="Line_35">
        <line x1="151.96094" y1="209.02895" x2="211.1" y2="209.02895" marker-end="url(#StickArrow_Marker)" stroke="black" stroke-linecap="round" stroke-linejoin="round" stroke-dasharray="8.0,5.0" stroke-width="1"/>
      </g>
      <g id="Line_36">
        <line x1="151.96094" y1="265.29343" x2="211.1" y2="265.29343" marker-end="url(#StickArrow_Marker)" stroke="black" stroke-linecap="round" stroke-linejoin="round" stroke-dasharray="8.0,5.0" stroke-width="1"/>
      </g>
      <g id="Line_37">
        <line x1="84.48047" y1="58.235524" x2="84.48047" y2="68.6" marker-end="url(#FilledArrow_Marker)" stroke="black" stroke-linecap="round" stroke-linejoin="round" stroke-width="1"/>
      </g>
      <g id="Line_38">
        <line x1="84.48047" y1="114.5" x2="84.48047" y2="124.86448" marker-end="url(#FilledArrow_Marker)" stroke="black" stroke-linecap="round" stroke-linejoin="round" stroke-width="1"/>
      </g>
      <g id="Line_39">
        <line x1="84.48047" y1="170.77214" x2="84.48047" y2="181.12895" marker-end="url(#FilledArrow_Marker)" stroke="black" stroke-linecap="round" stroke-linejoin="round" stroke-width="1"/>
      </g>
      <g id="Line_40">
        <line x1="84.48047" y1="227.02895" x2="84.48047" y2="237.39343" marker-end="url(#FilledArrow_Marker)" stroke="black" stroke-linecap="round" stroke-linejoin="round" stroke-width="1"/>
      </g>
      <g id="Line_41">
        <line x1="84.48047" y1="283.29343" x2="84.48047" y2="289.8621" marker-end="url(#FilledArrow_Marker)" stroke="black" stroke-linecap="round" stroke-linejoin="round" stroke-width="1"/>
      </g>
    </g>
  </g>
</svg>
