<?xml version="1.0" encoding="UTF-8" standalone="no"?>
<!DOCTYPE svg PUBLIC "-//W3C//DTD SVG 1.1//EN" "http://www.w3.org/Graphics/SVG/1.1/DTD/svg11.dtd">
<svg xmlns:dc="http://purl.org/dc/elements/1.1/" version="1.1" xmlns:xl="http://www.w3.org/1999/xlink" xmlns="http://www.w3.org/2000/svg" viewBox="-71 -242 226 194" width="226" height="194">
  <style>
    @import url('/LectureDoc2/ext/fonts/ld-fonts.css'); 
  </style>
  <metadata> Produced by OmniGraffle 8.0\n2025-02-09 08:52:50 +0000</metadata>
  <g id="multiprocessor" stroke-opacity="1" stroke-dasharray="none" fill="none" fill-opacity="1" stroke="none">
    <title>multiprocessor</title>
    <rect fill="white" x="-71" y="-242" width="226" height="194"/>
    <g id="multiprocessor_Layer_1">
      <title>Layer 1</title>
      <g id="Graphic_114">
        <path d="M -51.2 -196.8 L -14.2 -196.8 C -11.990861 -196.8 -10.2 -195.00914 -10.2 -192.8 L -10.2 -155.8 C -10.2 -153.59086 -11.990861 -151.8 -14.2 -151.8 L -51.2 -151.8 C -53.40914 -151.8 -55.2 -153.59086 -55.2 -155.8 L -55.2 -192.8 C -55.2 -195.00914 -53.40914 -196.8 -51.2 -196.8 Z" fill="#727272"/>
        <text transform="translate(-50.2 -183.8)" fill="white">
          <tspan font-family="Noto Sans Display" font-size="14" font-weight="400" fill="white" x="11.508" y="15" xml:space="preserve">M</tspan>
        </text>
      </g>
      <g id="Graphic_115">
        <path d="M -66.1 -93 L -29.1 -93 C -26.89086 -93 -25.1 -91.20914 -25.1 -89 L -25.1 -52 C -25.1 -49.79086 -26.89086 -48 -29.1 -48 L -66.1 -48 C -68.30914 -48 -70.1 -49.79086 -70.1 -52 L -70.1 -89 C -70.1 -91.20914 -68.30914 -93 -66.1 -93 Z" fill="#dadada"/>
        <text transform="translate(-65.1 -80)" fill="black">
          <tspan font-family="Noto Sans Display" font-size="14" font-weight="400" fill="black" x="13.503" y="15" xml:space="preserve">P</tspan>
        </text>
      </g>
      <g id="Graphic_116">
        <path d="M 23.4 -196.8 L 60.4 -196.8 C 62.60914 -196.8 64.4 -195.00914 64.4 -192.8 L 64.4 -155.8 C 64.4 -153.59086 62.60914 -151.8 60.4 -151.8 L 23.4 -151.8 C 21.190861 -151.8 19.4 -153.59086 19.4 -155.8 L 19.4 -192.8 C 19.4 -195.00914 21.190861 -196.8 23.4 -196.8 Z" fill="#727272"/>
        <text transform="translate(24.4 -183.8)" fill="white">
          <tspan font-family="Noto Sans Display" font-size="14" font-weight="400" fill="white" x="11.508" y="15" xml:space="preserve">M</tspan>
        </text>
      </g>
      <g id="Graphic_117">
        <path d="M 98 -196.8 L 135 -196.8 C 137.20914 -196.8 139 -195.00914 139 -192.8 L 139 -155.8 C 139 -153.59086 137.20914 -151.8 135 -151.8 L 98 -151.8 C 95.79086 -151.8 94 -153.59086 94 -155.8 L 94 -192.8 C 94 -195.00914 95.79086 -196.8 98 -196.8 Z" fill="#727272"/>
        <text transform="translate(99 -183.8)" fill="white">
          <tspan font-family="Noto Sans Display" font-size="14" font-weight="400" fill="white" x="11.508" y="15" xml:space="preserve">M</tspan>
        </text>
      </g>
      <g id="Graphic_118">
        <path d="M 112.9 -93 L 149.9 -93 C 152.10914 -93 153.9 -91.20914 153.9 -89 L 153.9 -52 C 153.9 -49.79086 152.10914 -48 149.9 -48 L 112.9 -48 C 110.69086 -48 108.9 -49.79086 108.9 -52 L 108.9 -89 C 108.9 -91.20914 110.69086 -93 112.9 -93 Z" fill="#dadada"/>
        <text transform="translate(113.9 -80)" fill="black">
          <tspan font-family="Noto Sans Display" font-size="14" font-weight="400" fill="black" x="13.503" y="15" xml:space="preserve">P</tspan>
        </text>
      </g>
      <g id="Graphic_119">
        <path d="M 53.233334 -93 L 90.23333 -93 C 92.44247 -93 94.23333 -91.20914 94.23333 -89 L 94.23333 -52 C 94.23333 -49.79086 92.44247 -48 90.23333 -48 L 53.233334 -48 C 51.024195 -48 49.233334 -49.79086 49.233334 -52 L 49.233334 -89 C 49.233334 -91.20914 51.024195 -93 53.233334 -93 Z" fill="#dadada"/>
        <text transform="translate(54.233334 -80)" fill="black">
          <tspan font-family="Noto Sans Display" font-size="14" font-weight="400" fill="black" x="13.503" y="15" xml:space="preserve">P</tspan>
        </text>
      </g>
      <g id="Graphic_120">
        <path d="M -6.4333335 -93 L 30.566667 -93 C 32.775806 -93 34.566667 -91.20914 34.566667 -89 L 34.566667 -52 C 34.566667 -49.79086 32.775806 -48 30.566667 -48 L -6.4333335 -48 C -8.642472 -48 -10.433333 -49.79086 -10.433333 -52 L -10.433333 -89 C -10.433333 -91.20914 -8.642472 -93 -6.4333335 -93 Z" fill="#dadada"/>
        <text transform="translate(-5.4333335 -80)" fill="black">
          <tspan font-family="Noto Sans Display" font-size="14" font-weight="400" fill="black" x="13.503" y="15" xml:space="preserve">P</tspan>
        </text>
      </g>
      <g id="Graphic_121">
        <text transform="translate(-55.239 -236.6)" fill="black">
          <tspan font-family="Noto Sans Display" font-size="14" font-weight="400" fill="black" x="0" y="15" xml:space="preserve">gemeinsam genutzter Speicher</tspan>
          <tspan font-family="Noto Sans Display" font-size="14" font-weight="400" fill="#666" x="46.844" y="34" xml:space="preserve">(</tspan>
          <tspan font-family="Noto Sans Display" font-size="14" font-style="italic" font-weight="400" fill="#666" y="34" xml:space="preserve">shared Memory</tspan>
          <tspan font-family="Noto Sans Display" font-size="14" font-weight="400" fill="#666" y="34" xml:space="preserve">)</tspan>
        </text>
      </g>
      <g id="Graphic_124">
        <rect x="-70.1" y="-130.3" width="224" height="15.8" fill="white"/>
        <rect x="-70.1" y="-130.3" width="224" height="15.8" stroke="black" stroke-linecap="round" stroke-linejoin="round" stroke-width="1"/>
        <text transform="translate(-65.1 -131.9)" fill="black">
          <tspan font-family="Noto Sans Display" font-size="14" font-weight="400" fill="black" x="67.254" y="15" xml:space="preserve">Interconnect</tspan>
        </text>
      </g>
      <g id="Line_125">
        <line x1="-48.1" y1="-92.62227" x2="-48.1" y2="-114.5" stroke="black" stroke-linecap="round" stroke-linejoin="round" stroke-width="1"/>
      </g>
      <g id="Line_129">
        <path d="M 116.5 -151.8 L 116.5 -151.3 L 116.53334 -141.05 L 116.56667 -140.3 L 116.56667 -130.3" stroke="black" stroke-linecap="round" stroke-linejoin="round" stroke-width="1"/>
      </g>
      <g id="Line_130">
        <line x1="41.9" y1="-151.8" x2="41.9" y2="-130.3" stroke="black" stroke-linecap="round" stroke-linejoin="round" stroke-width="1"/>
      </g>
      <g id="Line_131">
        <path d="M -32.7 -151.8 L -32.7 -151.3 L -32.733334 -141.05 L -32.766667 -140.3 L -32.766667 -130.3" stroke="black" stroke-linecap="round" stroke-linejoin="round" stroke-width="1"/>
      </g>
      <g id="Line_132">
        <line x1="11.566667" y1="-92.62227" x2="11.566667" y2="-114.5" stroke="black" stroke-linecap="round" stroke-linejoin="round" stroke-width="1"/>
      </g>
      <g id="Line_133">
        <line x1="71.28994" y1="-92.56567" x2="71.28994" y2="-114.4434" stroke="black" stroke-linecap="round" stroke-linejoin="round" stroke-width="1"/>
      </g>
      <g id="Line_134">
        <line x1="131.01321" y1="-92.50907" x2="131.01321" y2="-114.3868" stroke="black" stroke-linecap="round" stroke-linejoin="round" stroke-width="1"/>
      </g>
    </g>
  </g>
</svg>
