<?xml version="1.0" encoding="utf-8" standalone="no"?>
<!-- Generator: DataGraph - https://www.visualdatatools.com/DataGraph/index.html  --><!DOCTYPE svg PUBLIC "-//W3C//DTD SVG 1.1//EN" "http://www.w3.org/Graphics/SVG/1.1/DTD/svg11.dtd">
<svg width="763" height="476.5" version="1.1" xmlns="http://www.w3.org/2000/svg" xmlns:xlink="http://www.w3.org/1999/xlink">
<g>
  <!-- Commands -->
  <g id="Commands">
    <!-- Legend -->
    <g id="Legend">
      <defs>
        <clipPath id="clipPath">
          <rect x="409.4" y="20" width="328" height="46.8"/>
        </clipPath>
      </defs>
      <g clip-path="url(#clipPath)">
        <rect x="409.4" y="20" width="328" height="46.8" fill="white" stroke="none"/>
      </g>
      <rect x="409.4" y="20" width="328" height="46.8" stroke="black" fill="none" stroke-width="0.5"/>
      <defs>
        <clipPath id="clipPath2">
          <rect x="409.4" y="20" width="328" height="46.8"/>
        </clipPath>
      </defs>
      <g clip-path="url(#clipPath2)">
        <defs>
          <clipPath id="clipPath3">
            <rect x="414.4" y="22.88" width="14" height="12.24"/>
          </clipPath>
        </defs>
        <g clip-path="url(#clipPath3)">
          <path d="M 414.4 29 L 428.4 29 "
            stroke="black" fill="none" stroke-width="2"/>
        </g>
        <g font-family="Helvetica" font-size="12" fill="black">
          <text x="433.4" y="33.3037">
            1/((1-0.5)+(0.5/x)) (50% können parallelisiert werden)
          </text>
        </g>
        <defs>
          <clipPath id="clipPath4">
            <rect x="414.4" y="37.28" width="14" height="12.24"/>
          </clipPath>
        </defs>
        <g clip-path="url(#clipPath4)">
          <path d="M 414.4 43 L 428.4 43 "
            stroke="rgb(228,28,28)" stroke-dasharray="0.02,4" stroke-dashoffset="1.05" stroke-linecap="round" fill="none" stroke-width="2"/>
        </g>
        <g font-family="Helvetica" font-size="12" fill="black">
          <text x="433.4" y="47.7037">
            1/((1-0.99)+(0.99/x)) (99% können parallelisiert werden)
          </text>
        </g>
        <defs>
          <clipPath id="clipPath5">
            <rect x="414.4" y="51.68" width="14" height="12.24"/>
          </clipPath>
        </defs>
        <g clip-path="url(#clipPath5)">
          <path d="M 414.4 58 L 428.4 58 "
            stroke="rgb(55,126,184)" stroke-dasharray="0.02,3" stroke-dashoffset="2.07" stroke-linecap="round" fill="none" stroke-width="2"/>
        </g>
        <g font-family="Helvetica" font-size="12" fill="black">
          <text x="433.4" y="62.1037">
            1/((1-0.90)+(0.90/x)) (90% können parallelisiert werden)
          </text>
        </g>
      </g>
    </g>
    <!-- 1/((1-0.5)+(0.5/x)) (50% können parallelisiert werden) -->
    <g id="1_1_0_5_0_5_x_50_k_nnen_parallelisiert_werden">
      <path d="M 74.5 432 L 75.3389 425.763 L 76.3158 420.043 L 77.3679 415.185 L 78.3923 411.38 L 79.5102 407.986 
               L 80.6049 405.235 L 81.8435 402.638 L 83.2512 400.192 L 84.5516 398.296 L 86.2057 396.272 
               L 87.707 394.725 L 89.478 393.176 L 91.3695 391.777 L 93.5014 390.448 L 96.0729 389.111 
               L 98.6726 387.986 L 101.835 386.848 L 105.426 385.788 L 109.521 384.802 L 114.168 383.894 
               L 119.666 383.029 L 126.157 382.218 L 133.685 381.477 L 142.903 380.773 L 154.401 380.104 
               L 168.509 379.492 L 186.418 378.924 L 209.42 378.406 L 239.586 377.937 L 280.403 377.514 
               L 337.265 377.138 L 419.556 376.81 L 544.346 376.528 L 746.263 376.291 L 747.4 376.29 "
        stroke="black" fill="none" stroke-width="2"/>
    </g>
    <!-- 1/((1-0.99)+(0.99/x)) (99% können parallelisiert werden) -->
    <g id="1_1_0_99_0_99_x_99_k_nnen_parallelisiert_werden">
      <path d="M 74.5 432 L 82.8613 397.127 L 91.075 363.701 L 99.4486 330.442 L 107.887 297.73 L 116.436 265.389 
               L 124.985 233.813 L 133.685 202.448 L 142.536 171.298 L 151.39 140.882 L 160.405 110.651 
               L 169.335 81.4085 L 178.314 52.6908 L 187.318 24.557 L 192.085 10 "
        stroke="rgb(228,28,28)" stroke-dasharray="0.02,4" stroke-linecap="round" fill="none" stroke-width="2"/>
    </g>
    <!-- 1/((1-0.90)+(0.90/x)) (90% können parallelisiert werden) -->
    <g id="1_1_0_90_0_90_x_90_k_nnen_parallelisiert_werden">
      <path d="M 74.5 432 L 76.9755 420.952 L 79.5102 410.504 L 82.194 400.287 L 84.8894 390.804 L 87.707 381.632 
               L 90.6856 372.668 L 93.5014 364.811 L 96.5287 356.961 L 99.4486 349.917 L 102.616 342.8 
               L 105.737 336.268 L 109.015 329.87 L 112.45 323.62 L 115.79 317.949 L 119.322 312.342 
               L 122.995 306.897 L 126.787 301.647 L 130.652 296.648 L 134.577 291.898 L 138.673 287.26 
               L 142.903 282.78 L 147.386 278.341 L 151.881 274.181 L 156.572 270.119 L 161.331 266.262 
               L 166.346 262.458 L 171.599 258.734 L 176.986 255.163 L 182.611 251.678 L 188.481 248.281 
               L 194.508 245.023 L 200.853 241.82 L 207.512 238.684 L 214.584 235.582 L 221.864 232.609 
               L 229.553 229.687 L 237.543 226.863 L 246.142 224.041 L 254.913 221.371 L 264.478 218.671 
               L 274.41 216.078 L 285.029 213.516 L 296.208 211.027 L 308.127 208.581 L 320.698 206.208 
               L 334.091 203.885 L 348.506 201.592 L 363.873 199.355 L 380.249 197.179 L 397.882 195.043 
               L 416.381 193.003 L 436.47 190.99 L 458.179 189.019 L 481.592 187.099 L 506.809 185.235 
               L 534.215 183.414 L 563.614 181.663 L 595.786 179.949 L 630.734 178.29 L 669.059 176.674 
               L 711.107 175.105 L 747.4 173.896 "
        stroke="rgb(55,126,184)" stroke-dasharray="0.02,3" stroke-linecap="round" fill="none" stroke-width="2"/>
    </g>
  </g>
  <!-- Foreground -->
  <g id="Foreground">
    <!-- Y Axis -->
    <g id="Y_Axis">
      <g transform="translate(14.0188,221) rotate(-90) translate(-14.0188,-221)" font-family="Helvetica" font-size="12" fill="black">
        <text x="-10.0047" y="221">Speedup</text>
      </g>
      <!-- Y Labels -->
      <g id="Y_Labels">
        <g font-family="Helvetica" font-size="12" fill="black">
          <text x="57.4262" y="436.304">0</text>
        </g>
        <g font-family="Helvetica" font-size="12" fill="black">
          <text x="57.4262" y="408.17">1</text>
        </g>
        <g font-family="Helvetica" font-size="12" fill="black">
          <text x="57.4262" y="380.037">2</text>
        </g>
        <g font-family="Helvetica" font-size="12" fill="black">
          <text x="57.4262" y="351.904">3</text>
        </g>
        <g font-family="Helvetica" font-size="12" fill="black">
          <text x="57.4262" y="323.77">4</text>
        </g>
        <g font-family="Helvetica" font-size="12" fill="black">
          <text x="57.4262" y="295.637">5</text>
        </g>
        <g font-family="Helvetica" font-size="12" fill="black">
          <text x="57.4262" y="267.504">6</text>
        </g>
        <g font-family="Helvetica" font-size="12" fill="black">
          <text x="57.4262" y="239.37">7</text>
        </g>
        <g font-family="Helvetica" font-size="12" fill="black">
          <text x="57.4262" y="211.237">8</text>
        </g>
        <g font-family="Helvetica" font-size="12" fill="black">
          <text x="57.4262" y="183.104">9</text>
        </g>
        <g font-family="Helvetica" font-size="12" fill="black">
          <text x="50.7523" y="154.97">10</text>
        </g>
        <g font-family="Helvetica" font-size="12" fill="black">
          <text x="51.6371" y="126.837">11</text>
        </g>
        <g font-family="Helvetica" font-size="12" fill="black">
          <text x="50.7523" y="98.7037">12</text>
        </g>
        <g font-family="Helvetica" font-size="12" fill="black">
          <text x="50.7523" y="70.5704">13</text>
        </g>
        <g font-family="Helvetica" font-size="12" fill="black">
          <text x="50.7523" y="42.437">14</text>
        </g>
        <g font-family="Helvetica" font-size="12" fill="black">
          <text x="50.7523" y="14.3037">15</text>
        </g>
      </g>
      <path d="M 66.5 432 L 74.5 432 M 70.5 417.933 L 74.5 417.933 M 66.5 403.867 L 74.5 403.867 M 70.5 389.8 L 74.5 389.8 
               M 66.5 375.733 L 74.5 375.733 M 70.5 361.667 L 74.5 361.667 M 66.5 347.6 L 74.5 347.6 
               M 70.5 333.533 L 74.5 333.533 M 66.5 319.467 L 74.5 319.467 M 70.5 305.4 L 74.5 305.4 
               M 66.5 291.333 L 74.5 291.333 M 70.5 277.267 L 74.5 277.267 M 66.5 263.2 L 74.5 263.2 
               M 70.5 249.133 L 74.5 249.133 M 66.5 235.067 L 74.5 235.067 M 70.5 221 L 74.5 221 M 66.5 206.933 L 74.5 206.933 
               M 70.5 192.867 L 74.5 192.867 M 66.5 178.8 L 74.5 178.8 M 70.5 164.733 L 74.5 164.733 
               M 66.5 150.667 L 74.5 150.667 M 70.5 136.6 L 74.5 136.6 M 66.5 122.533 L 74.5 122.533 
               M 70.5 108.467 L 74.5 108.467 M 66.5 94.4 L 74.5 94.4 M 70.5 80.3333 L 74.5 80.3333 M 66.5 66.2667 L 74.5 66.2667 
               M 70.5 52.2 L 74.5 52.2 M 66.5 38.1333 L 74.5 38.1333 M 70.5 24.0667 L 74.5 24.0667 M 66.5 10 L 74.5 10 "
        stroke="black" fill="none" stroke-width="0.5"/>
    </g>
    <!-- X Axis -->
    <g id="X_Axis">
      <g font-family="Helvetica" font-size="12" fill="black">
        <text x="366.979" y="469.5">Anzahl an CPUs</text>
      </g>
      <g>
        <g font-family="Helvetica" font-size="12" fill="black">
          <text x="71.1631" y="451.19">0</text>
        </g>
        <g font-family="Helvetica" font-size="12" fill="black">
          <text x="135.116" y="451.19">10</text>
        </g>
        <g font-family="Helvetica" font-size="12" fill="black">
          <text x="202.406" y="451.19">20</text>
        </g>
        <g font-family="Helvetica" font-size="12" fill="black">
          <text x="269.696" y="451.19">30</text>
        </g>
        <g font-family="Helvetica" font-size="12" fill="black">
          <text x="336.986" y="451.19">40</text>
        </g>
        <g font-family="Helvetica" font-size="12" fill="black">
          <text x="404.276" y="451.19">50</text>
        </g>
        <g font-family="Helvetica" font-size="12" fill="black">
          <text x="471.566" y="451.19">60</text>
        </g>
        <g font-family="Helvetica" font-size="12" fill="black">
          <text x="538.856" y="451.19">70</text>
        </g>
        <g font-family="Helvetica" font-size="12" fill="black">
          <text x="606.146" y="451.19">80</text>
        </g>
        <g font-family="Helvetica" font-size="12" fill="black">
          <text x="673.436" y="451.19">90</text>
        </g>
        <g font-family="Helvetica" font-size="12" fill="black">
          <text x="737.389" y="451.19">100</text>
        </g>
      </g>
      <path d="M 74.5 440 L 74.5 432 M 141.79 440 L 141.79 432 M 209.08 440 L 209.08 432 M 276.37 440 L 276.37 432 
               M 343.66 440 L 343.66 432 M 410.95 440 L 410.95 432 M 478.24 440 L 478.24 432 M 545.53 440 L 545.53 432 
               M 612.82 440 L 612.82 432 M 680.11 440 L 680.11 432 M 747.4 440 L 747.4 432 M 81.229 436 L 81.229 432 
               M 87.958 436 L 87.958 432 M 94.687 436 L 94.687 432 M 101.416 436 L 101.416 432 M 108.145 436 L 108.145 432 
               M 114.874 436 L 114.874 432 M 121.603 436 L 121.603 432 M 128.332 436 L 128.332 432 M 135.061 436 L 135.061 432 
               M 148.519 436 L 148.519 432 M 155.248 436 L 155.248 432 M 161.977 436 L 161.977 432 M 168.706 436 L 168.706 432 
               M 175.435 436 L 175.435 432 M 182.164 436 L 182.164 432 M 188.893 436 L 188.893 432 M 195.622 436 L 195.622 432 
               M 202.351 436 L 202.351 432 M 215.809 436 L 215.809 432 M 222.538 436 L 222.538 432 M 229.267 436 L 229.267 432 
               M 235.996 436 L 235.996 432 M 242.725 436 L 242.725 432 M 249.454 436 L 249.454 432 M 256.183 436 L 256.183 432 
               M 262.912 436 L 262.912 432 M 269.641 436 L 269.641 432 M 283.099 436 L 283.099 432 M 289.828 436 L 289.828 432 
               M 296.557 436 L 296.557 432 M 303.286 436 L 303.286 432 M 310.015 436 L 310.015 432 M 316.744 436 L 316.744 432 
               M 323.473 436 L 323.473 432 M 330.202 436 L 330.202 432 M 336.931 436 L 336.931 432 M 350.389 436 L 350.389 432 
               M 357.118 436 L 357.118 432 M 363.847 436 L 363.847 432 M 370.576 436 L 370.576 432 M 377.305 436 L 377.305 432 
               M 384.034 436 L 384.034 432 M 390.763 436 L 390.763 432 M 397.492 436 L 397.492 432 M 404.221 436 L 404.221 432 
               M 417.679 436 L 417.679 432 M 424.408 436 L 424.408 432 M 431.137 436 L 431.137 432 M 437.866 436 L 437.866 432 
               M 444.595 436 L 444.595 432 M 451.324 436 L 451.324 432 M 458.053 436 L 458.053 432 M 464.782 436 L 464.782 432 
               M 471.511 436 L 471.511 432 M 484.969 436 L 484.969 432 M 491.698 436 L 491.698 432 M 498.427 436 L 498.427 432 
               M 505.156 436 L 505.156 432 M 511.885 436 L 511.885 432 M 518.614 436 L 518.614 432 M 525.343 436 L 525.343 432 
               M 532.072 436 L 532.072 432 M 538.801 436 L 538.801 432 M 552.259 436 L 552.259 432 M 558.988 436 L 558.988 432 
               M 565.717 436 L 565.717 432 M 572.446 436 L 572.446 432 M 579.175 436 L 579.175 432 M 585.904 436 L 585.904 432 
               M 592.633 436 L 592.633 432 M 599.362 436 L 599.362 432 M 606.091 436 L 606.091 432 M 619.549 436 L 619.549 432 
               M 626.278 436 L 626.278 432 M 633.007 436 L 633.007 432 M 639.736 436 L 639.736 432 M 646.465 436 L 646.465 432 
               M 653.194 436 L 653.194 432 M 659.923 436 L 659.923 432 M 666.652 436 L 666.652 432 M 673.381 436 L 673.381 432 
               M 686.839 436 L 686.839 432 M 693.568 436 L 693.568 432 M 700.297 436 L 700.297 432 M 707.026 436 L 707.026 432 
               M 713.755 436 L 713.755 432 M 720.484 436 L 720.484 432 M 727.213 436 L 727.213 432 M 733.942 436 L 733.942 432 
               M 740.671 436 L 740.671 432 "
        stroke="black" fill="none" stroke-width="0.5"/>
    </g>
    <path d="M 747.4 432 L 747.4 10 L 74.5 10 L 74.5 432 L 747.4 432 z "
      stroke="black" stroke-linecap="square" fill="none" stroke-width="0.5"/>
  </g>
  <!-- Zoom -->
  <g id="Zoom">
    <!-- Connection -->
    <g id="Connection">
      <path d="M 139.973 432.338 L 586.5 361 "
        stroke="black" fill="none" stroke-width="0.5"/>
      <path d="M 74.5673 348.219 L 275.5 242 "
        stroke="black" fill="none" stroke-width="0.5"/>
    </g>
    <!-- Source -->
    <g id="Source">
      <rect x="74.5673" y="348.219" width="65.4059" height="84.1187" stroke="black" fill="none" stroke-width="0.5"/>
    </g>
    <!-- Destination -->
    <g id="Destination">
      <!-- Content -->
      <g id="Content" transform="translate(275,361.5)">>
        <!-- Commands -->
        <g id="Commands_2">
          <path d="M 0.5 -1.7657 L 2.40702 -6.1573 L 4.41139 -10.2747 L 6.48151 -14.0748 L 8.65336 -17.6437 
                   L 10.8996 -20.9531 L 13.2693 -24.087 L 15.7218 -27.0012 L 18.3392 -29.7971 L 21.0919 -32.4391 
                   L 23.9981 -34.9455 L 27.0514 -37.3123 L 30.2829 -39.5637 L 33.7746 -41.747 L 37.5272 -43.8483 
                   L 41.4987 -45.8378 L 45.7772 -47.7533 L 50.3767 -49.5901 L 55.3594 -51.3612 L 60.7877 -53.0737 
                   L 66.6951 -54.723 L 73.1511 -56.3131 L 80.262 -57.8525 L 88.0757 -59.3335 L 96.6877 -60.7571 
                   L 106.244 -62.129 L 116.903 -63.4511 L 128.761 -64.7158 L 142.091 -65.9314 L 157.093 -67.0945 
                   L 174.12 -68.2091 L 193.553 -69.2755 L 215.804 -70.291 L 241.516 -71.2585 L 271.36 -72.1757 
                   L 306.333 -73.0446 L 311.5 -73.1579 "
            stroke="black" fill="none" stroke-width="2"/>
          <path d="M 0.5 -1.37956 L 20.7091 -26.6054 L 41.0159 -51.6329 L 61.4664 -76.5195 L 82 -101.192 
                   L 97.4314 -119.5 "
            stroke="rgb(228,28,28)" stroke-dasharray="0.02,4" stroke-linecap="round" fill="none" stroke-width="2"/>
          <path d="M 0.5 -1.41932 L 6.55294 -9.59485 L 12.6724 -17.5254 L 18.9011 -25.2725 L 25.2734 -32.8792 
                   L 31.781 -40.3342 L 38.3947 -47.6061 L 45.1542 -54.7398 L 52.063 -61.7377 L 59.1157 -68.5939 
                   L 66.305 -75.3018 L 73.6745 -81.9008 L 81.1109 -88.2925 L 88.7702 -94.6119 L 96.6314 -100.836 
                   L 104.626 -106.91 L 112.851 -112.906 L 121.233 -118.769 L 122.324 -119.5 "
            stroke="rgb(55,126,184)" stroke-dasharray="0.02,3" stroke-linecap="round" fill="none" stroke-width="2"/>
        </g>
        <g>
          <!-- Y Labels -->
          <g id="Y_Labels_2">
            <g font-family="Helvetica" font-size="11" fill="black">
              <text x="321.7" y="2.96748">0</text>
            </g>
            <g font-family="Helvetica" font-size="11" fill="black">
              <text x="321.7" y="-36.8319">1</text>
            </g>
            <g font-family="Helvetica" font-size="11" fill="black">
              <text x="321.7" y="-76.6312">2</text>
            </g>
          </g>
          <path d="M 311.5 -0.977592 L 319.5 -0.977592 M 311.5 -20.8773 L 315.5 -20.8773 M 311.5 -40.7769 L 319.5 -40.7769 
                   M 311.5 -60.6766 L 315.5 -60.6766 M 311.5 -80.5763 L 319.5 -80.5763 M 311.5 -100.476 L 315.5 -100.476 "
            stroke="black" fill="none" stroke-width="0.5"/>
          <g>
            <g font-family="Helvetica" font-size="11" fill="black">
              <text x="0.5" y="-129.078">0</text>
            </g>
            <g font-family="Helvetica" font-size="11" fill="black">
              <text x="61.113" y="-129.078">2</text>
            </g>
            <g font-family="Helvetica" font-size="11" fill="black">
              <text x="125.105" y="-129.078">4</text>
            </g>
            <g font-family="Helvetica" font-size="11" fill="black">
              <text x="189.097" y="-129.078">6</text>
            </g>
            <g font-family="Helvetica" font-size="11" fill="black">
              <text x="253.088" y="-129.078">8</text>
            </g>
          </g>
          <path d="M 0.180041 -119.5 L 0.180041 -127.5 M 32.1759 -119.5 L 32.1759 -123.5 M 64.1718 -119.5 L 64.1718 -127.5 
                   M 96.1677 -119.5 L 96.1677 -123.5 M 128.164 -119.5 L 128.164 -127.5 M 160.159 -119.5 L 160.159 -123.5 
                   M 192.155 -119.5 L 192.155 -127.5 M 224.151 -119.5 L 224.151 -123.5 M 256.147 -119.5 L 256.147 -127.5 
                   M 288.143 -119.5 L 288.143 -123.5 "
            stroke="black" fill="none" stroke-width="0.5"/>
        </g>
      </g>
      <rect x="275.5" y="242" width="311" height="119" stroke="black" fill="none" stroke-width="0.5"/>
    </g>
  </g>
</g>
</svg>
