<?xml version="1.0" encoding="utf-8" standalone="no"?>
<!-- Generator: DataGraph - https://www.visualdatatools.com/DataGraph/index.html  --><!DOCTYPE svg PUBLIC "-//W3C//DTD SVG 1.1//EN" "http://www.w3.org/Graphics/SVG/1.1/DTD/svg11.dtd">
<svg width="914" height="525" version="1.1" xmlns="http://www.w3.org/2000/svg" xmlns:xlink="http://www.w3.org/1999/xlink">
<g>
  <!-- Commands -->
  <g id="Commands">
    <!-- x/(1-x) -->
    <g id="x_1_x">
      <path d="M 108.5 490.5 L 177.684 489.472 L 237.151 488.392 L 288.639 487.263 L 333.419 486.086 
               L 372.865 484.853 L 407.707 483.568 L 438.509 482.237 L 465.982 480.853 L 490.643 479.414 
               L 512.918 477.916 L 532.906 476.373 L 551.082 474.77 L 567.432 473.131 L 582.491 471.421 
               L 596.132 469.673 L 608.426 467.905 L 619.9 466.057 L 630.58 464.136 L 640.439 462.159 
               L 649.503 460.14 L 657.858 458.077 L 665.675 455.945 L 672.919 453.766 L 679.545 451.575 
               L 686.05 449.213 L 691.999 446.841 L 697.574 444.409 L 702.799 441.918 L 707.832 439.298 
               L 712.657 436.555 L 717.056 433.829 L 721.313 430.958 L 725.407 427.952 L 729.328 424.818 
               L 733.141 421.497 L 736.724 418.097 L 740.043 414.674 L 743.416 410.89 L 746.637 406.948 
               L 749.533 403.096 L 752.389 398.969 L 755.235 394.494 L 757.927 389.878 L 760.409 385.253 
               L 762.921 380.157 L 765.208 375.107 L 767.634 369.262 L 769.7 363.837 L 771.863 357.653 
               L 774.168 350.41 L 776.368 342.779 L 778.495 334.624 L 780.552 325.886 L 782.529 316.574 
               L 784.458 306.475 L 786.349 295.435 L 788.177 283.493 L 789.785 271.775 L 791.504 257.757 
               L 793.122 242.901 L 794.533 228.364 L 796.184 209.131 L 797.623 189.995 L 799.129 167.073 
               L 800.493 143.174 L 801.637 120.323 L 802.839 92.9156 L 804.091 59.8547 L 805.326 21.4967 
               L 805.543 13.5 "
        stroke="black" fill="none" stroke-width="2"/>
    </g>
  </g>
  <!-- Foreground -->
  <g id="Foreground">
    <!-- Y Axis -->
    <g id="Y_Axis">
      <!-- Y Labels -->
      <g id="Y_Labels">
        <g font-family="Helvetica" font-size="18" fill="black">
          <text x="86.8893" y="496.956">0</text>
        </g>
        <g font-family="Helvetica" font-size="18" fill="black">
          <text x="86.8893" y="449.256">5</text>
        </g>
        <g font-family="Helvetica" font-size="18" fill="black">
          <text x="76.8785" y="401.556">10</text>
        </g>
        <g font-family="Helvetica" font-size="18" fill="black">
          <text x="76.8785" y="353.856">15</text>
        </g>
        <g font-family="Helvetica" font-size="18" fill="black">
          <text x="76.8785" y="306.156">20</text>
        </g>
        <g font-family="Helvetica" font-size="18" fill="black">
          <text x="76.8785" y="258.456">25</text>
        </g>
        <g font-family="Helvetica" font-size="18" fill="black">
          <text x="76.8785" y="210.756">30</text>
        </g>
        <g font-family="Helvetica" font-size="18" fill="black">
          <text x="76.8785" y="163.056">35</text>
        </g>
        <g font-family="Helvetica" font-size="18" fill="black">
          <text x="76.8785" y="115.356">40</text>
        </g>
        <g font-family="Helvetica" font-size="18" fill="black">
          <text x="76.8785" y="67.6556">45</text>
        </g>
        <g font-family="Helvetica" font-size="18" fill="black">
          <text x="76.8785" y="19.9556">50</text>
        </g>
      </g>
      <path d="M 100.5 490.5 L 108.5 490.5 M 104.5 480.96 L 108.5 480.96 M 104.5 471.42 L 108.5 471.42 
               M 104.5 461.88 L 108.5 461.88 M 104.5 452.34 L 108.5 452.34 M 100.5 442.8 L 108.5 442.8 
               M 104.5 433.26 L 108.5 433.26 M 104.5 423.72 L 108.5 423.72 M 104.5 414.18 L 108.5 414.18 
               M 104.5 404.64 L 108.5 404.64 M 100.5 395.1 L 108.5 395.1 M 104.5 385.56 L 108.5 385.56 
               M 104.5 376.02 L 108.5 376.02 M 104.5 366.48 L 108.5 366.48 M 104.5 356.94 L 108.5 356.94 
               M 100.5 347.4 L 108.5 347.4 M 104.5 337.86 L 108.5 337.86 M 104.5 328.32 L 108.5 328.32 
               M 104.5 318.78 L 108.5 318.78 M 104.5 309.24 L 108.5 309.24 M 100.5 299.7 L 108.5 299.7 
               M 104.5 290.16 L 108.5 290.16 M 104.5 280.62 L 108.5 280.62 M 104.5 271.08 L 108.5 271.08 
               M 104.5 261.54 L 108.5 261.54 M 100.5 252 L 108.5 252 M 104.5 242.46 L 108.5 242.46 M 104.5 232.92 L 108.5 232.92 
               M 104.5 223.38 L 108.5 223.38 M 104.5 213.84 L 108.5 213.84 M 100.5 204.3 L 108.5 204.3 
               M 104.5 194.76 L 108.5 194.76 M 104.5 185.22 L 108.5 185.22 M 104.5 175.68 L 108.5 175.68 
               M 104.5 166.14 L 108.5 166.14 M 100.5 156.6 L 108.5 156.6 M 104.5 147.06 L 108.5 147.06 
               M 104.5 137.52 L 108.5 137.52 M 104.5 127.98 L 108.5 127.98 M 104.5 118.44 L 108.5 118.44 
               M 100.5 108.9 L 108.5 108.9 M 104.5 99.36 L 108.5 99.36 M 104.5 89.82 L 108.5 89.82 M 104.5 80.28 L 108.5 80.28 
               M 104.5 70.74 L 108.5 70.74 M 100.5 61.2 L 108.5 61.2 M 104.5 51.66 L 108.5 51.66 M 104.5 42.12 L 108.5 42.12 
               M 104.5 32.58 L 108.5 32.58 M 104.5 23.04 L 108.5 23.04 M 100.5 13.5 L 108.5 13.5 "
        stroke="black" fill="none" stroke-width="1"/>
    </g>
    <!-- X Axis -->
    <g id="X_Axis">
      <g>
        <g font-family="Helvetica" font-size="18" fill="black">
          <text x="103.495" y="515.284">0</text>
        </g>
        <g font-family="Helvetica" font-size="18" fill="black">
          <text x="167.089" y="515.284">0,1</text>
        </g>
        <g font-family="Helvetica" font-size="18" fill="black">
          <text x="238.189" y="515.284">0,2</text>
        </g>
        <g font-family="Helvetica" font-size="18" fill="black">
          <text x="309.289" y="515.284">0,3</text>
        </g>
        <g font-family="Helvetica" font-size="18" fill="black">
          <text x="380.389" y="515.284">0,4</text>
        </g>
        <g font-family="Helvetica" font-size="18" fill="black">
          <text x="451.489" y="515.284">0,5</text>
        </g>
        <g font-family="Helvetica" font-size="18" fill="black">
          <text x="522.589" y="515.284">0,6</text>
        </g>
        <g font-family="Helvetica" font-size="18" fill="black">
          <text x="593.689" y="515.284">0,7</text>
        </g>
        <g font-family="Helvetica" font-size="18" fill="black">
          <text x="664.789" y="515.284">0,8</text>
        </g>
        <g font-family="Helvetica" font-size="18" fill="black">
          <text x="735.889" y="515.284">0,9</text>
        </g>
        <g font-family="Helvetica" font-size="18" fill="black">
          <text x="806.989" y="515.284">1,0</text>
        </g>
        <g font-family="Helvetica" font-size="18" fill="black">
          <text x="878.089" y="515.284">1,1</text>
        </g>
      </g>
      <path d="M 108.5 498.5 L 108.5 490.5 M 179.6 498.5 L 179.6 490.5 M 250.7 498.5 L 250.7 490.5 M 321.8 498.5 L 321.8 490.5 
               M 392.9 498.5 L 392.9 490.5 M 464 498.5 L 464 490.5 M 535.1 498.5 L 535.1 490.5 M 606.2 498.5 L 606.2 490.5 
               M 677.3 498.5 L 677.3 490.5 M 748.4 498.5 L 748.4 490.5 M 819.5 498.5 L 819.5 490.5 M 890.6 498.5 L 890.6 490.5 
               M 115.61 494.5 L 115.61 490.5 M 122.72 494.5 L 122.72 490.5 M 129.83 494.5 L 129.83 490.5 
               M 136.94 494.5 L 136.94 490.5 M 144.05 494.5 L 144.05 490.5 M 151.16 494.5 L 151.16 490.5 
               M 158.27 494.5 L 158.27 490.5 M 165.38 494.5 L 165.38 490.5 M 172.49 494.5 L 172.49 490.5 
               M 186.71 494.5 L 186.71 490.5 M 193.82 494.5 L 193.82 490.5 M 200.93 494.5 L 200.93 490.5 
               M 208.04 494.5 L 208.04 490.5 M 215.15 494.5 L 215.15 490.5 M 222.26 494.5 L 222.26 490.5 
               M 229.37 494.5 L 229.37 490.5 M 236.48 494.5 L 236.48 490.5 M 243.59 494.5 L 243.59 490.5 
               M 257.81 494.5 L 257.81 490.5 M 264.92 494.5 L 264.92 490.5 M 272.03 494.5 L 272.03 490.5 
               M 279.14 494.5 L 279.14 490.5 M 286.25 494.5 L 286.25 490.5 M 293.36 494.5 L 293.36 490.5 
               M 300.47 494.5 L 300.47 490.5 M 307.58 494.5 L 307.58 490.5 M 314.69 494.5 L 314.69 490.5 
               M 328.91 494.5 L 328.91 490.5 M 336.02 494.5 L 336.02 490.5 M 343.13 494.5 L 343.13 490.5 
               M 350.24 494.5 L 350.24 490.5 M 357.35 494.5 L 357.35 490.5 M 364.46 494.5 L 364.46 490.5 
               M 371.57 494.5 L 371.57 490.5 M 378.68 494.5 L 378.68 490.5 M 385.79 494.5 L 385.79 490.5 
               M 400.01 494.5 L 400.01 490.5 M 407.12 494.5 L 407.12 490.5 M 414.23 494.5 L 414.23 490.5 
               M 421.34 494.5 L 421.34 490.5 M 428.45 494.5 L 428.45 490.5 M 435.56 494.5 L 435.56 490.5 
               M 442.67 494.5 L 442.67 490.5 M 449.78 494.5 L 449.78 490.5 M 456.89 494.5 L 456.89 490.5 
               M 471.11 494.5 L 471.11 490.5 M 478.22 494.5 L 478.22 490.5 M 485.33 494.5 L 485.33 490.5 
               M 492.44 494.5 L 492.44 490.5 M 499.55 494.5 L 499.55 490.5 M 506.66 494.5 L 506.66 490.5 
               M 513.77 494.5 L 513.77 490.5 M 520.88 494.5 L 520.88 490.5 M 527.99 494.5 L 527.99 490.5 
               M 542.21 494.5 L 542.21 490.5 M 549.32 494.5 L 549.32 490.5 M 556.43 494.5 L 556.43 490.5 
               M 563.54 494.5 L 563.54 490.5 M 570.65 494.5 L 570.65 490.5 M 577.76 494.5 L 577.76 490.5 
               M 584.87 494.5 L 584.87 490.5 M 591.98 494.5 L 591.98 490.5 M 599.09 494.5 L 599.09 490.5 
               M 613.31 494.5 L 613.31 490.5 M 620.42 494.5 L 620.42 490.5 M 627.53 494.5 L 627.53 490.5 
               M 634.64 494.5 L 634.64 490.5 M 641.75 494.5 L 641.75 490.5 M 648.86 494.5 L 648.86 490.5 
               M 655.97 494.5 L 655.97 490.5 M 663.08 494.5 L 663.08 490.5 M 670.19 494.5 L 670.19 490.5 
               M 684.41 494.5 L 684.41 490.5 M 691.52 494.5 L 691.52 490.5 M 698.63 494.5 L 698.63 490.5 
               M 705.74 494.5 L 705.74 490.5 M 712.85 494.5 L 712.85 490.5 M 719.96 494.5 L 719.96 490.5 
               M 727.07 494.5 L 727.07 490.5 M 734.18 494.5 L 734.18 490.5 M 741.29 494.5 L 741.29 490.5 
               M 755.51 494.5 L 755.51 490.5 M 762.62 494.5 L 762.62 490.5 M 769.73 494.5 L 769.73 490.5 
               M 776.84 494.5 L 776.84 490.5 M 783.95 494.5 L 783.95 490.5 M 791.06 494.5 L 791.06 490.5 
               M 798.17 494.5 L 798.17 490.5 M 805.28 494.5 L 805.28 490.5 M 812.39 494.5 L 812.39 490.5 
               M 826.61 494.5 L 826.61 490.5 M 833.72 494.5 L 833.72 490.5 M 840.83 494.5 L 840.83 490.5 
               M 847.94 494.5 L 847.94 490.5 M 855.05 494.5 L 855.05 490.5 M 862.16 494.5 L 862.16 490.5 
               M 869.27 494.5 L 869.27 490.5 M 876.38 494.5 L 876.38 490.5 M 883.49 494.5 L 883.49 490.5 "
        stroke="black" fill="none" stroke-width="1"/>
    </g>
    <path d="M 890.6 490.5 L 890.6 13.5 L 108.5 13.5 L 108.5 490.5 L 890.6 490.5 z "
      stroke="black" stroke-linecap="square" fill="none" stroke-width="1"/>
  </g>
  <!-- Zoom -->
  <g id="Zoom">
    <!-- Connection -->
    <g id="Connection">
      <path d="M 783.95 347.4 L 670.6 113.5 "
        stroke="black" fill="none" stroke-width="1"/>
      <path d="M 641.75 452.34 L 450.6 333.5 "
        stroke="black" fill="none" stroke-width="1"/>
    </g>
    <!-- Source -->
    <g id="Source">
      <rect x="641.75" y="347.4" width="142.2" height="104.94" stroke="black" fill="none" stroke-width="1"/>
    </g>
    <!-- Destination -->
    <g id="Destination">
      <!-- Content -->
      <g id="Content" transform="translate(450,334)">>
        <!-- Commands -->
        <g id="Commands_2">
          <path d="M 55.5412 -0.5 L 60.0519 -2.56539 L 67.0398 -5.98513 L 73.7319 -9.48205 L 80.1548 -13.0635 
                   L 86.3188 -16.7292 L 92.2574 -20.4939 L 97.9334 -24.3274 L 103.437 -28.2862 L 108.761 -32.3638 
                   L 113.911 -36.564 L 118.85 -40.8506 L 123.661 -45.2948 L 128.312 -49.8668 L 132.79 -54.5505 
                   L 137.165 -59.4192 L 141.37 -64.3976 L 145.475 -69.5687 L 149.488 -74.9475 L 153.401 -80.5346 
                   L 157.218 -86.339 L 160.931 -92.3572 L 164.524 -98.5627 L 168.059 -105.074 L 171.479 -111.792 
                   L 174.836 -118.833 L 178.123 -126.194 L 181.288 -133.768 L 184.436 -141.824 L 187.52 -150.274 
                   L 190.542 -159.148 L 193.485 -168.418 L 196.34 -178.069 L 199.167 -188.336 L 201.946 -199.195 
                   L 204.627 -210.475 L 206.836 -220.5 "
            stroke="black" fill="none" stroke-width="2"/>
        </g>
        <g>
          <!-- Y Labels -->
          <g id="Y_Labels_2">
            <g font-family="Helvetica" font-size="16" fill="black">
              <text x="-19.4984" y="-14.7617">5</text>
            </g>
            <g font-family="Helvetica" font-size="16" fill="black">
              <text x="-28.3969" y="-114.762">10</text>
            </g>
            <g font-family="Helvetica" font-size="16" fill="black">
              <text x="-28.3969" y="-214.762">15</text>
            </g>
          </g>
          <path d="M -3.4 -0.5 L 0.6 -0.5 M -7.4 -20.5 L 0.6 -20.5 M -3.4 -40.5 L 0.6 -40.5 M -3.4 -60.5 L 0.6 -60.5 
                   M -3.4 -80.5 L 0.6 -80.5 M -3.4 -100.5 L 0.6 -100.5 M -7.4 -120.5 L 0.6 -120.5 M -3.4 -140.5 L 0.6 -140.5 
                   M -3.4 -160.5 L 0.6 -160.5 M -3.4 -180.5 L 0.6 -180.5 M -3.4 -200.5 L 0.6 -200.5 M -7.4 -220.5 L 0.6 -220.5 "
            stroke="black" fill="none" stroke-width="1"/>
          <g>
            <g font-family="Helvetica" font-size="16" fill="black">
              <text x="0.6" y="-230.795">0,75</text>
            </g>
            <g font-family="Helvetica" font-size="16" fill="black">
              <text x="40.0297" y="-230.795">0,80</text>
            </g>
            <g font-family="Helvetica" font-size="16" fill="black">
              <text x="95.0297" y="-230.795">0,85</text>
            </g>
            <g font-family="Helvetica" font-size="16" fill="black">
              <text x="150.03" y="-230.795">0,90</text>
            </g>
            <g font-family="Helvetica" font-size="16" fill="black">
              <text x="189.459" y="-230.795">0,95</text>
            </g>
          </g>
          <path d="M 0.6 -220.5 L 0.6 -228.5 M 11.6 -220.5 L 11.6 -224.5 M 22.6 -220.5 L 22.6 -224.5 
                   M 33.6 -220.5 L 33.6 -224.5 M 44.6 -220.5 L 44.6 -224.5 M 55.6 -220.5 L 55.6 -228.5 
                   M 66.6 -220.5 L 66.6 -224.5 M 77.6 -220.5 L 77.6 -224.5 M 88.6 -220.5 L 88.6 -224.5 
                   M 99.6 -220.5 L 99.6 -224.5 M 110.6 -220.5 L 110.6 -228.5 M 121.6 -220.5 L 121.6 -224.5 
                   M 132.6 -220.5 L 132.6 -224.5 M 143.6 -220.5 L 143.6 -224.5 M 154.6 -220.5 L 154.6 -224.5 
                   M 165.6 -220.5 L 165.6 -228.5 M 176.6 -220.5 L 176.6 -224.5 M 187.6 -220.5 L 187.6 -224.5 
                   M 198.6 -220.5 L 198.6 -224.5 M 209.6 -220.5 L 209.6 -224.5 M 220.6 -220.5 L 220.6 -228.5 "
            stroke="black" fill="none" stroke-width="1"/>
        </g>
      </g>
      <rect x="450.6" y="113.5" width="220" height="220" stroke="black" fill="none" stroke-width="1"/>
    </g>
  </g>
</g>
</svg>
