<?xml version="1.0" encoding="utf-8" standalone="no"?>
<!-- Generator: DataGraph - https://www.visualdatatools.com/DataGraph/index.html  --><!DOCTYPE svg PUBLIC "-//W3C//DTD SVG 1.1//EN" "http://www.w3.org/Graphics/SVG/1.1/DTD/svg11.dtd">
<svg width="914" height="525" version="1.1" xmlns="http://www.w3.org/2000/svg" xmlns:xlink="http://www.w3.org/1999/xlink">
<g>
  <!-- Commands -->
  <g id="Commands">
    <!-- (1-(7/10))*(7/10)^x -->
    <g id="1_7_10_7_10_x">
      <path d="M 80.5 347.4 L 96.5259 352.847 L 112.683 358.129 L 129.349 363.365 L 146.251 368.463 L 163.426 373.435 
               L 181.021 378.318 L 198.822 383.051 L 217.069 387.695 L 235.687 392.227 L 254.662 396.641 
               L 274.023 400.939 L 293.883 405.145 L 314.311 409.264 L 335.145 413.261 L 356.584 417.169 
               L 378.313 420.928 L 400.997 424.646 L 423.966 428.209 L 447.798 431.702 L 472.179 435.073 
               L 497.499 438.369 L 523.461 441.546 L 550.298 444.626 L 577.742 447.576 L 606.241 450.438 
               L 635.917 453.216 L 666.654 455.89 L 698.306 458.444 L 731.559 460.924 L 766.069 463.295 
               L 801.906 465.557 L 816.955 466.449 "
        stroke="rgb(228,28,28)" stroke-dasharray="0.02,4,8,4" stroke-linecap="round" fill="none" stroke-width="2"/>
    </g>
    <!-- (1-(4/10))*(4/10)^x -->
    <g id="1_4_10_4_10_x">
      <path d="M 80.5 204.3 L 86.5721 214.909 L 92.8226 225.42 L 98.9628 235.354 L 105.018 244.787 L 111.271 254.162 
               L 117.651 263.357 L 123.915 272.039 L 130.339 280.597 L 136.735 288.786 L 143.324 296.886 
               L 149.771 304.498 L 156.337 311.942 L 163.023 319.217 L 169.604 326.088 L 176.449 332.942 
               L 183.388 339.599 L 190.283 345.934 L 197.377 352.175 L 204.458 358.136 L 211.664 363.939 
               L 219 369.585 L 226.403 375.027 L 233.918 380.301 L 241.619 385.456 L 249.41 390.426 L 257.228 395.177 
               L 265.182 399.778 L 273.24 404.214 L 281.589 408.582 L 290.219 412.863 L 298.762 416.882 
               L 307.6 420.82 L 316.766 424.682 L 326.081 428.388 L 335.615 431.965 L 345.486 435.451 
               L 355.59 438.805 L 365.915 442.021 L 376.687 445.163 L 387.65 448.152 L 399.077 451.058 
               L 410.712 453.812 L 422.845 456.479 L 435.35 459.025 L 448.326 461.466 L 462.146 463.858 
               L 476.324 466.107 L 491.281 468.275 L 506.739 470.312 L 522.955 472.249 L 540.276 474.114 
               L 558.447 475.865 L 577.742 477.521 L 598.324 479.08 L 620.294 480.539 L 643.575 481.882 
               L 668.597 483.125 L 695.927 484.278 L 725.576 485.326 L 758.35 486.28 L 794.611 487.132 
               L 816.955 487.569 "
        stroke="rgb(55,126,184)" stroke-dasharray="5,3" stroke-linecap="butt" fill="none" stroke-width="2"/>
    </g>
    <!-- (1-(1/10))*(1/10)^x -->
    <g id="1_1_10_1_10_x">
      <path d="M 80.5 61.2 L 83.946 83.7149 L 87.5865 106.22 L 91.0355 126.39 L 94.6863 146.589 L 98.3619 165.793 
               L 102.056 184.014 L 105.708 201.021 L 109.429 217.382 L 113.102 232.619 L 116.515 246.018 
               L 120.339 260.205 L 123.915 272.727 L 127.661 285.113 L 131.353 296.632 L 134.944 307.217 
               L 138.76 317.831 L 142.311 327.155 L 145.997 336.3 L 149.771 345.134 L 153.634 353.654 
               L 157.429 361.536 L 161.244 369.002 L 165.19 376.271 L 168.912 382.728 L 172.881 389.212 
               L 176.764 395.177 L 180.666 400.817 L 184.615 406.187 L 188.724 411.433 L 192.954 416.492 
               L 197.13 421.17 L 201.317 425.562 L 205.479 429.652 L 209.928 433.741 L 214.25 437.449 
               L 218.787 441.081 L 223.375 444.502 L 228.163 447.819 L 232.984 450.917 L 237.945 453.871 
               L 243.053 456.683 L 248.391 459.39 L 254.071 462.033 L 259.741 464.448 L 265.61 466.732 
               L 271.775 468.916 L 278.263 470.997 L 284.817 472.897 L 292.014 474.77 L 299.576 476.524 
               L 307.399 478.133 L 315.778 479.651 L 324.765 481.073 L 334.348 482.385 L 344.895 483.618 
               L 356.321 484.744 L 368.539 485.745 L 382.108 486.654 L 397.204 487.462 L 414.512 488.182 
               L 434.061 488.793 L 457.473 489.316 L 485.634 489.738 L 521.48 490.065 L 570.354 490.297 
               L 646.562 490.438 L 809.567 490.495 L 816.955 490.496 "
        stroke="rgb(77,175,74)" stroke-dasharray="0.02,3" stroke-linecap="round" fill="none" stroke-width="2"/>
    </g>
    <!-- Legend -->
    <g id="Legend">
      <defs>
        <clipPath id="clipPath">
          <rect x="699.6" y="23.5" width="181" height="70.2"/>
        </clipPath>
      </defs>
      <g clip-path="url(#clipPath)">
        <rect x="699.6" y="23.5" width="181" height="70.2" fill="white" stroke="none"/>
      </g>
      <rect x="699.6" y="23.5" width="181" height="70.2" stroke="black" fill="none" stroke-width="0.5"/>
      <defs>
        <clipPath id="clipPath2">
          <rect x="699.6" y="23.5" width="181" height="70.2"/>
        </clipPath>
      </defs>
      <g clip-path="url(#clipPath2)">
        <defs>
          <clipPath id="clipPath3">
            <rect x="706.6" y="27.82" width="22" height="18.36"/>
          </clipPath>
        </defs>
        <g clip-path="url(#clipPath3)">
          <path d="M 706.6 36.5 L 728.6 36.5 "
            stroke="rgb(228,28,28)" stroke-dasharray="0.02,4,8,4" stroke-dashoffset="13.04" stroke-linecap="round" fill="none" stroke-width="2"/>
        </g>
        <g font-family="Helvetica" font-size="18" fill="black">
          <text x="735.6" y="43.4556">(1-(7/10))*(7/10)</text>
          <text x="864.641" y="35.4544" font-size="14">x</text>
        </g>
        <defs>
          <clipPath id="clipPath4">
            <rect x="706.6" y="49.42" width="22" height="18.36"/>
          </clipPath>
        </defs>
        <g clip-path="url(#clipPath4)">
          <path d="M 706.6 58.5 L 728.6 58.5 "
            stroke="rgb(55,126,184)" stroke-dasharray="5,3" stroke-dashoffset="7.5" stroke-linecap="butt" fill="none" stroke-width="2"/>
        </g>
        <g font-family="Helvetica" font-size="18" fill="black">
          <text x="735.6" y="65.0556">(1-(4/10))*(4/10)</text>
          <text x="864.641" y="57.0544" font-size="14">x</text>
        </g>
        <defs>
          <clipPath id="clipPath5">
            <rect x="706.6" y="71.02" width="22" height="18.36"/>
          </clipPath>
        </defs>
        <g clip-path="url(#clipPath5)">
          <path d="M 706.6 80.5 L 728.6 80.5 "
            stroke="rgb(77,175,74)" stroke-dasharray="0.02,3" stroke-dashoffset="1.09" stroke-linecap="round" fill="none" stroke-width="2"/>
        </g>
        <g font-family="Helvetica" font-size="18" fill="black">
          <text x="735.6" y="86.6556">(1-(1/10))*(1/10)</text>
          <text x="864.641" y="78.6544" font-size="14">x</text>
        </g>
      </g>
    </g>
  </g>
  <!-- Foreground -->
  <g id="Foreground">
    <!-- Y Axis -->
    <g id="Y_Axis">
      <!-- Y Labels -->
      <g id="Y_Labels">
        <g font-family="Helvetica" font-size="18" fill="black">
          <text x="58.8893" y="496.956">0</text>
        </g>
        <g font-family="Helvetica" font-size="18" fill="black">
          <text x="43.8775" y="449.256">0,1</text>
        </g>
        <g font-family="Helvetica" font-size="18" fill="black">
          <text x="43.8775" y="401.556">0,2</text>
        </g>
        <g font-family="Helvetica" font-size="18" fill="black">
          <text x="43.8775" y="353.856">0,3</text>
        </g>
        <g font-family="Helvetica" font-size="18" fill="black">
          <text x="43.8775" y="306.156">0,4</text>
        </g>
        <g font-family="Helvetica" font-size="18" fill="black">
          <text x="43.8775" y="258.456">0,5</text>
        </g>
        <g font-family="Helvetica" font-size="18" fill="black">
          <text x="43.8775" y="210.756">0,6</text>
        </g>
        <g font-family="Helvetica" font-size="18" fill="black">
          <text x="43.8775" y="163.056">0,7</text>
        </g>
        <g font-family="Helvetica" font-size="18" fill="black">
          <text x="43.8775" y="115.356">0,8</text>
        </g>
        <g font-family="Helvetica" font-size="18" fill="black">
          <text x="43.8775" y="67.6556">0,9</text>
        </g>
        <g font-family="Helvetica" font-size="18" fill="black">
          <text x="43.8775" y="19.9556">1,0</text>
        </g>
      </g>
      <path d="M 72.5 490.5 L 80.5 490.5 M 76.5 466.65 L 80.5 466.65 M 72.5 442.8 L 80.5 442.8 M 76.5 418.95 L 80.5 418.95 
               M 72.5 395.1 L 80.5 395.1 M 76.5 371.25 L 80.5 371.25 M 72.5 347.4 L 80.5 347.4 M 76.5 323.55 L 80.5 323.55 
               M 72.5 299.7 L 80.5 299.7 M 76.5 275.85 L 80.5 275.85 M 72.5 252 L 80.5 252 M 76.5 228.15 L 80.5 228.15 
               M 72.5 204.3 L 80.5 204.3 M 76.5 180.45 L 80.5 180.45 M 72.5 156.6 L 80.5 156.6 M 76.5 132.75 L 80.5 132.75 
               M 72.5 108.9 L 80.5 108.9 M 76.5 85.05 L 80.5 85.05 M 72.5 61.2 L 80.5 61.2 M 76.5 37.35 L 80.5 37.35 
               M 72.5 13.5 L 80.5 13.5 "
        stroke="black" fill="none" stroke-width="0.5"/>
    </g>
    <!-- X Axis -->
    <g id="X_Axis">
      <g>
        <g font-family="Helvetica" font-size="18" fill="black">
          <text x="75.4946" y="515.284">0</text>
        </g>
        <g font-family="Helvetica" font-size="18" fill="black">
          <text x="141.634" y="515.284">0,5</text>
        </g>
        <g font-family="Helvetica" font-size="18" fill="black">
          <text x="215.28" y="515.284">1,0</text>
        </g>
        <g font-family="Helvetica" font-size="18" fill="black">
          <text x="288.925" y="515.284">1,5</text>
        </g>
        <g font-family="Helvetica" font-size="18" fill="black">
          <text x="362.571" y="515.284">2,0</text>
        </g>
        <g font-family="Helvetica" font-size="18" fill="black">
          <text x="436.216" y="515.284">2,5</text>
        </g>
        <g font-family="Helvetica" font-size="18" fill="black">
          <text x="509.861" y="515.284">3,0</text>
        </g>
        <g font-family="Helvetica" font-size="18" fill="black">
          <text x="583.507" y="515.284">3,5</text>
        </g>
        <g font-family="Helvetica" font-size="18" fill="black">
          <text x="657.152" y="515.284">4,0</text>
        </g>
        <g font-family="Helvetica" font-size="18" fill="black">
          <text x="730.798" y="515.284">4,5</text>
        </g>
        <g font-family="Helvetica" font-size="18" fill="black">
          <text x="804.443" y="515.284">5,0</text>
        </g>
        <g font-family="Helvetica" font-size="18" fill="black">
          <text x="878.089" y="515.284">5,5</text>
        </g>
      </g>
      <path d="M 80.5 498.5 L 80.5 490.5 M 154.145 498.5 L 154.145 490.5 M 227.791 498.5 L 227.791 490.5 
               M 301.436 498.5 L 301.436 490.5 M 375.082 498.5 L 375.082 490.5 M 448.727 498.5 L 448.727 490.5 
               M 522.373 498.5 L 522.373 490.5 M 596.018 498.5 L 596.018 490.5 M 669.664 498.5 L 669.664 490.5 
               M 743.309 498.5 L 743.309 490.5 M 816.955 498.5 L 816.955 490.5 M 890.6 498.5 L 890.6 490.5 
               M 95.2291 494.5 L 95.2291 490.5 M 109.958 494.5 L 109.958 490.5 M 124.687 494.5 L 124.687 490.5 
               M 139.416 494.5 L 139.416 490.5 M 168.875 494.5 L 168.875 490.5 M 183.604 494.5 L 183.604 490.5 
               M 198.333 494.5 L 198.333 490.5 M 213.062 494.5 L 213.062 490.5 M 242.52 494.5 L 242.52 490.5 
               M 257.249 494.5 L 257.249 490.5 M 271.978 494.5 L 271.978 490.5 M 286.707 494.5 L 286.707 490.5 
               M 316.165 494.5 L 316.165 490.5 M 330.895 494.5 L 330.895 490.5 M 345.624 494.5 L 345.624 490.5 
               M 360.353 494.5 L 360.353 490.5 M 389.811 494.5 L 389.811 490.5 M 404.54 494.5 L 404.54 490.5 
               M 419.269 494.5 L 419.269 490.5 M 433.998 494.5 L 433.998 490.5 M 463.456 494.5 L 463.456 490.5 
               M 478.185 494.5 L 478.185 490.5 M 492.915 494.5 L 492.915 490.5 M 507.644 494.5 L 507.644 490.5 
               M 537.102 494.5 L 537.102 490.5 M 551.831 494.5 L 551.831 490.5 M 566.56 494.5 L 566.56 490.5 
               M 581.289 494.5 L 581.289 490.5 M 610.747 494.5 L 610.747 490.5 M 625.476 494.5 L 625.476 490.5 
               M 640.205 494.5 L 640.205 490.5 M 654.935 494.5 L 654.935 490.5 M 684.393 494.5 L 684.393 490.5 
               M 699.122 494.5 L 699.122 490.5 M 713.851 494.5 L 713.851 490.5 M 728.58 494.5 L 728.58 490.5 
               M 758.038 494.5 L 758.038 490.5 M 772.767 494.5 L 772.767 490.5 M 787.496 494.5 L 787.496 490.5 
               M 802.225 494.5 L 802.225 490.5 M 831.684 494.5 L 831.684 490.5 M 846.413 494.5 L 846.413 490.5 
               M 861.142 494.5 L 861.142 490.5 M 875.871 494.5 L 875.871 490.5 "
        stroke="black" fill="none" stroke-width="0.5"/>
    </g>
    <path d="M 890.6 490.5 L 890.6 13.5 L 80.5 13.5 L 80.5 490.5 L 890.6 490.5 z "
      stroke="black" stroke-linecap="square" fill="none" stroke-width="0.5"/>
  </g>
</g>
</svg>
