<?xml version="1.0" encoding="utf-8" standalone="no"?>
<!-- Generator: DataGraph - https://www.visualdatatools.com/DataGraph/index.html  --><!DOCTYPE svg PUBLIC "-//W3C//DTD SVG 1.1//EN" "http://www.w3.org/Graphics/SVG/1.1/DTD/svg11.dtd">
<svg width="914" height="525" version="1.1" xmlns="http://www.w3.org/2000/svg" xmlns:xlink="http://www.w3.org/1999/xlink">
<g>
  <!-- Commands -->
  <g id="Commands">
    <!-- (1/2)/(1-x) -->
    <g id="1_2_1_x">
      <path d="M 80.5 485.73 L 188.608 484.987 L 276.03 484.192 L 347.646 483.348 L 407.108 482.453 L 457.311 481.504 
               L 499.912 480.502 L 536.174 479.455 L 567.536 478.356 L 594.731 477.209 L 618.586 476.008 
               L 639.559 474.757 L 658.173 473.451 L 674.728 472.093 L 689.665 470.668 L 702.867 469.211 
               L 714.804 467.696 L 725.501 466.143 L 735.183 464.543 L 744.223 462.847 L 752.518 461.084 
               L 760.032 459.28 L 767.012 457.394 L 773.274 455.498 L 779.061 453.541 L 784.604 451.45 
               L 789.574 449.364 L 794.115 447.252 L 798.325 445.091 L 802.54 442.699 L 806.368 440.299 
               L 810.082 437.727 L 813.498 435.117 L 816.853 432.29 L 820.031 429.332 L 822.857 426.439 
               L 825.672 423.269 L 828.362 419.934 L 830.968 416.371 L 833.309 412.848 L 835.779 408.75 
               L 837.952 404.77 L 840.029 400.585 L 842.238 395.66 L 844.387 390.324 L 846.278 385.108 
               L 848.028 379.77 L 850.036 372.936 L 851.77 366.32 L 853.459 359.115 L 854.949 352.032 
               L 856.625 343.092 L 858.245 333.275 L 859.598 324.017 L 861.137 312.067 L 862.428 300.641 
               L 863.784 286.938 L 865.196 270.407 L 866.19 257.058 L 867.574 235.535 L 868.629 216.239 
               L 869.794 191.263 L 870.745 167.196 L 871.924 131.426 L 872.992 91.4354 L 873.93 48.1406 
               L 874.537 13.5 "
        stroke="black" fill="none" stroke-width="2"/>
    </g>
    <!-- (1/10)/(1-x) -->
    <g id="1_10_1_x">
      <path d="M 80.5 489.546 L 301.473 489.183 L 440.959 488.767 L 535.09 488.298 L 601.777 487.775 
               L 650.783 487.199 L 687.822 486.571 L 716.445 485.894 L 739.259 485.161 L 757.35 484.39 
               L 772.478 483.55 L 784.979 482.66 L 795.441 481.719 L 804.169 480.741 L 811.623 479.716 
               L 818.137 478.626 L 823.787 477.485 L 828.839 476.261 L 833.309 474.97 L 837.16 473.653 
               L 840.581 472.28 L 843.493 470.923 L 846.491 469.297 L 849.057 467.674 L 851.288 466.047 
               L 853.459 464.223 L 855.502 462.241 L 857.459 460.039 L 859.236 457.721 L 860.919 455.173 
               L 862.428 452.528 L 863.784 449.788 L 865.196 446.481 L 866.589 442.646 L 867.919 438.306 
               L 868.97 434.276 L 870.237 428.5 L 871.339 422.427 L 872.47 414.81 L 873.444 406.737 L 874.534 395.395 
               L 875.392 384.038 L 876.223 370.109 L 876.978 353.9 L 877.842 328.973 L 878.495 303.15 
               L 879.092 271.083 L 879.6 233.671 L 880.154 175.026 L 880.452 130.727 L 880.897 35.6969 
               L 880.953 13.5 "
        stroke="rgb(77,175,74)" fill="none" stroke-width="2"/>
    </g>
    <!-- No name -->
    <g id="No_name">
      <g font-family="Helvetica" font-size="18" fill="black">
        <text x="761.5" y="170.884">μ = 2</text>
      </g>
    </g>
    <!-- No name -->
    <g id="No_name_2">
      <g font-family="Helvetica" font-size="18" fill="rgb(77,175,74)">
        <text x="815.5" y="363.884">μ = 10</text>
      </g>
    </g>
  </g>
  <!-- Foreground -->
  <g id="Foreground">
    <!-- Y Axis -->
    <g id="Y_Axis">
      <!-- Y Labels -->
      <g id="Y_Labels">
        <g font-family="Helvetica" font-size="18" fill="black">
          <text x="58.8893" y="496.956">0</text>
        </g>
        <g font-family="Helvetica" font-size="18" fill="black">
          <text x="58.8893" y="449.256">5</text>
        </g>
        <g font-family="Helvetica" font-size="18" fill="black">
          <text x="48.8785" y="401.556">10</text>
        </g>
        <g font-family="Helvetica" font-size="18" fill="black">
          <text x="48.8785" y="353.856">15</text>
        </g>
        <g font-family="Helvetica" font-size="18" fill="black">
          <text x="48.8785" y="306.156">20</text>
        </g>
        <g font-family="Helvetica" font-size="18" fill="black">
          <text x="48.8785" y="258.456">25</text>
        </g>
        <g font-family="Helvetica" font-size="18" fill="black">
          <text x="48.8785" y="210.756">30</text>
        </g>
        <g font-family="Helvetica" font-size="18" fill="black">
          <text x="48.8785" y="163.056">35</text>
        </g>
        <g font-family="Helvetica" font-size="18" fill="black">
          <text x="48.8785" y="115.356">40</text>
        </g>
        <g font-family="Helvetica" font-size="18" fill="black">
          <text x="48.8785" y="67.6556">45</text>
        </g>
        <g font-family="Helvetica" font-size="18" fill="black">
          <text x="48.8785" y="19.9556">50</text>
        </g>
      </g>
      <path d="M 72.5 490.5 L 80.5 490.5 M 76.5 480.96 L 80.5 480.96 M 76.5 471.42 L 80.5 471.42 M 76.5 461.88 L 80.5 461.88 
               M 76.5 452.34 L 80.5 452.34 M 72.5 442.8 L 80.5 442.8 M 76.5 433.26 L 80.5 433.26 M 76.5 423.72 L 80.5 423.72 
               M 76.5 414.18 L 80.5 414.18 M 76.5 404.64 L 80.5 404.64 M 72.5 395.1 L 80.5 395.1 M 76.5 385.56 L 80.5 385.56 
               M 76.5 376.02 L 80.5 376.02 M 76.5 366.48 L 80.5 366.48 M 76.5 356.94 L 80.5 356.94 M 72.5 347.4 L 80.5 347.4 
               M 76.5 337.86 L 80.5 337.86 M 76.5 328.32 L 80.5 328.32 M 76.5 318.78 L 80.5 318.78 M 76.5 309.24 L 80.5 309.24 
               M 72.5 299.7 L 80.5 299.7 M 76.5 290.16 L 80.5 290.16 M 76.5 280.62 L 80.5 280.62 M 76.5 271.08 L 80.5 271.08 
               M 76.5 261.54 L 80.5 261.54 M 72.5 252 L 80.5 252 M 76.5 242.46 L 80.5 242.46 M 76.5 232.92 L 80.5 232.92 
               M 76.5 223.38 L 80.5 223.38 M 76.5 213.84 L 80.5 213.84 M 72.5 204.3 L 80.5 204.3 M 76.5 194.76 L 80.5 194.76 
               M 76.5 185.22 L 80.5 185.22 M 76.5 175.68 L 80.5 175.68 M 76.5 166.14 L 80.5 166.14 M 72.5 156.6 L 80.5 156.6 
               M 76.5 147.06 L 80.5 147.06 M 76.5 137.52 L 80.5 137.52 M 76.5 127.98 L 80.5 127.98 M 76.5 118.44 L 80.5 118.44 
               M 72.5 108.9 L 80.5 108.9 M 76.5 99.36 L 80.5 99.36 M 76.5 89.82 L 80.5 89.82 M 76.5 80.28 L 80.5 80.28 
               M 76.5 70.74 L 80.5 70.74 M 72.5 61.2 L 80.5 61.2 M 76.5 51.66 L 80.5 51.66 M 76.5 42.12 L 80.5 42.12 
               M 76.5 32.58 L 80.5 32.58 M 76.5 23.04 L 80.5 23.04 M 72.5 13.5 L 80.5 13.5 "
        stroke="black" fill="none" stroke-width="1"/>
    </g>
    <!-- X Axis -->
    <g id="X_Axis">
      <g>
        <g font-family="Helvetica" font-size="18" fill="black">
          <text x="75.4946" y="515.284">0</text>
        </g>
        <g font-family="Helvetica" font-size="18" fill="black">
          <text x="148.197" y="515.284">0,1</text>
        </g>
        <g font-family="Helvetica" font-size="18" fill="black">
          <text x="228.405" y="515.284">0,2</text>
        </g>
        <g font-family="Helvetica" font-size="18" fill="black">
          <text x="308.613" y="515.284">0,3</text>
        </g>
        <g font-family="Helvetica" font-size="18" fill="black">
          <text x="388.82" y="515.284">0,4</text>
        </g>
        <g font-family="Helvetica" font-size="18" fill="black">
          <text x="469.028" y="515.284">0,5</text>
        </g>
        <g font-family="Helvetica" font-size="18" fill="black">
          <text x="549.236" y="515.284">0,6</text>
        </g>
        <g font-family="Helvetica" font-size="18" fill="black">
          <text x="629.444" y="515.284">0,7</text>
        </g>
        <g font-family="Helvetica" font-size="18" fill="black">
          <text x="709.652" y="515.284">0,8</text>
        </g>
        <g font-family="Helvetica" font-size="18" fill="black">
          <text x="789.86" y="515.284">0,9</text>
        </g>
        <g font-family="Helvetica" font-size="18" fill="black">
          <text x="870.068" y="515.284">1,0</text>
        </g>
      </g>
      <path d="M 80.5 498.5 L 80.5 490.5 M 160.708 498.5 L 160.708 490.5 M 240.916 498.5 L 240.916 490.5 
               M 321.124 498.5 L 321.124 490.5 M 401.332 498.5 L 401.332 490.5 M 481.54 498.5 L 481.54 490.5 
               M 561.748 498.5 L 561.748 490.5 M 641.955 498.5 L 641.955 490.5 M 722.163 498.5 L 722.163 490.5 
               M 802.371 498.5 L 802.371 490.5 M 882.579 498.5 L 882.579 490.5 M 88.5208 494.5 L 88.5208 490.5 
               M 96.5416 494.5 L 96.5416 490.5 M 104.562 494.5 L 104.562 490.5 M 112.583 494.5 L 112.583 490.5 
               M 120.604 494.5 L 120.604 490.5 M 128.625 494.5 L 128.625 490.5 M 136.646 494.5 L 136.646 490.5 
               M 144.666 494.5 L 144.666 490.5 M 152.687 494.5 L 152.687 490.5 M 168.729 494.5 L 168.729 490.5 
               M 176.75 494.5 L 176.75 490.5 M 184.77 494.5 L 184.77 490.5 M 192.791 494.5 L 192.791 490.5 
               M 200.812 494.5 L 200.812 490.5 M 208.833 494.5 L 208.833 490.5 M 216.853 494.5 L 216.853 490.5 
               M 224.874 494.5 L 224.874 490.5 M 232.895 494.5 L 232.895 490.5 M 248.937 494.5 L 248.937 490.5 
               M 256.957 494.5 L 256.957 490.5 M 264.978 494.5 L 264.978 490.5 M 272.999 494.5 L 272.999 490.5 
               M 281.02 494.5 L 281.02 490.5 M 289.041 494.5 L 289.041 490.5 M 297.061 494.5 L 297.061 490.5 
               M 305.082 494.5 L 305.082 490.5 M 313.103 494.5 L 313.103 490.5 M 329.145 494.5 L 329.145 490.5 
               M 337.165 494.5 L 337.165 490.5 M 345.186 494.5 L 345.186 490.5 M 353.207 494.5 L 353.207 490.5 
               M 361.228 494.5 L 361.228 490.5 M 369.249 494.5 L 369.249 490.5 M 377.269 494.5 L 377.269 490.5 
               M 385.29 494.5 L 385.29 490.5 M 393.311 494.5 L 393.311 490.5 M 409.352 494.5 L 409.352 490.5 
               M 417.373 494.5 L 417.373 490.5 M 425.394 494.5 L 425.394 490.5 M 433.415 494.5 L 433.415 490.5 
               M 441.436 494.5 L 441.436 490.5 M 449.456 494.5 L 449.456 490.5 M 457.477 494.5 L 457.477 490.5 
               M 465.498 494.5 L 465.498 490.5 M 473.519 494.5 L 473.519 490.5 M 489.56 494.5 L 489.56 490.5 
               M 497.581 494.5 L 497.581 490.5 M 505.602 494.5 L 505.602 490.5 M 513.623 494.5 L 513.623 490.5 
               M 521.644 494.5 L 521.644 490.5 M 529.664 494.5 L 529.664 490.5 M 537.685 494.5 L 537.685 490.5 
               M 545.706 494.5 L 545.706 490.5 M 553.727 494.5 L 553.727 490.5 M 569.768 494.5 L 569.768 490.5 
               M 577.789 494.5 L 577.789 490.5 M 585.81 494.5 L 585.81 490.5 M 593.831 494.5 L 593.831 490.5 
               M 601.851 494.5 L 601.851 490.5 M 609.872 494.5 L 609.872 490.5 M 617.893 494.5 L 617.893 490.5 
               M 625.914 494.5 L 625.914 490.5 M 633.935 494.5 L 633.935 490.5 M 649.976 494.5 L 649.976 490.5 
               M 657.997 494.5 L 657.997 490.5 M 666.018 494.5 L 666.018 490.5 M 674.039 494.5 L 674.039 490.5 
               M 682.059 494.5 L 682.059 490.5 M 690.08 494.5 L 690.08 490.5 M 698.101 494.5 L 698.101 490.5 
               M 706.122 494.5 L 706.122 490.5 M 714.143 494.5 L 714.143 490.5 M 730.184 494.5 L 730.184 490.5 
               M 738.205 494.5 L 738.205 490.5 M 746.226 494.5 L 746.226 490.5 M 754.247 494.5 L 754.247 490.5 
               M 762.267 494.5 L 762.267 490.5 M 770.288 494.5 L 770.288 490.5 M 778.309 494.5 L 778.309 490.5 
               M 786.33 494.5 L 786.33 490.5 M 794.35 494.5 L 794.35 490.5 M 810.392 494.5 L 810.392 490.5 
               M 818.413 494.5 L 818.413 490.5 M 826.434 494.5 L 826.434 490.5 M 834.454 494.5 L 834.454 490.5 
               M 842.475 494.5 L 842.475 490.5 M 850.496 494.5 L 850.496 490.5 M 858.517 494.5 L 858.517 490.5 
               M 866.538 494.5 L 866.538 490.5 M 874.558 494.5 L 874.558 490.5 M 890.6 494.5 L 890.6 490.5 "
        stroke="black" fill="none" stroke-width="1"/>
    </g>
    <path d="M 890.6 490.5 L 890.6 13.5 L 80.5 13.5 L 80.5 490.5 L 890.6 490.5 z "
      stroke="black" stroke-linecap="square" fill="none" stroke-width="1"/>
  </g>
  <!-- Zoom -->
  <g id="Zoom">
    <!-- Connection -->
    <g id="Connection">
      <path d="M 886.991 382.507 L 670.6 113.5 "
        stroke="black" fill="none" stroke-width="1"/>
      <path d="M 720.559 487.256 L 450.6 333.5 "
        stroke="black" fill="none" stroke-width="1"/>
    </g>
    <!-- Source -->
    <g id="Source">
      <rect x="720.559" y="382.507" width="166.431" height="104.749" stroke="black" fill="none" stroke-width="1"/>
    </g>
    <!-- Destination -->
    <g id="Destination">
      <!-- Content -->
      <g id="Content" transform="translate(450,334)">>
        <!-- Commands -->
        <g id="Commands_2">
          <path d="M 0.6 -43.2827 L 10.1662 -45.6016 L 19.1402 -47.983 L 27.547 -50.421 L 35.4596 -52.9246 
                   L 42.8724 -55.4791 L 49.9033 -58.1142 L 56.5148 -60.8059 L 62.7983 -63.581 L 68.7509 -66.4303 
                   L 74.3723 -69.3429 L 79.7703 -72.368 L 84.9188 -75.4876 L 89.7901 -78.676 L 94.422 -81.947 
                   L 98.8769 -85.3397 L 103.167 -88.863 L 107.236 -92.4642 L 111.161 -96.2066 L 114.959 -100.108 
                   L 118.623 -104.163 L 122.154 -108.375 L 125.564 -112.759 L 128.867 -117.337 L 132.054 -122.101 
                   L 135.164 -127.119 L 138.165 -132.346 L 141.111 -137.891 L 143.904 -143.574 L 146.647 -149.611 
                   L 149.351 -156.056 L 151.967 -162.82 L 154.486 -169.885 L 156.976 -177.477 L 159.387 -185.481 
                   L 161.77 -194.102 L 164.052 -203.119 L 166.284 -212.76 L 167.92 -220.5 "
            stroke="black" fill="none" stroke-width="2"/>
          <path d="M 0.6 -3.60664 L 21.1099 -4.65713 L 38.771 -5.75791 L 54.1121 -6.9105 L 67.5624 -8.11868 
                   L 79.3912 -9.37963 L 89.8279 -10.6904 L 99.0987 -12.0532 L 107.397 -13.4726 L 114.858 -14.9499 
                   L 121.587 -16.4855 L 127.699 -18.0857 L 133.187 -19.7271 L 138.203 -21.433 L 142.84 -23.2217 
                   L 147.079 -25.0714 L 151.026 -27.0144 L 154.651 -29.0241 L 157.994 -31.1046 L 161.126 -33.2895 
                   L 164.052 -35.5739 L 166.816 -37.9884 L 169.434 -40.5473 L 171.913 -43.2574 L 174.249 -46.1145 
                   L 176.478 -49.1668 L 178.565 -52.3654 L 180.574 -55.8127 L 182.501 -59.5231 L 184.352 -63.5286 
                   L 186.148 -67.9121 L 187.85 -72.6048 L 189.495 -77.7398 L 191.071 -83.3302 L 192.584 -89.4429 
                   L 194.04 -96.1714 L 195.449 -103.647 L 196.806 -111.953 L 198.104 -121.16 L 199.337 -131.352 
                   L 200.549 -143.087 L 201.702 -156.261 L 202.803 -171.231 L 203.83 -187.895 L 204.832 -207.47 
                   L 205.38 -220.5 "
            stroke="rgb(77,175,74)" fill="none" stroke-width="2"/>
        </g>
        <g>
          <!-- Y Labels -->
          <g id="Y_Labels_2">
            <g font-family="Helvetica" font-size="16" fill="black">
              <text x="-19.4984" y="-28.0222">2</text>
            </g>
            <g font-family="Helvetica" font-size="16" fill="black">
              <text x="-19.4984" y="-68.0951">4</text>
            </g>
            <g font-family="Helvetica" font-size="16" fill="black">
              <text x="-19.4984" y="-108.168">6</text>
            </g>
            <g font-family="Helvetica" font-size="16" fill="black">
              <text x="-19.4984" y="-148.241">8</text>
            </g>
            <g font-family="Helvetica" font-size="16" fill="black">
              <text x="-28.3969" y="-188.314">10</text>
            </g>
          </g>
          <path d="M -3.4 -13.724 L 0.6 -13.724 M -7.4 -33.7605 L 0.6 -33.7605 M -3.4 -53.7969 L 0.6 -53.7969 
                   M -7.4 -73.8333 L 0.6 -73.8333 M -3.4 -93.8698 L 0.6 -93.8698 M -7.4 -113.906 L 0.6 -113.906 
                   M -3.4 -133.943 L 0.6 -133.943 M -7.4 -153.979 L 0.6 -153.979 M -3.4 -174.015 L 0.6 -174.015 
                   M -7.4 -194.052 L 0.6 -194.052 M -3.4 -214.088 L 0.6 -214.088 "
            stroke="black" fill="none" stroke-width="1"/>
          <g>
            <g font-family="Helvetica" font-size="16" fill="black">
              <text x="0.6" y="-230.795">0,8</text>
            </g>
            <g font-family="Helvetica" font-size="16" fill="black">
              <text x="97.6235" y="-230.795">0,9</text>
            </g>
            <g font-family="Helvetica" font-size="16" fill="black">
              <text x="198.358" y="-230.795">1,0</text>
            </g>
          </g>
          <path d="M 2.72048 -220.5 L 2.72048 -228.5 M 13.3229 -220.5 L 13.3229 -224.5 M 23.9253 -220.5 L 23.9253 -224.5 
                   M 34.5277 -220.5 L 34.5277 -224.5 M 45.1301 -220.5 L 45.1301 -224.5 M 55.7325 -220.5 L 55.7325 -224.5 
                   M 66.3349 -220.5 L 66.3349 -224.5 M 76.9373 -220.5 L 76.9373 -224.5 M 87.5398 -220.5 L 87.5398 -224.5 
                   M 98.1422 -220.5 L 98.1422 -224.5 M 108.745 -220.5 L 108.745 -228.5 M 119.347 -220.5 L 119.347 -224.5 
                   M 129.949 -220.5 L 129.949 -224.5 M 140.552 -220.5 L 140.552 -224.5 M 151.154 -220.5 L 151.154 -224.5 
                   M 161.757 -220.5 L 161.757 -224.5 M 172.359 -220.5 L 172.359 -224.5 M 182.961 -220.5 L 182.961 -224.5 
                   M 193.564 -220.5 L 193.564 -224.5 M 204.166 -220.5 L 204.166 -224.5 M 214.769 -220.5 L 214.769 -228.5 "
            stroke="black" fill="none" stroke-width="1"/>
        </g>
      </g>
      <rect x="450.6" y="113.5" width="220" height="220" stroke="black" fill="none" stroke-width="1"/>
    </g>
  </g>
</g>
</svg>
