<?xml version="1.0" encoding="utf-8" standalone="no"?>
<!-- Generator: DataGraph - https://www.visualdatatools.com/DataGraph/index.html  --><!DOCTYPE svg PUBLIC "-//W3C//DTD SVG 1.1//EN" "http://www.w3.org/Graphics/SVG/1.1/DTD/svg11.dtd">
<svg width="914" height="525" version="1.1" xmlns="http://www.w3.org/2000/svg" xmlns:xlink="http://www.w3.org/1999/xlink">
<g>
  <!-- Commands -->
  <g id="Commands">
    <!-- (1/2)/(1-x) -->
    <g id="1_2_1_x">
      <path d="M 80.5 485.73 L 179.763 484.987 L 260.032 484.192 L 325.789 483.348 L 380.386 482.453 
               L 426.481 481.504 L 465.597 480.502 L 498.892 479.455 L 527.688 478.356 L 552.657 477.209 
               L 574.561 476.008 L 593.818 474.757 L 610.909 473.451 L 626.11 472.093 L 639.824 470.668 
               L 651.946 469.211 L 662.906 467.696 L 672.728 466.143 L 681.618 464.543 L 689.919 462.847 
               L 697.535 461.084 L 704.434 459.28 L 710.843 457.394 L 716.592 455.498 L 721.906 453.541 
               L 726.996 451.45 L 731.773 449.26 L 736.144 447.029 L 740.129 444.775 L 743.691 442.551 
               L 747.441 439.965 L 750.641 437.526 L 753.81 434.868 L 756.852 432.051 L 759.708 429.135 
               L 762.481 426.013 L 764.896 423.02 L 767.31 419.739 L 769.566 416.371 L 771.715 412.848 
               L 773.983 408.75 L 776.254 404.189 L 778.393 399.402 L 780.353 394.523 L 782.365 388.941 
               L 784.287 382.965 L 786.175 376.368 L 787.956 369.358 L 789.632 361.93 L 791.094 354.662 
               L 792.803 345.045 L 794.294 335.478 L 795.854 324.017 L 797.267 312.067 L 798.452 300.641 
               L 799.697 286.938 L 800.994 270.407 L 802.273 251.228 L 803.494 229.532 L 804.458 209.382 
               L 805.623 180.502 L 806.634 150.136 L 807.672 112.049 L 808.567 71.687 L 809.567 14.9737 
               L 809.588 13.5 "
        stroke="black" fill="none" stroke-width="2"/>
    </g>
    <!-- (1/10)/(1-x) -->
    <g id="1_10_1_x">
      <path d="M 80.5 489.546 L 283.393 489.183 L 411.467 488.767 L 497.896 488.298 L 559.127 487.775 
               L 604.124 487.199 L 638.132 486.571 L 664.413 485.894 L 685.36 485.161 L 701.972 484.39 
               L 715.862 483.55 L 727.34 482.66 L 736.946 481.719 L 744.96 480.741 L 751.804 479.716 
               L 757.785 478.626 L 762.972 477.485 L 767.612 476.261 L 771.715 474.97 L 775.252 473.653 
               L 778.393 472.28 L 781.066 470.923 L 783.819 469.297 L 786.175 467.674 L 788.463 465.841 
               L 790.502 463.94 L 792.315 461.986 L 794.137 459.709 L 795.521 457.721 L 797.067 455.173 
               L 798.452 452.528 L 799.697 449.788 L 801.197 445.913 L 802.467 442.003 L 803.734 437.357 
               L 804.743 432.966 L 805.623 428.5 L 806.634 422.427 L 807.672 414.81 L 808.567 406.737 
               L 809.567 395.395 L 810.355 384.038 L 811.119 370.109 L 811.811 353.9 L 812.605 328.973 
               L 813.204 303.15 L 813.753 271.083 L 814.219 233.671 L 814.727 175.026 L 815.293 67.684 
               L 815.41 35.6969 L 815.461 13.5 "
        stroke="rgb(77,175,74)" fill="none" stroke-width="2"/>
    </g>
    <!-- No name -->
    <g id="No_name">
      <g font-family="Helvetica" font-size="18" fill="black">
        <text x="761.5" y="170.884">μ = 2</text>
      </g>
    </g>
    <!-- No name -->
    <g id="No_name_2">
      <g font-family="Helvetica" font-size="18" fill="rgb(77,175,74)">
        <text x="815.5" y="363.884">μ = 10</text>
      </g>
    </g>
  </g>
  <!-- Foreground -->
  <g id="Foreground">
    <!-- Y Axis -->
    <g id="Y_Axis">
      <!-- Y Labels -->
      <g id="Y_Labels">
        <g font-family="Helvetica" font-size="18" fill="black">
          <text x="58.8893" y="496.956">0</text>
        </g>
        <g font-family="Helvetica" font-size="18" fill="black">
          <text x="58.8893" y="449.256">5</text>
        </g>
        <g font-family="Helvetica" font-size="18" fill="black">
          <text x="48.8785" y="401.556">10</text>
        </g>
        <g font-family="Helvetica" font-size="18" fill="black">
          <text x="48.8785" y="353.856">15</text>
        </g>
        <g font-family="Helvetica" font-size="18" fill="black">
          <text x="48.8785" y="306.156">20</text>
        </g>
        <g font-family="Helvetica" font-size="18" fill="black">
          <text x="48.8785" y="258.456">25</text>
        </g>
        <g font-family="Helvetica" font-size="18" fill="black">
          <text x="48.8785" y="210.756">30</text>
        </g>
        <g font-family="Helvetica" font-size="18" fill="black">
          <text x="48.8785" y="163.056">35</text>
        </g>
        <g font-family="Helvetica" font-size="18" fill="black">
          <text x="48.8785" y="115.356">40</text>
        </g>
        <g font-family="Helvetica" font-size="18" fill="black">
          <text x="48.8785" y="67.6556">45</text>
        </g>
        <g font-family="Helvetica" font-size="18" fill="black">
          <text x="48.8785" y="19.9556">50</text>
        </g>
      </g>
      <path d="M 72.5 490.5 L 80.5 490.5 M 76.5 480.96 L 80.5 480.96 M 76.5 471.42 L 80.5 471.42 M 76.5 461.88 L 80.5 461.88 
               M 76.5 452.34 L 80.5 452.34 M 72.5 442.8 L 80.5 442.8 M 76.5 433.26 L 80.5 433.26 M 76.5 423.72 L 80.5 423.72 
               M 76.5 414.18 L 80.5 414.18 M 76.5 404.64 L 80.5 404.64 M 72.5 395.1 L 80.5 395.1 M 76.5 385.56 L 80.5 385.56 
               M 76.5 376.02 L 80.5 376.02 M 76.5 366.48 L 80.5 366.48 M 76.5 356.94 L 80.5 356.94 M 72.5 347.4 L 80.5 347.4 
               M 76.5 337.86 L 80.5 337.86 M 76.5 328.32 L 80.5 328.32 M 76.5 318.78 L 80.5 318.78 M 76.5 309.24 L 80.5 309.24 
               M 72.5 299.7 L 80.5 299.7 M 76.5 290.16 L 80.5 290.16 M 76.5 280.62 L 80.5 280.62 M 76.5 271.08 L 80.5 271.08 
               M 76.5 261.54 L 80.5 261.54 M 72.5 252 L 80.5 252 M 76.5 242.46 L 80.5 242.46 M 76.5 232.92 L 80.5 232.92 
               M 76.5 223.38 L 80.5 223.38 M 76.5 213.84 L 80.5 213.84 M 72.5 204.3 L 80.5 204.3 M 76.5 194.76 L 80.5 194.76 
               M 76.5 185.22 L 80.5 185.22 M 76.5 175.68 L 80.5 175.68 M 76.5 166.14 L 80.5 166.14 M 72.5 156.6 L 80.5 156.6 
               M 76.5 147.06 L 80.5 147.06 M 76.5 137.52 L 80.5 137.52 M 76.5 127.98 L 80.5 127.98 M 76.5 118.44 L 80.5 118.44 
               M 72.5 108.9 L 80.5 108.9 M 76.5 99.36 L 80.5 99.36 M 76.5 89.82 L 80.5 89.82 M 76.5 80.28 L 80.5 80.28 
               M 76.5 70.74 L 80.5 70.74 M 72.5 61.2 L 80.5 61.2 M 76.5 51.66 L 80.5 51.66 M 76.5 42.12 L 80.5 42.12 
               M 76.5 32.58 L 80.5 32.58 M 76.5 23.04 L 80.5 23.04 M 72.5 13.5 L 80.5 13.5 "
        stroke="black" fill="none" stroke-width="1"/>
    </g>
    <!-- X Axis -->
    <g id="X_Axis">
      <g>
        <g font-family="Helvetica" font-size="18" fill="black">
          <text x="75.4946" y="515.284">0</text>
        </g>
        <g font-family="Helvetica" font-size="18" fill="black">
          <text x="141.634" y="515.284">0,1</text>
        </g>
        <g font-family="Helvetica" font-size="18" fill="black">
          <text x="215.28" y="515.284">0,2</text>
        </g>
        <g font-family="Helvetica" font-size="18" fill="black">
          <text x="288.925" y="515.284">0,3</text>
        </g>
        <g font-family="Helvetica" font-size="18" fill="black">
          <text x="362.571" y="515.284">0,4</text>
        </g>
        <g font-family="Helvetica" font-size="18" fill="black">
          <text x="436.216" y="515.284">0,5</text>
        </g>
        <g font-family="Helvetica" font-size="18" fill="black">
          <text x="509.861" y="515.284">0,6</text>
        </g>
        <g font-family="Helvetica" font-size="18" fill="black">
          <text x="583.507" y="515.284">0,7</text>
        </g>
        <g font-family="Helvetica" font-size="18" fill="black">
          <text x="657.152" y="515.284">0,8</text>
        </g>
        <g font-family="Helvetica" font-size="18" fill="black">
          <text x="730.798" y="515.284">0,9</text>
        </g>
        <g font-family="Helvetica" font-size="18" fill="black">
          <text x="804.443" y="515.284">1,0</text>
        </g>
        <g font-family="Helvetica" font-size="18" fill="black">
          <text x="878.089" y="515.284">1,1</text>
        </g>
      </g>
      <path d="M 80.5 498.5 L 80.5 490.5 M 154.145 498.5 L 154.145 490.5 M 227.791 498.5 L 227.791 490.5 
               M 301.436 498.5 L 301.436 490.5 M 375.082 498.5 L 375.082 490.5 M 448.727 498.5 L 448.727 490.5 
               M 522.373 498.5 L 522.373 490.5 M 596.018 498.5 L 596.018 490.5 M 669.664 498.5 L 669.664 490.5 
               M 743.309 498.5 L 743.309 490.5 M 816.955 498.5 L 816.955 490.5 M 890.6 498.5 L 890.6 490.5 
               M 87.8645 494.5 L 87.8645 490.5 M 95.2291 494.5 L 95.2291 490.5 M 102.594 494.5 L 102.594 490.5 
               M 109.958 494.5 L 109.958 490.5 M 117.323 494.5 L 117.323 490.5 M 124.687 494.5 L 124.687 490.5 
               M 132.052 494.5 L 132.052 490.5 M 139.416 494.5 L 139.416 490.5 M 146.781 494.5 L 146.781 490.5 
               M 161.51 494.5 L 161.51 490.5 M 168.875 494.5 L 168.875 490.5 M 176.239 494.5 L 176.239 490.5 
               M 183.604 494.5 L 183.604 490.5 M 190.968 494.5 L 190.968 490.5 M 198.333 494.5 L 198.333 490.5 
               M 205.697 494.5 L 205.697 490.5 M 213.062 494.5 L 213.062 490.5 M 220.426 494.5 L 220.426 490.5 
               M 235.155 494.5 L 235.155 490.5 M 242.52 494.5 L 242.52 490.5 M 249.885 494.5 L 249.885 490.5 
               M 257.249 494.5 L 257.249 490.5 M 264.614 494.5 L 264.614 490.5 M 271.978 494.5 L 271.978 490.5 
               M 279.343 494.5 L 279.343 490.5 M 286.707 494.5 L 286.707 490.5 M 294.072 494.5 L 294.072 490.5 
               M 308.801 494.5 L 308.801 490.5 M 316.165 494.5 L 316.165 490.5 M 323.53 494.5 L 323.53 490.5 
               M 330.895 494.5 L 330.895 490.5 M 338.259 494.5 L 338.259 490.5 M 345.624 494.5 L 345.624 490.5 
               M 352.988 494.5 L 352.988 490.5 M 360.353 494.5 L 360.353 490.5 M 367.717 494.5 L 367.717 490.5 
               M 382.446 494.5 L 382.446 490.5 M 389.811 494.5 L 389.811 490.5 M 397.175 494.5 L 397.175 490.5 
               M 404.54 494.5 L 404.54 490.5 M 411.905 494.5 L 411.905 490.5 M 419.269 494.5 L 419.269 490.5 
               M 426.634 494.5 L 426.634 490.5 M 433.998 494.5 L 433.998 490.5 M 441.363 494.5 L 441.363 490.5 
               M 456.092 494.5 L 456.092 490.5 M 463.456 494.5 L 463.456 490.5 M 470.821 494.5 L 470.821 490.5 
               M 478.185 494.5 L 478.185 490.5 M 485.55 494.5 L 485.55 490.5 M 492.915 494.5 L 492.915 490.5 
               M 500.279 494.5 L 500.279 490.5 M 507.644 494.5 L 507.644 490.5 M 515.008 494.5 L 515.008 490.5 
               M 529.737 494.5 L 529.737 490.5 M 537.102 494.5 L 537.102 490.5 M 544.466 494.5 L 544.466 490.5 
               M 551.831 494.5 L 551.831 490.5 M 559.195 494.5 L 559.195 490.5 M 566.56 494.5 L 566.56 490.5 
               M 573.925 494.5 L 573.925 490.5 M 581.289 494.5 L 581.289 490.5 M 588.654 494.5 L 588.654 490.5 
               M 603.383 494.5 L 603.383 490.5 M 610.747 494.5 L 610.747 490.5 M 618.112 494.5 L 618.112 490.5 
               M 625.476 494.5 L 625.476 490.5 M 632.841 494.5 L 632.841 490.5 M 640.205 494.5 L 640.205 490.5 
               M 647.57 494.5 L 647.57 490.5 M 654.935 494.5 L 654.935 490.5 M 662.299 494.5 L 662.299 490.5 
               M 677.028 494.5 L 677.028 490.5 M 684.393 494.5 L 684.393 490.5 M 691.757 494.5 L 691.757 490.5 
               M 699.122 494.5 L 699.122 490.5 M 706.486 494.5 L 706.486 490.5 M 713.851 494.5 L 713.851 490.5 
               M 721.215 494.5 L 721.215 490.5 M 728.58 494.5 L 728.58 490.5 M 735.945 494.5 L 735.945 490.5 
               M 750.674 494.5 L 750.674 490.5 M 758.038 494.5 L 758.038 490.5 M 765.403 494.5 L 765.403 490.5 
               M 772.767 494.5 L 772.767 490.5 M 780.132 494.5 L 780.132 490.5 M 787.496 494.5 L 787.496 490.5 
               M 794.861 494.5 L 794.861 490.5 M 802.225 494.5 L 802.225 490.5 M 809.59 494.5 L 809.59 490.5 
               M 824.319 494.5 L 824.319 490.5 M 831.684 494.5 L 831.684 490.5 M 839.048 494.5 L 839.048 490.5 
               M 846.413 494.5 L 846.413 490.5 M 853.777 494.5 L 853.777 490.5 M 861.142 494.5 L 861.142 490.5 
               M 868.506 494.5 L 868.506 490.5 M 875.871 494.5 L 875.871 490.5 M 883.235 494.5 L 883.235 490.5 "
        stroke="black" fill="none" stroke-width="1"/>
    </g>
    <path d="M 890.6 490.5 L 890.6 13.5 L 80.5 13.5 L 80.5 490.5 L 890.6 490.5 z "
      stroke="black" stroke-linecap="square" fill="none" stroke-width="1"/>
  </g>
  <!-- Zoom -->
  <g id="Zoom">
    <!-- Connection -->
    <g id="Connection">
      <path d="M 780.132 347.4 L 670.6 113.5 "
        stroke="black" fill="none" stroke-width="1"/>
      <path d="M 632.841 452.34 L 450.6 333.5 "
        stroke="black" fill="none" stroke-width="1"/>
    </g>
    <!-- Source -->
    <g id="Source">
      <rect x="632.841" y="347.4" width="147.291" height="104.94" stroke="black" fill="none" stroke-width="1"/>
    </g>
    <!-- Destination -->
    <g id="Destination">
      <!-- Content -->
      <g id="Content" transform="translate(450,334)">>
        <!-- Commands -->
        <g id="Commands_2">
          <path d="M 138.083 -0.5 L 138.565 -0.771614 L 143.71 -3.90283 L 148.596 -7.11122 L 153.297 -10.4409 
                   L 157.754 -13.8419 L 162.029 -17.3554 L 166.158 -21.0101 L 170.155 -24.8195 L 173.955 -28.7201 
                   L 177.649 -32.8009 L 181.221 -37.0518 L 184.637 -41.4279 L 187.976 -46.0362 L 191.2 -50.8321 
                   L 194.337 -55.8621 L 197.376 -61.1211 L 200.301 -66.5837 L 203.166 -72.3632 L 205.939 -78.4073 
                   L 208.661 -84.8299 L 211.301 -91.5766 L 213.872 -98.7023 L 216.362 -106.193 L 218.78 -114.095 
                   L 220.6 -120.5 "
            stroke="black" fill="none" stroke-width="2"/>
        </g>
        <g>
          <!-- Y Labels -->
          <g id="Y_Labels_2">
            <g font-family="Helvetica" font-size="16" fill="black">
              <text x="-19.4984" y="-14.7617">5</text>
            </g>
            <g font-family="Helvetica" font-size="16" fill="black">
              <text x="-28.3969" y="-114.762">10</text>
            </g>
            <g font-family="Helvetica" font-size="16" fill="black">
              <text x="-28.3969" y="-214.762">15</text>
            </g>
          </g>
          <path d="M -3.4 -0.5 L 0.6 -0.5 M -7.4 -20.5 L 0.6 -20.5 M -3.4 -40.5 L 0.6 -40.5 M -3.4 -60.5 L 0.6 -60.5 
                   M -3.4 -80.5 L 0.6 -80.5 M -3.4 -100.5 L 0.6 -100.5 M -7.4 -120.5 L 0.6 -120.5 M -3.4 -140.5 L 0.6 -140.5 
                   M -3.4 -160.5 L 0.6 -160.5 M -3.4 -180.5 L 0.6 -180.5 M -3.4 -200.5 L 0.6 -200.5 M -7.4 -220.5 L 0.6 -220.5 "
            stroke="black" fill="none" stroke-width="1"/>
          <g>
            <g font-family="Helvetica" font-size="16" fill="black">
              <text x="0.6" y="-230.795">0,75</text>
            </g>
            <g font-family="Helvetica" font-size="16" fill="black">
              <text x="40.0297" y="-230.795">0,80</text>
            </g>
            <g font-family="Helvetica" font-size="16" fill="black">
              <text x="95.0297" y="-230.795">0,85</text>
            </g>
            <g font-family="Helvetica" font-size="16" fill="black">
              <text x="150.03" y="-230.795">0,90</text>
            </g>
            <g font-family="Helvetica" font-size="16" fill="black">
              <text x="189.459" y="-230.795">0,95</text>
            </g>
          </g>
          <path d="M 0.6 -220.5 L 0.6 -228.5 M 11.6 -220.5 L 11.6 -224.5 M 22.6 -220.5 L 22.6 -224.5 
                   M 33.6 -220.5 L 33.6 -224.5 M 44.6 -220.5 L 44.6 -224.5 M 55.6 -220.5 L 55.6 -228.5 
                   M 66.6 -220.5 L 66.6 -224.5 M 77.6 -220.5 L 77.6 -224.5 M 88.6 -220.5 L 88.6 -224.5 
                   M 99.6 -220.5 L 99.6 -224.5 M 110.6 -220.5 L 110.6 -228.5 M 121.6 -220.5 L 121.6 -224.5 
                   M 132.6 -220.5 L 132.6 -224.5 M 143.6 -220.5 L 143.6 -224.5 M 154.6 -220.5 L 154.6 -224.5 
                   M 165.6 -220.5 L 165.6 -228.5 M 176.6 -220.5 L 176.6 -224.5 M 187.6 -220.5 L 187.6 -224.5 
                   M 198.6 -220.5 L 198.6 -224.5 M 209.6 -220.5 L 209.6 -224.5 M 220.6 -220.5 L 220.6 -228.5 "
            stroke="black" fill="none" stroke-width="1"/>
        </g>
      </g>
      <rect x="450.6" y="113.5" width="220" height="220" stroke="black" fill="none" stroke-width="1"/>
    </g>
  </g>
</g>
</svg>
