<?xml version="1.0" encoding="UTF-8" standalone="no"?>
<!DOCTYPE svg PUBLIC "-//W3C//DTD SVG 1.1//EN" "http://www.w3.org/Graphics/SVG/1.1/DTD/svg11.dtd">
<svg xmlns:dc="http://purl.org/dc/elements/1.1/" xmlns:xl="http://www.w3.org/1999/xlink" xmlns="http://www.w3.org/2000/svg" version="1.1" viewBox="0 0 36 36" width="36" height="36">
  <defs/>
  <metadata> Produced by OmniGraffle 8.0\n2025-06-08 19:32:03 +0000</metadata>
  <g id="key" stroke="none" fill="none" stroke-dasharray="none" stroke-opacity="1" fill-opacity="1">
    <title>key</title>
    <g id="key_Layer_2">
      <title>Layer 2</title>
      <g id="Group_3">
        <g id="Graphic_6">
          <path d="M 30.642432 20.87962 C 30.513513 21.00854 30.339206 21.08245 30.156418 21.085078 L 29.910435 21.0886 L 28.815936 22.248278 C 28.40016 22.683597 27.720792 22.700165 27.281157 22.28414 L 26.660122 21.696837 L 26.103572 22.286522 C 26.096578 22.293913 26.089237 22.301453 26.081746 22.308943 C 25.665326 22.725363 25.00069 22.731167 24.568644 22.322137 L 23.948056 21.734982 L 23.391456 22.324717 C 23.384016 22.332554 23.37712 22.339647 23.370077 22.34669 C 22.95341 22.76336 22.288525 22.769312 21.85638 22.360282 L 20.616444 21.18751 C 20.407117 21.185822 20.0529 21.195594 19.677154 21.21112 C 19.59496 21.515636 19.43484 21.796788 19.209146 22.022483 C 18.873231 22.358397 18.424618 22.547089 17.946094 22.553686 C 17.92655 22.553984 17.906957 22.553438 17.887463 22.552099 C 17.835875 22.548428 17.779228 22.543765 17.720498 22.537714 C 17.547779 22.755572 17.36246 22.963708 17.16623 23.15994 C 15.799507 24.52666 13.980302 25.276913 12.043488 25.272448 C 8.048231 25.26352 4.7905774 22.005866 4.781599 18.01056 C 4.7771845 16.073597 5.5274856 14.254243 6.894258 12.887471 C 8.26103 11.520699 10.080334 10.770447 12.017198 10.774862 C 14.37584 10.78012 16.560125 11.916584 17.92546 13.831622 C 18.25795 13.903894 18.566732 14.066345 18.820404 14.306525 C 19.037964 14.512478 19.200614 14.760843 19.29992 15.033165 L 30.223035 15.06635 C 30.401608 15.066945 30.573186 15.135547 30.7029 15.258216 L 32.11719 16.595722 C 32.86536 17.304108 32.90906 18.478766 32.21481 19.214682 L 30.65647 20.865285 C 30.651857 20.870097 30.647144 20.874908 30.642432 20.87962 Z M 29.107802 19.89529 C 29.23672 19.766372 29.411077 19.692512 29.593866 19.689883 L 29.83985 19.686361 L 31.19442 18.251533 C 31.358507 18.077624 31.340005 17.79176 31.1529 17.614675 L 29.940792 16.46844 L 18.854828 16.434809 C 18.705125 16.434313 18.55954 16.38595 18.439251 16.296911 L 18.292574 16.18823 C 18.122434 16.06204 18.018267 15.865808 18.009388 15.65415 C 18.00418 15.530985 17.949666 15.414169 17.855965 15.325429 C 17.764843 15.239168 17.64773 15.191797 17.52625 15.191946 C 17.287907 15.192392 17.065634 15.071707 16.93612 14.871557 C 15.84782 13.189308 14.007832 12.182359 12.013924 12.177845 C 10.453103 12.174273 8.987224 12.778641 7.886276 13.879589 C 6.785329 14.980536 6.18106 16.446317 6.184532 18.007236 C 6.191725 21.2324 8.821499 23.862174 12.046613 23.869317 C 13.607483 23.872938 15.073214 23.26862 16.174112 22.167722 C 16.437555 21.904278 16.676545 21.614396 16.88473 21.30611 C 17.057499 21.049612 17.377937 20.937012 17.673275 21.028282 C 17.756014 21.053877 17.894606 21.213005 18.175659 21.014592 C 18.269707 20.948222 18.341036 20.839194 18.337366 20.72084 L 18.328735 20.583736 C 18.317028 20.39703 18.380223 20.213497 18.50448 20.073764 C 18.62958 19.933386 18.803588 19.849556 18.990295 19.83924 C 19.009145 19.838247 19.45751 19.813594 19.923683 19.79772 C 20.945066 19.76295 21.166248 19.775995 21.406923 20.003773 L 22.593387 21.12605 L 23.40971 20.261116 C 23.538282 20.12421 23.714027 20.04668 23.90004 20.041422 C 24.086202 20.036115 24.266808 20.105113 24.402026 20.23309 L 25.305552 21.087905 L 26.121677 20.22317 C 26.2502 20.086115 26.425944 20.008684 26.611957 20.003525 C 26.79807 19.998168 26.978626 20.067117 27.113844 20.194995 L 28.017817 21.04986 L 29.093615 19.909973 C 29.098278 19.904914 29.10304 19.900053 29.107802 19.89529 Z" fill="black" fill-opacity=".7091491"/>
        </g>
        <g id="Graphic_5">
          <path d="M 13.521253 19.743082 C 13.056817 20.20752 12.438808 20.46253 11.780968 20.461042 C 10.425505 20.457867 9.32044 19.352704 9.317464 17.997539 C 9.315976 17.339698 9.570938 16.721442 10.035424 16.256955 C 10.49991 15.79247 11.118117 15.537458 11.776057 15.539045 C 13.131172 15.542071 14.236138 16.647235 14.239163 18.00245 C 14.24075 18.66029 13.985839 19.278497 13.521253 19.743082 Z M 11.027542 17.249073 C 10.82888 17.447735 10.719852 17.712418 10.720497 17.994414 C 10.721786 18.579535 11.198921 19.05667 11.784192 19.05801 C 12.065989 19.058655 12.330623 18.949577 12.529185 18.751014 C 12.727847 18.552353 12.836826 18.287719 12.836181 18.005723 C 12.834842 17.420453 12.357855 16.943367 11.772882 16.942028 C 11.490937 16.941333 11.226203 17.050411 11.027542 17.249073 Z" fill="black" fill-opacity=".7091491"/>
        </g>
        <g id="Graphic_4">
          <path d="M 29.290293 18.557437 C 29.16301 18.68472 28.987018 18.76339 28.79267 18.762895 L 19.973286 18.742954 C 19.585883 18.742061 19.272539 18.427328 19.273382 18.039876 C 19.274225 17.652622 19.58891 17.33903 19.97646 17.339972 L 28.795846 17.359912 C 29.18325 17.360805 29.496593 17.675539 29.49575 18.06299 C 29.495304 18.256097 29.41688 18.43085 29.290293 18.557437 Z" fill="black" fill-opacity=".7091491"/>
        </g>
      </g>
    </g>
  </g>
</svg>
