<?xml version="1.0" encoding="UTF-8" standalone="no"?>
<!DOCTYPE svg PUBLIC "-//W3C//DTD SVG 1.1//EN" "http://www.w3.org/Graphics/SVG/1.1/DTD/svg11.dtd">
<svg xmlns:dc="http://purl.org/dc/elements/1.1/" xmlns:xl="http://www.w3.org/1999/xlink" xmlns="http://www.w3.org/2000/svg" version="1.1" viewBox="0 0 36 36" width="36" height="36">
  <defs/>
  <metadata> Produced by OmniGraffle 8.0\n2025-06-08 19:32:03 +0000</metadata>
  <g id="next" stroke="none" fill="none" stroke-dasharray="none" stroke-opacity="1" fill-opacity="1">
    <title>next</title>
    <g id="next_Layer_1">
      <title>Layer 1</title>
      <g id="Graphic_3">
        <title>&gt;</title>
        <path d="M 8.856 25.684164 L 8.856 26.246 C 8.856 26.676353 9.20487 27.025222 9.635223 27.025222 C 9.745638 27.025222 9.854793 27.001757 9.955453 26.95638 L 26.554962 19.47353 C 26.91349 19.31191 27.144 18.955152 27.144 18.561878 L 27.144 17.620963 C 27.144 17.228282 26.914176 16.871946 26.556452 16.709984 L 9.971039 9.20084 C 9.573858 9.021014 9.106102 9.197215 8.926276 9.594396 C 8.879959 9.696697 8.856 9.807702 8.856 9.92 L 8.856 10.499836 C 8.856 10.892108 9.085351 11.248152 9.44252 11.410349 L 22.150984 17.181487 C 22.653847 17.409845 22.876376 18.002617 22.648017 18.50548 C 22.547945 18.725846 22.37135 18.90244 22.150984 19.002513 L 9.44252 24.77365 C 9.085351 24.935847 8.856 25.291892 8.856 25.684164 Z" fill="black" fill-opacity=".7091491"/>
      </g>
    </g>
  </g>
</svg>
