<?xml version="1.0" encoding="UTF-8" standalone="no"?>
<!DOCTYPE svg PUBLIC "-//W3C//DTD SVG 1.1//EN" "http://www.w3.org/Graphics/SVG/1.1/DTD/svg11.dtd">
<svg xmlns:dc="http://purl.org/dc/elements/1.1/" xmlns:xl="http://www.w3.org/1999/xlink" xmlns="http://www.w3.org/2000/svg" version="1.1" viewBox="0 0 36 36" width="36" height="36">
  <defs/>
  <metadata> Produced by OmniGraffle 8.0\n2025-06-08 19:32:03 +0000</metadata>
  <g id="previous" stroke="none" fill="none" stroke-dasharray="none" stroke-opacity="1" fill-opacity="1">
    <title>previous</title>
    <g id="previous_Layer_1">
      <title>Layer 1</title>
      <g id="Graphic_3">
        <title>&lt;</title>
        <path d="M 27.144 10.491823 L 27.144 9.911987 C 27.144 9.475994 26.790558 9.122552 26.354565 9.122552 C 26.242267 9.122552 26.131262 9.14651 26.02896 9.192827 L 9.443549 16.70197 C 9.085824 16.863933 8.856 17.22027 8.856 17.61295 L 8.856 18.553865 C 8.856 18.947139 9.08651 19.303898 9.445039 19.465518 L 26.044547 26.948367 C 26.43688 27.125226 26.8983 26.95055 27.075158 26.558218 C 27.120534 26.457557 27.144 26.348402 27.144 26.237987 L 27.144 25.67615 C 27.144 25.28388 26.91465 24.927835 26.55748 24.765638 L 13.849016 18.9945 C 13.346154 18.766141 13.123624 18.17337 13.351983 17.670507 C 13.452055 17.450141 13.62865 17.273546 13.849016 17.173474 L 26.55748 11.402336 C 26.91465 11.24014 27.144 10.884095 27.144 10.491823 Z" fill="black" fill-opacity=".7091491"/>
      </g>
    </g>
  </g>
</svg>
