<?xml version="1.0" encoding="UTF-8" standalone="no"?>
<!DOCTYPE svg PUBLIC "-//W3C//DTD SVG 1.1//EN" "http://www.w3.org/Graphics/SVG/1.1/DTD/svg11.dtd">
<svg xmlns:dc="http://purl.org/dc/elements/1.1/" xmlns:xl="http://www.w3.org/1999/xlink" xmlns="http://www.w3.org/2000/svg" version="1.1" viewBox="0 0 36 36" width="36" height="36">
  <defs/>
  <metadata> Produced by OmniGraffle 8.0\n2025-06-08 19:32:03 +0000</metadata>
  <g id="previous_slide" stroke="none" fill="none" stroke-dasharray="none" stroke-opacity="1" fill-opacity="1">
    <title>previous_slide</title>
    <g id="previous_slide_Layer_1">
      <title>Layer 1</title>
      <g id="Graphic_4">
        <title>&lt;</title>
        <path d="M 31.137042 10.644566 L 31.137042 10.06473 C 31.137042 9.628737 30.7836 9.275294 30.347607 9.275294 C 30.23531 9.275294 30.124304 9.299253 30.022003 9.34557 L 13.43659 16.854714 C 13.078866 17.016675 12.849042 17.373012 12.849042 17.765693 L 12.849042 18.706608 C 12.849042 19.099882 13.079552 19.45664 13.43808 19.61826 L 30.03759 27.10111 C 30.42992 27.27797 30.89134 27.103293 31.0682 26.71096 C 31.113576 26.6103 31.137042 26.501145 31.137042 26.39073 L 31.137042 25.828894 C 31.137042 25.436622 30.90769 25.080577 30.550522 24.91838 L 17.842058 19.147243 C 17.339195 18.918884 17.116666 18.326112 17.345025 17.82325 C 17.445097 17.602884 17.621692 17.426289 17.842058 17.326217 L 30.550522 11.555079 C 30.90769 11.392882 31.137042 11.036838 31.137042 10.644566 Z" fill="black" fill-opacity=".7091491"/>
      </g>
      <g id="Graphic_5">
        <title>&lt;</title>
        <path d="M 23.15096 10.644566 L 23.15096 10.06473 C 23.15096 9.628737 22.797517 9.275294 22.361524 9.275294 C 22.249226 9.275294 22.13822 9.299253 22.03592 9.34557 L 5.4505076 16.854714 C 5.092783 17.016675 4.862959 17.373012 4.862959 17.765693 L 4.862959 18.706608 C 4.862959 19.099882 5.093469 19.45664 5.4519975 19.61826 L 22.051506 27.10111 C 22.443838 27.27797 22.905258 27.103293 23.082117 26.71096 C 23.127493 26.6103 23.15096 26.501145 23.15096 26.39073 L 23.15096 25.828894 C 23.15096 25.436622 22.921608 25.080577 22.56444 24.91838 L 9.855975 19.147243 C 9.353113 18.918884 9.130583 18.326112 9.358942 17.82325 C 9.459014 17.602884 9.635609 17.426289 9.855975 17.326217 L 22.56444 11.555079 C 22.921608 11.392882 23.15096 11.036838 23.15096 10.644566 Z" fill="black" fill-opacity=".7091491"/>
      </g>
    </g>
  </g>
</svg>
