<?xml version="1.0" encoding="UTF-8" standalone="no"?>
<!DOCTYPE svg PUBLIC "-//W3C//DTD SVG 1.1//EN" "http://www.w3.org/Graphics/SVG/1.1/DTD/svg11.dtd">
<svg xmlns:dc="http://purl.org/dc/elements/1.1/" xmlns:xl="http://www.w3.org/1999/xlink" xmlns="http://www.w3.org/2000/svg" version="1.1" viewBox="0 0 36 36" width="36" height="36">
  <defs/>
  <metadata> Produced by OmniGraffle 8.0\n2025-06-08 19:32:03 +0000</metadata>
  <g id="question_mark" stroke="none" fill="none" stroke-dasharray="none" stroke-opacity="1" fill-opacity="1">
    <title>question_mark</title>
    <g id="question_mark_Layer_2">
      <title>Layer 2</title>
      <g id="Graphic_3">
        <title>?</title>
        <path d="M 16.585162 25.228493 L 16.585162 26 C 16.585162 26.552285 17.032877 27 17.585162 27 L 18.356669 27 C 18.908953 27 19.356669 26.552285 19.356669 26 L 19.356669 25.228493 C 19.356669 24.67621 18.908953 24.228493 18.356669 24.228493 L 17.585162 24.228493 C 17.032877 24.228493 16.585162 24.67621 16.585162 25.228493 Z M 12.515291 14.740451 L 14.637616 14.740451 C 14.637616 14.15785 14.704198 13.61687 14.837364 13.117497 C 14.97053 12.618124 15.18276 12.18534 15.474062 11.819133 C 15.765363 11.452926 16.127403 11.16163 16.560193 10.945234 C 16.992983 10.728839 17.508994 10.620643 18.108242 10.620643 C 19.007114 10.620643 19.71871 10.878649 20.243051 11.394668 C 20.767393 11.910687 21.06285 12.626444 21.129434 13.541962 C 21.162726 14.157855 21.08782 14.68219 20.904718 15.11498 C 20.721614 15.54777 20.476093 15.9431 20.168146 16.300984 C 19.8602 16.658869 19.527289 17.000102 19.169405 17.324694 C 18.81152 17.649287 18.470287 18.003004 18.145695 18.385857 C 17.821102 18.76871 17.546451 19.205655 17.321733 19.696705 C 17.097015 20.187755 16.968013 20.782832 16.93472 21.481955 L 16.93472 22.068715 C 16.93472 22.392774 17.197423 22.655476 17.521481 22.655476 L 18.57016 22.655476 C 18.83906 22.655476 19.057046 22.43749 19.057046 22.16859 L 19.057046 21.681703 C 19.057046 21.248913 19.119467 20.861905 19.24431 20.520666 C 19.369153 20.179428 19.535609 19.863163 19.74368 19.571862 C 19.951753 19.280561 20.18479 19.00591 20.4428 18.7479 C 20.70081 18.489891 20.962976 18.236047 21.229308 17.98636 C 21.49564 17.720028 21.757808 17.445377 22.015817 17.162399 C 22.273827 16.87942 22.502703 16.571479 22.702452 16.238563 C 22.9022 15.905648 23.064495 15.535285 23.189338 15.127463 C 23.314181 14.719642 23.376602 14.257729 23.376602 13.74171 C 23.376602 12.942713 23.2476 12.235278 22.98959 11.619385 C 22.73158 11.003491 22.36954 10.483319 21.90346 10.058851 C 21.437377 9.634384 20.883914 9.309797 20.243051 9.085079 C 19.60219 8.860361 18.890593 8.748004 18.108242 8.748004 C 17.242662 8.748004 16.460322 8.897813 15.7612 9.197437 C 15.062078 9.497061 14.471162 9.91736 13.988434 10.458348 C 13.505707 10.999336 13.135344 11.636027 12.877335 12.36844 C 12.619325 13.100855 12.498645 13.891517 12.515291 14.740451 Z" fill="black" fill-opacity=".7091491"/>
      </g>
    </g>
  </g>
</svg>
