<?xml version="1.0" encoding="UTF-8" standalone="no"?>
<!DOCTYPE svg PUBLIC "-//W3C//DTD SVG 1.1//EN" "http://www.w3.org/Graphics/SVG/1.1/DTD/svg11.dtd">
<svg xmlns:xl="http://www.w3.org/1999/xlink" xmlns="http://www.w3.org/2000/svg" version="1.1" xmlns:dc="http://purl.org/dc/elements/1.1/" viewBox="0 0 36 36" width="36" height="36">
  <defs/>
  <metadata> Produced by OmniGraffle 8.0\n2025-06-09 07:46:33 +0000</metadata>
  <g id="two_windows" stroke-opacity="1" stroke-dasharray="none" stroke="none" fill="none" fill-opacity="1">
    <title>two_windows</title>
    <g id="two_windows_Layer_2">
      <title>Layer 2</title>
      <g id="Graphic_38">
        <path d="M 6.2235964 30.457625 L 30.457625 30.457625 L 30.457625 6.223596 Z M 29.724633 5.542375 L 5.542375 5.542375 L 5.542375 29.724632 Z" fill="#a5a5a5" fill-opacity=".4958114"/>
        <path d="M 6.2235964 30.457625 L 30.457625 30.457625 L 30.457625 6.223596 Z M 29.724633 5.542375 L 5.542375 5.542375 L 5.542375 29.724632 Z" stroke="black" stroke-opacity=".7059253" stroke-linecap="round" stroke-linejoin="round" stroke-width=".5"/>
      </g>
      <g id="Group_31">
        <title>Title</title>
        <g id="Graphic_26">
          <path d="M 8.782306 8.49617 L 8.782306 12.23617 C 8.782306 12.446039 8.952438 12.61617 9.162306 12.61617 L 9.162306 12.61617 C 9.372175 12.61617 9.542306 12.446039 9.542306 12.23617 L 9.542306 8.49617 C 9.542306 7.970395 9.968531 7.5441705 10.494306 7.5441705 L 11.126306 7.5441705 C 11.303038 7.5441705 11.446306 7.400902 11.446306 7.2241705 L 11.446306 7.2241705 C 11.446306 7.047439 11.303038 6.9041705 11.126306 6.9041705 L 7.1983064 6.9041705 C 7.021575 6.9041705 6.8783064 7.047439 6.8783064 7.2241705 L 6.8783064 7.2241705 C 6.8783064 7.400902 7.021575 7.5441705 7.1983064 7.5441705 L 7.830306 7.5441705 C 8.356082 7.5441705 8.782306 7.970395 8.782306 8.49617 Z" fill="black" fill-opacity=".7091491"/>
        </g>
        <g id="Graphic_27">
          <path d="M 12.686306 7.3961705 L 12.686306 7.2441705 C 12.686306 7.056394 12.534083 6.9041705 12.346306 6.9041705 L 12.346306 6.9041705 C 12.15853 6.9041705 12.006306 7.056394 12.006306 7.2441705 L 12.006306 7.3961705 C 12.006306 7.583947 12.15853 7.73617 12.346306 7.73617 L 12.346306 7.73617 C 12.534083 7.73617 12.686306 7.583947 12.686306 7.3961705 Z M 12.006306 8.82017 L 12.006306 12.27617 C 12.006306 12.463947 12.15853 12.61617 12.346306 12.61617 L 12.346306 12.61617 C 12.534083 12.61617 12.686306 12.463947 12.686306 12.27617 L 12.686306 8.82017 C 12.686306 8.632394 12.534083 8.48017 12.346306 8.48017 L 12.346306 8.48017 C 12.15853 8.48017 12.006306 8.632394 12.006306 8.82017 Z" fill="black" fill-opacity=".7091491"/>
        </g>
        <g id="Graphic_28">
          <path d="M 14.686306 8.06817 L 14.686306 7.5801705 C 14.686306 7.392394 14.534083 7.2401705 14.346306 7.2401705 L 14.346306 7.2401705 C 14.15853 7.2401705 14.006306 7.392394 14.006306 7.5801705 L 14.006306 8.12817 C 14.006306 8.322575 13.84871 8.48017 13.654306 8.48017 L 13.602306 8.48017 C 13.436621 8.48017 13.302306 8.614485 13.302306 8.78017 L 13.302306 8.78017 C 13.302306 8.945856 13.436621 9.08017 13.602306 9.08017 L 13.654306 9.08017 C 13.84871 9.08017 14.006306 9.237766 14.006306 9.43217 L 14.006306 11.71217 C 14.006306 11.904171 14.024973 12.058837 14.062306 12.17617 C 14.09964 12.293504 14.156973 12.38417 14.234306 12.44817 C 14.31164 12.512171 14.412972 12.55617 14.538306 12.58017 C 14.66364 12.60417 14.814306 12.61617 14.990306 12.61617 L 15.250306 12.61617 C 15.3939 12.61617 15.510306 12.499764 15.510306 12.35617 L 15.510306 12.17217 C 15.510306 12.086014 15.440463 12.01617 15.354306 12.01617 L 15.198306 12.01617 C 15.09164 12.01617 15.004973 12.01217 14.938306 12.00417 C 14.87164 11.99617 14.81964 11.978837 14.782306 11.95217 C 14.744973 11.925504 14.71964 11.88817 14.706306 11.84017 C 14.692973 11.79217 14.686306 11.728171 14.686306 11.64817 L 14.686306 9.49217 C 14.686306 9.264629 14.870765 9.08017 15.098306 9.08017 L 15.210306 9.08017 C 15.375992 9.08017 15.510306 8.945856 15.510306 8.78017 L 15.510306 8.78017 C 15.510306 8.614485 15.375992 8.48017 15.210306 8.48017 L 15.098306 8.48017 C 14.870765 8.48017 14.686306 8.295712 14.686306 8.06817 Z" fill="black" fill-opacity=".7091491"/>
        </g>
        <g id="Graphic_29">
          <path d="M 16.302306 7.2441705 L 16.302306 12.27617 C 16.302306 12.463947 16.45453 12.61617 16.642306 12.61617 L 16.642306 12.61617 C 16.830083 12.61617 16.982306 12.463947 16.982306 12.27617 L 16.982306 7.2441705 C 16.982306 7.056394 16.830083 6.9041705 16.642306 6.9041705 L 16.642306 6.9041705 C 16.45453 6.9041705 16.302306 7.056394 16.302306 7.2441705 Z" fill="black" fill-opacity=".7091491"/>
        </g>
        <g id="Graphic_30">
          <path d="M 20.910306 10.15217 L 18.534306 10.15217 C 18.544973 9.99217 18.57964 9.841504 18.638306 9.70017 C 18.696973 9.558836 18.776973 9.434838 18.878306 9.32817 C 18.97964 9.221503 19.100972 9.137504 19.242306 9.07617 C 19.38364 9.014837 19.542306 8.98417 19.718306 8.98417 C 19.888974 8.98417 20.044972 9.014837 20.186306 9.07617 C 20.32764 9.137504 20.450306 9.22017 20.554306 9.32417 C 20.658307 9.428171 20.740973 9.55217 20.802306 9.69617 C 20.86364 9.840171 20.89964 9.99217 20.910306 10.15217 Z M 21.566306 11.30417 L 20.894306 11.30417 C 20.83564 11.576172 20.714307 11.778836 20.530306 11.91217 C 20.346306 12.045504 20.110308 12.11217 19.822306 12.11217 C 19.598305 12.11217 19.40364 12.074837 19.238306 12.00017 C 19.072972 11.925503 18.936974 11.825504 18.830306 11.70017 C 18.72364 11.574836 18.646307 11.430838 18.598306 11.26817 C 18.550306 11.105503 18.528973 10.933505 18.534306 10.75217 L 21.630306 10.75217 C 21.640973 10.501503 21.618307 10.237505 21.562306 9.96017 C 21.506306 9.682836 21.404974 9.426838 21.258306 9.19217 C 21.11164 8.957503 20.916974 8.764171 20.674306 8.61217 C 20.431639 8.46017 20.126308 8.38417 19.758306 8.38417 C 19.475638 8.38417 19.21564 8.437503 18.978306 8.54417 C 18.740972 8.650838 18.53564 8.80017 18.362306 8.99217 C 18.188972 9.184171 18.054307 9.410836 17.958306 9.67217 C 17.862306 9.933505 17.814306 10.221502 17.814306 10.53617 C 17.824973 10.850839 17.87164 11.141502 17.954306 11.40817 C 18.036974 11.674838 18.160972 11.90417 18.326306 12.09617 C 18.49164 12.288171 18.695639 12.437503 18.938306 12.54417 C 19.180974 12.650838 19.467638 12.70417 19.798306 12.70417 C 20.267642 12.70417 20.656972 12.586838 20.966306 12.35217 C 21.275641 12.117503 21.47564 11.768173 21.566306 11.30417 Z" fill="black" fill-opacity=".70145425"/>
        </g>
      </g>
      <g id="Group_39">
        <title>Title</title>
        <g id="Graphic_44">
          <path d="M 16.744224 25.61568 L 16.744224 29.35568 C 16.744224 29.56555 16.914356 29.73568 17.124224 29.73568 L 17.124224 29.73568 C 17.334092 29.73568 17.504224 29.56555 17.504224 29.35568 L 17.504224 25.61568 C 17.504224 25.089906 17.93045 24.66368 18.456224 24.66368 L 19.088224 24.66368 C 19.264955 24.66368 19.408224 24.520412 19.408224 24.34368 L 19.408224 24.34368 C 19.408224 24.16695 19.264955 24.02368 19.088224 24.02368 L 15.160224 24.02368 C 14.983493 24.02368 14.840224 24.16695 14.840224 24.34368 L 14.840224 24.34368 C 14.840224 24.520412 14.983493 24.66368 15.160224 24.66368 L 15.792224 24.66368 C 16.318 24.66368 16.744224 25.089906 16.744224 25.61568 Z" fill="black" fill-opacity=".7091491"/>
        </g>
        <g id="Graphic_43">
          <path d="M 20.648224 24.51568 L 20.648224 24.36368 C 20.648224 24.175905 20.496 24.02368 20.308224 24.02368 L 20.308224 24.02368 C 20.120447 24.02368 19.968224 24.175905 19.968224 24.36368 L 19.968224 24.51568 C 19.968224 24.703458 20.120447 24.85568 20.308224 24.85568 L 20.308224 24.85568 C 20.496 24.85568 20.648224 24.703458 20.648224 24.51568 Z M 19.968224 25.93968 L 19.968224 29.39568 C 19.968224 29.583458 20.120447 29.73568 20.308224 29.73568 L 20.308224 29.73568 C 20.496 29.73568 20.648224 29.583458 20.648224 29.39568 L 20.648224 25.93968 C 20.648224 25.751905 20.496 25.59968 20.308224 25.59968 L 20.308224 25.59968 C 20.120447 25.59968 19.968224 25.751905 19.968224 25.93968 Z" fill="black" fill-opacity=".7091491"/>
        </g>
        <g id="Graphic_42">
          <path d="M 22.648224 25.18768 L 22.648224 24.69968 C 22.648224 24.511905 22.496 24.35968 22.308224 24.35968 L 22.308224 24.35968 C 22.120447 24.35968 21.968224 24.511905 21.968224 24.69968 L 21.968224 25.24768 C 21.968224 25.442086 21.810629 25.59968 21.616224 25.59968 L 21.564224 25.59968 C 21.39854 25.59968 21.264224 25.733996 21.264224 25.89968 L 21.264224 25.89968 C 21.264224 26.065367 21.39854 26.19968 21.564224 26.19968 L 21.616224 26.19968 C 21.810629 26.19968 21.968224 26.357277 21.968224 26.55168 L 21.968224 28.83168 C 21.968224 29.023682 21.98689 29.178347 22.024224 29.29568 C 22.061558 29.413015 22.11889 29.50368 22.196224 29.56768 C 22.273558 29.63168 22.37489 29.67568 22.500224 29.69968 C 22.625558 29.72368 22.776223 29.73568 22.952224 29.73568 L 23.212224 29.73568 C 23.355818 29.73568 23.472224 29.619275 23.472224 29.47568 L 23.472224 29.29168 C 23.472224 29.205525 23.40238 29.13568 23.316224 29.13568 L 23.160224 29.13568 C 23.053557 29.13568 22.96689 29.13168 22.900224 29.12368 C 22.833557 29.11568 22.781558 29.098348 22.744224 29.07168 C 22.70689 29.045015 22.681558 29.00768 22.668224 28.95968 C 22.65489 28.91168 22.648224 28.847682 22.648224 28.76768 L 22.648224 26.61168 C 22.648224 26.38414 22.832683 26.19968 23.060224 26.19968 L 23.172224 26.19968 C 23.33791 26.19968 23.472224 26.065367 23.472224 25.89968 L 23.472224 25.89968 C 23.472224 25.733996 23.33791 25.59968 23.172224 25.59968 L 23.060224 25.59968 C 22.832683 25.59968 22.648224 25.415223 22.648224 25.18768 Z" fill="black" fill-opacity=".7091491"/>
        </g>
        <g id="Graphic_41">
          <path d="M 24.264224 24.36368 L 24.264224 29.39568 C 24.264224 29.583458 24.416447 29.73568 24.604224 29.73568 L 24.604224 29.73568 C 24.792 29.73568 24.944224 29.583458 24.944224 29.39568 L 24.944224 24.36368 C 24.944224 24.175905 24.792 24.02368 24.604224 24.02368 L 24.604224 24.02368 C 24.416447 24.02368 24.264224 24.175905 24.264224 24.36368 Z" fill="black" fill-opacity=".7091491"/>
        </g>
        <g id="Graphic_40">
          <path d="M 28.872224 27.27168 L 26.496224 27.27168 C 26.50689 27.11168 26.541557 26.961015 26.600224 26.81968 C 26.65889 26.678347 26.73889 26.55435 26.840224 26.44768 C 26.941558 26.341014 27.06289 26.257015 27.204224 26.19568 C 27.345558 26.134348 27.504223 26.10368 27.680224 26.10368 C 27.850892 26.10368 28.00689 26.134348 28.148224 26.19568 C 28.28956 26.257015 28.412224 26.33968 28.516224 26.44368 C 28.620225 26.547682 28.70289 26.67168 28.764224 26.81568 C 28.825558 26.959682 28.861558 27.11168 28.872224 27.27168 Z M 29.528224 28.42368 L 28.856224 28.42368 C 28.797557 28.695683 28.676225 28.898347 28.492224 29.03168 C 28.308223 29.165015 28.072226 29.23168 27.784224 29.23168 C 27.560223 29.23168 27.36556 29.19435 27.200224 29.11968 C 27.03489 29.045014 26.89889 28.945015 26.792224 28.81968 C 26.685557 28.694347 26.608225 28.55035 26.560224 28.38768 C 26.512224 28.225014 26.49089 28.053016 26.496224 27.87168 L 29.592224 27.87168 C 29.60289 27.621013 29.580225 27.357016 29.524224 27.07968 C 29.468224 26.802347 29.36689 26.54635 29.220224 26.31168 C 29.073557 26.077014 28.878892 25.883682 28.636224 25.73168 C 28.393556 25.57968 28.088226 25.50368 27.720224 25.50368 C 27.437556 25.50368 27.17756 25.557014 26.940224 25.66368 C 26.70289 25.77035 26.49756 25.91968 26.324224 26.11168 C 26.15089 26.303682 26.016225 26.530347 25.920224 26.79168 C 25.824224 27.053016 25.776224 27.341013 25.776224 27.65568 C 25.78689 27.97035 25.833557 28.261013 25.916224 28.52768 C 25.99889 28.79435 26.12289 29.02368 26.288224 29.21568 C 26.45356 29.407682 26.657556 29.557014 26.900224 29.66368 C 27.142892 29.77035 27.429556 29.82368 27.760224 29.82368 C 28.22956 29.82368 28.61889 29.70635 28.928224 29.47168 C 29.23756 29.237014 29.437557 28.887684 29.528224 28.42368 Z" fill="black" fill-opacity=".70145425"/>
        </g>
      </g>
      <g id="Graphic_49">
        <path d="M 9.72921 16 L 6.45421 18 L 9.72921 20 Z" stroke="#e25329" stroke-opacity=".7006542" stroke-linecap="round" stroke-linejoin="round" stroke-width=".5"/>
      </g>
      <g id="Graphic_51">
        <path d="M 26.27079 20 L 29.54579 18 L 26.27079 16 Z" stroke="#e25329" stroke-opacity=".7006542" stroke-linecap="round" stroke-linejoin="round" stroke-width=".5"/>
      </g>
      <g id="Group_56">
        <title>sync</title>
        <g id="Graphic_52">
          <path d="M 11.4865 18.76151 L 10.8915 18.76151 C 10.900834 18.985512 10.9475 19.175676 11.0315 19.33201 C 11.115501 19.488345 11.2275 19.614343 11.3675 19.71001 C 11.507501 19.805678 11.6685 19.87451 11.8505 19.91651 C 12.032501 19.95851 12.223833 19.97951 12.4245 19.97951 C 12.606501 19.97951 12.789666 19.96201 12.974 19.92701 C 13.158335 19.89201 13.324 19.830178 13.471 19.74151 C 13.618001 19.652843 13.737 19.536178 13.828 19.39151 C 13.919 19.246843 13.9645 19.064845 13.9645 18.84551 C 13.9645 18.672843 13.930667 18.528178 13.863 18.41151 C 13.795333 18.294843 13.706667 18.19801 13.597 18.12101 C 13.487333 18.04401 13.361334 17.982177 13.219 17.93551 C 13.076666 17.888844 12.930834 17.849177 12.7815 17.81651 C 12.6415 17.783844 12.501501 17.752344 12.3615 17.72201 C 12.2215 17.691677 12.095501 17.654344 11.9835 17.61001 C 11.8715 17.565677 11.779334 17.509677 11.707 17.44201 C 11.634667 17.374343 11.5985 17.289178 11.5985 17.18651 C 11.5985 17.093177 11.621833 17.017344 11.6685 16.95901 C 11.715167 16.900677 11.775833 16.85401 11.8505 16.81901 C 11.925167 16.78401 12.008 16.75951 12.099 16.74551 C 12.19 16.73151 12.279833 16.72451 12.3685 16.72451 C 12.466501 16.72451 12.563333 16.73501 12.659 16.75601 C 12.754667 16.77701 12.842167 16.810844 12.9215 16.85751 C 13.000834 16.904177 13.066167 16.96601 13.1175 17.04301 C 13.168834 17.12001 13.199167 17.216843 13.2085 17.33351 L 13.8035 17.33351 C 13.7895 17.114176 13.742834 16.931011 13.6635 16.78401 C 13.584167 16.63701 13.478001 16.520344 13.345 16.43401 C 13.212 16.347677 13.059168 16.28701 12.8865 16.25201 C 12.713833 16.21701 12.524835 16.19951 12.3195 16.19951 C 12.160833 16.19951 12.001001 16.219344 11.84 16.25901 C 11.679 16.298677 11.534334 16.359343 11.406 16.44101 C 11.277666 16.522678 11.172667 16.628843 11.091 16.75951 C 11.009333 16.890178 10.9685 17.04651 10.9685 17.22851 C 10.9685 17.461845 11.026833 17.643843 11.1435 17.77451 C 11.260168 17.905178 11.406 18.006677 11.581 18.07901 C 11.756001 18.151344 11.946166 18.207344 12.1515 18.24701 C 12.356835 18.286677 12.547 18.33101 12.722 18.38001 C 12.897001 18.42901 13.042833 18.493177 13.1595 18.57251 C 13.276168 18.651844 13.3345 18.76851 13.3345 18.92251 C 13.3345 19.03451 13.3065 19.126677 13.2505 19.19901 C 13.1945 19.271344 13.123334 19.326177 13.037 19.36351 C 12.950667 19.400844 12.856167 19.42651 12.7535 19.44051 C 12.650833 19.45451 12.552834 19.46151 12.4595 19.46151 C 12.338166 19.46151 12.220334 19.449844 12.106 19.42651 C 11.991666 19.403177 11.889001 19.364677 11.798 19.31101 C 11.707 19.257344 11.6335 19.18501 11.5775 19.09401 C 11.5215 19.00301 11.491167 18.892178 11.4865 18.76151 Z" fill="#e25329" fill-opacity=".7006542"/>
        </g>
        <g id="Graphic_53">
          <path d="M 16.0435 20.38551 C 15.9735 20.562845 15.904667 20.712177 15.837 20.83351 C 15.769333 20.954844 15.694667 21.05401 15.613 21.13101 C 15.531333 21.20801 15.440334 21.26401 15.34 21.29901 C 15.239666 21.33401 15.124168 21.35151 14.9935 21.35151 C 14.9235 21.35151 14.8535 21.346844 14.7835 21.33751 C 14.7135 21.328177 14.645834 21.311844 14.5805 21.28851 L 14.5805 20.74251 C 14.631834 20.765844 14.691333 20.785677 14.759 20.80201 C 14.826667 20.818344 14.883833 20.82651 14.9305 20.82651 C 15.051834 20.82651 15.153333 20.797344 15.235 20.73901 C 15.316667 20.680677 15.3785 20.597844 15.4205 20.49051 L 15.543 20.18601 C 15.62163 19.99056 15.621956 19.772331 15.54391 19.576646 L 14.354973 16.595604 C 14.30838 16.478781 14.365313 16.346306 14.482136 16.299713 C 14.508975 16.28901 14.537606 16.28351 14.5665 16.28351 L 14.5665 16.28351 C 14.76799 16.28351 14.947722 16.41019 15.015462 16.599953 L 15.9595 19.24451 L 15.9735 19.24451 L 16.886356 16.58149 C 16.947458 16.40324 17.11507 16.28351 17.3035 16.28351 L 17.3035 16.28351 C 17.423056 16.28351 17.519975 16.38043 17.519975 16.499985 C 17.519975 16.526512 17.515099 16.552814 17.50559 16.577579 Z" fill="#e25329" fill-opacity=".7006542"/>
        </g>
        <g id="Graphic_54">
          <path d="M 18.1225 16.56351 L 18.1225 19.60501 C 18.1225 19.769315 18.255696 19.90251 18.42 19.90251 L 18.42 19.90251 C 18.584305 19.90251 18.7175 19.769315 18.7175 19.60501 L 18.7175 17.85851 C 18.7175 17.695176 18.739667 17.544678 18.784 17.40701 C 18.828334 17.269343 18.894833 17.149178 18.9835 17.04651 C 19.072167 16.943843 19.183 16.86451 19.316 16.80851 C 19.449 16.75251 19.6065 16.72451 19.7885 16.72451 C 20.017168 16.72451 20.196833 16.789843 20.3275 16.92051 C 20.458168 17.051178 20.5235 17.22851 20.5235 17.45251 L 20.5235 19.60501 C 20.5235 19.769315 20.656696 19.90251 20.821 19.90251 L 20.821 19.90251 C 20.985305 19.90251 21.1185 19.769315 21.1185 19.60501 L 21.1185 17.52251 C 21.1185 17.32651 21.098667 17.148011 21.059 16.98701 C 21.019333 16.82601 20.9505 16.687178 20.8525 16.57051 C 20.7545 16.453843 20.626168 16.362844 20.4675 16.29751 C 20.308833 16.232177 20.110501 16.19951 19.8725 16.19951 C 19.33583 16.19951 18.943835 16.418842 18.6965 16.85751 L 18.6825 16.85751 L 18.6825 16.56351 C 18.6825 16.40887 18.55714 16.28351 18.4025 16.28351 L 18.4025 16.28351 C 18.24786 16.28351 18.1225 16.40887 18.1225 16.56351 Z" fill="#e25329" fill-opacity=".7006542"/>
        </g>
        <g id="Graphic_55">
          <path d="M 24.4715 17.44551 L 25.0875 17.44551 C 25.064167 17.230843 25.008167 17.045345 24.9195 16.88901 C 24.830833 16.732676 24.717668 16.603178 24.58 16.50051 C 24.442333 16.397843 24.283668 16.32201 24.104 16.27301 C 23.924333 16.22401 23.731835 16.19951 23.5265 16.19951 C 23.241832 16.19951 22.992168 16.249677 22.7775 16.35001 C 22.562833 16.450344 22.384334 16.58801 22.242 16.76301 C 22.099666 16.938011 21.9935 17.143343 21.9235 17.37901 C 21.8535 17.614678 21.8185 17.867842 21.8185 18.13851 C 21.8185 18.409178 21.854667 18.657676 21.927 18.88401 C 21.999334 19.110345 22.106666 19.305176 22.249 19.46851 C 22.391334 19.631845 22.568666 19.757843 22.781 19.84651 C 22.993335 19.935178 23.237166 19.97951 23.5125 19.97951 C 23.974503 19.97951 24.339666 19.858178 24.608 19.61551 C 24.876335 19.372843 25.043167 19.027513 25.1085 18.57951 L 24.4995 18.57951 C 24.462167 18.859512 24.360668 19.07651 24.195 19.23051 C 24.029333 19.384511 23.799502 19.46151 23.5055 19.46151 C 23.318833 19.46151 23.157834 19.424178 23.0225 19.34951 C 22.887166 19.274843 22.7775 19.175678 22.6935 19.05201 C 22.6095 18.928343 22.547667 18.787178 22.508 18.62851 C 22.468333 18.469843 22.4485 18.306511 22.4485 18.13851 C 22.4485 17.95651 22.467167 17.780345 22.5045 17.61001 C 22.541834 17.439676 22.603667 17.289178 22.69 17.15851 C 22.776334 17.027843 22.891833 16.922844 23.0365 16.84351 C 23.181168 16.764177 23.360833 16.72451 23.5755 16.72451 C 23.827502 16.72451 24.028166 16.78751 24.1775 16.91351 C 24.326834 17.039511 24.424833 17.216843 24.4715 17.44551 Z" fill="#e25329" fill-opacity=".7006542"/>
        </g>
      </g>
    </g>
  </g>
</svg>
