<?xml version="1.0" encoding="UTF-8" standalone="no" ?>
<!DOCTYPE svg PUBLIC "-//W3C//DTD SVG 1.1//EN"
    "http://www.w3.org/Graphics/SVG/1.1/DTD/svg11.dtd">
<svg
    xmlns:xl="http://www.w3.org/1999/xlink"
    xmlns="http://www.w3.org/2000/svg"
    version="1.1"
    xmlns:dc="http://purl.org/dc/elements/1.1/"
    viewBox="200 30 919 419"
    width="719"
    height="389"
>
<style>
  @import url('/LectureDoc2/ext/fonts/ld-fonts.css');
</style>
  <metadata> Produced by OmniGraffle 8.0\n2024-01-30 09:01:54 +0000</metadata>
  <g
        id="Canvas_1"
        stroke-opacity="1"
        stroke-dasharray="none"
        fill="none"
        stroke="none"
        fill-opacity="1"
    >
    <title>architecture</title>
    <g id="drawing-area_Master_layer">
      <title>Master layer</title>
      <g id="Graphic_2">
        <rect x="10" y="10" width="905" height="405" fill="white" />
      </g>
    </g>
    <g id="Canvas_1_entities">
      <title>entities</title>
      <g id="Line_166">
        <path
                    d="M 566.73805 357.29476 C 566.73805 357.29476 368.56466 389.13098 316.32198 303.15574 C 264.0793 217.1805 291.67607 103.87296 382.33368 53.822406 C 472.9913 3.771855 583.7735 40.97504 636.322 126.48907 C 688.8705 212.0031 567.81755 355.6668 567.81755 355.6668"
                    stroke="black"
                    stroke-linecap="round"
                    stroke-linejoin="round"
                    stroke-width="0"
                />
      </g>
      <g id="Line_165">
        <path
                    d="M 642.8997 147.63814 C 642.8997 147.63814 605.31546 348.2936 509.1824 378.10117 C 413.04936 407.90875 328.8625 351.9969 303.57265 252.8519 C 278.2828 153.70692 324.1485 58.36506 419.91523 28.142694 C 515.68194 -2.079669 641.6066 146.17408 641.6066 146.17408"
                    stroke="black"
                    stroke-linecap="round"
                    stroke-linejoin="round"
                    stroke-width="0"
                />
      </g>
      <g id="Line_162">
        <path
                    d="M 287.81288 219.2035 C 287.81288 219.2035 376.0499 35.112753 476.6221 31.2019 C 577.19424 27.291046 644.0415 103.08692 642.80896 205.39912 C 641.57646 307.7113 572.5973 387.93356 472.27163 392.33987 C 371.94597 396.7462 288.68297 220.95236 288.68297 220.95236"
                    stroke="black"
                    stroke-linecap="round"
                    stroke-linejoin="round"
                    stroke-width="0"
                />
      </g>
      <g id="Graphic_154">
        <circle
                    cx="469.1923"
                    cy="209"
                    r="65.5001046625742"
                    fill="#d5d5d5"
                    fill-opacity=".34218177"
                />
        <circle
                    cx="469.1923"
                    cy="209"
                    r="65.5001046625742"
                    stroke="black"
                    stroke-linecap="round"
                    stroke-linejoin="round"
                    stroke-width="1"
                />
        <text transform="translate(421.7923 199.5)" fill="black">
          <tspan
                        font-family="Noto Sans Display"
                        font-size="16"
                        font-weight="400"
                        fill="black"
                        x="21.165627"
                        y="15"
                    >Entities</tspan>
        </text>
      </g>
      <g id="Line_152">
        <path
                    d="M 472.72304 308.5 C 472.72304 308.5 385.13957 267.2116 383.72304 216.5 C 382.3065 165.7884 419.2892 129.51132 467.72304 129.5 C 516.1569 129.48868 553.26656 166.03175 554.6831 216.46005 C 556.0996 266.88834 472.72304 307.5 472.72304 307.5"
                    stroke="black"
                    stroke-linecap="round"
                    stroke-linejoin="round"
                    stroke-width="0"
                />
      </g>
      <g id="Line_150">
        <path
                    d="M 477.359 350.5 C 477.359 350.5 340.1792 294.26052 337.34613 217.16667 C 334.5131 140.07281 390.29638 79.69892 467.359 78.37683 C 544.4216 77.05474 606.1482 135.59502 609.359 212.5 C 612.56976 289.405 478.6923 349.83333 478.6923 349.83333"
                    stroke="black"
                    stroke-linecap="round"
                    stroke-linejoin="round"
                    stroke-width="0"
                />
      </g>
    </g>
  </g>
</svg>
