<svg xmlns="http://www.w3.org/2000/svg" width="1801" height="660" viewBox="-3 132 1201 440">
    <style>
        @import url(/LectureDoc2/ext/fonts/ld-fonts.css);
        text,tspan{
          font-family:&quot;Noto Sans Display&quot;,&quot;Noto Sans&quot;,&quot;Helvetica Neue&quot;,Arial,sans-serif;
          font-weight:300
        }
        .line{stroke:#000;stroke-width:3}
        .arrow-line,.line,.outline-4{stroke-linecap:round;stroke-linejoin:round}
        .arrow-line{stroke:#000;stroke-width:3;marker-end:url(#FilledArrow_Marker)}
        .outline-4{stroke:#344463;stroke-width:4}
    </style>
    <defs>
        <marker id="FilledArrow_Marker" stroke-linejoin="miter" stroke-miterlimit="10" color="#000" markerHeight="6" markerUnits="strokeWidth" markerWidth="6" orient="auto" overflow="visible" viewBox="-1 -3 6 6">
            <path fill="currentColor" stroke="currentColor" d="M3.733 0 0-1.4v2.8Z"/>
        </marker>
        <filter id="Shadow" x="-123.1" y="88" filterUnits="userSpaceOnUse">
            <feGaussianBlur in="SourceAlpha" result="blur" stdDeviation="1.308"/>
            <feOffset dy="2" in="blur" result="offset"/>
            <feFlood flood-color="#000" flood-opacity=".5" result="flood"/>
            <feComposite in="flood" in2="offset" operator="in" result="color"/>
            <feMerge>
                <feMergeNode in="color"/>
                <feMergeNode in="SourceGraphic"/>
            </feMerge>
        </filter>
    </defs>
    <g fill="none">
        <path fill="#fff" d="M-3 132h1201v440H-3z"/>
        <g filter="url(#Shadow)">
            <path fill="#fff" d="M29.469 193h111.469a8 8 0 0 1 8 8v91.2c-38.241-12.4-89.229 37.2-127.47 12.4V201a8 8 0 0 1 8-8"/>
            <clipPath id="clip_path">
                <path fill="#fff" d="M8 0h111.469a8 8 0 0 1 8 8v91.2C89.229 86.8 38.24 136.4 0 111.6V8a8 8 0 0 1 8-8"/>
            </clipPath>
            <text fill="#000" clip-path="url(#clip_path)" transform="translate(26.469 198)">
          <tspan x="0" y="25" font-size="26">Nach-</tspan>
          <tspan x="0" y="56" font-size="26">richten-</tspan>
          <tspan x="0" y="87" font-size="26">quelle</tspan>
        </text>
        </g>
        <g filter="url(#Shadow)">
            <path fill="#fff" d="M1071.599 193h107a8 8 0 0 1 8 8v91.2c-36.9-12.4-86.1 37.2-123 12.4V201a8 8 0 0 1 8-8"/>
            <clipPath id="clip_path_2">
                <path fill="#fff" d="M8 0h107a8 8 0 0 1 8 8v91.2C86.1 86.8 36.9 136.4 0 111.6V8a8 8 0 0 1 8-8"/>
            </clipPath>
            <text fill="#000" clip-path="url(#clip_path_2)" transform="translate(1068.599 198)">
          <tspan x="35.553" y="25" font-size="26">Ziel</tspan>
        </text>
        </g>
        <path fill="#ffc0c0" d="M216.469 185h123v132h-123z"/>
        <path d="M216.469 185h123v132h-123z" class="outline-4"/>
        <text fill="#344463" transform="translate(221.469 190)">
          <tspan x="0" y="21" font-size="22">Verschlüs-</tspan>
          <tspan x="0" y="47" font-size="22">selungs-</tspan>
          <tspan x="0" y="73" font-size="22">alg.</tspan>
        </text>
        <text fill="#000" transform="translate(299 270.5)">
          <tspan x="0" y="28" font-family="Apple Color Emoji" font-size="28">🔒</tspan>
        </text>
        <path fill="#c0ffc0" d="M681 185h123v132H681z"/>
        <path d="M681 185h123v132H681z" class="outline-4"/>
        <text fill="#344463" transform="translate(686 190)">
          <tspan x="0" y="21" font-size="22">Entschlüs-</tspan>
          <tspan x="0" y="47" font-size="22">selungs-</tspan>
          <tspan x="0" y="73" font-size="22">alg.</tspan>
        </text>
        <text fill="#000" transform="translate(768.401 270.5)">
          <tspan x="0" y="28" font-family="Apple Color Emoji" font-size="28">🔓</tspan>
        </text>
        <text fill="#000" transform="translate(136.969 258)">
          <tspan x="30.428" y="28" font-size="28" font-style="italic">X</tspan>
        </text>
        <path fill="#c0c0ff" d="M232.225 466.511h149c5.522 0 10 4.477 10 10v85c0 5.523-4.478 10-10 10h-149c-5.523 0-10-4.477-10-10v-85c0-5.523 4.477-10 10-10"/>
        <text fill="#000" transform="translate(227.225 487.511)">
          <tspan x="13.125" y="20" font-size="22">Schlüsselpaar</tspan>
          <tspan x="26.569" y="57" font-size="28">Quelle A</tspan>
        </text>
        <path d="m302.386 466.511-1.262-129.612" class="arrow-line"/>
        <path d="M658 442.824H469.57l-.602-107.924" class="arrow-line"/>
        <text fill="#000" transform="translate(235.921 145.412)">
          <tspan x="0" y="23" font-size="24">Quelle A</tspan>
        </text>
        <path d="M-1 185v-50h550V185" class="line"/>
        <text fill="#000" transform="translate(396.225 467.144)" font-style="italic">
          <tspan x="0" y="28" font-size="28" >PU</tspan><tspan y="38" font-size="24">a</tspan>
        </text>
        <text fill="#000" transform="translate(244.22 414.324)" font-style="italic">
          <tspan x="0" y="28" font-size="28" >PR</tspan><tspan y="38" font-size="24">a</tspan>
        </text>
        <text fill="#000" transform="translate(901.486 144.824)">
          <tspan x="0" y="23" font-size="24">Ziel B</tspan>
        </text>
        <path d="M656 185v-50h540V185" class="line"/>
        <path fill="#ffc0c0" d="M407 185h123v132H407z"/>
        <path d="M407 185h123v132H407z" class="outline-4"/>
        <text fill="#344463" transform="translate(412 190)">
          <tspan x="0" y="21" font-size="22">Verschlüs-</tspan>
          <tspan x="0" y="47" font-size="22">selungs-</tspan>
          <tspan x="0" y="73" font-size="22">alg.</tspan>
        </text>
        <text fill="#000" transform="translate(492.5 270.5)">
          <tspan x="0" y="28" font-family="Apple Color Emoji" font-size="28">🔒</tspan>
        </text>
        <path fill="#c0ffc0" d="M871 185h123v132H871z"/>
        <path d="M871 185h123v132H871z" class="outline-4"/>
        <text fill="#344463" transform="translate(876 190)">
          <tspan x="0" y="21" font-size="22">Entschlüs-</tspan>
          <tspan x="0" y="47" font-size="22">selungs-</tspan>
          <tspan x="0" y="73" font-size="22">alg.</tspan>
        </text>
        <text fill="#000" transform="translate(958.401 270.5)">
          <tspan x="0" y="28" font-family="Apple Color Emoji" font-size="28">🔓</tspan>
        </text>
        <path d="M391.225 519.011h541.73l-.313-184.111" class="arrow-line"/>
        <path fill="#c0c0ff" d="M668 390.324h149c5.523 0 10 4.477 10 10v85c0 5.523-4.477 10-10 10H668c-5.523 0-10-4.477-10-10v-85c0-5.523 4.477-10 10-10"/>
        <text fill="#000" transform="translate(663 411.324)">
          <tspan x="13.125" y="20" font-size="22">Schlüsselpaar</tspan>
          <tspan x="25.804" y="57" font-size="28">Quelle B</tspan>
        </text>
        <path d="M742.5 390.324V332.9" class="arrow-line"/>
        <text fill="#000" transform="translate(585.477 389.091)">
          <tspan x="0" y="28" font-size="28" font-style="italic">PU</tspan><tspan y="38" font-size="24" font-style="italic">b</tspan>
        </text>
        <text fill="#000" transform="translate(755.167 338.324)">
          <tspan x="0" y="28" font-size="28" font-style="italic">PR</tspan><tspan y="38" font-size="24" font-style="italic">b</tspan>
        </text>
        <text fill="#000" transform="translate(322.469 258)">
          <tspan x="30.428" y="28" font-size="28" font-style="italic">Y</tspan>
        </text>
        <text fill="#000" transform="translate(566.503 258)">
          <tspan x="31.214" y="28" font-size="28" font-style="italic">Z</tspan>
        </text>
        <text fill="#000" transform="translate(796.672 258)">
          <tspan x="30.428" y="28" font-size="28" font-style="italic">Y</tspan>
        </text>
        <text fill="#000" transform="translate(983.5 258)">
          <tspan x="30.428" y="28" font-size="28" font-style="italic">X</tspan>
        </text>
        <path d="M148 252h52.569" class="arrow-line"/>
        <path d="M339.5 249.5h52.569" class="arrow-line"/>
        <path d="M532.5 249.5h132.6" class="arrow-line"/>
        <path d="M808.5 250h48.569" class="arrow-line"/>
        <path d="M998 250h49.699" class="arrow-line"/>
    </g>
</svg>
