<svg xmlns="http://www.w3.org/2000/svg" width="1434" height="763" viewBox="50 -18 956 509">
    <style>
        @import url(/LectureDoc2/ext/fonts/ld-fonts.css);
        text,tspan{font-family:&quot;Noto Sans Display&quot;,&quot;Noto Sans&quot;,&quot;Helvetica Neue&quot;,Arial,sans-serif;font-weight:300;}
        .line{stroke:#000;stroke-width:3}
        .arrow-line,.line,.outline-4{stroke-linecap:round;stroke-linejoin:round}
        .arrow-line{stroke:#000;stroke-width:3;marker-end:url(#FilledArrow_Marker)}
        .outline-4{stroke:#344463;stroke-width:4}
    </style>
    <defs>
        <marker id="FilledArrow_Marker" stroke-linejoin="miter" stroke-miterlimit="10" color="#000" markerHeight="6" markerUnits="strokeWidth" markerWidth="6" orient="auto" overflow="visible" viewBox="-1 -3 6 6">
            <path fill="currentColor" stroke="currentColor" d="M3.733 0 0-1.4v2.8Z"/>
        </marker>
        <filter id="Shadow" x="-45.6" y="-68.9" filterUnits="userSpaceOnUse">
            <feGaussianBlur in="SourceAlpha" result="blur" stdDeviation="1.308"/>
            <feOffset dy="2" in="blur" result="offset"/>
            <feFlood flood-color="#000" flood-opacity=".5" result="flood"/>
            <feComposite in="flood" in2="offset" operator="in" result="color"/>
            <feMerge>
                <feMergeNode in="color"/>
                <feMergeNode in="SourceGraphic"/>
            </feMerge>
        </filter>
    </defs>
    <g id="authentication" fill="none" fill-opacity="1" stroke="none" stroke-dasharray="none" stroke-opacity="1">
        <title>authentication</title>
        <path fill="#fff" d="M50-18h956v509H50z"/>
        <title>Layer 1</title>
        <g filter="url(#Shadow)">
            <path fill="#fff" d="M71.408 189h111.468a8 8 0 0 1 8 8v91.2c-38.24-12.4-89.228 37.2-127.468 12.4V197a8 8 0 0 1 8-8"/>
            <clipPath id="clip_path">
                <path fill="#fff" d="M8 0h111.469a8 8 0 0 1 8 8v91.2C89.229 86.8 38.24 136.4 0 111.6V8a8 8 0 0 1 8-8"/>
            </clipPath>
            <text fill="#000" clip-path="url(#clip_path)" transform="translate(68.408 194)">
          <tspan x="3" y="28" font-size="26">Nach-</tspan>
          <tspan x="3" y="64" font-size="26">richten-</tspan>
          <tspan x="3" y="100" font-size="26">quelle</tspan>
        </text>
        </g>
        <g filter="url(#Shadow)">
            <path fill="#fff" d="M879.442 191.75h107a8 8 0 0 1 8 8v91.2c-36.9-12.4-86.1 37.2-123 12.4v-103.6a8 8 0 0 1 8-8"/>
            <clipPath id="clip_path_2">
                <path fill="#fff" d="M8 0h107a8 8 0 0 1 8 8v91.2C86.1 86.8 36.9 136.4 0 111.6V8a8 8 0 0 1 8-8"/>
            </clipPath>
            <text fill="#000" clip-path="url(#clip_path_2)" transform="translate(876.442 196.75)">
          <tspan x="36.194" y="28" font-size="26">Ziel</tspan>
        </text>
        </g>
        <text fill="#000" transform="translate(381 259)" font-size="28">
          <tspan x="16.073" y="30" font-size="28" font-style="italic">Y</tspan><tspan y="30" font-size="28"> = E(</tspan><tspan y="30" font-style="italic">PR</tspan><tspan y="38" font-size="24" font-style="italic">a</tspan><tspan y="30">,</tspan><tspan y="30" font-style="italic">X </tspan><tspan y="30">)</tspan>
        </text>
        <path fill="#ffc0c0" d="M239.469 185h123v132h-123z"/>
        <path d="M239.469 185h123v132h-123z" class="outline-4"/>
        <text fill="#344463" transform="translate(244.469 190)">
          <tspan x="0" y="24" font-size="22">Verschlüs-</tspan>
          <tspan x="0" y="54" font-size="22">selungs-</tspan>
          <tspan x="0" y="84" font-size="22">alg.</tspan>
        </text>
        <text fill="#000" transform="translate(313.469 258)">
          <tspan x="0" y="28" font-family="Apple Color Emoji" font-size="28">🔒</tspan>
        </text>
        <path fill="#c0ffc0" d="M626.505 185.25h123v132h-123z"/>
        <path d="M626.505 185.25h123v132h-123z" class="outline-4"/>
        <text fill="#344463" transform="translate(631.505 190.25)">
          <tspan x="0" y="24" font-size="22">Entschlüs-</tspan>
          <tspan x="0" y="54" font-size="22">selungs-</tspan>
          <tspan x="0" y="84" font-size="22">alg.</tspan>
        </text>
        <text fill="#000" transform="translate(702.505 258.25)">
          <tspan x="0" y="28" font-family="Apple Color Emoji" font-size="28">🔓</tspan>
        </text>
        <text fill="#000" transform="translate(173.008 257)">
          <tspan x="32.682" y="30" font-size="28" font-style="italic">X</tspan>
        </text>
        <text fill="#000" transform="translate(754.505 259)" font-size="28">
          <tspan x="43" y="30" font-style="italic">X </tspan><tspan y="30" font-size="28">=</tspan>
          <tspan x="6" y="66">D(</tspan><tspan y="66" font-style="italic">PU</tspan><tspan y="74" font-size="24" font-style="italic">a</tspan><tspan y="66">,</tspan><tspan y="66" font-style="italic">Y </tspan><tspan y="66">)</tspan>
        </text>
        <path d="M190.876 251h32.693" class="arrow-line"/>
        <path d="M366.469 253H610" class="arrow-line"/>
        <path d="M749.505 253.75h106.037" class="arrow-line"/>
        <path fill="#f7788a" d="M445.766-17.5h149c5.523 0 10 4.477 10 10v85c0 5.523-4.477 10-10 10h-149c-5.523 0-10-4.477-10-10v-85c0-5.523 4.477-10 10-10"/>
        <text fill="#000" transform="translate(440.766 -3)">
          <tspan x="33.902" y="30" font-size="28">Krypto-</tspan>
          <tspan x="17.942" y="68" font-size="28">analytiker</tspan>
        </text>
        <path fill="#c0c0ff" d="M226.469 385.5h149c5.523 0 10 4.477 10 10v85c0 5.523-4.477 10-10 10h-149c-5.523 0-10-4.477-10-10v-85c0-5.523 4.477-10 10-10"/>
        <text fill="#000" transform="translate(221.469 402.5)">
          <tspan x="13" y="20" font-size="22">Schlüsselpaar </tspan>
          <tspan x="39.292" y="63" font-size="28">Quelle</tspan>
        </text>
        <text fill="#000" transform="translate(665.19 14.48)">
            <tspan x="4.414" y="30" font-size="28" font-style="italic">PR</tspan><tspan y="38" font-size="24" font-style="italic">a</tspan>
          </text>
        <text fill="#000" transform="translate(665.19 -2.52)">
            <tspan x="19.702" y="30" font-size="28">^</tspan>
          </text>
        <path d="M476.266 253V103.4" class="arrow-line"/>
        <path d="m301.94 385.5.945-51.103" class="arrow-line"/>
        <path d="M385.469 439.754h110.433l201.603-.82V335.818" class="arrow-line"/>
        <path d="M604.5 39.5h42.456" class="arrow-line"/>
        <path d="M574.589 439.434v-12l.005-90.942.124-75.992c-7.5-.012-7.476-15.012.024-15l.232-142.1" class="arrow-line"/>
        <text fill="#000" transform="translate(173.008 140.966)">
          <tspan x="0" y="26" font-size="24">Quelle A</tspan>
        </text>
        <path d="M51.732 189v-50.885H376v51.64" class="line"/>
        <text fill="#000" transform="translate(397.544 381.754)">
          <tspan x="0" y="30" font-size="28" font-style="italic">PU</tspan><tspan y="38" font-size="24" font-style="italic">a</tspan>
        </text>
        <text fill="#000" transform="translate(249.197 328.034)">
          <tspan x="0" y="30" font-size="28" font-style="italic">PR</tspan><tspan y="38" font-size="24" font-style="italic">a</tspan>
        </text>
        <text fill="#000" transform="translate(780.782 149.365)">
          <tspan x="0" y="26" font-size="24">Ziel B</tspan>
        </text>
        <path d="M613.38 187.365v-49h390.502v49" class="line"/>
    </g>
</svg>
