<?xml version="1.0" encoding="UTF-8" standalone="no" ?>
<!DOCTYPE svg PUBLIC "-//W3C//DTD SVG 1.1//EN"
    "http://www.w3.org/Graphics/SVG/1.1/DTD/svg11.dtd">
<svg
    xmlns:xl="http://www.w3.org/1999/xlink"
    xmlns="http://www.w3.org/2000/svg"
    xmlns:dc="http://purl.org/dc/elements/1.1/"
    version="1.1"
    viewBox="-198 92 871 465"
    width="1840"
    height="982"
>
<style>
  @import url('/LectureDoc2/ext/fonts/ld-fonts.css');
</style>
  <defs>
    <marker
            orient="auto"
            overflow="visible"
            markerUnits="strokeWidth"
            id="FilledArrow_Marker"
            stroke-linejoin="miter"
            stroke-miterlimit="10"
            viewBox="-1 -3 7 6"
            markerWidth="7"
            markerHeight="6"
            color="#003776"
        >
      <g>
        <path
                    d="M 4.8 0 L 0 -1.8 L 0 1.8 Z"
                    fill="currentColor"
                    stroke="currentColor"
                    stroke-width="1"
                />
      </g>
    </marker>
  </defs>
  <metadata> Produced by OmniGraffle 8.0\n2024-10-20 08:14:01 +0000</metadata>
  <g
        id="overview"
        stroke-dasharray="none"
        fill-opacity="1"
        fill="none"
        stroke="none"
        stroke-opacity="1"
    >
    <title>overview</title>
    <g id="overview_main-pass-through">
      <title>main-pass-through</title>
      <g id="Line_485">
        <line
                    x1="56"
                    y1="143"
                    x2="56"
                    y2="452.06986"
                    marker-end="url(#FilledArrow_Marker)"
                    stroke="#003776"
                    stroke-linecap="round"
                    stroke-linejoin="round"
                    stroke-dasharray="8.0,8.0"
                    stroke-width="2"
                />
      </g>
      <g id="Line_484">
        <line
                    x1="124.22944"
                    y1="143.34033"
                    x2="124.22944"
                    y2="452.4102"
                    marker-end="url(#FilledArrow_Marker)"
                    stroke="#003776"
                    stroke-linecap="round"
                    stroke-linejoin="round"
                    stroke-dasharray="8.0,8.0"
                    stroke-width="2"
                />
      </g>
      <g id="Line_483">
        <line
                    x1="194.22944"
                    y1="143"
                    x2="194.22944"
                    y2="452.06986"
                    marker-end="url(#FilledArrow_Marker)"
                    stroke="#003776"
                    stroke-linecap="round"
                    stroke-linejoin="round"
                    stroke-dasharray="8.0,8.0"
                    stroke-width="2"
                />
      </g>
      <g id="Line_482">
        <line
                    x1="264.22944"
                    y1="143"
                    x2="264.22944"
                    y2="452.06986"
                    marker-end="url(#FilledArrow_Marker)"
                    stroke="#003776"
                    stroke-linecap="round"
                    stroke-linejoin="round"
                    stroke-dasharray="8.0,8.0"
                    stroke-width="2"
                />
      </g>
      <g id="Line_481">
        <line
                    x1="334.22944"
                    y1="143"
                    x2="334.22944"
                    y2="452.06986"
                    marker-end="url(#FilledArrow_Marker)"
                    stroke="#003776"
                    stroke-linecap="round"
                    stroke-linejoin="round"
                    stroke-dasharray="8.0,8.0"
                    stroke-width="2"
                />
      </g>
      <g id="Line_480">
        <line
                    x1="404.22944"
                    y1="143"
                    x2="404.22944"
                    y2="452.06986"
                    marker-end="url(#FilledArrow_Marker)"
                    stroke="#003776"
                    stroke-linecap="round"
                    stroke-linejoin="round"
                    stroke-dasharray="8.0,8.0"
                    stroke-width="2"
                />
      </g>
      <g id="Line_479">
        <line
                    x1="474.22944"
                    y1="143.34033"
                    x2="474.22944"
                    y2="452.4102"
                    marker-end="url(#FilledArrow_Marker)"
                    stroke="#003776"
                    stroke-linecap="round"
                    stroke-linejoin="round"
                    stroke-dasharray="8.0,8.0"
                    stroke-width="2"
                />
      </g>
      <g id="Line_478">
        <line
                    x1="544.22944"
                    y1="143.34033"
                    x2="544.22944"
                    y2="452.4102"
                    marker-end="url(#FilledArrow_Marker)"
                    stroke="#003776"
                    stroke-linecap="round"
                    stroke-linejoin="round"
                    stroke-dasharray="8.0,8.0"
                    stroke-width="2"
                />
      </g>
      <g id="Graphic_473">
        <path
                    d="M 5.376953 119.34033 L 67.37695 119.34033 C 69.58609 119.34033 71.37695 121.13119 71.37695 123.34033 L 71.37695 139.34033 C 71.37695 141.54947 69.58609 143.34033 67.37695 143.34033 L 5.376953 143.34033 C 3.167814 143.34033 1.3769531 141.54947 1.3769531 139.34033 L 1.3769531 123.34033 C 1.3769531 121.13119 3.167814 119.34033 5.376953 119.34033 Z"
                    fill="#fff9e7"
                    fill-opacity=".5580996"
                />
        <path
                    d="M 5.376953 119.34033 L 67.37695 119.34033 C 69.58609 119.34033 71.37695 121.13119 71.37695 123.34033 L 71.37695 139.34033 C 71.37695 141.54947 69.58609 143.34033 67.37695 143.34033 L 5.376953 143.34033 C 3.167814 143.34033 1.3769531 141.54947 1.3769531 139.34033 L 1.3769531 123.34033 C 1.3769531 121.13119 3.167814 119.34033 5.376953 119.34033 Z"
                    stroke="#a5a5a5"
                    stroke-linecap="round"
                    stroke-linejoin="round"
                    stroke-width="1"
                />
        <text transform="translate(6.376953 121.84033)" fill="black">
          <tspan
                        font-family="Noto Sans Display"
                        font-size="16"
                        font-weight="400"
                        fill="black"
                        x="25.55078"
                        y="15"
                        xml:space="preserve"
                    >a</tspan>
        </text>
      </g>
      <g id="Graphic_469">
        <path
                    d="M 6 464.96986 L 68 464.96986 C 70.20914 464.96986 72 466.7607 72 468.96986 L 72 484.96986 C 72 487.179 70.20914 488.96986 68 488.96986 L 6 488.96986 C 3.790861 488.96986 2 487.179 2 484.96986 L 2 468.96986 C 2 466.7607 3.790861 464.96986 6 464.96986 Z"
                    fill="#fff9e7"
                    fill-opacity=".5580996"
                />
        <path
                    d="M 6 464.96986 L 68 464.96986 C 70.20914 464.96986 72 466.7607 72 468.96986 L 72 484.96986 C 72 487.179 70.20914 488.96986 68 488.96986 L 6 488.96986 C 3.790861 488.96986 2 487.179 2 484.96986 L 2 468.96986 C 2 466.7607 3.790861 464.96986 6 464.96986 Z"
                    stroke="#a5a5a5"
                    stroke-linecap="round"
                    stroke-linejoin="round"
                    stroke-width="1"
                />
        <text transform="translate(7 467.46986)" fill="black">
          <tspan
                        font-family="Noto Sans Display"
                        font-size="16"
                        font-weight="400"
                        fill="black"
                        x="25.328125"
                        y="15"
                        xml:space="preserve"
                    >+</tspan>
        </text>
      </g>
      <g id="Graphic_468">
        <path
                    d="M 75.37695 119.34033 L 137.37695 119.34033 C 139.5861 119.34033 141.37695 121.13119 141.37695 123.34033 L 141.37695 139.34033 C 141.37695 141.54947 139.5861 143.34033 137.37695 143.34033 L 75.37695 143.34033 C 73.16781 143.34033 71.37695 141.54947 71.37695 139.34033 L 71.37695 123.34033 C 71.37695 121.13119 73.16781 119.34033 75.37695 119.34033 Z"
                    fill="#fff9e7"
                    fill-opacity=".5580996"
                />
        <path
                    d="M 75.37695 119.34033 L 137.37695 119.34033 C 139.5861 119.34033 141.37695 121.13119 141.37695 123.34033 L 141.37695 139.34033 C 141.37695 141.54947 139.5861 143.34033 137.37695 143.34033 L 75.37695 143.34033 C 73.16781 143.34033 71.37695 141.54947 71.37695 139.34033 L 71.37695 123.34033 C 71.37695 121.13119 73.16781 119.34033 75.37695 119.34033 Z"
                    stroke="#a5a5a5"
                    stroke-linecap="round"
                    stroke-linejoin="round"
                    stroke-width="1"
                />
        <text transform="translate(76.37695 121.84033)" fill="black">
          <tspan
                        font-family="Noto Sans Display"
                        font-size="16"
                        font-weight="400"
                        fill="black"
                        x="25.55078"
                        y="15"
                        xml:space="preserve"
                    >b</tspan>
        </text>
      </g>
      <g id="Graphic_464">
        <path
                    d="M 76.02013 464.96986 L 138.02013 464.96986 C 140.22927 464.96986 142.02013 466.7607 142.02013 468.96986 L 142.02013 484.96986 C 142.02013 487.179 140.22927 488.96986 138.02013 488.96986 L 76.02013 488.96986 C 73.81099 488.96986 72.02013 487.179 72.02013 484.96986 L 72.02013 468.96986 C 72.02013 466.7607 73.81099 464.96986 76.02013 464.96986 Z"
                    fill="#fff9e7"
                    fill-opacity=".5580996"
                />
        <path
                    d="M 76.02013 464.96986 L 138.02013 464.96986 C 140.22927 464.96986 142.02013 466.7607 142.02013 468.96986 L 142.02013 484.96986 C 142.02013 487.179 140.22927 488.96986 138.02013 488.96986 L 76.02013 488.96986 C 73.81099 488.96986 72.02013 487.179 72.02013 484.96986 L 72.02013 468.96986 C 72.02013 466.7607 73.81099 464.96986 76.02013 464.96986 Z"
                    stroke="#a5a5a5"
                    stroke-linecap="round"
                    stroke-linejoin="round"
                    stroke-width="1"
                />
        <text transform="translate(77.02013 467.46986)" fill="black">
          <tspan
                        font-family="Noto Sans Display"
                        font-size="16"
                        font-weight="400"
                        fill="black"
                        x="25.328125"
                        y="15"
                        xml:space="preserve"
                    >+</tspan>
        </text>
      </g>
      <g id="Graphic_463">
        <path
                    d="M 145.37695 119.34033 L 207.37695 119.34033 C 209.5861 119.34033 211.37695 121.13119 211.37695 123.34033 L 211.37695 139.34033 C 211.37695 141.54947 209.5861 143.34033 207.37695 143.34033 L 145.37695 143.34033 C 143.16781 143.34033 141.37695 141.54947 141.37695 139.34033 L 141.37695 123.34033 C 141.37695 121.13119 143.16781 119.34033 145.37695 119.34033 Z"
                    fill="#fff9e7"
                    fill-opacity=".5580996"
                />
        <path
                    d="M 145.37695 119.34033 L 207.37695 119.34033 C 209.5861 119.34033 211.37695 121.13119 211.37695 123.34033 L 211.37695 139.34033 C 211.37695 141.54947 209.5861 143.34033 207.37695 143.34033 L 145.37695 143.34033 C 143.16781 143.34033 141.37695 141.54947 141.37695 139.34033 L 141.37695 123.34033 C 141.37695 121.13119 143.16781 119.34033 145.37695 119.34033 Z"
                    stroke="#a5a5a5"
                    stroke-linecap="round"
                    stroke-linejoin="round"
                    stroke-width="1"
                />
        <text transform="translate(146.37695 121.84033)" fill="black">
          <tspan
                        font-family="Noto Sans Display"
                        font-size="16"
                        font-weight="400"
                        fill="black"
                        x="26"
                        y="15"
                        xml:space="preserve"
                    >c</tspan>
        </text>
      </g>
      <g id="Graphic_459">
        <path
                    d="M 146.02013 464.96986 L 208.02013 464.96986 C 210.22927 464.96986 212.02013 466.7607 212.02013 468.96986 L 212.02013 484.96986 C 212.02013 487.179 210.22927 488.96986 208.02013 488.96986 L 146.02013 488.96986 C 143.811 488.96986 142.02013 487.179 142.02013 484.96986 L 142.02013 468.96986 C 142.02013 466.7607 143.811 464.96986 146.02013 464.96986 Z"
                    fill="#fff9e7"
                    fill-opacity=".5580996"
                />
        <path
                    d="M 146.02013 464.96986 L 208.02013 464.96986 C 210.22927 464.96986 212.02013 466.7607 212.02013 468.96986 L 212.02013 484.96986 C 212.02013 487.179 210.22927 488.96986 208.02013 488.96986 L 146.02013 488.96986 C 143.811 488.96986 142.02013 487.179 142.02013 484.96986 L 142.02013 468.96986 C 142.02013 466.7607 143.811 464.96986 146.02013 464.96986 Z"
                    stroke="#a5a5a5"
                    stroke-linecap="round"
                    stroke-linejoin="round"
                    stroke-width="1"
                />
        <text transform="translate(147.02013 467.46986)" fill="black">
          <tspan
                        font-family="Noto Sans Display"
                        font-size="16"
                        font-weight="400"
                        fill="black"
                        x="25.328125"
                        y="15"
                        xml:space="preserve"
                    >+</tspan>
        </text>
      </g>
      <g id="Graphic_458">
        <path
                    d="M 215.37695 119.34033 L 277.37695 119.34033 C 279.5861 119.34033 281.37695 121.13119 281.37695 123.34033 L 281.37695 139.34033 C 281.37695 141.54947 279.5861 143.34033 277.37695 143.34033 L 215.37695 143.34033 C 213.16781 143.34033 211.37695 141.54947 211.37695 139.34033 L 211.37695 123.34033 C 211.37695 121.13119 213.16781 119.34033 215.37695 119.34033 Z"
                    fill="#fff9e7"
                    fill-opacity=".5580996"
                />
        <path
                    d="M 215.37695 119.34033 L 277.37695 119.34033 C 279.5861 119.34033 281.37695 121.13119 281.37695 123.34033 L 281.37695 139.34033 C 281.37695 141.54947 279.5861 143.34033 277.37695 143.34033 L 215.37695 143.34033 C 213.16781 143.34033 211.37695 141.54947 211.37695 139.34033 L 211.37695 123.34033 C 211.37695 121.13119 213.16781 119.34033 215.37695 119.34033 Z"
                    stroke="#a5a5a5"
                    stroke-linecap="round"
                    stroke-linejoin="round"
                    stroke-width="1"
                />
        <text transform="translate(216.37695 121.84033)" fill="black">
          <tspan
                        font-family="Noto Sans Display"
                        font-size="16"
                        font-weight="400"
                        fill="black"
                        x="25.55078"
                        y="15"
                        xml:space="preserve"
                    >d</tspan>
        </text>
      </g>
      <g id="Graphic_454">
        <path
                    d="M 216.02013 464.96986 L 278.02013 464.96986 C 280.22927 464.96986 282.02013 466.7607 282.02013 468.96986 L 282.02013 484.96986 C 282.02013 487.179 280.22927 488.96986 278.02013 488.96986 L 216.02013 488.96986 C 213.811 488.96986 212.02013 487.179 212.02013 484.96986 L 212.02013 468.96986 C 212.02013 466.7607 213.811 464.96986 216.02013 464.96986 Z"
                    fill="#fff9e7"
                    fill-opacity=".5580996"
                />
        <path
                    d="M 216.02013 464.96986 L 278.02013 464.96986 C 280.22927 464.96986 282.02013 466.7607 282.02013 468.96986 L 282.02013 484.96986 C 282.02013 487.179 280.22927 488.96986 278.02013 488.96986 L 216.02013 488.96986 C 213.811 488.96986 212.02013 487.179 212.02013 484.96986 L 212.02013 468.96986 C 212.02013 466.7607 213.811 464.96986 216.02013 464.96986 Z"
                    stroke="#a5a5a5"
                    stroke-linecap="round"
                    stroke-linejoin="round"
                    stroke-width="1"
                />
        <text transform="translate(217.02013 467.46986)" fill="black">
          <tspan
                        font-family="Noto Sans Display"
                        font-size="16"
                        font-weight="400"
                        fill="black"
                        x="25.328125"
                        y="15"
                        xml:space="preserve"
                    >+</tspan>
        </text>
      </g>
      <g id="Graphic_453">
        <path
                    d="M 285.37695 119.34033 L 347.37695 119.34033 C 349.5861 119.34033 351.37695 121.13119 351.37695 123.34033 L 351.37695 139.34033 C 351.37695 141.54947 349.5861 143.34033 347.37695 143.34033 L 285.37695 143.34033 C 283.1678 143.34033 281.37695 141.54947 281.37695 139.34033 L 281.37695 123.34033 C 281.37695 121.13119 283.1678 119.34033 285.37695 119.34033 Z"
                    fill="#fff9e7"
                    fill-opacity=".5580996"
                />
        <path
                    d="M 285.37695 119.34033 L 347.37695 119.34033 C 349.5861 119.34033 351.37695 121.13119 351.37695 123.34033 L 351.37695 139.34033 C 351.37695 141.54947 349.5861 143.34033 347.37695 143.34033 L 285.37695 143.34033 C 283.1678 143.34033 281.37695 141.54947 281.37695 139.34033 L 281.37695 123.34033 C 281.37695 121.13119 283.1678 119.34033 285.37695 119.34033 Z"
                    stroke="#a5a5a5"
                    stroke-linecap="round"
                    stroke-linejoin="round"
                    stroke-width="1"
                />
        <text transform="translate(286.37695 121.84033)" fill="black">
          <tspan
                        font-family="Noto Sans Display"
                        font-size="16"
                        font-weight="400"
                        fill="black"
                        x="25.55078"
                        y="15"
                        xml:space="preserve"
                    >e</tspan>
        </text>
      </g>
      <g id="Graphic_449">
        <path
                    d="M 286.02013 464.96986 L 348.02013 464.96986 C 350.22927 464.96986 352.02013 466.7607 352.02013 468.96986 L 352.02013 484.96986 C 352.02013 487.179 350.22927 488.96986 348.02013 488.96986 L 286.02013 488.96986 C 283.811 488.96986 282.02013 487.179 282.02013 484.96986 L 282.02013 468.96986 C 282.02013 466.7607 283.811 464.96986 286.02013 464.96986 Z"
                    fill="#fff9e7"
                    fill-opacity=".5580996"
                />
        <path
                    d="M 286.02013 464.96986 L 348.02013 464.96986 C 350.22927 464.96986 352.02013 466.7607 352.02013 468.96986 L 352.02013 484.96986 C 352.02013 487.179 350.22927 488.96986 348.02013 488.96986 L 286.02013 488.96986 C 283.811 488.96986 282.02013 487.179 282.02013 484.96986 L 282.02013 468.96986 C 282.02013 466.7607 283.811 464.96986 286.02013 464.96986 Z"
                    stroke="#a5a5a5"
                    stroke-linecap="round"
                    stroke-linejoin="round"
                    stroke-width="1"
                />
        <text transform="translate(287.02013 467.46986)" fill="black">
          <tspan
                        font-family="Noto Sans Display"
                        font-size="16"
                        font-weight="400"
                        fill="black"
                        x="25.328125"
                        y="15"
                        xml:space="preserve"
                    >+</tspan>
        </text>
      </g>
      <g id="Graphic_448">
        <path
                    d="M 355.37695 119.34033 L 417.37695 119.34033 C 419.5861 119.34033 421.37695 121.13119 421.37695 123.34033 L 421.37695 139.34033 C 421.37695 141.54947 419.5861 143.34033 417.37695 143.34033 L 355.37695 143.34033 C 353.1678 143.34033 351.37695 141.54947 351.37695 139.34033 L 351.37695 123.34033 C 351.37695 121.13119 353.1678 119.34033 355.37695 119.34033 Z"
                    fill="#fff9e7"
                    fill-opacity=".5580996"
                />
        <path
                    d="M 355.37695 119.34033 L 417.37695 119.34033 C 419.5861 119.34033 421.37695 121.13119 421.37695 123.34033 L 421.37695 139.34033 C 421.37695 141.54947 419.5861 143.34033 417.37695 143.34033 L 355.37695 143.34033 C 353.1678 143.34033 351.37695 141.54947 351.37695 139.34033 L 351.37695 123.34033 C 351.37695 121.13119 353.1678 119.34033 355.37695 119.34033 Z"
                    stroke="#a5a5a5"
                    stroke-linecap="round"
                    stroke-linejoin="round"
                    stroke-width="1"
                />
        <text transform="translate(356.37695 121.84033)" fill="black">
          <tspan
                        font-family="Noto Sans Display"
                        font-size="16"
                        font-weight="400"
                        fill="black"
                        x="27.777344"
                        y="15"
                        xml:space="preserve"
                    >f</tspan>
        </text>
      </g>
      <g id="Graphic_444">
        <path
                    d="M 356.02013 464.96986 L 418.02013 464.96986 C 420.22927 464.96986 422.02013 466.7607 422.02013 468.96986 L 422.02013 484.96986 C 422.02013 487.179 420.22927 488.96986 418.02013 488.96986 L 356.02013 488.96986 C 353.811 488.96986 352.02013 487.179 352.02013 484.96986 L 352.02013 468.96986 C 352.02013 466.7607 353.811 464.96986 356.02013 464.96986 Z"
                    fill="#fff9e7"
                    fill-opacity=".5580996"
                />
        <path
                    d="M 356.02013 464.96986 L 418.02013 464.96986 C 420.22927 464.96986 422.02013 466.7607 422.02013 468.96986 L 422.02013 484.96986 C 422.02013 487.179 420.22927 488.96986 418.02013 488.96986 L 356.02013 488.96986 C 353.811 488.96986 352.02013 487.179 352.02013 484.96986 L 352.02013 468.96986 C 352.02013 466.7607 353.811 464.96986 356.02013 464.96986 Z"
                    stroke="#a5a5a5"
                    stroke-linecap="round"
                    stroke-linejoin="round"
                    stroke-width="1"
                />
        <text transform="translate(357.02013 467.46986)" fill="black">
          <tspan
                        font-family="Noto Sans Display"
                        font-size="16"
                        font-weight="400"
                        fill="black"
                        x="25.328125"
                        y="15"
                        xml:space="preserve"
                    >+</tspan>
        </text>
      </g>
      <g id="Graphic_443">
        <path
                    d="M 425.37695 119.34033 L 487.37695 119.34033 C 489.5861 119.34033 491.37695 121.13119 491.37695 123.34033 L 491.37695 139.34033 C 491.37695 141.54947 489.5861 143.34033 487.37695 143.34033 L 425.37695 143.34033 C 423.1678 143.34033 421.37695 141.54947 421.37695 139.34033 L 421.37695 123.34033 C 421.37695 121.13119 423.1678 119.34033 425.37695 119.34033 Z"
                    fill="#fff9e7"
                    fill-opacity=".5580996"
                />
        <path
                    d="M 425.37695 119.34033 L 487.37695 119.34033 C 489.5861 119.34033 491.37695 121.13119 491.37695 123.34033 L 491.37695 139.34033 C 491.37695 141.54947 489.5861 143.34033 487.37695 143.34033 L 425.37695 143.34033 C 423.1678 143.34033 421.37695 141.54947 421.37695 139.34033 L 421.37695 123.34033 C 421.37695 121.13119 423.1678 119.34033 425.37695 119.34033 Z"
                    stroke="#a5a5a5"
                    stroke-linecap="round"
                    stroke-linejoin="round"
                    stroke-width="1"
                />
        <text transform="translate(426.37695 121.84033)" fill="black">
          <tspan
                        font-family="Noto Sans Display"
                        font-size="16"
                        font-weight="400"
                        fill="black"
                        x="25.55078"
                        y="15"
                        xml:space="preserve"
                    >g</tspan>
        </text>
      </g>
      <g id="Graphic_439">
        <path
                    d="M 426.02013 464.96986 L 488.02013 464.96986 C 490.2293 464.96986 492.02013 466.7607 492.02013 468.96986 L 492.02013 484.96986 C 492.02013 487.179 490.2293 488.96986 488.02013 488.96986 L 426.02013 488.96986 C 423.811 488.96986 422.02013 487.179 422.02013 484.96986 L 422.02013 468.96986 C 422.02013 466.7607 423.811 464.96986 426.02013 464.96986 Z"
                    fill="#fff9e7"
                    fill-opacity=".5580996"
                />
        <path
                    d="M 426.02013 464.96986 L 488.02013 464.96986 C 490.2293 464.96986 492.02013 466.7607 492.02013 468.96986 L 492.02013 484.96986 C 492.02013 487.179 490.2293 488.96986 488.02013 488.96986 L 426.02013 488.96986 C 423.811 488.96986 422.02013 487.179 422.02013 484.96986 L 422.02013 468.96986 C 422.02013 466.7607 423.811 464.96986 426.02013 464.96986 Z"
                    stroke="#a5a5a5"
                    stroke-linecap="round"
                    stroke-linejoin="round"
                    stroke-width="1"
                />
        <text transform="translate(427.02013 467.46986)" fill="black">
          <tspan
                        font-family="Noto Sans Display"
                        font-size="16"
                        font-weight="400"
                        fill="black"
                        x="25.328125"
                        y="15"
                        xml:space="preserve"
                    >+</tspan>
        </text>
      </g>
      <g id="Graphic_438">
        <path
                    d="M 495.37695 119.34033 L 557.37695 119.34033 C 559.5861 119.34033 561.37695 121.13119 561.37695 123.34033 L 561.37695 139.34033 C 561.37695 141.54947 559.5861 143.34033 557.37695 143.34033 L 495.37695 143.34033 C 493.1678 143.34033 491.37695 141.54947 491.37695 139.34033 L 491.37695 123.34033 C 491.37695 121.13119 493.1678 119.34033 495.37695 119.34033 Z"
                    fill="#fff9e7"
                    fill-opacity=".5580996"
                />
        <path
                    d="M 495.37695 119.34033 L 557.37695 119.34033 C 559.5861 119.34033 561.37695 121.13119 561.37695 123.34033 L 561.37695 139.34033 C 561.37695 141.54947 559.5861 143.34033 557.37695 143.34033 L 495.37695 143.34033 C 493.1678 143.34033 491.37695 141.54947 491.37695 139.34033 L 491.37695 123.34033 C 491.37695 121.13119 493.1678 119.34033 495.37695 119.34033 Z"
                    stroke="#a5a5a5"
                    stroke-linecap="round"
                    stroke-linejoin="round"
                    stroke-width="1"
                />
        <text transform="translate(496.37695 121.84033)" fill="black">
          <tspan
                        font-family="Noto Sans Display"
                        font-size="16"
                        font-weight="400"
                        fill="black"
                        x="25.55078"
                        y="15"
                        xml:space="preserve"
                    >h</tspan>
        </text>
      </g>
      <g id="Graphic_434">
        <path
                    d="M 496.02013 464.96986 L 558.0201 464.96986 C 560.2293 464.96986 562.0201 466.7607 562.0201 468.96986 L 562.0201 484.96986 C 562.0201 487.179 560.2293 488.96986 558.0201 488.96986 L 496.02013 488.96986 C 493.811 488.96986 492.02013 487.179 492.02013 484.96986 L 492.02013 468.96986 C 492.02013 466.7607 493.811 464.96986 496.02013 464.96986 Z"
                    fill="#fff9e7"
                    fill-opacity=".5580996"
                />
        <path
                    d="M 496.02013 464.96986 L 558.0201 464.96986 C 560.2293 464.96986 562.0201 466.7607 562.0201 468.96986 L 562.0201 484.96986 C 562.0201 487.179 560.2293 488.96986 558.0201 488.96986 L 496.02013 488.96986 C 493.811 488.96986 492.02013 487.179 492.02013 484.96986 L 492.02013 468.96986 C 492.02013 466.7607 493.811 464.96986 496.02013 464.96986 Z"
                    stroke="#a5a5a5"
                    stroke-linecap="round"
                    stroke-linejoin="round"
                    stroke-width="1"
                />
        <text transform="translate(497.02013 467.46986)" fill="black">
          <tspan
                        font-family="Noto Sans Display"
                        font-size="16"
                        font-weight="400"
                        fill="black"
                        x="25.328125"
                        y="15"
                        xml:space="preserve"
                    >+</tspan>
        </text>
      </g>
    </g>
  </g>
</svg>
