<?xml version="1.0" encoding="UTF-8" standalone="no" ?>
<!DOCTYPE svg PUBLIC "-//W3C//DTD SVG 1.1//EN"
    "http://www.w3.org/Graphics/SVG/1.1/DTD/svg11.dtd">
<svg
    xmlns:xl="http://www.w3.org/1999/xlink"
    version="1.1"
    xmlns:dc="http://purl.org/dc/elements/1.1/"
    xmlns="http://www.w3.org/2000/svg"
    viewBox="7 12 385 324"
    width="1155"
    height="972"
>
  <style>
    @import url('/LectureDoc2/ext/fonts/ld-fonts.css');
  </style>
  <defs>
    <filter id="Shadow" filterUnits="userSpaceOnUse" x="-31.5" y="-20.4">
      <feGaussianBlur in="SourceAlpha" result="blur" stdDeviation="1.308" />
      <feOffset in="blur" result="offset" dx="0" dy="2" />
      <feFlood flood-color="black" flood-opacity=".5" result="flood" />
      <feComposite in="flood" in2="offset" operator="in" />
    </filter>
    <marker
            orient="auto"
            overflow="visible"
            markerUnits="strokeWidth"
            id="StickArrow_Marker"
            stroke-linejoin="miter"
            stroke-miterlimit="10"
            viewBox="-1 -4 10 8"
            markerWidth="10"
            markerHeight="8"
            color="black"
        >
      <g>
        <path
                    d="M 8 0 L 0 0 M 0 -3 L 8 0 L 0 3"
                    fill="none"
                    stroke="currentColor"
                    stroke-width="1"
                />
      </g>
    </marker>
    <marker
            orient="auto"
            overflow="visible"
            markerUnits="strokeWidth"
            id="UMLInheritance_Marker"
            stroke-linejoin="miter"
            stroke-miterlimit="10"
            viewBox="-1 -8 14 16"
            markerWidth="14"
            markerHeight="16"
            color="black"
        >
      <g>
        <path
                    d="M 12 0 L 0 -7 L 0 7 Z"
                    fill="none"
                    stroke="currentColor"
                    stroke-width="1"
                />
      </g>
    </marker>
    <filter id="Shadow_2" filterUnits="userSpaceOnUse" x="-31.5" y="-20.4">
      <feGaussianBlur in="SourceAlpha" result="blur" stdDeviation=".872" />
      <feOffset in="blur" result="offset" dx="2.8346457" dy="2.8346457" />
      <feFlood flood-color="black" flood-opacity=".5" result="flood" />
      <feComposite in="flood" in2="offset" operator="in" result="color" />
      <feMerge>
        <feMergeNode in="color" />
        <feMergeNode in="SourceGraphic" />
      </feMerge>
    </filter>
  </defs>
  <metadata> Produced by OmniGraffle 8.0\n2025-04-28 10:20:29 +0000</metadata>
  <g
        id="dip-konforme-schichtenabhaengigkeit"
        fill="none"
        stroke="none"
        stroke-dasharray="none"
        stroke-opacity="1"
        fill-opacity="1"
    >
    <title>dip-konforme-schichtenabhaengigkeit</title>
    <g id="dip-konforme-schichtenabhaengigkeit_Layer_1">
      <title>Layer 1</title>
      <g id="Graphic_1173_shadow" filter="url(#Shadow)">
        <rect
                    x="11.338583"
                    y="165.05523"
                    width="375.59055"
                    height="77.8461"
                    fill="white"
                />
        <rect
                    x="11.338583"
                    y="165.05523"
                    width="375.59055"
                    height="77.8461"
                    stroke="black"
                    stroke-linecap="round"
                    stroke-linejoin="round"
                    stroke-width="1"
                />
      </g>
      <g id="Graphic_1174_shadow" filter="url(#Shadow)">
        <rect
                    x="11.338583"
                    y="146.30723"
                    width="110.46775"
                    height="18.7479"
                    fill="white"
                />
        <rect
                    x="11.338583"
                    y="146.30723"
                    width="110.46775"
                    height="18.7479"
                    stroke="black"
                    stroke-linecap="round"
                    stroke-linejoin="round"
                    stroke-width="1"
                />
      </g>
      <g id="Graphic_1176_shadow" filter="url(#Shadow)">
        <rect
                    x="11.338583"
                    y="273.03673"
                    width="376.7939"
                    height="56.9072"
                    fill="white"
                />
        <rect
                    x="11.338583"
                    y="273.03673"
                    width="376.7939"
                    height="56.9072"
                    stroke="black"
                    stroke-linecap="round"
                    stroke-linejoin="round"
                    stroke-width="1"
                />
      </g>
      <g id="Graphic_1177_shadow" filter="url(#Shadow)">
        <rect
                    x="11.338583"
                    y="254.47"
                    width="110.46775"
                    height="18.85901"
                    fill="white"
                />
        <rect
                    x="11.338583"
                    y="254.47"
                    width="110.46775"
                    height="18.85901"
                    stroke="black"
                    stroke-linecap="round"
                    stroke-linejoin="round"
                    stroke-width="1"
                />
      </g>
      <g id="Graphic_13_shadow" filter="url(#Shadow)">
        <rect
                    x="11.338583"
                    y="32.495818"
                    width="375.59055"
                    height="94.14561"
                    fill="white"
                />
        <rect
                    x="11.338583"
                    y="32.495818"
                    width="375.59055"
                    height="94.14561"
                    stroke="black"
                    stroke-linecap="round"
                    stroke-linejoin="round"
                    stroke-width="1"
                />
      </g>
      <g id="Graphic_14_shadow" filter="url(#Shadow)">
        <rect
                    x="11.338583"
                    y="14.173228"
                    width="110.46775"
                    height="18.748"
                    fill="white"
                />
        <rect
                    x="11.338583"
                    y="14.173228"
                    width="110.46775"
                    height="18.748"
                    stroke="black"
                    stroke-linecap="round"
                    stroke-linejoin="round"
                    stroke-width="1"
                />
      </g>
      <g id="Graphic_1167_shadow" filter="url(#Shadow)">
        <path
                    d="M 21.846404 65.21823 L 96.88577 65.21823 C 99.6472 65.21823 101.88577 67.456805 101.88577 70.21823 L 101.88577 105.21823 C 101.88577 107.97965 99.6472 110.21823 96.88577 110.21823 L 21.846404 110.21823 C 19.08498 110.21823 16.846404 107.97965 16.846404 105.21823 L 16.846404 70.21823 C 16.846404 67.456805 19.08498 65.21823 21.846404 65.21823 Z"
                    fill="white"
                />
        <path
                    d="M 21.846404 65.21823 L 96.88577 65.21823 C 99.6472 65.21823 101.88577 67.456805 101.88577 70.21823 L 101.88577 105.21823 C 101.88577 107.97965 99.6472 110.21823 96.88577 110.21823 L 21.846404 110.21823 C 19.08498 110.21823 16.846404 107.97965 16.846404 105.21823 L 16.846404 70.21823 C 16.846404 67.456805 19.08498 65.21823 21.846404 65.21823 Z"
                    stroke="black"
                    stroke-linecap="round"
                    stroke-linejoin="round"
                    stroke-width="1"
                />
      </g>
      <g id="Graphic_1168_shadow" filter="url(#Shadow)">
        <path
                    d="M 146.4255 179.68095 L 221.46486 179.68095 C 224.2263 179.68095 226.46486 181.91953 226.46486 184.68095 L 226.46486 219.68095 C 226.46486 222.44237 224.2263 224.68095 221.46486 224.68095 L 146.4255 224.68095 C 143.66407 224.68095 141.4255 222.44237 141.4255 219.68095 L 141.4255 184.68095 C 141.4255 181.91953 143.66407 179.68095 146.4255 179.68095 Z"
                    fill="white"
                />
        <path
                    d="M 146.4255 179.68095 L 221.46486 179.68095 C 224.2263 179.68095 226.46486 181.91953 226.46486 184.68095 L 226.46486 219.68095 C 226.46486 222.44237 224.2263 224.68095 221.46486 224.68095 L 146.4255 224.68095 C 143.66407 224.68095 141.4255 222.44237 141.4255 219.68095 L 141.4255 184.68095 C 141.4255 181.91953 143.66407 179.68095 146.4255 179.68095 Z"
                    stroke="black"
                    stroke-linecap="round"
                    stroke-linejoin="round"
                    stroke-width="1"
                />
      </g>
      <g id="Graphic_1163_shadow" filter="url(#Shadow)">
        <path
                    d="M 262.9968 278.99033 L 338.03616 278.99033 C 340.7976 278.99033 343.03616 281.2289 343.03616 283.99033 L 343.03616 318.99033 C 343.03616 321.75175 340.7976 323.99033 338.03616 323.99033 L 262.9968 323.99033 C 260.23537 323.99033 257.9968 321.75175 257.9968 318.99033 L 257.9968 283.99033 C 257.9968 281.2289 260.23537 278.99033 262.9968 278.99033 Z"
                    fill="white"
                />
        <path
                    d="M 262.9968 278.99033 L 338.03616 278.99033 C 340.7976 278.99033 343.03616 281.2289 343.03616 283.99033 L 343.03616 318.99033 C 343.03616 321.75175 340.7976 323.99033 338.03616 323.99033 L 262.9968 323.99033 C 260.23537 323.99033 257.9968 321.75175 257.9968 318.99033 L 257.9968 283.99033 C 257.9968 281.2289 260.23537 278.99033 262.9968 278.99033 Z"
                    stroke="black"
                    stroke-linecap="round"
                    stroke-linejoin="round"
                    stroke-width="1"
                />
      </g>
      <g id="Graphic_1178_shadow" filter="url(#Shadow)">
        <path
                    d="M 245.39572 175.96048 L 355.63724 175.96048 C 357.84638 175.96048 359.63724 177.75134 359.63724 179.96048 L 359.63724 224.40142 C 359.63724 226.61056 357.84638 228.40142 355.63724 228.40142 L 245.39572 228.40142 C 243.18658 228.40142 241.39572 226.61056 241.39572 224.40142 L 241.39572 179.96048 C 241.39572 177.75134 243.18658 175.96048 245.39572 175.96048 Z"
                    fill="#a5a5a5"
                />
        <path
                    d="M 245.39572 175.96048 L 355.63724 175.96048 C 357.84638 175.96048 359.63724 177.75134 359.63724 179.96048 L 359.63724 224.40142 C 359.63724 226.61056 357.84638 228.40142 355.63724 228.40142 L 245.39572 228.40142 C 243.18658 228.40142 241.39572 226.61056 241.39572 224.40142 L 241.39572 179.96048 C 241.39572 177.75134 243.18658 175.96048 245.39572 175.96048 Z"
                    stroke="#e4e4e4"
                    stroke-linecap="round"
                    stroke-linejoin="round"
                    stroke-width="1"
                />
      </g>
      <g id="Graphic_1179_shadow" filter="url(#Shadow)">
        <path
                    d="M 127.70896 61.497756 L 240.1814 61.497756 C 242.39054 61.497756 244.1814 63.28862 244.1814 65.497756 L 244.1814 109.9387 C 244.1814 112.14784 242.39054 113.9387 240.1814 113.9387 L 127.70896 113.9387 C 125.49982 113.9387 123.70896 112.14784 123.70896 109.9387 L 123.70896 65.497756 C 123.70896 63.28862 125.49982 61.497756 127.70896 61.497756 Z"
                    fill="#a5a5a5"
                />
        <path
                    d="M 127.70896 61.497756 L 240.1814 61.497756 C 242.39054 61.497756 244.1814 63.28862 244.1814 65.497756 L 244.1814 109.9387 C 244.1814 112.14784 242.39054 113.9387 240.1814 113.9387 L 127.70896 113.9387 C 125.49982 113.9387 123.70896 112.14784 123.70896 109.9387 L 123.70896 65.497756 C 123.70896 63.28862 125.49982 61.497756 127.70896 61.497756 Z"
                    stroke="#e4e4e4"
                    stroke-linecap="round"
                    stroke-linejoin="round"
                    stroke-width="1"
                />
      </g>
      <g id="Group_1172">
        <g id="Graphic_1174">
          <rect
                        x="11.338583"
                        y="146.30723"
                        width="110.46775"
                        height="18.7479"
                        fill="white"
                    />
          <rect
                        x="11.338583"
                        y="146.30723"
                        width="110.46775"
                        height="18.7479"
                        stroke="black"
                        stroke-linecap="round"
                        stroke-linejoin="round"
                        stroke-width="1"
                    />
          <text transform="translate(16.338583 146.18118)" fill="black">
            <tspan
                            font-family="Noto Sans Display"
                            font-size="14"
                            font-weight="400"
                            fill="black"
                            x="14.386875"
                            y="15"
                            xml:space="preserve"
                        >Mechanism</tspan>
          </text>
        </g>
        <g id="Graphic_1173">
          <rect
                        x="11.338583"
                        y="165.05523"
                        width="375.59055"
                        height="77.8461"
                        fill="white"
                    />
          <rect
                        x="11.338583"
                        y="165.05523"
                        width="375.59055"
                        height="77.8461"
                        stroke="black"
                        stroke-linecap="round"
                        stroke-linejoin="round"
                        stroke-width="1"
                    />
        </g>
      </g>
      <g id="Group_1175">
        <g id="Graphic_1177">
          <rect
                        x="11.338583"
                        y="254.47"
                        width="110.46775"
                        height="18.85901"
                        fill="white"
                    />
          <rect
                        x="11.338583"
                        y="254.47"
                        width="110.46775"
                        height="18.85901"
                        stroke="black"
                        stroke-linecap="round"
                        stroke-linejoin="round"
                        stroke-width="1"
                    />
          <text transform="translate(16.338583 254.39952)" fill="black">
            <tspan
                            font-family="Noto Sans Display"
                            font-size="14"
                            font-weight="400"
                            fill="black"
                            x="32.033875"
                            y="15"
                            xml:space="preserve"
                        >Utility</tspan>
          </text>
        </g>
        <g id="Graphic_1176">
          <rect
                        x="11.338583"
                        y="273.03673"
                        width="376.7939"
                        height="56.9072"
                        fill="white"
                    />
          <rect
                        x="11.338583"
                        y="273.03673"
                        width="376.7939"
                        height="56.9072"
                        stroke="black"
                        stroke-linecap="round"
                        stroke-linejoin="round"
                        stroke-width="1"
                    />
        </g>
      </g>
      <g id="Group_12">
        <g id="Graphic_14">
          <rect
                        x="11.338583"
                        y="14.173228"
                        width="110.46775"
                        height="18.748"
                        fill="white"
                    />
          <rect
                        x="11.338583"
                        y="14.173228"
                        width="110.46775"
                        height="18.748"
                        stroke="black"
                        stroke-linecap="round"
                        stroke-linejoin="round"
                        stroke-width="1"
                    />
          <text transform="translate(16.338583 14.047228)" fill="black">
            <tspan
                            font-family="Noto Sans Display"
                            font-size="14"
                            font-weight="400"
                            fill="black"
                            x="32.243875"
                            y="15"
                            xml:space="preserve"
                        >Policy</tspan>
          </text>
        </g>
        <g id="Graphic_13">
          <rect
                        x="11.338583"
                        y="32.495818"
                        width="375.59055"
                        height="94.14561"
                        fill="white"
                    />
          <rect
                        x="11.338583"
                        y="32.495818"
                        width="375.59055"
                        height="94.14561"
                        stroke="black"
                        stroke-linecap="round"
                        stroke-linejoin="round"
                        stroke-width="1"
                    />
        </g>
      </g>
      <g id="Line_1170">
        <line
                    x1="226.46486"
                    y1="202.18095"
                    x2="231.49572"
                    y2="202.18095"
                    marker-end="url(#StickArrow_Marker)"
                    stroke="black"
                    stroke-linecap="round"
                    stroke-linejoin="round"
                    stroke-width="1"
                />
      </g>
      <g id="Line_1169">
        <path
                    d="M 101.88577 87.71823 L 112.79737 87.71823 L 113.80896 87.71823"
                    marker-end="url(#StickArrow_Marker)"
                    stroke="black"
                    stroke-linecap="round"
                    stroke-linejoin="round"
                    stroke-width="1"
                />
      </g>
      <g id="Graphic_1167">
        <path
                    d="M 21.846404 65.21823 L 96.88577 65.21823 C 99.6472 65.21823 101.88577 67.456805 101.88577 70.21823 L 101.88577 105.21823 C 101.88577 107.97965 99.6472 110.21823 96.88577 110.21823 L 21.846404 110.21823 C 19.08498 110.21823 16.846404 107.97965 16.846404 105.21823 L 16.846404 70.21823 C 16.846404 67.456805 19.08498 65.21823 21.846404 65.21823 Z"
                    fill="white"
                />
        <path
                    d="M 21.846404 65.21823 L 96.88577 65.21823 C 99.6472 65.21823 101.88577 67.456805 101.88577 70.21823 L 101.88577 105.21823 C 101.88577 107.97965 99.6472 110.21823 96.88577 110.21823 L 21.846404 110.21823 C 19.08498 110.21823 16.846404 107.97965 16.846404 105.21823 L 16.846404 70.21823 C 16.846404 67.456805 19.08498 65.21823 21.846404 65.21823 Z"
                    stroke="black"
                    stroke-linecap="round"
                    stroke-linejoin="round"
                    stroke-width="1"
                />
        <text transform="translate(21.846404 78.21823)" fill="black">
          <tspan
                        font-family="Noto Sans Display"
                        font-size="14"
                        font-weight="400"
                        fill="black"
                        x=".7836838"
                        y="15"
                        xml:space="preserve"
                    >Policy Layer</tspan>
        </text>
      </g>
      <g id="Graphic_1168">
        <path
                    d="M 146.4255 179.68095 L 221.46486 179.68095 C 224.2263 179.68095 226.46486 181.91953 226.46486 184.68095 L 226.46486 219.68095 C 226.46486 222.44237 224.2263 224.68095 221.46486 224.68095 L 146.4255 224.68095 C 143.66407 224.68095 141.4255 222.44237 141.4255 219.68095 L 141.4255 184.68095 C 141.4255 181.91953 143.66407 179.68095 146.4255 179.68095 Z"
                    fill="white"
                />
        <path
                    d="M 146.4255 179.68095 L 221.46486 179.68095 C 224.2263 179.68095 226.46486 181.91953 226.46486 184.68095 L 226.46486 219.68095 C 226.46486 222.44237 224.2263 224.68095 221.46486 224.68095 L 146.4255 224.68095 C 143.66407 224.68095 141.4255 222.44237 141.4255 219.68095 L 141.4255 184.68095 C 141.4255 181.91953 143.66407 179.68095 146.4255 179.68095 Z"
                    stroke="black"
                    stroke-linecap="round"
                    stroke-linejoin="round"
                    stroke-width="1"
                />
        <text transform="translate(146.4255 183.18095)" fill="black">
          <tspan
                        font-family="Noto Sans Display"
                        font-size="14"
                        font-weight="400"
                        fill="black"
                        x="1.6726838"
                        y="15"
                        xml:space="preserve"
                    >Mechanism </tspan>
          <tspan
                        font-family="Noto Sans Display"
                        font-size="14"
                        font-weight="400"
                        fill="black"
                        x="20.481684"
                        y="34"
                        xml:space="preserve"
                    >Layer</tspan>
        </text>
      </g>
      <g id="Graphic_1163">
        <path
                    d="M 262.9968 278.99033 L 338.03616 278.99033 C 340.7976 278.99033 343.03616 281.2289 343.03616 283.99033 L 343.03616 318.99033 C 343.03616 321.75175 340.7976 323.99033 338.03616 323.99033 L 262.9968 323.99033 C 260.23537 323.99033 257.9968 321.75175 257.9968 318.99033 L 257.9968 283.99033 C 257.9968 281.2289 260.23537 278.99033 262.9968 278.99033 Z"
                    fill="white"
                />
        <path
                    d="M 262.9968 278.99033 L 338.03616 278.99033 C 340.7976 278.99033 343.03616 281.2289 343.03616 283.99033 L 343.03616 318.99033 C 343.03616 321.75175 340.7976 323.99033 338.03616 323.99033 L 262.9968 323.99033 C 260.23537 323.99033 257.9968 321.75175 257.9968 318.99033 L 257.9968 283.99033 C 257.9968 281.2289 260.23537 278.99033 262.9968 278.99033 Z"
                    stroke="black"
                    stroke-linecap="round"
                    stroke-linejoin="round"
                    stroke-width="1"
                />
        <text transform="translate(262.9968 291.99033)" fill="black">
          <tspan
                        font-family="Noto Sans Display"
                        font-size="14"
                        font-weight="400"
                        fill="black"
                        x=".57368384"
                        y="15"
                        xml:space="preserve"
                    >Utility Layer</tspan>
        </text>
      </g>
      <g id="Graphic_1178">
        <path
                    d="M 245.39572 175.96048 L 355.63724 175.96048 C 357.84638 175.96048 359.63724 177.75134 359.63724 179.96048 L 359.63724 224.40142 C 359.63724 226.61056 357.84638 228.40142 355.63724 228.40142 L 245.39572 228.40142 C 243.18658 228.40142 241.39572 226.61056 241.39572 224.40142 L 241.39572 179.96048 C 241.39572 177.75134 243.18658 175.96048 245.39572 175.96048 Z"
                    fill="#a5a5a5"
                />
        <path
                    d="M 245.39572 175.96048 L 355.63724 175.96048 C 357.84638 175.96048 359.63724 177.75134 359.63724 179.96048 L 359.63724 224.40142 C 359.63724 226.61056 357.84638 228.40142 355.63724 228.40142 L 245.39572 228.40142 C 243.18658 228.40142 241.39572 226.61056 241.39572 224.40142 L 241.39572 179.96048 C 241.39572 177.75134 243.18658 175.96048 245.39572 175.96048 Z"
                    stroke="#e4e4e4"
                    stroke-linecap="round"
                    stroke-linejoin="round"
                    stroke-width="1"
                />
        <text transform="translate(246.39572 174.68095)" fill="white">
          <tspan
                        font-family="Noto Sans Display"
                        font-size="12"
                        font-weight="400"
                        fill="white"
                        x="24.630762"
                        y="13"
                        xml:space="preserve"
                    >«interface»</tspan>
          <tspan
                        font-family="Noto Sans Display"
                        font-size="14"
                        font-weight="400"
                        fill="white"
                        x="18.273762"
                        y="32"
                        xml:space="preserve"
                    >Mechanism </tspan>
          <tspan
                        font-family="Noto Sans Display"
                        font-size="14"
                        font-weight="400"
                        fill="white"
                        x="2.215762"
                        y="51"
                        xml:space="preserve"
                    >Service Interface</tspan>
        </text>
      </g>
      <g id="Graphic_1179">
        <path
                    d="M 127.70896 61.497756 L 240.1814 61.497756 C 242.39054 61.497756 244.1814 63.28862 244.1814 65.497756 L 244.1814 109.9387 C 244.1814 112.14784 242.39054 113.9387 240.1814 113.9387 L 127.70896 113.9387 C 125.49982 113.9387 123.70896 112.14784 123.70896 109.9387 L 123.70896 65.497756 C 123.70896 63.28862 125.49982 61.497756 127.70896 61.497756 Z"
                    fill="#a5a5a5"
                />
        <path
                    d="M 127.70896 61.497756 L 240.1814 61.497756 C 242.39054 61.497756 244.1814 63.28862 244.1814 65.497756 L 244.1814 109.9387 C 244.1814 112.14784 242.39054 113.9387 240.1814 113.9387 L 127.70896 113.9387 C 125.49982 113.9387 123.70896 112.14784 123.70896 109.9387 L 123.70896 65.497756 C 123.70896 63.28862 125.49982 61.497756 127.70896 61.497756 Z"
                    stroke="#e4e4e4"
                    stroke-linecap="round"
                    stroke-linejoin="round"
                    stroke-width="1"
                />
        <text transform="translate(128.70896 60.21823)" fill="white">
          <tspan
                        font-family="Noto Sans Display"
                        font-size="12"
                        font-weight="400"
                        fill="white"
                        x="25.74622"
                        y="13"
                        xml:space="preserve"
                    >«interface»</tspan>
          <tspan
                        font-family="Noto Sans Display"
                        font-size="14"
                        font-weight="400"
                        fill="white"
                        x="13.460221"
                        y="32"
                        xml:space="preserve"
                    >Policy Service </tspan>
          <tspan
                        font-family="Noto Sans Display"
                        font-size="14"
                        font-weight="400"
                        fill="white"
                        x="27.11722"
                        y="51"
                        xml:space="preserve"
                    >Interface</tspan>
        </text>
      </g>
      <g id="Line_27">
        <line
                    x1="300.51648"
                    y1="278.99033"
                    x2="300.51648"
                    y2="241.90142"
                    marker-end="url(#UMLInheritance_Marker)"
                    stroke="black"
                    stroke-linecap="round"
                    stroke-linejoin="round"
                    stroke-width="1"
                />
      </g>
      <g id="Line_1180">
        <line
                    x1="183.94518"
                    y1="179.18095"
                    x2="183.94518"
                    y2="127.4387"
                    marker-end="url(#UMLInheritance_Marker)"
                    stroke="black"
                    stroke-linecap="round"
                    stroke-linejoin="round"
                    stroke-width="1"
                />
      </g>
      <g id="Graphic_1181" filter="url(#Shadow_2)">
        <path
                    d="M 257.8902 105.97165 L 371.80055 105.97165 C 376.7711 105.97165 380.80055 110.00109 380.80055 114.97165 L 380.80055 158.78872 C 380.80055 163.75928 376.7711 167.78872 371.80055 167.78872 L 257.8902 167.78872 C 252.91965 167.78872 248.8902 163.75928 248.8902 158.78872 L 248.8902 114.97165 C 248.8902 110.00109 252.91965 105.97165 257.8902 105.97165 Z"
                    fill="#ffb1b1"
                />
        <text transform="translate(253.8902 108.38018)" fill="black">
          <tspan
                        font-family="Noto Sans Display"
                        font-size="14"
                        font-weight="400"
                        fill="black"
                        x="7.85317"
                        y="15"
                        xml:space="preserve"
                    >Der Client besitzt </tspan>
          <tspan
                        font-family="Noto Sans Display"
                        font-size="14"
                        font-weight="400"
                        fill="black"
                        x="7.93717"
                        y="34"
                        xml:space="preserve"
                    >die Schnittstelle - </tspan>
          <tspan
                        font-family="Noto Sans Display"
                        font-size="14"
                        font-weight="400"
                        fill="black"
                        x="7.41217"
                        y="53"
                        xml:space="preserve"
                    >wenn überhaupt!</tspan>
        </text>
      </g>
      <g id="Graphic_1182">
        <text transform="translate(16.338584 274.82615)" fill="#a5a5a5">
          <tspan
                        font-family="Noto Sans Display"
                        font-size="14"
                        font-weight="400"
                        fill="#a5a5a5"
                        x="3836931e-19"
                        y="15"
                        xml:space="preserve"
                    >(Hilfsprogramme)</tspan>
        </text>
      </g>
      <g id="Graphic_1183">
        <text transform="translate(16.338584 170.5)" fill="#a5a5a5">
          <tspan
                        font-family="Noto Sans Display"
                        font-size="14"
                        font-weight="400"
                        fill="#a5a5a5"
                        x="3339551e-19"
                        y="15"
                        xml:space="preserve"
                    >(Mechanismus)</tspan>
        </text>
      </g>
      <g id="Graphic_1184">
        <text transform="translate(16.338586 37.497756)" fill="#a5a5a5">
          <tspan
                        font-family="Noto Sans Display"
                        font-size="14"
                        font-weight="400"
                        fill="#a5a5a5"
                        x="0"
                        y="15"
                        xml:space="preserve"
                    >(Richtlinie/Vorgehensweise)</tspan>
        </text>
      </g>
    </g>
  </g>
</svg>
