<?xml version="1.0" encoding="utf-8" standalone="no"?>
<!-- Generator: DataGraph - https://www.visualdatatools.com/DataGraph/index.html  --><!DOCTYPE svg PUBLIC "-//W3C//DTD SVG 1.1//EN" "http://www.w3.org/Graphics/SVG/1.1/DTD/svg11.dtd">
<svg width="920" height="479.5" version="1.1" xmlns="http://www.w3.org/2000/svg" xmlns:xlink="http://www.w3.org/1999/xlink">
<g>
  <!-- Background -->
  <g id="Background">
    <defs>
      <clipPath id="clipPath">
        <rect x="96.5" y="24" width="802.7" height="399"/>
      </clipPath>
    </defs>
    <!-- Grid -->
    <g id="Grid" clip-path="url(#clipPath)">
      <path d="M 169.473 423 L 169.473 24 M 250.554 423 L 250.554 24 M 331.634 423 L 331.634 24 M 412.715 423 L 412.715 24 
               M 493.796 423 L 493.796 24 M 574.877 423 L 574.877 24 M 655.958 423 L 655.958 24 M 737.038 423 L 737.038 24 
               M 818.119 423 L 818.119 24 "
        stroke="black" stroke-dasharray="0.0100001,4.00005" stroke-dashoffset="2.01003" stroke-linecap="round" fill="none" stroke-width="0.5"/>
      <path d="M 96.5 384.905 L 899.2 384.905 M 96.5 344.804 L 899.2 344.804 M 96.5 304.704 L 899.2 304.704 
               M 96.5 264.603 L 899.2 264.603 M 96.5 224.503 L 899.2 224.503 M 96.5 184.402 L 899.2 184.402 
               M 96.5 144.302 L 899.2 144.302 M 96.5 104.201 L 899.2 104.201 M 96.5 64.1005 L 899.2 64.1005 "
        stroke="black" stroke-dasharray="0.0101098,4.04393" stroke-dashoffset="0.00505491" stroke-linecap="round" fill="none" stroke-width="0.5"/>
    </g>
  </g>
  <!-- Commands -->
  <g id="Commands">
    <!-- Legend -->
    <g id="Legend">
      <defs>
        <clipPath id="clipPath2">
          <rect x="738.2" y="33" width="150" height="139.2"/>
        </clipPath>
      </defs>
      <g clip-path="url(#clipPath2)">
        <rect x="738.2" y="33" width="150" height="139.2" fill="white" stroke="none"/>
      </g>
      <rect x="738.2" y="33" width="150" height="139.2" stroke="black" fill="none" stroke-width="0.5"/>
      <defs>
        <clipPath id="clipPath3">
          <rect x="738.2" y="33" width="150" height="139.2"/>
        </clipPath>
      </defs>
      <g clip-path="url(#clipPath3)">
        <defs>
          <clipPath id="clipPath4">
            <rect x="744.2" y="56.04" width="19" height="16.32"/>
          </clipPath>
        </defs>
        <g clip-path="url(#clipPath4)">
          <path d="M 744.2 64 L 763.2 64 "
            stroke="black" fill="none" stroke-width="2"/>
        </g>
        <g font-family="Helvetica" font-size="16" fill="black">
          <text x="769.2" y="69.9383">x</text>
          <text x="777.2" y="62.8262" font-size="12">x</text>
        </g>
        <defs>
          <clipPath id="clipPath5">
            <rect x="744.2" y="75.24" width="19" height="16.32"/>
          </clipPath>
        </defs>
        <g clip-path="url(#clipPath5)">
          <path d="M 744.2 83 L 763.2 83 "
            stroke="rgb(77,175,74)" stroke-dasharray="0.03,4.5" stroke-dashoffset="4.105" stroke-linecap="round" fill="none" stroke-width="3"/>
        </g>
        <g font-family="Helvetica" font-size="16" fill="black">
          <text x="769.2" y="89.1383">x</text>
        </g>
        <defs>
          <clipPath id="clipPath6">
            <rect x="744.2" y="94.44" width="19" height="16.32"/>
          </clipPath>
        </defs>
        <g clip-path="url(#clipPath6)">
          <path d="M 744.2 103 L 763.2 103 "
            stroke="rgb(55,126,184)" stroke-dasharray="0.03,4.5" stroke-dashoffset="4.105" stroke-linecap="round" fill="none" stroke-width="3"/>
        </g>
        <g font-family="Helvetica" font-size="16" fill="black">
          <text x="769.2" y="108.338">log(x)</text>
        </g>
        <defs>
          <clipPath id="clipPath7">
            <rect x="744.2" y="113.64" width="19" height="16.32"/>
          </clipPath>
        </defs>
        <g clip-path="url(#clipPath7)">
          <path d="M 744.2 122 L 763.2 122 "
            stroke="rgb(228,28,28)" stroke-dasharray="6,3.6" stroke-dashoffset="3.1" stroke-linecap="butt" fill="none" stroke-width="3"/>
        </g>
        <g font-family="Helvetica" font-size="16" fill="black">
          <text x="769.2" y="127.538">x</text>
          <text x="777.2" y="120.426" font-size="12">2</text>
        </g>
        <defs>
          <clipPath id="clipPath8">
            <rect x="744.2" y="132.84" width="19" height="16.32"/>
          </clipPath>
        </defs>
        <g clip-path="url(#clipPath8)">
          <path d="M 744.2 141 L 763.2 141 "
            stroke="rgb(228,28,28)" stroke-dasharray="9.6,6" stroke-dashoffset="10.9" stroke-linecap="butt" fill="none" stroke-width="3"/>
        </g>
        <g font-family="Helvetica" font-size="16" fill="black">
          <text x="769.2" y="146.738">2</text>
          <text x="778.098" y="139.626" font-size="12">x</text>
        </g>
        <defs>
          <clipPath id="clipPath9">
            <rect x="744.2" y="152.04" width="19" height="16.32"/>
          </clipPath>
        </defs>
        <g clip-path="url(#clipPath9)">
          <path d="M 744.2 160 L 763.2 160 "
            stroke="rgb(255,127,0)" fill="none" stroke-width="3"/>
        </g>
        <g font-family="Helvetica" font-size="16" fill="black">
          <text x="769.2" y="165.938">x*log(x)</text>
        </g>
        <g font-family="Helvetica" font-size="16" fill="black">
          <text x="744.2" y="50.7383">f(x) = </text>
        </g>
      </g>
    </g>
    <!-- x^x -->
    <g id="x_x">
      <path d="M 96.5 423 L 98.2716 422.454 L 99.673 421.83 L 101.03 421 L 102.136 420.1 L 103.192 418.991 
               L 104.228 417.593 L 105.159 415.997 L 106.157 413.822 L 107.047 411.368 L 107.937 408.285 
               L 108.863 404.225 L 109.654 399.885 L 110.418 394.727 L 111.267 387.603 L 112.123 378.535 
               L 112.983 366.987 L 113.799 353.148 L 114.653 334.803 L 115.416 314.147 L 116.286 284.334 
               L 117.097 248.843 L 117.818 209.344 L 118.632 153.251 L 119.443 81.9146 L 119.953 24 "
        stroke="black" fill="none" stroke-width="2"/>
    </g>
    <!-- x -->
    <g id="x">
      <path d="M 96.5 423 L 899.2 224.503 "
        stroke="rgb(77,175,74)" stroke-dasharray="0.03,4.5" stroke-linecap="round" fill="none" stroke-width="3"/>
    </g>
    <!-- log(x) -->
    <g id="log_x">
      <path d="M 110.638 423 L 115.965 422.551 L 125.674 421.946 L 138.855 421.339 L 156.568 420.736 
               L 180.531 420.132 L 212.869 419.529 L 256.573 418.925 L 315.307 418.325 L 394.835 417.722 
               L 502.065 417.121 L 646.9 416.519 L 842.327 415.917 L 899.2 415.772 "
        stroke="rgb(55,126,184)" stroke-dasharray="0.03,4.5" stroke-linecap="round" fill="none" stroke-width="3"/>
    </g>
    <!-- x^2 -->
    <g id="x_2">
      <path d="M 96.5 423 L 98.402 421.949 L 100.405 420.604 L 102.484 418.949 L 104.558 417.035 L 106.752 414.725 
               L 108.972 412.087 L 111.267 409.047 L 113.697 405.475 L 116.062 401.654 L 118.632 397.116 
               L 121.2 392.177 L 123.978 386.382 L 126.736 380.163 L 129.581 373.262 L 132.629 365.32 
               L 135.788 356.493 L 138.855 347.338 L 142.229 336.605 L 145.685 324.892 L 149.122 312.52 
               L 152.663 299.021 L 156.376 284.045 L 160.122 268.081 L 163.907 251.082 L 167.786 232.757 
               L 171.846 212.595 L 175.959 191.142 L 180.201 167.932 L 184.518 143.191 L 188.841 117.268 
               L 193.434 88.4847 L 198.113 57.8351 L 202.791 25.8614 L 203.052 24 "
        stroke="rgb(228,28,28)" stroke-dasharray="6,3.6" stroke-linecap="butt" fill="none" stroke-width="3"/>
    </g>
    <!-- 2^x -->
    <g id="2_x">
      <path d="M 96.5 420.995 L 99.1206 419.988 L 101.422 418.897 L 103.693 417.588 L 105.776 416.143 
               L 107.635 414.616 L 109.464 412.858 L 111.267 410.834 L 112.983 408.595 L 114.653 406.076 
               L 116.286 403.24 L 117.818 400.196 L 119.443 396.498 L 121.107 392.141 L 122.55 387.825 
               L 124.147 382.385 L 125.674 376.443 L 127.13 370.004 L 128.576 362.767 L 130.017 354.611 
               L 131.533 344.872 L 133.071 333.606 L 134.595 320.887 L 136.032 307.286 L 137.579 290.631 
               L 139.106 271.902 L 140.506 252.438 L 142.086 227.482 L 143.496 202.173 L 144.942 172.849 
               L 146.443 138.332 L 147.915 99.8976 L 149.447 54.3777 L 150.347 24 "
        stroke="rgb(228,28,28)" stroke-dasharray="9.6,6" stroke-linecap="butt" fill="none" stroke-width="3"/>
    </g>
    <!-- x*log(x) -->
    <g id="x_log_x">
      <path d="M 102.674 423 L 106.157 421.559 L 110.342 419.599 L 115.008 417.181 L 120.049 414.342 
               L 125.674 410.939 L 131.82 406.982 L 138.437 402.481 L 145.685 397.302 L 153.461 391.494 
               L 161.696 385.093 L 170.658 377.868 L 179.946 370.124 L 190.095 361.396 L 200.686 352.021 
               L 211.978 341.754 L 223.665 330.859 L 236.028 319.062 L 249.052 306.357 L 262.809 292.654 
               L 277.14 278.093 L 292.118 262.588 L 307.634 246.238 L 323.981 228.72 L 341.01 210.172 
               L 358.669 190.638 L 376.972 170.091 L 396.021 148.401 L 415.718 125.668 L 435.993 101.961 
               L 457.003 77.086 L 478.778 50.9928 L 501.043 24 "
        stroke="rgb(255,127,0)" fill="none" stroke-width="3"/>
    </g>
  </g>
  <!-- Foreground -->
  <g id="Foreground">
    <!-- Y Axis -->
    <g id="Y_Axis">
      <g transform="translate(18.525,223.5) rotate(-90) translate(-18.525,-223.5)" font-family="Helvetica" font-size="16" fill="black">
        <text x="6.97422" y="223.5">f(x)</text>
      </g>
      <!-- Y Labels -->
      <g id="Y_Labels">
        <g font-family="Helvetica" font-size="16" fill="black">
          <text x="67.5031" y="390.643">20</text>
        </g>
        <g font-family="Helvetica" font-size="16" fill="black">
          <text x="67.5031" y="350.542">40</text>
        </g>
        <g font-family="Helvetica" font-size="16" fill="black">
          <text x="67.5031" y="310.442">60</text>
        </g>
        <g font-family="Helvetica" font-size="16" fill="black">
          <text x="67.5031" y="270.341">80</text>
        </g>
        <g font-family="Helvetica" font-size="16" fill="black">
          <text x="58.6047" y="230.241">100</text>
        </g>
        <g font-family="Helvetica" font-size="16" fill="black">
          <text x="58.6047" y="190.14">120</text>
        </g>
        <g font-family="Helvetica" font-size="16" fill="black">
          <text x="58.6047" y="150.04">140</text>
        </g>
        <g font-family="Helvetica" font-size="16" fill="black">
          <text x="58.6047" y="109.939">160</text>
        </g>
        <g font-family="Helvetica" font-size="16" fill="black">
          <text x="58.6047" y="69.8388">180</text>
        </g>
        <g font-family="Helvetica" font-size="16" fill="black">
          <text x="58.6047" y="29.7383">200</text>
        </g>
      </g>
      <path d="M 92.5 404.955 L 96.5 404.955 M 88.5 384.905 L 96.5 384.905 M 92.5 364.854 L 96.5 364.854 
               M 88.5 344.804 L 96.5 344.804 M 92.5 324.754 L 96.5 324.754 M 88.5 304.704 L 96.5 304.704 
               M 92.5 284.653 L 96.5 284.653 M 88.5 264.603 L 96.5 264.603 M 92.5 244.553 L 96.5 244.553 
               M 88.5 224.503 L 96.5 224.503 M 92.5 204.452 L 96.5 204.452 M 88.5 184.402 L 96.5 184.402 
               M 92.5 164.352 L 96.5 164.352 M 88.5 144.302 L 96.5 144.302 M 92.5 124.251 L 96.5 124.251 
               M 88.5 104.201 L 96.5 104.201 M 92.5 84.1508 L 96.5 84.1508 M 88.5 64.1005 L 96.5 64.1005 
               M 92.5 44.0503 L 96.5 44.0503 M 88.5 24 L 96.5 24 "
        stroke="black" fill="none" stroke-width="0.5"/>
    </g>
    <!-- X Axis -->
    <g id="X_Axis">
      <g font-family="Helvetica" font-size="16" fill="black">
        <text x="494" y="470.5">x</text>
      </g>
      <g>
        <g font-family="Helvetica" font-size="16" fill="black">
          <text x="160.574" y="445.92">10</text>
        </g>
        <g font-family="Helvetica" font-size="16" fill="black">
          <text x="241.655" y="445.92">20</text>
        </g>
        <g font-family="Helvetica" font-size="16" fill="black">
          <text x="322.736" y="445.92">30</text>
        </g>
        <g font-family="Helvetica" font-size="16" fill="black">
          <text x="403.817" y="445.92">40</text>
        </g>
        <g font-family="Helvetica" font-size="16" fill="black">
          <text x="484.898" y="445.92">50</text>
        </g>
        <g font-family="Helvetica" font-size="16" fill="black">
          <text x="565.978" y="445.92">60</text>
        </g>
        <g font-family="Helvetica" font-size="16" fill="black">
          <text x="647.059" y="445.92">70</text>
        </g>
        <g font-family="Helvetica" font-size="16" fill="black">
          <text x="728.14" y="445.92">80</text>
        </g>
        <g font-family="Helvetica" font-size="16" fill="black">
          <text x="809.221" y="445.92">90</text>
        </g>
        <g font-family="Helvetica" font-size="16" fill="black">
          <text x="885.852" y="445.92">100</text>
        </g>
      </g>
      <path d="M 169.473 431 L 169.473 423 M 250.554 431 L 250.554 423 M 331.634 431 L 331.634 423 M 412.715 431 L 412.715 423 
               M 493.796 431 L 493.796 423 M 574.877 431 L 574.877 423 M 655.958 431 L 655.958 423 M 737.038 431 L 737.038 423 
               M 818.119 431 L 818.119 423 M 899.2 431 L 899.2 423 M 96.5 427 L 96.5 423 M 104.608 427 L 104.608 423 
               M 112.716 427 L 112.716 423 M 120.824 427 L 120.824 423 M 128.932 427 L 128.932 423 M 137.04 427 L 137.04 423 
               M 145.148 427 L 145.148 423 M 153.257 427 L 153.257 423 M 161.365 427 L 161.365 423 M 177.581 427 L 177.581 423 
               M 185.689 427 L 185.689 423 M 193.797 427 L 193.797 423 M 201.905 427 L 201.905 423 M 210.013 427 L 210.013 423 
               M 218.121 427 L 218.121 423 M 226.229 427 L 226.229 423 M 234.337 427 L 234.337 423 M 242.445 427 L 242.445 423 
               M 258.662 427 L 258.662 423 M 266.77 427 L 266.77 423 M 274.878 427 L 274.878 423 M 282.986 427 L 282.986 423 
               M 291.094 427 L 291.094 423 M 299.202 427 L 299.202 423 M 307.31 427 L 307.31 423 M 315.418 427 L 315.418 423 
               M 323.526 427 L 323.526 423 M 339.742 427 L 339.742 423 M 347.851 427 L 347.851 423 M 355.959 427 L 355.959 423 
               M 364.067 427 L 364.067 423 M 372.175 427 L 372.175 423 M 380.283 427 L 380.283 423 M 388.391 427 L 388.391 423 
               M 396.499 427 L 396.499 423 M 404.607 427 L 404.607 423 M 420.823 427 L 420.823 423 M 428.931 427 L 428.931 423 
               M 437.039 427 L 437.039 423 M 445.147 427 L 445.147 423 M 453.256 427 L 453.256 423 M 461.364 427 L 461.364 423 
               M 469.472 427 L 469.472 423 M 477.58 427 L 477.58 423 M 485.688 427 L 485.688 423 M 501.904 427 L 501.904 423 
               M 510.012 427 L 510.012 423 M 518.12 427 L 518.12 423 M 526.228 427 L 526.228 423 M 534.336 427 L 534.336 423 
               M 542.444 427 L 542.444 423 M 550.553 427 L 550.553 423 M 558.661 427 L 558.661 423 M 566.769 427 L 566.769 423 
               M 582.985 427 L 582.985 423 M 591.093 427 L 591.093 423 M 599.201 427 L 599.201 423 M 607.309 427 L 607.309 423 
               M 615.417 427 L 615.417 423 M 623.525 427 L 623.525 423 M 631.633 427 L 631.633 423 M 639.741 427 L 639.741 423 
               M 647.849 427 L 647.849 423 M 664.066 427 L 664.066 423 M 672.174 427 L 672.174 423 M 680.282 427 L 680.282 423 
               M 688.39 427 L 688.39 423 M 696.498 427 L 696.498 423 M 704.606 427 L 704.606 423 M 712.714 427 L 712.714 423 
               M 720.822 427 L 720.822 423 M 728.93 427 L 728.93 423 M 745.146 427 L 745.146 423 M 753.255 427 L 753.255 423 
               M 761.363 427 L 761.363 423 M 769.471 427 L 769.471 423 M 777.579 427 L 777.579 423 M 785.687 427 L 785.687 423 
               M 793.795 427 L 793.795 423 M 801.903 427 L 801.903 423 M 810.011 427 L 810.011 423 M 826.227 427 L 826.227 423 
               M 834.335 427 L 834.335 423 M 842.443 427 L 842.443 423 M 850.552 427 L 850.552 423 M 858.66 427 L 858.66 423 
               M 866.768 427 L 866.768 423 M 874.876 427 L 874.876 423 M 882.984 427 L 882.984 423 M 891.092 427 L 891.092 423 "
        stroke="black" fill="none" stroke-width="0.5"/>
    </g>
    <g font-family="Helvetica" font-size="16" fill="black">
      <text x="435.592" y="18.025">Aufwandsklassen</text>
    </g>
    <path d="M 899.2 423 L 899.2 24 L 96.5 24 L 96.5 423 L 899.2 423 z "
      stroke="black" stroke-linecap="square" fill="none" stroke-width="0.5"/>
  </g>
  <!-- Zoom -->
  <g id="Zoom">
    <!-- Connection -->
    <g id="Connection">
      <path d="M 163.797 423.341 L 640.2 252 "
        stroke="black" fill="none" stroke-width="0.5"/>
      <path d="M 97.0676 354.448 L 474.2 96 "
        stroke="black" fill="none" stroke-width="0.5"/>
    </g>
    <!-- Source -->
    <g id="Source">
      <defs>
        <clipPath id="clipPath10">
          <rect x="474.2" y="96" width="166" height="156"/>
        </clipPath>
      </defs>
      <g clip-path="url(#clipPath10)">
        <rect x="474.2" y="96" width="166" height="156" fill="rgb(245,246,249)" stroke="none"/>
      </g>
      <rect x="97.0676" y="354.448" width="66.7295" height="68.8927" stroke="black" fill="none" stroke-width="0.5"/>
    </g>
    <!-- Destination -->
    <g id="Destination">
      <!-- Content -->
      <g id="Content" transform="translate(474,252.5)">>
        <defs>
          <clipPath id="clipPath11">
            <rect x="0.2" y="-156.5" width="166" height="156"/>
          </clipPath>
        </defs>
        <!-- Grid -->
        <g id="Grid_2" clip-path="url(#clipPath11)">
          <path d="M 18.9582 -0.5 L 18.9582 -156.5 M 59.2984 -0.5 L 59.2984 -156.5 M 99.6386 -0.5 L 99.6386 -156.5 
                   M 139.979 -0.5 L 139.979 -156.5 "
            stroke="black" stroke-dasharray="0.0102928,4.11713" stroke-dashoffset="3.77348" stroke-linecap="round" fill="none" stroke-width="0.5"/>
          <path d="M 0.2 -42.1333 L 166.2 -42.1333 M 0.2 -87.5349 L 166.2 -87.5349 M 0.2 -132.937 L 166.2 -132.937 "
            stroke="black" stroke-dasharray="0.0100599,4.02396" stroke-dashoffset="1.41694" stroke-linecap="round" fill="none" stroke-width="0.5"/>
        </g>
        <!-- Commands -->
        <g id="Commands_2">
          <path d="M 0.2 -1.6127 L 3.01213 -2.44569 L 5.53622 -3.405 L 7.8451 -4.50269 L 9.954 -5.73343 
                   L 11.9163 -7.11868 L 13.7448 -8.66221 L 15.4773 -10.3951 L 17.1383 -12.3517 L 18.7223 -14.5368 
                   L 20.2462 -16.9863 L 21.7459 -19.788 L 23.2145 -22.9722 L 24.6321 -26.5302 L 26.0256 -30.569 
                   L 27.4302 -35.2729 L 28.8018 -40.582 L 30.1803 -46.7479 L 31.5398 -53.7798 L 32.8816 -61.7991 
                   L 34.2046 -70.9287 L 35.5325 -81.5127 L 36.8644 -93.7962 L 38.1844 -107.89 L 39.5076 -124.258 
                   L 40.8104 -142.93 L 41.6279 -156.5 "
            stroke="black" fill="none" stroke-width="2"/>
          <path d="M 0.2 -1.58964 L 166.2 -38.9552 "
            stroke="rgb(77,175,74)" stroke-dasharray="0.03,4.5" stroke-linecap="round" fill="none" stroke-width="3"/>
          <path d="M 25.0669 -0.5 L 27.6671 -0.766147 L 38.7544 -1.6914 L 52.3307 -2.61559 L 69.0014 -3.54127 
                   L 89.398 -4.46513 L 114.364 -5.38786 L 144.958 -6.31065 L 166.2 -6.85629 "
            stroke="rgb(55,126,184)" stroke-dasharray="0.03,4.5" stroke-linecap="round" fill="none" stroke-width="3"/>
          <path d="M 0.2 -1.9297 L 3.3927 -3.58138 L 6.64138 -5.49554 L 9.91886 -7.66539 L 13.2477 -10.1147 
                   L 16.6644 -12.8857 L 20.1137 -15.9476 L 23.6448 -19.3571 L 27.2194 -23.0921 L 30.9095 -27.247 
                   L 34.6583 -31.7792 L 38.4603 -36.6959 L 42.3636 -42.0794 L 46.3533 -47.9335 L 50.4038 -54.2401 
                   L 54.5304 -61.0419 L 58.7456 -68.3822 L 63.0573 -76.3007 L 67.4393 -84.7735 L 71.8887 -93.8153 
                   L 76.4524 -103.548 L 81.1217 -113.987 L 85.8808 -125.128 L 90.7265 -136.991 L 95.66 -149.607 
                   L 98.2431 -156.5 "
            stroke="rgb(228,28,28)" stroke-dasharray="6,3.6" stroke-linecap="butt" fill="none" stroke-width="3"/>
          <path d="M 0.2 -6.26343 L 4.45954 -7.76598 L 8.46527 -9.39445 L 12.2161 -11.1365 L 15.7982 -13.0235 
                   L 19.2268 -15.0607 L 22.5119 -17.2513 L 25.681 -19.6122 L 28.7157 -22.1272 L 31.6704 -24.8413 
                   L 34.5265 -27.7402 L 37.3483 -30.8978 L 40.0771 -34.2567 L 42.7739 -37.9007 L 45.4497 -41.8658 
                   L 48.0593 -46.1005 L 50.6421 -50.6827 L 53.2047 -55.6494 L 55.7477 -61.0297 L 58.2504 -66.8046 
                   L 60.7456 -73.0782 L 63.2187 -79.8504 L 65.6566 -87.1142 L 68.0987 -95.0268 L 70.5346 -103.609 
                   L 72.9824 -112.989 L 75.4021 -123.069 L 77.7955 -133.9 L 80.1838 -145.632 L 82.2204 -156.5 "
            stroke="rgb(228,28,28)" stroke-dasharray="9.6,6" stroke-linecap="butt" fill="none" stroke-width="3"/>
          <path d="M 11.8788 -0.5 L 15.564 -1.76517 L 21.6823 -4.08412 L 28.2874 -6.80718 L 35.4036 -9.96216 
                   L 43.0633 -13.5823 L 51.2423 -17.6741 L 59.9463 -22.2563 L 69.2374 -27.3788 L 79.0671 -33.0316 
                   L 89.4248 -39.2224 L 100.351 -45.9891 L 111.869 -53.3615 L 123.968 -61.3463 L 136.657 -69.965 
                   L 149.932 -79.2265 L 163.799 -89.1483 L 166.2 -90.8907 "
            stroke="rgb(255,127,0)" fill="none" stroke-width="3"/>
        </g>
        <g>
          <!-- Y Labels -->
          <g id="Y_Labels_2">
            <g font-family="Helvetica" font-size="14" fill="black">
              <text x="177" y="-37.1123">10</text>
            </g>
            <g font-family="Helvetica" font-size="14" fill="black">
              <text x="177" y="-82.5139">20</text>
            </g>
            <g font-family="Helvetica" font-size="14" fill="black">
              <text x="177" y="-127.916">30</text>
            </g>
          </g>
          <path d="M 166.2 -19.4325 L 170.2 -19.4325 M 166.2 -42.1333 L 174.2 -42.1333 M 166.2 -64.8341 L 170.2 -64.8341 
                   M 166.2 -87.5349 L 174.2 -87.5349 M 166.2 -110.236 L 170.2 -110.236 M 166.2 -132.937 L 174.2 -132.937 
                   M 166.2 -155.637 L 170.2 -155.637 "
            stroke="black" fill="none" stroke-width="0.5"/>
          <g>
            <g font-family="Helvetica" font-size="14" fill="black">
              <text x="15.0651" y="-166.508">2</text>
            </g>
            <g font-family="Helvetica" font-size="14" fill="black">
              <text x="55.4054" y="-166.508">4</text>
            </g>
            <g font-family="Helvetica" font-size="14" fill="black">
              <text x="95.7456" y="-166.508">6</text>
            </g>
            <g font-family="Helvetica" font-size="14" fill="black">
              <text x="136.086" y="-166.508">8</text>
            </g>
          </g>
          <path d="M 18.9582 -156.5 L 18.9582 -164.5 M 39.1283 -156.5 L 39.1283 -160.5 M 59.2984 -156.5 L 59.2984 -164.5 
                   M 79.4685 -156.5 L 79.4685 -160.5 M 99.6386 -156.5 L 99.6386 -164.5 M 119.809 -156.5 L 119.809 -160.5 
                   M 139.979 -156.5 L 139.979 -164.5 M 160.149 -156.5 L 160.149 -160.5 "
            stroke="black" fill="none" stroke-width="0.5"/>
        </g>
      </g>
      <rect x="474.2" y="96" width="166" height="156" stroke="black" fill="none" stroke-width="0.5"/>
    </g>
  </g>
</g>
</svg>
