<?xml version="1.0" encoding="utf-8" standalone="no"?>
<!-- Generator: DataGraph - https://www.visualdatatools.com/DataGraph/index.html  --><!DOCTYPE svg PUBLIC "-//W3C//DTD SVG 1.1//EN" "http://www.w3.org/Graphics/SVG/1.1/DTD/svg11.dtd">
<svg width="920" height="479.5" version="1.1" xmlns="http://www.w3.org/2000/svg" xmlns:xlink="http://www.w3.org/1999/xlink">
<g>
  <!-- Commands -->
  <g id="Commands">
    <!-- Legend -->
    <g id="Legend">
      <defs>
        <clipPath id="clipPath">
          <rect x="738.2" y="33" width="150" height="120"/>
        </clipPath>
      </defs>
      <g clip-path="url(#clipPath)">
        <rect x="738.2" y="33" width="150" height="120" fill="white" stroke="none"/>
      </g>
      <rect x="738.2" y="33" width="150" height="120" stroke="black" fill="none" stroke-width="0.5"/>
      <defs>
        <clipPath id="clipPath2">
          <rect x="738.2" y="33" width="150" height="120"/>
        </clipPath>
      </defs>
      <g clip-path="url(#clipPath2)">
        <defs>
          <clipPath id="clipPath3">
            <rect x="744.2" y="36.84" width="19" height="16.32"/>
          </clipPath>
        </defs>
        <g clip-path="url(#clipPath3)">
          <path d="M 744.2 45 L 763.2 45 "
            stroke="black" fill="none" stroke-width="2"/>
        </g>
        <g font-family="Helvetica" font-size="16" fill="black">
          <text x="769.2" y="50.7383">x</text>
          <text x="777.2" y="43.6262" font-size="12">x</text>
        </g>
        <defs>
          <clipPath id="clipPath4">
            <rect x="744.2" y="56.04" width="19" height="16.32"/>
          </clipPath>
        </defs>
        <g clip-path="url(#clipPath4)">
          <path d="M 744.2 64 L 763.2 64 "
            stroke="rgb(77,175,74)" stroke-dasharray="0.03,4.5" stroke-dashoffset="4.105" stroke-linecap="round" fill="none" stroke-width="3"/>
        </g>
        <g font-family="Helvetica" font-size="16" fill="black">
          <text x="769.2" y="69.9383">x</text>
        </g>
        <defs>
          <clipPath id="clipPath5">
            <rect x="744.2" y="75.24" width="19" height="16.32"/>
          </clipPath>
        </defs>
        <g clip-path="url(#clipPath5)">
          <path d="M 744.2 83 L 763.2 83 "
            stroke="rgb(55,126,184)" stroke-dasharray="0.03,4.5" stroke-dashoffset="4.105" stroke-linecap="round" fill="none" stroke-width="3"/>
        </g>
        <g font-family="Helvetica" font-size="16" fill="black">
          <text x="769.2" y="89.1383">log(x)</text>
        </g>
        <defs>
          <clipPath id="clipPath6">
            <rect x="744.2" y="94.44" width="19" height="16.32"/>
          </clipPath>
        </defs>
        <g clip-path="url(#clipPath6)">
          <path d="M 744.2 103 L 763.2 103 "
            stroke="rgb(228,28,28)" stroke-dasharray="6,3.6" stroke-dashoffset="3.1" stroke-linecap="butt" fill="none" stroke-width="3"/>
        </g>
        <g font-family="Helvetica" font-size="16" fill="black">
          <text x="769.2" y="108.338">x</text>
          <text x="777.2" y="101.226" font-size="12">2</text>
        </g>
        <defs>
          <clipPath id="clipPath7">
            <rect x="744.2" y="113.64" width="19" height="16.32"/>
          </clipPath>
        </defs>
        <g clip-path="url(#clipPath7)">
          <path d="M 744.2 122 L 763.2 122 "
            stroke="rgb(228,28,28)" stroke-dasharray="9.6,6" stroke-dashoffset="10.9" stroke-linecap="butt" fill="none" stroke-width="3"/>
        </g>
        <g font-family="Helvetica" font-size="16" fill="black">
          <text x="769.2" y="127.538">2</text>
          <text x="778.098" y="120.426" font-size="12">x</text>
        </g>
        <defs>
          <clipPath id="clipPath8">
            <rect x="744.2" y="132.84" width="19" height="16.32"/>
          </clipPath>
        </defs>
        <g clip-path="url(#clipPath8)">
          <path d="M 744.2 141 L 763.2 141 "
            stroke="rgb(255,127,0)" fill="none" stroke-width="3"/>
        </g>
        <g font-family="Helvetica" font-size="16" fill="black">
          <text x="769.2" y="146.738">x*log(x)</text>
        </g>
      </g>
    </g>
    <!-- x^x -->
    <g id="x_x">
      <path d="M 72.5 447 L 74.1071 446.504 L 75.6962 445.798 L 76.9996 444.999 L 78.1708 444.051 L 79.3148 442.844 
               L 80.2935 441.523 L 81.2619 439.878 L 82.2341 437.794 L 83.0581 435.598 L 83.9679 432.593 
               L 84.7164 429.554 L 85.5834 425.231 L 86.5048 419.45 L 87.3824 412.492 L 88.2445 403.897 
               L 89.0114 394.4 L 89.8886 380.832 L 90.6908 365.234 L 91.5615 343.905 L 92.3739 318.753 
               L 93.2226 285.542 L 94.0517 244.359 L 94.8557 193.873 L 95.6917 127.276 L 96.4559 50.3746 
               L 96.6629 24 "
        stroke="black" fill="none" stroke-width="2"/>
    </g>
    <!-- x -->
    <g id="x">
      <path d="M 72.5 447 L 899.2 236.563 "
        stroke="rgb(77,175,74)" stroke-dasharray="0.03,4.5" stroke-linecap="round" fill="none" stroke-width="3"/>
    </g>
    <!-- log(x) -->
    <g id="log_x">
      <path d="M 87.0861 447 L 91.5615 446.599 L 100.8 445.982 L 113.214 445.362 L 129.873 444.74 L 152.182 444.119 
               L 181.969 443.499 L 221.993 442.878 L 275.388 442.258 L 347.018 441.638 L 442.89 441.017 
               L 571.265 440.397 L 743.141 439.777 L 899.2 439.337 "
        stroke="rgb(55,126,184)" stroke-dasharray="0.03,4.5" stroke-linecap="round" fill="none" stroke-width="3"/>
    </g>
    <!-- x^2 -->
    <g id="x_2">
      <path d="M 72.5 447 L 74.4588 445.886 L 76.3593 444.581 L 78.3042 443.018 L 80.4586 441.017 L 82.6222 438.724 
               L 84.7164 436.231 L 87.0166 433.186 L 89.4759 429.573 L 91.9821 425.512 L 94.455 421.129 
               L 97.1079 416.013 L 99.7975 410.388 L 102.546 404.184 L 105.536 396.914 L 108.58 388.949 
               L 111.734 380.101 L 114.948 370.463 L 118.251 359.901 L 121.616 348.456 L 125.044 336.091 
               L 128.554 322.683 L 132.225 307.858 L 136.002 291.748 L 139.859 274.398 L 143.769 255.884 
               L 147.769 235.981 L 151.831 214.768 L 156.148 191.125 L 160.459 166.375 L 164.945 139.423 
               L 169.354 111.737 L 174.076 80.7717 L 178.657 49.4305 L 182.225 24 "
        stroke="rgb(228,28,28)" stroke-dasharray="6,3.6" stroke-linecap="butt" fill="none" stroke-width="3"/>
    </g>
    <!-- 2^x -->
    <g id="2_x">
      <path d="M 72.5 444.874 L 75.0377 443.878 L 77.4197 442.73 L 79.595 441.465 L 81.5865 440.087 L 83.5394 438.497 
               L 85.3452 436.778 L 87.2076 434.714 L 89.0114 432.386 L 90.6908 429.882 L 92.3739 426.997 
               L 94.0517 423.69 L 95.6917 419.981 L 97.2886 415.85 L 98.9425 410.953 L 100.471 405.79 
               L 101.944 400.152 L 103.408 393.824 L 104.857 386.759 L 106.443 377.979 L 107.908 368.784 
               L 109.512 357.339 L 111.037 344.951 L 112.574 330.781 L 114.126 314.508 L 115.691 295.828 
               L 117.109 276.69 L 118.66 252.992 L 120.116 227.794 L 121.616 198.441 L 123.156 164.274 
               L 124.574 128.672 L 126.051 86.8882 L 127.622 36.4355 L 127.962 24 "
        stroke="rgb(228,28,28)" stroke-dasharray="9.6,6" stroke-linecap="butt" fill="none" stroke-width="3"/>
    </g>
    <!-- x*log(x) -->
    <g id="x_log_x">
      <path d="M 78.8396 447 L 81.8885 445.723 L 85.8519 443.849 L 90.3162 441.518 L 95.2934 438.69 L 100.8 435.327 
               L 106.859 431.382 L 113.402 426.876 L 120.409 421.806 L 128.074 416.006 L 136.216 409.588 
               L 144.926 402.464 L 154.203 394.612 L 164.097 385.971 L 174.559 376.563 L 185.563 366.394 
               L 197.16 355.404 L 209.454 343.471 L 222.319 330.7 L 235.673 317.163 L 249.768 302.588 
               L 264.505 287.057 L 279.904 270.534 L 295.904 253.07 L 312.588 234.56 L 329.998 214.94 
               L 347.965 194.388 L 366.557 172.817 L 385.84 150.136 L 405.837 126.304 L 426.552 101.304 
               L 447.944 75.1694 L 469.925 47.9999 L 489.123 24 "
        stroke="rgb(255,127,0)" fill="none" stroke-width="3"/>
    </g>
  </g>
  <!-- Foreground -->
  <g id="Foreground">
    <!-- Y Axis -->
    <g id="Y_Axis">
      <!-- Y Labels -->
      <g id="Y_Labels">
        <g font-family="Helvetica" font-size="16" fill="black">
          <text x="43.5031" y="412.351">20</text>
        </g>
        <g font-family="Helvetica" font-size="16" fill="black">
          <text x="43.5031" y="369.839">40</text>
        </g>
        <g font-family="Helvetica" font-size="16" fill="black">
          <text x="43.5031" y="327.326">60</text>
        </g>
        <g font-family="Helvetica" font-size="16" fill="black">
          <text x="43.5031" y="284.814">80</text>
        </g>
        <g font-family="Helvetica" font-size="16" fill="black">
          <text x="34.6047" y="242.301">100</text>
        </g>
        <g font-family="Helvetica" font-size="16" fill="black">
          <text x="34.6047" y="199.789">120</text>
        </g>
        <g font-family="Helvetica" font-size="16" fill="black">
          <text x="34.6047" y="157.276">140</text>
        </g>
        <g font-family="Helvetica" font-size="16" fill="black">
          <text x="34.6047" y="114.763">160</text>
        </g>
        <g font-family="Helvetica" font-size="16" fill="black">
          <text x="34.6047" y="72.2508">180</text>
        </g>
        <g font-family="Helvetica" font-size="16" fill="black">
          <text x="34.6047" y="29.7383">200</text>
        </g>
      </g>
      <path d="M 68.5 427.869 L 72.5 427.869 M 64.5 406.613 L 72.5 406.613 M 68.5 385.357 L 72.5 385.357 
               M 64.5 364.101 L 72.5 364.101 M 68.5 342.844 L 72.5 342.844 M 64.5 321.588 L 72.5 321.588 
               M 68.5 300.332 L 72.5 300.332 M 64.5 279.075 L 72.5 279.075 M 68.5 257.819 L 72.5 257.819 
               M 64.5 236.563 L 72.5 236.563 M 68.5 215.307 L 72.5 215.307 M 64.5 194.05 L 72.5 194.05 
               M 68.5 172.794 L 72.5 172.794 M 64.5 151.538 L 72.5 151.538 M 68.5 130.281 L 72.5 130.281 
               M 64.5 109.025 L 72.5 109.025 M 68.5 87.7688 L 72.5 87.7688 M 64.5 66.5126 L 72.5 66.5126 
               M 68.5 45.2563 L 72.5 45.2563 M 64.5 24 L 72.5 24 "
        stroke="black" fill="none" stroke-width="0.5"/>
    </g>
    <!-- X Axis -->
    <g id="X_Axis">
      <g>
        <g font-family="Helvetica" font-size="16" fill="black">
          <text x="138.756" y="469.92">10</text>
        </g>
        <g font-family="Helvetica" font-size="16" fill="black">
          <text x="222.261" y="469.92">20</text>
        </g>
        <g font-family="Helvetica" font-size="16" fill="black">
          <text x="305.766" y="469.92">30</text>
        </g>
        <g font-family="Helvetica" font-size="16" fill="black">
          <text x="389.271" y="469.92">40</text>
        </g>
        <g font-family="Helvetica" font-size="16" fill="black">
          <text x="472.776" y="469.92">50</text>
        </g>
        <g font-family="Helvetica" font-size="16" fill="black">
          <text x="556.281" y="469.92">60</text>
        </g>
        <g font-family="Helvetica" font-size="16" fill="black">
          <text x="639.786" y="469.92">70</text>
        </g>
        <g font-family="Helvetica" font-size="16" fill="black">
          <text x="723.291" y="469.92">80</text>
        </g>
        <g font-family="Helvetica" font-size="16" fill="black">
          <text x="806.797" y="469.92">90</text>
        </g>
        <g font-family="Helvetica" font-size="16" fill="black">
          <text x="885.852" y="469.92">100</text>
        </g>
      </g>
      <path d="M 147.655 455 L 147.655 447 M 231.16 455 L 231.16 447 M 314.665 455 L 314.665 447 M 398.17 455 L 398.17 447 
               M 481.675 455 L 481.675 447 M 565.18 455 L 565.18 447 M 648.685 455 L 648.685 447 M 732.19 455 L 732.19 447 
               M 815.695 455 L 815.695 447 M 899.2 455 L 899.2 447 M 72.5 451 L 72.5 447 M 80.8505 451 L 80.8505 447 
               M 89.201 451 L 89.201 447 M 97.5515 451 L 97.5515 447 M 105.902 451 L 105.902 447 M 114.253 451 L 114.253 447 
               M 122.603 451 L 122.603 447 M 130.954 451 L 130.954 447 M 139.304 451 L 139.304 447 M 156.005 451 L 156.005 447 
               M 164.356 451 L 164.356 447 M 172.706 451 L 172.706 447 M 181.057 451 L 181.057 447 M 189.407 451 L 189.407 447 
               M 197.758 451 L 197.758 447 M 206.108 451 L 206.108 447 M 214.459 451 L 214.459 447 M 222.809 451 L 222.809 447 
               M 239.51 451 L 239.51 447 M 247.861 451 L 247.861 447 M 256.211 451 L 256.211 447 M 264.562 451 L 264.562 447 
               M 272.912 451 L 272.912 447 M 281.263 451 L 281.263 447 M 289.613 451 L 289.613 447 M 297.964 451 L 297.964 447 
               M 306.314 451 L 306.314 447 M 323.015 451 L 323.015 447 M 331.366 451 L 331.366 447 M 339.716 451 L 339.716 447 
               M 348.067 451 L 348.067 447 M 356.417 451 L 356.417 447 M 364.768 451 L 364.768 447 M 373.118 451 L 373.118 447 
               M 381.469 451 L 381.469 447 M 389.819 451 L 389.819 447 M 406.52 451 L 406.52 447 M 414.871 451 L 414.871 447 
               M 423.221 451 L 423.221 447 M 431.572 451 L 431.572 447 M 439.922 451 L 439.922 447 M 448.273 451 L 448.273 447 
               M 456.623 451 L 456.623 447 M 464.974 451 L 464.974 447 M 473.324 451 L 473.324 447 M 490.025 451 L 490.025 447 
               M 498.376 451 L 498.376 447 M 506.726 451 L 506.726 447 M 515.077 451 L 515.077 447 M 523.427 451 L 523.427 447 
               M 531.778 451 L 531.778 447 M 540.128 451 L 540.128 447 M 548.479 451 L 548.479 447 M 556.829 451 L 556.829 447 
               M 573.53 451 L 573.53 447 M 581.881 451 L 581.881 447 M 590.231 451 L 590.231 447 M 598.582 451 L 598.582 447 
               M 606.932 451 L 606.932 447 M 615.283 451 L 615.283 447 M 623.633 451 L 623.633 447 M 631.984 451 L 631.984 447 
               M 640.334 451 L 640.334 447 M 657.035 451 L 657.035 447 M 665.386 451 L 665.386 447 M 673.736 451 L 673.736 447 
               M 682.087 451 L 682.087 447 M 690.437 451 L 690.437 447 M 698.788 451 L 698.788 447 M 707.138 451 L 707.138 447 
               M 715.489 451 L 715.489 447 M 723.839 451 L 723.839 447 M 740.54 451 L 740.54 447 M 748.891 451 L 748.891 447 
               M 757.241 451 L 757.241 447 M 765.592 451 L 765.592 447 M 773.942 451 L 773.942 447 M 782.293 451 L 782.293 447 
               M 790.643 451 L 790.643 447 M 798.994 451 L 798.994 447 M 807.344 451 L 807.344 447 M 824.045 451 L 824.045 447 
               M 832.396 451 L 832.396 447 M 840.746 451 L 840.746 447 M 849.097 451 L 849.097 447 M 857.447 451 L 857.447 447 
               M 865.798 451 L 865.798 447 M 874.148 451 L 874.148 447 M 882.499 451 L 882.499 447 M 890.849 451 L 890.849 447 "
        stroke="black" fill="none" stroke-width="0.5"/>
    </g>
    <g font-family="Helvetica" font-size="16" fill="black">
      <text x="423.592" y="18.025">Aufwandsklassen</text>
    </g>
    <path d="M 899.2 447 L 899.2 24 L 72.5 24 L 72.5 447 L 899.2 447 z "
      stroke="black" stroke-linecap="square" fill="none" stroke-width="0.5"/>
  </g>
  <!-- Zoom -->
  <g id="Zoom">
    <!-- Connection -->
    <g id="Connection">
      <path d="M 141.809 447.361 L 615.2 278 "
        stroke="black" fill="none" stroke-width="0.5"/>
      <path d="M 73.0845 374.325 L 449.2 118 "
        stroke="black" fill="none" stroke-width="0.5"/>
    </g>
    <!-- Source -->
    <g id="Source">
      <rect x="73.0845" y="374.325" width="68.7247" height="73.0366" stroke="black" fill="none" stroke-width="0.5"/>
    </g>
    <!-- Destination -->
    <g id="Destination">
      <!-- Content -->
      <g id="Content" transform="translate(449,278.5)">>
        <!-- Commands -->
        <g id="Commands_2">
          <path d="M 0.2 -1.64123 L 2.94942 -2.47396 L 5.44603 -3.44022 L 7.73926 -4.54827 L 9.82007 -5.77986 
                   L 11.7453 -7.15386 L 13.5739 -8.71158 L 15.3138 -10.4683 L 16.9621 -12.4271 L 18.5599 -14.6507 
                   L 20.1137 -17.1753 L 21.6111 -20.0061 L 23.0408 -23.1364 L 24.4772 -26.7727 L 25.8983 -30.9364 
                   L 27.2866 -35.6384 L 28.6487 -40.9621 L 30.0169 -47.1352 L 31.3881 -54.2879 L 32.7415 -62.4557 
                   L 34.0718 -71.7327 L 35.4036 -82.4662 L 36.7328 -94.8597 L 38.0623 -109.216 L 39.3846 -125.764 
                   L 40.6768 -144.486 L 41.6311 -160.5 "
            stroke="black" fill="none" stroke-width="2"/>
          <path d="M 0.2 -1.61758 L 166.2 -39.9412 "
            stroke="rgb(77,175,74)" stroke-dasharray="0.03,4.5" stroke-linecap="round" fill="none" stroke-width="3"/>
          <path d="M 25.0406 -0.5 L 27.167 -0.72525 L 38.0132 -1.6642 L 51.267 -2.60216 L 67.4393 -3.53807 
                   L 87.1988 -4.47343 L 111.347 -5.40855 L 140.865 -6.34362 L 166.2 -7.01928 "
            stroke="rgb(55,126,184)" stroke-dasharray="0.03,4.5" stroke-linecap="round" fill="none" stroke-width="3"/>
          <path d="M 0.2 -1.96636 L 3.36146 -3.64268 L 6.57727 -5.58256 L 9.82007 -7.77844 L 13.1461 -10.2807 
                   L 16.4952 -13.0563 L 19.9297 -16.1693 L 23.44 -19.6301 L 27.0035 -23.4318 L 30.6446 -27.6165 
                   L 34.337 -32.1701 L 38.1324 -37.1761 L 42.0137 -42.6364 L 45.9564 -48.5361 L 49.9866 -54.9346 
                   L 54.1053 -61.8577 L 58.285 -69.2804 L 62.5682 -77.3017 L 66.9478 -85.9378 L 71.4064 -95.1808 
                   L 75.9489 -105.066 L 80.5977 -115.671 L 85.3157 -126.94 L 90.1199 -138.938 L 95.0101 -151.694 
                   L 98.2455 -160.5 "
            stroke="rgb(228,28,28)" stroke-dasharray="6,3.6" stroke-linecap="butt" fill="none" stroke-width="3"/>
          <path d="M 0.2 -6.41121 L 4.41521 -7.93506 L 8.37522 -9.58238 L 12.1184 -11.3597 L 15.6792 -13.2764 
                   L 19.0708 -15.3336 L 22.3269 -17.5474 L 25.4739 -19.9358 L 28.4907 -22.4811 L 31.4089 -25.2075 
                   L 34.2752 -28.1652 L 37.0845 -31.361 L 39.8196 -34.7832 L 42.5049 -38.4711 L 45.1514 -42.4543 
                   L 47.7511 -46.7362 L 50.3318 -51.3826 L 52.8963 -56.4262 L 55.42 -61.8435 L 57.9045 -67.6556 
                   L 60.3682 -73.9302 L 62.8186 -80.721 L 65.2505 -88.0503 L 67.6979 -96.0716 L 70.122 -104.71 
                   L 72.5356 -114.056 L 74.9497 -124.213 L 77.3484 -135.175 L 79.76 -147.146 L 82.1595 -160.082 
                   L 82.2308 -160.5 "
            stroke="rgb(228,28,28)" stroke-dasharray="9.6,6" stroke-linecap="butt" fill="none" stroke-width="3"/>
          <path d="M 11.8783 -0.5 L 15.3366 -1.71349 L 21.3621 -4.0463 L 27.8903 -6.79497 L 34.8921 -9.965 
                   L 42.3949 -13.585 L 50.4643 -17.7057 L 59.0658 -22.3285 L 68.1998 -27.4699 L 77.8612 -33.1421 
                   L 88.098 -39.3889 L 98.8578 -46.1932 L 110.175 -53.5899 L 122.057 -61.597 L 134.52 -70.2406 
                   L 147.564 -79.533 L 161.211 -89.5038 L 166.2 -93.2084 "
            stroke="rgb(255,127,0)" fill="none" stroke-width="3"/>
        </g>
        <g>
          <!-- Y Labels -->
          <g id="Y_Labels_2">
            <g font-family="Helvetica" font-size="14" fill="black">
              <text x="177" y="-38.1798">10</text>
            </g>
            <g font-family="Helvetica" font-size="14" fill="black">
              <text x="177" y="-84.7456">20</text>
            </g>
            <g font-family="Helvetica" font-size="14" fill="black">
              <text x="177" y="-131.311">30</text>
            </g>
          </g>
          <path d="M 166.2 -19.9179 L 170.2 -19.9179 M 166.2 -43.2008 L 174.2 -43.2008 M 166.2 -66.4837 L 170.2 -66.4837 
                   M 166.2 -89.7666 L 174.2 -89.7666 M 166.2 -113.049 L 170.2 -113.049 M 166.2 -136.332 L 174.2 -136.332 
                   M 166.2 -159.615 L 170.2 -159.615 "
            stroke="black" fill="none" stroke-width="0.5"/>
          <g>
            <g font-family="Helvetica" font-size="14" fill="black">
              <text x="15.0651" y="-170.508">2</text>
            </g>
            <g font-family="Helvetica" font-size="14" fill="black">
              <text x="55.4054" y="-170.508">4</text>
            </g>
            <g font-family="Helvetica" font-size="14" fill="black">
              <text x="95.7456" y="-170.508">6</text>
            </g>
            <g font-family="Helvetica" font-size="14" fill="black">
              <text x="136.086" y="-170.508">8</text>
            </g>
          </g>
          <path d="M 18.9582 -160.5 L 18.9582 -168.5 M 39.1283 -160.5 L 39.1283 -164.5 M 59.2984 -160.5 L 59.2984 -168.5 
                   M 79.4685 -160.5 L 79.4685 -164.5 M 99.6386 -160.5 L 99.6386 -168.5 M 119.809 -160.5 L 119.809 -164.5 
                   M 139.979 -160.5 L 139.979 -168.5 M 160.149 -160.5 L 160.149 -164.5 "
            stroke="black" fill="none" stroke-width="0.5"/>
        </g>
      </g>
      <rect x="449.2" y="118" width="166" height="160" stroke="black" fill="none" stroke-width="0.5"/>
    </g>
  </g>
</g>
</svg>
