<?xml version="1.0" encoding="utf-8" standalone="no"?>
<!-- Generator: DataGraph - https://www.visualdatatools.com/DataGraph/index.html  --><!DOCTYPE svg PUBLIC "-//W3C//DTD SVG 1.1//EN" "http://www.w3.org/Graphics/SVG/1.1/DTD/svg11.dtd">
<svg viewBox="0 0 600 300" width="1800" height="900" version="1.1" xmlns="http://www.w3.org/2000/svg" xmlns:xlink="http://www.w3.org/1999/xlink">
<g>
  <!-- Background -->
  <g id="Background">
    <defs>
      <clipPath id="clipPath">
        <rect x="85.5" y="21.5" width="496.3" height="229"/>
      </clipPath>
    </defs>
    <!-- Grid -->
    <g id="Grid" clip-path="url(#clipPath)">
      <path d="M 130.618 250.5 L 130.618 21.5 M 180.749 250.5 L 180.749 21.5 M 230.881 250.5 L 230.881 21.5 
               M 281.012 250.5 L 281.012 21.5 M 331.143 250.5 L 331.143 21.5 M 381.275 250.5 L 381.275 21.5 
               M 431.406 250.5 L 431.406 21.5 M 481.537 250.5 L 481.537 21.5 M 531.669 250.5 L 531.669 21.5 "
        stroke="black" stroke-dasharray="0.010249,4.09959" stroke-dashoffset="1.15588" stroke-linecap="round" fill="none" stroke-width="0.5"/>
      <path d="M 85.5 194.113 L 581.8 194.113 M 85.5 136.575 L 581.8 136.575 M 85.5 79.0377 L 581.8 79.0377 "
        stroke="black" stroke-dasharray="0.0096166,3.84664" stroke-dashoffset="1.16168" stroke-linecap="round" fill="none" stroke-width="0.5"/>
    </g>
  </g>
  <!-- Commands -->
  <g id="Commands">
    <!-- Legend -->
    <g id="Legend">
      <defs>
        <clipPath id="clipPath2">
          <rect x="420.8" y="30.5" width="150" height="121.8"/>
        </clipPath>
      </defs>
      <g clip-path="url(#clipPath2)">
        <rect x="420.8" y="30.5" width="150" height="121.8" fill="white" stroke="none"/>
      </g>
      <rect x="420.8" y="30.5" width="150" height="121.8" stroke="black" fill="none" stroke-width="0.5"/>
      <defs>
        <clipPath id="clipPath3">
          <rect x="420.8" y="30.5" width="150" height="121.8"/>
        </clipPath>
      </defs>
      <g clip-path="url(#clipPath3)">
        <defs>
          <clipPath id="clipPath4">
            <rect x="426.8" y="50.66" width="17" height="14.28"/>
          </clipPath>
        </defs>
        <g clip-path="url(#clipPath4)">
          <path d="M 426.8 57.5 L 443.8 57.5 "
            stroke="black" fill="none" stroke-width="2"/>
        </g>
        <g font-family="Helvetica" font-size="14" fill="black">
          <text x="449.8" y="62.821">x</text>
          <text x="456.8" y="56.5979" font-size="11">x</text>
        </g>
        <defs>
          <clipPath id="clipPath5">
            <rect x="426.8" y="67.46" width="17" height="14.28"/>
          </clipPath>
        </defs>
        <g clip-path="url(#clipPath5)">
          <path d="M 426.8 74.5 L 443.8 74.5 "
            stroke="rgb(228,26,28)" stroke-dasharray="0.03,4.5" stroke-dashoffset="0.575" stroke-linecap="round" fill="none" stroke-width="3"/>
        </g>
        <g font-family="Helvetica" font-size="14" fill="black">
          <text x="449.8" y="79.621">x</text>
        </g>
        <defs>
          <clipPath id="clipPath6">
            <rect x="426.8" y="84.26" width="17" height="14.28"/>
          </clipPath>
        </defs>
        <g clip-path="url(#clipPath6)">
          <path d="M 426.8 91.5 L 443.8 91.5 "
            stroke="rgb(55,126,184)" stroke-dasharray="0.03,4.5" stroke-dashoffset="0.575" stroke-linecap="round" fill="none" stroke-width="3"/>
        </g>
        <g font-family="Helvetica" font-size="14" fill="black">
          <text x="449.8" y="96.421">log(x)</text>
        </g>
        <defs>
          <clipPath id="clipPath7">
            <rect x="426.8" y="101.06" width="17" height="14.28"/>
          </clipPath>
        </defs>
        <g clip-path="url(#clipPath7)">
          <path d="M 426.8 108.5 L 443.8 108.5 "
            stroke="rgb(228,28,28)" stroke-dasharray="6,3.6" stroke-dashoffset="4.1" stroke-linecap="butt" fill="none" stroke-width="3"/>
        </g>
        <g font-family="Helvetica" font-size="14" fill="black">
          <text x="449.8" y="113.221">x</text>
          <text x="456.8" y="106.998" font-size="11">2</text>
        </g>
        <defs>
          <clipPath id="clipPath8">
            <rect x="426.8" y="117.86" width="17" height="14.28"/>
          </clipPath>
        </defs>
        <g clip-path="url(#clipPath8)">
          <path d="M 426.8 124.5 L 443.8 124.5 "
            stroke="rgb(77,175,74)" stroke-dasharray="9.6,6" stroke-dashoffset="11.9" stroke-linecap="butt" fill="none" stroke-width="3"/>
        </g>
        <g font-family="Helvetica" font-size="14" fill="black">
          <text x="449.8" y="130.021">2</text>
          <text x="457.586" y="123.798" font-size="11">x</text>
        </g>
        <defs>
          <clipPath id="clipPath9">
            <rect x="426.8" y="134.66" width="17" height="14.28"/>
          </clipPath>
        </defs>
        <g clip-path="url(#clipPath9)">
          <path d="M 426.8 141.5 L 443.8 141.5 "
            stroke="rgb(255,127,0)" fill="none" stroke-width="3"/>
        </g>
        <g font-family="Helvetica" font-size="14" fill="black">
          <text x="449.8" y="146.821">x*log(x)</text>
        </g>
        <g font-family="Helvetica" font-size="14" fill="black">
          <text x="426.8" y="46.021">f(x) = </text>
        </g>
      </g>
    </g>
    <!-- x^x -->
    <g id="x_x">
      <path d="M 85.5 250.5 L 86.8932 250.076 L 87.9549 249.567 L 88.9044 248.903 L 89.7594 248.062 L 90.58 246.942 
               L 91.3437 245.516 L 92.0209 243.824 L 92.7214 241.497 L 93.4381 238.288 L 94.1051 234.273 
               L 94.7322 229.273 L 95.4124 222.024 L 96.0002 213.706 L 96.6513 201.481 L 97.2808 185.601 
               L 97.9406 163.091 L 98.5113 137.058 L 99.0826 102.797 L 99.6854 54.7392 L 99.9969 21.5 "
        stroke="black" fill="none" stroke-width="2"/>
    </g>
    <!-- x -->
    <g id="x">
      <path d="M 85.5 250.5 L 581.8 136.575 "
        stroke="rgb(228,26,28)" stroke-dasharray="0.03,4.5" stroke-linecap="round" fill="none" stroke-width="3"/>
    </g>
    <!-- log(x) -->
    <g id="log_x">
      <path d="M 94.3888 250.5 L 97.2808 250.26 L 105.332 249.809 L 117.289 249.357 L 134.875 248.907 
               L 160.871 248.458 L 199.287 248.008 L 255.986 247.559 L 339.742 247.11 L 463.353 246.662 
               L 581.8 246.351 "
        stroke="rgb(55,126,184)" stroke-dasharray="0.03,4.5" stroke-linecap="round" fill="none" stroke-width="3"/>
    </g>
    <!-- x^2 -->
    <g id="x_2">
      <path d="M 85.5 250.5 L 87.1203 249.636 L 88.7493 248.525 L 90.4819 247.076 L 92.223 245.344 L 94.0586 243.217 
               L 96.0002 240.631 L 97.9406 237.702 L 99.977 234.257 L 102.096 230.269 L 104.337 225.603 
               L 106.636 220.342 L 109.054 214.283 L 111.54 207.497 L 114.086 199.96 L 116.762 191.396 
               L 119.522 181.88 L 122.423 171.124 L 125.402 159.277 L 128.464 146.254 L 131.573 132.15 
               L 134.725 116.951 L 138.102 99.6541 L 141.576 80.7703 L 145.037 60.8577 L 148.613 39.1345 
               L 151.363 21.5 "
        stroke="rgb(228,28,28)" stroke-dasharray="6,3.6" stroke-linecap="butt" fill="none" stroke-width="3"/>
    </g>
    <!-- 2^x -->
    <g id="2_x">
      <path d="M 85.5 249.349 L 87.6006 248.574 L 89.482 247.659 L 91.1363 246.634 L 92.6617 245.455 
               L 94.1051 244.087 L 95.4124 242.588 L 96.7237 240.787 L 98.0231 238.649 L 99.1838 236.386 
               L 100.382 233.636 L 101.606 230.312 L 102.792 226.509 L 103.985 222 L 105.146 216.839 
               L 106.356 210.501 L 107.511 203.373 L 108.766 194.227 L 109.942 184.088 L 111.135 171.97 
               L 112.28 158.299 L 113.505 141.068 L 114.662 121.889 L 115.767 100.48 L 116.939 73.8689 
               L 118.144 41.6504 L 118.781 21.5 "
        stroke="rgb(77,175,74)" stroke-dasharray="9.6,6" stroke-linecap="butt" fill="none" stroke-width="3"/>
    </g>
    <!-- x*log(x) -->
    <g id="x_log_x">
      <path d="M 89.256 250.5 L 90.58 250.029 L 93.858 248.64 L 97.5951 246.83 L 101.888 244.521 L 106.636 241.736 
               L 111.98 238.366 L 117.859 234.418 L 124.291 229.854 L 131.351 224.597 L 138.993 218.652 
               L 147.253 211.969 L 156.165 204.496 L 165.636 196.29 L 175.742 187.268 L 186.577 177.321 
               L 197.95 166.607 L 210.063 154.917 L 222.773 142.373 L 236.225 128.812 L 250.303 114.334 
               L 265.122 98.8054 L 280.553 82.3454 L 296.74 64.7845 L 313.674 46.1163 L 331.344 26.3355 
               L 335.601 21.5 "
        stroke="rgb(255,127,0)" fill="none" stroke-width="3"/>
    </g>
  </g>
  <!-- Foreground -->
  <g id="Foreground">
    <!-- Y Axis -->
    <g id="Y_Axis">
      <g transform="translate(16.2719,136) rotate(-90) translate(-16.2719,-136)" font-family="Helvetica" font-size="14" fill="black">
        <text x="6.16494" y="136">f(x)</text>
      </g>
      <!-- Y Labels -->
      <g id="Y_Labels">
        <g font-family="Helvetica" font-size="14" fill="black">
          <text x="59.1277" y="199.134">50</text>
        </g>
        <g font-family="Helvetica" font-size="14" fill="black">
          <text x="51.3416" y="141.596">100</text>
        </g>
        <g font-family="Helvetica" font-size="14" fill="black">
          <text x="51.3416" y="84.0587">150</text>
        </g>
        <g font-family="Helvetica" font-size="14" fill="black">
          <text x="51.3416" y="26.521">200</text>
        </g>
      </g>
      <path d="M 81.5 240.143 L 85.5 240.143 M 81.5 228.636 L 85.5 228.636 M 81.5 217.128 L 85.5 217.128 
               M 81.5 205.621 L 85.5 205.621 M 77.5 194.113 L 85.5 194.113 M 81.5 182.606 L 85.5 182.606 
               M 81.5 171.098 L 85.5 171.098 M 81.5 159.59 L 85.5 159.59 M 81.5 148.083 L 85.5 148.083 
               M 77.5 136.575 L 85.5 136.575 M 81.5 125.068 L 85.5 125.068 M 81.5 113.56 L 85.5 113.56 
               M 81.5 102.053 L 85.5 102.053 M 81.5 90.5452 L 85.5 90.5452 M 77.5 79.0377 L 85.5 79.0377 
               M 81.5 67.5302 L 85.5 67.5302 M 81.5 56.0226 L 85.5 56.0226 M 81.5 44.5151 L 85.5 44.5151 
               M 81.5 33.0075 L 85.5 33.0075 M 77.5 21.5 L 85.5 21.5 "
        stroke="black" fill="none" stroke-width="0.5"/>
    </g>
    <!-- X Axis -->
    <g id="X_Axis">
      <g font-family="Helvetica" font-size="14" fill="black">
        <text x="330.5" y="292">x</text>
      </g>
      <g>
        <g font-family="Helvetica" font-size="14" fill="black">
          <text x="122.832" y="271.555">10</text>
        </g>
        <g font-family="Helvetica" font-size="14" fill="black">
          <text x="172.963" y="271.555">20</text>
        </g>
        <g font-family="Helvetica" font-size="14" fill="black">
          <text x="223.095" y="271.555">30</text>
        </g>
        <g font-family="Helvetica" font-size="14" fill="black">
          <text x="273.226" y="271.555">40</text>
        </g>
        <g font-family="Helvetica" font-size="14" fill="black">
          <text x="323.357" y="271.555">50</text>
        </g>
        <g font-family="Helvetica" font-size="14" fill="black">
          <text x="373.489" y="271.555">60</text>
        </g>
        <g font-family="Helvetica" font-size="14" fill="black">
          <text x="423.62" y="271.555">70</text>
        </g>
        <g font-family="Helvetica" font-size="14" fill="black">
          <text x="473.751" y="271.555">80</text>
        </g>
        <g font-family="Helvetica" font-size="14" fill="black">
          <text x="523.883" y="271.555">90</text>
        </g>
        <g font-family="Helvetica" font-size="14" fill="black">
          <text x="570.121" y="271.555">100</text>
        </g>
      </g>
      <path d="M 130.618 258.5 L 130.618 250.5 M 180.749 258.5 L 180.749 250.5 M 230.881 258.5 L 230.881 250.5 
               M 281.012 258.5 L 281.012 250.5 M 331.143 258.5 L 331.143 250.5 M 381.275 258.5 L 381.275 250.5 
               M 431.406 258.5 L 431.406 250.5 M 481.537 258.5 L 481.537 250.5 M 531.669 258.5 L 531.669 250.5 
               M 581.8 258.5 L 581.8 250.5 M 105.553 254.5 L 105.553 250.5 M 155.684 254.5 L 155.684 250.5 
               M 205.815 254.5 L 205.815 250.5 M 255.946 254.5 L 255.946 250.5 M 306.078 254.5 L 306.078 250.5 
               M 356.209 254.5 L 356.209 250.5 M 406.34 254.5 L 406.34 250.5 M 456.472 254.5 L 456.472 250.5 
               M 506.603 254.5 L 506.603 250.5 M 556.734 254.5 L 556.734 250.5 "
        stroke="black" fill="none" stroke-width="0.5"/>
    </g>
    <g font-family="Helvetica" font-size="14" fill="black">
      <text x="279.174" y="16.2719">Aufwandsklassen</text>
    </g>
    <path d="M 581.8 250.5 L 581.8 21.5 L 85.5 21.5 L 85.5 250.5 L 581.8 250.5 z "
      stroke="black" stroke-linecap="square" fill="none" stroke-width="0.5"/>
  </g>
  <!-- Zoom -->
  <g id="Zoom">
    <!-- Connection -->
    <g id="Connection">
      <path d="M 127.109 250.696 L 283.8 178.5 "
        stroke="black" fill="none" stroke-width="0.5"/>
      <path d="M 85.8509 211.156 L 163.8 62.5 "
        stroke="black" fill="none" stroke-width="0.5"/>
    </g>
    <!-- Source -->
    <g id="Source">
      <defs>
        <clipPath id="clipPath10">
          <rect x="163.8" y="62.5" width="120" height="116"/>
        </clipPath>
      </defs>
      <g clip-path="url(#clipPath10)">
        <rect x="163.8" y="62.5" width="120" height="116" fill="rgb(242,243,248)" stroke="none"/>
      </g>
      <rect x="85.8509" y="211.156" width="41.2581" height="39.5399" stroke="black" fill="none" stroke-width="0.5"/>
    </g>
    <!-- Destination -->
    <g id="Destination">
      <!-- Content -->
      <g id="Content" transform="translate(163,179)">>
        <defs>
          <clipPath id="clipPath11">
            <rect x="0.8" y="-116.5" width="120" height="116"/>
          </clipPath>
        </defs>
        <!-- Grid -->
        <g id="Grid_2" clip-path="url(#clipPath11)">
          <path d="M 14.3601 -0.5 L 14.3601 -116.5 M 43.5217 -0.5 L 43.5217 -116.5 M 72.6834 -0.5 L 72.6834 -116.5 
                   M 101.845 -0.5 L 101.845 -116.5 "
            stroke="black" stroke-dasharray="0.0105237,4.2095" stroke-dashoffset="2.80736" stroke-linecap="round" fill="none" stroke-width="0.5"/>
          <path d="M 0.8 -31.4581 L 120.8 -31.4581 M 0.8 -65.2183 L 120.8 -65.2183 M 0.8 -98.9785 L 120.8 -98.9785 "
            stroke="black" stroke-dasharray="0.0103889,4.15555" stroke-dashoffset="3.10882" stroke-linecap="round" fill="none" stroke-width="0.5"/>
        </g>
        <!-- Commands -->
        <g id="Commands_2">
          <path d="M 0.8 -1.32739 L 3.15675 -2.06151 L 5.24245 -2.92652 L 7.1071 -3.92243 L 8.80124 -5.06024 
                   L 10.3849 -6.3766 L 11.8654 -7.88203 L 13.263 -9.60369 L 14.6046 -11.5918 L 15.8986 -13.8875 
                   L 17.1536 -16.5433 L 18.3709 -19.6053 L 19.5781 -23.2106 L 20.7725 -27.4458 L 21.9201 -32.2656 
                   L 23.0738 -37.9981 L 24.1981 -44.607 L 25.3354 -52.5187 L 26.4432 -61.6427 L 27.5676 -72.6135 
                   L 28.6706 -85.3769 L 29.7794 -100.597 L 30.7542 -116.5 "
            stroke="black" fill="none" stroke-width="2"/>
          <path d="M 0.8 -1.31024 L 120.8 -29.0949 "
            stroke="rgb(228,26,28)" stroke-dasharray="0.03,4.5" stroke-linecap="round" fill="none" stroke-width="3"/>
          <path d="M 18.7951 -0.5 L 25.5566 -1.13498 L 36.2743 -1.93009 L 49.8157 -2.72403 L 66.9153 -3.51665 
                   L 88.5104 -4.3083 L 115.813 -5.09998 L 120.8 -5.22647 "
            stroke="rgb(55,126,184)" stroke-dasharray="0.03,4.5" stroke-linecap="round" fill="none" stroke-width="3"/>
          <path d="M 0.8 -1.56311 L 3.49626 -3.01453 L 6.23203 -4.7232 L 9.02614 -6.71367 L 11.8862 -9.00793 
                   L 14.792 -11.6049 L 17.7671 -14.5416 L 20.8171 -17.8441 L 23.9084 -21.4928 L 27.1124 -25.5949 
                   L 30.3739 -30.1054 L 33.71 -35.0686 L 37.1356 -40.5328 L 40.6477 -46.5218 L 44.2518 -53.0749 
                   L 47.9381 -60.2044 L 51.6841 -67.8913 L 55.531 -76.2492 L 59.4638 -85.2797 L 63.4991 -95.056 
                   L 67.6313 -105.603 L 71.6902 -116.5 "
            stroke="rgb(228,28,28)" stroke-dasharray="6,3.6" stroke-linecap="butt" fill="none" stroke-width="3"/>
          <path d="M 0.8 -4.78563 L 4.37196 -6.09738 L 7.6833 -7.52934 L 10.7881 -9.09297 L 13.7341 -10.806 
                   L 16.5251 -12.6658 L 19.1837 -14.6823 L 21.7487 -16.8849 L 24.2305 -19.2875 L 26.6453 -21.9138 
                   L 28.9977 -24.779 L 31.2797 -27.8822 L 33.5106 -31.2592 L 35.7216 -34.9788 L 37.8925 -39.0317 
                   L 40.0512 -43.4986 L 42.1835 -48.3847 L 44.2951 -53.7369 L 46.4035 -59.6448 L 48.4894 -66.1026 
                   L 50.5571 -73.168 L 52.6232 -80.9566 L 54.66 -89.4217 L 56.7034 -98.7785 L 58.7208 -108.953 
                   L 60.0795 -116.5 "
            stroke="rgb(77,175,74)" stroke-dasharray="9.6,6" stroke-linecap="butt" fill="none" stroke-width="3"/>
          <path d="M 9.28343 -0.5 L 14.0094 -2.24106 L 19.3771 -4.43949 L 25.2392 -7.06334 L 31.6143 -10.1423 
                   L 38.5072 -13.6993 L 45.9334 -17.7624 L 53.8909 -22.3495 L 62.3976 -27.4891 L 71.4436 -33.1926 
                   L 81.0704 -39.5036 L 91.2479 -46.419 L 102.02 -53.9847 L 113.353 -62.1922 L 120.8 -67.7136 "
            stroke="rgb(255,127,0)" fill="none" stroke-width="3"/>
        </g>
        <g>
          <!-- Y Labels -->
          <g id="Y_Labels_2">
            <g font-family="Helvetica" font-size="13" fill="black">
              <text x="131.4" y="-26.7957">10</text>
            </g>
            <g font-family="Helvetica" font-size="13" fill="black">
              <text x="131.4" y="-60.5559">20</text>
            </g>
            <g font-family="Helvetica" font-size="13" fill="black">
              <text x="131.4" y="-94.3161">30</text>
            </g>
          </g>
          <path d="M 120.8 -14.578 L 124.8 -14.578 M 120.8 -31.4581 L 128.8 -31.4581 M 120.8 -48.3382 L 124.8 -48.3382 
                   M 120.8 -65.2183 L 128.8 -65.2183 M 120.8 -82.0984 L 124.8 -82.0984 M 120.8 -98.9785 L 128.8 -98.9785 
                   M 120.8 -115.859 L 124.8 -115.859 "
            stroke="black" fill="none" stroke-width="0.5"/>
          <g>
            <g font-family="Helvetica" font-size="13" fill="black">
              <text x="10.7452" y="-126.365">2</text>
            </g>
            <g font-family="Helvetica" font-size="13" fill="black">
              <text x="39.9068" y="-126.365">4</text>
            </g>
            <g font-family="Helvetica" font-size="13" fill="black">
              <text x="69.0684" y="-126.365">6</text>
            </g>
            <g font-family="Helvetica" font-size="13" fill="black">
              <text x="98.23" y="-126.365">8</text>
            </g>
          </g>
          <path d="M 14.3601 -116.5 L 14.3601 -124.5 M 28.9409 -116.5 L 28.9409 -120.5 M 43.5217 -116.5 L 43.5217 -124.5 
                   M 58.1026 -116.5 L 58.1026 -120.5 M 72.6834 -116.5 L 72.6834 -124.5 M 87.2642 -116.5 L 87.2642 -120.5 
                   M 101.845 -116.5 L 101.845 -124.5 M 116.426 -116.5 L 116.426 -120.5 "
            stroke="black" fill="none" stroke-width="0.5"/>
        </g>
      </g>
      <rect x="163.8" y="62.5" width="120" height="116" stroke="black" fill="none" stroke-width="0.5"/>
    </g>
  </g>
</g>
</svg>
