<?xml version="1.0" encoding="UTF-8" standalone="no"?>
<!DOCTYPE svg PUBLIC "-//W3C//DTD SVG 1.1//EN" "http://www.w3.org/Graphics/SVG/1.1/DTD/svg11.dtd">
<svg version="1.1" xmlns:dc="http://purl.org/dc/elements/1.1/" xmlns:xl="http://www.w3.org/1999/xlink" xmlns="http://www.w3.org/2000/svg" viewBox="162 474 559 171" width="1677" height="513">
  <style>
    @import url('/LectureDoc2/ext/fonts/ld-fonts.css'); 
  </style>
  <defs>
    <filter id="Shadow" filterUnits="userSpaceOnUse" x="106.1" y="456.9">
      <feGaussianBlur in="SourceAlpha" result="blur" stdDeviation="1.308"/>
      <feOffset in="blur" result="offset" dx="0" dy="2"/>
      <feFlood flood-color="black" flood-opacity=".5" result="flood"/>
      <feComposite in="flood" in2="offset" operator="in" result="color"/>
      <feMerge>
        <feMergeNode in="color"/>
        <feMergeNode in="SourceGraphic"/>
      </feMerge>
    </filter>
    <marker orient="auto" overflow="visible" markerUnits="strokeWidth" id="FilledArrow_Marker" stroke-linejoin="miter" stroke-miterlimit="10" viewBox="-1 -3 7 6" markerWidth="7" markerHeight="6" color="black">
      <g>
        <path d="M 4.8 0 L 0 -1.8 L 0 1.8 Z" fill="currentColor" stroke="currentColor" stroke-width="1"/>
      </g>
    </marker>
  </defs>
  <metadata> Produced by OmniGraffle 8.0\n2025-01-23 11:01:28 +0000</metadata>
  <g id="Canvas_1" stroke="none" fill-opacity="1" stroke-dasharray="none" fill="none" stroke-opacity="1">
    <title>Canvas 1</title>
    <rect fill="white" x="162" y="474" width="559" height="171"/>
    <g id="Canvas_1_Layer_1">
      <title>Layer 1</title>
      <g id="Graphic_2">
        <path d="M 170.10152 620.5 L 318.60152 620.5 C 323.0198 620.5 326.60152 624.0817 326.60152 628.5 L 326.60152 636.5 C 326.60152 640.9183 323.0198 644.5 318.60152 644.5 L 170.10152 644.5 C 165.68324 644.5 162.10152 640.9183 162.10152 636.5 L 162.10152 628.5 C 162.10152 624.0817 165.68324 620.5 170.10152 620.5 Z" fill="#dead26"/>
      </g>
      <g id="Graphic_3">
        <path d="M 367.0742 620.5 L 515.5742 620.5 C 519.9925 620.5 523.5742 624.0817 523.5742 628.5 L 523.5742 636.5 C 523.5742 640.9183 519.9925 644.5 515.5742 644.5 L 367.0742 644.5 C 362.65594 644.5 359.0742 640.9183 359.0742 636.5 L 359.0742 628.5 C 359.0742 624.0817 362.65594 620.5 367.0742 620.5 Z" fill="#dead26"/>
      </g>
      <g id="Graphic_4">
        <path d="M 564.0469 620.5 L 712.5469 620.5 C 716.9652 620.5 720.5469 624.0817 720.5469 628.5 L 720.5469 636.5 C 720.5469 640.9183 716.9652 644.5 712.5469 644.5 L 564.0469 644.5 C 559.62864 644.5 556.0469 640.9183 556.0469 636.5 L 556.0469 628.5 C 556.0469 624.0817 559.62864 620.5 564.0469 620.5 Z" fill="#dead26"/>
      </g>
      <g id="Graphic_6">
        <rect x="240.75" y="520.5" width="7.203046" height="100" fill="#dead26"/>
      </g>
      <g id="Graphic_7">
        <rect x="435.8242" y="522.5" width="11" height="100" fill="#dead26"/>
      </g>
      <g id="Graphic_8">
        <rect x="632.7969" y="520.5" width="11" height="100" fill="#dead26"/>
      </g>
      <g id="Graphic_9" filter="url(#Shadow)">
        <path d="M 189.55804 596.5 L 299.145 596.5 C 302.4587 596.5 305.145 599.1863 305.145 602.5 L 305.145 614.5 C 305.145 617.8137 302.4587 620.5 299.145 620.5 L 189.55804 620.5 C 186.24434 620.5 183.55804 617.8137 183.55804 614.5 L 183.55804 602.5 C 183.55804 599.1863 186.24434 596.5 189.55804 596.5 Z" fill="#00bfc0"/>
      </g>
      <g id="Graphic_10" filter="url(#Shadow)">
        <path d="M 207.59396 572.5 L 281.1091 572.5 C 284.4228 572.5 287.1091 575.1863 287.1091 578.5 L 287.1091 590.5 C 287.1091 593.8137 284.4228 596.5 281.1091 596.5 L 207.59396 596.5 C 204.28025 596.5 201.59396 593.8137 201.59396 590.5 L 201.59396 578.5 C 201.59396 575.1863 204.28025 572.5 207.59396 572.5 Z" fill="#9662d0"/>
      </g>
      <g id="Graphic_11" filter="url(#Shadow)">
        <path d="M 226.2518 548.5 L 262.45124 548.5 C 265.76495 548.5 268.45124 551.1863 268.45124 554.5 L 268.45124 566.5 C 268.45124 569.8137 265.76495 572.5 262.45124 572.5 L 226.2518 572.5 C 222.9381 572.5 220.2518 569.8137 220.2518 566.5 L 220.2518 554.5 C 220.2518 551.1863 222.9381 548.5 226.2518 548.5 Z" fill="#6b7ca5"/>
      </g>
      <g id="Line_13">
        <path d="M 255 541 L 255 498.8047 L 656 498.8047 L 656 585.9047" marker-end="url(#FilledArrow_Marker)" stroke="black" stroke-linecap="round" stroke-linejoin="round" stroke-width="2"/>
      </g>
      <g id="Graphic_14">
        <text transform="translate(430.3902 474.77344)" fill="black">
          <tspan font-family="Noto Sans Display" font-size="14" font-weight="400" fill="black" x="0" y="15" xml:space="preserve">Ziel</tspan>
        </text>
      </g>
    </g>
  </g>
</svg>
