<?xml version="1.0" encoding="UTF-8" standalone="no"?>
<!DOCTYPE svg PUBLIC "-//W3C//DTD SVG 1.1//EN" "http://www.w3.org/Graphics/SVG/1.1/DTD/svg11.dtd">
<svg xmlns:dc="http://purl.org/dc/elements/1.1/" xmlns:xl="http://www.w3.org/1999/xlink" xmlns="http://www.w3.org/2000/svg" version="1.1" viewBox="0 0 36 36" width="36" height="36">
  <defs/>
  <metadata> Produced by OmniGraffle 8.0\n2025-06-08 19:32:03 +0000</metadata>
  <g id="next_slide" stroke="none" fill="none" stroke-dasharray="none" stroke-opacity="1" fill-opacity="1">
    <title>next_slide</title>
    <g id="next_slide_Layer_2">
      <title>Layer 2</title>
      <g id="Graphic_5">
        <title>&gt;</title>
        <path d="M 12.849042 25.60391 L 12.849042 26.165745 C 12.849042 26.596098 13.197911 26.944968 13.628264 26.944968 C 13.73868 26.944968 13.847834 26.921502 13.948495 26.876125 L 30.548003 19.393276 C 30.906532 19.231656 31.13704 18.874897 31.13704 18.481623 L 31.13704 17.540708 C 31.13704 17.148027 30.907217 16.79169 30.549493 16.629729 L 13.96408 9.120585 C 13.5669 8.94076 13.099143 9.11696 12.919317 9.514141 C 12.873 9.616442 12.849042 9.727447 12.849042 9.839745 L 12.849042 10.419581 C 12.849042 10.811853 13.078393 11.167897 13.435562 11.330094 L 26.144026 17.101232 C 26.646888 17.32959 26.869417 17.922363 26.64106 18.425225 C 26.540987 18.64559 26.36439 18.822186 26.144026 18.922258 L 13.435562 24.693396 C 13.078393 24.855593 12.849042 25.211637 12.849042 25.60391 Z" fill="black" fill-opacity=".7091491"/>
      </g>
      <g id="Graphic_6">
        <title>&gt;</title>
        <path d="M 4.8704383 25.60391 L 4.8704383 26.165745 C 4.8704383 26.596098 5.219308 26.944968 5.649661 26.944968 C 5.760076 26.944968 5.869231 26.921502 5.9698914 26.876125 L 22.5694 19.393276 C 22.927929 19.231656 23.158438 18.874897 23.158438 18.481623 L 23.158438 17.540708 C 23.158438 17.148027 22.928614 16.79169 22.57089 16.629729 L 5.985477 9.120585 C 5.5882965 8.94076 5.12054 9.11696 4.940714 9.514141 C 4.894397 9.616442 4.8704383 9.727447 4.8704383 9.839745 L 4.8704383 10.419581 C 4.8704383 10.811853 5.0997895 11.167897 5.456958 11.330094 L 18.165422 17.101232 C 18.668285 17.32959 18.890814 17.922363 18.662455 18.425225 C 18.562383 18.64559 18.385788 18.822186 18.165422 18.922258 L 5.456958 24.693396 C 5.0997895 24.855593 4.8704383 25.211637 4.8704383 25.60391 Z" fill="black" fill-opacity=".7091491"/>
      </g>
    </g>
  </g>
</svg>
