<?xml version="1.0" encoding="UTF-8" standalone="no"?>
<!DOCTYPE svg PUBLIC "-//W3C//DTD SVG 1.1//EN" "http://www.w3.org/Graphics/SVG/1.1/DTD/svg11.dtd">
<svg xmlns:dc="http://purl.org/dc/elements/1.1/" xmlns:xl="http://www.w3.org/1999/xlink" xmlns="http://www.w3.org/2000/svg" version="1.1" viewBox="0 0 36 36" width="36" height="36">
  <defs/>
  <metadata> Produced by OmniGraffle 8.0\n2025-06-08 19:32:03 +0000</metadata>
  <g id="nr" stroke="none" fill="none" stroke-dasharray="none" stroke-opacity="1" fill-opacity="1">
    <title>nr</title>
    <g id="nr_Layer_1">
      <title>Layer 1</title>
      <g id="Graphic_4">
        <path d="M 4.2622716 10.024003 L 4.2622716 26.2 C 4.2622716 26.752285 4.709987 27.2 5.2622716 27.2 L 5.553364 27.2 C 6.1056484 27.2 6.553364 26.752285 6.553364 26.2 L 6.553364 12.61338 L 6.604277 12.61338 L 15.803755 26.745554 C 15.98828 27.029022 16.303594 27.2 16.64183 27.2 L 17.747065 27.2 C 18.29935 27.2 18.747065 26.752285 18.747065 26.2 L 18.747065 10.024003 C 18.747065 9.471718 18.29935 9.024003 17.747065 9.024003 L 17.455973 9.024003 C 16.903688 9.024003 16.455973 9.471718 16.455973 10.024003 L 16.455973 23.763362 L 16.40506 23.763362 L 7.1291 9.479371 C 6.944673 9.195373 6.6290514 9.024003 6.290425 9.024003 L 5.2622716 9.024003 C 4.709987 9.024003 4.2622716 9.471718 4.2622716 10.024003 Z" fill="black" fill-opacity=".7091491"/>
      </g>
      <g id="Graphic_5">
        <path d="M 22.234616 15.038949 L 22.234616 26.2 C 22.234616 26.752285 22.682332 27.2 23.234616 27.2 L 23.398426 27.2 C 23.95071 27.2 24.398426 26.752285 24.398426 26.2 L 24.398426 21.344987 C 24.398426 20.49643 24.48328 19.745469 24.65299 19.09208 C 24.822703 18.438691 25.094237 17.882895 25.467602 17.424674 C 25.840967 16.966453 26.333123 16.61855 26.944083 16.380954 C 27.555044 16.143358 28.293278 16.024562 29.158806 16.024562 L 29.158806 13.73347 C 27.987797 13.699528 27.020457 13.93712 26.256756 14.446254 C 25.493055 14.955388 24.84816 15.744535 24.322056 16.813716 L 24.271143 16.813716 L 24.271143 15.038949 C 24.271143 14.486664 23.823427 14.038949 23.271143 14.038949 L 23.234616 14.038949 C 22.682332 14.038949 22.234616 14.486664 22.234616 15.038949 Z" fill="black" fill-opacity=".7091491"/>
      </g>
      <g id="Graphic_6">
        <path d="M 28.929697 25.37432 L 28.929697 26.2 C 28.929697 26.752285 29.377412 27.2 29.929697 27.2 L 30.755377 27.2 C 31.30766 27.2 31.755377 26.752285 31.755377 26.2 L 31.755377 25.37432 C 31.755377 24.822035 31.30766 24.37432 30.755377 24.37432 L 29.929697 24.37432 C 29.377412 24.37432 28.929697 24.822035 28.929697 25.37432 Z" fill="black" fill-opacity=".7091491"/>
      </g>
    </g>
  </g>
</svg>
