<?xml version="1.0" encoding="UTF-8" standalone="no"?>
<!DOCTYPE svg PUBLIC "-//W3C//DTD SVG 1.1//EN" "http://www.w3.org/Graphics/SVG/1.1/DTD/svg11.dtd">
<svg xmlns:dc="http://purl.org/dc/elements/1.1/" xmlns:xl="http://www.w3.org/1999/xlink" xmlns="http://www.w3.org/2000/svg" version="1.1" viewBox="0 0 36 36" width="36" height="36">
  <defs/>
  <metadata> Produced by OmniGraffle 8.0\n2025-06-08 19:32:03 +0000</metadata>
  <g id="table_of_contents" stroke="none" fill="none" stroke-dasharray="none" stroke-opacity="1" fill-opacity="1">
    <title>table_of_contents</title>
    <g id="table_of_contents_Layer_2">
      <title>Layer 2</title>
      <g id="Line_21">
        <line x1="19.00991" y1="29.131832" x2="32.413766" y2="29.131832" stroke="#212121" stroke-linecap="round" stroke-linejoin="round" stroke-width="3"/>
      </g>
      <g id="Line_20">
        <line x1="14.073243" y1="18" x2="32.413766" y2="18" stroke="#212121" stroke-linecap="round" stroke-linejoin="round" stroke-width="3"/>
      </g>
      <g id="Line_19">
        <line x1="14.073243" y1="6.868168" x2="32.413766" y2="6.868168" stroke="#212121" stroke-linecap="round" stroke-linejoin="round" stroke-width="3"/>
      </g>
      <g id="Group_24">
        <title>1.</title>
        <g id="Graphic_22">
          <path d="M 4.8507283 9.513344 L 4.8507283 4.3442167 C 4.8507283 4.197873 4.732093 4.079238 4.5857494 4.079238 L 4.3207705 4.079238 C 4.282722 4.2966575 4.212062 4.476026 4.1087874 4.617349 C 4.005513 4.7586716 3.87914 4.8700975 3.7296638 4.95163 C 3.5801877 5.033162 3.413049 5.088875 3.228242 5.1187704 C 3.0434354 5.1486656 2.853196 5.163613 2.6575184 5.163613 L 2.6575184 5.440822 C 2.6575184 5.59392 2.781629 5.7180304 2.934727 5.7180304 L 3.4076125 5.7180304 C 3.821878 5.7180304 4.1577066 6.053859 4.1577066 6.4681245 L 4.1577066 9.513344 C 4.1577066 9.704716 4.312845 9.859854 4.5042175 9.859854 L 4.5042175 9.859854 C 4.69559 9.859854 4.8507283 9.704716 4.8507283 9.513344 Z" fill="black" fill-opacity=".7091491"/>
        </g>
        <g id="Graphic_23">
          <path d="M 7.158083 9.407352 L 7.158083 9.407352 C 7.158083 9.657262 7.360675 9.859854 7.6105855 9.859854 L 7.6105855 9.859854 C 7.860496 9.859854 8.063088 9.657262 8.063088 9.407352 L 8.063088 9.407352 C 8.063088 9.157442 7.860496 8.95485 7.6105855 8.95485 L 7.6105855 8.95485 C 7.360675 8.95485 7.158083 9.157442 7.158083 9.407352 Z" fill="black" fill-opacity=".7091491"/>
        </g>
      </g>
      <g id="Group_27">
        <title>2.</title>
        <g id="Graphic_25">
          <path d="M 2.8205823 17.156144 L 3.513604 17.156144 C 3.5081686 16.982208 3.5258336 16.809634 3.5666 16.638416 C 3.607366 16.467198 3.67395 16.313648 3.766353 16.17776 C 3.8587565 16.041873 3.9769767 15.931806 4.121017 15.847556 C 4.265058 15.763306 4.437632 15.721181 4.638745 15.721181 C 4.790939 15.721181 4.9349774 15.74564 5.0708647 15.79456 C 5.206752 15.84348 5.324972 15.91414 5.425529 16.006543 C 5.5260853 16.098947 5.6062576 16.209014 5.666048 16.336748 C 5.7258385 16.464482 5.755733 16.607161 5.755733 16.76479 C 5.755733 16.965904 5.7244796 17.142555 5.6619714 17.294748 C 5.599463 17.446942 5.507061 17.588263 5.384763 17.718715 C 5.262464 17.849167 5.108914 17.978258 4.924107 18.105992 C 4.7393004 18.233726 4.5246017 18.373687 4.2800046 18.525881 C 4.0788914 18.645462 3.8859343 18.773194 3.7011276 18.909081 C 3.516321 19.044969 3.350541 19.202596 3.2037826 19.381967 C 3.0570243 19.561338 2.9360864 19.77196 2.8409653 20.01384 C 2.7458442 20.25572 2.6846958 20.547872 2.6575184 20.890308 L 6.126704 20.890308 C 6.295562 20.890308 6.4324486 20.753422 6.4324486 20.584563 L 6.4324486 20.584563 C 6.4324486 20.415705 6.295562 20.278819 6.126704 20.278819 L 3.464685 20.278819 C 3.497298 20.099447 3.5665993 19.940462 3.6725914 19.801857 C 3.7785835 19.663251 3.9063156 19.53416 4.0557916 19.41458 C 4.2052677 19.295 4.369689 19.182214 4.54906 19.076222 C 4.7284313 18.97023 4.9078 18.86288 5.087171 18.75417 C 5.266542 18.640025 5.4404754 18.520446 5.608976 18.39543 C 5.777476 18.270414 5.92695 18.130452 6.0574015 17.97554 C 6.187853 17.820629 6.292485 17.645337 6.3712996 17.44966 C 6.450114 17.253981 6.489521 17.028412 6.489521 16.772944 C 6.489521 16.50117 6.441961 16.262011 6.34684 16.055463 C 6.251719 15.848914 6.122628 15.67634 5.959563 15.537735 C 5.7964984 15.39913 5.6049 15.293139 5.384763 15.21976 C 5.1646253 15.14638 4.929544 15.109692 4.679511 15.109692 C 4.3751237 15.109692 4.103353 15.161328 3.8641915 15.264602 C 3.62503 15.367877 3.4252785 15.510556 3.2649315 15.692645 C 3.1045845 15.874734 2.9863644 16.090792 2.9102675 16.340824 C 2.8341706 16.590857 2.8042758 16.862628 2.8205823 17.156144 Z" fill="black" fill-opacity=".7091491"/>
        </g>
        <g id="Graphic_26">
          <path d="M 7.6717345 20.437806 L 7.6717345 20.437806 C 7.6717345 20.687716 7.874327 20.890308 8.124237 20.890308 L 8.124237 20.890308 C 8.374147 20.890308 8.576739 20.687716 8.576739 20.437806 L 8.576739 20.437806 C 8.576739 20.187896 8.374147 19.985303 8.124237 19.985303 L 8.124237 19.985303 C 7.874327 19.985303 7.6717345 20.187896 7.6717345 20.437806 Z" fill="black" fill-opacity=".7091491"/>
        </g>
      </g>
      <g id="Group_32">
        <title>2.1.</title>
        <g id="Graphic_28">
          <path d="M 2.8205823 28.186598 L 3.513604 28.186598 C 3.5081686 28.012662 3.5258336 27.840088 3.5666 27.66887 C 3.607366 27.497652 3.67395 27.3441 3.766353 27.208214 C 3.8587565 27.072327 3.9769767 26.96226 4.121017 26.87801 C 4.265058 26.79376 4.437632 26.751635 4.638745 26.751635 C 4.790939 26.751635 4.9349774 26.776095 5.0708647 26.825014 C 5.206752 26.873933 5.324972 26.944594 5.425529 27.036997 C 5.5260853 27.1294 5.6062576 27.239468 5.666048 27.367202 C 5.7258385 27.494936 5.755733 27.637615 5.755733 27.795245 C 5.755733 27.996358 5.7244796 28.17301 5.6619714 28.325202 C 5.599463 28.477396 5.507061 28.618717 5.384763 28.74917 C 5.262464 28.87962 5.108914 29.00871 4.924107 29.136445 C 4.7393004 29.26418 4.5246017 29.40414 4.2800046 29.556335 C 4.0788914 29.675916 3.8859343 29.803648 3.7011276 29.939535 C 3.516321 30.075423 3.350541 30.23305 3.2037826 30.41242 C 3.0570243 30.591792 2.9360864 30.802414 2.8409653 31.044294 C 2.7458442 31.286173 2.6846958 31.578326 2.6575184 31.920762 L 6.126704 31.920762 C 6.295562 31.920762 6.4324486 31.783876 6.4324486 31.615017 L 6.4324486 31.615017 C 6.4324486 31.44616 6.295562 31.309272 6.126704 31.309272 L 3.464685 31.309272 C 3.497298 31.1299 3.5665993 30.970915 3.6725914 30.83231 C 3.7785835 30.693705 3.9063156 30.564614 4.0557916 30.445034 C 4.2052677 30.325453 4.369689 30.212668 4.54906 30.106676 C 4.7284313 30.000684 4.9078 29.893334 5.087171 29.784625 C 5.266542 29.67048 5.4404754 29.5509 5.608976 29.425884 C 5.777476 29.300868 5.92695 29.160906 6.0574015 29.005994 C 6.187853 28.851083 6.292485 28.67579 6.3712996 28.480113 C 6.450114 28.284435 6.489521 28.058866 6.489521 27.803398 C 6.489521 27.531623 6.441961 27.292465 6.34684 27.085916 C 6.251719 26.879368 6.122628 26.706793 5.959563 26.568188 C 5.7964984 26.429583 5.6049 26.323593 5.384763 26.250214 C 5.1646253 26.176835 4.929544 26.140146 4.679511 26.140146 C 4.3751237 26.140146 4.103353 26.191782 3.8641915 26.295056 C 3.62503 26.39833 3.4252785 26.54101 3.2649315 26.7231 C 3.1045845 26.905188 2.9863644 27.121246 2.9102675 27.371278 C 2.8341706 27.62131 2.8042758 27.89308 2.8205823 28.186598 Z" fill="black" fill-opacity=".7091491"/>
        </g>
        <g id="Graphic_29">
          <path d="M 7.6717345 31.46826 L 7.6717345 31.46826 C 7.6717345 31.71817 7.874327 31.920762 8.124237 31.920762 L 8.124237 31.920762 C 8.374147 31.920762 8.576739 31.71817 8.576739 31.46826 L 8.576739 31.46826 C 8.576739 31.21835 8.374147 31.015757 8.124237 31.015757 L 8.124237 31.015757 C 7.874327 31.015757 7.6717345 31.21835 7.6717345 31.46826 Z" fill="black" fill-opacity=".7091491"/>
        </g>
        <g id="Graphic_30">
          <path d="M 12.164146 31.57425 L 12.164146 26.405124 C 12.164146 26.25878 12.045511 26.140146 11.899167 26.140146 L 11.634188 26.140146 C 11.59614 26.357565 11.52548 26.536934 11.422205 26.678257 C 11.318931 26.81958 11.192557 26.931005 11.043081 27.012538 C 10.893605 27.09407 10.726467 27.149783 10.54166 27.179678 C 10.356853 27.209573 10.166614 27.22452 9.970936 27.22452 L 9.970936 27.50173 C 9.970936 27.654828 10.095047 27.778938 10.248145 27.778938 L 10.72103 27.778938 C 11.135296 27.778938 11.471124 28.114767 11.471124 28.529032 L 11.471124 31.57425 C 11.471124 31.765624 11.626263 31.920762 11.817635 31.920762 L 11.817635 31.920762 C 12.009008 31.920762 12.164146 31.765624 12.164146 31.57425 Z" fill="black" fill-opacity=".7091491"/>
        </g>
        <g id="Graphic_31">
          <path d="M 14.4715 31.46826 L 14.4715 31.46826 C 14.4715 31.71817 14.674093 31.920762 14.924003 31.920762 L 14.924003 31.920762 C 15.173913 31.920762 15.376506 31.71817 15.376506 31.46826 L 15.376506 31.46826 C 15.376506 31.21835 15.173913 31.015757 14.924003 31.015757 L 14.924003 31.015757 C 14.674093 31.015757 14.4715 31.21835 14.4715 31.46826 Z" fill="black" fill-opacity=".7091491"/>
        </g>
      </g>
    </g>
  </g>
</svg>
