<?xml version="1.0" encoding="UTF-8" standalone="no"?>
<!DOCTYPE svg PUBLIC "-//W3C//DTD SVG 1.1//EN" "http://www.w3.org/Graphics/SVG/1.1/DTD/svg11.dtd">
<svg xmlns:dc="http://purl.org/dc/elements/1.1/" xmlns:xl="http://www.w3.org/1999/xlink" xmlns="http://www.w3.org/2000/svg" version="1.1" viewBox="0 0 36 36" width="36" height="36">
  <defs/>
  <metadata> Produced by OmniGraffle 8.0\n2025-06-08 19:32:03 +0000</metadata>
  <g id="view" stroke="none" fill="none" stroke-dasharray="none" stroke-opacity="1" fill-opacity="1">
    <title>view</title>
    <g id="view_Layer_2">
      <title>Layer 2</title>
      <g id="Graphic_38">
        <path d="M 6.223596 30.457625 L 30.457625 30.457625 L 30.457625 6.223596 Z M 29.724632 5.542375 L 5.542375 5.542375 L 5.542375 29.724632 Z" fill="#a5a5a5" fill-opacity=".4958114"/>
        <path d="M 6.223596 30.457625 L 30.457625 30.457625 L 30.457625 6.223596 Z M 29.724632 5.542375 L 5.542375 5.542375 L 5.542375 29.724632 Z" stroke="black" stroke-opacity=".7059253" stroke-linecap="round" stroke-linejoin="round" stroke-width=".5"/>
      </g>
      <g id="Group_31">
        <title>Title</title>
        <g id="Graphic_26">
          <path d="M 8.782306 8.49617 L 8.782306 12.23617 C 8.782306 12.446039 8.952438 12.61617 9.162306 12.61617 L 9.162306 12.61617 C 9.372175 12.61617 9.542306 12.446039 9.542306 12.23617 L 9.542306 8.49617 C 9.542306 7.970395 9.968531 7.5441705 10.494306 7.5441705 L 11.126306 7.5441705 C 11.303038 7.5441705 11.446306 7.400902 11.446306 7.2241705 L 11.446306 7.2241705 C 11.446306 7.047439 11.303038 6.9041705 11.126306 6.9041705 L 7.1983064 6.9041705 C 7.021575 6.9041705 6.8783064 7.047439 6.8783064 7.2241705 L 6.8783064 7.2241705 C 6.8783064 7.400902 7.021575 7.5441705 7.1983064 7.5441705 L 7.830306 7.5441705 C 8.356082 7.5441705 8.782306 7.970395 8.782306 8.49617 Z" fill="black" fill-opacity=".7091491"/>
        </g>
        <g id="Graphic_27">
          <path d="M 12.686306 7.3961705 L 12.686306 7.2441705 C 12.686306 7.056394 12.534083 6.9041705 12.346306 6.9041705 L 12.346306 6.9041705 C 12.15853 6.9041705 12.006306 7.056394 12.006306 7.2441705 L 12.006306 7.3961705 C 12.006306 7.583947 12.15853 7.73617 12.346306 7.73617 L 12.346306 7.73617 C 12.534083 7.73617 12.686306 7.583947 12.686306 7.3961705 Z M 12.006306 8.82017 L 12.006306 12.27617 C 12.006306 12.463947 12.15853 12.61617 12.346306 12.61617 L 12.346306 12.61617 C 12.534083 12.61617 12.686306 12.463947 12.686306 12.27617 L 12.686306 8.82017 C 12.686306 8.632394 12.534083 8.48017 12.346306 8.48017 L 12.346306 8.48017 C 12.15853 8.48017 12.006306 8.632394 12.006306 8.82017 Z" fill="black" fill-opacity=".7091491"/>
        </g>
        <g id="Graphic_28">
          <path d="M 14.686306 8.06817 L 14.686306 7.5801705 C 14.686306 7.392394 14.534083 7.2401705 14.346306 7.2401705 L 14.346306 7.2401705 C 14.15853 7.2401705 14.006306 7.392394 14.006306 7.5801705 L 14.006306 8.12817 C 14.006306 8.322575 13.84871 8.48017 13.654306 8.48017 L 13.602306 8.48017 C 13.436621 8.48017 13.302306 8.614485 13.302306 8.78017 L 13.302306 8.78017 C 13.302306 8.945856 13.436621 9.08017 13.602306 9.08017 L 13.654306 9.08017 C 13.84871 9.08017 14.006306 9.237766 14.006306 9.43217 L 14.006306 11.71217 C 14.006306 11.904171 14.024973 12.058837 14.062306 12.17617 C 14.09964 12.293504 14.156973 12.38417 14.234306 12.44817 C 14.31164 12.512171 14.412972 12.55617 14.538306 12.58017 C 14.66364 12.60417 14.814306 12.61617 14.990306 12.61617 L 15.250306 12.61617 C 15.3939 12.61617 15.510306 12.499764 15.510306 12.35617 L 15.510306 12.17217 C 15.510306 12.086014 15.440463 12.01617 15.354306 12.01617 L 15.198306 12.01617 C 15.09164 12.01617 15.004973 12.01217 14.938306 12.00417 C 14.87164 11.99617 14.81964 11.978837 14.782306 11.95217 C 14.744973 11.925504 14.71964 11.88817 14.706306 11.84017 C 14.692973 11.79217 14.686306 11.728171 14.686306 11.64817 L 14.686306 9.49217 C 14.686306 9.264629 14.870765 9.08017 15.098306 9.08017 L 15.210306 9.08017 C 15.375992 9.08017 15.510306 8.945856 15.510306 8.78017 L 15.510306 8.78017 C 15.510306 8.614485 15.375992 8.48017 15.210306 8.48017 L 15.098306 8.48017 C 14.870765 8.48017 14.686306 8.295712 14.686306 8.06817 Z" fill="black" fill-opacity=".7091491"/>
        </g>
        <g id="Graphic_29">
          <path d="M 16.302306 7.2441705 L 16.302306 12.27617 C 16.302306 12.463947 16.45453 12.61617 16.642306 12.61617 L 16.642306 12.61617 C 16.830083 12.61617 16.982306 12.463947 16.982306 12.27617 L 16.982306 7.2441705 C 16.982306 7.056394 16.830083 6.9041705 16.642306 6.9041705 L 16.642306 6.9041705 C 16.45453 6.9041705 16.302306 7.056394 16.302306 7.2441705 Z" fill="black" fill-opacity=".7091491"/>
        </g>
        <g id="Graphic_30">
          <path d="M 20.910306 10.15217 L 18.534306 10.15217 C 18.544973 9.99217 18.57964 9.841504 18.638306 9.70017 C 18.696973 9.558836 18.776973 9.434838 18.878306 9.32817 C 18.97964 9.221503 19.100972 9.137504 19.242306 9.07617 C 19.38364 9.014837 19.542306 8.98417 19.718306 8.98417 C 19.888974 8.98417 20.044972 9.014837 20.186306 9.07617 C 20.32764 9.137504 20.450306 9.22017 20.554306 9.32417 C 20.658307 9.428171 20.740973 9.55217 20.802306 9.69617 C 20.86364 9.840171 20.89964 9.99217 20.910306 10.15217 Z M 21.566306 11.30417 L 20.894306 11.30417 C 20.83564 11.576172 20.714307 11.778836 20.530306 11.91217 C 20.346306 12.045504 20.110308 12.11217 19.822306 12.11217 C 19.598305 12.11217 19.40364 12.074837 19.238306 12.00017 C 19.072972 11.925503 18.936974 11.825504 18.830306 11.70017 C 18.72364 11.574836 18.646307 11.430838 18.598306 11.26817 C 18.550306 11.105503 18.528973 10.933505 18.534306 10.75217 L 21.630306 10.75217 C 21.640973 10.501503 21.618307 10.237505 21.562306 9.96017 C 21.506306 9.682836 21.404974 9.426838 21.258306 9.19217 C 21.11164 8.957503 20.916974 8.764171 20.674306 8.61217 C 20.431639 8.46017 20.126308 8.38417 19.758306 8.38417 C 19.475638 8.38417 19.21564 8.437503 18.978306 8.54417 C 18.740972 8.650838 18.53564 8.80017 18.362306 8.99217 C 18.188972 9.184171 18.054307 9.410836 17.958306 9.67217 C 17.862306 9.933505 17.814306 10.221502 17.814306 10.53617 C 17.824973 10.850839 17.87164 11.141502 17.954306 11.40817 C 18.036974 11.674838 18.160972 11.90417 18.326306 12.09617 C 18.49164 12.288171 18.695639 12.437503 18.938306 12.54417 C 19.180974 12.650838 19.467638 12.70417 19.798306 12.70417 C 20.267642 12.70417 20.656972 12.586838 20.966306 12.35217 C 21.275641 12.117503 21.47564 11.768173 21.566306 11.30417 Z" fill="black" fill-opacity=".70145425"/>
        </g>
      </g>
      <g id="Line_35">
        <line x1="22.502375" y1="16.485203" x2="28.86879" y2="16.485203" stroke="black" stroke-opacity=".7059253" stroke-linecap="round" stroke-linejoin="round" stroke-width="1.5"/>
      </g>
      <g id="Line_34">
        <line x1="10.528267" y1="28.380286" x2="28.86879" y2="28.380286" stroke="black" stroke-opacity=".7059253" stroke-linecap="round" stroke-linejoin="round" stroke-width="1.5"/>
      </g>
      <g id="Line_33">
        <line x1="16.86879" y1="22.335184" x2="28.86879" y2="22.335184" stroke="black" stroke-opacity=".7059253" stroke-linecap="round" stroke-linejoin="round" stroke-width="1.5"/>
      </g>
    </g>
  </g>
</svg>
