<?xml version="1.0" encoding="UTF-8" standalone="no" ?>
<!DOCTYPE svg PUBLIC "-//W3C//DTD SVG 1.1//EN"
    "http://www.w3.org/Graphics/SVG/1.1/DTD/svg11.dtd">
<svg
    xmlns:xl="http://www.w3.org/1999/xlink"
    version="1.1"
    xmlns:dc="http://purl.org/dc/elements/1.1/"
    xmlns="http://www.w3.org/2000/svg"
    viewBox="16 -4 676 344"
    width="1419.6"
    height="722.4000000000001"
>
<style>
  @import url('/LectureDoc2/ext/fonts/ld-fonts.css');
</style>
<defs>
    <linearGradient x1="0" x2="1" id="Gradient" gradientUnits="userSpaceOnUse">
      <stop offset="0" stop-color="#e2e2e2" />
      <stop offset=".5" stop-color="white" />
      <stop offset="1" stop-color="#b4b4b4" />
    </linearGradient>
    <linearGradient
            id="Obj_Gradient"
            xl:href="#Gradient"
            gradientTransform="translate(339 126) rotate(90) scale(64.000016)"
        />
    <radialGradient cx="0" cy="0" r="1" id="Gradient_2" gradientUnits="userSpaceOnUse">
      <stop offset="0" stop-color="white" />
      <stop offset="1" stop-color="#e3e3e3" />
    </radialGradient>
    <radialGradient
            id="Obj_Gradient_2"
            xl:href="#Gradient_2"
            gradientTransform="translate(476 158) scale(45.25484)"
        />
    <marker
            orient="auto"
            overflow="visible"
            markerUnits="strokeWidth"
            id="StickArrow_Marker"
            stroke-linejoin="miter"
            stroke-miterlimit="10"
            viewBox="-1 -4 10 8"
            markerWidth="10"
            markerHeight="8"
            color="black"
        >
      <g>
        <path
                    d="M 8 0 L 0 0 M 0 -3 L 8 0 L 0 3"
                    fill="none"
                    stroke="currentColor"
                    stroke-width="1"
                />
      </g>
    </marker>
    <marker
            orient="auto"
            overflow="visible"
            markerUnits="strokeWidth"
            id="FilledArrow_Marker"
            stroke-linejoin="miter"
            stroke-miterlimit="10"
            viewBox="-1 -4 10 8"
            markerWidth="10"
            markerHeight="8"
            color="black"
        >
      <g>
        <path
                    d="M 8 0 L 0 -3 L 0 3 Z"
                    fill="currentColor"
                    stroke="currentColor"
                    stroke-width="1"
                />
      </g>
    </marker>
    <filter id="Shadow" filterUnits="userSpaceOnUse" x="-51.6" y="-38.4">
      <feGaussianBlur in="SourceAlpha" result="blur" stdDeviation="1.308" />
      <feOffset in="blur" result="offset" dx="0" dy="2" />
      <feFlood flood-color="black" flood-opacity=".5" result="flood" />
      <feComposite in="flood" in2="offset" operator="in" result="color" />
      <feMerge>
        <feMergeNode in="color" />
        <feMergeNode in="SourceGraphic" />
      </feMerge>
    </filter>
  </defs>
  <metadata> Produced by OmniGraffle 8.0\n2025-04-28 12:14:47 +0000</metadata>
  <g
        id="ocp-two-subscribers_de"
        fill="none"
        stroke="none"
        stroke-dasharray="none"
        stroke-opacity="1"
        fill-opacity="1"
    >
    <title>ocp-two-subscribers_de</title>
    <g id="ocp-two-subscribers_de_Layer_1">
      <title>Layer 1</title>
      <g id="Line_226">
        <line
                    x1="328.06062"
                    y1="190.00002"
                    x2="422.8203"
                    y2="271.5"
                    stroke="#b4b4b4"
                    stroke-linecap="round"
                    stroke-linejoin="round"
                    stroke-width="1"
                />
      </g>
      <g id="Line_227">
        <line
                    x1="328.06062"
                    y1="190.00002"
                    x2="455.425"
                    y2="242"
                    stroke="#b4b4b4"
                    stroke-linecap="round"
                    stroke-linejoin="round"
                    stroke-width="1"
                />
      </g>
      <g id="Line_228">
        <line
                    x1="300.61878"
                    y1="190.96095"
                    x2="243.825"
                    y2="302"
                    stroke="#b4b4b4"
                    stroke-linecap="round"
                    stroke-linejoin="round"
                    stroke-width="1"
                />
      </g>
      <g id="Graphic_229">
        <path
                    d="M 587.25 35.000004 L 675.25 35.000004 C 684.08656 35.000004 691.25 42.16345 691.25 51.000004 L 691.25 103 C 691.25 111.83656 684.08656 119 675.25 119 L 587.25 119 C 578.41344 119 571.25 111.83656 571.25 103 L 571.25 51.000004 C 571.25 42.16345 578.41344 35.000004 587.25 35.000004 Z"
                    fill="white"
                />
        <path
                    d="M 587.25 35.000004 L 675.25 35.000004 C 684.08656 35.000004 691.25 42.16345 691.25 51.000004 L 691.25 103 C 691.25 111.83656 684.08656 119 675.25 119 L 587.25 119 C 578.41344 119 571.25 111.83656 571.25 103 L 571.25 51.000004 C 571.25 42.16345 578.41344 35.000004 587.25 35.000004 Z"
                    stroke="black"
                    stroke-linecap="round"
                    stroke-linejoin="round"
                    stroke-width="1"
                />
      </g>
      <g id="Graphic_230">
        <path
                    d="M 42.67223 30 L 130.50213 30 C 139.33868 30 146.50213 37.163444 146.50213 46 L 146.50213 98 C 146.50213 106.83656 139.33868 114 130.50213 114 L 42.67223 114 C 33.835675 114 26.67223 106.83656 26.67223 98 L 26.67223 46 C 26.67223 37.163444 33.835675 30 42.67223 30 Z"
                    fill="white"
                />
        <path
                    d="M 42.67223 30 L 130.50213 30 C 139.33868 30 146.50213 37.163444 146.50213 46 L 146.50213 98 C 146.50213 106.83656 139.33868 114 130.50213 114 L 42.67223 114 C 33.835675 114 26.67223 106.83656 26.67223 98 L 26.67223 46 C 26.67223 37.163444 33.835675 30 42.67223 30 Z"
                    stroke="black"
                    stroke-linecap="round"
                    stroke-linejoin="round"
                    stroke-width="1"
                />
      </g>
      <g id="Graphic_231">
        <path
                    d="M 44.170104 186 L 132 186 C 140.83656 186 148 193.16344 148 202 L 148 254 C 148 262.83655 140.83656 270 132 270 L 44.170104 270 C 35.33355 270 28.170104 262.83655 28.170104 254 L 28.170104 202 C 28.170104 193.16344 35.33355 186 44.170104 186 Z"
                    fill="white"
                />
        <path
                    d="M 44.170104 186 L 132 186 C 140.83656 186 148 193.16344 148 202 L 148 254 C 148 262.83655 140.83656 270 132 270 L 44.170104 270 C 35.33355 270 28.170104 262.83655 28.170104 254 L 28.170104 202 C 28.170104 193.16344 35.33355 186 44.170104 186 Z"
                    stroke="black"
                    stroke-linecap="round"
                    stroke-linejoin="round"
                    stroke-width="1"
                />
      </g>
      <g id="Graphic_232">
        <path
                    d="M 33.185697 196 L 121.0156 196 C 129.85215 196 137.0156 203.16344 137.0156 212 L 137.0156 264 C 137.0156 272.83655 129.85215 280 121.0156 280 L 33.185697 280 C 24.34914 280 17.185697 272.83655 17.185697 264 L 17.185697 212 C 17.185697 203.16344 24.34914 196 33.185697 196 Z"
                    fill="white"
                />
        <path
                    d="M 33.185697 196 L 121.0156 196 C 129.85215 196 137.0156 203.16344 137.0156 212 L 137.0156 264 C 137.0156 272.83655 129.85215 280 121.0156 280 L 33.185697 280 C 24.34914 280 17.185697 272.83655 17.185697 264 L 17.185697 212 C 17.185697 203.16344 24.34914 196 33.185697 196 Z"
                    stroke="black"
                    stroke-linecap="round"
                    stroke-linejoin="round"
                    stroke-width="1"
                />
        <text transform="translate(22.185697 227)" fill="black">
          <tspan
                        font-family="Noto Sans Display"
                        font-size="16"
                        font-weight="400"
                        fill="black"
                        x="3.2669475"
                        y="17"
                    >AutoRückgabe</tspan>
        </text>
      </g>
      <g id="Graphic_233">
        <path
                    d="M 32.93605 40 L 120.76595 40 C 129.6025 40 136.76595 47.163444 136.76595 56 L 136.76595 108 C 136.76595 116.83656 129.6025 124 120.76595 124 L 32.93605 124 C 24.099496 124 16.936052 116.83656 16.936052 108 L 16.936052 56 C 16.936052 47.163444 24.099496 40 32.93605 40 Z"
                    fill="white"
                />
        <path
                    d="M 32.93605 40 L 120.76595 40 C 129.6025 40 136.76595 47.163444 136.76595 56 L 136.76595 108 C 136.76595 116.83656 129.6025 124 120.76595 124 L 32.93605 124 C 24.099496 124 16.936052 116.83656 16.936052 108 L 16.936052 56 C 16.936052 47.163444 24.099496 40 32.93605 40 Z"
                    stroke="black"
                    stroke-linecap="round"
                    stroke-linejoin="round"
                    stroke-width="1"
                />
        <text transform="translate(21.936052 71)" fill="black">
          <tspan
                        font-family="Noto Sans Display"
                        font-size="16"
                        font-weight="400"
                        fill="black"
                        x="18.010948"
                        y="17"
                    >AutoMiete</tspan>
        </text>
      </g>
      <g id="Graphic_234">
        <path
                    d="M 236 127.00393 C 227.77262 126.87413 219.50408 129.94821 213.22616 136.22616 C 200.9246 148.52767 200.9246 168.47233 213.22616 180.77384 C 219.50408 187.0518 227.77262 190.12587 236 189.99607 L 236 190 L 474 190 L 474 126 L 236 126 Z"
                    fill="url(#Obj_Gradient)"
                />
        <path
                    d="M 236 127.00393 C 227.77262 126.87413 219.50408 129.94821 213.22616 136.22616 C 200.9246 148.52767 200.9246 168.47233 213.22616 180.77384 C 219.50408 187.0518 227.77262 190.12587 236 189.99607 L 236 190 L 474 190 L 474 126 L 236 126 Z"
                    stroke="#797979"
                    stroke-linecap="round"
                    stroke-linejoin="round"
                    stroke-width="1"
                />
      </g>
      <g id="Graphic_235">
        <circle cx="476" cy="158" r="32.000055070367" fill="url(#Obj_Gradient_2)" />
        <circle
                    cx="476"
                    cy="158"
                    r="32.000055070367"
                    stroke="#797979"
                    stroke-linecap="round"
                    stroke-linejoin="round"
                    stroke-width="1"
                />
      </g>
      <g id="Graphic_236">
        <path
                    d="M 577.25 44.999996 L 665.25 44.999996 C 674.08656 44.999996 681.25 52.16344 681.25 60.999996 L 681.25 113 C 681.25 121.83655 674.08656 129 665.25 129 L 577.25 129 C 568.41344 129 561.25 121.83655 561.25 113 L 561.25 60.999996 C 561.25 52.16344 568.41344 44.999996 577.25 44.999996 Z"
                    fill="white"
                />
        <path
                    d="M 577.25 44.999996 L 665.25 44.999996 C 674.08656 44.999996 681.25 52.16344 681.25 60.999996 L 681.25 113 C 681.25 121.83655 674.08656 129 665.25 129 L 577.25 129 C 568.41344 129 561.25 121.83655 561.25 113 L 561.25 60.999996 C 561.25 52.16344 568.41344 44.999996 577.25 44.999996 Z"
                    stroke="black"
                    stroke-linecap="round"
                    stroke-linejoin="round"
                    stroke-width="1"
                />
        <text transform="translate(566.25 64.999996)" fill="black">
          <tspan
                        font-family="Noto Sans Display"
                        font-size="16"
                        font-weight="400"
                        fill="black"
                        x="35.76"
                        y="17"
                    >Auto-</tspan>
          <tspan
                        font-family="Noto Sans Display"
                        font-size="16"
                        font-weight="400"
                        fill="black"
                        x="6.264"
                        y="39"
                    >Verfügbarkeit</tspan>
        </text>
      </g>
      <g id="Line_237">
        <path
                    d="M 508 158 L 542.4581 158 L 542.4581 87 L 551.35 87"
                    marker-end="url(#StickArrow_Marker)"
                    stroke="black"
                    stroke-linecap="round"
                    stroke-linejoin="round"
                    stroke-width="1"
                />
      </g>
      <g id="Graphic_238">
        <text transform="translate(553.494 147.57154)" fill="black">
          <tspan
                        font-family="Noto Sans Display"
                        font-size="14"
                        font-weight="400"
                        fill="black"
                        x="0"
                        y="15"
                    >empfängt</tspan>
        </text>
      </g>
      <g id="Line_239">
        <path
                    d="M 136.76595 82 L 175.76562 82 L 175.76562 158 L 204.00393 158"
                    stroke="black"
                    stroke-linecap="round"
                    stroke-linejoin="round"
                    stroke-width="1"
                />
      </g>
      <g id="Line_240">
        <path
                    d="M 137.0156 238 L 175.44653 238 L 175.44653 158 L 194.10393 158"
                    marker-end="url(#FilledArrow_Marker)"
                    stroke="black"
                    stroke-linecap="round"
                    stroke-linejoin="round"
                    stroke-width="1"
                />
      </g>
      <g id="Line_241" filter="url(#Shadow)">
        <line
                    x1="181"
                    y1="0"
                    x2="181"
                    y2="334"
                    stroke="#797979"
                    stroke-linecap="round"
                    stroke-linejoin="round"
                    stroke-dasharray="4.0,4.0"
                    stroke-width="1"
                />
      </g>
      <g id="Line_242" filter="url(#Shadow)">
        <line
                    x1="524.75"
                    y1="0"
                    x2="524.75"
                    y2="334"
                    stroke="#797979"
                    stroke-linecap="round"
                    stroke-linejoin="round"
                    stroke-dasharray="4.0,4.0"
                    stroke-width="1"
                />
      </g>
      <g id="Graphic_243">
        <text transform="translate(330.125 1)" fill="black">
          <tspan
                        font-family="Noto Sans Display"
                        font-size="14"
                        font-weight="700"
                        fill="black"
                        x="0"
                        y="15"
                    >Thema</tspan>
        </text>
      </g>
      <g id="Graphic_244">
        <text transform="translate(107.416 1)" fill="black">
          <tspan
                        font-family="Noto Sans Display"
                        font-size="14"
                        font-weight="700"
                        fill="black"
                        x="7425172e-19"
                        y="15"
                    >Publisher</tspan>
        </text>
      </g>
      <g id="Graphic_245">
        <text transform="translate(537.851 1)" fill="black">
          <tspan
                        font-family="Noto Sans Display"
                        font-size="14"
                        font-weight="700"
                        fill="black"
                        x="0"
                        y="15"
                    >Subscriber</tspan>
        </text>
      </g>
      <g id="Graphic_246">
        <text transform="translate(117.832 147.57154)" fill="black">
          <tspan
                        font-family="Noto Sans Display"
                        font-size="14"
                        font-weight="400"
                        fill="black"
                        x="0"
                        y="15"
                    >sendet</tspan>
        </text>
      </g>
      <g id="Graphic_247">
        <path
                    d="M 455.425 246.56068 C 455.425 239.17174 452.7377 238.25758 433.10755 230.94508 L 432.9002 230.86942 C 413.16636 223.48048 412.9611 223.48048 392.70888 223.48048 C 365.74257 223.48048 243.825 223.48048 243.825 223.48048 L 243.825 301.48048 L 455.425 301.48048 L 455.425 246.56068 Z"
                    fill="#e2e2e2"
                />
        <path
                    d="M 455.425 246.56068 C 455.425 239.17174 452.7377 238.25758 433.10755 230.94508 L 432.9002 230.86942 C 413.16636 223.48048 412.9611 223.48048 392.70888 223.48048 C 365.74257 223.48048 243.825 223.48048 243.825 223.48048 L 243.825 301.48048 L 455.425 301.48048 L 455.425 246.56068 Z M 455.425 246.18004 C 455.425 239.17174 455.21763 239.17174 412.9611 239.17174 L 412.9611 239.17174 C 412.9611 223.55692 412.9611 223.48048 393.94885 223.48048"
                    stroke="#797979"
                    stroke-linecap="round"
                    stroke-linejoin="round"
                    stroke-width="1"
                />
        <text transform="translate(248.825 228.48048)" fill="black">
          <tspan
                        font-family="Victor Mono"
                        font-size="12"
                        font-weight="400"
                        fill="black"
                        x="0"
                        y="13"
                    >{</tspan>
          <tspan
                        font-family="Victor Mono"
                        font-size="12"
                        font-weight="400"
                        fill="black"
                        x="0"
                        y="30"
                    >  &quot;Status&quot;: &quot;Abgeschlossen&quot;,</tspan>
          <tspan
                        font-family="Victor Mono"
                        font-size="12"
                        font-weight="400"
                        fill="black"
                        x="0"
                        y="47"
                    >  &quot;VereinbarungID&quot;: 1234</tspan>
          <tspan
                        font-family="Victor Mono"
                        font-size="12"
                        font-weight="400"
                        fill="black"
                        x="0"
                        y="64"
                    >}</tspan>
        </text>
      </g>
      <g id="Line_248">
        <path
                    d="M 329.18605 126.03906 C 326.75 126.03906 296.81395 127.28906 296.81395 158.03906 C 296.81395 188.78906 326.25 190.00002 328.06062 190.00002"
                    stroke="#b4b4b4"
                    stroke-linecap="round"
                    stroke-linejoin="round"
                    stroke-width="1"
                />
      </g>
      <g id="Line_249">
        <path
                    d="M 268.3721 126 C 265.93605 126 236 127.25 236 158 C 236 188.75 265.43605 189.96095 267.24668 189.96095"
                    stroke="#b4b4b4"
                    stroke-linecap="round"
                    stroke-linejoin="round"
                    stroke-width="1"
                />
      </g>
      <g id="Line_250">
        <path
                    d="M 300.7442 126 C 298.30815 126 268.3721 127.25 268.3721 158 C 268.3721 188.75 297.80815 189.96095 299.61878 189.96095"
                    stroke="#b4b4b4"
                    stroke-linecap="round"
                    stroke-linejoin="round"
                    stroke-width="1"
                />
      </g>
      <g id="Line_251">
        <path
                    d="M 358.43605 126.03906 C 356 126.03906 326.06395 127.28906 326.06395 158.03906 C 326.06395 188.78906 355.5 190.00002 357.31062 190.00002"
                    stroke="#b4b4b4"
                    stroke-linecap="round"
                    stroke-linejoin="round"
                    stroke-width="1"
                />
      </g>
      <g id="Line_252">
        <path
                    d="M 388.55815 126 C 386.1221 126 356.18605 127.25 356.18605 158 C 356.18605 188.75 385.6221 189.96095 387.43273 189.96095"
                    stroke="#b4b4b4"
                    stroke-linecap="round"
                    stroke-linejoin="round"
                    stroke-width="1"
                />
      </g>
      <g id="Line_253">
        <path
                    d="M 418.55815 126 C 416.1221 126 386.18605 127.25 386.18605 158 C 386.18605 188.75 415.6221 189.96095 417.43273 189.96095"
                    stroke="#b4b4b4"
                    stroke-linecap="round"
                    stroke-linejoin="round"
                    stroke-width="1"
                />
      </g>
      <g id="Line_254">
        <path
                    d="M 448.55815 126 C 446.1221 126 416.18605 127.25 416.18605 158 C 416.18605 188.75 445.6221 189.96095 447.43273 189.96095"
                    stroke="#b4b4b4"
                    stroke-linecap="round"
                    stroke-linejoin="round"
                    stroke-width="1"
                />
      </g>
      <g id="Graphic_255">
        <text transform="translate(211.36 147.57154)" fill="black">
          <tspan
                        font-family="Noto Sans Display"
                        font-size="16"
                        font-weight="400"
                        fill="black"
                        x="5115908e-19"
                        y="17"
                    >VermietungsVertragGespeichert</tspan>
        </text>
      </g>
      <g id="Line_256">
        <line
                    x1="299.61878"
                    y1="189.96095"
                    x2="243.825"
                    y2="223"
                    stroke="#b4b4b4"
                    stroke-linecap="round"
                    stroke-linejoin="round"
                    stroke-width="1"
                />
      </g>
      <g id="Graphic_257">
        <path
                    d="M 587.25 186 L 675.25 186 C 684.08656 186 691.25 193.16344 691.25 202 L 691.25 254 C 691.25 262.83656 684.08656 270 675.25 270 L 587.25 270 C 578.41344 270 571.25 262.83656 571.25 254 L 571.25 202 C 571.25 193.16344 578.41344 186 587.25 186 Z"
                    fill="white"
                />
        <path
                    d="M 587.25 186 L 675.25 186 C 684.08656 186 691.25 193.16344 691.25 202 L 691.25 254 C 691.25 262.83656 684.08656 270 675.25 270 L 587.25 270 C 578.41344 270 571.25 262.83656 571.25 254 L 571.25 202 C 571.25 193.16344 578.41344 186 587.25 186 Z"
                    stroke="black"
                    stroke-linecap="round"
                    stroke-linejoin="round"
                    stroke-width="1"
                />
      </g>
      <g id="Graphic_258">
        <path
                    d="M 577.25 196 L 665.25 196 C 674.08656 196 681.25 203.16344 681.25 212 L 681.25 264 C 681.25 272.83655 674.08656 280 665.25 280 L 577.25 280 C 568.41344 280 561.25 272.83655 561.25 264 L 561.25 212 C 561.25 203.16344 568.41344 196 577.25 196 Z"
                    fill="white"
                />
        <path
                    d="M 577.25 196 L 665.25 196 C 674.08656 196 681.25 203.16344 681.25 212 L 681.25 264 C 681.25 272.83655 674.08656 280 665.25 280 L 577.25 280 C 568.41344 280 561.25 272.83655 561.25 264 L 561.25 212 C 561.25 203.16344 568.41344 196 577.25 196 Z"
                    stroke="black"
                    stroke-linecap="round"
                    stroke-linejoin="round"
                    stroke-width="1"
                />
        <text transform="translate(566.25 227)" fill="black">
          <tspan
                        font-family="Noto Sans Display"
                        font-size="16"
                        font-weight="400"
                        fill="black"
                        x="19.096"
                        y="17"
                    >Rechnung</tspan>
        </text>
      </g>
      <g id="Line_259">
        <path
                    d="M 508 158 L 542.4434 158 L 542.4434 238 L 551.35 238"
                    marker-end="url(#StickArrow_Marker)"
                    stroke="black"
                    stroke-linecap="round"
                    stroke-linejoin="round"
                    stroke-width="1"
                />
      </g>
    </g>
  </g>
</svg>
