<?xml version="1.0" encoding="UTF-8" standalone="no" ?>
<!DOCTYPE svg PUBLIC "-//W3C//DTD SVG 1.1//EN"
    "http://www.w3.org/Graphics/SVG/1.1/DTD/svg11.dtd">
<svg
    xmlns:xl="http://www.w3.org/1999/xlink"
    version="1.1"
    xmlns:dc="http://purl.org/dc/elements/1.1/"
    xmlns="http://www.w3.org/2000/svg"
    viewBox="39 15 685 341"
    width="1438.5"
    height="767.25"
>
<style>
  @import url('/LectureDoc2/ext/fonts/ld-fonts.css');
</style>
<defs>
    <linearGradient x1="0" x2="1" id="Gradient" gradientUnits="userSpaceOnUse">
      <stop offset="0" stop-color="#e2e2e2" />
      <stop offset=".5" stop-color="white" />
      <stop offset="1" stop-color="#b4b4b4" />
    </linearGradient>
    <linearGradient
            id="Obj_Gradient"
            xl:href="#Gradient"
            gradientTransform="translate(369 145) rotate(90) scale(64.000016)"
        />
    <radialGradient cx="0" cy="0" r="1" id="Gradient_2" gradientUnits="userSpaceOnUse">
      <stop offset="0" stop-color="white" />
      <stop offset="1" stop-color="#e3e3e3" />
    </radialGradient>
    <radialGradient
            id="Obj_Gradient_2"
            xl:href="#Gradient_2"
            gradientTransform="translate(505.5 177) scale(44.90268)"
        />
    <marker
            orient="auto"
            overflow="visible"
            markerUnits="strokeWidth"
            id="StickArrow_Marker"
            stroke-linejoin="miter"
            stroke-miterlimit="10"
            viewBox="-1 -4 10 8"
            markerWidth="10"
            markerHeight="8"
            color="black"
        >
      <g>
        <path
                    d="M 8 0 L 0 0 M 0 -3 L 8 0 L 0 3"
                    fill="none"
                    stroke="currentColor"
                    stroke-width="1"
                />
      </g>
    </marker>
    <marker
            orient="auto"
            overflow="visible"
            markerUnits="strokeWidth"
            id="FilledArrow_Marker"
            stroke-linejoin="miter"
            stroke-miterlimit="10"
            viewBox="-1 -4 10 8"
            markerWidth="10"
            markerHeight="8"
            color="black"
        >
      <g>
        <path
                    d="M 8 0 L 0 -3 L 0 3 Z"
                    fill="currentColor"
                    stroke="currentColor"
                    stroke-width="1"
                />
      </g>
    </marker>
    <filter id="Shadow" filterUnits="userSpaceOnUse" x="-29.5" y="-19.1">
      <feGaussianBlur in="SourceAlpha" result="blur" stdDeviation="1.308" />
      <feOffset in="blur" result="offset" dx="0" dy="2" />
      <feFlood flood-color="black" flood-opacity=".5" result="flood" />
      <feComposite in="flood" in2="offset" operator="in" result="color" />
      <feMerge>
        <feMergeNode in="color" />
        <feMergeNode in="SourceGraphic" />
      </feMerge>
    </filter>
  </defs>
  <metadata> Produced by OmniGraffle 8.0\n2025-04-28 12:14:47 +0000</metadata>
  <g
        id="ocp-intended-subscriber_de"
        fill="none"
        stroke="none"
        stroke-dasharray="none"
        stroke-opacity="1"
        fill-opacity="1"
    >
    <title>ocp-intended-subscriber_de</title>
    <g id="ocp-intended-subscriber_de_Layer_1">
      <title>Layer 1</title>
      <g id="Line_263">
        <line
                    x1="358.06062"
                    y1="209.00002"
                    x2="452.1172"
                    y2="294.5055"
                    stroke="#b4b4b4"
                    stroke-linecap="round"
                    stroke-linejoin="round"
                    stroke-width="1"
                />
      </g>
      <g id="Line_264">
        <line
                    x1="358.06062"
                    y1="209.00002"
                    x2="455.6"
                    y2="350.86705"
                    stroke="#b4b4b4"
                    stroke-linecap="round"
                    stroke-linejoin="round"
                    stroke-width="1"
                />
      </g>
      <g id="Line_265">
        <line
                    x1="330.61878"
                    y1="209.96095"
                    x2="244"
                    y2="350.289"
                    stroke="#b4b4b4"
                    stroke-linecap="round"
                    stroke-linejoin="round"
                    stroke-width="1"
                />
      </g>
      <g id="Graphic_266">
        <path
                    d="M 618.7442 125 L 706.7442 125 C 715.5808 125 722.7442 132.16344 722.7442 141 L 722.7442 193 C 722.7442 201.83656 715.5808 209 706.7442 209 L 618.7442 209 C 609.90765 209 602.7442 201.83656 602.7442 193 L 602.7442 141 C 602.7442 132.16344 609.90765 125 618.7442 125 Z"
                    fill="white"
                />
        <path
                    d="M 618.7442 125 L 706.7442 125 C 715.5808 125 722.7442 132.16344 722.7442 141 L 722.7442 193 C 722.7442 201.83656 715.5808 209 706.7442 209 L 618.7442 209 C 609.90765 209 602.7442 201.83656 602.7442 193 L 602.7442 141 C 602.7442 132.16344 609.90765 125 618.7442 125 Z"
                    stroke="black"
                    stroke-linecap="round"
                    stroke-linejoin="round"
                    stroke-width="1"
                />
      </g>
      <g id="Graphic_267">
        <path
                    d="M 66 53.45443 L 154 53.45443 C 162.83656 53.45443 170 60.61787 170 69.45443 L 170 121.45443 C 170 130.29099 162.83656 137.45443 154 137.45443 L 66 137.45443 C 57.163444 137.45443 50 130.29099 50 121.45443 L 50 69.45443 C 50 60.61787 57.163444 53.45443 66 53.45443 Z"
                    fill="white"
                />
        <path
                    d="M 66 53.45443 L 154 53.45443 C 162.83656 53.45443 170 60.61787 170 69.45443 L 170 121.45443 C 170 130.29099 162.83656 137.45443 154 137.45443 L 66 137.45443 C 57.163444 137.45443 50 130.29099 50 121.45443 L 50 69.45443 C 50 60.61787 57.163444 53.45443 66 53.45443 Z"
                    stroke="black"
                    stroke-linecap="round"
                    stroke-linejoin="round"
                    stroke-width="1"
                />
      </g>
      <g id="Graphic_268">
        <path
                    d="M 68.75 204.50652 L 156.75 204.50652 C 165.58656 204.50652 172.75 211.66997 172.75 220.50652 L 172.75 272.50652 C 172.75 281.34308 165.58656 288.50652 156.75 288.50652 L 68.75 288.50652 C 59.913444 288.50652 52.75 281.34308 52.75 272.50652 L 52.75 220.50652 C 52.75 211.66997 59.913444 204.50652 68.75 204.50652 Z"
                    fill="white"
                />
        <path
                    d="M 68.75 204.50652 L 156.75 204.50652 C 165.58656 204.50652 172.75 211.66997 172.75 220.50652 L 172.75 272.50652 C 172.75 281.34308 165.58656 288.50652 156.75 288.50652 L 68.75 288.50652 C 59.913444 288.50652 52.75 281.34308 52.75 272.50652 L 52.75 220.50652 C 52.75 211.66997 59.913444 204.50652 68.75 204.50652 Z"
                    stroke="black"
                    stroke-linecap="round"
                    stroke-linejoin="round"
                    stroke-width="1"
                />
      </g>
      <g id="Graphic_269">
        <path
                    d="M 56.25 215.50652 L 144.25 215.50652 C 153.08656 215.50652 160.25 222.66997 160.25 231.50652 L 160.25 283.50652 C 160.25 292.34308 153.08656 299.50652 144.25 299.50652 L 56.25 299.50652 C 47.413444 299.50652 40.25 292.34308 40.25 283.50652 L 40.25 231.50652 C 40.25 222.66997 47.413444 215.50652 56.25 215.50652 Z"
                    fill="white"
                />
        <path
                    d="M 56.25 215.50652 L 144.25 215.50652 C 153.08656 215.50652 160.25 222.66997 160.25 231.50652 L 160.25 283.50652 C 160.25 292.34308 153.08656 299.50652 144.25 299.50652 L 56.25 299.50652 C 47.413444 299.50652 40.25 292.34308 40.25 283.50652 L 40.25 231.50652 C 40.25 222.66997 47.413444 215.50652 56.25 215.50652 Z"
                    stroke="black"
                    stroke-linecap="round"
                    stroke-linejoin="round"
                    stroke-width="1"
                />
        <text transform="translate(45.25 246.50652)" fill="black">
          <tspan
                        font-family="Noto Sans Display"
                        font-size="16"
                        font-weight="400"
                        fill="black"
                        x="3.352"
                        y="17"
                    >AutoRückgabe</tspan>
        </text>
      </g>
      <g id="Graphic_270">
        <path
                    d="M 56.25 65.45443 L 144.25 65.45443 C 153.08656 65.45443 160.25 72.61787 160.25 81.45443 L 160.25 133.45443 C 160.25 142.29099 153.08656 149.45443 144.25 149.45443 L 56.25 149.45443 C 47.413444 149.45443 40.25 142.29099 40.25 133.45443 L 40.25 81.45443 C 40.25 72.61787 47.413444 65.45443 56.25 65.45443 Z"
                    fill="white"
                />
        <path
                    d="M 56.25 65.45443 L 144.25 65.45443 C 153.08656 65.45443 160.25 72.61787 160.25 81.45443 L 160.25 133.45443 C 160.25 142.29099 153.08656 149.45443 144.25 149.45443 L 56.25 149.45443 C 47.413444 149.45443 40.25 142.29099 40.25 133.45443 L 40.25 81.45443 C 40.25 72.61787 47.413444 65.45443 56.25 65.45443 Z"
                    stroke="black"
                    stroke-linecap="round"
                    stroke-linejoin="round"
                    stroke-width="1"
                />
        <text transform="translate(45.25 96.45443)" fill="black">
          <tspan
                        font-family="Noto Sans Display"
                        font-size="16"
                        font-weight="400"
                        fill="black"
                        x="18.096"
                        y="17"
                    >AutoMiete</tspan>
        </text>
      </g>
      <g id="Graphic_271">
        <path
                    d="M 266 146.00393 C 257.77262 145.87413 249.50408 148.94821 243.22616 155.22616 C 230.9246 167.52767 230.9246 187.47233 243.22616 199.77384 C 249.50408 206.0518 257.77262 209.12587 266 208.99607 L 266 209 L 504 209 L 504 145 L 266 145 Z"
                    fill="url(#Obj_Gradient)"
                />
        <path
                    d="M 266 146.00393 C 257.77262 145.87413 249.50408 148.94821 243.22616 155.22616 C 230.9246 167.52767 230.9246 187.47233 243.22616 199.77384 C 249.50408 206.0518 257.77262 209.12587 266 208.99607 L 266 209 L 504 209 L 504 145 L 266 145 Z"
                    stroke="#797979"
                    stroke-linecap="round"
                    stroke-linejoin="round"
                    stroke-width="1"
                />
      </g>
      <g id="Graphic_272">
        <ellipse
                    cx="505.5"
                    cy="177"
                    rx="31.5000503339097"
                    ry="32.0000590078733"
                    fill="url(#Obj_Gradient_2)"
                />
        <ellipse
                    cx="505.5"
                    cy="177"
                    rx="31.5000503339097"
                    ry="32.0000590078733"
                    stroke="#797979"
                    stroke-linecap="round"
                    stroke-linejoin="round"
                    stroke-width="1"
                />
      </g>
      <g id="Graphic_273">
        <path
                    d="M 608.7442 135 L 696.7442 135 C 705.5808 135 712.7442 142.16344 712.7442 151 L 712.7442 203 C 712.7442 211.83655 705.5808 219 696.7442 219 L 608.7442 219 C 599.90765 219 592.7442 211.83655 592.7442 203 L 592.7442 151 C 592.7442 142.16344 599.90765 135 608.7442 135 Z"
                    fill="white"
                />
        <path
                    d="M 608.7442 135 L 696.7442 135 C 705.5808 135 712.7442 142.16344 712.7442 151 L 712.7442 203 C 712.7442 211.83655 705.5808 219 696.7442 219 L 608.7442 219 C 599.90765 219 592.7442 211.83655 592.7442 203 L 592.7442 151 C 592.7442 142.16344 599.90765 135 608.7442 135 Z"
                    stroke="black"
                    stroke-linecap="round"
                    stroke-linejoin="round"
                    stroke-width="1"
                />
        <text transform="translate(597.7442 155)" fill="black">
          <tspan
                        font-family="Noto Sans Display"
                        font-size="16"
                        font-weight="400"
                        fill="black"
                        x="35.76"
                        y="17"
                    >Auto-</tspan>
          <tspan
                        font-family="Noto Sans Display"
                        font-size="16"
                        font-weight="400"
                        fill="black"
                        x="6.264"
                        y="39"
                    >Verfügbarkeit</tspan>
        </text>
      </g>
      <g id="Line_274">
        <line
                    x1="537"
                    y1="177"
                    x2="582.8442"
                    y2="177"
                    marker-end="url(#StickArrow_Marker)"
                    stroke="black"
                    stroke-linecap="round"
                    stroke-linejoin="round"
                    stroke-width="1"
                />
      </g>
      <g id="Graphic_275">
        <text transform="translate(529.4995 156.19616)" fill="black">
          <tspan
                        font-family="Noto Sans Display"
                        font-size="14"
                        font-weight="400"
                        fill="black"
                        x="0"
                        y="15"
                    >empfängt</tspan>
        </text>
      </g>
      <g id="Line_276">
        <path
                    d="M 160.25 107.45443 L 198.5282 107.45443 L 198.5282 177 L 234.00393 177"
                    stroke="black"
                    stroke-linecap="round"
                    stroke-linejoin="round"
                    stroke-width="1"
                />
      </g>
      <g id="Line_277">
        <path
                    d="M 160.25 257.50652 L 198.7107 257.50652 L 198.7107 177 L 224.10393 177"
                    marker-end="url(#FilledArrow_Marker)"
                    stroke="black"
                    stroke-linecap="round"
                    stroke-linejoin="round"
                    stroke-width="1"
                />
      </g>
      <g id="Line_278" filter="url(#Shadow)">
        <line
                    x1="211"
                    y1="19"
                    x2="211"
                    y2="350.289"
                    stroke="#797979"
                    stroke-linecap="round"
                    stroke-linejoin="round"
                    stroke-dasharray="4.0,4.0"
                    stroke-width="1"
                />
      </g>
      <g id="Line_279" filter="url(#Shadow)">
        <line
                    x1="565.5"
                    y1="19"
                    x2="565.5"
                    y2="350.289"
                    stroke="#797979"
                    stroke-linecap="round"
                    stroke-linejoin="round"
                    stroke-dasharray="4.0,4.0"
                    stroke-width="1"
                />
      </g>
      <g id="Graphic_280">
        <text transform="translate(365.5 20)" fill="black">
          <tspan
                        font-family="Noto Sans Display"
                        font-size="14"
                        font-weight="700"
                        fill="black"
                        x="0"
                        y="15"
                    >Thema</tspan>
        </text>
      </g>
      <g id="Graphic_281">
        <text transform="translate(137.416 20)" fill="black">
          <tspan
                        font-family="Noto Sans Display"
                        font-size="14"
                        font-weight="700"
                        fill="black"
                        x="7425172e-19"
                        y="15"
                    >Publisher</tspan>
        </text>
      </g>
      <g id="Graphic_282">
        <text transform="translate(578.601 20)" fill="black">
          <tspan
                        font-family="Noto Sans Display"
                        font-size="14"
                        font-weight="700"
                        fill="black"
                        x="0"
                        y="15"
                    >Subscriber</tspan>
        </text>
      </g>
      <g id="Graphic_283">
        <text transform="translate(147.832 167.48048)" fill="black">
          <tspan
                        font-family="Noto Sans Display"
                        font-size="14"
                        font-weight="400"
                        fill="black"
                        x="0"
                        y="15"
                    >sendet</tspan>
        </text>
      </g>
      <g id="Graphic_284">
        <path
                    d="M 455.6 294.0802 C 455.6 286.69126 452.9127 285.7771 433.28255 278.4646 L 433.0752 278.38894 C 413.34136 271 413.1361 271 392.88388 271 C 365.91757 271 244 271 244 271 L 244 349 L 455.6 349 L 455.6 294.0802 Z"
                    fill="#e2e2e2"
                />
        <path
                    d="M 455.6 294.0802 C 455.6 286.69126 452.9127 285.7771 433.28255 278.4646 L 433.0752 278.38894 C 413.34136 271 413.1361 271 392.88388 271 C 365.91757 271 244 271 244 271 L 244 349 L 455.6 349 L 455.6 294.0802 Z M 455.6 293.69956 C 455.6 286.69126 455.39263 286.69126 413.1361 286.69126 L 413.1361 286.69126 C 413.1361 271.07644 413.1361 271 394.12385 271"
                    stroke="#797979"
                    stroke-linecap="round"
                    stroke-linejoin="round"
                    stroke-width="1"
                />
        <text transform="translate(249 276)" fill="black">
          <tspan
                        font-family="Victor Mono"
                        font-size="12"
                        font-weight="400"
                        fill="black"
                        x="0"
                        y="13"
                    >{</tspan>
          <tspan
                        font-family="Victor Mono"
                        font-size="12"
                        font-weight="400"
                        fill="black"
                        x="0"
                        y="30"
                    >  &quot;Status&quot;: &quot;Abgeschlossen&quot;,</tspan>
          <tspan
                        font-family="Victor Mono"
                        font-size="12"
                        font-weight="400"
                        fill="black"
                        x="0"
                        y="47"
                    >  &quot;VereinbarungID&quot;: 1234</tspan>
          <tspan
                        font-family="Victor Mono"
                        font-size="12"
                        font-weight="400"
                        fill="black"
                        x="0"
                        y="64"
                    >}</tspan>
        </text>
      </g>
      <g id="Line_285">
        <path
                    d="M 359.18605 145.03906 C 356.75 145.03906 326.81395 146.28906 326.81395 177.03906 C 326.81395 207.78906 356.25 209.00002 358.06062 209.00002"
                    stroke="#b4b4b4"
                    stroke-linecap="round"
                    stroke-linejoin="round"
                    stroke-width="1"
                />
      </g>
      <g id="Line_286">
        <path
                    d="M 298.3721 145 C 295.93605 145 266 146.25 266 177 C 266 207.75 295.43605 208.96095 297.24668 208.96095"
                    stroke="#b4b4b4"
                    stroke-linecap="round"
                    stroke-linejoin="round"
                    stroke-width="1"
                />
      </g>
      <g id="Line_287">
        <path
                    d="M 330.7442 145 C 328.30815 145 298.3721 146.25 298.3721 177 C 298.3721 207.75 327.80815 208.96095 329.61878 208.96095"
                    stroke="#b4b4b4"
                    stroke-linecap="round"
                    stroke-linejoin="round"
                    stroke-width="1"
                />
      </g>
      <g id="Line_288">
        <path
                    d="M 388.43605 145.03906 C 386 145.03906 356.06395 146.28906 356.06395 177.03906 C 356.06395 207.78906 385.5 209.00002 387.31062 209.00002"
                    stroke="#b4b4b4"
                    stroke-linecap="round"
                    stroke-linejoin="round"
                    stroke-width="1"
                />
      </g>
      <g id="Line_289">
        <path
                    d="M 418.55815 145 C 416.1221 145 386.18605 146.25 386.18605 177 C 386.18605 207.75 415.6221 208.96095 417.43273 208.96095"
                    stroke="#b4b4b4"
                    stroke-linecap="round"
                    stroke-linejoin="round"
                    stroke-width="1"
                />
      </g>
      <g id="Line_290">
        <path
                    d="M 448.55815 145 C 446.1221 145 416.18605 146.25 416.18605 177 C 416.18605 207.75 445.6221 208.96095 447.43273 208.96095"
                    stroke="#b4b4b4"
                    stroke-linecap="round"
                    stroke-linejoin="round"
                    stroke-width="1"
                />
      </g>
      <g id="Line_291">
        <path
                    d="M 478.55815 145 C 476.1221 145 446.18605 146.25 446.18605 177 C 446.18605 207.75 475.6221 208.96095 477.4327 208.96095"
                    stroke="#b4b4b4"
                    stroke-linecap="round"
                    stroke-linejoin="round"
                    stroke-width="1"
                />
      </g>
      <g id="Graphic_292">
        <text transform="translate(241.15766 167.48048)" fill="black">
          <tspan
                        font-family="Noto Sans Display"
                        font-size="16"
                        font-weight="400"
                        fill="black"
                        x="5115908e-19"
                        y="17"
                    >VermietungsVertragGespeichert</tspan>
        </text>
      </g>
      <g id="Line_293">
        <line
                    x1="329.61878"
                    y1="208.96095"
                    x2="244"
                    y2="271.7892"
                    stroke="#b4b4b4"
                    stroke-linecap="round"
                    stroke-linejoin="round"
                    stroke-width="1"
                />
      </g>
    </g>
  </g>
</svg>
