<?xml version="1.0" encoding="UTF-8" standalone="no" ?>
<!DOCTYPE svg PUBLIC "-//W3C//DTD SVG 1.1//EN"
    "http://www.w3.org/Graphics/SVG/1.1/DTD/svg11.dtd">
<svg
    xmlns:dc="http://purl.org/dc/elements/1.1/"
    xmlns:xl="http://www.w3.org/1999/xlink"
    xmlns="http://www.w3.org/2000/svg"
    version="1.1"
    viewBox="359 209 133 82"
    width="399"
    height="246"
>
<style>
  @import url('/LectureDoc2/ext/fonts/ld-fonts.css');
</style>
  <g
        id="geheimgang"
        fill="none"
        fill-opacity="1"
        stroke="none"
        stroke-dasharray="none"
        stroke-opacity="1"
        font-family="Noto Sans Display"      
        font-weight="300"
    >
    <g id="geheimgang_Layer">
      <g id="Graphic_18">
        <path
                    d="M 411.26363 260 C 412.9863 266.69914 416.47036 273.03887 421.71576 278.28424 C 437.3367 293.90528 462.6633 293.90528 478.28424 278.28424 C 493.9053 262.66328 493.9053 237.33672 478.28424 221.71576 C 462.6633 206.09472 437.3367 206.09472 421.71576 221.71576 C 416.47036 226.96113 412.9863 233.30086 411.26363 240 L 380 240 L 370 240 L 360 240 L 360 290 L 380 290 L 380 260 Z M 464.1421 235.85788 C 471.95264 243.66836 471.95264 256.33164 464.1421 264.14212 C 456.33164 271.95264 443.66836 271.95264 435.8579 264.14212 C 428.04736 256.33164 428.04736 243.66836 435.8579 235.85788 C 443.66836 228.04736 456.33164 228.04736 464.1421 235.85788"
                    fill="white"
                />
        <path
                    d="M 411.26363 260 C 412.9863 266.69914 416.47036 273.03887 421.71576 278.28424 C 437.3367 293.90528 462.6633 293.90528 478.28424 278.28424 C 493.9053 262.66328 493.9053 237.33672 478.28424 221.71576 C 462.6633 206.09472 437.3367 206.09472 421.71576 221.71576 C 416.47036 226.96113 412.9863 233.30086 411.26363 240 L 380 240 L 370 240 L 360 240 L 360 290 L 380 290 L 380 260 Z M 464.1421 235.85788 C 471.95264 243.66836 471.95264 256.33164 464.1421 264.14212 C 456.33164 271.95264 443.66836 271.95264 435.8579 264.14212 C 428.04736 256.33164 428.04736 243.66836 435.8579 235.85788 C 443.66836 228.04736 456.33164 228.04736 464.1421 235.85788"
                    stroke="black"
                    stroke-linecap="round"
                    stroke-linejoin="round"
                    stroke-width="1"
                />
      </g>
      <g id="Line_9">
        <line
                    x1="470"
                    y1="250"
                    x2="490"
                    y2="250"
                    stroke="black"
                    stroke-linecap="butt"
                    stroke-linejoin="butt"
                    stroke-width="4"
                />
      </g>
      <g id="Graphic_4">
        <text transform="translate(468 230)" fill="black">
          <tspan
                        font-size="14"
                        fill="black"
                        x="0"
                        y="15"
                    >Tür</tspan>
        </text>
      </g>
      <g id="Graphic_5">
        <text transform="translate(365.68786 270)" fill="black">
          <tspan
                        font-size="14"
                        fill="black"
                        x="0"
                        y="15"
                    >A</tspan>
        </text>
      </g>
      <g id="Graphic_6">
        <text transform="translate(410 240.776)" fill="black">
          <tspan
                        font-size="14"
                        fill="black"
                        x=".709"
                        y="15"
                    >B</tspan>
        </text>
      </g>
    </g>
  </g>
</svg>
