<?xml version="1.0" encoding="UTF-8" standalone="no"?>
<!DOCTYPE svg PUBLIC "-//W3C//DTD SVG 1.1//EN" "http://www.w3.org/Graphics/SVG/1.1/DTD/svg11.dtd">
<svg xmlns:xl="http://www.w3.org/1999/xlink" xmlns:dc="http://purl.org/dc/elements/1.1/" xmlns="http://www.w3.org/2000/svg" version="1.1" viewBox="239 304.5 605 667.5" width="605" height="667.5">
  <defs>
    <marker orient="auto" overflow="visible" markerUnits="strokeWidth" id="FilledArrow_Marker" stroke-linejoin="miter" stroke-miterlimit="10" viewBox="-1 -3 7 6" markerWidth="7" markerHeight="6" color="black">
      <g>
        <path d="M 4.8 0 L 0 -1.8 L 0 1.8 Z" fill="currentColor" stroke="currentColor" stroke-width="1"/>
      </g>
    </marker>
  </defs>
  <g id="Round_Function" fill-opacity="1" stroke-opacity="1" fill="none" stroke-dasharray="none" stroke="none">
    <title>Round Function</title>
    <rect fill="white" x="239" y="304.5" width="605" height="667.5"/>
    <g id="Round_Function_Layer_1">
      <title>Layer 1</title>
      <g id="Graphic_2">
        <path d="M 258 304.5 L 464 304.5 C 470.6274 304.5 476 309.8726 476 316.5 L 476 349.5 C 476 356.1274 470.6274 361.5 464 361.5 L 258 361.5 C 251.37258 361.5 246 356.1274 246 349.5 L 246 316.5 C 246 309.8726 251.37258 304.5 258 304.5 Z" fill="#c0c0ff"/>
        <text transform="translate(251 320)" fill="black">
          <tspan font-family="Helvetica" font-size="22" fill="black" x="62.3208" y="21">R (32bits)</tspan>
        </text>
      </g>
      <g id="Graphic_3">
        <path d="M 626 486.5 L 832 486.5 C 838.6274 486.5 844 491.8726 844 498.5 L 844 531.5 C 844 538.1274 838.6274 543.5 832 543.5 L 626 543.5 C 619.3726 543.5 614 538.1274 614 531.5 L 614 498.5 C 614 491.8726 619.3726 486.5 626 486.5 Z" fill="#c0c0ff"/>
        <text transform="translate(619 502)" fill="black">
          <tspan font-family="Helvetica" font-size="22" fill="black" x="5.446289" y="21">Round Key K(48 bits)</tspan>
        </text>
      </g>
      <g id="Graphic_4">
        <ellipse cx="361" cy="424" rx="30.2500483365324" ry="30.61612035005" fill="#ffc0c0"/>
        <text transform="translate(341.8 411)" fill="black">
          <tspan font-family="Helvetica" font-size="22" fill="black" x="11.863087" y="21">E</tspan>
        </text>
      </g>
      <g id="Graphic_5">
        <path d="M 258 486.5 L 464 486.5 C 470.6274 486.5 476 491.8726 476 498.5 L 476 531.5 C 476 538.1274 470.6274 543.5 464 543.5 L 258 543.5 C 251.37258 543.5 246 538.1274 246 531.5 L 246 498.5 C 246 491.8726 251.37258 486.5 258 486.5 Z" fill="#c0c0ff"/>
        <text transform="translate(251 502)" fill="black">
          <tspan font-family="Helvetica" font-size="22" fill="black" x="44.60156" y="21">E(R) (48 bits)</tspan>
        </text>
      </g>
      <g id="Graphic_6">
        <ellipse cx="539.25" cy="601.6161" rx="30.2500483365323" ry="30.6161203500501" fill="#ffc0c0"/>
      </g>
      <g id="Graphic_7">
        <text transform="translate(520.43555 583.5)" fill="black">
          <tspan font-family="Apple Symbols" font-size="52" fill="black" x="0" y="35">⊕</tspan>
        </text>
      </g>
      <g id="Graphic_8">
        <path d="M 251 700.75 L 457 700.75 C 463.6274 700.75 469 706.1226 469 712.75 L 469 745.75 C 469 752.3774 463.6274 757.75 457 757.75 L 251 757.75 C 244.37258 757.75 239 752.3774 239 745.75 L 239 712.75 C 239 706.1226 244.37258 700.75 251 700.75 Z" fill="#c0c0ff"/>
        <text transform="translate(244 713.75)" fill="black">
          <tspan font-family="Helvetica" font-size="22" fill="black" x="98.49194" y="21">S</tspan>
          <tspan font-family="Helvetica" font-size="15" fill="black" y="28">1</tspan>
        </text>
      </g>
      <g id="Graphic_9">
        <path d="M 626 699.75 L 832 699.75 C 838.6274 699.75 844 705.1226 844 711.75 L 844 744.75 C 844 751.3774 838.6274 756.75 832 756.75 L 626 756.75 C 619.3726 756.75 614 751.3774 614 744.75 L 614 711.75 C 614 705.1226 619.3726 699.75 626 699.75 Z" fill="#c0c0ff"/>
        <text transform="translate(619 712.75)" fill="black">
          <tspan font-family="Helvetica" font-size="22" fill="black" x="98.49194" y="21">S</tspan>
          <tspan font-family="Helvetica" font-size="15" fill="black" y="28">8</tspan>
        </text>
      </g>
      <g id="Graphic_10">
        <ellipse cx="539.25" cy="859.6161" rx="30.2500483365323" ry="30.6161203500501" fill="#ffc0c0"/>
        <text transform="translate(520.05 846.6161)" fill="black">
          <tspan font-family="Helvetica" font-size="22" fill="black" x="11.863087" y="21">P</tspan>
        </text>
      </g>
      <g id="Graphic_11">
        <path d="M 436.25 915 L 642.25 915 C 648.8774 915 654.25 920.3726 654.25 927 L 654.25 960 C 654.25 966.6274 648.8774 972 642.25 972 L 436.25 972 C 429.6226 972 424.25 966.6274 424.25 960 L 424.25 927 C 424.25 920.3726 429.6226 915 436.25 915 Z" fill="#c0c0ff"/>
        <text transform="translate(429.25 930.5)" fill="black">
          <tspan font-family="Helvetica" font-size="22" fill="black" x="80.64697" y="21">32bits</tspan>
        </text>
      </g>
      <g id="Line_14">
        <line x1="324.2285" y1="757.75" x2="324.2285" y2="786.6" marker-end="url(#FilledArrow_Marker)" stroke="black" stroke-linecap="round" stroke-linejoin="round" stroke-width="2"/>
      </g>
      <g id="Line_15">
        <line x1="377.45703" y1="757.75" x2="377.45703" y2="786.6" marker-end="url(#FilledArrow_Marker)" stroke="black" stroke-linecap="round" stroke-linejoin="round" stroke-width="2"/>
      </g>
      <g id="Line_16">
        <line x1="430.68555" y1="757.75" x2="430.68555" y2="786.6" marker-end="url(#FilledArrow_Marker)" stroke="black" stroke-linecap="round" stroke-linejoin="round" stroke-width="2"/>
      </g>
      <g id="Line_20">
        <line x1="251.75" y1="659" x2="251.75" y2="687.85" marker-end="url(#FilledArrow_Marker)" stroke="black" stroke-linecap="round" stroke-linejoin="round" stroke-width="2"/>
      </g>
      <g id="Line_19">
        <line x1="333.55" y1="659" x2="333.55" y2="687.85" marker-end="url(#FilledArrow_Marker)" stroke="black" stroke-linecap="round" stroke-linejoin="round" stroke-width="2"/>
      </g>
      <g id="Line_18">
        <line x1="374.45" y1="659" x2="374.45" y2="687.85" marker-end="url(#FilledArrow_Marker)" stroke="black" stroke-linecap="round" stroke-linejoin="round" stroke-width="2"/>
      </g>
      <g id="Line_17">
        <line x1="456.25" y1="659" x2="456.25" y2="687.85" marker-end="url(#FilledArrow_Marker)" stroke="black" stroke-linecap="round" stroke-linejoin="round" stroke-width="2"/>
      </g>
      <g id="Line_21">
        <line x1="292.65" y1="659" x2="292.65" y2="687.85" marker-end="url(#FilledArrow_Marker)" stroke="black" stroke-linecap="round" stroke-linejoin="round" stroke-width="2"/>
      </g>
      <g id="Line_22">
        <line x1="415.35" y1="659" x2="415.35" y2="687.85" marker-end="url(#FilledArrow_Marker)" stroke="black" stroke-linecap="round" stroke-linejoin="round" stroke-width="2"/>
      </g>
      <g id="Line_23">
        <line x1="271" y1="757.75" x2="271" y2="786.6" marker-end="url(#FilledArrow_Marker)" stroke="black" stroke-linecap="round" stroke-linejoin="round" stroke-width="2"/>
      </g>
      <g id="Line_27">
        <line x1="702.38574" y1="757.75" x2="702.38574" y2="786.6" marker-end="url(#FilledArrow_Marker)" stroke="black" stroke-linecap="round" stroke-linejoin="round" stroke-width="2"/>
      </g>
      <g id="Line_26">
        <line x1="755.6143" y1="757.75" x2="755.6143" y2="786.6" marker-end="url(#FilledArrow_Marker)" stroke="black" stroke-linecap="round" stroke-linejoin="round" stroke-width="2"/>
      </g>
      <g id="Line_25">
        <line x1="808.8428" y1="757.75" x2="808.8428" y2="786.6" marker-end="url(#FilledArrow_Marker)" stroke="black" stroke-linecap="round" stroke-linejoin="round" stroke-width="2"/>
      </g>
      <g id="Line_24">
        <line x1="649.1572" y1="757.75" x2="649.1572" y2="786.6" marker-end="url(#FilledArrow_Marker)" stroke="black" stroke-linecap="round" stroke-linejoin="round" stroke-width="2"/>
      </g>
      <g id="Line_33">
        <line x1="626.75" y1="658" x2="626.75" y2="686.85" marker-end="url(#FilledArrow_Marker)" stroke="black" stroke-linecap="round" stroke-linejoin="round" stroke-width="2"/>
      </g>
      <g id="Line_32">
        <line x1="708.55" y1="658" x2="708.55" y2="686.85" marker-end="url(#FilledArrow_Marker)" stroke="black" stroke-linecap="round" stroke-linejoin="round" stroke-width="2"/>
      </g>
      <g id="Line_31">
        <line x1="749.45" y1="658" x2="749.45" y2="686.85" marker-end="url(#FilledArrow_Marker)" stroke="black" stroke-linecap="round" stroke-linejoin="round" stroke-width="2"/>
      </g>
      <g id="Line_30">
        <line x1="831.25" y1="658" x2="831.25" y2="686.85" marker-end="url(#FilledArrow_Marker)" stroke="black" stroke-linecap="round" stroke-linejoin="round" stroke-width="2"/>
      </g>
      <g id="Line_29">
        <line x1="667.65" y1="658" x2="667.65" y2="686.85" marker-end="url(#FilledArrow_Marker)" stroke="black" stroke-linecap="round" stroke-linejoin="round" stroke-width="2"/>
      </g>
      <g id="Line_28">
        <line x1="790.35" y1="658" x2="790.35" y2="686.85" marker-end="url(#FilledArrow_Marker)" stroke="black" stroke-linecap="round" stroke-linejoin="round" stroke-width="2"/>
      </g>
      <g id="Line_34">
        <line x1="361" y1="361.5" x2="361" y2="380.4839" marker-end="url(#FilledArrow_Marker)" stroke="black" stroke-linecap="round" stroke-linejoin="round" stroke-width="2"/>
      </g>
      <g id="Line_35">
        <line x1="361" y1="454.6161" x2="361" y2="473.6" marker-end="url(#FilledArrow_Marker)" stroke="black" stroke-linecap="round" stroke-linejoin="round" stroke-width="2"/>
      </g>
      <g id="Line_36">
        <path d="M 361 543.5 L 361 601.6103 L 496.1 601.6147" marker-end="url(#FilledArrow_Marker)" stroke="black" stroke-linecap="round" stroke-linejoin="round" stroke-width="2"/>
      </g>
      <g id="Line_37">
        <path d="M 729 543.5 L 729 600.5 L 582.3993 601.3623" marker-end="url(#FilledArrow_Marker)" stroke="black" stroke-linecap="round" stroke-linejoin="round" stroke-width="2"/>
      </g>
      <g id="Line_38">
        <line x1="539.25" y1="890.2322" x2="539.25" y2="902.1" marker-end="url(#FilledArrow_Marker)" stroke="black" stroke-linecap="round" stroke-linejoin="round" stroke-width="2"/>
      </g>
      <g id="Line_39">
        <line x1="539.39544" y1="632.2318" x2="539.46607" y2="647.10015" marker-end="url(#FilledArrow_Marker)" stroke="black" stroke-linecap="round" stroke-linejoin="round" stroke-width="2"/>
      </g>
      <g id="Line_42">
        <line x1="831.5" y1="656" x2="251.75" y2="659" stroke="black" stroke-linecap="round" stroke-linejoin="round" stroke-width="2"/>
      </g>
      <g id="Line_44">
        <line x1="808.8428" y1="799.5" x2="271" y2="799.5" stroke="black" stroke-linecap="round" stroke-linejoin="round" stroke-width="2"/>
      </g>
      <g id="Line_45">
        <line x1="539" y1="799.5" x2="539.06903" y2="816.1004" marker-end="url(#FilledArrow_Marker)" stroke="black" stroke-linecap="round" stroke-linejoin="round" stroke-width="2"/>
      </g>
      <g id="Line_46">
        <line x1="481.4815" y1="729.6296" x2="602.4691" y2="729.6296" stroke="black" stroke-linecap="round" stroke-linejoin="round" stroke-dasharray="3.0,12.0" stroke-width="3"/>
      </g>
    </g>
  </g>
</svg>
