<?xml version="1.0" encoding="UTF-8" standalone="no"?>
<!DOCTYPE svg PUBLIC "-//W3C//DTD SVG 1.1//EN" "http://www.w3.org/Graphics/SVG/1.1/DTD/svg11.dtd">
<svg xmlns:xl="http://www.w3.org/1999/xlink" xmlns:dc="http://purl.org/dc/elements/1.1/" xmlns="http://www.w3.org/2000/svg" version="1.1" viewBox="148.5 106 817.2769 647" width="817.2769" height="647">
  <defs>
    <marker orient="auto" overflow="visible" markerUnits="strokeWidth" id="FilledArrow_Marker" stroke-linejoin="miter" stroke-miterlimit="10" viewBox="-1 -3 7 6" markerWidth="7" markerHeight="6" color="black">
      <g>
        <path d="M 4.8 0 L 0 -1.8 L 0 1.8 Z" fill="currentColor" stroke="currentColor" stroke-width="1"/>
      </g>
    </marker>
  </defs>
  <g id="General_Design" fill-opacity="1" stroke-opacity="1" fill="none" stroke-dasharray="none" stroke="none">
    <title>General Design</title>
    <rect fill="white" x="148.5" y="106" width="817.2769" height="647"/>
    <g id="General_Design_Layer_1">
      <title>Layer 1</title>
      <g id="Graphic_2">
        <path d="M 160.5 165 L 354 165 C 360.6274 165 366 170.37258 366 177 L 366 210 C 366 216.62742 360.6274 222 354 222 L 160.5 222 C 153.87258 222 148.5 216.62742 148.5 210 L 148.5 177 C 148.5 170.37258 153.87258 165 160.5 165 Z" fill="#c0c0ff"/>
        <text transform="translate(153.5 180.5)" fill="black">
          <tspan font-family="Helvetica" font-size="22" fill="black" x="15.707031" y="21">Initial Permutation</tspan>
        </text>
      </g>
      <g id="Graphic_11">
        <path d="M 160.5 263 L 354 263 C 360.6274 263 366 268.37258 366 275 L 366 308 C 366 314.6274 360.6274 320 354 320 L 160.5 320 C 153.87258 320 148.5 314.6274 148.5 308 L 148.5 275 C 148.5 268.37258 153.87258 263 160.5 263 Z" fill="#c0c0ff"/>
        <text transform="translate(153.5 278.5)" fill="black">
          <tspan font-family="Helvetica" font-size="22" fill="black" x="62.16162" y="21">Round 1</tspan>
        </text>
      </g>
      <g id="Graphic_12">
        <path d="M 160.5 441 L 354 441 C 360.6274 441 366 446.3726 366 453 L 366 486 C 366 492.6274 360.6274 498 354 498 L 160.5 498 C 153.87258 498 148.5 492.6274 148.5 486 L 148.5 453 C 148.5 446.3726 153.87258 441 160.5 441 Z" fill="#c0c0ff"/>
        <text transform="translate(153.5 456.5)" fill="black">
          <tspan font-family="Helvetica" font-size="22" fill="black" x="56.043945" y="21">Round 16</tspan>
        </text>
      </g>
      <g id="Graphic_13">
        <path d="M 160.5 539 L 354 539 C 360.6274 539 366 544.3726 366 551 L 366 584 C 366 590.6274 360.6274 596 354 596 L 160.5 596 C 153.87258 596 148.5 590.6274 148.5 584 L 148.5 551 C 148.5 544.3726 153.87258 539 160.5 539 Z" fill="#c0c0ff"/>
        <text transform="translate(153.5 554.5)" fill="black">
          <tspan font-family="Helvetica" font-size="22" fill="black" x="45.66162" y="21">32-bit Swap</tspan>
        </text>
      </g>
      <g id="Graphic_14">
        <path d="M 160.5 637 L 354 637 C 360.6274 637 366 642.3726 366 649 L 366 682 C 366 688.6274 360.6274 694 354 694 L 160.5 694 C 153.87258 694 148.5 688.6274 148.5 682 L 148.5 649 C 148.5 642.3726 153.87258 637 160.5 637 Z" fill="#c0c0ff"/>
        <text transform="translate(153.5 639.5)" fill="black">
          <tspan font-family="Helvetica" font-size="22" fill="black" x="45.06006" y="21">Invers Initial </tspan>
          <tspan font-family="Helvetica" font-size="22" fill="black" x="44.442383" y="47">Permutation</tspan>
        </text>
      </g>
      <g id="Graphic_15">
        <text transform="translate(184.4878 111)" fill="black">
          <tspan font-family="Helvetica" font-size="22" fill="black" x="0" y="21">64-bit Plaintext</tspan>
        </text>
      </g>
      <g id="Graphic_16">
        <text transform="translate(176.54395 722)" fill="black">
          <tspan font-family="Helvetica" font-size="22" fill="black" x="0" y="21">64-bit Ciphertext</tspan>
        </text>
      </g>
      <g id="Graphic_17">
        <path d="M 488 263 L 681.5 263 C 688.1274 263 693.5 268.37258 693.5 275 L 693.5 308 C 693.5 314.6274 688.1274 320 681.5 320 L 488 320 C 481.3726 320 476 314.6274 476 308 L 476 275 C 476 268.37258 481.3726 263 488 263 Z" fill="#c0c0ff"/>
        <text transform="translate(481 278.5)" fill="black">
          <tspan font-family="Helvetica" font-size="22" fill="black" x="9.589355" y="21">Permuted Choice 2</tspan>
        </text>
      </g>
      <g id="Graphic_18">
        <path d="M 760.2769 263 L 953.7769 263 C 960.4043 263 965.7769 268.37258 965.7769 275 L 965.7769 308 C 965.7769 314.6274 960.4043 320 953.7769 320 L 760.2769 320 C 753.6494 320 748.2769 314.6274 748.2769 308 L 748.2769 275 C 748.2769 268.37258 753.6494 263 760.2769 263 Z" fill="#c0c0ff"/>
        <text transform="translate(753.2769 278.5)" fill="black">
          <tspan font-family="Helvetica" font-size="22" fill="black" x="23.666992" y="21">Left circular shift</tspan>
        </text>
      </g>
      <g id="Graphic_19">
        <path d="M 760.2769 165 L 953.7769 165 C 960.4043 165 965.7769 170.37258 965.7769 177 L 965.7769 210 C 965.7769 216.62742 960.4043 222 953.7769 222 L 760.2769 222 C 753.6494 222 748.2769 216.62742 748.2769 210 L 748.2769 177 C 748.2769 170.37258 753.6494 165 760.2769 165 Z" fill="#c0c0ff"/>
        <text transform="translate(753.2769 180.5)" fill="black">
          <tspan font-family="Helvetica" font-size="22" fill="black" x="9.589355" y="21">Permuted Choice 1</tspan>
        </text>
      </g>
      <g id="Graphic_20">
        <text transform="translate(807.5 111)" fill="black">
          <tspan font-family="Helvetica" font-size="22" fill="black" x="0" y="21">64-bit Key</tspan>
        </text>
      </g>
      <g id="Graphic_22">
        <path d="M 488 441 L 681.5 441 C 688.1274 441 693.5 446.3726 693.5 453 L 693.5 486 C 693.5 492.6274 688.1274 498 681.5 498 L 488 498 C 481.3726 498 476 492.6274 476 486 L 476 453 C 476 446.3726 481.3726 441 488 441 Z" fill="#c0c0ff"/>
        <text transform="translate(481 456.5)" fill="black">
          <tspan font-family="Helvetica" font-size="22" fill="black" x="9.589355" y="21">Permuted Choice 2</tspan>
        </text>
      </g>
      <g id="Graphic_21">
        <path d="M 760.2769 441 L 953.7769 441 C 960.4043 441 965.7769 446.3726 965.7769 453 L 965.7769 486 C 965.7769 492.6274 960.4043 498 953.7769 498 L 760.2769 498 C 753.6494 498 748.2769 492.6274 748.2769 486 L 748.2769 453 C 748.2769 446.3726 753.6494 441 760.2769 441 Z" fill="#c0c0ff"/>
        <text transform="translate(753.2769 456.5)" fill="black">
          <tspan font-family="Helvetica" font-size="22" fill="black" x="23.666992" y="21">Left circular shift</tspan>
        </text>
      </g>
      <g id="Line_23">
        <line x1="257.25" y1="222" x2="257.25" y2="250.1" marker-end="url(#FilledArrow_Marker)" stroke="black" stroke-linecap="round" stroke-linejoin="round" stroke-width="2"/>
      </g>
      <g id="Line_24">
        <line x1="257.25" y1="498" x2="257.25" y2="526.1" marker-end="url(#FilledArrow_Marker)" stroke="black" stroke-linecap="round" stroke-linejoin="round" stroke-width="2"/>
      </g>
      <g id="Line_25">
        <line x1="257.25" y1="596" x2="257.25" y2="624.1" marker-end="url(#FilledArrow_Marker)" stroke="black" stroke-linecap="round" stroke-linejoin="round" stroke-width="2"/>
      </g>
      <g id="Line_26">
        <line x1="476" y1="469.5" x2="378.9" y2="469.5" marker-end="url(#FilledArrow_Marker)" stroke="black" stroke-linecap="round" stroke-linejoin="round" stroke-width="2"/>
      </g>
      <g id="Line_27">
        <line x1="476" y1="291.5" x2="378.9" y2="291.5" marker-end="url(#FilledArrow_Marker)" stroke="black" stroke-linecap="round" stroke-linejoin="round" stroke-width="2"/>
      </g>
      <g id="Line_28">
        <line x1="257.25" y1="320" x2="257.25" y2="428.1" marker-end="url(#FilledArrow_Marker)" stroke="black" stroke-linecap="round" stroke-linejoin="round" stroke-dasharray="2.0,8.0" stroke-width="2"/>
      </g>
      <g id="Line_29">
        <line x1="857.0269" y1="320" x2="857.0269" y2="428.1" marker-end="url(#FilledArrow_Marker)" stroke="black" stroke-linecap="round" stroke-linejoin="round" stroke-dasharray="2.0,8.0" stroke-width="2"/>
      </g>
      <g id="Line_30">
        <line x1="748.2769" y1="469.5" x2="706.4" y2="469.5" marker-end="url(#FilledArrow_Marker)" stroke="black" stroke-linecap="round" stroke-linejoin="round" stroke-width="2"/>
      </g>
      <g id="Line_31">
        <line x1="748.2769" y1="291.5" x2="706.4" y2="291.5" marker-end="url(#FilledArrow_Marker)" stroke="black" stroke-linecap="round" stroke-linejoin="round" stroke-width="2"/>
      </g>
      <g id="Line_32">
        <line x1="857.0269" y1="222" x2="857.0269" y2="250.1" marker-end="url(#FilledArrow_Marker)" stroke="black" stroke-linecap="round" stroke-linejoin="round" stroke-width="2"/>
      </g>
      <g id="Line_33">
        <line x1="257.25" y1="142" x2="257.25" y2="152.1" marker-end="url(#FilledArrow_Marker)" stroke="black" stroke-linecap="round" stroke-linejoin="round" stroke-width="2"/>
      </g>
      <g id="Line_34">
        <line x1="257.25" y1="694" x2="257.25" y2="704.1" marker-end="url(#FilledArrow_Marker)" stroke="black" stroke-linecap="round" stroke-linejoin="round" stroke-width="2"/>
      </g>
      <g id="Line_35">
        <line x1="857.0269" y1="142" x2="857.0269" y2="152.1" marker-end="url(#FilledArrow_Marker)" stroke="black" stroke-linecap="round" stroke-linejoin="round" stroke-width="2"/>
      </g>
      <g id="Graphic_36">
        <text transform="translate(267.5 227)" fill="black">
          <tspan font-family="Helvetica" font-size="18" fill="black" x="0" y="18">64</tspan>
        </text>
      </g>
      <g id="Graphic_37">
        <text transform="translate(267.5 325)" fill="black">
          <tspan font-family="Helvetica" font-size="18" fill="black" x="0" y="18">64</tspan>
        </text>
      </g>
      <g id="Graphic_38">
        <text transform="translate(267.5 601)" fill="black">
          <tspan font-family="Helvetica" font-size="18" fill="black" x="0" y="18">64</tspan>
        </text>
      </g>
      <g id="Graphic_39">
        <text transform="translate(267.5 503)" fill="black">
          <tspan font-family="Helvetica" font-size="18" fill="black" x="0" y="18">64</tspan>
        </text>
      </g>
      <g id="Graphic_40">
        <text transform="translate(450.9785 268)" fill="black">
          <tspan font-family="Helvetica" font-size="18" fill="black" x="0" y="18">48</tspan>
        </text>
      </g>
      <g id="Graphic_41">
        <text transform="translate(450.9785 446)" fill="black">
          <tspan font-family="Helvetica" font-size="18" fill="black" x="0" y="18">48</tspan>
        </text>
      </g>
      <g id="Graphic_42">
        <text transform="translate(723.2554 268)" fill="black">
          <tspan font-family="Helvetica" font-size="18" fill="black" x="0" y="18">56</tspan>
        </text>
      </g>
      <g id="Graphic_43">
        <text transform="translate(723.2554 446)" fill="black">
          <tspan font-family="Helvetica" font-size="18" fill="black" x="0" y="18">56</tspan>
        </text>
      </g>
      <g id="Graphic_44">
        <text transform="translate(862.5 227)" fill="black">
          <tspan font-family="Helvetica" font-size="18" fill="black" x="0" y="18">56</tspan>
        </text>
      </g>
      <g id="Graphic_45">
        <text transform="translate(862.5 138)" fill="black">
          <tspan font-family="Helvetica" font-size="18" fill="black" x="0" y="18">56</tspan>
        </text>
      </g>
      <g id="Graphic_46">
        <text transform="translate(385 259)" fill="black">
          <tspan font-family="Helvetica" font-size="22" fill="black" x="0" y="21">K</tspan>
          <tspan font-family="Helvetica" font-size="15" fill="black" y="28">1</tspan>
        </text>
      </g>
      <g id="Graphic_47">
        <text transform="translate(385 437)" fill="black">
          <tspan font-family="Helvetica" font-size="22" fill="black" x="0" y="21">K</tspan>
          <tspan font-family="Helvetica" font-size="15" fill="black" y="28">16</tspan>
        </text>
      </g>
    </g>
  </g>
</svg>
