<?xml version="1.0" encoding="UTF-8" standalone="no"?>
<!DOCTYPE svg PUBLIC "-//W3C//DTD SVG 1.1//EN" "http://www.w3.org/Graphics/SVG/1.1/DTD/svg11.dtd">
<svg xmlns:xl="http://www.w3.org/1999/xlink" xmlns:dc="http://purl.org/dc/elements/1.1/" xmlns="http://www.w3.org/2000/svg" version="1.1" viewBox="2.5 0 586 617.896" width="586" height="617.896">
  <defs>
    <marker orient="auto" overflow="visible" markerUnits="strokeWidth" id="FilledArrow_Marker" stroke-linejoin="miter" stroke-miterlimit="10" viewBox="-1 -3 7 6" markerWidth="7" markerHeight="6" color="black">
      <g>
        <path d="M 4.8 0 L 0 -1.8 L 0 1.8 Z" fill="currentColor" stroke="currentColor" stroke-width="1"/>
      </g>
    </marker>
  </defs>
  <metadata> Produced by OmniGraffle 7.22\n2023-10-17 13:25:12 +0000</metadata>
  <g id="Canvas_1" fill-opacity="1" stroke-opacity="1" fill="none" stroke-dasharray="none" stroke="none">
    <title>Canvas 1</title>
    <g id="Canvas_1_Layer_1">
      <title>Layer 1</title>
      <g id="Graphic_254">
        <rect x="3" y="28.447998" width="126" height="27" fill="#c0ffc0"/>
        <rect x="3" y="28.447998" width="126" height="27" stroke="black" stroke-linecap="round" stroke-linejoin="round" stroke-width="1"/>
        <text transform="translate(8 30.447998)" fill="black">
          <tspan font-family="Helvetica" font-size="16" fill="black" x="50.491943" y="15">L</tspan>
          <tspan font-family="Helvetica" font-size="11" fill="black" y="20">0</tspan>
        </text>
      </g>
      <g id="Graphic_257">
        <rect x="129" y="28.447998" width="126" height="27" fill="#c0ffc0"/>
        <rect x="129" y="28.447998" width="126" height="27" stroke="black" stroke-linecap="round" stroke-linejoin="round" stroke-width="1"/>
        <text transform="translate(134 30.447998)" fill="black">
          <tspan font-family="Helvetica" font-size="16" fill="black" x="49.16382" y="15">R</tspan>
          <tspan font-family="Helvetica" font-size="11" fill="black" y="20">0</tspan>
        </text>
      </g>
      <g id="Graphic_259">
        <rect x="3" y="173.948" width="126" height="27" fill="white"/>
        <rect x="3" y="173.948" width="126" height="27" stroke="black" stroke-linecap="round" stroke-linejoin="round" stroke-width="1"/>
        <text transform="translate(8 175.948)" fill="black">
          <tspan font-family="Helvetica" font-size="11" fill="black" x="32.208252" y="20"> </tspan>
          <tspan font-family="Helvetica" font-size="16" fill="black" y="15">L</tspan>
          <tspan font-family="Helvetica" font-size="11" fill="black" y="20">1  </tspan>
          <tspan font-family="Apple Symbols" font-size="16" fill="#a5a5a5" y="15">≙</tspan>
          <tspan font-family="Helvetica" font-size="16" fill="#a5a5a5" y="15">R</tspan>
          <tspan font-family="Helvetica" font-size="11" fill="#a5a5a5" y="20">0</tspan>
        </text>
      </g>
      <g id="Graphic_258">
        <rect x="129" y="173.948" width="126" height="27" fill="white"/>
        <rect x="129" y="173.948" width="126" height="27" stroke="black" stroke-linecap="round" stroke-linejoin="round" stroke-width="1"/>
        <text transform="translate(134 175.948)" fill="black">
          <tspan font-family="Helvetica" font-size="16" fill="black" x="49.16382" y="15">R</tspan>
          <tspan font-family="Helvetica" font-size="11" fill="black" y="20">1</tspan>
        </text>
      </g>
      <g id="Group_268">
        <title>g3270</title>
        <g id="Graphic_271">
          <title>path3272</title>
          <path d="M 205.08377 143.08234 C 205.08377 149.35942 199.46858 154.448 192.54188 154.448 C 185.6152 154.448 180 149.35942 180 143.08234 C 180 136.80526 185.6152 131.71668 192.54188 131.71668 C 199.46858 131.71668 205.08377 136.80526 205.08377 143.08234 Z" fill="white"/>
          <path d="M 205.08377 143.08234 C 205.08377 149.35942 199.46858 154.448 192.54188 154.448 C 185.6152 154.448 180 149.35942 180 143.08234 C 180 136.80526 185.6152 131.71668 192.54188 131.71668 C 199.46858 131.71668 205.08377 136.80526 205.08377 143.08234 Z" stroke="black" stroke-linecap="butt" stroke-linejoin="round" stroke-width="1.6306387"/>
        </g>
        <g id="Graphic_270">
          <title>path3274</title>
          <line x1="180.02828" y1="142.68603" x2="205.01425" y2="142.68603" fill="#0a0"/>
          <line x1="180.02828" y1="142.68603" x2="205.01425" y2="142.68603" stroke="black" stroke-linecap="round" stroke-linejoin="round" stroke-width="1.7237265"/>
        </g>
        <g id="Graphic_269">
          <title>path3276</title>
          <line x1="192.39377" y1="131.71125" x2="192.39377" y2="154.35394" fill="#0a0"/>
          <line x1="192.39377" y1="131.71125" x2="192.39377" y2="154.35394" stroke="black" stroke-linecap="round" stroke-linejoin="round" stroke-width="1.7237265"/>
        </g>
      </g>
      <g id="Graphic_284">
        <rect x="177" y="82.448" width="30" height="27" fill="white"/>
        <rect x="177" y="82.448" width="30" height="27" stroke="black" stroke-linecap="round" stroke-linejoin="round" stroke-width="1"/>
        <text transform="translate(182 86.724)" fill="black">
          <tspan font-family="Helvetica Neue" font-size="16" fill="black" x="5.408" y="15">F</tspan>
        </text>
      </g>
      <g id="Graphic_285">
        <text transform="translate(233.21045 84.448)" fill="black">
          <tspan font-family="Helvetica" font-size="16" fill="black" x="0" y="15">K</tspan>
          <tspan font-family="Helvetica" font-size="11" fill="black" y="20">1</tspan>
        </text>
      </g>
      <g id="Line_294">
        <line x1="82.89155" y1="55.448" x2="172.4184" y2="126.99932" marker-end="url(#FilledArrow_Marker)" stroke="black" stroke-linecap="round" stroke-linejoin="bevel" stroke-width="2"/>
      </g>
      <g id="Line_295">
        <line x1="192.39311" y1="155.26258" x2="192.32244" y2="161.04896" marker-end="url(#FilledArrow_Marker)" stroke="black" stroke-linecap="round" stroke-linejoin="bevel" stroke-width="2"/>
      </g>
      <g id="Line_296">
        <line x1="192" y1="55.448" x2="192" y2="69.548" marker-end="url(#FilledArrow_Marker)" stroke="black" stroke-linecap="round" stroke-linejoin="bevel" stroke-width="2"/>
      </g>
      <g id="Line_297">
        <line x1="192.1552" y1="109.448" x2="192.25356" y2="118.00287" marker-end="url(#FilledArrow_Marker)" stroke="black" stroke-linecap="round" stroke-linejoin="bevel" stroke-width="2"/>
      </g>
      <g id="Line_298">
        <path d="M 180.30928 55.448 L 144.71859 96.54677 C 139.80494 92.29165 131.2947 102.11895 136.20835 106.37407 L 86.1355 164.1963" marker-end="url(#FilledArrow_Marker)" stroke="black" stroke-linecap="round" stroke-linejoin="bevel" stroke-width="2"/>
      </g>
      <g id="Line_299">
        <line x1="228.21045" y1="95.948" x2="219.9" y2="95.948" marker-end="url(#FilledArrow_Marker)" stroke="black" stroke-linecap="round" stroke-linejoin="bevel" stroke-width="2"/>
      </g>
      <g id="Graphic_313">
        <rect x="3" y="325.21125" width="126" height="27" fill="white"/>
        <rect x="3" y="325.21125" width="126" height="27" stroke="black" stroke-linecap="round" stroke-linejoin="round" stroke-width="1"/>
        <text transform="translate(8 327.21125)" fill="black">
          <tspan font-family="Helvetica" font-size="11" fill="black" x="32.208252" y="20"> </tspan>
          <tspan font-family="Helvetica" font-size="16" fill="black" y="15">L</tspan>
          <tspan font-family="Helvetica" font-size="11" fill="black" y="20">2  </tspan>
          <tspan font-family="Apple Symbols" font-size="16" fill="#a5a5a5" y="15">≙</tspan>
          <tspan font-family="Helvetica" font-size="16" fill="#a5a5a5" y="15">R</tspan>
          <tspan font-family="Helvetica" font-size="11" fill="#a5a5a5" y="20">1</tspan>
        </text>
      </g>
      <g id="Graphic_312">
        <rect x="129" y="325.21125" width="126" height="27" fill="white"/>
        <rect x="129" y="325.21125" width="126" height="27" stroke="black" stroke-linecap="round" stroke-linejoin="round" stroke-width="1"/>
        <text transform="translate(134 327.21125)" fill="black">
          <tspan font-family="Helvetica" font-size="16" fill="black" x="49.16382" y="15">R</tspan>
          <tspan font-family="Helvetica" font-size="11" fill="black" y="20">2</tspan>
        </text>
      </g>
      <g id="Group_308">
        <title>g3270</title>
        <g id="Graphic_311">
          <title>path3272</title>
          <path d="M 205.08377 294.3456 C 205.08377 300.62267 199.46858 305.71125 192.54188 305.71125 C 185.6152 305.71125 180 300.62267 180 294.3456 C 180 288.0685 185.6152 282.97993 192.54188 282.97993 C 199.46858 282.97993 205.08377 288.0685 205.08377 294.3456 Z" fill="white"/>
          <path d="M 205.08377 294.3456 C 205.08377 300.62267 199.46858 305.71125 192.54188 305.71125 C 185.6152 305.71125 180 300.62267 180 294.3456 C 180 288.0685 185.6152 282.97993 192.54188 282.97993 C 199.46858 282.97993 205.08377 288.0685 205.08377 294.3456 Z" stroke="black" stroke-linecap="butt" stroke-linejoin="round" stroke-width="1.6306387"/>
        </g>
        <g id="Graphic_310">
          <title>path3274</title>
          <line x1="180.02828" y1="293.94928" x2="205.01425" y2="293.94928" fill="#0a0"/>
          <line x1="180.02828" y1="293.94928" x2="205.01425" y2="293.94928" stroke="black" stroke-linecap="round" stroke-linejoin="round" stroke-width="1.7237265"/>
        </g>
        <g id="Graphic_309">
          <title>path3276</title>
          <line x1="192.39377" y1="282.9745" x2="192.39377" y2="305.6172" fill="#0a0"/>
          <line x1="192.39377" y1="282.9745" x2="192.39377" y2="305.6172" stroke="black" stroke-linecap="round" stroke-linejoin="round" stroke-width="1.7237265"/>
        </g>
      </g>
      <g id="Graphic_307">
        <rect x="177" y="233.71125" width="30" height="27" fill="white"/>
        <rect x="177" y="233.71125" width="30" height="27" stroke="black" stroke-linecap="round" stroke-linejoin="round" stroke-width="1"/>
        <text transform="translate(182 237.98725)" fill="black">
          <tspan font-family="Helvetica Neue" font-size="16" fill="black" x="5.408" y="15">F</tspan>
        </text>
      </g>
      <g id="Graphic_306">
        <text transform="translate(233.21045 235.71125)" fill="black">
          <tspan font-family="Helvetica" font-size="16" fill="black" x="0" y="15">K</tspan>
          <tspan font-family="Helvetica" font-size="11" fill="black" y="20">2</tspan>
        </text>
      </g>
      <g id="Line_305">
        <line x1="81.98086" y1="200.948" x2="172.88756" y2="277.7424" marker-end="url(#FilledArrow_Marker)" stroke="black" stroke-linecap="round" stroke-linejoin="bevel" stroke-width="2"/>
      </g>
      <g id="Line_304">
        <line x1="192.39311" y1="306.52583" x2="192.32244" y2="312.3122" marker-end="url(#FilledArrow_Marker)" stroke="black" stroke-linecap="round" stroke-linejoin="bevel" stroke-width="2"/>
      </g>
      <g id="Line_303">
        <line x1="192" y1="200.948" x2="192" y2="220.81125" marker-end="url(#FilledArrow_Marker)" stroke="black" stroke-linecap="round" stroke-linejoin="bevel" stroke-width="2"/>
      </g>
      <g id="Line_302">
        <line x1="192.1552" y1="260.71125" x2="192.25356" y2="269.26612" marker-end="url(#FilledArrow_Marker)" stroke="black" stroke-linecap="round" stroke-linejoin="bevel" stroke-width="2"/>
      </g>
      <g id="Line_301">
        <path d="M 180.7547 200.948 L 144.11804 244.9304 C 139.12374 240.77022 130.8034 250.7588 135.7977 254.91898 L 85.50164 315.2995" marker-end="url(#FilledArrow_Marker)" stroke="black" stroke-linecap="round" stroke-linejoin="bevel" stroke-width="2"/>
      </g>
      <g id="Line_300">
        <line x1="228.21045" y1="247.21125" x2="219.9" y2="247.21125" marker-end="url(#FilledArrow_Marker)" stroke="black" stroke-linecap="round" stroke-linejoin="bevel" stroke-width="2"/>
      </g>
      <g id="Graphic_331">
        <rect x="3" y="412.448" width="126" height="27" fill="white"/>
        <rect x="3" y="412.448" width="126" height="27" stroke="black" stroke-linecap="round" stroke-linejoin="round" stroke-width="1"/>
        <text transform="translate(8 414.448)" fill="black">
          <tspan font-family="Helvetica" font-size="11" fill="black" x="44.073486" y="20"> </tspan>
          <tspan font-family="Helvetica" font-size="16" fill="black" y="15">L</tspan>
          <tspan font-family="Helvetica" font-size="11" fill="black" y="20">n-1</tspan>
        </text>
      </g>
      <g id="Graphic_330">
        <rect x="129" y="412.448" width="126" height="27" fill="white"/>
        <rect x="129" y="412.448" width="126" height="27" stroke="black" stroke-linecap="round" stroke-linejoin="round" stroke-width="1"/>
        <text transform="translate(134 414.448)" fill="black">
          <tspan font-family="Helvetica" font-size="16" fill="black" x="44.27344" y="15">R</tspan>
          <tspan font-family="Helvetica" font-size="11" fill="black" y="20">n-1</tspan>
        </text>
      </g>
      <g id="Graphic_327">
        <rect x="3" y="562.448" width="126" height="27" fill="#ffc0c0"/>
        <rect x="3" y="562.448" width="126" height="27" stroke="black" stroke-linecap="round" stroke-linejoin="round" stroke-width="1"/>
        <text transform="translate(8 564.448)" fill="black">
          <tspan font-family="Helvetica" font-size="11" fill="black" x="27.31787" y="20"> </tspan>
          <tspan font-family="Helvetica" font-size="16" fill="black" y="15">L</tspan>
          <tspan font-family="Helvetica" font-size="11" fill="black" y="20">n  </tspan>
          <tspan font-family="Apple Symbols" font-size="16" fill="#a5a5a5" y="15">≙</tspan>
          <tspan font-family="Helvetica" font-size="16" fill="#a5a5a5" y="15">R</tspan>
          <tspan font-family="Helvetica" font-size="11" fill="#a5a5a5" y="20">n-1</tspan>
        </text>
      </g>
      <g id="Graphic_326">
        <rect x="129" y="562.448" width="126" height="27" fill="#ffc0c0"/>
        <rect x="129" y="562.448" width="126" height="27" stroke="black" stroke-linecap="round" stroke-linejoin="round" stroke-width="1"/>
        <text transform="translate(134 564.448)" fill="black">
          <tspan font-family="Helvetica" font-size="16" fill="black" x="49.16382" y="15">R</tspan>
          <tspan font-family="Helvetica" font-size="11" fill="black" y="20">n</tspan>
        </text>
      </g>
      <g id="Group_322">
        <title>g3270</title>
        <g id="Graphic_325">
          <title>path3272</title>
          <path d="M 205.08377 531.58234 C 205.08377 537.8594 199.46858 542.948 192.54188 542.948 C 185.6152 542.948 180 537.8594 180 531.58234 C 180 525.30526 185.6152 520.2167 192.54188 520.2167 C 199.46858 520.2167 205.08377 525.30526 205.08377 531.58234 Z" fill="white"/>
          <path d="M 205.08377 531.58234 C 205.08377 537.8594 199.46858 542.948 192.54188 542.948 C 185.6152 542.948 180 537.8594 180 531.58234 C 180 525.30526 185.6152 520.2167 192.54188 520.2167 C 199.46858 520.2167 205.08377 525.30526 205.08377 531.58234 Z" stroke="black" stroke-linecap="butt" stroke-linejoin="round" stroke-width="1.6306387"/>
        </g>
        <g id="Graphic_324">
          <title>path3274</title>
          <line x1="180.02828" y1="531.186" x2="205.01425" y2="531.186" fill="#0a0"/>
          <line x1="180.02828" y1="531.186" x2="205.01425" y2="531.186" stroke="black" stroke-linecap="round" stroke-linejoin="round" stroke-width="1.7237265"/>
        </g>
        <g id="Graphic_323">
          <title>path3276</title>
          <line x1="192.39377" y1="520.21125" x2="192.39377" y2="542.85394" fill="#0a0"/>
          <line x1="192.39377" y1="520.21125" x2="192.39377" y2="542.85394" stroke="black" stroke-linecap="round" stroke-linejoin="round" stroke-width="1.7237265"/>
        </g>
      </g>
      <g id="Graphic_321">
        <rect x="177" y="470.948" width="30" height="27" fill="white"/>
        <rect x="177" y="470.948" width="30" height="27" stroke="black" stroke-linecap="round" stroke-linejoin="round" stroke-width="1"/>
        <text transform="translate(182 475.224)" fill="black">
          <tspan font-family="Helvetica Neue" font-size="16" fill="black" x="5.408" y="15">F</tspan>
        </text>
      </g>
      <g id="Graphic_320">
        <text transform="translate(233.21045 472.948)" fill="black">
          <tspan font-family="Helvetica" font-size="16" fill="black" x="0" y="15">K</tspan>
          <tspan font-family="Helvetica" font-size="11" fill="black" y="20">n</tspan>
        </text>
      </g>
      <g id="Line_319">
        <line x1="82.17197" y1="439.448" x2="172.78537" y2="515.09004" marker-end="url(#FilledArrow_Marker)" stroke="black" stroke-linecap="round" stroke-linejoin="bevel" stroke-width="2"/>
      </g>
      <g id="Line_318">
        <line x1="192.39311" y1="543.7626" x2="192.32244" y2="549.54896" marker-end="url(#FilledArrow_Marker)" stroke="black" stroke-linecap="round" stroke-linejoin="bevel" stroke-width="2"/>
      </g>
      <g id="Line_317">
        <line x1="192" y1="439.448" x2="192" y2="458.048" marker-end="url(#FilledArrow_Marker)" stroke="black" stroke-linecap="round" stroke-linejoin="bevel" stroke-width="2"/>
      </g>
      <g id="Line_316">
        <line x1="192.1552" y1="497.948" x2="192.25356" y2="506.50287" marker-end="url(#FilledArrow_Marker)" stroke="black" stroke-linecap="round" stroke-linejoin="bevel" stroke-width="2"/>
      </g>
      <g id="Line_315">
        <path d="M 180.66 439.448 L 144.24554 482.79855 C 139.26846 478.6178 130.90696 488.57196 135.88404 492.7527 L 85.63718 552.5704" marker-end="url(#FilledArrow_Marker)" stroke="black" stroke-linecap="round" stroke-linejoin="bevel" stroke-width="2"/>
      </g>
      <g id="Line_314">
        <line x1="228.21045" y1="484.448" x2="219.9" y2="484.448" marker-end="url(#FilledArrow_Marker)" stroke="black" stroke-linecap="round" stroke-linejoin="bevel" stroke-width="2"/>
      </g>
      <g id="Graphic_332">
        <text transform="translate(98 5)" fill="black">
          <tspan font-family="Helvetica Neue" font-size="16" fill="black" x="0" y="15">Plaintext</tspan>
        </text>
      </g>
      <g id="Graphic_333">
        <text transform="translate(92 594.448)" fill="black">
          <tspan font-family="Helvetica Neue" font-size="16" fill="black" x="0" y="15">Ciphertext</tspan>
        </text>
      </g>
      <g id="Line_335">
        <line x1="129" y1="361.448" x2="129" y2="406.448" stroke="black" stroke-linecap="round" stroke-linejoin="round" stroke-dasharray="4.0,16.0" stroke-width="4"/>
      </g>
      <g id="Graphic_336">
        <text transform="translate(425 5)" fill="black">
          <tspan font-family="Helvetica Neue" font-size="16" fill="black" x="0" y="15">Ciphertext</tspan>
        </text>
      </g>
      <g id="Graphic_337">
        <text transform="translate(431 594.448)" fill="black">
          <tspan font-family="Helvetica Neue" font-size="16" fill="black" x="0" y="15">Plaintext</tspan>
        </text>
      </g>
      <g id="Graphic_384">
        <rect x="336" y="28.447998" width="126" height="27" fill="white"/>
        <rect x="336" y="28.447998" width="126" height="27" stroke="black" stroke-linecap="round" stroke-linejoin="round" stroke-width="1"/>
        <text transform="translate(341 30.447998)" fill="black">
          <tspan font-family="Helvetica" font-size="16" fill="black" x="50.491943" y="15">L</tspan>
          <tspan font-family="Helvetica" font-size="11" fill="black" y="20">n</tspan>
        </text>
      </g>
      <g id="Graphic_383">
        <rect x="462" y="28.447998" width="126" height="27" fill="white"/>
        <rect x="462" y="28.447998" width="126" height="27" stroke="black" stroke-linecap="round" stroke-linejoin="round" stroke-width="1"/>
        <text transform="translate(467 30.447998)" fill="black">
          <tspan font-family="Helvetica" font-size="16" fill="black" x="49.16382" y="15">R</tspan>
          <tspan font-family="Helvetica" font-size="11" fill="black" y="20">n</tspan>
        </text>
      </g>
      <g id="Graphic_382">
        <rect x="336" y="173.948" width="126" height="27" fill="white"/>
        <rect x="336" y="173.948" width="126" height="27" stroke="black" stroke-linecap="round" stroke-linejoin="round" stroke-width="1"/>
        <text transform="translate(341 175.948)" fill="black">
          <tspan font-family="Helvetica" font-size="11" fill="black" x="44.073486" y="20"> </tspan>
          <tspan font-family="Helvetica" font-size="16" fill="black" y="15">L</tspan>
          <tspan font-family="Helvetica" font-size="11" fill="black" y="20">n-1</tspan>
        </text>
      </g>
      <g id="Graphic_381">
        <rect x="462" y="173.948" width="126" height="27" fill="white"/>
        <rect x="462" y="173.948" width="126" height="27" stroke="black" stroke-linecap="round" stroke-linejoin="round" stroke-width="1"/>
        <text transform="translate(467 175.948)" fill="black">
          <tspan font-family="Helvetica" font-size="16" fill="black" x="44.27344" y="15">R</tspan>
          <tspan font-family="Helvetica" font-size="11" fill="black" y="20">n-1</tspan>
        </text>
      </g>
      <g id="Group_377">
        <title>g3270</title>
        <g id="Graphic_380">
          <title>path3272</title>
          <path d="M 538.0838 143.08234 C 538.0838 149.35942 532.4686 154.448 525.5419 154.448 C 518.6152 154.448 513 149.35942 513 143.08234 C 513 136.80526 518.6152 131.71668 525.5419 131.71668 C 532.4686 131.71668 538.0838 136.80526 538.0838 143.08234 Z" fill="white"/>
          <path d="M 538.0838 143.08234 C 538.0838 149.35942 532.4686 154.448 525.5419 154.448 C 518.6152 154.448 513 149.35942 513 143.08234 C 513 136.80526 518.6152 131.71668 525.5419 131.71668 C 532.4686 131.71668 538.0838 136.80526 538.0838 143.08234 Z" stroke="black" stroke-linecap="butt" stroke-linejoin="round" stroke-width="1.6306387"/>
        </g>
        <g id="Graphic_379">
          <title>path3274</title>
          <line x1="513.0283" y1="142.68603" x2="538.01425" y2="142.68603" fill="#0a0"/>
          <line x1="513.0283" y1="142.68603" x2="538.01425" y2="142.68603" stroke="black" stroke-linecap="round" stroke-linejoin="round" stroke-width="1.7237265"/>
        </g>
        <g id="Graphic_378">
          <title>path3276</title>
          <line x1="525.3938" y1="131.71125" x2="525.3938" y2="154.35394" fill="#0a0"/>
          <line x1="525.3938" y1="131.71125" x2="525.3938" y2="154.35394" stroke="black" stroke-linecap="round" stroke-linejoin="round" stroke-width="1.7237265"/>
        </g>
      </g>
      <g id="Graphic_376">
        <rect x="510" y="82.448" width="30" height="27" fill="white"/>
        <rect x="510" y="82.448" width="30" height="27" stroke="black" stroke-linecap="round" stroke-linejoin="round" stroke-width="1"/>
        <text transform="translate(515 86.724)" fill="black">
          <tspan font-family="Helvetica Neue" font-size="16" fill="black" x="5.408" y="15">F</tspan>
        </text>
      </g>
      <g id="Graphic_375">
        <text transform="translate(566.21045 84.448)" fill="black">
          <tspan font-family="Helvetica" font-size="16" fill="black" x="0" y="15">K</tspan>
          <tspan font-family="Helvetica" font-size="11" fill="black" y="20">n</tspan>
        </text>
      </g>
      <g id="Line_374">
        <line x1="415.89155" y1="55.448" x2="505.4184" y2="126.99932" marker-end="url(#FilledArrow_Marker)" stroke="black" stroke-linecap="round" stroke-linejoin="bevel" stroke-width="2"/>
      </g>
      <g id="Line_373">
        <line x1="525.3931" y1="155.26258" x2="525.32244" y2="161.04896" marker-end="url(#FilledArrow_Marker)" stroke="black" stroke-linecap="round" stroke-linejoin="bevel" stroke-width="2"/>
      </g>
      <g id="Line_372">
        <line x1="525" y1="55.448" x2="525" y2="69.548" marker-end="url(#FilledArrow_Marker)" stroke="black" stroke-linecap="round" stroke-linejoin="bevel" stroke-width="2"/>
      </g>
      <g id="Line_371">
        <line x1="525.1552" y1="109.448" x2="525.25356" y2="118.00287" marker-end="url(#FilledArrow_Marker)" stroke="black" stroke-linecap="round" stroke-linejoin="bevel" stroke-width="2"/>
      </g>
      <g id="Line_370">
        <path d="M 513.3093 55.448 L 477.7186 96.54677 C 472.80494 92.29165 464.2947 102.11895 469.20835 106.37407 L 419.1355 164.1963" marker-end="url(#FilledArrow_Marker)" stroke="black" stroke-linecap="round" stroke-linejoin="bevel" stroke-width="2"/>
      </g>
      <g id="Line_369">
        <line x1="561.21045" y1="95.948" x2="552.9" y2="95.948" marker-end="url(#FilledArrow_Marker)" stroke="black" stroke-linecap="round" stroke-linejoin="bevel" stroke-width="2"/>
      </g>
      <g id="Graphic_368">
        <rect x="336" y="323.71125" width="126" height="27" fill="white"/>
        <rect x="336" y="323.71125" width="126" height="27" stroke="black" stroke-linecap="round" stroke-linejoin="round" stroke-width="1"/>
        <text transform="translate(341 325.71125)" fill="black">
          <tspan font-family="Helvetica" font-size="11" fill="black" x="44.073486" y="20"> </tspan>
          <tspan font-family="Helvetica" font-size="16" fill="black" y="15">L</tspan>
          <tspan font-family="Helvetica" font-size="11" fill="black" y="20">n-2</tspan>
        </text>
      </g>
      <g id="Graphic_367">
        <rect x="462" y="323.71125" width="126" height="27" fill="white"/>
        <rect x="462" y="323.71125" width="126" height="27" stroke="black" stroke-linecap="round" stroke-linejoin="round" stroke-width="1"/>
        <text transform="translate(467 325.71125)" fill="black">
          <tspan font-family="Helvetica" font-size="16" fill="black" x="44.27344" y="15">R</tspan>
          <tspan font-family="Helvetica" font-size="11" fill="black" y="20">n-2</tspan>
        </text>
      </g>
      <g id="Group_363">
        <title>g3270</title>
        <g id="Graphic_366">
          <title>path3272</title>
          <path d="M 538.0838 292.8456 C 538.0838 299.12267 532.4686 304.21125 525.5419 304.21125 C 518.6152 304.21125 513 299.12267 513 292.8456 C 513 286.5685 518.6152 281.47993 525.5419 281.47993 C 532.4686 281.47993 538.0838 286.5685 538.0838 292.8456 Z" fill="white"/>
          <path d="M 538.0838 292.8456 C 538.0838 299.12267 532.4686 304.21125 525.5419 304.21125 C 518.6152 304.21125 513 299.12267 513 292.8456 C 513 286.5685 518.6152 281.47993 525.5419 281.47993 C 532.4686 281.47993 538.0838 286.5685 538.0838 292.8456 Z" stroke="black" stroke-linecap="butt" stroke-linejoin="round" stroke-width="1.6306387"/>
        </g>
        <g id="Graphic_365">
          <title>path3274</title>
          <line x1="513.0283" y1="292.44928" x2="538.01425" y2="292.44928" fill="#0a0"/>
          <line x1="513.0283" y1="292.44928" x2="538.01425" y2="292.44928" stroke="black" stroke-linecap="round" stroke-linejoin="round" stroke-width="1.7237265"/>
        </g>
        <g id="Graphic_364">
          <title>path3276</title>
          <line x1="525.3938" y1="281.4745" x2="525.3938" y2="304.1172" fill="#0a0"/>
          <line x1="525.3938" y1="281.4745" x2="525.3938" y2="304.1172" stroke="black" stroke-linecap="round" stroke-linejoin="round" stroke-width="1.7237265"/>
        </g>
      </g>
      <g id="Graphic_362">
        <rect x="510" y="232.21125" width="30" height="27" fill="white"/>
        <rect x="510" y="232.21125" width="30" height="27" stroke="black" stroke-linecap="round" stroke-linejoin="round" stroke-width="1"/>
        <text transform="translate(515 236.48725)" fill="black">
          <tspan font-family="Helvetica Neue" font-size="16" fill="black" x="5.408" y="15">F</tspan>
        </text>
      </g>
      <g id="Graphic_361">
        <text transform="translate(556.4297 235.71125)" fill="black">
          <tspan font-family="Helvetica" font-size="16" fill="black" x="0" y="15">K</tspan>
          <tspan font-family="Helvetica" font-size="11" fill="black" y="20">n-1</tspan>
        </text>
      </g>
      <g id="Line_360">
        <line x1="415.2083" y1="200.948" x2="505.7662" y2="276.37426" marker-end="url(#FilledArrow_Marker)" stroke="black" stroke-linecap="round" stroke-linejoin="bevel" stroke-width="2"/>
      </g>
      <g id="Line_359">
        <line x1="525.3931" y1="305.02583" x2="525.32244" y2="310.8122" marker-end="url(#FilledArrow_Marker)" stroke="black" stroke-linecap="round" stroke-linejoin="bevel" stroke-width="2"/>
      </g>
      <g id="Line_358">
        <line x1="525" y1="200.948" x2="525" y2="219.31125" marker-end="url(#FilledArrow_Marker)" stroke="black" stroke-linecap="round" stroke-linejoin="bevel" stroke-width="2"/>
      </g>
      <g id="Line_357">
        <line x1="525.1552" y1="259.21125" x2="525.25356" y2="267.76612" marker-end="url(#FilledArrow_Marker)" stroke="black" stroke-linecap="round" stroke-linejoin="bevel" stroke-width="2"/>
      </g>
      <g id="Line_356">
        <path d="M 513.6421 200.948 L 477.2697 244.18012 C 472.29586 239.9955 463.9266 249.94316 468.90044 254.12777 L 418.6628 313.8401" marker-end="url(#FilledArrow_Marker)" stroke="black" stroke-linecap="round" stroke-linejoin="bevel" stroke-width="2"/>
      </g>
      <g id="Line_355"/>
      <g id="Graphic_354">
        <rect x="336" y="412.448" width="126" height="27" fill="white"/>
        <rect x="336" y="412.448" width="126" height="27" stroke="black" stroke-linecap="round" stroke-linejoin="round" stroke-width="1"/>
        <text transform="translate(341 414.448)" fill="black">
          <tspan font-family="Helvetica" font-size="11" fill="black" x="48.96387" y="20"> </tspan>
          <tspan font-family="Helvetica" font-size="16" fill="black" y="15">L</tspan>
          <tspan font-family="Helvetica" font-size="11" fill="black" y="20">1</tspan>
        </text>
      </g>
      <g id="Graphic_353">
        <rect x="462" y="412.448" width="126" height="27" fill="white"/>
        <rect x="462" y="412.448" width="126" height="27" stroke="black" stroke-linecap="round" stroke-linejoin="round" stroke-width="1"/>
        <text transform="translate(467 414.448)" fill="black">
          <tspan font-family="Helvetica" font-size="16" fill="black" x="49.16382" y="15">R</tspan>
          <tspan font-family="Helvetica" font-size="11" fill="black" y="20">1</tspan>
        </text>
      </g>
      <g id="Graphic_352">
        <rect x="336" y="562.448" width="126" height="27" fill="#c0ffc0"/>
        <rect x="336" y="562.448" width="126" height="27" stroke="black" stroke-linecap="round" stroke-linejoin="round" stroke-width="1"/>
        <text transform="translate(341 564.448)" fill="black">
          <tspan font-family="Helvetica" font-size="11" fill="black" x="48.96387" y="20"> </tspan>
          <tspan font-family="Helvetica" font-size="16" fill="black" y="15">L</tspan>
          <tspan font-family="Helvetica" font-size="11" fill="black" y="20">0</tspan>
        </text>
      </g>
      <g id="Graphic_351">
        <rect x="462" y="562.448" width="126" height="27" fill="#c0ffc0"/>
        <rect x="462" y="562.448" width="126" height="27" stroke="black" stroke-linecap="round" stroke-linejoin="round" stroke-width="1"/>
        <text transform="translate(467 564.448)" fill="black">
          <tspan font-family="Helvetica" font-size="16" fill="black" x="49.16382" y="15">R</tspan>
          <tspan font-family="Helvetica" font-size="11" fill="black" y="20">0</tspan>
        </text>
      </g>
      <g id="Group_347">
        <title>g3270</title>
        <g id="Graphic_350">
          <title>path3272</title>
          <path d="M 538.0838 531.58234 C 538.0838 537.8594 532.4686 542.948 525.5419 542.948 C 518.6152 542.948 513 537.8594 513 531.58234 C 513 525.30526 518.6152 520.2167 525.5419 520.2167 C 532.4686 520.2167 538.0838 525.30526 538.0838 531.58234 Z" fill="white"/>
          <path d="M 538.0838 531.58234 C 538.0838 537.8594 532.4686 542.948 525.5419 542.948 C 518.6152 542.948 513 537.8594 513 531.58234 C 513 525.30526 518.6152 520.2167 525.5419 520.2167 C 532.4686 520.2167 538.0838 525.30526 538.0838 531.58234 Z" stroke="black" stroke-linecap="butt" stroke-linejoin="round" stroke-width="1.6306387"/>
        </g>
        <g id="Graphic_349">
          <title>path3274</title>
          <line x1="513.0283" y1="531.186" x2="538.01425" y2="531.186" fill="#0a0"/>
          <line x1="513.0283" y1="531.186" x2="538.01425" y2="531.186" stroke="black" stroke-linecap="round" stroke-linejoin="round" stroke-width="1.7237265"/>
        </g>
        <g id="Graphic_348">
          <title>path3276</title>
          <line x1="525.3938" y1="520.21125" x2="525.3938" y2="542.85394" fill="#0a0"/>
          <line x1="525.3938" y1="520.21125" x2="525.3938" y2="542.85394" stroke="black" stroke-linecap="round" stroke-linejoin="round" stroke-width="1.7237265"/>
        </g>
      </g>
      <g id="Graphic_346">
        <rect x="510" y="470.948" width="30" height="27" fill="white"/>
        <rect x="510" y="470.948" width="30" height="27" stroke="black" stroke-linecap="round" stroke-linejoin="round" stroke-width="1"/>
        <text transform="translate(515 475.224)" fill="black">
          <tspan font-family="Helvetica Neue" font-size="16" fill="black" x="5.408" y="15">F</tspan>
        </text>
      </g>
      <g id="Graphic_345">
        <text transform="translate(566.21045 472.948)" fill="black">
          <tspan font-family="Helvetica" font-size="16" fill="black" x="0" y="15">K</tspan>
          <tspan font-family="Helvetica" font-size="11" fill="black" y="20">1</tspan>
        </text>
      </g>
      <g id="Line_344">
        <line x1="415.17197" y1="439.448" x2="505.78537" y2="515.09004" marker-end="url(#FilledArrow_Marker)" stroke="black" stroke-linecap="round" stroke-linejoin="bevel" stroke-width="2"/>
      </g>
      <g id="Line_343">
        <line x1="525.3931" y1="543.7626" x2="525.32244" y2="549.54896" marker-end="url(#FilledArrow_Marker)" stroke="black" stroke-linecap="round" stroke-linejoin="bevel" stroke-width="2"/>
      </g>
      <g id="Line_342">
        <line x1="525" y1="439.448" x2="525" y2="458.048" marker-end="url(#FilledArrow_Marker)" stroke="black" stroke-linecap="round" stroke-linejoin="bevel" stroke-width="2"/>
      </g>
      <g id="Line_341">
        <line x1="525.1552" y1="497.948" x2="525.25356" y2="506.50287" marker-end="url(#FilledArrow_Marker)" stroke="black" stroke-linecap="round" stroke-linejoin="bevel" stroke-width="2"/>
      </g>
      <g id="Line_340">
        <path d="M 513.66 439.448 L 477.24554 482.79855 C 472.26846 478.6178 463.90696 488.57196 468.88404 492.7527 L 418.6372 552.5704" marker-end="url(#FilledArrow_Marker)" stroke="black" stroke-linecap="round" stroke-linejoin="bevel" stroke-width="2"/>
      </g>
      <g id="Line_339">
        <line x1="561.21045" y1="484.448" x2="552.9" y2="484.448" marker-end="url(#FilledArrow_Marker)" stroke="black" stroke-linecap="round" stroke-linejoin="bevel" stroke-width="2"/>
      </g>
      <g id="Line_338">
        <line x1="462" y1="361.448" x2="462" y2="406.448" stroke="black" stroke-linecap="round" stroke-linejoin="round" stroke-dasharray="4.0,16.0" stroke-width="4"/>
      </g>
    </g>
  </g>
</svg>
