<?xml version="1.0" encoding="UTF-8" standalone="no"?>
<!DOCTYPE svg PUBLIC "-//W3C//DTD SVG 1.1//EN" "http://www.w3.org/Graphics/SVG/1.1/DTD/svg11.dtd">
<svg xmlns:xl="http://www.w3.org/1999/xlink" xmlns:dc="http://purl.org/dc/elements/1.1/" xmlns="http://www.w3.org/2000/svg" version="1.1" viewBox="-147.5 -568.448 586 617.896" width="586" height="617.896">
  <defs>
    <marker orient="auto" overflow="visible" markerUnits="strokeWidth" id="FilledArrow_Marker" stroke-linejoin="miter" stroke-miterlimit="10" viewBox="-1 -3 7 6" markerWidth="7" markerHeight="6" color="black">
      <g>
        <path d="M 4.8 0 L 0 -1.8 L 0 1.8 Z" fill="currentColor" stroke="currentColor" stroke-width="1"/>
      </g>
    </marker>
  </defs>
  <g id="Canvas_1" fill-opacity="1" stroke-opacity="1" fill="none" stroke-dasharray="none" stroke="none">
    <title>Canvas 1</title>
    <g id="Canvas_1_Layer_1">
      <title>Layer 1</title>
      <g id="Graphic_254">
        <rect x="-147" y="-540" width="126" height="27" fill="#c0ffc0"/>
        <rect x="-147" y="-540" width="126" height="27" stroke="black" stroke-linecap="round" stroke-linejoin="round" stroke-width="1"/>
        <text transform="translate(-142 -538)" fill="black">
          <tspan font-family="Helvetica" font-size="16" fill="black" x="50.491943" y="15">L</tspan>
          <tspan font-family="Helvetica" font-size="11" fill="black" y="20">0</tspan>
        </text>
      </g>
      <g id="Graphic_257">
        <rect x="-21" y="-540" width="126" height="27" fill="#c0ffc0"/>
        <rect x="-21" y="-540" width="126" height="27" stroke="black" stroke-linecap="round" stroke-linejoin="round" stroke-width="1"/>
        <text transform="translate(-16 -538)" fill="black">
          <tspan font-family="Helvetica" font-size="16" fill="black" x="49.16382" y="15">R</tspan>
          <tspan font-family="Helvetica" font-size="11" fill="black" y="20">0</tspan>
        </text>
      </g>
      <g id="Graphic_259">
        <rect x="-147" y="-394.5" width="126" height="27" fill="white"/>
        <rect x="-147" y="-394.5" width="126" height="27" stroke="black" stroke-linecap="round" stroke-linejoin="round" stroke-width="1"/>
        <text transform="translate(-142 -392.5)" fill="black">
          <tspan font-family="Helvetica" font-size="11" fill="black" x="32.208252" y="20"> </tspan>
          <tspan font-family="Helvetica" font-size="16" fill="black" y="15">L</tspan>
          <tspan font-family="Helvetica" font-size="11" fill="black" y="20">1  </tspan>
          <tspan font-family="Apple Symbols" font-size="16" fill="#a5a5a5" y="15">≙</tspan>
          <tspan font-family="Helvetica" font-size="16" fill="#a5a5a5" y="15">R</tspan>
          <tspan font-family="Helvetica" font-size="11" fill="#a5a5a5" y="20">0</tspan>
        </text>
      </g>
      <g id="Graphic_258">
        <rect x="-21" y="-394.5" width="126" height="27" fill="white"/>
        <rect x="-21" y="-394.5" width="126" height="27" stroke="black" stroke-linecap="round" stroke-linejoin="round" stroke-width="1"/>
        <text transform="translate(-16 -392.5)" fill="black">
          <tspan font-family="Helvetica" font-size="16" fill="black" x="49.16382" y="15">R</tspan>
          <tspan font-family="Helvetica" font-size="11" fill="black" y="20">1</tspan>
        </text>
      </g>
      <g id="Group_268">
        <title>g3270</title>
        <g id="Graphic_271">
          <title>path3272</title>
          <ellipse cx="42.541884" cy="-425.36566" rx="12.5418844783557" ry="11.36566" fill="white"/>
          <ellipse cx="42.541884" cy="-425.36566" rx="12.5418844783557" ry="11.36566" stroke="black" stroke-linecap="butt" stroke-linejoin="round" stroke-width="1.6306387"/>
        </g>
        <g id="Graphic_270">
          <title>path3274</title>
          <line x1="30.028283" y1="-425.76197" x2="55.014246" y2="-425.76197" fill="#0a0"/>
          <line x1="30.028283" y1="-425.76197" x2="55.014246" y2="-425.76197" stroke="black" stroke-linecap="round" stroke-linejoin="round" stroke-width="1.7237265"/>
        </g>
        <g id="Graphic_269">
          <title>path3276</title>
          <line x1="42.393775" y1="-436.73675" x2="42.393775" y2="-414.09406" fill="#0a0"/>
          <line x1="42.393775" y1="-436.73675" x2="42.393775" y2="-414.09406" stroke="black" stroke-linecap="round" stroke-linejoin="round" stroke-width="1.7237265"/>
        </g>
      </g>
      <g id="Graphic_284">
        <rect x="27" y="-486" width="30" height="27" fill="white"/>
        <rect x="27" y="-486" width="30" height="27" stroke="black" stroke-linecap="round" stroke-linejoin="round" stroke-width="1"/>
        <text transform="translate(32 -481.724)" fill="black">
          <tspan font-family="Helvetica Neue" font-size="16" fill="black" x="5.408" y="15">F</tspan>
        </text>
      </g>
      <g id="Graphic_285">
        <text transform="translate(83.21045 -484)" fill="black">
          <tspan font-family="Helvetica" font-size="16" fill="black" x="0" y="15">K</tspan>
          <tspan font-family="Helvetica" font-size="11" fill="black" y="20">1</tspan>
        </text>
      </g>
      <g id="Line_294">
        <line x1="-67.10845" y1="-513" x2="22.4184" y2="-441.4487" marker-end="url(#FilledArrow_Marker)" stroke="black" stroke-linecap="round" stroke-linejoin="bevel" stroke-width="2"/>
      </g>
      <g id="Line_295">
        <line x1="42.393114" y1="-413.1854" x2="42.32244" y2="-407.39904" marker-end="url(#FilledArrow_Marker)" stroke="black" stroke-linecap="round" stroke-linejoin="bevel" stroke-width="2"/>
      </g>
      <g id="Line_296">
        <line x1="42" y1="-513" x2="42" y2="-498.9" marker-end="url(#FilledArrow_Marker)" stroke="black" stroke-linecap="round" stroke-linejoin="bevel" stroke-width="2"/>
      </g>
      <g id="Line_297">
        <line x1="42.155204" y1="-459" x2="42.253556" y2="-450.44513" marker-end="url(#FilledArrow_Marker)" stroke="black" stroke-linecap="round" stroke-linejoin="bevel" stroke-width="2"/>
      </g>
      <g id="Line_298">
        <path d="M 30.30928 -513 L -5.28141 -471.90123 C -10.19506 -476.15635 -18.7053 -466.32905 -13.79165 -462.07393 L -63.8645 -404.2517" marker-end="url(#FilledArrow_Marker)" stroke="black" stroke-linecap="round" stroke-linejoin="bevel" stroke-width="2"/>
      </g>
      <g id="Line_299">
        <line x1="78.21045" y1="-472.5" x2="69.9" y2="-472.5" marker-end="url(#FilledArrow_Marker)" stroke="black" stroke-linecap="round" stroke-linejoin="bevel" stroke-width="2"/>
      </g>
      <g id="Graphic_313">
        <rect x="-147" y="-243.23675" width="126" height="27" fill="white"/>
        <rect x="-147" y="-243.23675" width="126" height="27" stroke="black" stroke-linecap="round" stroke-linejoin="round" stroke-width="1"/>
        <text transform="translate(-142 -241.23675)" fill="black">
          <tspan font-family="Helvetica" font-size="11" fill="black" x="32.208252" y="20"> </tspan>
          <tspan font-family="Helvetica" font-size="16" fill="black" y="15">L</tspan>
          <tspan font-family="Helvetica" font-size="11" fill="black" y="20">2  </tspan>
          <tspan font-family="Apple Symbols" font-size="16" fill="#a5a5a5" y="15">≙</tspan>
          <tspan font-family="Helvetica" font-size="16" fill="#a5a5a5" y="15">R</tspan>
          <tspan font-family="Helvetica" font-size="11" fill="#a5a5a5" y="20">1</tspan>
        </text>
      </g>
      <g id="Graphic_312">
        <rect x="-21" y="-243.23675" width="126" height="27" fill="white"/>
        <rect x="-21" y="-243.23675" width="126" height="27" stroke="black" stroke-linecap="round" stroke-linejoin="round" stroke-width="1"/>
        <text transform="translate(-16 -241.23675)" fill="black">
          <tspan font-family="Helvetica" font-size="16" fill="black" x="49.16382" y="15">R</tspan>
          <tspan font-family="Helvetica" font-size="11" fill="black" y="20">2</tspan>
        </text>
      </g>
      <g id="Group_308">
        <title>g3270</title>
        <g id="Graphic_311">
          <title>path3272</title>
          <ellipse cx="42.541884" cy="-274.1024" rx="12.5418844783557" ry="11.36566" fill="white"/>
          <ellipse cx="42.541884" cy="-274.1024" rx="12.5418844783557" ry="11.36566" stroke="black" stroke-linecap="butt" stroke-linejoin="round" stroke-width="1.6306387"/>
        </g>
        <g id="Graphic_310">
          <title>path3274</title>
          <line x1="30.028283" y1="-274.49872" x2="55.014246" y2="-274.49872" fill="#0a0"/>
          <line x1="30.028283" y1="-274.49872" x2="55.014246" y2="-274.49872" stroke="black" stroke-linecap="round" stroke-linejoin="round" stroke-width="1.7237265"/>
        </g>
        <g id="Graphic_309">
          <title>path3276</title>
          <line x1="42.393775" y1="-285.4735" x2="42.393775" y2="-262.8308" fill="#0a0"/>
          <line x1="42.393775" y1="-285.4735" x2="42.393775" y2="-262.8308" stroke="black" stroke-linecap="round" stroke-linejoin="round" stroke-width="1.7237265"/>
        </g>
      </g>
      <g id="Graphic_307">
        <rect x="27" y="-334.73675" width="30" height="27" fill="white"/>
        <rect x="27" y="-334.73675" width="30" height="27" stroke="black" stroke-linecap="round" stroke-linejoin="round" stroke-width="1"/>
        <text transform="translate(32 -330.46075)" fill="black">
          <tspan font-family="Helvetica Neue" font-size="16" fill="black" x="5.408" y="15">F</tspan>
        </text>
      </g>
      <g id="Graphic_306">
        <text transform="translate(83.21045 -332.73675)" fill="black">
          <tspan font-family="Helvetica" font-size="16" fill="black" x="0" y="15">K</tspan>
          <tspan font-family="Helvetica" font-size="11" fill="black" y="20">2</tspan>
        </text>
      </g>
      <g id="Line_305">
        <line x1="-68.01914" y1="-367.5" x2="22.887564" y2="-290.7056" marker-end="url(#FilledArrow_Marker)" stroke="black" stroke-linecap="round" stroke-linejoin="bevel" stroke-width="2"/>
      </g>
      <g id="Line_304">
        <line x1="42.393114" y1="-261.92217" x2="42.32244" y2="-256.1358" marker-end="url(#FilledArrow_Marker)" stroke="black" stroke-linecap="round" stroke-linejoin="bevel" stroke-width="2"/>
      </g>
      <g id="Line_303">
        <line x1="42" y1="-367.5" x2="42" y2="-347.63675" marker-end="url(#FilledArrow_Marker)" stroke="black" stroke-linecap="round" stroke-linejoin="bevel" stroke-width="2"/>
      </g>
      <g id="Line_302">
        <line x1="42.155204" y1="-307.73675" x2="42.253556" y2="-299.18188" marker-end="url(#FilledArrow_Marker)" stroke="black" stroke-linecap="round" stroke-linejoin="bevel" stroke-width="2"/>
      </g>
      <g id="Line_301">
        <path d="M 30.754704 -367.5 L -5.881963 -323.5176 C -10.876257 -327.67778 -19.1966 -317.6892 -14.202306 -313.52902 L -64.498364 -253.1485" marker-end="url(#FilledArrow_Marker)" stroke="black" stroke-linecap="round" stroke-linejoin="bevel" stroke-width="2"/>
      </g>
      <g id="Line_300">
        <line x1="78.21045" y1="-321.23675" x2="69.9" y2="-321.23675" marker-end="url(#FilledArrow_Marker)" stroke="black" stroke-linecap="round" stroke-linejoin="bevel" stroke-width="2"/>
      </g>
      <g id="Graphic_331">
        <rect x="-147" y="-156" width="126" height="27" fill="white"/>
        <rect x="-147" y="-156" width="126" height="27" stroke="black" stroke-linecap="round" stroke-linejoin="round" stroke-width="1"/>
        <text transform="translate(-142 -154)" fill="black">
          <tspan font-family="Helvetica" font-size="11" fill="black" x="44.073486" y="20"> </tspan>
          <tspan font-family="Helvetica" font-size="16" fill="black" y="15">L</tspan>
          <tspan font-family="Helvetica" font-size="11" fill="black" y="20">n-1</tspan>
        </text>
      </g>
      <g id="Graphic_330">
        <rect x="-21" y="-156" width="126" height="27" fill="white"/>
        <rect x="-21" y="-156" width="126" height="27" stroke="black" stroke-linecap="round" stroke-linejoin="round" stroke-width="1"/>
        <text transform="translate(-16 -154)" fill="black">
          <tspan font-family="Helvetica" font-size="16" fill="black" x="44.27344" y="15">R</tspan>
          <tspan font-family="Helvetica" font-size="11" fill="black" y="20">n-1</tspan>
        </text>
      </g>
      <g id="Graphic_327">
        <rect x="-147" y="-6" width="126" height="27" fill="#ffc0c0"/>
        <rect x="-147" y="-6" width="126" height="27" stroke="black" stroke-linecap="round" stroke-linejoin="round" stroke-width="1"/>
        <text transform="translate(-142 -4)" fill="black">
          <tspan font-family="Helvetica" font-size="11" fill="black" x="27.31787" y="20"> </tspan>
          <tspan font-family="Helvetica" font-size="16" fill="black" y="15">L</tspan>
          <tspan font-family="Helvetica" font-size="11" fill="black" y="20">n  </tspan>
          <tspan font-family="Apple Symbols" font-size="16" fill="#a5a5a5" y="15">≙</tspan>
          <tspan font-family="Helvetica" font-size="16" fill="#a5a5a5" y="15">R</tspan>
          <tspan font-family="Helvetica" font-size="11" fill="#a5a5a5" y="20">n-1</tspan>
        </text>
      </g>
      <g id="Graphic_326">
        <rect x="-21" y="-6" width="126" height="27" fill="#ffc0c0"/>
        <rect x="-21" y="-6" width="126" height="27" stroke="black" stroke-linecap="round" stroke-linejoin="round" stroke-width="1"/>
        <text transform="translate(-16 -4)" fill="black">
          <tspan font-family="Helvetica" font-size="16" fill="black" x="49.16382" y="15">R</tspan>
          <tspan font-family="Helvetica" font-size="11" fill="black" y="20">n</tspan>
        </text>
      </g>
      <g id="Group_322">
        <title>g3270</title>
        <g id="Graphic_325">
          <title>path3272</title>
          <ellipse cx="42.541884" cy="-36.86566" rx="12.5418844783557" ry="11.36566" fill="white"/>
          <ellipse cx="42.541884" cy="-36.86566" rx="12.5418844783557" ry="11.36566" stroke="black" stroke-linecap="butt" stroke-linejoin="round" stroke-width="1.6306387"/>
        </g>
        <g id="Graphic_324">
          <title>path3274</title>
          <line x1="30.028283" y1="-37.26197" x2="55.014246" y2="-37.26197" fill="#0a0"/>
          <line x1="30.028283" y1="-37.26197" x2="55.014246" y2="-37.26197" stroke="black" stroke-linecap="round" stroke-linejoin="round" stroke-width="1.7237265"/>
        </g>
        <g id="Graphic_323">
          <title>path3276</title>
          <line x1="42.393775" y1="-48.23675" x2="42.393775" y2="-25.59406" fill="#0a0"/>
          <line x1="42.393775" y1="-48.23675" x2="42.393775" y2="-25.59406" stroke="black" stroke-linecap="round" stroke-linejoin="round" stroke-width="1.7237265"/>
        </g>
      </g>
      <g id="Graphic_321">
        <rect x="27" y="-97.5" width="30" height="27" fill="white"/>
        <rect x="27" y="-97.5" width="30" height="27" stroke="black" stroke-linecap="round" stroke-linejoin="round" stroke-width="1"/>
        <text transform="translate(32 -93.224)" fill="black">
          <tspan font-family="Helvetica Neue" font-size="16" fill="black" x="5.408" y="15">F</tspan>
        </text>
      </g>
      <g id="Graphic_320">
        <text transform="translate(83.21045 -95.5)" fill="black">
          <tspan font-family="Helvetica" font-size="16" fill="black" x="0" y="15">K</tspan>
          <tspan font-family="Helvetica" font-size="11" fill="black" y="20">n</tspan>
        </text>
      </g>
      <g id="Line_319">
        <line x1="-67.82803" y1="-129" x2="22.785368" y2="-53.35796" marker-end="url(#FilledArrow_Marker)" stroke="black" stroke-linecap="round" stroke-linejoin="bevel" stroke-width="2"/>
      </g>
      <g id="Line_318">
        <line x1="42.393114" y1="-24.68542" x2="42.32244" y2="-18.899038" marker-end="url(#FilledArrow_Marker)" stroke="black" stroke-linecap="round" stroke-linejoin="bevel" stroke-width="2"/>
      </g>
      <g id="Line_317">
        <line x1="42" y1="-129" x2="42" y2="-110.4" marker-end="url(#FilledArrow_Marker)" stroke="black" stroke-linecap="round" stroke-linejoin="bevel" stroke-width="2"/>
      </g>
      <g id="Line_316">
        <line x1="42.155204" y1="-70.5" x2="42.253556" y2="-61.94513" marker-end="url(#FilledArrow_Marker)" stroke="black" stroke-linecap="round" stroke-linejoin="bevel" stroke-width="2"/>
      </g>
      <g id="Line_315">
        <path d="M 30.66 -129 L -5.7544625 -85.64945 C -10.731544 -89.8302 -19.093041 -79.87603 -14.11596 -75.69529 L -64.36282 -15.877593" marker-end="url(#FilledArrow_Marker)" stroke="black" stroke-linecap="round" stroke-linejoin="bevel" stroke-width="2"/>
      </g>
      <g id="Line_314">
        <line x1="78.21045" y1="-84" x2="69.9" y2="-84" marker-end="url(#FilledArrow_Marker)" stroke="black" stroke-linecap="round" stroke-linejoin="bevel" stroke-width="2"/>
      </g>
      <g id="Graphic_332">
        <text transform="translate(-52 -563.448)" fill="black">
          <tspan font-family="Helvetica Neue" font-size="16" fill="black" x="0" y="15">Plaintext</tspan>
        </text>
      </g>
      <g id="Graphic_333">
        <text transform="translate(-58 26)" fill="black">
          <tspan font-family="Helvetica Neue" font-size="16" fill="black" x="0" y="15">Ciphertext</tspan>
        </text>
      </g>
      <g id="Line_335">
        <line x1="-21" y1="-207" x2="-21" y2="-162" stroke="black" stroke-linecap="round" stroke-linejoin="round" stroke-dasharray="4.0,16.0" stroke-width="4"/>
      </g>
      <g id="Graphic_336">
        <text transform="translate(275 -563.448)" fill="black">
          <tspan font-family="Helvetica Neue" font-size="16" fill="black" x="0" y="15">Ciphertext</tspan>
        </text>
      </g>
      <g id="Graphic_337">
        <text transform="translate(281 26)" fill="black">
          <tspan font-family="Helvetica Neue" font-size="16" fill="black" x="0" y="15">Plaintext</tspan>
        </text>
      </g>
      <g id="Graphic_384">
        <rect x="186" y="-540" width="126" height="27" fill="white"/>
        <rect x="186" y="-540" width="126" height="27" stroke="black" stroke-linecap="round" stroke-linejoin="round" stroke-width="1"/>
        <text transform="translate(191 -538)" fill="black">
          <tspan font-family="Helvetica" font-size="16" fill="black" x="50.491943" y="15">L</tspan>
          <tspan font-family="Helvetica" font-size="11" fill="black" y="20">n</tspan>
        </text>
      </g>
      <g id="Graphic_383">
        <rect x="312" y="-540" width="126" height="27" fill="white"/>
        <rect x="312" y="-540" width="126" height="27" stroke="black" stroke-linecap="round" stroke-linejoin="round" stroke-width="1"/>
        <text transform="translate(317 -538)" fill="black">
          <tspan font-family="Helvetica" font-size="16" fill="black" x="49.16382" y="15">R</tspan>
          <tspan font-family="Helvetica" font-size="11" fill="black" y="20">n</tspan>
        </text>
      </g>
      <g id="Graphic_382">
        <rect x="186" y="-394.5" width="126" height="27" fill="white"/>
        <rect x="186" y="-394.5" width="126" height="27" stroke="black" stroke-linecap="round" stroke-linejoin="round" stroke-width="1"/>
        <text transform="translate(191 -392.5)" fill="black">
          <tspan font-family="Helvetica" font-size="11" fill="black" x="44.073486" y="20"> </tspan>
          <tspan font-family="Helvetica" font-size="16" fill="black" y="15">L</tspan>
          <tspan font-family="Helvetica" font-size="11" fill="black" y="20">n-1</tspan>
        </text>
      </g>
      <g id="Graphic_381">
        <rect x="312" y="-394.5" width="126" height="27" fill="white"/>
        <rect x="312" y="-394.5" width="126" height="27" stroke="black" stroke-linecap="round" stroke-linejoin="round" stroke-width="1"/>
        <text transform="translate(317 -392.5)" fill="black">
          <tspan font-family="Helvetica" font-size="16" fill="black" x="44.27344" y="15">R</tspan>
          <tspan font-family="Helvetica" font-size="11" fill="black" y="20">n-1</tspan>
        </text>
      </g>
      <g id="Group_377">
        <title>g3270</title>
        <g id="Graphic_380">
          <title>path3272</title>
          <path d="M 388.08377 -425.36566 C 388.08377 -419.0886 382.46858 -414 375.5419 -414 C 368.6152 -414 363 -419.0886 363 -425.36566 C 363 -431.64274 368.6152 -436.7313 375.5419 -436.7313 C 382.46858 -436.7313 388.08377 -431.64274 388.08377 -425.36566 Z" fill="white"/>
          <path d="M 388.08377 -425.36566 C 388.08377 -419.0886 382.46858 -414 375.5419 -414 C 368.6152 -414 363 -419.0886 363 -425.36566 C 363 -431.64274 368.6152 -436.7313 375.5419 -436.7313 C 382.46858 -436.7313 388.08377 -431.64274 388.08377 -425.36566 Z" stroke="black" stroke-linecap="butt" stroke-linejoin="round" stroke-width="1.6306387"/>
        </g>
        <g id="Graphic_379">
          <title>path3274</title>
          <line x1="363.0283" y1="-425.76197" x2="388.01425" y2="-425.76197" fill="#0a0"/>
          <line x1="363.0283" y1="-425.76197" x2="388.01425" y2="-425.76197" stroke="black" stroke-linecap="round" stroke-linejoin="round" stroke-width="1.7237265"/>
        </g>
        <g id="Graphic_378">
          <title>path3276</title>
          <line x1="375.39377" y1="-436.73675" x2="375.39377" y2="-414.09406" fill="#0a0"/>
          <line x1="375.39377" y1="-436.73675" x2="375.39377" y2="-414.09406" stroke="black" stroke-linecap="round" stroke-linejoin="round" stroke-width="1.7237265"/>
        </g>
      </g>
      <g id="Graphic_376">
        <rect x="360" y="-486" width="30" height="27" fill="white"/>
        <rect x="360" y="-486" width="30" height="27" stroke="black" stroke-linecap="round" stroke-linejoin="round" stroke-width="1"/>
        <text transform="translate(365 -481.724)" fill="black">
          <tspan font-family="Helvetica Neue" font-size="16" fill="black" x="5.408" y="15">F</tspan>
        </text>
      </g>
      <g id="Graphic_375">
        <text transform="translate(416.21045 -484)" fill="black">
          <tspan font-family="Helvetica" font-size="16" fill="black" x="0" y="15">K</tspan>
          <tspan font-family="Helvetica" font-size="11" fill="black" y="20">n</tspan>
        </text>
      </g>
      <g id="Line_374">
        <line x1="265.89155" y1="-513" x2="355.4184" y2="-441.4487" marker-end="url(#FilledArrow_Marker)" stroke="black" stroke-linecap="round" stroke-linejoin="bevel" stroke-width="2"/>
      </g>
      <g id="Line_373">
        <line x1="375.3931" y1="-413.1854" x2="375.32244" y2="-407.39904" marker-end="url(#FilledArrow_Marker)" stroke="black" stroke-linecap="round" stroke-linejoin="bevel" stroke-width="2"/>
      </g>
      <g id="Line_372">
        <line x1="375" y1="-513" x2="375" y2="-498.9" marker-end="url(#FilledArrow_Marker)" stroke="black" stroke-linecap="round" stroke-linejoin="bevel" stroke-width="2"/>
      </g>
      <g id="Line_371">
        <line x1="375.1552" y1="-459" x2="375.25356" y2="-450.44513" marker-end="url(#FilledArrow_Marker)" stroke="black" stroke-linecap="round" stroke-linejoin="bevel" stroke-width="2"/>
      </g>
      <g id="Line_370">
        <path d="M 363.3093 -513 L 327.7186 -471.90123 C 322.80494 -476.15635 314.2947 -466.32905 319.20835 -462.07393 L 269.1355 -404.2517" marker-end="url(#FilledArrow_Marker)" stroke="black" stroke-linecap="round" stroke-linejoin="bevel" stroke-width="2"/>
      </g>
      <g id="Line_369">
        <line x1="411.21045" y1="-472.5" x2="402.9" y2="-472.5" marker-end="url(#FilledArrow_Marker)" stroke="black" stroke-linecap="round" stroke-linejoin="bevel" stroke-width="2"/>
      </g>
      <g id="Graphic_368">
        <rect x="186" y="-244.73675" width="126" height="27" fill="white"/>
        <rect x="186" y="-244.73675" width="126" height="27" stroke="black" stroke-linecap="round" stroke-linejoin="round" stroke-width="1"/>
        <text transform="translate(191 -242.73675)" fill="black">
          <tspan font-family="Helvetica" font-size="11" fill="black" x="44.073486" y="20"> </tspan>
          <tspan font-family="Helvetica" font-size="16" fill="black" y="15">L</tspan>
          <tspan font-family="Helvetica" font-size="11" fill="black" y="20">n-2</tspan>
        </text>
      </g>
      <g id="Graphic_367">
        <rect x="312" y="-244.73675" width="126" height="27" fill="white"/>
        <rect x="312" y="-244.73675" width="126" height="27" stroke="black" stroke-linecap="round" stroke-linejoin="round" stroke-width="1"/>
        <text transform="translate(317 -242.73675)" fill="black">
          <tspan font-family="Helvetica" font-size="16" fill="black" x="44.27344" y="15">R</tspan>
          <tspan font-family="Helvetica" font-size="11" fill="black" y="20">n-2</tspan>
        </text>
      </g>
      <g id="Group_363">
        <title>g3270</title>
        <g id="Graphic_366">
          <title>path3272</title>
          <path d="M 388.08377 -275.6024 C 388.08377 -269.32533 382.46858 -264.23675 375.5419 -264.23675 C 368.6152 -264.23675 363 -269.32533 363 -275.6024 C 363 -281.8795 368.6152 -286.96807 375.5419 -286.96807 C 382.46858 -286.96807 388.08377 -281.8795 388.08377 -275.6024 Z" fill="white"/>
          <path d="M 388.08377 -275.6024 C 388.08377 -269.32533 382.46858 -264.23675 375.5419 -264.23675 C 368.6152 -264.23675 363 -269.32533 363 -275.6024 C 363 -281.8795 368.6152 -286.96807 375.5419 -286.96807 C 382.46858 -286.96807 388.08377 -281.8795 388.08377 -275.6024 Z" stroke="black" stroke-linecap="butt" stroke-linejoin="round" stroke-width="1.6306387"/>
        </g>
        <g id="Graphic_365">
          <title>path3274</title>
          <line x1="363.0283" y1="-275.99872" x2="388.01425" y2="-275.99872" fill="#0a0"/>
          <line x1="363.0283" y1="-275.99872" x2="388.01425" y2="-275.99872" stroke="black" stroke-linecap="round" stroke-linejoin="round" stroke-width="1.7237265"/>
        </g>
        <g id="Graphic_364">
          <title>path3276</title>
          <line x1="375.39377" y1="-286.9735" x2="375.39377" y2="-264.3308" fill="#0a0"/>
          <line x1="375.39377" y1="-286.9735" x2="375.39377" y2="-264.3308" stroke="black" stroke-linecap="round" stroke-linejoin="round" stroke-width="1.7237265"/>
        </g>
      </g>
      <g id="Graphic_362">
        <rect x="360" y="-336.23675" width="30" height="27" fill="white"/>
        <rect x="360" y="-336.23675" width="30" height="27" stroke="black" stroke-linecap="round" stroke-linejoin="round" stroke-width="1"/>
        <text transform="translate(365 -331.96075)" fill="black">
          <tspan font-family="Helvetica Neue" font-size="16" fill="black" x="5.408" y="15">F</tspan>
        </text>
      </g>
      <g id="Graphic_361">
        <text transform="translate(406.4297 -332.73675)" fill="black">
          <tspan font-family="Helvetica" font-size="16" fill="black" x="0" y="15">K</tspan>
          <tspan font-family="Helvetica" font-size="11" fill="black" y="20">n-1</tspan>
        </text>
      </g>
      <g id="Line_360">
        <line x1="265.2083" y1="-367.5" x2="355.76617" y2="-292.07373" marker-end="url(#FilledArrow_Marker)" stroke="black" stroke-linecap="round" stroke-linejoin="bevel" stroke-width="2"/>
      </g>
      <g id="Line_359">
        <line x1="375.3931" y1="-263.42217" x2="375.32244" y2="-257.6358" marker-end="url(#FilledArrow_Marker)" stroke="black" stroke-linecap="round" stroke-linejoin="bevel" stroke-width="2"/>
      </g>
      <g id="Line_358">
        <line x1="375" y1="-367.5" x2="375" y2="-349.13675" marker-end="url(#FilledArrow_Marker)" stroke="black" stroke-linecap="round" stroke-linejoin="bevel" stroke-width="2"/>
      </g>
      <g id="Line_357">
        <line x1="375.1552" y1="-309.23675" x2="375.25356" y2="-300.68188" marker-end="url(#FilledArrow_Marker)" stroke="black" stroke-linecap="round" stroke-linejoin="bevel" stroke-width="2"/>
      </g>
      <g id="Line_356">
        <path d="M 363.64207 -367.5 L 327.2697 -324.26788 C 322.29586 -328.4525 313.9266 -318.50484 318.90044 -314.32022 L 268.6628 -254.60788" marker-end="url(#FilledArrow_Marker)" stroke="black" stroke-linecap="round" stroke-linejoin="bevel" stroke-width="2"/>
      </g>
      <g id="Line_355"/>
      <g id="Graphic_354">
        <rect x="186" y="-156" width="126" height="27" fill="white"/>
        <rect x="186" y="-156" width="126" height="27" stroke="black" stroke-linecap="round" stroke-linejoin="round" stroke-width="1"/>
        <text transform="translate(191 -154)" fill="black">
          <tspan font-family="Helvetica" font-size="11" fill="black" x="48.96387" y="20"> </tspan>
          <tspan font-family="Helvetica" font-size="16" fill="black" y="15">L</tspan>
          <tspan font-family="Helvetica" font-size="11" fill="black" y="20">1</tspan>
        </text>
      </g>
      <g id="Graphic_353">
        <rect x="312" y="-156" width="126" height="27" fill="white"/>
        <rect x="312" y="-156" width="126" height="27" stroke="black" stroke-linecap="round" stroke-linejoin="round" stroke-width="1"/>
        <text transform="translate(317 -154)" fill="black">
          <tspan font-family="Helvetica" font-size="16" fill="black" x="49.16382" y="15">R</tspan>
          <tspan font-family="Helvetica" font-size="11" fill="black" y="20">1</tspan>
        </text>
      </g>
      <g id="Graphic_352">
        <rect x="186" y="-6" width="126" height="27" fill="#c0ffc0"/>
        <rect x="186" y="-6" width="126" height="27" stroke="black" stroke-linecap="round" stroke-linejoin="round" stroke-width="1"/>
        <text transform="translate(191 -4)" fill="black">
          <tspan font-family="Helvetica" font-size="11" fill="black" x="48.96387" y="20"> </tspan>
          <tspan font-family="Helvetica" font-size="16" fill="black" y="15">L</tspan>
          <tspan font-family="Helvetica" font-size="11" fill="black" y="20">0</tspan>
        </text>
      </g>
      <g id="Graphic_351">
        <rect x="312" y="-6" width="126" height="27" fill="#c0ffc0"/>
        <rect x="312" y="-6" width="126" height="27" stroke="black" stroke-linecap="round" stroke-linejoin="round" stroke-width="1"/>
        <text transform="translate(317 -4)" fill="black">
          <tspan font-family="Helvetica" font-size="16" fill="black" x="49.16382" y="15">R</tspan>
          <tspan font-family="Helvetica" font-size="11" fill="black" y="20">0</tspan>
        </text>
      </g>
      <g id="Group_347">
        <title>g3270</title>
        <g id="Graphic_350">
          <title>path3272</title>
          <path d="M 388.08377 -36.86566 C 388.08377 -30.58858 382.46858 -25.5 375.5419 -25.5 C 368.6152 -25.5 363 -30.58858 363 -36.86566 C 363 -43.14274 368.6152 -48.23132 375.5419 -48.23132 C 382.46858 -48.23132 388.08377 -43.14274 388.08377 -36.86566 Z" fill="white"/>
          <path d="M 388.08377 -36.86566 C 388.08377 -30.58858 382.46858 -25.5 375.5419 -25.5 C 368.6152 -25.5 363 -30.58858 363 -36.86566 C 363 -43.14274 368.6152 -48.23132 375.5419 -48.23132 C 382.46858 -48.23132 388.08377 -43.14274 388.08377 -36.86566 Z" stroke="black" stroke-linecap="butt" stroke-linejoin="round" stroke-width="1.6306387"/>
        </g>
        <g id="Graphic_349">
          <title>path3274</title>
          <line x1="363.0283" y1="-37.26197" x2="388.01425" y2="-37.26197" fill="#0a0"/>
          <line x1="363.0283" y1="-37.26197" x2="388.01425" y2="-37.26197" stroke="black" stroke-linecap="round" stroke-linejoin="round" stroke-width="1.7237265"/>
        </g>
        <g id="Graphic_348">
          <title>path3276</title>
          <line x1="375.39377" y1="-48.23675" x2="375.39377" y2="-25.59406" fill="#0a0"/>
          <line x1="375.39377" y1="-48.23675" x2="375.39377" y2="-25.59406" stroke="black" stroke-linecap="round" stroke-linejoin="round" stroke-width="1.7237265"/>
        </g>
      </g>
      <g id="Graphic_346">
        <rect x="360" y="-97.5" width="30" height="27" fill="white"/>
        <rect x="360" y="-97.5" width="30" height="27" stroke="black" stroke-linecap="round" stroke-linejoin="round" stroke-width="1"/>
        <text transform="translate(365 -93.224)" fill="black">
          <tspan font-family="Helvetica Neue" font-size="16" fill="black" x="5.408" y="15">F</tspan>
        </text>
      </g>
      <g id="Graphic_345">
        <text transform="translate(416.21045 -95.5)" fill="black">
          <tspan font-family="Helvetica" font-size="16" fill="black" x="0" y="15">K</tspan>
          <tspan font-family="Helvetica" font-size="11" fill="black" y="20">1</tspan>
        </text>
      </g>
      <g id="Line_344">
        <line x1="265.17197" y1="-129" x2="355.78537" y2="-53.35796" marker-end="url(#FilledArrow_Marker)" stroke="black" stroke-linecap="round" stroke-linejoin="bevel" stroke-width="2"/>
      </g>
      <g id="Line_343">
        <line x1="375.3931" y1="-24.68542" x2="375.32244" y2="-18.899038" marker-end="url(#FilledArrow_Marker)" stroke="black" stroke-linecap="round" stroke-linejoin="bevel" stroke-width="2"/>
      </g>
      <g id="Line_342">
        <line x1="375" y1="-129" x2="375" y2="-110.4" marker-end="url(#FilledArrow_Marker)" stroke="black" stroke-linecap="round" stroke-linejoin="bevel" stroke-width="2"/>
      </g>
      <g id="Line_341">
        <line x1="375.1552" y1="-70.5" x2="375.25356" y2="-61.94513" marker-end="url(#FilledArrow_Marker)" stroke="black" stroke-linecap="round" stroke-linejoin="bevel" stroke-width="2"/>
      </g>
      <g id="Line_340">
        <path d="M 363.66 -129 L 327.24554 -85.64945 C 322.26846 -89.8302 313.90696 -79.87603 318.88404 -75.69529 L 268.63718 -15.877593" marker-end="url(#FilledArrow_Marker)" stroke="black" stroke-linecap="round" stroke-linejoin="bevel" stroke-width="2"/>
      </g>
      <g id="Line_339">
        <line x1="411.21045" y1="-84" x2="402.9" y2="-84" marker-end="url(#FilledArrow_Marker)" stroke="black" stroke-linecap="round" stroke-linejoin="bevel" stroke-width="2"/>
      </g>
      <g id="Line_338">
        <line x1="312" y1="-207" x2="312" y2="-162" stroke="black" stroke-linecap="round" stroke-linejoin="round" stroke-dasharray="4.0,16.0" stroke-width="4"/>
      </g>
    </g>
  </g>
</svg>
