<?xml version="1.0" encoding="UTF-8" standalone="no"?>
<!DOCTYPE svg PUBLIC "-//W3C//DTD SVG 1.1//EN" "http://www.w3.org/Graphics/SVG/1.1/DTD/svg11.dtd">
<svg xmlns:xl="http://www.w3.org/1999/xlink" xmlns:dc="http://purl.org/dc/elements/1.1/" xmlns="http://www.w3.org/2000/svg" version="1.1" viewBox="-253.68 157.66 859.68 557.19" width="859.68" height="557.19">
  <defs/>
  <g id="Canvas_2" fill-opacity="1" stroke-opacity="1" fill="none" stroke-dasharray="none" stroke="none">
    <title>Canvas 2</title>
    <rect fill="white" x="-253.68" y="157.66" width="859.68" height="557.19"/>
    <g id="Canvas_2_Layer_1">
      <title>Layer 1</title>
      <g id="Graphic_18">
        <path d="M -241 159 L 593.32 159 C 599.9474 159 605.32 164.37258 605.32 171 L 605.32 702 C 605.32 708.6274 599.9474 714 593.32 714 L -241 714 C -247.62742 714 -253 708.6274 -253 702 L -253 171 C -253 164.37258 -247.62742 159 -241 159 Z" fill="#b4b4b4" fill-opacity=".29947917"/>
      </g>
      <g id="Graphic_21">
        <path d="M -241.68 278 L 593.32 278 C 599.9474 278 605.32 283.37258 605.32 290 L 605.32 702.17 C 605.32 708.7974 599.9474 714.17 593.32 714.17 L -241.68 714.17 C -248.30742 714.17 -253.68 708.7974 -253.68 702.17 L -253.68 290 C -253.68 283.37258 -248.30742 278 -241.68 278 Z" fill="#b4b4b4" fill-opacity=".29947917"/>
      </g>
      <g id="Graphic_22">
        <path d="M -241 366 L 594 366 C 600.6274 366 606 371.3726 606 378 L 606 702.34 C 606 708.9674 600.6274 714.34 594 714.34 L -241 714.34 C -247.62742 714.34 -253 708.9674 -253 702.34 L -253 378 C -253 371.3726 -247.62742 366 -241 366 Z" fill="#b4b4b4" fill-opacity=".29947917"/>
      </g>
      <g id="Graphic_23">
        <path d="M -241 479 L 594 479 C 600.6274 479 606 484.3726 606 491 L 606 702.51 C 606 709.1374 600.6274 714.51 594 714.51 L -241 714.51 C -247.62742 714.51 -253 709.1374 -253 702.51 L -253 491 C -253 484.3726 -247.62742 479 -241 479 Z" fill="#b4b4b4" fill-opacity=".29947917"/>
      </g>
      <g id="Graphic_24">
        <path d="M -241 557 L 594 557 C 600.6274 557 606 562.3726 606 569 L 606 702.68 C 606 709.3074 600.6274 714.68 594 714.68 L -241 714.68 C -247.62742 714.68 -253 709.3074 -253 702.68 L -253 569 C -253 562.3726 -247.62742 557 -241 557 Z" fill="#b4b4b4" fill-opacity=".29947917"/>
      </g>
      <g id="Graphic_25">
        <path d="M -241 643.1888 L 594 643.1888 C 600.6274 643.1888 606 648.56135 606 655.1888 L 606 702.85 C 606 709.4774 600.6274 714.85 594 714.85 L -241 714.85 C -247.62742 714.85 -253 709.4774 -253 702.85 L -253 655.1888 C -253 648.56135 -247.62742 643.1888 -241 643.1888 Z" fill="#b4b4b4" fill-opacity=".29947917"/>
      </g>
      <g id="Graphic_4">
        <text transform="translate(313.81928 170.96446)" fill="black">
          <tspan font-family="Helvetica" font-size="18" fill="black" x="0" y="18">(A1) Closure under addition</tspan>
          <tspan font-family="Helvetica" font-size="18" fill="black" x="0" y="41">(A2)</tspan>
          <tspan font-family="PingFang SC" font-size="18" fill="black" y="41"> </tspan>
          <tspan font-family="Helvetica" font-size="18" fill="black" y="41">Associativity of addition</tspan>
          <tspan font-family="Helvetica" font-size="18" fill="black" x="0" y="66">(A3</tspan>
          <tspan font-family="PingFang SC" font-size="18" fill="black" y="66">) </tspan>
          <tspan font-family="Helvetica" font-size="18" fill="black" y="66">Additive identity</tspan>
          <tspan font-family="PingFang SC" font-size="18" fill="black" x="0" y="91">(</tspan>
          <tspan font-family="Helvetica" font-size="18" fill="black" y="91">A4</tspan>
          <tspan font-family="PingFang SC" font-size="18" fill="black" y="91">)</tspan>
          <tspan font-family="Helvetica" font-size="18" fill="black" y="91"> Additive inverse</tspan>
        </text>
      </g>
      <g id="Graphic_5">
        <text transform="translate(315.27003 316.25425)" fill="black">
          <tspan font-family="PingFang SC" font-size="18" fill="black" x="0" y="19">(</tspan>
          <tspan font-family="Helvetica" font-size="18" fill="black" y="19">A5</tspan>
          <tspan font-family="PingFang SC" font-size="18" fill="black" y="19">）</tspan>
          <tspan font-family="Helvetica" font-size="18" fill="black" y="19"> Commutativity of addition</tspan>
        </text>
      </g>
      <g id="Graphic_6">
        <text transform="translate(313.81927 392.22276)" fill="black">
          <tspan font-family="Helvetica" font-size="18" fill="black" x="0" y="18">(M1) Closure under multiplication</tspan>
          <tspan font-family="Helvetica" font-size="18" fill="black" x="0" y="41">(M2</tspan>
          <tspan font-family="PingFang SC" font-size="18" fill="black" y="41">)</tspan>
          <tspan font-family="Helvetica" font-size="18" fill="black" y="41"> Associativity of multiplication</tspan>
          <tspan font-family="PingFang SC" font-size="18" fill="black" x="0" y="66">(</tspan>
          <tspan font-family="Helvetica" font-size="18" fill="black" y="66">M3</tspan>
          <tspan font-family="PingFang SC" font-size="18" fill="black" y="66">)</tspan>
          <tspan font-family="Helvetica" font-size="18" fill="black" y="66"> Distributive laws</tspan>
        </text>
      </g>
      <g id="Graphic_7">
        <text transform="translate(313.81928 585.0223)" fill="black">
          <tspan font-family="PingFang SC" font-size="18" fill="black" x="0" y="19">(</tspan>
          <tspan font-family="Helvetica" font-size="18" fill="black" y="19">M5</tspan>
          <tspan font-family="PingFang SC" font-size="18" fill="black" y="19">)</tspan>
          <tspan font-family="Helvetica" font-size="18" fill="black" y="19"> Multiplicative identity</tspan>
          <tspan font-family="PingFang SC" font-size="18" fill="black" x="0" y="44">(</tspan>
          <tspan font-family="Helvetica" font-size="18" fill="black" y="44">M6</tspan>
          <tspan font-family="PingFang SC" font-size="18" fill="black" y="44">) </tspan>
          <tspan font-family="Helvetica" font-size="18" fill="black" y="44">No zero divisors</tspan>
        </text>
      </g>
      <g id="Graphic_8">
        <text transform="translate(313.81928 672.4235)" fill="black">
          <tspan font-family="PingFang SC" font-size="18" fill="black" x="0" y="19">(</tspan>
          <tspan font-family="Helvetica" font-size="18" fill="black" y="19">M7) Multiplicative inverse</tspan>
        </text>
      </g>
      <g id="Graphic_15">
        <text transform="translate(313.81927 513.1915)" fill="black">
          <tspan font-family="PingFang SC" font-size="18" fill="black" x="0" y="19">(</tspan>
          <tspan font-family="Helvetica" font-size="18" fill="black" y="19">M4</tspan>
          <tspan font-family="PingFang SC" font-size="18" fill="black" y="19">) </tspan>
          <tspan font-family="Helvetica" font-size="18" fill="black" y="19">Commutativity of multiplication</tspan>
        </text>
      </g>
      <g id="Graphic_31">
        <path d="M 34.975984 478.85 L -240.15 478.85 C -246.77742 478.85 -252.15 473.4774 -252.15 466.85 L -252.15 171.85 C -252.15 165.22258 -246.77742 159.85 -240.15 159.85 L 34.975984 159.85 C 41.6034 159.85 46.975984 165.22258 46.975984 171.85 C 46.975984 171.85 46.975984 171.85 46.975984 171.85 L 46.975984 466.85 C 46.975984 473.4774 41.6034 478.85 34.975984 478.85 Z" fill="#b4b4b4" fill-opacity=".29947917"/>
      </g>
      <g id="Graphic_28">
        <path d="M -240.15 159 L 136 159 C 142.62742 159 148 164.37258 148 171 L 148 354 C 148 360.6274 142.62742 366 136 366 L -240.15 366 C -246.77742 366 -252.15 360.6274 -252.15 354 L -252.15 171 C -252.15 164.37258 -246.77742 159 -240.15 159 Z" fill="#b4b4b4" fill-opacity=".29947917"/>
      </g>
      <g id="Graphic_27">
        <path d="M -241.17 157.66 L -65 157.66 C -58.37258 157.66 -53 163.03258 -53 169.66 L -53 545 C -53 551.6274 -58.37258 557 -65 557 L -241.17 557 C -247.79742 557 -253.17 551.6274 -253.17 545 L -253.17 169.66 C -253.17 163.03258 -247.79742 157.66 -241.17 157.66 Z" fill="#b4b4b4" fill-opacity=".29947917"/>
      </g>
      <g id="Graphic_26">
        <path d="M -241 159 L -165 159 C -158.37258 159 -153 164.37258 -153 171 L -153 632 C -153 638.6274 -158.37258 644 -165 644 L -241 644 C -247.62742 644 -253 638.6274 -253 632 L -253 171 C -253 164.37258 -247.62742 159 -241 159 Z" fill="#b4b4b4" fill-opacity=".29947917"/>
      </g>
      <g id="Graphic_30">
        <path d="M -240.15 159.2652 L 235 159.2652 C 241.62742 159.2652 247 164.63779 247 171.2652 L 247 266 C 247 272.62742 241.62742 278 235 278 L -240.15 278 C -246.77742 278 -252.15 272.62742 -252.15 266 L -252.15 171.2652 C -252.15 164.63779 -246.77742 159.2652 -240.15 159.2652 Z" fill="#b4b4b4" fill-opacity=".29947917"/>
      </g>
      <g id="Graphic_9">
        <text transform="translate(-214 698.5267) rotate(-90)" fill="black">
          <tspan font-family="Helvetica" font-size="18" fill="black" x="0" y="18">Field</tspan>
        </text>
      </g>
      <g id="Graphic_10">
        <text transform="translate(-112.15 623.907) rotate(-90)" fill="black">
          <tspan font-family="Helvetica" font-size="18" fill="black" x="0" y="18">Integral domain</tspan>
        </text>
      </g>
      <g id="Graphic_11">
        <text transform="translate(-13.575 532.52344) rotate(-90)" fill="black">
          <tspan font-family="Helvetica" font-size="18" fill="black" x="0" y="18">Commutative ring</tspan>
        </text>
      </g>
      <g id="Graphic_12">
        <text transform="translate(85 463.01953) rotate(-90)" fill="black">
          <tspan font-family="Helvetica" font-size="18" fill="black" x="0" y="18">Ring</tspan>
        </text>
      </g>
      <g id="Graphic_13">
        <text transform="translate(188 344.65545) rotate(-90)" fill="black">
          <tspan font-family="Helvetica" font-size="18" fill="black" x="0" y="18">Abelian group</tspan>
        </text>
      </g>
      <g id="Graphic_14">
        <text transform="translate(266.90964 258) rotate(-90)" fill="black">
          <tspan font-family="Helvetica" font-size="18" fill="black" x="0" y="18">Group</tspan>
        </text>
      </g>
      <g id="Line_32">
        <line x1="-203" y1="654.51206" x2="-203" y2="179.56043" stroke="black" stroke-linecap="round" stroke-linejoin="round" stroke-width="2"/>
      </g>
      <g id="Line_33">
        <line x1="-101.15" y1="494.8318" x2="-101.15" y2="175.98833" stroke="black" stroke-linecap="round" stroke-linejoin="round" stroke-width="2"/>
      </g>
      <g id="Line_34">
        <line x1="-2.575" y1="386.47656" x2="-2.575" y2="173.48927" stroke="black" stroke-linecap="round" stroke-linejoin="round" stroke-width="2"/>
      </g>
      <g id="Line_35">
        <line x1="96" y1="421" x2="96" y2="170.9855" stroke="black" stroke-linecap="round" stroke-linejoin="round" stroke-width="2"/>
      </g>
      <g id="Line_36">
        <line x1="199" y1="228.57048" x2="199" y2="170.73607" stroke="black" stroke-linecap="round" stroke-linejoin="round" stroke-width="2"/>
      </g>
      <g id="Line_37">
        <line x1="277.90964" y1="202.97266" x2="277.90964" y2="167.99228" stroke="black" stroke-linecap="round" stroke-linejoin="round" stroke-width="2"/>
      </g>
    </g>
  </g>
</svg>
