<?xml version="1.0" encoding="UTF-8" standalone="no"?>
<!DOCTYPE svg PUBLIC "-//W3C//DTD SVG 1.1//EN" "http://www.w3.org/Graphics/SVG/1.1/DTD/svg11.dtd">
<svg xmlns:xl="http://www.w3.org/1999/xlink" xmlns:dc="http://purl.org/dc/elements/1.1/" xmlns="http://www.w3.org/2000/svg" version="1.1" viewBox="134 229 827.5879 406" width="827.5879" height="406">
  <defs/>
  <g id="Canvas_3" fill-opacity="1" stroke-opacity="1" fill="none" stroke-dasharray="none" stroke="none">
    <title>Canvas 3</title>
    <rect fill="white" x="134" y="229" width="827.5879" height="406"/>
    <g id="Canvas_3_Layer_1">
      <title>Layer 1</title>
      <g id="Graphic_2">
        <path d="M 720.5 523 L 949.5879 523 C 956.2153 523 961.5879 528.3726 961.5879 535 L 961.5879 623 C 961.5879 629.6274 956.2153 635 949.5879 635 L 720.5 635 C 713.8726 635 708.5 629.6274 708.5 623 L 708.5 535 C 708.5 528.3726 713.8726 523 720.5 523 Z" fill="#c0ffc0"/>
        <text transform="translate(720.5 535)" fill="black">
          <tspan font-family="Helvetica" font-size="18" fill="black" x="0" y="18">Arithmetic on coefficients is </tspan>
          <tspan font-family="Helvetica" font-size="18" fill="black" x="0" y="40">performed modulo </tspan>
          <tspan font-family="Helvetica" font-style="italic" font-size="18" fill="black" y="40">p</tspan>
          <tspan font-family="Helvetica" font-size="18" fill="black" y="40"> and </tspan>
          <tspan font-family="Helvetica" font-size="18" fill="black" x="0" y="62">polynomials are defined </tspan>
          <tspan font-family="Helvetica" font-size="18" fill="black" x="0" y="84">modulo a polynomial </tspan>
          <tspan font-family="Helvetica" font-style="italic" font-size="18" fill="black" y="84">m(x</tspan>
          <tspan font-family="Helvetica" font-size="18" fill="black" y="84">)</tspan>
        </text>
      </g>
      <g id="Graphic_3">
        <path d="M 455.5 229 L 574.5303 229 C 581.1577 229 586.5303 234.37258 586.5303 241 L 586.5303 263 C 586.5303 269.62742 581.1577 275 574.5303 275 L 455.5 275 C 448.8726 275 443.5 269.62742 443.5 263 L 443.5 241 C 443.5 234.37258 448.8726 229 455.5 229 Z" fill="#ffffc0"/>
        <text transform="translate(455.5 241)" fill="black">
          <tspan font-family="Helvetica" font-size="18" fill="black" x="0" y="18">Polynomial </tspan>
          <tspan font-family="Helvetica" font-style="italic" font-size="18" fill="black" y="18">f(x)</tspan>
        </text>
      </g>
      <g id="Graphic_4">
        <path d="M 146 351 L 265.03027 351 C 271.6577 351 277.03027 356.3726 277.03027 363 L 277.03027 473 C 277.03027 479.6274 271.6577 485 265.03027 485 L 146 485 C 139.37258 485 134 479.6274 134 473 L 134 363 C 134 356.3726 139.37258 351 146 351 Z" fill="#ffc0c0"/>
        <text transform="translate(146 363)" fill="black">
          <tspan font-family="Helvetica" font-style="italic" font-size="18" fill="black" x="0" y="18">x</tspan>
          <tspan font-family="Helvetica" font-size="18" fill="black" y="18"> treated as a </tspan>
          <tspan font-family="Helvetica" font-size="18" fill="black" x="0" y="40">variable, and </tspan>
          <tspan font-family="Helvetica" font-size="18" fill="black" x="0" y="62">evaluated for </tspan>
          <tspan font-family="Helvetica" font-size="18" fill="black" x="0" y="84">a particular </tspan>
          <tspan font-family="Helvetica" font-size="18" fill="black" x="0" y="106">value of </tspan>
          <tspan font-family="Helvetica" font-style="italic" font-size="18" fill="black" y="106">x</tspan>
        </text>
      </g>
      <g id="Graphic_5">
        <path d="M 242 523 L 393.5 523 C 400.1274 523 405.5 528.3726 405.5 535 L 405.5 601 C 405.5 607.6274 400.1274 613 393.5 613 L 242 613 C 235.37258 613 230 607.6274 230 601 L 230 535 C 230 528.3726 235.37258 523 242 523 Z" fill="#c0ffc0"/>
        <text transform="translate(242 535)" fill="black">
          <tspan font-family="Helvetica" font-size="18" fill="black" x="0" y="18">Ordinary </tspan>
          <tspan font-family="Helvetica" font-size="18" fill="black" x="0" y="40">polynomial </tspan>
          <tspan font-family="Helvetica" font-size="18" fill="black" x="0" y="62">arithmetic</tspan>
        </text>
      </g>
      <g id="Graphic_6">
        <path d="M 481.25 523 L 632.75 523 C 639.3774 523 644.75 528.3726 644.75 535 L 644.75 623 C 644.75 629.6274 639.3774 635 632.75 635 L 481.25 635 C 474.6226 635 469.25 629.6274 469.25 623 L 469.25 535 C 469.25 528.3726 474.6226 523 481.25 523 Z" fill="#c0ffc0"/>
        <text transform="translate(481.25 535)" fill="black">
          <tspan font-family="Helvetica" font-size="18" fill="black" x="0" y="18">Arithmetic on </tspan>
          <tspan font-family="Helvetica" font-size="18" fill="black" x="0" y="40">coefficients is </tspan>
          <tspan font-family="Helvetica" font-size="18" fill="black" x="0" y="62">performed modulo </tspan>
          <tspan font-family="Helvetica" font-style="italic" font-size="18" fill="black" x="0" y="84">p</tspan>
        </text>
      </g>
      <g id="Graphic_7">
        <path d="M 572.0625 376 L 738 376 C 744.6274 376 750 381.3726 750 388 L 750 432 C 750 438.6274 744.6274 444 738 444 L 572.0625 444 C 565.4351 444 560.0625 438.6274 560.0625 432 L 560.0625 388 C 560.0625 381.3726 565.4351 376 572.0625 376 Z" fill="#ffc0c0"/>
        <text transform="translate(572.0625 388)" fill="black">
          <tspan font-family="Helvetica" font-style="italic" font-size="18" fill="black" x="0" y="18">×</tspan>
          <tspan font-family="Helvetica" font-size="18" fill="black" y="18"> treated as an </tspan>
          <tspan font-family="Helvetica" font-size="18" fill="black" x="0" y="40">indeterminate</tspan>
        </text>
      </g>
      <g id="Line_8">
        <path d="M 515.01514 275 L 515.01514 312.71615 L 217.7978 312.71615 L 217.7978 350.89277" stroke="black" stroke-linecap="round" stroke-linejoin="round" stroke-width="2"/>
      </g>
      <g id="Line_9">
        <path d="M 515.01514 275 L 515.01514 312.5625 L 655.03125 312.5625 L 655.03125 376" stroke="black" stroke-linecap="round" stroke-linejoin="round" stroke-width="2"/>
      </g>
      <g id="Line_11">
        <path d="M 557 523 L 557 483.5 L 655.03125 483.5 L 655.03125 444" stroke="black" stroke-linecap="round" stroke-linejoin="miter" stroke-width="2"/>
      </g>
      <g id="Line_12">
        <path d="M 655.03125 444 L 655.03125 483.4545 L 835.0439 483.4545 L 835.0439 523" stroke="black" stroke-linecap="round" stroke-linejoin="miter" stroke-width="2"/>
      </g>
      <g id="Line_13">
        <path d="M 655.03125 444 L 655.03125 483.29256 L 317.75 483.29256 L 317.75 523" stroke="black" stroke-linecap="round" stroke-linejoin="miter" stroke-width="2"/>
      </g>
    </g>
  </g>
</svg>
