<?xml version="1.0" encoding="UTF-8" standalone="no"?>
<!DOCTYPE svg PUBLIC "-//W3C//DTD SVG 1.1//EN" "http://www.w3.org/Graphics/SVG/1.1/DTD/svg11.dtd">
<svg xmlns:xl="http://www.w3.org/1999/xlink" xmlns:dc="http://purl.org/dc/elements/1.1/" xmlns="http://www.w3.org/2000/svg" version="1.1" viewBox="78.5 266 562.5 292" width="562.5" height="292">
  <defs/>
  <g id="types_of_fields" fill-opacity="1" stroke-opacity="1" fill="none" stroke-dasharray="none" stroke="none">
    <title>types_of_fields</title>
    <rect fill="white" x="78.5" y="266" width="562.5" height="292"/>
    <g id="types_of_fields_Layer_1">
      <title>Layer 1</title>
      <g id="Graphic_2">
        <path d="M 218.5 266 L 344.5 266 C 351.1274 266 356.5 271.37258 356.5 278 L 356.5 286 C 356.5 292.6274 351.1274 298 344.5 298 L 218.5 298 C 211.87258 298 206.5 292.6274 206.5 286 L 206.5 278 C 206.5 271.37258 211.87258 266 218.5 266 Z" fill="#e9e9e9"/>
        <text transform="translate(211.5 271)" fill="black">
          <tspan font-family="Helvetica" font-size="18" fill="black" x="45.992676" y="18">Fields</tspan>
        </text>
      </g>
      <g id="Graphic_3">
        <text transform="translate(83.5 350)" fill="black">
          <tspan font-family="Helvetica" font-size="18" fill="black" x="14.976074" y="18">Fields with an </tspan>
          <tspan font-family="Helvetica" font-size="18" fill="black" x=".9619141" y="40">infinite number of </tspan>
          <tspan font-family="Helvetica" font-size="18" fill="black" x="33.481445" y="62">elements</tspan>
        </text>
      </g>
      <g id="Graphic_4">
        <text transform="translate(340.5 372)" fill="black">
          <tspan font-family="Helvetica" font-size="18" fill="black" x="24.481445" y="18">Finite fields</tspan>
        </text>
      </g>
      <g id="Graphic_5">
        <path d="M 218.5 451 L 370 451 C 376.6274 451 382 456.3726 382 463 L 382 543 C 382 549.6274 376.6274 555 370 555 L 218.5 555 C 211.87258 555 206.5 549.6274 206.5 543 L 206.5 463 C 206.5 456.3726 211.87258 451 218.5 451 Z" fill="#c0ffc0"/>
        <text transform="translate(211.5 456)" fill="black">
          <tspan font-family="Helvetica" font-size="18" fill="black" x="59.25244" y="18">GF(p)</tspan>
          <tspan font-family="Helvetica" font-size="18" fill="black" x="11.220215" y="66">Finite fields with p</tspan>
          <tspan font-family="Helvetica" font-size="12" fill="black" y="60"> </tspan>
          <tspan font-family="Helvetica" font-size="18" fill="black" y="66"> </tspan>
          <tspan font-family="Helvetica" font-size="18" fill="black" x="46.231445" y="90">elements</tspan>
        </text>
      </g>
      <g id="Graphic_6">
        <path d="M 472 454 L 629 454 C 635.6274 454 641 459.3726 641 466 L 641 546 C 641 552.6274 635.6274 558 629 558 L 472 558 C 465.3726 558 460 552.6274 460 546 L 460 466 C 460 459.3726 465.3726 454 472 454 Z" fill="#c0ffc0"/>
        <text transform="translate(465 465)" fill="black">
          <tspan font-family="Helvetica" font-size="18" fill="black" x="56.99707" y="24">GF(p</tspan>
          <tspan font-family="Helvetica" font-size="18" fill="black" y="18">n</tspan>
          <tspan font-family="Helvetica" font-size="18" fill="black" y="24">)</tspan>
          <tspan font-family="Helvetica" font-size="18" fill="black" x="8.964844" y="54">Finite fields with p</tspan>
          <tspan font-family="Helvetica" font-size="18" fill="black" y="48">n</tspan>
          <tspan font-family="Helvetica" font-size="18" fill="black" y="54"> </tspan>
          <tspan font-family="Helvetica" font-size="18" fill="black" x="48.981445" y="78">elements</tspan>
        </text>
      </g>
      <g id="Line_7">
        <line x1="301.93564" y1="298" x2="390.06436" y2="367" stroke="black" stroke-linecap="round" stroke-linejoin="round" stroke-width="2"/>
      </g>
      <g id="Line_8">
        <line x1="428.7114" y1="399" x2="491.313" y2="454" stroke="black" stroke-linecap="round" stroke-linejoin="round" stroke-width="2"/>
      </g>
      <g id="Line_9">
        <line x1="395" y1="399" x2="344.625" y2="451" stroke="black" stroke-linecap="round" stroke-linejoin="round" stroke-width="2"/>
      </g>
      <g id="Line_10">
        <line x1="261.22277" y1="298" x2="201.65842" y2="345" stroke="black" stroke-linecap="round" stroke-linejoin="round" stroke-width="2"/>
      </g>
    </g>
  </g>
</svg>
