<?xml version="1.0" encoding="UTF-8" standalone="no"?>
<!DOCTYPE svg PUBLIC "-//W3C//DTD SVG 1.1//EN" "http://www.w3.org/Graphics/SVG/1.1/DTD/svg11.dtd">
<svg xmlns:xl="http://www.w3.org/1999/xlink" xmlns:dc="http://purl.org/dc/elements/1.1/" xmlns="http://www.w3.org/2000/svg" version="1.1" viewBox="194 1576 875 278.9506" width="875" height="278.9506">
  <defs>
    <marker orient="auto" overflow="visible" markerUnits="strokeWidth" id="FilledArrow_Marker" stroke-linejoin="miter" stroke-miterlimit="10" viewBox="-1 -3 7 6" markerWidth="7" markerHeight="6" color="black">
      <g>
        <path d="M 4.8 0 L 0 -1.8 L 0 1.8 Z" fill="currentColor" stroke="currentColor" stroke-width="1"/>
      </g>
    </marker>
    <marker orient="auto" overflow="visible" markerUnits="strokeWidth" id="FilledArrow_Marker_2" stroke-linejoin="miter" stroke-miterlimit="10" viewBox="-1 -3 6 6" markerWidth="6" markerHeight="6" color="black">
      <g>
        <path d="M 3.7333333 0 L 0 -1.4 L 0 1.4 Z" fill="currentColor" stroke="currentColor" stroke-width="1"/>
      </g>
    </marker>
  </defs>
  <g id="shift_row_transformation" fill-opacity="1" stroke-opacity="1" fill="none" stroke-dasharray="none" stroke="none">
    <title>shift_row_transformation</title>
    <rect fill="white" x="194" y="1576" width="875" height="278.9506"/>
    <g id="shift_row_transformation_Layer_1">
      <title>Layer 1</title>
      <g id="Graphic_808">
        <rect x="194.5" y="1576.5" width="64" height="64" fill="#b4b4b4" fill-opacity=".29947917"/>
        <rect x="194.5" y="1576.5" width="64" height="64" stroke="black" stroke-linecap="round" stroke-linejoin="round" stroke-width="1"/>
        <text transform="translate(199.5 1594.5)" fill="black">
          <tspan font-family="Helvetica" font-size="20" fill="black" x="11.29419" y="19">S</tspan>
          <tspan font-family="Helvetica" font-size="13" fill="black" y="25">0,0</tspan>
        </text>
      </g>
      <g id="Graphic_823">
        <rect x="503.5" y="1729.6055" width="64" height="16.5" fill="#b4b4b4" fill-opacity=".29947917"/>
        <rect x="503.5" y="1729.6055" width="64" height="16.5" stroke="black" stroke-linecap="round" stroke-linejoin="round" stroke-width="1"/>
      </g>
      <g id="Graphic_821">
        <rect x="631.5" y="1729.6055" width="64" height="16.5" fill="#b4b4b4" fill-opacity=".29947917"/>
        <rect x="631.5" y="1729.6055" width="64" height="16.5" stroke="black" stroke-linecap="round" stroke-linejoin="round" stroke-width="1"/>
      </g>
      <g id="Graphic_820">
        <rect x="695.5" y="1729.6055" width="64" height="16.5" fill="#b4b4b4" fill-opacity=".29947917"/>
        <rect x="695.5" y="1729.6055" width="64" height="16.5" stroke="black" stroke-linecap="round" stroke-linejoin="round" stroke-width="1"/>
      </g>
      <g id="Graphic_822">
        <rect x="567.5" y="1729.6055" width="64" height="16.5" fill="#b4b4b4" fill-opacity=".29947917"/>
        <rect x="567.5" y="1729.6055" width="64" height="16.5" stroke="black" stroke-linecap="round" stroke-linejoin="round" stroke-width="1"/>
      </g>
      <g id="Graphic_881">
        <rect x="258.5" y="1576.5" width="64" height="64" fill="#b4b4b4" fill-opacity=".29947917"/>
        <rect x="258.5" y="1576.5" width="64" height="64" stroke="black" stroke-linecap="round" stroke-linejoin="round" stroke-width="1"/>
        <text transform="translate(263.5 1594.5)" fill="black">
          <tspan font-family="Helvetica" font-size="20" fill="black" x="11.29419" y="19">S</tspan>
          <tspan font-family="Helvetica" font-size="13" fill="black" y="25">0,1</tspan>
        </text>
      </g>
      <g id="Graphic_882">
        <rect x="322.5" y="1576.5" width="64" height="64" fill="#b4b4b4" fill-opacity=".29947917"/>
        <rect x="322.5" y="1576.5" width="64" height="64" stroke="black" stroke-linecap="round" stroke-linejoin="round" stroke-width="1"/>
        <text transform="translate(327.5 1594.5)" fill="black">
          <tspan font-family="Helvetica" font-size="20" fill="black" x="11.29419" y="19">S</tspan>
          <tspan font-family="Helvetica" font-size="13" fill="black" y="25">0,2</tspan>
        </text>
      </g>
      <g id="Graphic_883">
        <rect x="386.5" y="1576.5" width="64" height="64" fill="#b4b4b4" fill-opacity=".29947917"/>
        <rect x="386.5" y="1576.5" width="64" height="64" stroke="black" stroke-linecap="round" stroke-linejoin="round" stroke-width="1"/>
        <text transform="translate(391.5 1594.5)" fill="black">
          <tspan font-family="Helvetica" font-size="20" fill="black" x="11.29419" y="19">S</tspan>
          <tspan font-family="Helvetica" font-size="13" fill="black" y="25">0,3</tspan>
        </text>
      </g>
      <g id="Graphic_887">
        <rect x="194.5" y="1640.5" width="64" height="64" fill="#ccc"/>
        <rect x="194.5" y="1640.5" width="64" height="64" stroke="black" stroke-linecap="round" stroke-linejoin="round" stroke-width="1"/>
        <text transform="translate(199.5 1658.5)" fill="black">
          <tspan font-family="Helvetica" font-size="20" fill="black" x="11.29419" y="19">S</tspan>
          <tspan font-family="Helvetica" font-size="13" fill="black" y="25">1,0</tspan>
        </text>
      </g>
      <g id="Graphic_886">
        <rect x="258.5" y="1640.5" width="64" height="64" fill="#ccc"/>
        <rect x="258.5" y="1640.5" width="64" height="64" stroke="black" stroke-linecap="round" stroke-linejoin="round" stroke-width="1"/>
        <text transform="translate(263.5 1658.5)" fill="black">
          <tspan font-family="Helvetica" font-size="20" fill="black" x="11.29419" y="19">S</tspan>
          <tspan font-family="Helvetica" font-size="13" fill="black" y="25">1,1</tspan>
        </text>
      </g>
      <g id="Graphic_885">
        <rect x="322.5" y="1640.5" width="64" height="64" fill="#ccc"/>
        <rect x="322.5" y="1640.5" width="64" height="64" stroke="black" stroke-linecap="round" stroke-linejoin="round" stroke-width="1"/>
        <text transform="translate(327.5 1658.5)" fill="black">
          <tspan font-family="Helvetica" font-size="20" fill="black" x="11.29419" y="19">S</tspan>
          <tspan font-family="Helvetica" font-size="13" fill="black" y="25">1,2</tspan>
        </text>
      </g>
      <g id="Graphic_884">
        <rect x="386.5" y="1640.5" width="64" height="64" fill="#ccc"/>
        <rect x="386.5" y="1640.5" width="64" height="64" stroke="black" stroke-linecap="round" stroke-linejoin="round" stroke-width="1"/>
        <text transform="translate(391.5 1658.5)" fill="black">
          <tspan font-family="Helvetica" font-size="20" fill="black" x="11.29419" y="19">S</tspan>
          <tspan font-family="Helvetica" font-size="13" fill="black" y="25">1,3</tspan>
        </text>
      </g>
      <g id="Graphic_891">
        <rect x="194.5" y="1704.5" width="64" height="64" fill="#b4b4b4" fill-opacity=".29947917"/>
        <rect x="194.5" y="1704.5" width="64" height="64" stroke="black" stroke-linecap="round" stroke-linejoin="round" stroke-width="1"/>
        <text transform="translate(199.5 1722.5)" fill="black">
          <tspan font-family="Helvetica" font-size="20" fill="black" x="11.29419" y="19">S</tspan>
          <tspan font-family="Helvetica" font-size="13" fill="black" y="25">2,0</tspan>
        </text>
      </g>
      <g id="Graphic_890">
        <rect x="258.5" y="1704.5" width="64" height="64" fill="#b4b4b4" fill-opacity=".29947917"/>
        <rect x="258.5" y="1704.5" width="64" height="64" stroke="black" stroke-linecap="round" stroke-linejoin="round" stroke-width="1"/>
        <text transform="translate(263.5 1722.5)" fill="black">
          <tspan font-family="Helvetica" font-size="20" fill="black" x="11.29419" y="19">S</tspan>
          <tspan font-family="Helvetica" font-size="13" fill="black" y="25">2,1</tspan>
        </text>
      </g>
      <g id="Graphic_889">
        <rect x="322.5" y="1704.5" width="64" height="64" fill="#b4b4b4" fill-opacity=".29947917"/>
        <rect x="322.5" y="1704.5" width="64" height="64" stroke="black" stroke-linecap="round" stroke-linejoin="round" stroke-width="1"/>
        <text transform="translate(327.5 1722.5)" fill="black">
          <tspan font-family="Helvetica" font-size="20" fill="black" x="11.29419" y="19">S</tspan>
          <tspan font-family="Helvetica" font-size="13" fill="black" y="25">2,2</tspan>
        </text>
      </g>
      <g id="Graphic_888">
        <rect x="386.5" y="1704.5" width="64" height="64" fill="#b4b4b4" fill-opacity=".29947917"/>
        <rect x="386.5" y="1704.5" width="64" height="64" stroke="black" stroke-linecap="round" stroke-linejoin="round" stroke-width="1"/>
        <text transform="translate(391.5 1722.5)" fill="black">
          <tspan font-family="Helvetica" font-size="20" fill="black" x="11.29419" y="19">S</tspan>
          <tspan font-family="Helvetica" font-size="13" fill="black" y="25">2,3</tspan>
        </text>
      </g>
      <g id="Graphic_895">
        <rect x="194.5" y="1768.5" width="64" height="64" fill="#ccc"/>
        <rect x="194.5" y="1768.5" width="64" height="64" stroke="black" stroke-linecap="round" stroke-linejoin="round" stroke-width="1"/>
        <text transform="translate(199.5 1786.5)" fill="black">
          <tspan font-family="Helvetica" font-size="20" fill="black" x="11.29419" y="19">S</tspan>
          <tspan font-family="Helvetica" font-size="13" fill="black" y="25">3,0</tspan>
        </text>
      </g>
      <g id="Graphic_894">
        <rect x="258.5" y="1768.5" width="64" height="64" fill="#ccc"/>
        <rect x="258.5" y="1768.5" width="64" height="64" stroke="black" stroke-linecap="round" stroke-linejoin="round" stroke-width="1"/>
        <text transform="translate(263.5 1786.5)" fill="black">
          <tspan font-family="Helvetica" font-size="20" fill="black" x="11.29419" y="19">S</tspan>
          <tspan font-family="Helvetica" font-size="13" fill="black" y="25">3,1</tspan>
        </text>
      </g>
      <g id="Graphic_893">
        <rect x="322.5" y="1768.5" width="64" height="64" fill="#ccc"/>
        <rect x="322.5" y="1768.5" width="64" height="64" stroke="black" stroke-linecap="round" stroke-linejoin="round" stroke-width="1"/>
        <text transform="translate(327.5 1786.5)" fill="black">
          <tspan font-family="Helvetica" font-size="20" fill="black" x="11.29419" y="19">S</tspan>
          <tspan font-family="Helvetica" font-size="13" fill="black" y="25">3,2</tspan>
        </text>
      </g>
      <g id="Graphic_892">
        <rect x="386.5" y="1768.5" width="64" height="64" fill="#ccc"/>
        <rect x="386.5" y="1768.5" width="64" height="64" stroke="black" stroke-linecap="round" stroke-linejoin="round" stroke-width="1"/>
        <text transform="translate(391.5 1786.5)" fill="black">
          <tspan font-family="Helvetica" font-size="20" fill="black" x="11.29419" y="19">S</tspan>
          <tspan font-family="Helvetica" font-size="13" fill="black" y="25">3,3</tspan>
        </text>
      </g>
      <g id="Graphic_911">
        <rect x="812.5" y="1576.5" width="64" height="64" fill="#b4b4b4" fill-opacity=".29947917"/>
        <rect x="812.5" y="1576.5" width="64" height="64" stroke="black" stroke-linecap="round" stroke-linejoin="round" stroke-width="1"/>
        <text transform="translate(817.5 1594.5)" fill="black">
          <tspan font-family="Helvetica" font-size="20" fill="black" x="11.29419" y="19">S</tspan>
          <tspan font-family="Helvetica" font-size="13" fill="black" y="25">0,0</tspan>
        </text>
      </g>
      <g id="Graphic_910">
        <rect x="876.5" y="1576.5" width="64" height="64" fill="#b4b4b4" fill-opacity=".29947917"/>
        <rect x="876.5" y="1576.5" width="64" height="64" stroke="black" stroke-linecap="round" stroke-linejoin="round" stroke-width="1"/>
        <text transform="translate(881.5 1594.5)" fill="black">
          <tspan font-family="Helvetica" font-size="20" fill="black" x="11.29419" y="19">S</tspan>
          <tspan font-family="Helvetica" font-size="13" fill="black" y="25">0,1</tspan>
        </text>
      </g>
      <g id="Graphic_909">
        <rect x="940.5" y="1576.5" width="64" height="64" fill="#b4b4b4" fill-opacity=".29947917"/>
        <rect x="940.5" y="1576.5" width="64" height="64" stroke="black" stroke-linecap="round" stroke-linejoin="round" stroke-width="1"/>
        <text transform="translate(945.5 1594.5)" fill="black">
          <tspan font-family="Helvetica" font-size="20" fill="black" x="11.29419" y="19">S</tspan>
          <tspan font-family="Helvetica" font-size="13" fill="black" y="25">0,2</tspan>
        </text>
      </g>
      <g id="Graphic_908">
        <rect x="1004.5" y="1576.5" width="64" height="64" fill="#b4b4b4" fill-opacity=".29947917"/>
        <rect x="1004.5" y="1576.5" width="64" height="64" stroke="black" stroke-linecap="round" stroke-linejoin="round" stroke-width="1"/>
        <text transform="translate(1009.5 1594.5)" fill="black">
          <tspan font-family="Helvetica" font-size="20" fill="black" x="11.29419" y="19">S</tspan>
          <tspan font-family="Helvetica" font-size="13" fill="black" y="25">0,3</tspan>
        </text>
      </g>
      <g id="Graphic_907">
        <rect x="1004.5" y="1640.5" width="64" height="64" fill="#ccc"/>
        <rect x="1004.5" y="1640.5" width="64" height="64" stroke="black" stroke-linecap="round" stroke-linejoin="round" stroke-width="1"/>
        <text transform="translate(1009.5 1658.5)" fill="black">
          <tspan font-family="Helvetica" font-size="20" fill="black" x="11.29419" y="19">S</tspan>
          <tspan font-family="Helvetica" font-size="13" fill="black" y="25">1,0</tspan>
        </text>
      </g>
      <g id="Graphic_906">
        <rect x="812.5" y="1640.5" width="64" height="64" fill="#ccc"/>
        <rect x="812.5" y="1640.5" width="64" height="64" stroke="black" stroke-linecap="round" stroke-linejoin="round" stroke-width="1"/>
        <text transform="translate(817.5 1658.5)" fill="black">
          <tspan font-family="Helvetica" font-size="20" fill="black" x="11.29419" y="19">S</tspan>
          <tspan font-family="Helvetica" font-size="13" fill="black" y="25">1,1</tspan>
        </text>
      </g>
      <g id="Graphic_905">
        <rect x="876.5" y="1640.5" width="64" height="64" fill="#ccc"/>
        <rect x="876.5" y="1640.5" width="64" height="64" stroke="black" stroke-linecap="round" stroke-linejoin="round" stroke-width="1"/>
        <text transform="translate(881.5 1658.5)" fill="black">
          <tspan font-family="Helvetica" font-size="20" fill="black" x="11.29419" y="19">S</tspan>
          <tspan font-family="Helvetica" font-size="13" fill="black" y="25">1,2</tspan>
        </text>
      </g>
      <g id="Graphic_904">
        <rect x="940.5" y="1640" width="64" height="64" fill="#ccc"/>
        <rect x="940.5" y="1640" width="64" height="64" stroke="black" stroke-linecap="round" stroke-linejoin="round" stroke-width="1"/>
        <text transform="translate(945.5 1658)" fill="black">
          <tspan font-family="Helvetica" font-size="20" fill="black" x="11.29419" y="19">S</tspan>
          <tspan font-family="Helvetica" font-size="13" fill="black" y="25">1,3</tspan>
        </text>
      </g>
      <g id="Graphic_903">
        <rect x="940.5" y="1704.25" width="64" height="64" fill="#b4b4b4" fill-opacity=".29947917"/>
        <rect x="940.5" y="1704.25" width="64" height="64" stroke="black" stroke-linecap="round" stroke-linejoin="round" stroke-width="1"/>
        <text transform="translate(945.5 1722.25)" fill="black">
          <tspan font-family="Helvetica" font-size="20" fill="black" x="11.29419" y="19">S</tspan>
          <tspan font-family="Helvetica" font-size="13" fill="black" y="25">2,0</tspan>
        </text>
      </g>
      <g id="Graphic_902">
        <rect x="1004.5" y="1704.25" width="64" height="64" fill="#b4b4b4" fill-opacity=".29947917"/>
        <rect x="1004.5" y="1704.25" width="64" height="64" stroke="black" stroke-linecap="round" stroke-linejoin="round" stroke-width="1"/>
        <text transform="translate(1009.5 1722.25)" fill="black">
          <tspan font-family="Helvetica" font-size="20" fill="black" x="11.29419" y="19">S</tspan>
          <tspan font-family="Helvetica" font-size="13" fill="black" y="25">2,1</tspan>
        </text>
      </g>
      <g id="Graphic_901">
        <rect x="812.5" y="1704.25" width="64" height="64" fill="#b4b4b4" fill-opacity=".29947917"/>
        <rect x="812.5" y="1704.25" width="64" height="64" stroke="black" stroke-linecap="round" stroke-linejoin="round" stroke-width="1"/>
        <text transform="translate(817.5 1722.25)" fill="black">
          <tspan font-family="Helvetica" font-size="20" fill="black" x="11.29419" y="19">S</tspan>
          <tspan font-family="Helvetica" font-size="13" fill="black" y="25">2,2</tspan>
        </text>
      </g>
      <g id="Graphic_900">
        <rect x="876.5" y="1704.25" width="64" height="64" fill="#b4b4b4" fill-opacity=".29947917"/>
        <rect x="876.5" y="1704.25" width="64" height="64" stroke="black" stroke-linecap="round" stroke-linejoin="round" stroke-width="1"/>
        <text transform="translate(881.5 1722.25)" fill="black">
          <tspan font-family="Helvetica" font-size="20" fill="black" x="11.29419" y="19">S</tspan>
          <tspan font-family="Helvetica" font-size="13" fill="black" y="25">2,3</tspan>
        </text>
      </g>
      <g id="Graphic_899">
        <rect x="876.5" y="1768.5" width="64" height="64" fill="#ccc"/>
        <rect x="876.5" y="1768.5" width="64" height="64" stroke="black" stroke-linecap="round" stroke-linejoin="round" stroke-width="1"/>
        <text transform="translate(881.5 1786.5)" fill="black">
          <tspan font-family="Helvetica" font-size="20" fill="black" x="11.29419" y="19">S</tspan>
          <tspan font-family="Helvetica" font-size="13" fill="black" y="25">3,0</tspan>
        </text>
      </g>
      <g id="Graphic_898">
        <rect x="940.5" y="1768.5" width="64" height="64" fill="#ccc"/>
        <rect x="940.5" y="1768.5" width="64" height="64" stroke="black" stroke-linecap="round" stroke-linejoin="round" stroke-width="1"/>
        <text transform="translate(945.5 1786.5)" fill="black">
          <tspan font-family="Helvetica" font-size="20" fill="black" x="11.29419" y="19">S</tspan>
          <tspan font-family="Helvetica" font-size="13" fill="black" y="25">3,1</tspan>
        </text>
      </g>
      <g id="Graphic_897">
        <rect x="1004.5" y="1768.5" width="64" height="64" fill="#ccc"/>
        <rect x="1004.5" y="1768.5" width="64" height="64" stroke="black" stroke-linecap="round" stroke-linejoin="round" stroke-width="1"/>
        <text transform="translate(1009.5 1786.5)" fill="black">
          <tspan font-family="Helvetica" font-size="20" fill="black" x="11.29419" y="19">S</tspan>
          <tspan font-family="Helvetica" font-size="13" fill="black" y="25">3,2</tspan>
        </text>
      </g>
      <g id="Graphic_896">
        <rect x="812.5" y="1768.5" width="64" height="64" fill="#ccc"/>
        <rect x="812.5" y="1768.5" width="64" height="64" stroke="black" stroke-linecap="round" stroke-linejoin="round" stroke-width="1"/>
        <text transform="translate(817.5 1786.5)" fill="black">
          <tspan font-family="Helvetica" font-size="20" fill="black" x="11.29419" y="19">S</tspan>
          <tspan font-family="Helvetica" font-size="13" fill="black" y="25">3,3</tspan>
        </text>
      </g>
      <g id="Graphic_915">
        <rect x="503.5" y="1664" width="64" height="16.5" fill="#ccc"/>
        <rect x="503.5" y="1664" width="64" height="16.5" stroke="black" stroke-linecap="round" stroke-linejoin="round" stroke-width="1"/>
      </g>
      <g id="Graphic_914">
        <rect x="631.5" y="1664" width="64" height="16.5" fill="#ccc"/>
        <rect x="631.5" y="1664" width="64" height="16.5" stroke="black" stroke-linecap="round" stroke-linejoin="round" stroke-width="1"/>
      </g>
      <g id="Graphic_913">
        <rect x="695.5" y="1664" width="64" height="16.5" fill="#ccc"/>
        <rect x="695.5" y="1664" width="64" height="16.5" stroke="black" stroke-linecap="round" stroke-linejoin="round" stroke-width="1"/>
      </g>
      <g id="Graphic_912">
        <rect x="567.5" y="1664" width="64" height="16.5" fill="#ccc"/>
        <rect x="567.5" y="1664" width="64" height="16.5" stroke="black" stroke-linecap="round" stroke-linejoin="round" stroke-width="1"/>
      </g>
      <g id="Graphic_919">
        <rect x="503.5" y="1792" width="64" height="16.5" fill="#ccc"/>
        <rect x="503.5" y="1792" width="64" height="16.5" stroke="black" stroke-linecap="round" stroke-linejoin="round" stroke-width="1"/>
      </g>
      <g id="Graphic_918">
        <rect x="631.5" y="1792" width="64" height="16.5" fill="#ccc"/>
        <rect x="631.5" y="1792" width="64" height="16.5" stroke="black" stroke-linecap="round" stroke-linejoin="round" stroke-width="1"/>
      </g>
      <g id="Graphic_917">
        <rect x="695.5" y="1792" width="64" height="16.5" fill="#ccc"/>
        <rect x="695.5" y="1792" width="64" height="16.5" stroke="black" stroke-linecap="round" stroke-linejoin="round" stroke-width="1"/>
      </g>
      <g id="Graphic_916">
        <rect x="567.5" y="1792" width="64" height="16.5" fill="#ccc"/>
        <rect x="567.5" y="1792" width="64" height="16.5" stroke="black" stroke-linecap="round" stroke-linejoin="round" stroke-width="1"/>
      </g>
      <g id="Line_920">
        <path d="M 723.1543 1664 C 717.6831 1654.7246 707.5298 1640.9434 695.5 1640.9434 C 687.6806 1640.9434 680.6541 1646.766 675.1908 1653.389" marker-end="url(#FilledArrow_Marker)" stroke="black" stroke-linecap="round" stroke-linejoin="round" stroke-width="2"/>
      </g>
      <g id="Line_921">
        <path d="M 659.2122 1664 C 653.7549 1654.6122 643.5724 1640.566 631.5 1640.566 C 623.6105 1640.566 616.52815 1646.565 611.0443 1653.3421" marker-end="url(#FilledArrow_Marker)" stroke="black" stroke-linecap="round" stroke-linejoin="round" stroke-width="2"/>
      </g>
      <g id="Line_922">
        <path d="M 595.2122 1664 C 589.7549 1654.6122 579.5724 1640.566 567.5 1640.566 C 559.6105 1640.566 552.52815 1646.565 547.0443 1653.3421" marker-end="url(#FilledArrow_Marker)" stroke="black" stroke-linecap="round" stroke-linejoin="round" stroke-width="2"/>
      </g>
      <g id="Line_923">
        <path d="M 533.8377 1664 C 532.7955 1652.48 535.8414 1631.85 567.5 1621.6981 C 612.8288 1607.1627 650.1712 1606.6218 695.5 1620.9434 C 717.5912 1627.923 725.7504 1640.2857 728.3102 1651.1266" marker-end="url(#FilledArrow_Marker)" stroke="black" stroke-linecap="round" stroke-linejoin="round" stroke-width="2"/>
      </g>
      <g id="Line_924">
        <path d="M 655.3395 1729.6055 C 644.4729 1719.7278 623.7472 1704.5 599.2453 1704.5 C 580.9598 1704.5 564.90694 1712.981 553.4845 1721.3902" marker-end="url(#FilledArrow_Marker)" stroke="black" stroke-linecap="round" stroke-linejoin="round" stroke-width="2"/>
      </g>
      <g id="Line_925">
        <path d="M 720.0302 1729.6055 C 709.9905 1719.7278 690.5396 1704.5 666.0377 1704.5 C 647.5273 1704.5 630.5772 1713.191 618.41754 1721.7004" marker-end="url(#FilledArrow_Marker)" stroke="black" stroke-linecap="round" stroke-linejoin="round" stroke-width="2"/>
      </g>
      <g id="Line_926">
        <path d="M 544.02875 1746.1055 C 554.60923 1755.182 574.2072 1768.5 598.1132 1768.5 C 615.90266 1768.5 631.974 1761.1252 643.7318 1753.6113" marker-end="url(#FilledArrow_Marker)" stroke="black" stroke-linecap="round" stroke-linejoin="round" stroke-width="2"/>
      </g>
      <g id="Line_927">
        <path d="M 609.898 1746.1055 C 622.53505 1755.182 645.1506 1768.5 669.0566 1768.5 C 686.2204 1768.5 700.2293 1761.6348 710.2247 1754.4033" marker-end="url(#FilledArrow_Marker)" stroke="black" stroke-linecap="round" stroke-linejoin="round" stroke-width="2"/>
      </g>
      <g id="Line_928">
        <path d="M 539.62956 1808.5 C 545.0468 1818.2072 555.30995 1833.0189 567.5 1833.0189 C 575.5735 1833.0189 582.8018 1826.5218 588.33686 1819.3136" marker-end="url(#FilledArrow_Marker)" stroke="black" stroke-linecap="round" stroke-linejoin="round" stroke-width="2"/>
      </g>
      <g id="Line_929">
        <path d="M 603.5772 1808.5 C 608.9805 1818.317 619.2706 1833.3962 631.5 1833.3962 C 639.63544 1833.3962 646.9126 1826.7231 652.4639 1819.3652" marker-end="url(#FilledArrow_Marker)" stroke="black" stroke-linecap="round" stroke-linejoin="round" stroke-width="2"/>
      </g>
      <g id="Line_930">
        <path d="M 665.5 1809.5 C 665.5 1809.5 678.8016 1834.0569 695.5 1833.7736 C 706.7845 1833.5821 711.8941 1826.4448 716.819 1818.9057" marker-end="url(#FilledArrow_Marker)" stroke="black" stroke-linecap="round" stroke-linejoin="round" stroke-width="2"/>
      </g>
      <g id="Line_931">
        <path d="M 729.2357 1808.5 C 730.024 1818.9685 726.3239 1836.6732 695.5 1845.0943 C 650.1712 1857.4782 612.8288 1856.667 567.5 1843.9623 C 547.9269 1838.4764 539.29073 1829.5778 535.79576 1821.2367" marker-end="url(#FilledArrow_Marker)" stroke="black" stroke-linecap="round" stroke-linejoin="round" stroke-width="2"/>
      </g>
      <g id="Line_933">
        <line x1="759.5" y1="1672.3184" x2="799.75" y2="1672.4044" marker-end="url(#FilledArrow_Marker_2)" stroke="black" stroke-linecap="round" stroke-linejoin="round" stroke-width="3"/>
      </g>
      <g id="Line_934">
        <line x1="759.5" y1="1800.3184" x2="799.75" y2="1800.4044" marker-end="url(#FilledArrow_Marker_2)" stroke="black" stroke-linecap="round" stroke-linejoin="round" stroke-width="3"/>
      </g>
      <g id="Line_935">
        <line x1="759.5" y1="1737.4164" x2="799.7512" y2="1736.864" marker-end="url(#FilledArrow_Marker_2)" stroke="black" stroke-linecap="round" stroke-linejoin="round" stroke-width="3"/>
      </g>
      <g id="Line_936">
        <line x1="450.5" y1="1672.5" x2="490.75006" y2="1672.3816" marker-end="url(#FilledArrow_Marker_2)" stroke="black" stroke-linecap="round" stroke-linejoin="round" stroke-width="3"/>
      </g>
      <g id="Line_937">
        <line x1="450.5" y1="1736.5" x2="490.7516" y2="1737.1419" marker-end="url(#FilledArrow_Marker_2)" stroke="black" stroke-linecap="round" stroke-linejoin="round" stroke-width="3"/>
      </g>
      <g id="Line_938">
        <line x1="450.5" y1="1800.5" x2="490.75006" y2="1800.3816" marker-end="url(#FilledArrow_Marker_2)" stroke="black" stroke-linecap="round" stroke-linejoin="round" stroke-width="3"/>
      </g>
    </g>
  </g>
</svg>
