<?xml version="1.0" encoding="UTF-8" standalone="no"?>
<!DOCTYPE svg PUBLIC "-//W3C//DTD SVG 1.1//EN" "http://www.w3.org/Graphics/SVG/1.1/DTD/svg11.dtd">
<svg xmlns:xl="http://www.w3.org/1999/xlink" xmlns:dc="http://purl.org/dc/elements/1.1/" xmlns="http://www.w3.org/2000/svg" version="1.1" viewBox="50 484 1022 497" width="1022" height="497">
  <defs>
    <marker orient="auto" overflow="visible" markerUnits="strokeWidth" id="FilledArrow_Marker" stroke-linejoin="miter" stroke-miterlimit="10" viewBox="-1 -3 7 6" markerWidth="7" markerHeight="6" color="black">
      <g>
        <path d="M 4.8 0 L 0 -1.8 L 0 1.8 Z" fill="currentColor" stroke="currentColor" stroke-width="1"/>
      </g>
    </marker>
    <marker orient="auto" overflow="visible" markerUnits="strokeWidth" id="FilledArrow_Marker_2" stroke-linejoin="miter" stroke-miterlimit="10" viewBox="-1 -3 7 6" markerWidth="7" markerHeight="6" color="black">
      <g>
        <path d="M 4.8 0 L 0 -1.8 L 0 1.8 Z" fill="currentColor" stroke="currentColor" stroke-width="1"/>
      </g>
    </marker>
  </defs>
  <g id="tripple_encryption" fill-opacity="1" stroke-opacity="1" fill="none" stroke-dasharray="none" stroke="none">
    <title>tripple_encryption</title>
    <rect fill="white" x="50" y="484" width="1022" height="497"/>
    <g id="tripple_encryption_Layer_1">
      <title>Layer 1</title>
      <g id="Line_42">
        <path d="M 545.75 758 L 545.75 772.0197 L 545.75 797.1" marker-end="url(#FilledArrow_Marker)" stroke="black" stroke-linecap="round" stroke-linejoin="round" stroke-width="2"/>
      </g>
      <g id="Graphic_23">
        <text transform="translate(55.5 585.5)" fill="black">
          <tspan font-family="Helvetica" font-style="italic" font-size="28" fill="black" x="10.66211" y="28">P</tspan>
        </text>
      </g>
      <g id="Graphic_18">
        <text transform="translate(354.35938 562)" fill="black">
          <tspan font-family="Helvetica" font-style="italic" font-size="28" fill="black" x="30.427734" y="28">A</tspan>
        </text>
      </g>
      <g id="Graphic_13">
        <path d="M 168 810 L 317 810 C 322.52285 810 327 814.4772 327 820 L 327 905 C 327 910.5228 322.52285 915 317 915 L 168 915 C 162.47715 915 158 910.5228 158 905 L 158 820 C 158 814.4772 162.47715 810 168 810 Z" fill="#c0c0ff"/>
        <text transform="translate(163 845.5)" fill="black">
          <tspan font-family="Helvetica" font-size="28" fill="black" x="69.38965" y="28">D</tspan>
        </text>
      </g>
      <g id="Graphic_12">
        <path d="M 168 550 L 317 550 C 322.52285 550 327 554.47715 327 560 L 327 645 C 327 650.52285 322.52285 655 317 655 L 168 655 C 162.47715 655 158 650.52285 158 645 L 158 560 C 158 554.47715 162.47715 550 168 550 Z" fill="#f7788a"/>
        <text transform="translate(163 585.5)" fill="black">
          <tspan font-family="Helvetica" font-size="28" fill="black" x="70.16211" y="28">E</tspan>
        </text>
      </g>
      <g id="Line_8">
        <line x1="327" y1="862.5" x2="448.35" y2="862.5" marker-end="url(#FilledArrow_Marker_2)" stroke="black" stroke-linecap="round" stroke-linejoin="round" stroke-width="2"/>
      </g>
      <g id="Graphic_27">
        <path d="M 774.5 550 L 923.5 550 C 929.0228 550 933.5 554.47715 933.5 560 L 933.5 645 C 933.5 650.52285 929.0228 655 923.5 655 L 774.5 655 C 768.97715 655 764.5 650.52285 764.5 645 L 764.5 560 C 764.5 554.47715 768.97715 550 774.5 550 Z" fill="#f7788a"/>
        <text transform="translate(769.5 585.5)" fill="black">
          <tspan font-family="Helvetica" font-size="28" fill="black" x="70.16211" y="28">E</tspan>
        </text>
      </g>
      <g id="Graphic_29">
        <path d="M 774.5 810 L 923.5 810 C 929.0228 810 933.5 814.4772 933.5 820 L 933.5 905 C 933.5 910.5228 929.0228 915 923.5 915 L 774.5 915 C 768.97715 915 764.5 910.5228 764.5 905 L 764.5 820 C 764.5 814.4772 768.97715 810 774.5 810 Z" fill="#c0c0ff"/>
        <text transform="translate(769.5 845.5)" fill="black">
          <tspan font-family="Helvetica" font-size="28" fill="black" x="69.38965" y="28">D</tspan>
        </text>
      </g>
      <g id="Line_30">
        <line x1="327" y1="602.5" x2="448.35" y2="602.5" marker-end="url(#FilledArrow_Marker_2)" stroke="black" stroke-linecap="round" stroke-linejoin="round" stroke-width="2"/>
      </g>
      <g id="Graphic_31">
        <text transform="translate(354.35938 823)" fill="black">
          <tspan font-family="Helvetica" font-style="italic" font-size="28" fill="black" x="30.427734" y="28">B</tspan>
        </text>
      </g>
      <g id="Graphic_32">
        <text transform="translate(985.5 845.5)" fill="black">
          <tspan font-family="Helvetica" font-style="italic" font-size="28" fill="black" x="10.66211" y="28">P</tspan>
        </text>
      </g>
      <g id="Graphic_33">
        <text transform="translate(985.5 585.5)" fill="black">
          <tspan font-family="Helvetica" font-style="italic" font-size="28" fill="black" x="9.889648" y="28">C</tspan>
        </text>
      </g>
      <g id="Graphic_34">
        <text transform="translate(55.5 845.5)" fill="black">
          <tspan font-family="Helvetica" font-style="italic" font-size="28" fill="black" x="9.889648" y="28">C</tspan>
        </text>
      </g>
      <g id="Graphic_35">
        <text transform="translate(409.75 489.5)" fill="black">
          <tspan font-family="Helvetica" font-size="28" fill="black" x="69.85547" y="28">Encryption</tspan>
        </text>
      </g>
      <g id="Graphic_36">
        <text transform="translate(409.75 941.5)" fill="black">
          <tspan font-family="Helvetica" font-size="28" fill="black" x="69.08301" y="28">Decryption</tspan>
        </text>
      </g>
      <g id="Graphic_37">
        <text transform="translate(222.5 712)" fill="black">
          <tspan font-family="Helvetica" font-style="italic" font-size="28" fill="black" x="5.378662" y="28">K</tspan>
          <tspan font-family="Helvetica" font-style="italic" font-size="19" fill="black" y="37">1</tspan>
        </text>
      </g>
      <g id="Graphic_38">
        <text transform="translate(525.75 712)" fill="black">
          <tspan font-family="Helvetica" font-style="italic" font-size="28" fill="black" x="5.378662" y="28">K</tspan>
          <tspan font-family="Helvetica" font-style="italic" font-size="19" fill="black" y="37">2</tspan>
        </text>
      </g>
      <g id="Line_39">
        <line x1="242.5" y1="707" x2="242.5" y2="667.9" marker-end="url(#FilledArrow_Marker)" stroke="black" stroke-linecap="round" stroke-linejoin="round" stroke-width="2"/>
      </g>
      <g id="Line_40">
        <line x1="267.5" y1="736.2939" x2="755.4007" y2="810.3352" marker-end="url(#FilledArrow_Marker)" stroke="black" stroke-linecap="round" stroke-linejoin="round" stroke-width="2"/>
      </g>
      <g id="Line_41">
        <line x1="545.75" y1="707" x2="545.75" y2="667.9" marker-end="url(#FilledArrow_Marker)" stroke="black" stroke-linecap="round" stroke-linejoin="round" stroke-width="2"/>
      </g>
      <g id="Graphic_43">
        <path d="M 471.25 550 L 620.25 550 C 625.77285 550 630.25 554.47715 630.25 560 L 630.25 645 C 630.25 650.52285 625.77285 655 620.25 655 L 471.25 655 C 465.72715 655 461.25 650.52285 461.25 645 L 461.25 560 C 461.25 554.47715 465.72715 550 471.25 550 Z" fill="#c0c0ff"/>
        <text transform="translate(466.25 585.5)" fill="black">
          <tspan font-family="Helvetica" font-size="28" fill="black" x="69.38965" y="28">D</tspan>
        </text>
      </g>
      <g id="Graphic_44">
        <path d="M 471.25 810 L 620.25 810 C 625.77285 810 630.25 814.4772 630.25 820 L 630.25 905 C 630.25 910.5228 625.77285 915 620.25 915 L 471.25 915 C 465.72715 915 461.25 910.5228 461.25 905 L 461.25 820 C 461.25 814.4772 465.72715 810 471.25 810 Z" fill="#f7788a"/>
        <text transform="translate(466.25 845.5)" fill="black">
          <tspan font-family="Helvetica" font-size="28" fill="black" x="70.16211" y="28">E</tspan>
        </text>
      </g>
      <g id="Graphic_45">
        <text transform="translate(799.25 712)" fill="black">
          <tspan font-family="Helvetica" font-style="italic" font-size="28" fill="black" x="1.5300293" y="28">K</tspan>
          <tspan font-family="Helvetica" font-style="italic" font-size="19" fill="black" y="37">1 </tspan>
          <tspan font-family="Helvetica" font-style="italic" font-size="28" fill="black" y="28">or K</tspan>
          <tspan font-family="Helvetica" font-style="italic" font-size="19" fill="black" y="37">3</tspan>
        </text>
      </g>
      <g id="Line_46">
        <line x1="630.25" y1="602.5" x2="751.6" y2="602.5" marker-end="url(#FilledArrow_Marker_2)" stroke="black" stroke-linecap="round" stroke-linejoin="round" stroke-width="2"/>
      </g>
      <g id="Line_47">
        <line x1="630.25" y1="862.5" x2="751.6" y2="862.5" marker-end="url(#FilledArrow_Marker_2)" stroke="black" stroke-linecap="round" stroke-linejoin="round" stroke-width="2"/>
      </g>
      <g id="Line_48">
        <line x1="849" y1="707" x2="849" y2="667.9" marker-end="url(#FilledArrow_Marker)" stroke="black" stroke-linecap="round" stroke-linejoin="round" stroke-width="2"/>
      </g>
      <g id="Line_49">
        <path d="M 794.25 740.8086 L 552.1764 777.5444 C 551.2012 771.118 538.34834 773.0685 539.3236 779.4949 L 336.0993 810.3352" marker-end="url(#FilledArrow_Marker)" stroke="black" stroke-linecap="round" stroke-linejoin="round" stroke-width="2"/>
      </g>
      <g id="Line_50">
        <line x1="100.5" y1="602.5" x2="145.1" y2="602.5" marker-end="url(#FilledArrow_Marker)" stroke="black" stroke-linecap="round" stroke-linejoin="round" stroke-width="2"/>
      </g>
      <g id="Line_51">
        <line x1="100.5" y1="862.5" x2="145.1" y2="862.5" marker-end="url(#FilledArrow_Marker)" stroke="black" stroke-linecap="round" stroke-linejoin="round" stroke-width="2"/>
      </g>
      <g id="Line_52">
        <line x1="933.5" y1="862.5" x2="967.6" y2="862.5" marker-end="url(#FilledArrow_Marker)" stroke="black" stroke-linecap="round" stroke-linejoin="round" stroke-width="2"/>
      </g>
      <g id="Line_53">
        <line x1="933.5" y1="602.5" x2="967.6" y2="602.5" marker-end="url(#FilledArrow_Marker)" stroke="black" stroke-linecap="round" stroke-linejoin="round" stroke-width="2"/>
      </g>
      <g id="Graphic_54">
        <text transform="translate(657.6094 823)" fill="black">
          <tspan font-family="Helvetica" font-style="italic" font-size="28" fill="black" x="30.427734" y="28">A</tspan>
        </text>
      </g>
      <g id="Graphic_55">
        <text transform="translate(657.6094 562)" fill="black">
          <tspan font-family="Helvetica" font-style="italic" font-size="28" fill="black" x="30.427734" y="28">B</tspan>
        </text>
      </g>
      <g id="Graphic_56">
        <text transform="translate(919.5 700.5)" fill="black">
          <tspan font-family="Helvetica" font-style="italic" font-size="28" fill="black" x="22.48047" y="28">K</tspan>
          <tspan font-family="Helvetica" font-style="italic" font-size="19" fill="black" y="37">1 </tspan>
          <tspan font-family="Helvetica" font-style="italic" font-size="28" fill="black" y="28">if 2-key</tspan>
          <tspan font-family="Helvetica" font-style="italic" font-size="28" fill="black" x="7.350586" y="69"> K</tspan>
          <tspan font-family="Helvetica" font-style="italic" font-size="19" fill="black" y="78">3 </tspan>
          <tspan font-family="Helvetica" font-style="italic" font-size="28" fill="black" y="69">if 3-key</tspan>
        </text>
      </g>
    </g>
  </g>
</svg>
