<?xml version="1.0" encoding="UTF-8" standalone="no"?>
<!DOCTYPE svg PUBLIC "-//W3C//DTD SVG 1.1//EN" "http://www.w3.org/Graphics/SVG/1.1/DTD/svg11.dtd">
<svg xmlns:xl="http://www.w3.org/1999/xlink" xmlns:dc="http://purl.org/dc/elements/1.1/" xmlns="http://www.w3.org/2000/svg" version="1.1" viewBox="-1009 581 1377 540" width="1377" height="540">
  <defs>
    <marker orient="auto" overflow="visible" markerUnits="strokeWidth" id="FilledArrow_Marker" stroke-linejoin="miter" stroke-miterlimit="10" viewBox="-1 -3 7 6" markerWidth="7" markerHeight="6" color="black">
      <g>
        <path d="M 4.8 0 L 0 -1.8 L 0 1.8 Z" fill="currentColor" stroke="currentColor" stroke-width="1"/>
      </g>
    </marker>
  </defs>
  <g id="tweakable_block_cipher" fill-opacity="1" stroke-opacity="1" fill="none" stroke-dasharray="none" stroke="none">
    <title>tweakable_block_cipher</title>
    <rect fill="white" x="-1009" y="581" width="1377" height="540"/>
    <g id="tweakable_block_cipher_Layer_1">
      <title>Layer 1</title>
      <g id="Graphic_193">
        <text transform="translate(-409 816.741)" fill="black">
          <tspan font-family="Helvetica" font-size="20" fill="black" x="2.2685547" y="19">Key</tspan>
        </text>
      </g>
      <g id="Graphic_203">
        <path d="M -702.5 581.4955 L -470.5 581.4955 C -463.8726 581.4955 -458.5 586.8681 -458.5 593.4955 L -458.5 619.9865 C -458.5 626.6139 -463.8726 631.9865 -470.5 631.9865 L -702.5 631.9865 C -709.1274 631.9865 -714.5 626.6139 -714.5 619.9865 L -714.5 593.4955 C -714.5 586.8681 -709.1274 581.4955 -702.5 581.4955 Z" fill="#b4b4b4" fill-opacity=".29947917"/>
        <text transform="translate(-709.5 592.741)" fill="black">
          <tspan font-family="Helvetica" font-size="20" fill="black" x="114.88599" y="19">P</tspan>
          <tspan font-family="Helvetica" font-size="13" fill="black" y="25">j</tspan>
        </text>
      </g>
      <g id="Graphic_205">
        <path d="M -997 581.4955 L -765 581.4955 C -758.3726 581.4955 -753 586.8681 -753 593.4955 L -753 619.9865 C -753 626.6139 -758.3726 631.9865 -765 631.9865 L -997 631.9865 C -1003.6274 631.9865 -1009 626.6139 -1009 619.9865 L -1009 593.4955 C -1009 586.8681 -1003.6274 581.4955 -997 581.4955 Z" fill="#b4b4b4" fill-opacity=".29947917"/>
        <text transform="translate(-1004 592.741)" fill="black">
          <tspan font-family="Helvetica" font-size="20" fill="black" x="115.44751" y="19">T</tspan>
          <tspan font-family="Helvetica" font-size="13" fill="black" y="25">j</tspan>
        </text>
      </g>
      <g id="Group_210">
        <g id="Graphic_213">
          <circle cx="-586.5" cy="940.9307" r="21.2500339554152" stroke="black" stroke-linecap="round" stroke-linejoin="round" stroke-width="2"/>
        </g>
        <g id="Line_212">
          <line x1="-607.75" y1="940.8514" x2="-565.6629" y2="940.8514" stroke="black" stroke-linecap="round" stroke-linejoin="round" stroke-width="2"/>
        </g>
        <g id="Line_211">
          <line x1="-587" y1="919.6807" x2="-587" y2="962.1807" stroke="black" stroke-linecap="round" stroke-linejoin="round" stroke-width="2"/>
        </g>
      </g>
      <g id="Graphic_214">
        <path d="M -702.5 801.116 L -470.5 801.116 C -463.8726 801.116 -458.5 806.4886 -458.5 813.116 L -458.5 844.366 C -458.5 850.9934 -463.8726 856.366 -470.5 856.366 L -702.5 856.366 C -709.1274 856.366 -714.5 850.9934 -714.5 844.366 L -714.5 813.116 C -714.5 806.4886 -709.1274 801.116 -702.5 801.116 Z" fill="#ffc0ff"/>
        <text transform="translate(-709.5 816.741)" fill="black">
          <tspan font-family="Helvetica" font-size="20" fill="black" x="89.09863" y="19">Encrypt</tspan>
        </text>
      </g>
      <g id="Line_215">
        <line x1="-414" y1="828.741" x2="-445.6" y2="828.741" marker-end="url(#FilledArrow_Marker)" stroke="black" stroke-linecap="round" stroke-linejoin="round" stroke-width="2"/>
      </g>
      <g id="Line_216">
        <line x1="-586.5" y1="631.9865" x2="-586.5" y2="682.4012" marker-end="url(#FilledArrow_Marker)" stroke="black" stroke-linecap="round" stroke-linejoin="round" stroke-width="2"/>
      </g>
      <g id="Line_217">
        <line x1="-586.5" y1="737.8012" x2="-586.5" y2="788.216" marker-end="url(#FilledArrow_Marker)" stroke="black" stroke-linecap="round" stroke-linejoin="round" stroke-width="2"/>
      </g>
      <g id="Line_218">
        <line x1="-586.5" y1="856.366" x2="-586.5" y2="905.7807" marker-end="url(#FilledArrow_Marker)" stroke="black" stroke-linecap="round" stroke-linejoin="round" stroke-width="2"/>
      </g>
      <g id="Graphic_219">
        <path d="M -997 688.9262 L -765 688.9262 C -758.3726 688.9262 -753 694.2988 -753 700.9262 L -753 732.1762 C -753 738.8037 -758.3726 744.1762 -765 744.1762 L -997 744.1762 C -1003.6274 744.1762 -1009 738.8037 -1009 732.1762 L -1009 700.9262 C -1009 694.2988 -1003.6274 688.9262 -997 688.9262 Z" fill="#c0ffff"/>
        <text transform="translate(-1004 704.5512)" fill="black">
          <tspan font-family="Helvetica" font-size="20" fill="black" x="61.85254" y="19">Hash function</tspan>
        </text>
      </g>
      <g id="Graphic_220"/>
      <g id="Graphic_221">
        <path d="M -702.5 1025.4955 L -470.5 1025.4955 C -463.8726 1025.4955 -458.5 1030.8681 -458.5 1037.4955 L -458.5 1063.9865 C -458.5 1070.6139 -463.8726 1075.9865 -470.5 1075.9865 L -702.5 1075.9865 C -709.1274 1075.9865 -714.5 1070.6139 -714.5 1063.9865 L -714.5 1037.4955 C -714.5 1030.8681 -709.1274 1025.4955 -702.5 1025.4955 Z" fill="#b4b4b4" fill-opacity=".29947917"/>
        <text transform="translate(-709.5 1036.741)" fill="black">
          <tspan font-family="Helvetica" font-size="20" fill="black" x="114.33423" y="19">C</tspan>
          <tspan font-family="Helvetica" font-size="13" fill="black" y="25">j</tspan>
        </text>
      </g>
      <g id="Line_222">
        <line x1="-881" y1="631.9865" x2="-881" y2="676.0262" marker-end="url(#FilledArrow_Marker)" stroke="black" stroke-linecap="round" stroke-linejoin="round" stroke-width="2"/>
      </g>
      <g id="Line_223">
        <line x1="-753" y1="716.5512" x2="-620.65" y2="716.5512" marker-end="url(#FilledArrow_Marker)" stroke="black" stroke-linecap="round" stroke-linejoin="round" stroke-width="2"/>
      </g>
      <g id="Line_224">
        <path d="M -726.2885 716.5512 L -726.2885 941.8881 L -619.6492 941.1578" marker-end="url(#FilledArrow_Marker)" stroke="black" stroke-linecap="round" stroke-linejoin="round" stroke-width="2"/>
      </g>
      <g id="Line_225">
        <line x1="-586.5" y1="963.1808" x2="-586.5" y2="1012.5955" marker-end="url(#FilledArrow_Marker)" stroke="black" stroke-linecap="round" stroke-linejoin="round" stroke-width="2"/>
      </g>
      <g id="Graphic_226">
        <text transform="translate(-736.5 685.4955)" fill="black">
          <tspan font-family="Helvetica" font-size="20" fill="black" x="0" y="19">H(T</tspan>
          <tspan font-family="Helvetica" font-size="13" fill="black" y="25">j</tspan>
          <tspan font-family="Helvetica" font-size="20" fill="black" y="19">)</tspan>
        </text>
      </g>
      <g id="Group_227">
        <g id="Graphic_230">
          <circle cx="-586.5" cy="716.5512" r="21.2500339554152" stroke="black" stroke-linecap="round" stroke-linejoin="round" stroke-width="2"/>
        </g>
        <g id="Line_229">
          <line x1="-607.75" y1="716.4719" x2="-565.6629" y2="716.4719" stroke="black" stroke-linecap="round" stroke-linejoin="round" stroke-width="2"/>
        </g>
        <g id="Line_228">
          <line x1="-587" y1="695.3012" x2="-587" y2="737.8012" stroke="black" stroke-linecap="round" stroke-linejoin="round" stroke-width="2"/>
        </g>
      </g>
      <g id="Graphic_253">
        <text transform="translate(324 821.2455)" fill="black">
          <tspan font-family="Helvetica" font-size="20" fill="black" x="2.2685547" y="19">Key</tspan>
        </text>
      </g>
      <g id="Graphic_252">
        <path d="M 30.5 586 L 262.5 586 C 269.12742 586 274.5 591.3726 274.5 598 L 274.5 624.491 C 274.5 631.1184 269.12742 636.491 262.5 636.491 L 30.5 636.491 C 23.872583 636.491 18.5 631.1184 18.5 624.491 L 18.5 598 C 18.5 591.3726 23.872583 586 30.5 586 Z" fill="#b4b4b4" fill-opacity=".29947917"/>
        <text transform="translate(23.5 597.2455)" fill="black">
          <tspan font-family="Helvetica" font-size="20" fill="black" x="114.33423" y="19">C</tspan>
          <tspan font-family="Helvetica" font-size="13" fill="black" y="25">j</tspan>
        </text>
      </g>
      <g id="Graphic_251">
        <path d="M -264 586 L -32 586 C -25.372583 586 -20 591.3726 -20 598 L -20 624.491 C -20 631.1184 -25.372583 636.491 -32 636.491 L -264 636.491 C -270.62742 636.491 -276 631.1184 -276 624.491 L -276 598 C -276 591.3726 -270.62742 586 -264 586 Z" fill="#b4b4b4" fill-opacity=".29947917"/>
        <text transform="translate(-271 597.2455)" fill="black">
          <tspan font-family="Helvetica" font-size="20" fill="black" x="115.44751" y="19">T</tspan>
          <tspan font-family="Helvetica" font-size="13" fill="black" y="25">j</tspan>
        </text>
      </g>
      <g id="Group_247">
        <g id="Graphic_250">
          <circle cx="146.5" cy="945.4352" r="21.2500339554153" stroke="black" stroke-linecap="round" stroke-linejoin="round" stroke-width="2"/>
        </g>
        <g id="Line_249">
          <line x1="125.25" y1="945.3559" x2="167.33712" y2="945.3559" stroke="black" stroke-linecap="round" stroke-linejoin="round" stroke-width="2"/>
        </g>
        <g id="Line_248">
          <line x1="146" y1="924.1852" x2="146" y2="966.6852" stroke="black" stroke-linecap="round" stroke-linejoin="round" stroke-width="2"/>
        </g>
      </g>
      <g id="Graphic_246">
        <path d="M 30.5 805.6205 L 262.5 805.6205 C 269.12742 805.6205 274.5 810.9931 274.5 817.6205 L 274.5 848.8705 C 274.5 855.4979 269.12742 860.8705 262.5 860.8705 L 30.5 860.8705 C 23.872583 860.8705 18.5 855.4979 18.5 848.8705 L 18.5 817.6205 C 18.5 810.9931 23.872583 805.6205 30.5 805.6205 Z" fill="#c0ffc0"/>
        <text transform="translate(23.5 821.2455)" fill="black">
          <tspan font-family="Helvetica" font-size="20" fill="black" x="88.54688" y="19">Decrypt</tspan>
        </text>
      </g>
      <g id="Line_245">
        <line x1="319" y1="833.2455" x2="287.4" y2="833.2455" marker-end="url(#FilledArrow_Marker)" stroke="black" stroke-linecap="round" stroke-linejoin="round" stroke-width="2"/>
      </g>
      <g id="Line_244">
        <line x1="146.5" y1="636.491" x2="146.5" y2="686.90574" marker-end="url(#FilledArrow_Marker)" stroke="black" stroke-linecap="round" stroke-linejoin="round" stroke-width="2"/>
      </g>
      <g id="Line_243">
        <line x1="146.5" y1="742.3057" x2="146.5" y2="792.7205" marker-end="url(#FilledArrow_Marker)" stroke="black" stroke-linecap="round" stroke-linejoin="round" stroke-width="2"/>
      </g>
      <g id="Line_242">
        <line x1="146.5" y1="860.8705" x2="146.5" y2="910.2852" marker-end="url(#FilledArrow_Marker)" stroke="black" stroke-linecap="round" stroke-linejoin="round" stroke-width="2"/>
      </g>
      <g id="Graphic_241">
        <path d="M -264 693.43074 L -32 693.43074 C -25.372583 693.43074 -20 698.8033 -20 705.43074 L -20 736.6807 C -20 743.3082 -25.372583 748.6807 -32 748.6807 L -264 748.6807 C -270.62742 748.6807 -276 743.3082 -276 736.6807 L -276 705.43074 C -276 698.8033 -270.62742 693.43074 -264 693.43074 Z" fill="#c0ffff"/>
        <text transform="translate(-271 709.05574)" fill="black">
          <tspan font-family="Helvetica" font-size="20" fill="black" x="61.85254" y="19">Hash function</tspan>
        </text>
      </g>
      <g id="Graphic_240">
        <path d="M 30.5 1025.4955 L 262.5 1025.4955 C 269.12742 1025.4955 274.5 1030.8681 274.5 1037.4955 L 274.5 1063.9865 C 274.5 1070.6139 269.12742 1075.9865 262.5 1075.9865 L 30.5 1075.9865 C 23.872583 1075.9865 18.5 1070.6139 18.5 1063.9865 L 18.5 1037.4955 C 18.5 1030.8681 23.872583 1025.4955 30.5 1025.4955 Z" fill="#b4b4b4" fill-opacity=".29947917"/>
        <text transform="translate(23.5 1036.741)" fill="black">
          <tspan font-family="Helvetica" font-size="20" fill="black" x="114.88599" y="19">P</tspan>
          <tspan font-family="Helvetica" font-size="13" fill="black" y="25">j</tspan>
        </text>
      </g>
      <g id="Line_239">
        <line x1="-148" y1="636.491" x2="-148" y2="680.53074" marker-end="url(#FilledArrow_Marker)" stroke="black" stroke-linecap="round" stroke-linejoin="round" stroke-width="2"/>
      </g>
      <g id="Line_238">
        <line x1="-20" y1="721.05574" x2="112.35" y2="721.05574" marker-end="url(#FilledArrow_Marker)" stroke="black" stroke-linecap="round" stroke-linejoin="round" stroke-width="2"/>
      </g>
      <g id="Line_237">
        <path d="M 6.711544 721.05574 L 6.711543 946.3926 L 113.35076 945.6623" marker-end="url(#FilledArrow_Marker)" stroke="black" stroke-linecap="round" stroke-linejoin="round" stroke-width="2"/>
      </g>
      <g id="Line_236">
        <line x1="146.5" y1="967.6853" x2="146.5" y2="1012.5955" marker-end="url(#FilledArrow_Marker)" stroke="black" stroke-linecap="round" stroke-linejoin="round" stroke-width="2"/>
      </g>
      <g id="Graphic_235">
        <text transform="translate(-3.5 690)" fill="black">
          <tspan font-family="Helvetica" font-size="20" fill="black" x="0" y="19">H(T</tspan>
          <tspan font-family="Helvetica" font-size="13" fill="black" y="25">j</tspan>
          <tspan font-family="Helvetica" font-size="20" fill="black" y="19">)</tspan>
        </text>
      </g>
      <g id="Group_231">
        <g id="Graphic_234">
          <circle cx="146.5" cy="721.05574" r="21.2500339554153" stroke="black" stroke-linecap="round" stroke-linejoin="round" stroke-width="2"/>
        </g>
        <g id="Line_233">
          <line x1="125.25" y1="720.9764" x2="167.33712" y2="720.9764" stroke="black" stroke-linecap="round" stroke-linejoin="round" stroke-width="2"/>
        </g>
        <g id="Line_232">
          <line x1="146" y1="699.80574" x2="146" y2="742.3057" stroke="black" stroke-linecap="round" stroke-linejoin="round" stroke-width="2"/>
        </g>
      </g>
      <g id="Graphic_254">
        <text transform="translate(-217.5 1038.741)" fill="black">
          <tspan font-family="Helvetica" font-size="20" fill="black" x="21.702148" y="19">Decryption</tspan>
        </text>
      </g>
      <g id="Graphic_255">
        <text transform="translate(-950.5 1038.741)" fill="black">
          <tspan font-family="Helvetica" font-size="20" fill="black" x="22.253906" y="19">Encryption</tspan>
        </text>
      </g>
    </g>
  </g>
</svg>
