<?xml version="1.0" encoding="UTF-8" standalone="no"?>
<!DOCTYPE svg PUBLIC "-//W3C//DTD SVG 1.1//EN" "http://www.w3.org/Graphics/SVG/1.1/DTD/svg11.dtd">
<svg xmlns:xl="http://www.w3.org/1999/xlink" xmlns:dc="http://purl.org/dc/elements/1.1/" xmlns="http://www.w3.org/2000/svg" version="1.1" viewBox="398 593 815 408" width="815" height="408">
  <defs>
    <marker orient="auto" overflow="visible" markerUnits="strokeWidth" id="FilledArrow_Marker" stroke-linejoin="miter" stroke-miterlimit="10" viewBox="-1 -3 7 6" markerWidth="7" markerHeight="6" color="black">
      <g>
        <path d="M 4.8 0 L 0 -1.8 L 0 1.8 Z" fill="currentColor" stroke="currentColor" stroke-width="1"/>
      </g>
    </marker>
  </defs>
  <g id="rng_and_prng" fill-opacity="1" stroke-opacity="1" fill="none" stroke-dasharray="none" stroke="none">
    <title>rng_and_prng</title>
    <rect fill="white" x="398" y="593" width="815" height="408"/>
    <g id="rng_and_prng_Layer_1">
      <title>Layer 1</title>
      <g id="Graphic_2">
        <text transform="translate(403 608)" fill="black">
          <tspan font-family="Helvetica" font-size="22" fill="black" x="0" y="21">Entropy Source</tspan>
        </text>
      </g>
      <g id="Graphic_5">
        <path d="M 425.31836 718.5 L 532.31836 718.5 C 538.9458 718.5 544.31836 723.8726 544.31836 730.5 L 544.31836 788.5 C 544.31836 795.1274 538.9458 800.5 532.31836 800.5 L 425.31836 800.5 C 418.69094 800.5 413.31836 795.1274 413.31836 788.5 L 413.31836 730.5 C 413.31836 723.8726 418.69094 718.5 425.31836 718.5 Z" fill="#e0e0e0"/>
        <text transform="translate(418.31836 741.052)" fill="black">
          <tspan font-family="Helvetica Neue" font-size="16" fill="black" x="10.572" y="15">Conversion to </tspan>
          <tspan font-family="Helvetica Neue" font-size="16" fill="black" x="38.572" y="33.448">binary</tspan>
        </text>
      </g>
      <g id="Graphic_7">
        <text transform="translate(687.3955 873.5)" fill="black">
          <tspan font-family="Helvetica" font-size="22" fill="black" x="0" y="21">Pseudorandom</tspan>
          <tspan font-family="Helvetica" font-size="22" fill="black" x="26.312988" y="47">bit stream</tspan>
        </text>
      </g>
      <g id="Graphic_8">
        <text transform="translate(736.3101 624)" fill="black">
          <tspan font-family="Helvetica" font-size="22" fill="black" x="0" y="21">Seed</tspan>
        </text>
      </g>
      <g id="Line_9">
        <line x1="478.81836" y1="639" x2="478.81836" y2="705.6" marker-end="url(#FilledArrow_Marker)" stroke="black" stroke-linecap="round" stroke-linejoin="round" stroke-width="2"/>
      </g>
      <g id="Graphic_12">
        <text transform="translate(430.52686 873.5)" fill="black">
          <tspan font-family="Helvetica" font-size="22" fill="black" x="6.713867" y="21">Random</tspan>
          <tspan font-family="Helvetica" font-size="22" fill="black" x="0" y="47">bit stream</tspan>
        </text>
      </g>
      <g id="Graphic_13">
        <path d="M 708.5 718.5 L 815.5 718.5 C 822.1274 718.5 827.5 723.8726 827.5 730.5 L 827.5 788.5 C 827.5 795.1274 822.1274 800.5 815.5 800.5 L 708.5 800.5 C 701.8726 800.5 696.5 795.1274 696.5 788.5 L 696.5 730.5 C 696.5 723.8726 701.8726 718.5 708.5 718.5 Z" fill="#e0e0e0"/>
        <text transform="translate(701.5 741.052)" fill="black">
          <tspan font-family="Helvetica Neue" font-size="16" fill="black" x="13.676" y="15">Deterministic </tspan>
          <tspan font-family="Helvetica Neue" font-size="16" fill="black" x="27.012" y="33.448">algorithm</tspan>
        </text>
      </g>
      <g id="Graphic_15">
        <path d="M 991.6816 718.5 L 1098.6816 718.5 C 1105.309 718.5 1110.6816 723.8726 1110.6816 730.5 L 1110.6816 788.5 C 1110.6816 795.1274 1105.309 800.5 1098.6816 800.5 L 991.6816 800.5 C 985.0542 800.5 979.6816 795.1274 979.6816 788.5 L 979.6816 730.5 C 979.6816 723.8726 985.0542 718.5 991.6816 718.5 Z" fill="#e0e0e0"/>
        <text transform="translate(984.6816 741.052)" fill="black">
          <tspan font-family="Helvetica Neue" font-size="16" fill="black" x="13.676" y="15">Deterministic </tspan>
          <tspan font-family="Helvetica Neue" font-size="16" fill="black" x="27.012" y="33.448">algorithm</tspan>
        </text>
      </g>
      <g id="Graphic_16">
        <text transform="translate(1019.4917 624)" fill="black">
          <tspan font-family="Helvetica" font-size="22" fill="black" x="0" y="21">Seed</tspan>
        </text>
      </g>
      <g id="Graphic_17">
        <text transform="translate(1124.5 598)" fill="black">
          <tspan font-family="Helvetica" font-size="22" fill="black" x="0" y="21">Context-</tspan>
          <tspan font-family="Helvetica" font-size="22" fill="black" x="4.8930664" y="47">specific</tspan>
          <tspan font-family="Helvetica" font-size="22" fill="black" x="9.775391" y="73">values</tspan>
        </text>
      </g>
      <g id="Graphic_18">
        <text transform="translate(970.5771 873.5)" fill="black">
          <tspan font-family="Helvetica" font-size="22" fill="black" x="0" y="21">Pseudorandom</tspan>
          <tspan font-family="Helvetica" font-size="22" fill="black" x="26.312988" y="47">bit stream</tspan>
        </text>
      </g>
      <g id="Line_19">
        <line x1="478.81836" y1="800.5" x2="478.81836" y2="855.6" marker-end="url(#FilledArrow_Marker)" stroke="black" stroke-linecap="round" stroke-linejoin="round" stroke-width="2"/>
      </g>
      <g id="Line_20">
        <line x1="762" y1="655" x2="762" y2="705.6" marker-end="url(#FilledArrow_Marker)" stroke="black" stroke-linecap="round" stroke-linejoin="round" stroke-width="2"/>
      </g>
      <g id="Line_21">
        <line x1="762" y1="800.5" x2="762" y2="855.6" marker-end="url(#FilledArrow_Marker)" stroke="black" stroke-linecap="round" stroke-linejoin="round" stroke-width="2"/>
      </g>
      <g id="Line_22">
        <line x1="1045.1816" y1="655" x2="1045.1816" y2="705.6" marker-end="url(#FilledArrow_Marker)" stroke="black" stroke-linecap="round" stroke-linejoin="round" stroke-width="2"/>
      </g>
      <g id="Line_23">
        <line x1="1045.1816" y1="800.5" x2="1045.1816" y2="855.6" marker-end="url(#FilledArrow_Marker)" stroke="black" stroke-linecap="round" stroke-linejoin="round" stroke-width="2"/>
      </g>
      <g id="Line_24">
        <line x1="1119.5" y1="680.06345" x2="1087.4031" y2="709.7421" marker-end="url(#FilledArrow_Marker)" stroke="black" stroke-linecap="round" stroke-linejoin="round" stroke-width="2"/>
      </g>
      <g id="Line_25">
        <path d="M 729.25 800.5 L 729.25 840 L 682.3955 840 L 682.3955 683.5 L 729.1096 683.5 L 729.19825 705.6001" marker-end="url(#FilledArrow_Marker)" stroke="black" stroke-linecap="round" stroke-linejoin="round" stroke-width="2"/>
      </g>
      <g id="Line_27">
        <path d="M 1012.4316 800.5 L 1012.4316 840 L 965.5771 840 L 965.5771 683.5 L 1012.6712 683.5 L 1012.52 705.6003" marker-end="url(#FilledArrow_Marker)" stroke="black" stroke-linecap="round" stroke-linejoin="round" stroke-width="2"/>
      </g>
      <g id="Graphic_28">
        <text transform="translate(447.6553 970)" fill="black">
          <tspan font-family="Helvetica" font-weight="bold" font-size="22" fill="black" x="0" y="21">TRNG</tspan>
        </text>
      </g>
      <g id="Graphic_29">
        <text transform="translate(730.2192 970)" fill="black">
          <tspan font-family="Helvetica" font-weight="bold" font-size="22" fill="black" x="0" y="21">PRNG</tspan>
        </text>
      </g>
      <g id="Graphic_30">
        <text transform="translate(1023.1816 970)" fill="black">
          <tspan font-family="Helvetica" font-weight="bold" font-size="22" fill="black" x="0" y="21">PRF</tspan>
        </text>
      </g>
    </g>
  </g>
</svg>
