<?xml version="1.0" encoding="UTF-8" standalone="no"?>
<!DOCTYPE svg PUBLIC "-//W3C//DTD SVG 1.1//EN" "http://www.w3.org/Graphics/SVG/1.1/DTD/svg11.dtd">
<svg xmlns:xl="http://www.w3.org/1999/xlink" xmlns:dc="http://purl.org/dc/elements/1.1/" xmlns="http://www.w3.org/2000/svg" version="1.1" viewBox="-30 -70.5 1137 629.5" width="1137" height="629.5">
  <defs>
    <filter id="Shadow" filterUnits="userSpaceOnUse" x="-143.7" y="-133.45">
      <feGaussianBlur in="SourceAlpha" result="blur" stdDeviation="1.308"/>
      <feOffset in="blur" result="offset" dx="0" dy="2"/>
      <feFlood flood-color="black" flood-opacity=".5" result="flood"/>
      <feComposite in="flood" in2="offset" operator="in" result="color"/>
      <feMerge>
        <feMergeNode in="color"/>
        <feMergeNode in="SourceGraphic"/>
      </feMerge>
    </filter>
    <marker orient="auto" overflow="visible" markerUnits="strokeWidth" id="FilledArrow_Marker" stroke-linejoin="miter" stroke-miterlimit="10" viewBox="-1 -3 6 6" markerWidth="6" markerHeight="6" color="black">
      <g>
        <path d="M 3.7333333 0 L 0 -1.4 L 0 1.4 Z" fill="currentColor" stroke="currentColor" stroke-width="1"/>
      </g>
    </marker>
    <marker orient="auto" overflow="visible" markerUnits="strokeWidth" id="FilledArrow_Marker_2" stroke-linejoin="miter" stroke-miterlimit="10" viewBox="-1 -3 7 6" markerWidth="7" markerHeight="6" color="black">
      <g>
        <path d="M 4.8 0 L 0 -1.8 L 0 1.8 Z" fill="currentColor" stroke="currentColor" stroke-width="1"/>
      </g>
    </marker>
  </defs>
  <g id="enc_with_priv_key" fill-opacity="1" stroke-opacity="1" fill="none" stroke-dasharray="none" stroke="none">
    <title>enc_with_priv_key</title>
    <rect fill="white" x="-30" y="-70.5" width="1137" height="629.5"/>
    <g id="enc_with_priv_key_Layer_1">
      <title>Layer 1</title>
      <g id="Graphic_5" filter="url(#Shadow)">
        <path d="M 11.53125 257 L 110.53125 257 L 110.53125 356.2 C 80.83125 343.8 41.23125 393.4 11.53125 368.6 Z" fill="white"/>
        <clipPath id="clip_path">
          <path d="M 0 0 L 99 0 L 99 99.2 C 69.3 86.8 29.7 136.4 0 111.6 Z" fill="white"/>
        </clipPath>
        <text clip-path="url(#clip_path)" transform="translate(16.53125 262)" fill="#797979">
          <tspan font-family="Helvetica" font-size="7" fill="#797979" x="0" y="6">Lorem ipsum dolor sit amet, </tspan>
          <tspan font-family="Helvetica" font-size="7" fill="#797979" x="0" y="14">consectetur adipiscing elit, </tspan>
          <tspan font-family="Helvetica" font-size="7" fill="#797979" x="0" y="22">sed do eiusmod tempor </tspan>
          <tspan font-family="Helvetica" font-size="7" fill="#797979" x="0" y="30">incididunt ut labore et dolore </tspan>
          <tspan font-family="Helvetica" font-size="7" fill="#797979" x="0" y="38">magna aliqua. Ut enim ad </tspan>
          <tspan font-family="Helvetica" font-size="7" fill="#797979" x="0" y="46">minim veniam, quis nostrud </tspan>
          <tspan font-family="Helvetica" font-size="7" fill="#797979" x="0" y="54">exercitation ullamco laboris </tspan>
          <tspan font-family="Helvetica" font-size="7" fill="#797979" x="0" y="62">nisi ut aliquip ex ea </tspan>
          <tspan font-family="Helvetica" font-size="7" fill="#797979" x="0" y="70">commodo consequat. Duis </tspan>
          <tspan font-family="Helvetica" font-size="7" fill="#797979" x="0" y="78">aute irure dolor in </tspan>
          <tspan font-family="Helvetica" font-size="7" fill="#797979" x="0" y="86">reprehenderit in voluptate </tspan>
          <tspan font-family="Helvetica" font-size="7" fill="#797979" x="0" y="94">velit esse cillum dolore </tspan>
          <tspan font-family="Helvetica" font-size="7" fill="#797979" x="0" y="102"> fugiat nulla pa</tspan>
          <tspan font-family="Helvetica" font-size="7" fill="#797979" x="0" y="110">Excep</tspan>
        </text>
      </g>
      <g id="Graphic_6" filter="url(#Shadow)">
        <path d="M 468.2344 191.75 L 567.2344 191.75 L 567.2344 290.95 C 537.5344 278.55 497.9344 328.15 468.2344 303.35 Z" fill="white"/>
        <clipPath id="clip_path_2">
          <path d="M 0 0 L 99 0 L 99 99.2 C 69.3 86.8 29.7 136.4 0 111.6 Z" fill="white"/>
        </clipPath>
        <text clip-path="url(#clip_path_2)" transform="translate(473.2344 196.75)" fill="#797979">
          <tspan font-family="Helvetica" font-size="7" fill="#797979" x="0" y="6">OXANV RYBDV MXUXA </tspan>
          <tspan font-family="Helvetica" font-size="7" fill="#797979" x="0" y="14">BRC JVNCI </tspan>
          <tspan font-family="Helvetica" font-size="7" fill="#797979" x="0" y="22">LXWBNLCNCDA </tspan>
          <tspan font-family="Helvetica" font-size="7" fill="#797979" x="0" y="30">JMRYRBLRWP NURCI </tspan>
          <tspan font-family="Helvetica" font-size="7" fill="#797979" x="0" y="38">BNM MX NRDBVXM </tspan>
          <tspan font-family="Helvetica" font-size="7" fill="#797979" x="0" y="46">CNVYXA RWLRMRMDWC </tspan>
          <tspan font-family="Helvetica" font-size="7" fill="#797979" x="0" y="54">DC UJKXAN NC MXUXAN </tspan>
          <tspan font-family="Helvetica" font-size="7" fill="#797979" x="0" y="62">VJPWJ JURZDJK XC </tspan>
          <tspan font-family="Helvetica" font-size="7" fill="#797979" x="0" y="70">NWRV JM VRWRV </tspan>
          <tspan font-family="Helvetica" font-size="7" fill="#797979" x="0" y="78">ENWRJVI ZDRB </tspan>
          <tspan font-family="Helvetica" font-size="7" fill="#797979" x="0" y="86">WXBCADM </tspan>
          <tspan font-family="Helvetica" font-size="7" fill="#797979" x="0" y="94">NGNALRCJCRXW </tspan>
          <tspan font-family="Helvetica" font-size="7" fill="#797979" x="0" y="102">DUUJVLX UJK</tspan>
          <tspan font-family="Helvetica" font-size="7" fill="#797979" x="0" y="110">XARB </tspan>
        </text>
      </g>
      <g id="Graphic_7" filter="url(#Shadow)">
        <path d="M 966.5312 260.5 L 1065.5312 260.5 L 1065.5312 359.7 C 1035.8312 347.3 996.2312 396.9 966.5312 372.1 Z" fill="white"/>
        <clipPath id="clip_path_3">
          <path d="M 0 0 L 99 0 L 99 99.2 C 69.3 86.8 29.7 136.4 0 111.6 Z" fill="white"/>
        </clipPath>
        <text clip-path="url(#clip_path_3)" transform="translate(971.5312 265.5)" fill="#797979">
          <tspan font-family="Helvetica" font-size="7" fill="#797979" x="0" y="6">Lorem ipsum dolor sit amet, </tspan>
          <tspan font-family="Helvetica" font-size="7" fill="#797979" x="0" y="14">consectetur adipiscing elit, </tspan>
          <tspan font-family="Helvetica" font-size="7" fill="#797979" x="0" y="22">sed do eiusmod tempor </tspan>
          <tspan font-family="Helvetica" font-size="7" fill="#797979" x="0" y="30">incididunt ut labore et dolore </tspan>
          <tspan font-family="Helvetica" font-size="7" fill="#797979" x="0" y="38">magna aliqua. Ut enim ad </tspan>
          <tspan font-family="Helvetica" font-size="7" fill="#797979" x="0" y="46">minim veniam, quis nostrud </tspan>
          <tspan font-family="Helvetica" font-size="7" fill="#797979" x="0" y="54">exercitation ullamco laboris </tspan>
          <tspan font-family="Helvetica" font-size="7" fill="#797979" x="0" y="62">nisi ut aliquip ex ea </tspan>
          <tspan font-family="Helvetica" font-size="7" fill="#797979" x="0" y="70">commodo consequat. Duis </tspan>
          <tspan font-family="Helvetica" font-size="7" fill="#797979" x="0" y="78">aute irure dolor in </tspan>
          <tspan font-family="Helvetica" font-size="7" fill="#797979" x="0" y="86">reprehenderit in voluptate </tspan>
          <tspan font-family="Helvetica" font-size="7" fill="#797979" x="0" y="94">velit esse cillum dolore </tspan>
          <tspan font-family="Helvetica" font-size="7" fill="#797979" x="0" y="102"> fugiat nulla pa</tspan>
          <tspan font-family="Helvetica" font-size="7" fill="#797979" x="0" y="110">Excep</tspan>
        </text>
      </g>
      <g id="Graphic_10">
        <text transform="translate(683.1023 203.3812) rotate(-45)" fill="black">
          <tspan font-family="Apple Color Emoji" font-size="48" fill="black" x="0" y="48">🔑</tspan>
        </text>
      </g>
      <g id="Graphic_11">
        <text transform="translate(747.34375 190.6845)" fill="black">
          <tspan font-family="Helvetica" font-size="24" fill="black" x="0" y="23">PU</tspan>
          <tspan font-family="Helvetica" font-size="24" fill="black" y="34">b</tspan>
        </text>
      </g>
      <g id="Graphic_12">
        <text transform="translate(296.15143 195.6845)" fill="black">
          <tspan font-family="Helvetica" font-style="italic" font-size="24" fill="black" x="0" y="23">PR</tspan>
          <tspan font-family="Helvetica" font-style="italic" font-size="24" fill="black" y="34">b</tspan>
        </text>
      </g>
      <g id="Graphic_13">
        <text transform="translate(208.5 36.5)" fill="black">
          <tspan font-family="Helvetica" font-size="28" fill="black" x="51.256836" y="28">Bob’s </tspan>
          <tspan font-family="Helvetica" font-size="28" fill="black" x="18.33496" y="62">private key</tspan>
        </text>
      </g>
      <g id="Graphic_15">
        <text transform="translate(431.7344 128.75)" fill="#797979">
          <tspan font-family="Helvetica" font-size="24" fill="#797979" x="23.11914" y="23">Transmitted</tspan>
          <tspan font-family="Helvetica" font-size="24" fill="#797979" x="34.00586" y="52">ciphertext</tspan>
        </text>
      </g>
      <g id="Graphic_16">
        <text transform="translate(431.7344 328)" fill="black">
          <tspan font-family="Helvetica" font-style="italic" font-size="24" fill="black" x="13.673828" y="23">Y</tspan>
          <tspan font-family="Helvetica" font-size="24" fill="black" y="23"> = E(PR</tspan>
          <tspan font-family="Helvetica" font-size="24" fill="black" y="34">b</tspan>
          <tspan font-family="Helvetica" font-size="24" fill="black" y="23">,</tspan>
          <tspan font-family="Helvetica" font-style="italic" font-size="24" fill="black" y="23">X</tspan>
          <tspan font-family="Helvetica" font-size="24" fill="black" y="23">)</tspan>
        </text>
      </g>
      <g id="Graphic_17">
        <text transform="translate(-25 184)" fill="black">
          <tspan font-family="Helvetica" font-size="24" fill="black" x="40.00586" y="23">Plaintext</tspan>
          <tspan font-family="Helvetica" font-size="24" fill="black" x="59.3418" y="52">Input</tspan>
        </text>
      </g>
      <g id="Graphic_18">
        <text transform="translate(929.9375 188.9375)" fill="black">
          <tspan font-family="Helvetica" font-size="24" fill="black" x="40.00586" y="23">Plaintext</tspan>
          <tspan font-family="Helvetica" font-size="24" fill="black" x="50.00781" y="52">Output</tspan>
        </text>
      </g>
      <g id="Graphic_19">
        <path d="M 236 255 L 347 255 C 353.6274 255 359 260.37258 359 267 L 359 375 C 359 381.6274 353.6274 387 347 387 L 248 387 C 241.37258 387 236 381.6274 236 375 Z" fill="#7e90b4"/>
        <path d="M 236 255 L 347 255 C 353.6274 255 359 260.37258 359 267 L 359 375 C 359 381.6274 353.6274 387 347 387 L 248 387 C 241.37258 387 236 381.6274 236 375 Z" stroke="#344463" stroke-linecap="round" stroke-linejoin="round" stroke-width="4"/>
      </g>
      <g id="Graphic_22">
        <text transform="translate(270.53125 297)" fill="black">
          <tspan font-family="Apple Color Emoji" font-size="48" fill="black" x="0" y="48">🔒</tspan>
        </text>
      </g>
      <g id="Graphic_23">
        <path d="M 676.53125 255 L 787.53125 255 C 794.1587 255 799.53125 260.37258 799.53125 267 L 799.53125 375 C 799.53125 381.6274 794.1587 387 787.53125 387 L 688.53125 387 C 681.9038 387 676.53125 381.6274 676.53125 375 Z" fill="#7e90b4"/>
        <path d="M 676.53125 255 L 787.53125 255 C 794.1587 255 799.53125 260.37258 799.53125 267 L 799.53125 375 C 799.53125 381.6274 794.1587 387 787.53125 387 L 688.53125 387 C 681.9038 387 676.53125 381.6274 676.53125 375 Z" stroke="#344463" stroke-linecap="round" stroke-linejoin="round" stroke-width="4"/>
      </g>
      <g id="Graphic_21">
        <text transform="translate(713.53125 293)" fill="black">
          <tspan font-family="Apple Color Emoji" font-size="48" fill="black" x="0" y="48">🔓</tspan>
        </text>
      </g>
      <g id="Graphic_24">
        <text transform="translate(133.5 328)" fill="black">
          <tspan font-family="Helvetica" font-style="italic" font-size="24" fill="black" x="31.76172" y="23">X</tspan>
        </text>
      </g>
      <g id="Graphic_25">
        <text transform="translate(804.53125 328)" fill="black">
          <tspan font-family="Helvetica" font-style="italic" font-size="24" fill="black" x="5.480469" y="23">X </tspan>
          <tspan font-family="Helvetica" font-size="24" fill="black" y="23">= D(</tspan>
          <tspan font-family="Helvetica" font-style="italic" font-size="24" fill="black" y="23">PU</tspan>
          <tspan font-family="Helvetica" font-style="italic" font-size="24" fill="black" y="34">b</tspan>
          <tspan font-family="Helvetica" font-size="24" fill="black" y="23">,</tspan>
          <tspan font-family="Helvetica" font-style="italic" font-size="24" fill="black" y="23">Y</tspan>
          <tspan font-family="Helvetica" font-size="24" fill="black" y="23">)</tspan>
        </text>
      </g>
      <g id="Line_26">
        <line x1="110.53125" y1="319" x2="220.1" y2="319" marker-end="url(#FilledArrow_Marker)" stroke="black" stroke-linecap="round" stroke-linejoin="round" stroke-width="3"/>
      </g>
      <g id="Line_27">
        <line x1="363" y1="323" x2="660.63125" y2="323" marker-end="url(#FilledArrow_Marker)" stroke="black" stroke-linecap="round" stroke-linejoin="round" stroke-width="3"/>
      </g>
      <g id="Line_28">
        <line x1="799.53125" y1="322.5" x2="950.6312" y2="322.5" marker-end="url(#FilledArrow_Marker)" stroke="black" stroke-linecap="round" stroke-linejoin="round" stroke-width="3"/>
      </g>
      <g id="Graphic_29">
        <text transform="translate(211.46875 392)" fill="#344463">
          <tspan font-family="Helvetica" font-size="24" fill="#344463" x="29.335938" y="23">Encryption </tspan>
          <tspan font-family="Helvetica" font-size="24" fill="#344463" x="36.677734" y="52">algorithm</tspan>
          <tspan font-family="Helvetica" font-size="24" fill="#344463" x="26.68164" y="81">(e.g., RSA)</tspan>
        </text>
      </g>
      <g id="Graphic_30">
        <text transform="translate(668.5 392)" fill="#344463">
          <tspan font-family="Helvetica" font-size="24" fill="#344463" x="16.611328" y="23">Decryption </tspan>
          <tspan font-family="Helvetica" font-size="24" fill="#344463" x="24.615234" y="52">algorithm </tspan>
        </text>
      </g>
      <g id="Graphic_31">
        <text transform="translate(238.029 203.3812) rotate(-45)" fill="black">
          <tspan font-family="Apple Color Emoji" font-size="48" fill="black" x="0" y="48">🔑</tspan>
        </text>
      </g>
      <g id="Line_39">
        <line x1="294.48353" y1="109.5" x2="294.32127" y2="242.1" marker-end="url(#FilledArrow_Marker_2)" stroke="black" stroke-linecap="round" stroke-linejoin="round" stroke-width="2"/>
      </g>
      <g id="Graphic_43">
        <rect x="215.5" y="-70.5" width="1" height="44" fill="#b4b4b4" fill-opacity=".29947917"/>
      </g>
      <g id="Graphic_56">
        <text transform="translate(177.42268 525)" fill="black">
          <tspan font-family="Helvetica" font-size="24" fill="black" x="0" y="23">Bob</tspan>
        </text>
      </g>
      <g id="Graphic_57">
        <text transform="translate(832.4746 509.9345)" fill="black">
          <tspan font-family="Helvetica" font-size="24" fill="black" x="0" y="23">Alice</tspan>
        </text>
      </g>
      <g id="Line_58">
        <path d="M 16 455.5 L 16 520 L 16 518.8242 L 399.13295 518.8242 L 399.13295 455" stroke="black" stroke-linecap="round" stroke-linejoin="round" stroke-width="2"/>
      </g>
      <g id="Line_59">
        <path d="M 651.4375 440.4345 L 651.4375 504.9345 L 1065.5312 504.9345 L 1065.5312 439.9345" stroke="black" stroke-linecap="round" stroke-linejoin="round" stroke-width="2"/>
      </g>
      <g id="Graphic_66">
        <text transform="translate(635.1719 27.0625)" fill="black">
          <tspan font-family="Helvetica" font-size="28" fill="black" x="1.9277344" y="28">Alice’s public key ring</tspan>
        </text>
      </g>
      <g id="Graphic_77">
        <text transform="translate(707.0797 101.1312) rotate(-45)" fill="black">
          <tspan font-family="Apple Color Emoji" font-size="48" fill="black" x="0" y="48">🔑</tspan>
        </text>
      </g>
      <g id="Graphic_76">
        <text transform="translate(656.0086 134.625)" fill="black">
          <tspan font-family="Helvetica" font-size="28" fill="black" x="61.121094" y="28">Bob</tspan>
        </text>
      </g>
      <g id="Graphic_75">
        <text transform="translate(826.7956 133.8125)" fill="black">
          <tspan font-family="Helvetica" font-size="28" fill="black" x="9.886478" y="28">Joe</tspan>
        </text>
      </g>
      <g id="Graphic_74">
        <text transform="translate(634.6931 134.625)" fill="black">
          <tspan font-family="Helvetica" font-size="28" fill="black" x="10.957096" y="28">Jane</tspan>
        </text>
      </g>
      <g id="Graphic_73">
        <text transform="translate(773.0325 134.625)" fill="black">
          <tspan font-family="Helvetica" font-size="28" fill="black" x="4.9470196" y="28">Ted</tspan>
        </text>
      </g>
      <g id="Line_72">
        <line x1="742.0399" y1="173.625" x2="742.0399" y2="242.1" marker-end="url(#FilledArrow_Marker_2)" stroke="black" stroke-linecap="round" stroke-linejoin="round" stroke-width="2"/>
      </g>
      <g id="Graphic_71">
        <text transform="translate(761.3074 101.1312) rotate(-45)" fill="black">
          <tspan font-family="Apple Color Emoji" font-size="48" fill="black" x="0" y="48">🔑</tspan>
        </text>
      </g>
      <g id="Graphic_70">
        <text transform="translate(643.0797 101.1312) rotate(-45)" fill="black">
          <tspan font-family="Apple Color Emoji" font-size="48" fill="black" x="0" y="48">🔑</tspan>
        </text>
      </g>
      <g id="Graphic_69">
        <text transform="translate(820.0099 100.3187) rotate(-45)" fill="black">
          <tspan font-family="Apple Color Emoji" font-size="48" fill="black" x="0" y="48">🔑</tspan>
        </text>
      </g>
      <g id="Graphic_68">
        <rect x="642.97004" y="66.875" width="65.03857" height="106.75" fill="white" fill-opacity=".7283163"/>
      </g>
      <g id="Graphic_67">
        <rect x="771.9498" y="66.0625" width="124.76322" height="106.75" fill="white" fill-opacity=".7283163"/>
      </g>
    </g>
  </g>
</svg>
