<?xml version="1.0" encoding="UTF-8" standalone="no"?>
<!DOCTYPE svg PUBLIC "-//W3C//DTD SVG 1.1//EN" "http://www.w3.org/Graphics/SVG/1.1/DTD/svg11.dtd">
<svg xmlns:xl="http://www.w3.org/1999/xlink" xmlns:dc="http://purl.org/dc/elements/1.1/" xmlns="http://www.w3.org/2000/svg" version="1.1" viewBox="92.5 855.3501 1706 428" width="1706" height="428">
  <defs/>
  <g id="encryption_used_by_veracrypt" fill-opacity="1" stroke-opacity="1" fill="none" stroke-dasharray="none" stroke="none">
    <title>encryption_used_by_veracrypt</title>
    <rect fill="white" x="92.5" y="855.3501" width="1706" height="428"/>
    <g id="encryption_used_by_veracrypt_Layer_1">
      <title>Layer 1</title>
      <g id="Graphic_32">
        <rect x="92.5" y="1039" width="150" height="76" fill="black"/>
      </g>
      <g id="Graphic_31">
        <text transform="translate(139.92969 1050.1997)" fill="white">
          <tspan font-family="Helvetica" font-size="32" fill="white" x="0" y="31">Salt</tspan>
        </text>
      </g>
      <g id="Graphic_30">
        <rect x="251.5" y="1039" width="527" height="75" fill="#ee220d"/>
      </g>
      <g id="Graphic_29">
        <text transform="translate(448.28906 1049.1997)" fill="white">
          <tspan font-family="Helvetica" font-size="32" fill="white" x="0" y="31">Metadata</tspan>
        </text>
      </g>
      <g id="Graphic_28">
        <rect x="251.5" y="1114" width="401" height="75" fill="#ff644e"/>
      </g>
      <g id="Graphic_27">
        <text transform="translate(379.28906 1124.1997)" fill="white">
          <tspan font-family="Helvetica" font-size="32" fill="white" x="0" y="31">&quot;VERA&quot; ...</tspan>
        </text>
      </g>
      <g id="Graphic_26">
        <rect x="652.5" y="1114" width="126" height="75" fill="#ff644e"/>
      </g>
      <g id="Graphic_25">
        <text transform="translate(680.8359 1124.1997)" fill="white">
          <tspan font-family="Helvetica" font-size="32" fill="white" x="0" y="31">CRC</tspan>
        </text>
      </g>
      <g id="Graphic_24">
        <rect x="778.5" y="1039" width="242" height="75" fill="#ff4255"/>
      </g>
      <g id="Graphic_23">
        <text transform="translate(825.7031 1049.1997)" fill="white">
          <tspan font-family="Helvetica" font-size="32" fill="white" x="0" y="31">Masterkey</tspan>
        </text>
      </g>
      <g id="Graphic_22">
        <rect x="1029.5" y="1039" width="769" height="75" fill="#929292"/>
      </g>
      <g id="Graphic_21">
        <text transform="translate(1306.375 1049.1997)" fill="white">
          <tspan font-family="Helvetica" font-size="32" fill="white" x="0" y="31">Encrypted data</tspan>
        </text>
      </g>
      <g id="Graphic_20">
        <path d="M 1037.618 1119.2232 C 1035.923 1118.8804 1034.231 1119.9278 1033.869 1121.6038 C 1031.355 1132.9548 1029.491 1172.1929 1123.917 1172.1928 C 1227.123 1172.1928 1310.18 1163.2652 1335.319 1163.2653 C 1359.773 1163.2653 1383.766 1160.7204 1403.287 1182.013 C 1404.258 1183.0795 1405.763 1183.4581 1407.096 1182.9057 C 1408.982 1182.1249 1409.791 1179.9156 1408.763 1178.1444 C 1403.582 1169.2693 1384.006 1146.3911 1320.262 1148.5052 C 1249.642 1150.8478 1176.584 1152.7809 1107.907 1153.9808 C 1072.045 1154.6092 1038.809 1153.3095 1040.237 1122.4371 C 1040.313 1120.8944 1039.201 1119.5278 1037.678 1119.2232 C 1037.659 1119.2232 1037.637 1119.2232 1037.618 1119.2232 Z M 1790.322 1119.2232 C 1788.799 1119.5278 1787.687 1120.8944 1787.763 1122.4371 C 1789.191 1153.3095 1755.955 1154.6092 1720.093 1153.9808 C 1651.416 1152.7809 1578.358 1150.8478 1507.738 1148.5052 C 1443.994 1146.3911 1424.418 1169.2693 1419.237 1178.1444 C 1418.209 1179.9156 1419.018 1182.1249 1420.904 1182.9057 C 1422.237 1183.4581 1423.742 1183.0795 1424.713 1182.013 C 1444.234 1160.7204 1468.227 1163.2653 1492.681 1163.2653 C 1517.82 1163.2652 1600.877 1172.1928 1704.083 1172.1928 C 1798.509 1172.1929 1796.645 1132.9548 1794.131 1121.6038 C 1793.77 1119.9278 1792.077 1118.8804 1790.382 1119.2232 C 1790.363 1119.2232 1790.341 1119.2232 1790.322 1119.2232 Z" fill="black"/>
      </g>
      <g id="Graphic_19">
        <path d="M 256.0583 1020.5398 C 254.3472 1020.8859 252.6385 1019.8285 252.2733 1018.1366 C 249.7355 1006.6783 247.8538 967.0691 343.1733 967.0692 C 447.3557 967.0692 531.1975 976.0812 556.5751 976.0811 C 581.2605 976.0811 605.4798 978.65 625.1857 957.1561 C 626.1662 956.0795 627.6851 955.6974 629.0308 956.2549 C 630.9341 957.0432 631.7511 959.2734 630.713 961.0613 C 625.4837 970.0203 605.7224 993.1149 541.375 990.9808 C 470.0873 988.6161 396.3386 986.6647 327.012 985.4535 C 290.8105 984.819 257.2599 986.1311 258.7017 1017.2955 C 258.7786 1018.8528 257.6563 1020.2323 256.1183 1020.5398 C 256.0991 1020.5398 256.0774 1020.5398 256.0583 1020.5398 Z M 1015.882 1020.5398 C 1014.344 1020.2323 1013.221 1018.8528 1013.298 1017.2955 C 1014.74 986.1311 981.1894 984.819 944.988 985.4535 C 875.6614 986.6647 801.9127 988.6161 730.625 990.9808 C 666.2776 993.1149 646.5163 970.0203 641.287 961.0613 C 640.2489 959.2734 641.0659 957.0432 642.9692 956.2549 C 644.3149 955.6974 645.8338 956.0795 646.8143 957.1561 C 666.5201 978.65 690.7395 976.0811 715.4249 976.0811 C 740.8024 976.0812 824.6443 967.0692 928.8267 967.0692 C 1024.146 967.0691 1022.264 1006.6783 1019.727 1018.1366 C 1019.361 1019.8285 1017.653 1020.8859 1015.942 1020.5398 C 1015.922 1020.5398 1015.901 1020.5398 1015.882 1020.5398 Z" fill="black"/>
      </g>
      <g id="Graphic_18">
        <text transform="translate(333.82666 855.3501)" fill="#5e5e5e">
          <tspan font-family="Helvetica" font-size="30" fill="#5e5e5e" x="0" y="29">Encrypted using key based on user password</tspan>
        </text>
      </g>
      <g id="Graphic_17">
        <text transform="translate(942.1125 855.3501)" fill="#5e5e5e">
          <tspan font-family="Helvetica" font-size="30" fill="#5e5e5e" x="0" y="29">!</tspan>
        </text>
      </g>
      <g id="Graphic_16">
        <text transform="translate(187.12256 891.3501)" fill="#5e5e5e">
          <tspan font-family="Helvetica" font-size="30" fill="#5e5e5e" x="0" y="29">(The key is derived using well-known cryptographic hash functions.)</tspan>
        </text>
      </g>
      <g id="Line_15">
        <line x1="661.566" y1="1188" x2="661.64076" y2="1114" stroke="black" stroke-linecap="round" stroke-linejoin="miter" stroke-width="1"/>
      </g>
      <g id="Graphic_14">
        <path d="M 253.9948 1188.1236 C 253.0854 1187.9397 252.1773 1188.5017 251.9832 1189.4009 C 250.6345 1195.4907 249.6344 1216.5419 300.2942 1216.5419 C 355.6644 1216.5419 400.2242 1211.7522 413.7117 1211.7523 C 426.8313 1211.7523 439.7033 1210.3869 450.1764 1221.8104 C 450.6975 1222.3826 451.5048 1222.5857 452.22 1222.2894 C 453.2316 1221.8704 453.6658 1220.6852 453.114 1219.7349 C 450.3348 1214.9734 439.8322 1202.6992 405.6332 1203.8335 C 367.7457 1205.0903 328.5502 1206.1274 291.7049 1206.7711 C 272.4648 1207.1083 254.6334 1206.4109 255.3998 1189.8479 C 255.4406 1189.0202 254.8442 1188.2871 254.0268 1188.1236 C 254.0165 1188.1236 254.005 1188.1236 253.9948 1188.1236 Z M 657.8211 1188.1236 C 657.0038 1188.2871 656.4072 1189.0202 656.4481 1189.8479 C 657.2144 1206.4109 639.3831 1207.1083 620.143 1206.7711 C 583.2977 1206.1274 544.1022 1205.0903 506.2146 1203.8335 C 472.0157 1202.6992 461.5131 1214.9734 458.7338 1219.7349 C 458.1821 1220.6852 458.6163 1221.8704 459.6279 1222.2894 C 460.3431 1222.5857 461.1504 1222.3826 461.6715 1221.8104 C 472.1446 1210.3869 485.0166 1211.7523 498.1362 1211.7523 C 511.6237 1211.7522 556.1835 1216.5419 611.5537 1216.5419 C 662.2135 1216.5419 661.2134 1195.4907 659.8647 1189.4009 C 659.6706 1188.5017 658.7624 1187.9397 657.8531 1188.1236 C 657.8428 1188.1236 657.8314 1188.1236 657.8211 1188.1236 Z" fill="black"/>
      </g>
      <g id="Line_13">
        <line x1="904.566" y1="1114" x2="905.0619" y2="1254.0027" stroke="black" stroke-linecap="butt" stroke-linejoin="miter" stroke-width="1"/>
      </g>
      <g id="Line_12">
        <path d="M 1413.879 1204.579 L 1413.8725 1207.079 L 1413.7494 1254.0013" stroke="black" stroke-linecap="butt" stroke-linejoin="miter" stroke-width="1"/>
      </g>
      <g id="Graphic_11">
        <path d="M 1424.073 1207.1058 L 1413.926 1186.6791 L 1403.673 1207.0523 Z" fill="black"/>
      </g>
      <g id="Line_10">
        <line x1="903.4944" y1="1253.1708" x2="1415.4926" y2="1254.5308" stroke="black" stroke-linecap="butt" stroke-linejoin="miter" stroke-width="1"/>
      </g>
      <g id="Line_9">
        <line x1="460.2538" y1="1225.9987" x2="460.34943" y2="1252.9985" stroke="black" stroke-linecap="butt" stroke-linejoin="miter" stroke-width="1"/>
      </g>
      <g id="Line_8">
        <path d="M 716.2355 1213.2389 L 716.2335 1215.7389 L 716.2054 1251.3389" stroke="black" stroke-linecap="butt" stroke-linejoin="miter" stroke-width="1"/>
      </g>
      <g id="Graphic_7">
        <path d="M 726.4335 1215.7469 L 716.2496 1195.3389 L 706.0335 1215.7308 Z" fill="black"/>
      </g>
      <g id="Line_6">
        <line x1="460.5009" y1="1251.3197" x2="718.5009" y2="1251.3376" stroke="black" stroke-linecap="butt" stroke-linejoin="miter" stroke-width="1"/>
      </g>
      <g id="Graphic_5">
        <text transform="translate(571.1382 1247.3501)" fill="#5e5e5e">
          <tspan font-family="Helvetica" font-size="30" fill="#5e5e5e" x="0" y="29">Input</tspan>
        </text>
      </g>
      <g id="Graphic_4">
        <text transform="translate(1036.9268 1247.3501)" fill="#5e5e5e">
          <tspan font-family="Helvetica" font-size="30" fill="#5e5e5e" x="0" y="29">used for encryption</tspan>
        </text>
      </g>
    </g>
  </g>
</svg>
