<?xml version="1.0" encoding="UTF-8" standalone="no"?>
<!DOCTYPE svg PUBLIC "-//W3C//DTD SVG 1.1//EN" "http://www.w3.org/Graphics/SVG/1.1/DTD/svg11.dtd">
<svg xmlns:xl="http://www.w3.org/1999/xlink" xmlns:dc="http://purl.org/dc/elements/1.1/" xmlns="http://www.w3.org/2000/svg" version="1.1" viewBox="-377 89 1707.0146 511.2294" width="1707.0146" height="511.2294">
  <defs/>
  <g id="generic_file_encryption" fill-opacity="1" stroke-opacity="1" fill="none" stroke-dasharray="none" stroke="none">
    <title>generic_file_encryption</title>
    <rect fill="white" x="-377" y="89" width="1707.0146" height="511.2294"/>
    <g id="generic_file_encryption_Layer_1">
      <title>Layer 1</title>
      <g id="Graphic_19">
        <rect x="-377" y="270.8994" width="1549" height="75" fill="#929292"/>
      </g>
      <g id="Graphic_18">
        <text transform="translate(289.875 282.54)" fill="white">
          <tspan font-family="Helvetica" font-size="32" fill="white" x="0" y="31">Encrypted data</tspan>
        </text>
      </g>
      <g id="Graphic_17">
        <path d="M -367.8183 271.1374 C -371.2649 271.8345 -374.7066 269.7047 -375.4424 266.2967 C -380.5543 243.2162 -384.34454 163.4312 -192.3421 163.4314 C 17.512911 163.4314 186.39591 181.5842 237.5141 181.5841 C 287.238 181.5841 336.023 186.7587 375.7167 143.4634 C 377.6917 141.2947 380.7513 140.525 383.4619 141.6481 C 387.2958 143.2359 388.9414 147.7281 386.8504 151.3296 C 376.317 169.3758 336.5117 215.8954 206.8965 211.5966 C 63.30141 206.8333 -85.25089 202.9026 -224.896 200.4629 C -297.8166 199.1849 -365.3979 201.8279 -362.4935 264.6025 C -362.3386 267.7393 -364.5993 270.518 -367.6973 271.1374 C -367.736 271.1374 -367.7797 271.1374 -367.8183 271.1374 Z M 1162.6973 271.1374 C 1159.5993 270.518 1157.3383 267.7393 1157.4933 264.6025 C 1160.3973 201.8279 1092.8163 199.1849 1019.8963 200.4629 C 880.2513 202.9026 731.6983 206.8333 588.1033 211.5966 C 458.4882 215.8954 418.683 169.3758 408.1496 151.3296 C 406.0585 147.7281 407.7042 143.2359 411.5381 141.6481 C 414.2487 140.525 417.3083 141.2947 419.2833 143.4634 C 458.9769 186.7587 507.762 181.5841 557.4863 181.5841 C 608.6043 181.5842 777.4873 163.4314 987.3423 163.4314 C 1179.3443 163.4312 1175.5543 243.2162 1170.4423 266.2967 C 1169.7063 269.7047 1166.2653 271.8345 1162.8183 271.1374 C 1162.7793 271.1374 1162.7363 271.1374 1162.6973 271.1374 Z" fill="black"/>
      </g>
      <g id="Graphic_16">
        <text transform="translate(95.32661 89)" fill="#5e5e5e">
          <tspan font-family="Helvetica" font-size="30" fill="#5e5e5e" x="0" y="29">Encrypted using key based on user password</tspan>
        </text>
      </g>
      <g id="Graphic_15">
        <rect x="1046.0003" y="270.8994" width="126" height="75" fill="#ff644e"/>
      </g>
      <g id="Graphic_14">
        <text transform="translate(1074.3459 282.54)" fill="white">
          <tspan font-family="Helvetica" font-size="32" fill="white" x="0" y="31">CRC</tspan>
        </text>
      </g>
      <g id="Graphic_13">
        <rect x="-52.99999" y="409.8994" width="1225" height="75" fill="#929292"/>
      </g>
      <g id="Graphic_12">
        <text transform="translate(451.875 421.54)" fill="white">
          <tspan font-family="Helvetica" font-size="32" fill="white" x="0" y="31">Encrypted data</tspan>
        </text>
      </g>
      <g id="Graphic_11">
        <rect x="-377" y="409.8994" width="324" height="75" fill="#ff644e"/>
      </g>
      <g id="Graphic_10">
        <text transform="translate(-357.9141 421.54)" fill="white">
          <tspan font-family="Helvetica" font-size="32" fill="white" x="0" y="31">Well-de</tspan>
        </text>
      </g>
      <g id="Graphic_9">
        <text transform="translate(-250.0079 421.54)" fill="white">
          <tspan font-family="Helvetica" font-size="32" fill="white" x="0" y="31">ﬁ</tspan>
        </text>
      </g>
      <g id="Graphic_8">
        <text transform="translate(-233.9759 421.54)" fill="white">
          <tspan font-family="Helvetica" font-size="32" fill="white" x="0" y="31">ned header</tspan>
        </text>
      </g>
      <g id="Graphic_7">
        <text transform="translate(1269.9853 284)" fill="#5e5e5e">
          <tspan font-family="Helvetica" font-size="30" fill="#5e5e5e" x="0" y="29">Alt 1</tspan>
        </text>
      </g>
      <g id="Graphic_6">
        <text transform="translate(1269.9853 423)" fill="#5e5e5e">
          <tspan font-family="Helvetica" font-size="30" fill="#5e5e5e" x="0" y="29">Alt 2</tspan>
        </text>
      </g>
      <g id="Graphic_5">
        <text transform="translate(-371.0327 564.2294)" fill="#5e5e5e">
          <tspan font-family="Helvetica" font-size="30" fill="#5e5e5e" x="0" y="29">The CRC or well-de</tspan>
        </text>
      </g>
      <g id="Graphic_4">
        <text transform="translate(-107.62449 564.2294)" fill="#5e5e5e">
          <tspan font-family="Helvetica" font-size="30" fill="#5e5e5e" x="0" y="29">ﬁ</tspan>
        </text>
      </g>
      <g id="Graphic_3">
        <text transform="translate(-92.62449 564.2294)" fill="#5e5e5e">
          <tspan font-family="Helvetica" font-size="30" fill="#5e5e5e" x="0" y="29">ned header is used to verify the password.</tspan>
        </text>
      </g>
    </g>
  </g>
</svg>
