<?xml version="1.0" encoding="UTF-8" standalone="no"?>
<!DOCTYPE svg PUBLIC "-//W3C//DTD SVG 1.1//EN" "http://www.w3.org/Graphics/SVG/1.1/DTD/svg11.dtd">
<svg xmlns:xl="http://www.w3.org/1999/xlink" xmlns:dc="http://purl.org/dc/elements/1.1/" xmlns="http://www.w3.org/2000/svg" version="1.1" viewBox="-78.5 513.5 724.5132 222.6394" width="724.5132" height="222.6394">
  <defs>
    <marker orient="auto" overflow="visible" markerUnits="strokeWidth" id="FilledArrow_Marker" stroke-linejoin="miter" stroke-miterlimit="10" viewBox="-1 -3 7 6" markerWidth="7" markerHeight="6" color="black">
      <g>
        <path d="M 4.8 0 L 0 -1.8 L 0 1.8 Z" fill="currentColor" stroke="currentColor" stroke-width="1"/>
      </g>
    </marker>
  </defs>
  <g id="structure_of_secure_hash_code" fill-opacity="1" stroke-opacity="1" fill="none" stroke-dasharray="none" stroke="none">
    <title>structure_of_secure_hash_code</title>
    <rect fill="white" x="-78.5" y="513.5" width="724.5132" height="222.6394"/>
    <g id="structure_of_secure_hash_code_Layer_1">
      <title>Layer 1</title>
      <g id="Group_19">
        <g id="Graphic_2">
          <path d="M 22.5 730.1378 L 22.5 596.8622 C 22.5 593.5485 25.18629 590.8622 28.5 590.8622 C 29.263317 590.8622 30.019622 591.00785 30.728344 591.29134 L 94.22834 616.69134 C 96.5063 617.6025 98 619.8088 98 622.2622 L 98 704.7378 C 98 707.1912 96.5063 709.3975 94.22834 710.3087 L 30.728344 735.7087 C 27.651643 736.9393 24.15982 735.44285 22.92914 732.36615 C 22.64565 731.6574 22.5 730.9011 22.5 730.1378 Z" fill="#c0ffc0"/>
        </g>
        <g id="Graphic_5">
          <text transform="translate(57.19385 650.5)" fill="black">
            <tspan font-family="Helvetica" font-size="22" fill="black" x="0" y="21">f</tspan>
          </text>
        </g>
      </g>
      <g id="Group_18">
        <g id="Graphic_3">
          <path d="M 179.5365 730.1378 L 179.5365 596.8622 C 179.5365 593.5485 182.2228 590.8622 185.5365 590.8622 C 186.29982 590.8622 187.05612 591.00785 187.76484 591.29134 L 251.26484 616.69134 C 253.5428 617.6025 255.0365 619.8088 255.0365 622.2622 L 255.0365 704.7378 C 255.0365 707.1912 253.5428 709.3975 251.26484 710.3087 L 187.76484 735.7087 C 184.68814 736.9393 181.19632 735.44285 179.96564 732.36615 C 179.68215 731.6574 179.5365 730.9011 179.5365 730.1378 Z" fill="#c0ffc0"/>
        </g>
        <g id="Graphic_6">
          <text transform="translate(214.23035 650.5)" fill="black">
            <tspan font-family="Helvetica" font-size="22" fill="black" x="0" y="21">f</tspan>
          </text>
        </g>
      </g>
      <g id="Graphic_8">
        <path d="M 479.5 730.1378 L 479.5 596.8622 C 479.5 593.5485 482.1863 590.8622 485.5 590.8622 C 486.2633 590.8622 487.0196 591.00785 487.72834 591.29134 L 551.22834 616.69134 C 553.5063 617.6025 555 619.8088 555 622.2622 L 555 704.7378 C 555 707.1912 553.5063 709.3975 551.22834 710.3087 L 487.72834 735.7087 C 484.65164 736.9393 481.1598 735.44285 479.92914 732.36615 C 479.64565 731.6574 479.5 730.9011 479.5 730.1378 Z" fill="#c0ffc0"/>
      </g>
      <g id="Graphic_7">
        <text transform="translate(514.19385 650.5)" fill="black">
          <tspan font-family="Helvetica" font-size="22" fill="black" x="0" y="21">f</tspan>
        </text>
      </g>
      <g id="Graphic_9">
        <text transform="translate(-24.5 518.5)" fill="black">
          <tspan font-family="Helvetica" font-size="20" fill="black" x="0" y="19">Y</tspan>
          <tspan font-family="Helvetica" font-size="13" fill="black" y="25">0</tspan>
        </text>
      </g>
      <g id="Graphic_10">
        <text transform="translate(128 518.5)" fill="black">
          <tspan font-family="Helvetica" font-size="20" fill="black" x="0" y="19">Y</tspan>
          <tspan font-family="Helvetica" font-size="13" fill="black" y="25">1</tspan>
        </text>
      </g>
      <g id="Graphic_11">
        <text transform="translate(429.5 518.5)" fill="black">
          <tspan font-family="Helvetica" font-size="20" fill="black" x="0" y="19">Y</tspan>
          <tspan font-family="Helvetica" font-size="13" fill="black" y="25">L-1</tspan>
        </text>
      </g>
      <g id="Line_13">
        <path d="M 445.56445 551.5 L 445.56445 638.3333 L 466.6 638.3333" marker-end="url(#FilledArrow_Marker)" stroke="black" stroke-linecap="round" stroke-linejoin="round" stroke-width="2"/>
      </g>
      <g id="Line_14">
        <path d="M 138.28491 551.5 L 138.28491 562.5 L 138.23828 638.66016 L 166.63689 638.4336" marker-end="url(#FilledArrow_Marker)" stroke="black" stroke-linecap="round" stroke-linejoin="round" stroke-width="2"/>
      </g>
      <g id="Line_15">
        <path d="M -14.215088 551.5 L -14.215088 638.4645 L -6.715088 638.4645 L 9.600129 638.3909" marker-end="url(#FilledArrow_Marker)" stroke="black" stroke-linecap="round" stroke-linejoin="round" stroke-width="2"/>
      </g>
      <g id="Graphic_16">
        <text transform="translate(-73.5 664)" fill="black">
          <tspan font-family="Helvetica" font-size="20" fill="black" x="0" y="19">IV =</tspan>
          <tspan font-family="Helvetica" font-size="20" fill="black" x=".55981445" y="43">CV</tspan>
          <tspan font-family="Helvetica" font-size="13" fill="black" y="49">0</tspan>
        </text>
      </g>
      <g id="Graphic_17">
        <text transform="translate(121.26166 676)" fill="black">
          <tspan font-family="Helvetica" font-size="20" fill="black" x="0" y="19">CV</tspan>
          <tspan font-family="Helvetica" font-size="13" fill="black" y="25">1</tspan>
        </text>
      </g>
      <g id="Line_20">
        <line x1="-32.367188" y1="688.6667" x2="9.6" y2="688.6667" marker-end="url(#FilledArrow_Marker)" stroke="black" stroke-linecap="round" stroke-linejoin="round" stroke-width="2"/>
      </g>
      <g id="Line_21">
        <line x1="161.27484" y1="690" x2="166.7056" y2="690" marker-end="url(#FilledArrow_Marker)" stroke="black" stroke-linecap="round" stroke-linejoin="round" stroke-width="2"/>
      </g>
      <g id="Line_22">
        <line x1="98" y1="690" x2="103.36166" y2="690" marker-end="url(#FilledArrow_Marker)" stroke="black" stroke-linecap="round" stroke-linejoin="round" stroke-width="2"/>
      </g>
      <g id="Line_23">
        <path d="M 255.0365 693.7 L 255.0365 693.7 L 299.6 693.7" marker-end="url(#FilledArrow_Marker)" stroke="black" stroke-linecap="round" stroke-linejoin="round" stroke-width="2"/>
      </g>
      <g id="Line_24">
        <line x1="422.6852" y1="688.6667" x2="466.6" y2="688.6667" marker-end="url(#FilledArrow_Marker)" stroke="black" stroke-linecap="round" stroke-linejoin="round" stroke-width="2"/>
      </g>
      <g id="Line_25">
        <line x1="555" y1="663.5" x2="588.1" y2="663.5" marker-end="url(#FilledArrow_Marker)" stroke="black" stroke-linecap="round" stroke-linejoin="round" stroke-width="2"/>
      </g>
      <g id="Graphic_26">
        <text transform="translate(606 649.5)" fill="black">
          <tspan font-family="Helvetica" font-size="20" fill="black" x="0" y="19">CV</tspan>
          <tspan font-family="Helvetica" font-size="13" fill="black" y="25">L</tspan>
        </text>
      </g>
      <g id="Graphic_27">
        <text transform="translate(372 676)" fill="black">
          <tspan font-family="Helvetica" font-size="20" fill="black" x="0" y="19">CV</tspan>
          <tspan font-family="Helvetica" font-size="13" fill="black" y="25">L-1</tspan>
        </text>
      </g>
      <g id="Graphic_28">
        <text transform="translate(-29 579.5)" fill="black">
          <tspan font-family="Helvetica" font-size="20" fill="black" x="0" y="19">b</tspan>
        </text>
      </g>
      <g id="Graphic_29">
        <text transform="translate(121.26166 579.5)" fill="black">
          <tspan font-family="Helvetica" font-size="20" fill="black" x="0" y="19">b</tspan>
        </text>
      </g>
      <g id="Graphic_30">
        <text transform="translate(429.5 579.5)" fill="black">
          <tspan font-family="Helvetica" font-size="20" fill="black" x="0" y="19">b</tspan>
        </text>
      </g>
      <g id="Graphic_31">
        <text transform="translate(6.376953 660)" fill="black">
          <tspan font-family="Helvetica" font-size="20" fill="black" x="0" y="19">n</tspan>
        </text>
      </g>
      <g id="Graphic_32">
        <text transform="translate(161.75488 660)" fill="black">
          <tspan font-family="Helvetica" font-size="20" fill="black" x="0" y="19">n</tspan>
        </text>
      </g>
      <g id="Graphic_33">
        <text transform="translate(463.37695 660)" fill="black">
          <tspan font-family="Helvetica" font-size="20" fill="black" x="0" y="19">n</tspan>
        </text>
      </g>
      <g id="Line_34">
        <line x1="318" y1="692.85185" x2="367" y2="692.85185" stroke="black" stroke-linecap="round" stroke-linejoin="round" stroke-dasharray="3.0,12.0" stroke-width="3"/>
      </g>
    </g>
  </g>
</svg>
