<?xml version="1.0" encoding="utf-8" standalone="no"?>
<!-- Generator: DataGraph - https://www.visualdatatools.com/DataGraph/index.html  --><!DOCTYPE svg PUBLIC "-//W3C//DTD SVG 1.1//EN" "http://www.w3.org/Graphics/SVG/1.1/DTD/svg11.dtd">
<svg width="350" height="225" version="1.1" xmlns="http://www.w3.org/2000/svg" xmlns:xlink="http://www.w3.org/1999/xlink" viewBox="0 0 350 225">
  <style>
    @import url('/LectureDoc2/ext/fonts/ld-fonts.css'); 
  </style>
<g>
  <!-- Commands -->
  <g id="Commands">
    <!-- (1/2)/(1-x) -->
    <g id="1_2_1_x">
      <path d="M 36.5 198.6 L 96.3813 198.111 L 139.344 197.569 L 171.3 196.975 L 195.676 196.329 L 214.739 195.633 
               L 230.013 194.881 L 242.404 194.076 L 252.555 193.221 L 261.041 192.311 L 268.22 191.342 
               L 274.268 190.327 L 279.454 189.26 L 283.908 188.147 L 287.862 186.955 L 291.374 185.687 
               L 294.48 184.35 L 297.28 182.918 L 299.7 181.46 L 301.882 179.921 L 303.919 178.241 L 305.858 176.366 
               L 307.608 174.381 L 309.167 172.314 L 310.64 170.037 L 312.014 167.555 L 313.366 164.685 
               L 314.628 161.51 L 315.804 158.004 L 316.91 154.078 L 317.988 149.48 L 319.006 144.219 
               L 319.88 138.751 L 320.758 132.074 L 321.531 124.875 L 322.378 115.019 L 323.125 103.913 
               L 323.791 91.2557 L 324.377 77.0207 L 324.992 57.4725 L 325.546 33.6772 L 325.939 10.5 "
        stroke="black" fill="none" stroke-width="2"/>
    </g>
    <!-- (1/10)/(1-x) -->
    <g id="1_10_1_x">
      <path d="M 36.5 200.12 L 152.904 199.869 L 210.405 199.562 L 243.308 199.202 L 263.96 198.789 L 277.915 198.32 
               L 287.731 197.8 L 294.974 197.223 L 300.379 196.601 L 304.577 195.928 L 308.034 195.169 
               L 310.739 194.374 L 313.008 193.498 L 314.853 192.577 L 316.428 191.575 L 317.754 190.51 
               L 319.006 189.244 L 320.094 187.848 L 321.06 186.285 L 321.978 184.394 L 322.719 182.457 
               L 323.532 179.71 L 324.216 176.661 L 324.875 172.733 L 325.461 167.971 L 325.943 162.617 
               L 326.43 155.084 L 326.834 146.089 L 327.213 133.72 L 327.605 113.101 L 327.888 88.0185 
               L 328.101 57.1942 L 328.262 10.5 "
        stroke="rgb(77,175,74)" fill="none" stroke-width="2"/>
    </g>
    <!-- No name -->
    <g id="No_name">
      <g font-family="NotoSansDisplay-Regular" font-size="14" fill="black">
        <text x="140.5" y="146.465">μ = 2</text>
      </g>
    </g>
    <!-- No name -->
    <g id="No_name_2">
      <g font-family="NotoSansDisplay-Regular" font-size="14" fill="rgb(77,175,74)">
        <text x="206.5" y="171.465">μ = 10</text>
      </g>
    </g>
  </g>
  <!-- Foreground -->
  <g id="Foreground">
    <!-- Y Axis -->
    <g id="Y_Axis">
      <!-- Y Labels -->
      <g id="Y_Labels">
        <g font-family="NotoSansDisplay-Regular" font-size="14" fill="black">
          <text x="17.692" y="205.498">0</text>
        </g>
        <g font-family="NotoSansDisplay-Regular" font-size="14" fill="black">
          <text x="9.684" y="167.498">10</text>
        </g>
        <g font-family="NotoSansDisplay-Regular" font-size="14" fill="black">
          <text x="9.684" y="129.498">20</text>
        </g>
        <g font-family="NotoSansDisplay-Regular" font-size="14" fill="black">
          <text x="9.684" y="91.498">30</text>
        </g>
        <g font-family="NotoSansDisplay-Regular" font-size="14" fill="black">
          <text x="9.684" y="53.498">40</text>
        </g>
        <g font-family="NotoSansDisplay-Regular" font-size="14" fill="black">
          <text x="9.684" y="15.498">50</text>
        </g>
      </g>
      <path d="M 28.5 200.5 L 36.5 200.5 M 32.5 181.5 L 36.5 181.5 M 28.5 162.5 L 36.5 162.5 M 32.5 143.5 L 36.5 143.5 
               M 28.5 124.5 L 36.5 124.5 M 32.5 105.5 L 36.5 105.5 M 28.5 86.5 L 36.5 86.5 M 32.5 67.5 L 36.5 67.5 
               M 28.5 48.5 L 36.5 48.5 M 32.5 29.5 L 36.5 29.5 M 28.5 10.5 L 36.5 10.5 "
        stroke="black" fill="none" stroke-width="1"/>
    </g>
    <!-- X Axis -->
    <g id="X_Axis">
      <g>
        <g font-family="NotoSansDisplay-Regular" font-size="14" fill="black">
          <text x="32.496" y="221.495">0</text>
        </g>
        <g font-family="NotoSansDisplay-Regular" font-size="14" fill="black">
          <text x="85.0912" y="221.495">0,2</text>
        </g>
        <g font-family="NotoSansDisplay-Regular" font-size="14" fill="black">
          <text x="143.566" y="221.495">0,4</text>
        </g>
        <g font-family="NotoSansDisplay-Regular" font-size="14" fill="black">
          <text x="202.042" y="221.495">0,6</text>
        </g>
        <g font-family="NotoSansDisplay-Regular" font-size="14" fill="black">
          <text x="260.517" y="221.495">0,8</text>
        </g>
        <g font-family="NotoSansDisplay-Regular" font-size="14" fill="black">
          <text x="318.992" y="221.495">1,0</text>
        </g>
      </g>
      <path d="M 36.5 208.5 L 36.5 200.5 M 94.9752 208.5 L 94.9752 200.5 M 153.45 208.5 L 153.45 200.5 
               M 211.926 208.5 L 211.926 200.5 M 270.401 208.5 L 270.401 200.5 M 328.876 208.5 L 328.876 200.5 
               M 65.7376 204.5 L 65.7376 200.5 M 124.213 204.5 L 124.213 200.5 M 182.688 204.5 L 182.688 200.5 
               M 241.163 204.5 L 241.163 200.5 M 299.639 204.5 L 299.639 200.5 "
        stroke="black" fill="none" stroke-width="1"/>
    </g>
    <path d="M 331.8 200.5 L 331.8 10.5 L 36.5 10.5 L 36.5 200.5 L 331.8 200.5 z "
      stroke="black" stroke-linecap="square" fill="none" stroke-width="1"/>
  </g>
  <!-- Zoom -->
  <g id="Zoom">
    <!-- Connection -->
    <g id="Connection">
      <path d="M 330.484 157.484 L 243.8 35.5 "
        stroke="black" fill="none" stroke-width="1"/>
      <path d="M 269.816 199.208 L 75.8 180.5 "
        stroke="black" fill="none" stroke-width="1"/>
    </g>
    <!-- Source -->
    <g id="Source">
      <rect x="269.816" y="157.484" width="60.6681" height="41.724" stroke="black" fill="none" stroke-width="1"/>
    </g>
    <!-- Destination -->
    <g id="Destination">
      <!-- Content -->
      <g id="Content" transform="translate(75,181)">>
        <!-- Commands -->
        <g id="Commands_2">
          <path d="M 0.8 -28.6977 L 9.72178 -30.5838 L 17.9526 -32.5276 L 25.5549 -34.5279 L 32.5939 -36.5857 
                   L 39.1744 -38.7188 L 45.2586 -40.9008 L 50.9499 -43.1539 L 56.2847 -45.4812 L 61.2878 -47.8828 
                   L 66.0143 -50.3762 L 70.4508 -52.945 L 74.643 -55.6058 L 78.5926 -58.3505 L 82.3541 -61.2105 
                   L 85.9307 -64.1843 L 89.352 -67.2945 L 92.6017 -70.5232 L 95.6975 -73.8835 L 98.7093 -77.4567 
                   L 101.57 -81.1679 L 104.309 -85.0533 L 106.971 -89.185 L 109.54 -93.5524 L 112.004 -98.1431 
                   L 114.392 -103.025 L 116.709 -108.23 L 118.963 -113.803 L 121.121 -119.684 L 123.226 -126.016 
                   L 125.248 -132.739 L 127.209 -139.958 L 128.565 -145.5 "
            stroke="black" fill="none" stroke-width="2"/>
          <path d="M 0.8 -2.54756 L 19.8347 -3.40866 L 35.6976 -4.32094 L 49.0803 -5.28586 L 60.509 -6.30678 
                   L 70.2814 -7.3765 L 78.7732 -8.50444 L 86.1479 -9.68275 L 92.6423 -10.9211 L 98.393 -12.2212 
                   L 103.486 -13.5779 L 108.001 -14.9854 L 112.066 -16.4608 L 115.734 -18.0042 L 119.099 -19.6395 
                   L 122.144 -21.3445 L 124.95 -23.149 L 127.544 -25.0619 L 129.925 -27.0713 L 132.145 -29.2124 
                   L 134.223 -31.5033 L 136.181 -33.97 L 138.019 -36.6204 L 139.756 -39.4885 L 141.388 -42.5806 
                   L 142.948 -45.9741 L 144.452 -49.7511 L 145.873 -53.8853 L 147.235 -58.4934 L 148.518 -63.5561 
                   L 149.753 -69.2748 L 150.929 -75.6924 L 152.038 -82.8746 L 153.1 -91.0729 L 154.098 -100.332 
                   L 155.084 -111.437 L 155.994 -124.011 L 156.855 -138.731 L 157.173 -145.5 "
            stroke="rgb(77,175,74)" fill="none" stroke-width="2"/>
        </g>
        <g>
          <!-- Y Labels -->
          <g id="Y_Labels_2">
            <g font-family="NotoSansDisplay-Regular" font-size="13" fill="black">
              <text x="-17.236" y="-17.7807">2</text>
            </g>
            <g font-family="NotoSansDisplay-Regular" font-size="13" fill="black">
              <text x="-17.236" y="-44.1923">4</text>
            </g>
            <g font-family="NotoSansDisplay-Regular" font-size="13" fill="black">
              <text x="-17.236" y="-70.604">6</text>
            </g>
            <g font-family="NotoSansDisplay-Regular" font-size="13" fill="black">
              <text x="-17.236" y="-97.0156">8</text>
            </g>
            <g font-family="NotoSansDisplay-Regular" font-size="13" fill="black">
              <text x="-24.672" y="-123.427">10</text>
            </g>
          </g>
          <path d="M -3.2 -9.21585 L 0.8 -9.21585 M -7.2 -22.4217 L 0.8 -22.4217 M -3.2 -35.6275 L 0.8 -35.6275 
                   M -7.2 -48.8333 L 0.8 -48.8333 M -3.2 -62.0392 L 0.8 -62.0392 M -7.2 -75.245 L 0.8 -75.245 
                   M -3.2 -88.4508 L 0.8 -88.4508 M -7.2 -101.657 L 0.8 -101.657 M -3.2 -114.862 L 0.8 -114.862 
                   M -7.2 -128.068 L 0.8 -128.068 M -3.2 -141.274 L 0.8 -141.274 "
            stroke="black" fill="none" stroke-width="1"/>
          <g>
            <g font-family="NotoSansDisplay-Regular" font-size="13" fill="black">
              <text x="0.8" y="-155.356">0,8</text>
            </g>
            <g font-family="NotoSansDisplay-Regular" font-size="13" fill="black">
              <text x="74.2051" y="-155.356">0,9</text>
            </g>
            <g font-family="NotoSansDisplay-Regular" font-size="13" fill="black">
              <text x="150.444" y="-155.356">1,0</text>
            </g>
          </g>
          <path d="M 2.41928 -145.5 L 2.41928 -153.5 M 10.5157 -145.5 L 10.5157 -149.5 M 18.612 -145.5 L 18.612 -149.5 
                   M 26.7084 -145.5 L 26.7084 -149.5 M 34.8048 -145.5 L 34.8048 -149.5 M 42.9012 -145.5 L 42.9012 -149.5 
                   M 50.9976 -145.5 L 50.9976 -149.5 M 59.094 -145.5 L 59.094 -149.5 M 67.1904 -145.5 L 67.1904 -149.5 
                   M 75.2867 -145.5 L 75.2867 -149.5 M 83.3831 -145.5 L 83.3831 -153.5 M 91.4795 -145.5 L 91.4795 -149.5 
                   M 99.5759 -145.5 L 99.5759 -149.5 M 107.672 -145.5 L 107.672 -149.5 M 115.769 -145.5 L 115.769 -149.5 
                   M 123.865 -145.5 L 123.865 -149.5 M 131.961 -145.5 L 131.961 -149.5 M 140.058 -145.5 L 140.058 -149.5 
                   M 148.154 -145.5 L 148.154 -149.5 M 156.251 -145.5 L 156.251 -149.5 M 164.347 -145.5 L 164.347 -153.5 "
            stroke="black" fill="none" stroke-width="1"/>
        </g>
      </g>
      <rect x="75.8" y="35.5" width="168" height="145" stroke="black" fill="none" stroke-width="1"/>
    </g>
  </g>
</g>
</svg>
